<svg xmlns="http://www.w3.org/2000/svg" viewBox="0 0 570.85 400"><defs><style>.cls-1{fill:#f0f6e8;}</style></defs><g id="Capa_2" data-name="Capa 2"><g id="Capa_1-2" data-name="Capa 1"><path class="cls-1" d="M297.68,399.58a117.53,117.53,0,0,1-13.75.31c-9.48-.64-19,.44-28.41-.82-3.78-.5-7.64-.35-11.46-.57a449.46,449.46,0,0,1-59.28-7.37,325.71,325.71,0,0,1-44.86-11.91c-22.79-7.88-44.12-18.65-63.06-33.66a171.36,171.36,0,0,1-33.51-35.19A192.28,192.28,0,0,1,17.71,258.9,248.22,248.22,0,0,1,8.1,218c-1.55-10.39-2.68-20.79-3.49-31.26-.67-8.69-.75-17.39-1.18-26.08a166.45,166.45,0,0,1-.33-18.94c.55-8.83.07-17.65.54-26.45.52-9.55,1.3-19.11,1-28.67-.28-9.73-1.13-19.42-2.1-29.12C1.49,46.83-.34,36.27.06,25.52c.32-8.76,5.17-16,13.33-19,7.87-2.85,16.07-4,24.38-4.74,9-.83,18-.73,26.94-1.2C82.47-.32,100.23,0,118,.34c10.64.21,21.29.1,31.93.38,28.41.77,56.83.08,85.23.7,38.6.85,77.21.67,115.79.26,28-.29,56.07.32,84.09-.52,15.45-.47,30.89-.44,46.33-.3,8.9.08,17.84.05,26.73.53,13.89.75,27.88,1,41.47,4.55a39.36,39.36,0,0,1,12.82,5.62c5.78,4,8,9.89,8.36,16.52a178.76,178.76,0,0,1-1.57,30c-.68,5.68-.93,11.42-1.23,17.14s-.74,11.49-.52,17.21c.42,11,.68,22,1.23,33,.65,12.76.4,25.51.32,38.26-.07,9.73-.79,19.47-1.69,29.17-2.25,24.11-6.41,47.87-14.69,70.74-7.16,19.76-16.83,38.14-30.25,54.45a178.62,178.62,0,0,1-45.58,39.47,247.81,247.81,0,0,1-64.62,27.2A383.72,383.72,0,0,1,365,394.4c-10.86,1.52-21.74,2.72-32.69,3.53C320.79,398.78,309.25,399.41,297.68,399.58Z"/></g></g></svg>