<svg xmlns="http://www.w3.org/2000/svg" width="230.65" height="241.05" viewBox="0 0 230.65 241.05">
  <path id="_2hierba1" data-name="2hierba1" d="M365,3771.977l1.342-2.6c1.022.452.343,1.842.531,2.353,1.419,1.535,2.727,2.8,3.9,4.3.874,1.156.771,1.646-.029,3.054l-4.022-4.524c-.8,3.42-1.361,6.439-2.187,9.429s-1.9,5.489-2.893,8.289c-1-.414-1.062-1.03-.7-2.148.775-2.429,1.445-4.823,2.3-7.647a14.278,14.278,0,0,1-1.71,1.05c-.283.087-.8.072-.849-.155a2.247,2.247,0,0,1-.071-.743,2.525,2.525,0,0,1,.164-.752,30.844,30.844,0,0,1,2.055-2.427c.789-.9,2.159-.927,2.163-3.051C364.993,3775.09,365,3773.643,365,3771.977Zm-.343,20.271a4.376,4.376,0,0,0-1.328,2.772A3.8,3.8,0,0,0,364.66,3792.248ZM351,3747.377c-.894,2.465-.536,3.866,1.145,4.8a8.964,8.964,0,0,0-.214-2.629A6.428,6.428,0,0,0,351,3747.377ZM420.628,3758a2.828,2.828,0,0,1-2.192.673,2.886,2.886,0,0,1-1.907-1.3,54.565,54.565,0,0,1-3.486-4.272c-.919-1.163-1.7-2.543-2.688-3.554-2-2.168-4.075-4.2-6.114-6.311a.871.871,0,0,0-.725-.345c.113,1.607.927,1.905,1.53,2.682,1.132,1.36,2.3,2.642,3.336,4.1,1.5,2.037,1.311,4.984,1.083,7.813-.138,1.706-.864,2.454-1.995,1.971a3.785,3.785,0,0,1-1.609-1.215c-1.26-1.452-1.249-1.5-2.7-.307-3.347,2.692-5.12,2.4-7.457-1.344-.24-.386-.437-.807-.666-1.241-1.342,2.6-1.342,2.6-3.153,2.414-.629,2.974-1.323,5.9-1.846,8.865a5.292,5.292,0,0,1-.811,2,3.121,3.121,0,0,1-1.374,1.168,1.767,1.767,0,0,1-1.658-.2,2.981,2.981,0,0,1-1.1-1.687c-.221-.547-.469-1.04-.707-1.6a6.346,6.346,0,0,0-1.014.312c-2.222.922-3.351-.832-3.354-4.335a14.141,14.141,0,0,1,.568-3.633,76.446,76.446,0,0,0,1.9-14.137,12.446,12.446,0,0,1-2.723,4.443,7,7,0,0,1-3.737,2.1,20.5,20.5,0,0,0,1.061,1.864c.98,1.581.471,3.883.832,5.764a3.426,3.426,0,0,1-.981,1.66,9.027,9.027,0,0,1-4.657,2.48c-1.07.176-2.144.506-3.582.859,1.691,2.372,3.071,4.444,4.548,6.377a25.2,25.2,0,0,1,3.2,8.409,25.688,25.688,0,0,0,.73,2.8,7.326,7.326,0,0,1,.414,2.643,8.436,8.436,0,0,1-.522,2.755c-.217.81-1.044,1.414-1.627,2.009a14.929,14.929,0,0,0-1.543,1.241c-.6.8-.981,1.879-1.962,1.588a2.525,2.525,0,0,1-1.435-.778,4.252,4.252,0,0,1-.95-1.709c-.3-.98-.658-1.985-1.1-3.231a6.261,6.261,0,0,0-.344,1.376c.248,3.536-.832,6.824-1.715,10.094a9.369,9.369,0,0,1-2.047,3.607,2.927,2.927,0,0,1-1.29.667,2.179,2.179,0,0,1-1.306-.125,2.715,2.715,0,0,1-1.105-.894,4.423,4.423,0,0,1-.713-1.512c-.1-.318-.168-.649-.313-1.194a13.186,13.186,0,0,1-1.03.95,9.536,9.536,0,0,1-1.781,1.336,2.112,2.112,0,0,1-1.244.423,1.859,1.859,0,0,1-1.176-.447,2.976,2.976,0,0,1-.839-1.217,4.818,4.818,0,0,1-.317-1.711,12.749,12.749,0,0,1,.191-4.438c.71-2.692,1.732-5.283,2.613-7.917a8.107,8.107,0,0,0,.135-1.334,34.761,34.761,0,0,1-2.08,2.938,6.65,6.65,0,0,1-1.829,1.722,1.18,1.18,0,0,1-1.4-.179,1.937,1.937,0,0,1-.476-.731,3.034,3.034,0,0,1-.192-.994,12.04,12.04,0,0,1-.017-1.966,5.129,5.129,0,0,0-.07-2.386,2.881,2.881,0,0,0-1.082-1.638c-.367-.238-.553-1.582-.475-2.417a3.808,3.808,0,0,0-.2-1.859,1.976,1.976,0,0,0-.975-1.131,19.335,19.335,0,0,0-6.806-3.163,3.474,3.474,0,0,1-1.553-.4c-1.791-1.639-3.548-.4-5.252.935a4.452,4.452,0,0,0-1.52,2.021,5.864,5.864,0,0,1-.934,1.894,3.592,3.592,0,0,1-1.383,1.139,22.031,22.031,0,0,0-2.392,1.96c.49.464.786.986,1.09.979a14.652,14.652,0,0,0,2.9-.365c1.6-.383,3.218-.834,4.817-1.283a5.742,5.742,0,0,0,1.492-.459,9.019,9.019,0,0,1,7.249-.3,3.052,3.052,0,0,1,1.791,1.228,5.622,5.622,0,0,1,.971,2.5c.374,2.073-.083,4.01-1.775,4.026a1.9,1.9,0,0,0-.613.364,12.553,12.553,0,0,1,.8,2.49,13.725,13.725,0,0,1,.106,4.107c-.647,3.591-2.943,4.976-5.459,3.866a84.768,84.768,0,0,0-9.791-3.562,2.823,2.823,0,0,0-2.312.514c.84.464,1.594,1,2.524,1.414a7.927,7.927,0,0,1,4.257,3.991,6.3,6.3,0,0,1,.619,2.5c.05,3.313-.977,4.526-3.172,3.887l-1.865-.74-.939,2.478c-1.352,3.523-3.311,4.5-5.233,2.307a46.209,46.209,0,0,1-4.061-5.737,11.683,11.683,0,0,0-5.584-4.852,26.3,26.3,0,0,0-6.889-1.717,22.076,22.076,0,0,0-15.084,3.321,107.719,107.719,0,0,0-12.81,10.087c-.8.728-1.68,1.261-2.5,1.951a17.835,17.835,0,0,0-2.568,2.277,35.449,35.449,0,0,0-3.329,4.46c-2.015,3.2-3.926,6.591-5.89,9.868-.394.689-.872,1.253-1.249,1.959a10.763,10.763,0,0,0-1.322,2.879,4.766,4.766,0,0,1-.445,1.258,3.519,3.519,0,0,1-.725.963c-2.48,2.667-4.391,1.5-6.8-.868a4.378,4.378,0,0,1-.448-.737,78.454,78.454,0,0,1-14.918,11.961,5.892,5.892,0,0,1-4.941,1.058,15.567,15.567,0,0,1-1.924-1.138c.715-2.409,1.338-4.593,1.949-6.752a3.521,3.521,0,0,1,.632-1.318,2.012,2.012,0,0,1,.978-.709c4.3-1.5,8.135-4.82,12.052-7.862,1.778-1.377,3.6-2.616,5.374-3.994s3.795-3.027,5.646-4.667c2.081-1.844,4.121-3.828,6.146-5.808a9.689,9.689,0,0,0,1.2-1.572q1.759-2.893,3.712-5.52c2.8-3.509,5.728-6.97,8.716-10.209a137.591,137.591,0,0,1,13.425-12.619c5.949-4.914,12.235-8.509,18.395-12.591,4.018-2.681,8.142-4.953,12.244-7.308,1.728-.991,3.525-1.674,5.277-2.54.68-.318,1.339-.7,2.16-1.146-.287-.394-.386-.714-.522-.715a10.564,10.564,0,0,0-6.73,1.41c-3.1,2.048-6.076,4.625-9.156,6.776a14.119,14.119,0,0,1-4.86,2.412,29.6,29.6,0,0,0-10.36,4.388,101.092,101.092,0,0,0-12.028,9.08,94.9,94.9,0,0,0-13.335,14.539,30.087,30.087,0,0,1-2.107,2.334c-2.639,3-5.32,5.837-7.928,8.849s-5.4,6.369-8.056,9.636c-1.542,1.919-2.976,4.067-4.514,6.027a5.766,5.766,0,0,1-3.466,2.288,4.02,4.02,0,0,1-3.478-1.118,5.731,5.731,0,0,1-.6-1.526c4.021-4.365,7.132-9.764,10.583-14.657,2.133-3.041,4.487-5.757,6.754-8.642a93.974,93.974,0,0,1,10.656-10.367c3.594-3.294,7.136-6.9,10.746-10.177a138.1,138.1,0,0,1,12.933-11.154c2.369-1.646,4.779-3.132,7.127-4.86a14.168,14.168,0,0,0,2.759-3.037,7.582,7.582,0,0,0,1.287-2.635,8.9,8.9,0,0,0,.292-3.083,24.45,24.45,0,0,1,.058-3.936,8.26,8.26,0,0,0-.2-3.527,4.87,4.87,0,0,0-1.566-2.5,4.382,4.382,0,0,1-1.288-1.689,7.117,7.117,0,0,1-.589-2.43,8.877,8.877,0,0,1,.23-2.681,7.915,7.915,0,0,1,1-2.393,5.739,5.739,0,0,1,2.395-2.459,3.144,3.144,0,0,1,2.777-.072q.537-.862,1.134-1.64a2.755,2.755,0,0,1,1.011-.791,1.767,1.767,0,0,1,1.1-.116,1.912,1.912,0,0,1,.975.582,3.142,3.142,0,0,1,.663,1.166c.516,1.7.817,3.6,1.261,5.59a16.532,16.532,0,0,0,.456-4.4,14.071,14.071,0,0,0-.734-4.123c-.643-1.992-1.317-3.974-1.937-5.863a6.527,6.527,0,0,1-.473-2.495,7.724,7.724,0,0,1,.462-2.647,5.448,5.448,0,0,1,1.44-2.275,2.789,2.789,0,0,1,1.988-.792,2.471,2.471,0,0,1,2.1.794,4.8,4.8,0,0,1,1.183,2.575,6.357,6.357,0,0,0,.157,1.135c2.236-.272,4.7-1.225,5.35,3.041a50.849,50.849,0,0,1-2.327,16.764,29.99,29.99,0,0,0,2.784-3.767,4.818,4.818,0,0,1,1.608-1.762,2.71,2.71,0,0,1,1.912-.414,1.306,1.306,0,0,1,.913.284,2.113,2.113,0,0,1,.65.924,3.54,3.54,0,0,1,.217,1.324,4.1,4.1,0,0,1-.27,1.382c-.184.648-.384,1.279-.759,2.423a5.38,5.38,0,0,0,3.114-3.387,10.167,10.167,0,0,0,.535-5.068,6.291,6.291,0,0,0-1.941-3.87,4.826,4.826,0,0,0-2.2-1.319,6.264,6.264,0,0,1-4.292-3.585c.9-1.941.335-3.913.426-5.868-.021-.3-.395-.644-.653-.85-.6-.473-1.245-.8-1.843-1.272a3.449,3.449,0,0,1-1.317-1.978,6.134,6.134,0,0,1-.077-2.893,5.159,5.159,0,0,1,.986-2.367,2.619,2.619,0,0,1,1.729-1.072c1.923-.394,3.86-.595,5.821-.891-.011-.15-.038-.535-.176-.559-2.882-.866-5.76-1.711-8.65-2.488a2.584,2.584,0,0,0-1.721.025,4.565,4.565,0,0,1-4.316-.469c-2.567-1.4-2.953-4.939-.966-8.33.476-.824.984-1.615,1.475-2.423a17.707,17.707,0,0,1-.382-1.963,7.991,7.991,0,0,1,.12-3.19,6.94,6.94,0,0,1,1.313-2.751,3.813,3.813,0,0,1,2.064-1.382,2.584,2.584,0,0,1,2.117.453,18.351,18.351,0,0,1,2.574,1.705c.791.633,1.615,1.3,2.8,2.358a8.348,8.348,0,0,1-.7-4.371,9.01,9.01,0,0,1,1.506-4.285c1.093-1.6,2.153-1.055,3.131-.37,2.947-2.941,3.783-2.761,5.246,2s2.78,9.414,4.183,14.194c0,0,.177.121.281.09,2.223-.684,3.692-2.12,3.834-5.951.066-1.882.969-2.268,2.352-1.883a3.572,3.572,0,0,1,1.925,1.107,5.947,5.947,0,0,1,1.288,2.307,26.893,26.893,0,0,0-1.17-8.4,13.054,13.054,0,0,1-.041-6.862c.427-1.73,1.045-3.343,2.365-3.66s3-.7,4.034,1.235a13.135,13.135,0,0,0,.611,1.323c.544.8,1.142,1.072,1.807-.1.176-.317.4-.561.564-.852a2.885,2.885,0,0,1,1.32-1.317,1.591,1.591,0,0,1,1.506.1,2.161,2.161,0,0,1,1.24,1.153,4.3,4.3,0,0,1,.407,2.107,62.3,62.3,0,0,1-.992,7.574c-.8,4.188-1.806,8.328-2.689,12.474a19.138,19.138,0,0,0-.181,2.42,5.234,5.234,0,0,0,.8-1.462,6.451,6.451,0,0,0,.366-1.741q.432-2.322.907-4.657a9,9,0,0,1,1.137-2.776,5.94,5.94,0,0,1,1.813-1.875,4.518,4.518,0,0,1,2.157-.334,20.026,20.026,0,0,0,.428-6.7,7.991,7.991,0,0,1,.18-2.986,6.9,6.9,0,0,1,1.225-2.572,3.944,3.944,0,0,1,1.9-1.389,2.542,2.542,0,0,1,2.009.212c.395-1.107.823-2.18,1.2-3.3.632-1.858,1.9-3.582,2.618-3.3a3.175,3.175,0,0,1,1.22,1.356,5.493,5.493,0,0,1,.549,2.129,26.625,26.625,0,0,1-.014,3.923c.062.879-.083,1.843-.15,3.287a11.983,11.983,0,0,0,2.522-5.329c.593-3.488,2.116-6.321,3.143-9.482a5.355,5.355,0,0,0,.148-.725,9.8,9.8,0,0,0-5.9-3.421c-2.367-.5-4.824-.533-7.168-1.148a9.386,9.386,0,0,1-4.094-2.29c-2.211-2.188-2.14-4.641-.091-7.788.221-.331.474-.649.753-1.019-.153-.435-.2-.88-.377-1.023a3.952,3.952,0,0,1-1.025-2.169,6.209,6.209,0,0,1,.188-2.785,6.412,6.412,0,0,1,.476-1.947,4.866,4.866,0,0,1,1-1.526,2.876,2.876,0,0,1,1.315-.787,2.035,2.035,0,0,1,1.353.119c1.472.555,3.1.648,4.085,2.818.326.731,1.3.781,1.984,1.12l.3-.444a12.2,12.2,0,0,0-.865-1.661c-1.389-1.763-2.846-3.636-4.214-5.537a5.685,5.685,0,0,1-.917-2.349,8.061,8.061,0,0,1,.049-2.836,4.8,4.8,0,0,1,.381-1.577,3.534,3.534,0,0,1,.831-1.2,2.028,2.028,0,0,1,1.082-.542,1.548,1.548,0,0,1,1.072.253c.784.307,1.57.656,2.308.977l.3-.092a6.176,6.176,0,0,0,.468-1.151,5.364,5.364,0,0,1,.9-2.416,2.862,2.862,0,0,1,1.68-1.223,2.261,2.261,0,0,1,1.694.206,3.255,3.255,0,0,1,1.3,1.436,17.069,17.069,0,0,1,2.755,6.882,29.728,29.728,0,0,0,1.711,5.255,25.106,25.106,0,0,1,.609-4.566,3.657,3.657,0,0,1,.755-1.485,1.958,1.958,0,0,1,1.153-.691,1.418,1.418,0,0,1,1.149.342,2.509,2.509,0,0,1,.744,1.258,5.5,5.5,0,0,1,.51,1.725,7.053,7.053,0,0,1-.023,1.956,9.347,9.347,0,0,0,.008,1.64,1.216,1.216,0,0,0,.606.164c2-.614,2.461-.34,2.689,2.48s.179,5.572.239,8.378a2.669,2.669,0,0,1-.213,1.094c-1.713,2.716-1.092,6.138-1.8,9.135a2.29,2.29,0,0,0,.507,1.573,21.847,21.847,0,0,0,2.11,1.826,13.89,13.89,0,0,0,1.771-7.112c-.042-2.33.02-4.692.114-7.041a62.311,62.311,0,0,0-1.18-12.008c-.043-.621-.619-1.014-.984-1.427a4.228,4.228,0,0,1-1.11-2.543,6.44,6.44,0,0,1,.449-3.166,2.978,2.978,0,0,1,.816-1.3,1.481,1.481,0,0,1,1.137-.411.939.939,0,0,0,.671.043,1.407,1.407,0,0,0,.639-.436,2.4,2.4,0,0,0,.454-.809,2.992,2.992,0,0,0,.154-.986,12.644,12.644,0,0,1,1.05-3.779,9.323,9.323,0,0,1,2.032-2.9,3.105,3.105,0,0,1,1.158-1.034,1.883,1.883,0,0,1,1.3-.152,2.1,2.1,0,0,1,1.122.767,3.686,3.686,0,0,1,.676,1.5,32.179,32.179,0,0,1,.577,5.165c.181,2.571.229,5.206.4,7.782a17.306,17.306,0,0,0,.467,2.528l.43.043a15.062,15.062,0,0,0,.763-2.14c.69-3.43,1.395-6.843,1.929-10.291a53.643,53.643,0,0,0,.488-6.5c.1-3.338,1.624-4.878,3.7-5.67a2.767,2.767,0,0,1,2.612.844,5.546,5.546,0,0,1,1.394,3.225,12.544,12.544,0,0,0,.26,1.956c.68-.494,1.264-.87,1.828-1.306a2.722,2.722,0,0,1,1.508-.579,2.287,2.287,0,0,1,1.453.447,3.491,3.491,0,0,1,1.089,1.381,5.737,5.737,0,0,1,.493,2.019,15.409,15.409,0,0,1-.429,4.6,13.757,13.757,0,0,1-1.734,4.1c-1.951,3.686-3.9,7.373-5.819,11.093a19.273,19.273,0,0,0-.744,2.418c1.044-.737,1.667-1.213,2.31-1.607a20.547,20.547,0,0,1,3.131-1.86c.9-.386,1.531.1,1.791,1.639.446,2.228.729,4.287-.893,6.361a11.132,11.132,0,0,0,.922.746,3.275,3.275,0,0,1,1.258,1.469,5.755,5.755,0,0,1,.5,2.286,6.975,6.975,0,0,1-.4,2.472,5.44,5.44,0,0,1-1.183,1.972,15.4,15.4,0,0,1-5.414,3.853l-11.255,4.464c-.7.216-1.378.774-2.079.989a6.672,6.672,0,0,0-3.085,2.4,11.527,11.527,0,0,0-1.931,4.288,29.624,29.624,0,0,1-5.413,9.742,12.034,12.034,0,0,0-2.631,4.837l2.532,1.762a21.235,21.235,0,0,1,.036,2.9c-.147,1.38-.165,2.853-1.268,3.651-.334.234-.48,1.177-.938,2.478,1.965-1.107,3.327-1.022,4.345,1.095l4.012-3.421a3.408,3.408,0,0,0,.953-1.346,4.735,4.735,0,0,0,.349-1.813c.435-7.249,2.291-14.235,3.594-21.291a14.806,14.806,0,0,1,1.468-3.822c.988-1.99,1.667-2.089,2.836-.631l.517.63c1.253-1.7,2.612-3.386,4.207-1.73,1.069,1.116,1.074,2.91.44,5.184a18.769,18.769,0,0,0,4.731-4.912,13.112,13.112,0,0,1,6.247-5.006l.567-.174c2.992-.81,3.513-.335,4.176,4.1a6.3,6.3,0,0,0,1.574.721,3.2,3.2,0,0,1,2.136,1.489,6.385,6.385,0,0,1,.965,3.163,8.794,8.794,0,0,1-.683,4.02,5.8,5.8,0,0,1-2.239,2.745,24.828,24.828,0,0,1-4.7,2.3,24.477,24.477,0,0,0-6.98,3.261,15.888,15.888,0,0,0-2.541,2.445,1.772,1.772,0,0,0,1.094.515,1.889,1.889,0,0,0,1.19-.341,2.87,2.87,0,0,1,2.379-.545,3.248,3.248,0,0,1,1.978,1.615c1,1.663,1.023,2.4-.281,3.808a15.775,15.775,0,0,1-1.294,1.1l.38,1.285c1.086,3.739-.3,7.208-3.2,7.552a36.212,36.212,0,0,1-5.787.07,33.861,33.861,0,0,0-9.649.622,4.442,4.442,0,0,0-2.486,1.022,7.689,7.689,0,0,0-2,2.546c.788.809,1.526.035,2.34-.325,1.7-.784,3.4-1.547,5.1-2.224a1.927,1.927,0,0,1,1.326-.013c1.2.376,1.98,2.151.615,3.993-.29.418-.6.775-.88,1.124a2.454,2.454,0,0,0,.043.622c.963,3.295-.381,5.853-3.315,6.164a4.937,4.937,0,0,0-3.505,1.317,2.417,2.417,0,0,0,1.334.594,2.5,2.5,0,0,0,1.444-.309c2-.459,3.984-1.224,5.983-1.619a5.906,5.906,0,0,1,3.1.734,28.572,28.572,0,0,1,3.337,1.952,66.6,66.6,0,0,0,7.991-11.212c2.749-4.26,5.326-8.774,8.919-11.652a3.5,3.5,0,0,1,1.323-.922,2.354,2.354,0,0,1,1.408-.088,2.59,2.59,0,0,1,1.245.761,4.157,4.157,0,0,1,.867,1.477,10.307,10.307,0,0,1,1.194-.783,16.136,16.136,0,0,1,3.2-1.247c1.505-.265,1.962.382,2.368,2.25a4.509,4.509,0,0,1,0,2.2,3.809,3.809,0,0,1-.985,1.827c-1.577,2.061-3.173,4.084-4.752,6.123a25.08,25.08,0,0,0,8.942-3.973,17.778,17.778,0,0,1,12.629-2.895,1.744,1.744,0,0,1,1.632,1.514,4.293,4.293,0,0,1-.213,1.682,3.3,3.3,0,0,1-.81,1.325c-.715.9-1.5,1.664-2.462,2.7.543.8.973,1.5,1.459,2.113a5.682,5.682,0,0,1,1.211,5.518,6.563,6.563,0,0,1-1.577,3.03,3.2,3.2,0,0,1-2.431,1.091c-3.574-.106-7.136-.479-10.718-.692-2.524-.123-5.04-.138-7.634-.2l-.1.6,2.666.626a4.423,4.423,0,0,1,2.7,1.361,7.556,7.556,0,0,1,1.777,3.174c.99,3.243-.123,5.621-2.657,5.567a13.323,13.323,0,0,1-2.28-.351c-.144.79-.235,1.431-.389,2.069a6.39,6.39,0,0,1-.635,2.07,4.455,4.455,0,0,1-1.2,1.5,2.544,2.544,0,0,1-1.48.567,2.148,2.148,0,0,1-1.413-.492,33.579,33.579,0,0,1-4.778-2.91,14.492,14.492,0,0,0-6.269-2.454c-1.447-.212-2.83-.794-4.268-1.1-1.92-.416-3.862-.717-6.253-1.144.692,1.408,1.178,2.244,1.563,3.155,1.022,2.4.754,4.016-1.12,5.752a12.657,12.657,0,0,1-3.079,2.171,37.88,37.88,0,0,1-3.835,1.376,7.371,7.371,0,0,0-1.058.785,38.411,38.411,0,0,1,12.075,2.859,11.629,11.629,0,0,1,6.352,6.04,10.33,10.33,0,0,1,.8,3.563,2.747,2.747,0,0,1-2,2.8,22.472,22.472,0,0,1-3.444.445,37.522,37.522,0,0,0,0,4.094,4.892,4.892,0,0,1-.233,2.963A13.4,13.4,0,0,1,420.628,3758ZM259.9,3832.727a3.1,3.1,0,0,0,1.676-.635,5.2,5.2,0,0,0,1.4-1.622l6.32-10.262C266.576,3821.437,261.419,3828.517,259.9,3832.727Zm159.443-121.362a3.793,3.793,0,0,0-.852,3.5c1.022.211,2.027.428,3.091.583a37.486,37.486,0,0,1,13.346,4.483,34.356,34.356,0,0,0,3.769,2.236c1.578.763,1.962.36,2.455-2.155.4-1.961.789-2.433,2.109-2.313a8.982,8.982,0,0,0,1.544.292c.562-.04,1.314-.184,2.113-.3a6.134,6.134,0,0,0-.857-2.727,3.262,3.262,0,0,0-1.784-1.454c-1.12-.313-2.214-.7-3.317-.995a1.829,1.829,0,0,1-1.153-.409,2.856,2.856,0,0,1-.84-1.158,4.662,4.662,0,0,1-.342-1.653,5.63,5.63,0,0,1,.231-1.782,24.447,24.447,0,0,1,2.93-.375c.99-.02,2.309.1,3.457.185,3.233.234,6.47.531,9.728.691,1.53.077,3.206-.153,4.8-.227.9-.035,1.219-1.076,1.611-2.006a2.256,2.256,0,0,0-.382-2.4,23.164,23.164,0,0,1-1.574-2.231,2.7,2.7,0,0,1-.61-1.156,4.182,4.182,0,0,1-.1-1.511,4.318,4.318,0,0,1,.429-1.472,2.952,2.952,0,0,1,.85-1.049l1.61-1.808a5.857,5.857,0,0,0-1.786-.48,25.416,25.416,0,0,0-9.216,2.678c-1.813.885-3.61,1.984-5.425,2.826s-3.308,1.3-4.972,1.922a1.234,1.234,0,0,1-1.2.061,1.843,1.843,0,0,1-.854-1.095c-.431-1.356.434-2.06,1.036-2.814,1.54-1.94,3.112-3.868,4.637-5.8a3.385,3.385,0,0,0,.862-1.625,3.966,3.966,0,0,0-.015-1.941,25.918,25.918,0,0,0-2.44,1.077c-.761.432-1.311,1.082-1.983,1.485a1.213,1.213,0,0,1-1.138.273,1.505,1.505,0,0,1-.888-.9c-.978-2-.986-1.887-2.541-.8-3.434,2.522-5.605,6.976-8.379,10.872S422.054,3707.621,419.345,3711.365Zm-15.532-22.772a9.486,9.486,0,0,1-2.271,2.6,31.341,31.341,0,0,1-2.848,2.845,11.109,11.109,0,0,0-3.139,4.139,14.957,14.957,0,0,1-1.524,3.029c-2.9,3.585-5.858,7.077-8.781,10.6a7.423,7.423,0,0,0-.55.847,15.176,15.176,0,0,0,2.943-2.59,7.342,7.342,0,0,1,2.506-2.191,4.593,4.593,0,0,1,2.793-.487,1.325,1.325,0,0,0,1.253-.384c2.579-2.983,5.611-3.651,8.486-5.038.582-.179,1.168-.512,1.591.956-3.125,2.383-6.884,2.465-9.271,6.023-.052,2.052-.1,3.576-.144,5.08l4.553-.26a4.9,4.9,0,0,1,4.579,1.176c-1.605,1.239-3.005.618-4.328.871s-2.927.417-4.227.575c-.348,1.334-.566,2.364-.883,3.271-.9,2.618-2.614,3.365-4.285,4.1a10.478,10.478,0,0,0-3.562,2.43c.582,1.354.59,1.461,1.2,1.252,2.7-.829,5.449-1.411,7.883-3.867a20.134,20.134,0,0,1,1.408-1.636,73.178,73.178,0,0,1,5.887-4.5,33.156,33.156,0,0,1,5.983-3.13,3.33,3.33,0,0,1,2.945.325,5.319,5.319,0,0,1,2.063,2.823,6.377,6.377,0,0,0,1.333-.979c1.225-1.428,1.507-4.58.417-5.34a5.177,5.177,0,0,0-4.673-1.433c-1.91.587-3.82,1.173-5.74,1.61a2.96,2.96,0,0,1-2.386.158,3.792,3.792,0,0,1-1.918-1.769,2.658,2.658,0,0,1,.624-3.7,6.546,6.546,0,0,1,4.36-1.514,1.8,1.8,0,0,0,1.2-.341,3.232,3.232,0,0,0,.991-1.166c-.368-1.113-.714-2.123-1.077-3.172l1.226-2.063a2.195,2.195,0,0,0-.767-.071c-3.445,1.716-6.875,3.448-10.307,5.137-.928.461-1.925,1.008-2.523-.757a9.751,9.751,0,0,0,1.187-1.547,20.81,20.81,0,0,1,7.019-8.571,14.23,14.23,0,0,1,8.626-1.731c2.936.128,5.887.053,8.822.18a1.884,1.884,0,0,0,2.009-1.777q-.486-2.138-.766-4.385c-.121-1.736,1.4-1.744,2.123-3.411a24.853,24.853,0,0,0-2.488.152,14.171,14.171,0,0,1-2.693.521,2.508,2.508,0,0,1-2.226-1.966,4.287,4.287,0,0,1,1.289-3.352,16.077,16.077,0,0,1,5.384-3.843c2.449-1.146,4.943-2.109,7.406-3.063a4.876,4.876,0,0,0,1.823-1.2,7.658,7.658,0,0,0,1.435-2.1c.682-1.369.73-2.194-.028-3.21a5.655,5.655,0,0,0-1.731-1.438,8.949,8.949,0,0,0-1.668-.517,1.14,1.14,0,0,1-.579-.263,1.708,1.708,0,0,1-.439-.584,2.646,2.646,0,0,1-.23-.814,3.354,3.354,0,0,1,.016-.916q.03-.684.011-1.361a5.677,5.677,0,0,0-4.114.891,25.838,25.838,0,0,0-6.924,6.879,18.9,18.9,0,0,1-2.661,2.678.983.983,0,0,1-.827.387.936.936,0,0,1-.709-.55,6.488,6.488,0,0,1-.42-2.5c-.039-.558.5-1.182.6-1.806a8.871,8.871,0,0,0,.01-1.8,3.5,3.5,0,0,0-1.4.431c-.391.295-.629,1.025-.978,1.482-1.086,1.451-1.346,1.443-2.372.073-.118-.161-.317-.166-.6-.276a19.772,19.772,0,0,0-.944,2.611c-.71,3.129-1.4,6.255-1.979,9.365s-1.052,6.716-1.576,10.1C404.028,3686.009,404.242,3687.542,403.813,3688.593Zm-11.445-4.739c-.089.028-.181.232-.376.489.334.423.668.845,1.151,1.42.4-1.635-.059-1.931-.789-1.9Zm-8.3,9.425c-1.706,4.355-3.267,8.8-4.974,13.153a10.784,10.784,0,0,1-1.684,2.926,1.577,1.577,0,0,1-1.492.459c-.327-.119-.576-1.049-.621-1.692a8.755,8.755,0,0,1,.236-2.5c.493-2.079,1.065-4.137,1.645-6.285-.326-.733-.669-1.5-.98-2.239a21.354,21.354,0,0,1-1.714,2.278c-.754.779-1.291-.151-1.921-.439a2.024,2.024,0,0,0-1.193-.181,2.576,2.576,0,0,0-1.2.541,4.131,4.131,0,0,0-1,1.173,5.893,5.893,0,0,0-.642,1.61,15.176,15.176,0,0,1-1.034,2.858,4.76,4.76,0,0,0-.522,1.7,4.587,4.587,0,0,0,.125,1.753,22.728,22.728,0,0,1-.441,9.989,25.723,25.723,0,0,1-6.926,12.483,30.366,30.366,0,0,1-4.429,3.551c-1.268.826-2.632,1.158-3.922,1.882a12.467,12.467,0,0,0-1.957,2.091,6.343,6.343,0,0,0,1.515-.137c1.753-.867,3.522-1.717,5.248-2.751,1.331-.8,2.581-2.084,3.92-2.78,1.63-.873,3.338-1.289,4.037-4.153.06-.215.326-.342.48-.541,1.7-2.21,3.439-4.407,5.109-6.671a3.941,3.941,0,0,0,.594-1.737,93.623,93.623,0,0,0,.753-13.783c-.013-.194.213-.439.347-.7.205.091.477.073.52.235,1.114,3.927.257,8.219.1,12.647a30.394,30.394,0,0,0,6.9-7.921c2.569-4.642,5.619-8.732,7.529-14.091a9.659,9.659,0,0,1,.659-1.254c.253.141.437.15.474.249.162.563.295,1.157.425,1.708,1.775.09,1.775.09,1.923,1.774l-1.129.193a7.583,7.583,0,0,0-1.351.284,1.692,1.692,0,0,0-.7.4,2.684,2.684,0,0,0-.561.755,3.631,3.631,0,0,0-.336.986,3.849,3.849,0,0,0-.055,1.058,6.448,6.448,0,0,0,.685,1.738l-1.288.965a6.083,6.083,0,0,0-1.721,1.316c-1.478,2.184-2.82,4.545-4.28,6.767a33.609,33.609,0,0,1-2.429,3.177c-.856,1.051-1.746,2.047-2.638,3a8.851,8.851,0,0,0,3.368,0c1.027-.119,2.052-.084,3.04-.1a8.663,8.663,0,0,0,2.092-.161c1.732-.532,3.451-1.213,5.193-1.6a.819.819,0,0,1,.563.2,1.34,1.34,0,0,1,.392.6c.06.858-.269,1.375-.916,1.486-1.3.223-2.574.462-3.867.728l-3.674.844c-2.13.5-4.248.933-6.368,1.562-.97.3-1.9,1.57-2.894.473-.131-.135-.67.206-.863.506-1.11,1.765-2.156,3.6-3.436,5.762L378,3725.97a51.5,51.5,0,0,0,6.719-2.415c2.243-1.039,4.413-2.252,6.678-3.429a2.166,2.166,0,0,0,1.023-.826,3.771,3.771,0,0,0,.6-1.468l-1.332-2.678c.383-.622.658-1.035.9-1.482a2.526,2.526,0,0,0,.5-1.249,2.475,2.475,0,0,0-.177-1.324,1.46,1.46,0,0,0-.724-.8,1.06,1.06,0,0,0-.958.065,9.507,9.507,0,0,0-2.144,1.578c-1.6,1.479-3.2,3-4.751,4.612a1.6,1.6,0,0,1-1.194.614,1.365,1.365,0,0,1-1.094-.634,1.749,1.749,0,0,1-.419-.64,2.725,2.725,0,0,1-.176-.871,3.2,3.2,0,0,1,.1-.938,2.913,2.913,0,0,1,.357-.836,25.86,25.86,0,0,1,2.364-3.659c.908-1.178,1.953-2.133,2.819-3.253,1.825-2.224,3.652-4.428,5.391-6.779a12.386,12.386,0,0,0,2.413-5.58c-2.984.917-3.827-.226-3.479-4.164l-.018-.257c.316-3.316-.674-4.391-2.764-2.9a14.648,14.648,0,0,0-4.579,6.618Zm-12.956,49.411a3.319,3.319,0,0,1,2,.89,5.414,5.414,0,0,1,1.4,2.18l.7-4.769c-2.294-.981-3.537-2.176-1.258-6.181.571-.986,1.4-1.83,1.411-3.345-4.041-.686-14.953,4.11-20.538,8.979.077,1.093.259,1.957,1.316,1.391a7.487,7.487,0,0,1,1.731-.532,1.954,1.954,0,0,1,1.709-.022,2.777,2.777,0,0,1,1.287,1.444,6.385,6.385,0,0,1,.055,2.709,5.918,5.918,0,0,1-1.035,2.432l-4.525,6.315.133.595a2.717,2.717,0,0,0,1.278-.262,28.773,28.773,0,0,0,7.478-6.785,37.558,37.558,0,0,1,2.953-3.1A5.37,5.37,0,0,1,371.113,3742.69Zm-21.935-2.852-.224-.369-5.036,4.24,1.3,2.164Zm8.544-20.469a9.053,9.053,0,0,0,5.642-1.492,4.854,4.854,0,0,0-2.863-.095A6.706,6.706,0,0,0,357.722,3719.369Zm6.384-4.15c-.1-1.415-.07-2.518-.11-4.169l-3.132,4,.124.466Zm-11.237,9.692c1.816,2.42,1.816,2.42,1.933,5.821,2.994-2.081,6.105-6.6,6.767-9.764l-.775.239a22.107,22.107,0,0,1-3.731,1.145A6.61,6.61,0,0,0,352.869,3724.911Zm26.1-28.03a1.566,1.566,0,0,0-.2.48,1.807,1.807,0,0,0-.047.537c.315,2.312-.712,4.182-1.3,6.2a7.321,7.321,0,0,0-.151,1.317l.3.127,4.413-11.6-.329-.337C380.751,3694.648,379.837,3695.739,378.973,3696.881Zm10.27-15.635c-.636.918-1.42,1.465-1.1,2.725C389.712,3683.138,389.712,3683.138,389.243,3681.246Zm-6.208,4.688c-1.881,2.964-3.474,5.445-5.047,8.009a4.266,4.266,0,0,0-.122,1.067,26.374,26.374,0,0,0,4.443-5.744C382.722,3688.635,382.727,3687.408,383.035,3685.934Zm16.222-29.4c-1.065,2.845-2.323,5.552-3.435,8.368-.671,1.739-1.275,3.545-1.867,5.3l-.091.028c-.875-.322-1.406.585-1.937,1.492s-1.161,1.692-1.916.7c.061-.851.141-1.664.207-2.472l-.39-.122a45.416,45.416,0,0,1-5.007,11.588,27.882,27.882,0,0,0-1.192,3.212c.115.119.215.241.329.337a28.833,28.833,0,0,0,4.133-4.947c1.383-2,2.764-4.025,4.151-5.983a6.085,6.085,0,0,0,1.55-3.76l-.008-.107a10.827,10.827,0,0,0,1.4-1.723c1.811-3.074,3.5-6.288,5.334-9.323a6.46,6.46,0,0,1,2.241-2.375,23.8,23.8,0,0,1,5.96-2.378,52.165,52.165,0,0,0,12.348-5.173,4.922,4.922,0,0,0,1.96-1.9,8.066,8.066,0,0,0,1.062-3.038,12.18,12.18,0,0,1-1.5-.658,1.449,1.449,0,0,1-.786-.621,2.678,2.678,0,0,1-.4-1.171,3.715,3.715,0,0,1,.105-1.373,3.147,3.147,0,0,1,.58-1.169,2.635,2.635,0,0,0,.4-.756,3.216,3.216,0,0,0,.17-.9,2.946,2.946,0,0,0-.087-.879,2.054,2.054,0,0,0-.327-.713c-.99.654-1.994,1.356-3.029,2.025a15.753,15.753,0,0,1-1.649,1.032,1.453,1.453,0,0,1-1.106.24,1.572,1.572,0,0,1-.948-.677,2.991,2.991,0,0,1-.481-1.372,4.172,4.172,0,0,1,.145-1.617,19.4,19.4,0,0,1,1.444-4.166c1.069-2.145,2.366-4.076,3.483-6.192q1.749-3.253,3.26-6.738a8.446,8.446,0,0,0,.578-3.265,3.492,3.492,0,0,0-.143-1.222,2.229,2.229,0,0,0-.528-.918,1.325,1.325,0,0,0-.79-.4,1.357,1.357,0,0,0-.867.212,11.154,11.154,0,0,0-1.666,1.015c-1.536.91-1.97.6-2.491-1.6a13.908,13.908,0,0,0-.9-2.614,1.057,1.057,0,0,0-.772-.573,2.781,2.781,0,0,0-1.671,1.1,5.29,5.29,0,0,0-.988,2.282c-.267,2.272-.4,4.347-.749,6.47-.579,3.463-1.279,6.961-1.955,10.344a15.142,15.142,0,0,1-.655,2.39,3.32,3.32,0,0,1-.647,1.331,1.8,1.8,0,0,1-1.008.651,1.254,1.254,0,0,1-1.025-.251,2.119,2.119,0,0,1-.687-1.068,5.851,5.851,0,0,1-.568-2.015l-.561-7.973c-.041-1.773-.165-3.527-.37-5.25-.259-1.519-1.02-1.723-1.917-.615a8.548,8.548,0,0,0-1.511,2.325,11.074,11.074,0,0,0-.835,2.905,6.224,6.224,0,0,1-.277,1.68,5.263,5.263,0,0,1-.7,1.452,3.527,3.527,0,0,1-1.012.984,2.218,2.218,0,0,1-1.153.354,29.819,29.819,0,0,0,1.645,5.844,26.728,26.728,0,0,1,.969,4.672c.232,3.3.347,6.659.49,10.009a24.718,24.718,0,0,1-1.329,9.712Zm-6.345,2.322c-1.145,2.125-.658,4.3-.548,6.517.825-1.72,2.39-2.66,2.5-5.015Zm-3.191,8.161a5.375,5.375,0,0,0,.159.959l.389-.12c.1-1.148.222-2.258.321-3.449.156-1.689.25-3.382.436-5.06s.446-3.2.7-4.79a48.941,48.941,0,0,1,1.26-7.219c1.244-3.994.659-7.536.3-11.281l-1.165.117c-1.513.158-2.049-.531-1.993-2.76a16.725,16.725,0,0,1,.155-1.711,3.84,3.84,0,0,0-.141-1.595,2.247,2.247,0,0,0-.735-1.113c-.971,1.59-.988,1.573-.965,2.77s.131,1.864.2,2.786a6.7,6.7,0,0,1-.032,1.936,4.471,4.471,0,0,1-1.036,1.96.9.9,0,0,1-.944.083,1.391,1.391,0,0,1-.637-.91c-.161-.387-.3-.789-.435-1.2q-.514-2.339-1.2-4.556c-1.081-3.018-2.243-5.88-3.473-8.852-.532-1.281-1.107-1.214-1.826.057a15.083,15.083,0,0,0-1.012,2.5,4.332,4.332,0,0,1-.511,1.356,2.885,2.885,0,0,1-.851.936,1.716,1.716,0,0,1-1.011.312,1.55,1.55,0,0,1-.946-.38c-.6-.3-1.222-.479-1.866-.741-.515,2.633.72,3.3,1.479,4.341.977,1.32,2.149,2.362,3.125,3.681a6.293,6.293,0,0,1,.05,7.648c-.662-.3-1.332-.51-1.967-.863-1.587-.892-3.177-1.848-4.763-2.718-.823-.426-1.815-.888-2.417.742s.271,2.107.848,2.958c.951,1.394.9,2.438-.024,4.19-.29.555-.6,1.089-.925,1.6-1.045,1.613-1.019,2.853.254,3.6a11.159,11.159,0,0,0,3.238,1.194c2.481.595,5.074.412,7.58.934a13.549,13.549,0,0,1,5.886,2.855,11.524,11.524,0,0,1,4.514,9.8Zm-19.707,17.767c.123,1.758-.174,3.382-1.511,4.1.092,1.307.168,2.379.165,3.628,1.515-.116,1.862,1.354,1.842,3.462a24.314,24.314,0,0,0,2.977-11.424c-.158-2.25-.12-4.538-.159-6.825l.552-.17c1.638,4.445,1.043,9.422.156,14.577a9.086,9.086,0,0,0,1.636-1.881,153.843,153.843,0,0,0,9.539-16.067,10.72,10.72,0,0,0,1.171-5.023,9.772,9.772,0,0,0-.158-2.759,7.155,7.155,0,0,0-.9-2.324,10.455,10.455,0,0,0-2.318,4.762c-.53,2-.887,4.06-1.466,6.033a45.906,45.906,0,0,1-2.137,6.021c-.593,1.321-1.308,1.322-2.193.673a2.936,2.936,0,0,1-.86-1.363,4.871,4.871,0,0,1-.193-1.9c.054-2.052.136-4.136.159-6.2-.068-.964.036-2.091-.926-2.321l-1.587,5.173c-.789,2.432-1.446,2.634-2.611.8a6.71,6.71,0,0,0-.594-.649,14.674,14.674,0,0,0-.736,5.787C369.831,3682.2,369.922,3683.481,370.014,3684.788Zm-23.091,8.451c-.473,4.328-.639,4.575-3.52,5.22-.1.031-.2.214-.438.485.353,1.336-.6,2.9.137,4.336a32.69,32.69,0,0,1,2.306,17.2,5.417,5.417,0,0,1-.008,1.4l4.611.532c.828-.8,2.072-1.971,3.28-3.2,1.991-2.033,3.962-4.128,5.936-6.2a16.843,16.843,0,0,0,4.145-6.069,19.88,19.88,0,0,1,1.863-3.418c.385-.6,1.142-.876,1.415-1.551.652-2,1.129-4.113,1.682-6.209a3.019,3.019,0,0,0-.648-.765,2.43,2.43,0,0,1-1.088-1.38,4.56,4.56,0,0,1-.182-2.17c.1-.8-.5-1.643-.749-2.4-1.848.809-2.215,2.739-2.622,4.747a63.863,63.863,0,0,1-1.509,6.287,3.417,3.417,0,0,1-.55,1.25,1.993,1.993,0,0,1-.886.714,1.23,1.23,0,0,1-.961-.031,1.692,1.692,0,0,1-.753-.768,3.352,3.352,0,0,1-.706-1.552,5.05,5.05,0,0,1,.017-1.959c.5-2.692,1.146-5.387,1.613-8.07.778-4.093,1.53-8.155,2.188-12.233a1.85,1.85,0,0,0-.063-.636,1.209,1.209,0,0,0-.261-.491.763.763,0,0,0-.445-.053.984.984,0,0,0-.442.217,5.844,5.844,0,0,0-.754.976c-1.928,2.5-2.875,2.481-4.575-.018-.2-.31-.355-.723-.561-1.054a1.515,1.515,0,0,0-.545-.637,1.026,1.026,0,0,0-.716-.144,1.382,1.382,0,0,0-.716.385,2.426,2.426,0,0,0-.54.819,8,8,0,0,0-.6,2.533,7.358,7.358,0,0,0,.244,2.525c.9,4.344,1.58,8.82,2.276,13.292a14.484,14.484,0,0,1-.058,3.083,6.551,6.551,0,0,1-.5,1.839,4.93,4.93,0,0,1-.96,1.451,3.059,3.059,0,0,1-1.243.8,2.121,2.121,0,0,1-1.3.008c-1.158-.433-1.058-2.04-1.495-3.263,1.492-.458,1.031-2.025,1.036-3.253.031-1.957.115-4.019-1.6-4.827a4.352,4.352,0,0,0-.474.846,8.835,8.835,0,0,0-.3,1.405Zm-9.159,44.237a43.274,43.274,0,0,0,5.387-13.346,29.619,29.619,0,0,0,.7-6.455,30.467,30.467,0,0,0-2.849-13.641,9.053,9.053,0,0,1-.548-1.715c-.481-1.866-.932-3.721-1.413-5.587-.19-.751-.41-1.494-.632-2.259-1.092-3.823-2.17-7.674-3.292-11.489a12.616,12.616,0,0,0-1.063-2.1c-1.443,1.145-2.691,3.345-4.208,1.293-1.605,2.529-1.656,3.968-.3,5.457.775.835,1.628,1.47,2.477,2.283a2.158,2.158,0,0,1,.59,1.243,3.392,3.392,0,0,1-.147,1.6,2.9,2.9,0,0,1-.821,1.5,1.324,1.324,0,0,1-1.242.364,3.941,3.941,0,0,1-1.6-1.085,43.97,43.97,0,0,0-6.986-6.37,1.846,1.846,0,0,0-1.366-.3,2.537,2.537,0,0,0-1.36.77,5.279,5.279,0,0,0-.562,1.993,4.9,4.9,0,0,0,.234,2c.91,2.983.893,3.185-.817,5.944-.711,1.16-1.059,2.274-.561,3.3l2.28.57a3.414,3.414,0,0,0,1.074.3,20.3,20.3,0,0,1,9.055,1.313,10.6,10.6,0,0,1,3.3,1.812c1.2.947,1.324,2.111.822,4.3a4.181,4.181,0,0,1-.88,2.149,1.962,1.962,0,0,1-1.6.8c-1.515.136-3.042.1-4.633.218a9.607,9.607,0,0,0-1.7.522c3.365,1.682,4.586,4.744,4.152,9.41-.119,1.329.4,1.782,1.27,1.8a3.339,3.339,0,0,1,2.167.309,4.514,4.514,0,0,1,1.753,1.683,16.721,16.721,0,0,1,2.764,8.3A19.514,19.514,0,0,0,337.764,3737.476ZM314.759,3763.2a63.8,63.8,0,0,0,5.707-5.541c3.069-3.394,6.048-6.98,9.836-8.385.552-.17,1.152-1.6,1.341-2.6s-.438-1.464-1-1.882c-1.85-1.381-1.954-2.2-.782-5.059a4.147,4.147,0,0,0,.135-.676c-1.224-.5-1.837.739-2.573,1.776a41,41,0,0,1-3.067,3.854,1.486,1.486,0,0,1-1,.483,1.228,1.228,0,0,1-.944-.432,2.94,2.94,0,0,1-.556-1.386,4.276,4.276,0,0,1,.1-1.692q.264-.939.588-1.843c.538-1.674,1-3.388,1.376-5.13.284-1.878.482-3.768.593-5.657.4-4.5.02-4.91-3.026-4.019-1.492.459-2.015-.038-2.324-2.044-.013-.192-.025-.365-.039-.558-.267-1.625-.959-2.375-1.815-1.982a1.991,1.991,0,0,0-.765.557,3.18,3.18,0,0,0-.566.954,4.036,4.036,0,0,0-.261,1.174,3.76,3.76,0,0,0,.1,1.169,49.524,49.524,0,0,0,1.646,5.428,22,22,0,0,1,1.04,10.233,6.942,6.942,0,0,1-.73,2.414c-1.126,2.185-2.472,2.117-3.063-.219-.318-1.26-.431-2.648-.691-3.97-.185-.885-.457-1.721-.884-3.254-.657,1.494-1.087,2.327-1.392,3.187-1,2.847-1.062,2.888-2.93,1.688-1.053-.683-1.669-.341-2.215,1.228a3.989,3.989,0,0,0-.294,1.8,2.887,2.887,0,0,0,.53,1.546,12.545,12.545,0,0,0,1.145,1.334,5.966,5.966,0,0,1,1.447,2.379,9.366,9.366,0,0,1,.47,3.206c-.058,2.207-.176,4.433-.249,6.645a14.71,14.71,0,0,1-1.975,6.9,8.183,8.183,0,0,1-4.45,3.835,20.283,20.283,0,0,0-7.176,4.153c-3.876,3.184-7.728,6.49-11.5,9.86-3.565,3.285-7.159,6.578-10.633,9.835a124.087,124.087,0,0,0-10.686,10.815c-1.559,1.9-3.256,3.561-4.76,5.577-2.955,3.929-5.839,7.99-8.709,12.047-.819,1.148-1.5,2.454-2.256,3.691l.4.625a2.332,2.332,0,0,0,.738-.555,18.748,18.748,0,0,1,1.039-1.7c1.274-1.4,2.634-2.649,3.921-4.073,2.26-2.533,4.483-5.164,6.726-7.737l8.374-9.446c1.78-1.993,3.613-3.892,5.353-6.024a125.357,125.357,0,0,1,13.559-14.172,67.118,67.118,0,0,1,5.489-4.509c2.911-1.968,5.746-3.692,8.679-5.338,1.9-1.088,3.941-1.6,5.789-2.851A74.157,74.157,0,0,0,314.759,3763.2Zm18.32-13.663a7.093,7.093,0,0,0-1.037,1.283c1.962.819,3.506-2.15,5.229-1.278.09-.028.343-.543.573-.745,1.962-1.785,3.416-1.05,3.336,1.93a2.239,2.239,0,0,0,1.756-.7,4.6,4.6,0,0,0,1.186-2.113c-.737-1.591-2.188-2.284-2.2-4.906.789-.921,1.641-2.015,2.58-2.983,1.736-1.738,3.917-2.6,4.86-5.871.1-.337.563-.458.8-.75a24.277,24.277,0,0,0,2.392-3.056,3.748,3.748,0,0,0,.309-1.119,3.676,3.676,0,0,0-.043-1.151c-.247-.91-.923-.571-1.537-.185a6.7,6.7,0,0,1-1.472.737c-1.746.535-2.19-.137-1.72-2.778.031-.334.049-.669.052-1-2.525-.362-3.413.457-4.538,3.956a29.234,29.234,0,0,1-3.3,7.889c-1.76,2.489-3.606,4.852-5.438,7.189-.616.78-1.289,1.4-.882,2.854a18.336,18.336,0,0,0,4.209-5.169,25.741,25.741,0,0,1,5.63-6.633c1.157-.881,2.253-2.006,3.412-3.063a1.833,1.833,0,0,1,.12,2.985,4.873,4.873,0,0,1-.922.568,24.62,24.62,0,0,0-6.516,6.38A32,32,0,0,1,333.079,3749.534Zm3.988,5.344c-.07-.986-.138-1.972-.3-3.149a1.5,1.5,0,0,0-.4.012c-3.192.981-6.4,1.789-9.574,2.788a6.475,6.475,0,0,0-2.152,1.47c-1.36,1.251-2.776,2.78-4.193,4.31a9.864,9.864,0,0,0-.971,1.371,20.654,20.654,0,0,0,4.877-2.812,7.815,7.815,0,0,1,6.392-1.438,21.276,21.276,0,0,0,5.362-.268c1.007-.2,1.165-.774.954-2.263Zm2.659,2.247c3.624-.7,4.78-2.016,4.423-5.145l-4.456,1.653c-.01,1.164.012,2.339.034,3.515Zm.254,3.624a4.611,4.611,0,0,0-.153-.654l-14.281,7.583,2.824,2.023c1.79-1.426,3.78-3.022,5.653-4.8s4.163-2.134,5.966-4.023Zm-40.875,28.013c3.888-2.376,7.686-5.141,11.511-7.761a11,11,0,0,0,1.737-1.519c1.588-1.693,3.172-3.449,4.74-5.2a11.08,11.08,0,0,0,.909-1.4l-.216-.461c-13.185,7.576-25.967,16.539-37.3,30.223a1.539,1.539,0,0,0,.522-.161c.781-.59,1.566-1.137,2.327-1.809A112.412,112.412,0,0,1,299.105,3788.762Zm29.14-13.046a5.322,5.322,0,0,0,1.02-.663,1.881,1.881,0,0,0-1.691-.2c-1.492.458-1.8-.038-1.684-2.264a11.1,11.1,0,0,1,.134-1.574,3.623,3.623,0,0,0-2.2-.132,4.976,4.976,0,0,0-2.145,1.2c-1.436,1.251-2.738,2.9-4.133,4.314a88.17,88.17,0,0,1-6.367,6.334c-1.668,1.41-3.624,1.989-5.331,3.3-3.094,2.372-6.428,3.944-9.246,7.219a2.013,2.013,0,0,1-1.064.479,7.332,7.332,0,0,0-2.2.807c-2.228,1.692-4.325,3.518-6.562,5.3-4.43,3.55-8.874,7.1-13.235,10.765-2.732,2.329-5.348,5.014-8,7.56a186.891,186.891,0,0,1-16.912,13.953c-3.1,2.332-6.288,4.428-9.425,6.639-1.453,1.015-1.947,2.218-2.071,5.015,1.9-1.175,3.719-2.39,5.58-3.444,7.062-4.052,13.184-10.618,19.406-17.083,3.71-3.812,7.6-7.239,11.435-10.781.787-.725,1.685-1.175,2.489-1.883,2.085-2,4.249-3.953,6.393-5.751a11.021,11.021,0,0,1,1.048-.912c1.825-1.372,3.645-2.806,5.489-4.1a100.715,100.715,0,0,1,9.84-6.591,12.586,12.586,0,0,1,5.147-1.581,7.763,7.763,0,0,1,3.118.992l9.548,3.131a10.559,10.559,0,0,1,4.807,3.34c1.2,1.383,2.417,2.717,3.623,4.053l3.295,3.5c.271-.915.464-1.412.6-1.935.782-3.174,1.493-3.7,3.49-2.6a12.9,12.9,0,0,0,1.739.669c.461-1.674.414-2.777-.413-3.485a18.726,18.726,0,0,0-2.7-2.171c-1.5-1.026-3.072-1.859-4.6-2.966a1.956,1.956,0,0,1-.734-1.134,3.459,3.459,0,0,1-.02-1.642,3.03,3.03,0,0,1,.7-1.4,1.487,1.487,0,0,1,1.107-.526,21.25,21.25,0,0,1,4.215.106c2.43.547,4.783,1.488,7.208,2.165,1.708.461,3.45.736,5.012,1.045a2.974,2.974,0,0,0,.6-3.317l-.866-1.924c-1-2.3-.538-3.753,1.427-4.62l1.137-.525a3.117,3.117,0,0,0-.6-1.426,1.666,1.666,0,0,0-1.069-.644,12.732,12.732,0,0,0-3.2-.417,36.352,36.352,0,0,0-9.419,2.389,6.121,6.121,0,0,1-4.211.373,1.631,1.631,0,0,1-.934-.783,3.159,3.159,0,0,1-.4-1.479,5.646,5.646,0,0,1,.326-2.762A3.855,3.855,0,0,1,328.245,3775.716Zm28.236,4.463-2.881-1.3c-.419,2.056-.768,3.827-1.111,5.881,1.9-.693,2.3-3.332,3.991-4.6Zm5.406-14.8.889.932c1.925,2.013,1.934,2.581.2,5.5a2.917,2.917,0,0,0-.356.872,3.238,3.238,0,0,0-.079.969,4.653,4.653,0,0,1-1.68,4.5,28.955,28.955,0,0,1-2.229,1.888,19.332,19.332,0,0,1-1.117,8.839c-.655,2.391-1.7,4.639-1.577,7.051a11.264,11.264,0,0,0,3.024-.359c1.4-.431,2.418-.282,2.928,1.75l1.371-2.151c.513,1.42-1.147,2.1-.853,3.458,1.132.069,1.269.05,1.769-1.068a20.219,20.219,0,0,0,1.849-8.384,62.04,62.04,0,0,1,.444-6.486c.127-1.221.356-2.517,1.462-2.814a1.47,1.47,0,0,1,1.259.41,2.748,2.748,0,0,1,.748,1.47,6,6,0,0,1,.116,1.65,8.686,8.686,0,0,0,.314,2.482,6.135,6.135,0,0,0,.962,2.009l4.2-2.91h0c-.788-5.8-1.735-11.465-5.061-15.2a11.153,11.153,0,0,1-1.884-2.509c-1.694-3.727-4.027-2.879-6.623-1.862Zm11.289-13.954a2.341,2.341,0,0,1-.979-1.528,4.2,4.2,0,0,1,.122-2.216,11.65,11.65,0,0,0,.206-1.18,2.239,2.239,0,0,0-1.523-1.219,2.129,2.129,0,0,0-1.812.624,10.087,10.087,0,0,0-2.578,2.346,45.081,45.081,0,0,1-8.562,8.3,3.436,3.436,0,0,1-1.483.8,2.536,2.536,0,0,1-1.516-.1,1.429,1.429,0,0,1-1-.542,2.7,2.7,0,0,1-.56-1.3,4.044,4.044,0,0,1,.07-1.617,3.471,3.471,0,0,1,.674-1.388,17,17,0,0,1,1.178-1.676c.93-1.293,1.927-2.519,2.776-3.874.55-.848,1.4-1.722.914-3.258a2.5,2.5,0,0,0-.955.074,15.233,15.233,0,0,0-2.059,1.069c-.692.345-1.625.719-2.241-.449-1.113-2.176-2.166-2.181-3.822-.38-1.274,1.4-1.53,3.381-1.991,5.3a37.058,37.058,0,0,1-5.064,12.5,6.571,6.571,0,0,1-1.748,1.807c-2.5,1.709-5.028,3.273-7.534,4.919a5.924,5.924,0,0,0-.911,1.133,2.518,2.518,0,0,0,1.492-.457c1.775-.764,3.5-2.3,5.341-1.86a19.528,19.528,0,0,1,4.548,1.6c3.747,1.916,7.393,4.144,11.093,6.03a9.638,9.638,0,0,0,4.093.757c.7.047,1.481-.608,1.385-1.98a5.44,5.44,0,0,1,.12-2.517,4.361,4.361,0,0,1,1.176-2.02c-.016-.235-.033-.47-.048-.686l-2.045-.9a5.511,5.511,0,0,1-1.57-.634,2.445,2.445,0,0,1,.167-3.926,5.441,5.441,0,0,1,2.062-1.027c3.47-.935,6.949-1.741,10.475-2.758a11.9,11.9,0,0,0,3.76-1.791c1.566-1.138,1.712-2.32.623-3.935A10.143,10.143,0,0,0,373.176,3751.427Zm1.975-1.614-.846-2.476c-.5,1.618.008,2.055.86,2.471Zm14.711,8.508a21.561,21.561,0,0,1,.531-3.928,19.582,19.582,0,0,1,1-2.5l1.661,1.943c.372-4.668-1.138-11.189-3-12.741a16.7,16.7,0,0,1,.065,3.329c-.6,3.4-1.306,6.773-2.075,10.141a9.018,9.018,0,0,1-1.208,2.121,6.979,6.979,0,0,0-.551-1.56c-1.3-1.791-1.319-2.069.277-3.412a1.719,1.719,0,0,0,.514-2.457,1.792,1.792,0,0,1,.4-2.512c1.09-.749,1.128-1.944,1.289-3.329a23.975,23.975,0,0,0-1.058-7.687,10.655,10.655,0,0,0-3.013-5.775c-.13,1.4.83,2.7-.568,3.831l-.881-2.116c-1.88.577-.465,3.8-2.046,4.5a3.3,3.3,0,0,1-.5-1.166,4.671,4.671,0,0,1-.089-1.42,4.9,4.9,0,0,1,.335-1.409,3.827,3.827,0,0,1,.7-1.135c.751-1.018,1.553-1.965,2.34-2.908l-.174-.538c-1.709.634-3.422,1.2-5.108,1.92a1.713,1.713,0,0,0-.486.495,2.6,2.6,0,0,0-.329.718c-.637,1.992-1.24,4.038-1.892,6.472a2.742,2.742,0,0,1,.813.078c1.235.431,1.5,1.116,1.121,2.939q-.145.546-.336,1.067c-.762,2.6-.639,3.481.488,3.9s1.5-.33,2.127-2.69a27.538,27.538,0,0,1,1.126-3.717c.508-1.23,1.742-1.674,2.138-.811a15.871,15.871,0,0,1,1.371,4.33,18.392,18.392,0,0,1-.221,4.447c-.445,3.639-1.009,7.316-1.484,10.965a9.222,9.222,0,0,0,.122,4.341,1.529,1.529,0,0,0,.547-.014c1.753-.889,2.522-.336,2.871,2.008a5.3,5.3,0,0,0,.335,1.518c.181.4.588,1,.764.9a1.885,1.885,0,0,0,.526-.54,2.815,2.815,0,0,0,.356-.781,28.34,28.34,0,0,0,1.212-6.831ZM401.57,3743.4a3.186,3.186,0,0,1-.466-1.743,4.009,4.009,0,0,1,.47-1.893c.672-1.278,1.454-.993,2.313-.71a16.535,16.535,0,0,1,2.419,1.25,3.762,3.762,0,0,0,.1-1.049,3.126,3.126,0,0,0-.2-.971,2.07,2.07,0,0,0-.458-.731,1.3,1.3,0,0,0-.641-.363,12.783,12.783,0,0,0-2.156-.959,17.181,17.181,0,0,0-5.815-1.41c.075,1.072-.012,2-.024,2.9.795.237,1.743.077,1.525,1.961l-.728.072-.7.215c.179,2.549.2,2.871,1,3.392,1.779,1.029,1.554,3.682,2.106,5.68a5.553,5.553,0,0,1-.341,1.221c-.332-.182-.87-.235-.922-.548a14.212,14.212,0,0,1-.008-2.493c-.55-.664-1.115-1.344-1.668-2.051a7.636,7.636,0,0,1-1.731-3.449,11.8,11.8,0,0,1-.152-4.467c.355-2.1.106-2.616-1.194-3.333l-1.582-.806c-.838-.442-.926-1.248-.313-2.509l2.411,1.142,2.664-2.22.886-3.227,1.506,1.463c1.455-.971,2.944-1.472,3.215-4.118-.018-.257.816-.754,1.113-.648s.743.822,1.094,1.24a3.423,3.423,0,0,0,2.923-3.086l1.691,1.078a8.719,8.719,0,0,1-1.269,2.339c-1.246.93-2.608,1.479-3.857,2.366a25.078,25.078,0,0,0-6.366,5.284,6.8,6.8,0,0,0,5.413,1.533,5.422,5.422,0,0,1,.915-2.534,2.833,2.833,0,0,1,1.761-1.243l4-1.228a40.545,40.545,0,0,0,5.069-2.476,2.363,2.363,0,0,0,.682-.786,3.483,3.483,0,0,0,.388-1.12,2.77,2.77,0,0,0-1.023-1.547,8.712,8.712,0,0,0-1.575-.72,4.5,4.5,0,0,1-2.09-1.548c-.52-.89-.331-2.087-.5-3.436-.545-.183-1.273-.791-1.865-.522a35.76,35.76,0,0,0-6.16,3.425c-2.03,1.478-3.9,3.518-5.867,5.218a20.445,20.445,0,0,1-8.673,4.328,80.5,80.5,0,0,0,3.34,9.571,54.6,54.6,0,0,1,4.8,13.611,5.127,5.127,0,0,0,1.84,3.179,1.554,1.554,0,0,0,.781.406,1.5,1.5,0,0,0,.862-.1,2.242,2.242,0,0,0,.8-.6,3.517,3.517,0,0,0,.605-.992c1.251-2.574,1.708-2.583,3.246-.866l2.745,3.055a12.3,12.3,0,0,0-.414-4.88,7.459,7.459,0,0,0-2.159-3.526c-.755-.775-1.469-1.608-2.154-2.468A16.784,16.784,0,0,1,401.57,3743.4Zm19.541,9.324A22.424,22.424,0,0,0,421,3749.7c-.186-3.949.476-4.941,3.208-4.882a1.644,1.644,0,0,0,.957-.053,9.312,9.312,0,0,0,1.307-1.124c-1.694-3.564-4.267-5.991-7.264-6.856a69.849,69.849,0,0,0-13.436-2.921,2.141,2.141,0,0,0-.475.386c-.158.137.018.257.021.3.4.4.788.808,1.2,1.189,2.672,2.44,5.474,4.359,8.978,3.48.343-.105,1.033.165,1.029.318-.076,1.755,1.091,1.856,1.593,2.927a11.687,11.687,0,0,1,.4,2.065l-3.162-1.612c.075,1.072.247,1.785.391,2.747-1.979.259-1.948-2.137-2.5-3.478l-4.035-1.892c-.077.639-.17,1.257-.279,2.1l-1.6-1.043-.208.523a9.894,9.894,0,0,0,1.643,1.686,13.642,13.642,0,0,1,4.388,4.739,44.17,44.17,0,0,0,2.8,4.22,11.089,11.089,0,0,0,2.531,2.617,1.161,1.161,0,0,0,.817.222,1.492,1.492,0,0,0,.832-.408,2.687,2.687,0,0,0,.632-.934,3.62,3.62,0,0,0,.268-1.217Zm-65.54,8.441c1.312-.622,2.647-2.017,3.732-.9,1.868-1.166,3.528-2.048,5.124-3.216s3.1-2.551,4.434-3.683c-.242-1.065-.479-2.043-.826-3.513a9.529,9.529,0,0,0-1.562,2.276,6.73,6.73,0,0,1-1.054,1.924,4.362,4.362,0,0,1-1.453,1.21c-.976.649-1.872,1.561-2.985.917-.19-.095-.492.151-.731.225-2.594,1.475-5.164,3.074-7.765,4.443a12.22,12.22,0,0,1-3.353.658c.907-1.834,1.6-3.053,2.131-4.377s1.516-2.5.937-4.667l-2.192,4.155c-.355-.7-.669-1.283-1.25-2.376a9.75,9.75,0,0,0-.281,2.277,6.314,6.314,0,0,1,.143,2.876,5.986,5.986,0,0,1-1.1,2.607c-1.248.251-2.514.444-3.784.811a1.391,1.391,0,0,0-.551.465,2.3,2.3,0,0,0-.353.776,1.8,1.8,0,0,0,.643,1.335,3.818,3.818,0,0,0,3.7.332,5.165,5.165,0,0,1,4.729.911c1.306,1.023,2.717,1.794,4.075,2.69l.282-.547c-.831-2.94-3.121-3.42-4.539-5.37C353,3762.749,354.259,3761.814,355.571,3761.169Zm55.277-76.795c.373-.115.97-.3,1.123-.06,1.179,2.024,3.067.262,4.476,1.23.16.1.6-.535.916-.851a6.8,6.8,0,0,0-.556-1.186,1.184,1.184,0,0,0-.7-.356l-5.712-1.244a13.854,13.854,0,0,1,1.206-2.144c1.56-1.881,3.132-3.808,4.8-5.48,3.236-3.184,6.532-6.386,9.823-9.433a3.229,3.229,0,0,0,1.341-2.6c-1.706-.417-2.756,1.986-4.382,2.7.243-.666.341-1,.472-1.3.344-.741.828-1.656.178-2.244s-1.228.53-1.432,1.315c-.36,1.363-.66,2.75-.9,4.151l-5.2,4.291c-.31-.737-.468-1.674-.813-1.809-.719-.26-1.214.5-1.41,1.616-.107.646-.2,1.308-.337,1.942a5.385,5.385,0,0,1-.558,1.814c-1.039,1.458-2.147,2.849-3.593,4.607.305-2.393.5-4.161.759-5.9s.584-3.179.777-4.771c.147-1.161.013-2.193-1.013-2.272-.458,2.593-.9,4.983-1.308,7.408a9.843,9.843,0,0,0-.259,1.962,13.03,13.03,0,0,1-1.16,5.173c-.336.87-.7,1.705-1,2.5-.485,1.549-.015,2.39,1.116,2S409.773,3684.7,410.848,3684.374Zm17.559,19.522a4.605,4.605,0,0,1-.466,1.829,17.605,17.605,0,0,1-2.6,2.986,2.371,2.371,0,0,0-.719,1.055,3.234,3.234,0,0,0-.174,1.409c.075,1.072.7,1.1,1.315.932a6.076,6.076,0,0,1,4.877,1.5c1.18.754,2.373,1.461,3.6,2.179a1.389,1.389,0,0,0,1.252.306,2.159,2.159,0,0,0,1.205-.907l-2.19-1.868c.333-.693.6-1.277.86-1.862a5.171,5.171,0,0,0-1.279-.636,2.68,2.68,0,0,0-1.355.241,3.876,3.876,0,0,1-2.331-.015,4.522,4.522,0,0,1-2.021-1.407l8.722-3.2a3.927,3.927,0,0,1,1.124-1.134,32.1,32.1,0,0,1,5.342-1.838c3.923-.789,7.846-1.359,11.776-2.041a5.292,5.292,0,0,0,1.165-.774c-.932-1.093-2.091-1.547-1.8-3.957a8.184,8.184,0,0,0-2.93,1.689,6.311,6.311,0,0,1-4.76,2.316,34.6,34.6,0,0,0-11.144,3.423c-1.746.975-3.538,1.722-5.312,2.507a4.194,4.194,0,0,1-1.524-.013c.514-.705.752-1,.972-1.349a43.606,43.606,0,0,1,7.138-9.681,7.485,7.485,0,0,0,1.015-2.041,1.515,1.515,0,0,0-1.522-.139,2.831,2.831,0,0,0-1.318,1.383,2.377,2.377,0,0,1-1.3,1.169,1.407,1.407,0,0,1-1.4-.339s-.214.2-.442.42c.056.793.22,1.618.336,2.393l-2.267,3.323-1.732-1.459c-.035,1.893-.021,2.743-.119,3.517Zm-63.268,86.475-.359,1.621.728-1.362Zm23.643-137.358a7.219,7.219,0,0,1-.761-3.363,8.8,8.8,0,0,1,.774-3.6,21.032,21.032,0,0,0,.654-4.36,15.1,15.1,0,0,0,.051-1.658c-2.086.882-1.364,4.447-3.132,5.735-.925-2.737-1.814-5.42-2.746-8.046a3.486,3.486,0,0,0-1.005-1.727,5.268,5.268,0,0,1-2.192-3.421c-.493-1.6-1.06-3.156-1.6-4.742l-.612.188a13.424,13.424,0,0,0-.022,2.5,23.684,23.684,0,0,0,3.123,7.8,13.61,13.61,0,0,1,1.891,3.251,11.248,11.248,0,0,1,1.207,4.6l-4.075-.938c-.336-.882.263-2.773-1.158-2.381-.255.911-.515,1.757-.748,2.573a8.361,8.361,0,0,0-4.674.078c.273,1.712,1.1,1.983,2,2.056a42.052,42.052,0,0,1,5.551.484c2.236.364,4.362,1.112,5.246,4.584a3.938,3.938,0,0,0,.865,1.683.85.85,0,0,0,.525.12,1.047,1.047,0,0,0,.534-.226,1.762,1.762,0,0,0,.251-.577,2,2,0,0,0,.044-.652Zm-64.755,126.013a1.929,1.929,0,0,0,.192-2.248.463.463,0,0,0-.322-.016.7.7,0,0,0-.3.209C323.217,3777.917,323.356,3778.6,324.027,3779.026Zm31.24-90.452c-.134,1.552-.526,3.358,1.085,4.155.161-2.7.325-5.135.493-7.727C355.064,3685.462,355.37,3687.229,355.267,3688.574Zm-8.651,16.341c.884,1.087,1.877,1.986,2.747,3.1,1.91,2.434,1.874,4.963.107,8.024a8.608,8.608,0,0,0-.722,1.426,2.221,2.221,0,0,0-.191.708,2.137,2.137,0,0,0,.044.722,1.446,1.446,0,0,0,.27.573.856.856,0,0,0,.435.3,24.766,24.766,0,0,0,3.265-5.382,9.146,9.146,0,0,1,1.28-2.167c1.323-1.348,2.717-2.542,4.092-3.8.559-.5,1.371-.882.966-2.093s-1.063-.593-1.684-.095a12.4,12.4,0,0,0-1.034.908c-.655.639-1.294,1.317-2.019,2.044-.166-1.044-.278-1.777-.459-2.837-.453.708-.7,1.156-.991,1.531a7.954,7.954,0,0,1-.778.851l-5.7-7.6a3.8,3.8,0,0,0-.333,1.016,3.865,3.865,0,0,0-.047,1.082,3.147,3.147,0,0,0,.249.975A2.034,2.034,0,0,0,346.616,3704.915Zm8.729-.71c.482-2.688.854-4.773,1.174-6.93a4.749,4.749,0,0,0-.455-1.042c-1.38,2.045-1.1,4.237-1.483,6.214C354.519,3702.86,354.915,3703.285,355.345,3704.205Zm-32.89,48.571c.594-1.518-.056-2.325-.53-3.428l-4.46,1.611c.706-1.662,1.309-3.073,1.947-4.6q1.089-2.777,1.946-5.7a5.859,5.859,0,0,0,.279-2.412,4.214,4.214,0,0,0-.714-2.052,34.808,34.808,0,0,1-5.81,14.921,44.138,44.138,0,0,1-1.772-5.258c-.346-1.688.039-3.8-.979-5.478a15.445,15.445,0,0,0-.569,1.445,9.874,9.874,0,0,0-.243,1.1c-.623.454-1.4-.467-1.574,1.01s.548,1.3,1.051,1.515a3.023,3.023,0,0,0,1.127.2c.339,1.581.623,2.785.853,4.116.463,2.683.807,5.4-.807,8.021a4.218,4.218,0,0,0-.279,1.027c.988.615,1.492-.459,1.811-1.345a7.474,7.474,0,0,1,3.469-3.562c.517.651.922,1.206,1.557,2l.28-2.735C320.308,3751.29,321.328,3753.21,322.455,3752.776Zm-1.208-24.544a13.118,13.118,0,0,0-.241,6.095C322.255,3731.293,322.313,3730.159,321.247,3728.232Zm18.417-6.863a15.7,15.7,0,0,0-.117-7.1l1.751-1.96-2.253-1.257c-.057-.815-.119-1.693-.179-2.551l1.462-.886c.371-2.3-1.253-1.346-1.67-2.071l-.362-5.144c-1.6,1.98-.615,4.043-1.246,6.339a12.336,12.336,0,0,0-4.341-7.119c-.266-.968.628-2.557-.589-3.168l-.987.917c-1.053-.443-1.985-.924-2.956-1.283s-1.367-.8-1.312-2.2c.033-.82-.108-1.522-.918-1.339l-.736,2.525-2.518-.475c-.121-1.714.167-3.685-1.243-4.456-.847,1.836.549,2.831.287,4.094l-1.106,1.391a5.825,5.825,0,0,0,1.031,1.215,4.617,4.617,0,0,0,1.326.228c2.464.578,5.122.441,7.2,2.649.839.88,1.655,1.856,2.476,2.7a20.929,20.929,0,0,1,4.55,8.564q.432,1.675.729,3.433c-1.757-.271-2.878-2.335-4.653-1.134a4.681,4.681,0,0,1-.127,1.755,3.946,3.946,0,0,1-.742,1.49,6.741,6.741,0,0,0-.181,1.983l3.477-2.58,3.162,1.614c-.158,1.011-.306,1.932-.462,2.966l-2.358.724c-.76.233-1.17,1.126-.679,2.245l2.871-.773a8.945,8.945,0,0,0-.191,3.614,6.029,6.029,0,0,0,1.229,2.92q.231-1.457.328-2.924a35.8,35.8,0,0,1,.02-4.933Zm-16.646,58.492c-1.19-.028-1.206-.023-1.87-1.242-.35-.637-.683-1.038-1.345-.047l.761,3.226a39.8,39.8,0,0,1-4.7,3.852c-.994.611-2.276,1.224-3.044.06-1.492.457-2.812,1.191-4.128,1.551-.881.27-1.085.836-1.012,2.085l1.584-.224a21.547,21.547,0,0,1,3.272-.721,5.621,5.621,0,0,1,2.773.418,12.288,12.288,0,0,1,2.711,1.926,7.44,7.44,0,0,1,2.043,2.175c.926,1.905,2.505,2.23,3.865,3.805a3.772,3.772,0,0,0-.01-1.883,2.071,2.071,0,0,0-.866-1.264,16.551,16.551,0,0,1-1.921-1.949c-.562-.638-1.059-1.4-1.669-2.049s-.8-.826-1.182-1.214l16.821-2.255,1.109,3.207c1.47-.781.268-2.054.821-3.275a5.216,5.216,0,0,1,1.131-.171,7.05,7.05,0,0,0,1.308.167c.313-.1.6-.536.9-.825a7.267,7.267,0,0,0-.617-.971c-.263-.269-.724-.324-.841-.683-.665-1.876-.987-2.127-2.2-.789a3.926,3.926,0,0,1-2.545,1.307c-3.8.555-7.537,1.2-11.415,1.755a21.313,21.313,0,0,1-3.055-.091C320.532,3783.078,322.941,3782.885,323.018,3779.861Zm41.638,12.323s-.011-.15-.016-.237Zm50-144.513a17.7,17.7,0,0,0,4.421-2.168c.268-.083.395-.888.576-1.337a2.431,2.431,0,0,0-.894-.58,2.9,2.9,0,0,0-1.149.353l-4.117,1.7c-.081-1.157,1.064-1.991.122-3.256-.714.9-1.4,1.83-2.185,2.751-.352.415-.718,1.053-1.093,1.146-1.492.458-3,.638-4.867,1.013,1.091-1.824,1.963-3.077,2.732-4.495a8.465,8.465,0,0,1,1.623-2.8,4.989,4.989,0,0,1,2.251-1.5c.343-.106.677-.777,1.013-1.188l-.658-1.133c-.119-.182-.251-.317-.4-.554.823-1.939,1.682-3.823,2.445-5.743,1.178-2.968,2.358-5.935,3.423-8.978a6.934,6.934,0,0,0,.3-2.1,5.964,5.964,0,0,0-.346-1.982l-1.307,3.073-.968-.972a1.642,1.642,0,0,0-.459.537,2.4,2.4,0,0,0-.261.76,2.461,2.461,0,0,0-.005.812,1.792,1.792,0,0,0,.251.685,3.755,3.755,0,0,1,.271,1.709,4.19,4.19,0,0,1-.486,1.729q-.6,1.538-1.315,2.988c-1.132,2.318-2.28,4.641-3.445,6.926-1.331,2.751-2.825,5.553-4.28,8.277a19.572,19.572,0,0,1-1.734,2.218c-.066-2.454-.108-4.346-.142-6.152l1.1-2.111-1.9-1.234c-.433-1.6-1.249-3.229.417-4.9a1.985,1.985,0,0,0,.207-.716,1.907,1.907,0,0,0-.064-.729.8.8,0,0,0-.455-.294.743.743,0,0,0-.52.09,13.631,13.631,0,0,0-1.656,1.822c.085,1.2.151,2.143.216,3.065.4,3.795.837,7.559,1.211,11.363a5.419,5.419,0,0,1-.022,2.217,4.882,4.882,0,0,1-.873,1.955,3.615,3.615,0,0,0-.361.943c1.026,1.151,1.057,1.143,1.911.091.436-.527.916-1.288,1.427-1.4C408.015,3648.856,411.354,3648.443,414.652,3647.671Zm3.97-26.135a5.232,5.232,0,0,0,1.192-1.045,6.423,6.423,0,0,0,.449-1.627c-.412-.005-.9-.248-1.2.02a1.463,1.463,0,0,0-.444.5,2.2,2.2,0,0,0-.247.731,2.246,2.246,0,0,0,.014.777,1.551,1.551,0,0,0,.269.63Z" transform="translate(-233.516 -3606.392)" fill="#101a24" opacity="0.1"/>
</svg>
