<svg xmlns="http://www.w3.org/2000/svg" width="190" height="133.29" viewBox="0 0 190 133.29">
  <path id="ajo1" d="M134.027,1017.272a30.128,30.128,0,0,0-8.237,3.771,18.747,18.747,0,0,1-2.647,1.8,7.3,7.3,0,0,0-3.98,4.312,12.694,12.694,0,0,1-.932,2.935,2.506,2.506,0,0,0-.444,1.677,2.712,2.712,0,0,0,.782,1.6,33.121,33.121,0,0,1,2.118,2.737c.487.656.466,1.279-.551,1.64s-.741.672-.423,1.23a1.3,1.3,0,0,1,0,1.245c-1.122,1.935-2.436,3.8-3.452,5.755a46.328,46.328,0,0,1-5.759,7.558c-1.08,1.311-2.689,2.344-3.875,3.59-2.118,2.246-4.637,4.247-6.691,6.558-3.388,3.787-7.263,7.263-11.032,10.869a45.647,45.647,0,0,0-7.793,10.329c-.825,1.492-1.8,2.935-2.71,4.377-1.63,2.607-3.3,5.18-4.849,7.788-1.059,1.753-1.884,3.573-2.9,5.328-1.207,2.081-2.477,4.131-3.769,6.18-1.927,3.1-3.705,6.246-5.865,9.247a60.568,60.568,0,0,1-12.557,11.8,4.088,4.088,0,0,1-1.461.72q-5.633,1.33-11.307,2.574a10.069,10.069,0,0,0-4.235,1.64c-2.117,1.64-4.362,3.279-6.5,5.017a7.861,7.861,0,0,1-3.854,1.64q-1.637.268-3.3.392c-.953,0-1.906-.146-2.859-.1a6.338,6.338,0,0,0-3.473,1.328,9.614,9.614,0,0,1-2.731,1.638,14.038,14.038,0,0,0-5.315,3.2,14.975,14.975,0,0,0-1.8,2.311c1.673.475,2.838.787,4.235.278s3.325-1.147,5-1.753a21.062,21.062,0,0,1,6.48-1.64,69.161,69.161,0,0,1,7.834.115,9.055,9.055,0,0,0,3.2-.279,26.632,26.632,0,0,0,4.764-2.115,13.845,13.845,0,0,1,5.4-2.032,32.487,32.487,0,0,1,6.056-.23c4.7.328,9.381.8,14.06,1.311a76.261,76.261,0,0,0,14.611.673c3.07-.247,6.14-.312,9.189-.557a46.166,46.166,0,0,0,8.894-1.165,8.347,8.347,0,0,1,1.948-.115c2.689,0,5.378,0,8.046-.163,3.049-.2,6.077-.657,9.127-.95a55.986,55.986,0,0,0,11.561-2.756c4.658-1.475,9.232-3.1,13.827-4.689a41.549,41.549,0,0,0,5.082-1.918c3.514-1.754,7.03-3.507,10.376-5.41s7.3-3.36,9.761-6.115a.975.975,0,0,1,.4-.311,7.759,7.759,0,0,0,3.2-2.508,6.641,6.641,0,0,1,.742-.705,58.415,58.415,0,0,0,6.86-6.312,107.038,107.038,0,0,0,8.724-9.542,33.074,33.074,0,0,0,5.23-8.492c.572-1.754,1.419-3.476,2.117-5.23a64.571,64.571,0,0,0,2.456-7.2,22.608,22.608,0,0,0,.382-10.525c-.423-1.934-.508-3.919-.846-5.886-.212-1.2-.742-2.361-.912-3.574a26.46,26.46,0,0,0-3.028-8c-1.312-2.754-2.837-5.459-4-8.2a10.5,10.5,0,0,0-3.325-4.558,13.938,13.938,0,0,1-1.63-1.524,38,38,0,0,0-9.084-7.9c-2.118-1.2-3.875-2.918-6.649-3.426a.762.762,0,0,1-.252-.1.529.529,0,0,1-.171-.176c-.889-1.508-2.9-2.164-4.235-3.279a1.9,1.9,0,0,0-1.017-.409,26.252,26.252,0,0,0-5.8-.623,6.045,6.045,0,0,1-3.642-.869,34.469,34.469,0,0,0-9.168-3.46A7.346,7.346,0,0,0,134.027,1017.272Zm.169,2.656,2.118,2.787c-1.779,0-2.118-1.311-3.494-1.639-.932,1.459,1.736,1.639,1.418,2.787-.952.475-1.461-.23-2.116-.607a20.116,20.116,0,0,1-1.738-1.492Zm-4.807,18.46a3.153,3.153,0,0,0-1.609-1.54c-1.038-.574-2.329-1-2.584-2.165a.43.43,0,0,0-.12-.194.61.61,0,0,0-.218-.133c-1.5-.279-1.885-1.378-2.584-2.181a3.724,3.724,0,0,1-.849-2.484,3.844,3.844,0,0,1,1.061-2.434c.148.442.254.885.445,1.311a2.269,2.269,0,0,0,.656.9c.148.131.572,0,.889,0a1.293,1.293,0,0,0-.106-.623l-1.016-2.558a10.128,10.128,0,0,1,3.749-1.983c-.488,0-.784-.3-.3-.574,1.016-.607,2.117-1.148,3.112-1.64.7.787,1.314,1.427,1.864,2.132a1.677,1.677,0,0,1,.19.868,5.1,5.1,0,0,1-1.122-.3,21.288,21.288,0,0,1-1.716-1.262l-2.117.853c1.97-.082,3.134.95,2.711,2.705l-2.118-1.935c-1.439-.1-.169,1.082-.973,1.377a14.817,14.817,0,0,0-1.885,1.017c-.148.426-.3.885-.445,1.344a1.893,1.893,0,0,1,1.021.391,1.18,1.18,0,0,1,.461.806c.17,2.18,2.35,3.459,3.642,5.131a4.13,4.13,0,0,1,.678,1.033,2.066,2.066,0,0,0,.53.788,2.823,2.823,0,0,0,.891.558,3.456,3.456,0,0,0,1.106.237,3.6,3.6,0,0,0,1.136-.124,4.628,4.628,0,0,1-2.162-.739,3.108,3.108,0,0,1-1.247-1.556c1.313.64,2.33,1.1,3.282,1.64.169.1,0,.426.127.671,1.088.109,2.184.17,3.282.181,1.144-.064,2.283-.18,3.409-.345l2.118,2.607-1.842.345a2.327,2.327,0,0,0-2.415-2.263c0,.853,0,.853.7,2.033-.466.312-.847.607-1.335,0a10.547,10.547,0,0,0-2.689-2.016v1.77l-1.165-.8c-.253.18-.55.3-.676.492a.942.942,0,0,1-.3.3,1.241,1.241,0,0,1-.438.173,1.426,1.426,0,0,1-.492.01,1.3,1.3,0,0,1-.447-.159A4.658,4.658,0,0,1,129.389,1038.388Zm18.467-7.525a31.732,31.732,0,0,1-6.733,3.459,7.719,7.719,0,0,1-2.478.41,32.351,32.351,0,0,0,8.089-5.492c-.721-.082-1.165-.246-1.4-.131a8.2,8.2,0,0,0-2.52,1.41,18.32,18.32,0,0,1-6.648,3.639,17.824,17.824,0,0,1-2.711.886c-.466.131-1.058.246-1.27-.475l6.48-2.919c.169-.082.4-.115.507-.229.974-1.033,1.927-2.082,3.113-3.378a5.977,5.977,0,0,0-1.313.312c-.889.508-1.736,1.049-2.582,1.639a23.98,23.98,0,0,1-5.464,2.541c-.678.247-1.5.148-2.118.869s-1.228-.344-1.779-.77c4.045-2.558,9-3.984,12.24-7.443,1.5.574,3.261.984,4.087,2.459a2.969,2.969,0,0,0,1.1.853l4.023,2.344L149,1031.929v-1.361A3.98,3.98,0,0,0,147.856,1030.863Zm26.954,16.6a5.411,5.411,0,0,1-.149,1.541h-.254l-.678-1.164c.381-.147.72-.311,1.081-.442l1.354-1.017c1.1,1.329,1.1,1.329,0,2l-1.44-.983Zm-11.351,4.947,2.9.131c.254.918.466,1.639.7,2.623l-3.2-.378C163.756,1054.094,163.629,1053.356,163.459,1052.406Zm-1.673,2.148c-.995-.46-1.036-.624-.613-2.329A2.283,2.283,0,0,1,161.786,1054.554Zm-13.763,11.327-2.562-.2,2.117,1.393a10.547,10.547,0,0,1-.317,1.64l-4.024-1.279c.721,1.328,2.5,1.639,3.579,2.557a10.83,10.83,0,0,1-.38,2.05l-5.485-2.246,2.964-7.312c1.377.541,2.626.967,3.791,1.492S148.383,1065.144,148.023,1065.881Zm3.177,1.46-1.907-.771a7.974,7.974,0,0,1,.277-1.492C151.961,1065.259,152.216,1065.636,151.2,1067.341Zm-2.245.655c2.287.492,2.308.492,1.779,2.263l-2.118-.852A12.909,12.909,0,0,1,148.955,1068Zm-.955,2.69,2.118.7c-.212.607-.445,1.214-.7,1.934-.762-.278-1.4-.507-2.117-.8a13.278,13.278,0,0,1,.7-1.886Zm2-9.609c1.724.213,1.953.356,2,1.513v2.314c-2.806-1.46-2.806-1.46-2-3.881Zm-1.638,1.788c-1.694-.41-1.757-.672-.931-2.968l1.693.476Zm-3.362-.984c-.783.082-1.228-.081-1.164-.606.275-2.967.572-5.935.889-9.116,1.271.525,1,1.148,1.038,1.64a17.879,17.879,0,0,0,0,3.017c.19.918-.678,1.639-.424,2.606a5.849,5.849,0,0,1-.339,2.361Zm5-2.442c.565-.869,1.454-.836,2-1.131v2a4,4,0,0,1-2-.968Zm-1-.312c-1.672-.328-2.118-.885-1.524-2.426,2.18.623,2.2.672,1.524,2.328Zm2-4.36c2.117.671,2.117.705,1.376,2.672-2.054-.525-.529-1.984-1.376-2.771Zm-2,1.36c-1.673,0-1.885-.229-1.758-1.279a9.945,9.945,0,0,1,.318-1.737c1.969.8,2.118.77,1.44,2.918Zm2-3.934c1.165,0,1.334.557,1.313,1.442-1.1-.393-1.758-.64-1.313-1.541Zm-2,.442-1.715-.607c.106-.491.191-.918.276-1.36,1.736.311,1.736.311,1.439,1.869Zm3-3.279.213,1.8c-1.377-.967-1.377-.967-.213-1.918Zm-2,.64a10.849,10.849,0,0,1-1.228-.23,5.806,5.806,0,0,1-.678-.279,4.521,4.521,0,0,1,0-.754,7.124,7.124,0,0,1,.318-.918c1.524.147,1.292,1.082,1.588,2.148Zm-4,1h-.423c0-1.492.211-2.967.36-4.771a6.578,6.578,0,0,1,.063,4.657Zm1.727-9h.487a12.219,12.219,0,0,1,.784,4.918c-.488-.246-.954-.36-.975-.508A44.128,44.128,0,0,1,147.727,1042Zm-1.356,4c-.486-.262-.867-.344-.867-.475a8.3,8.3,0,0,1,.614-4.214,5.873,5.873,0,0,1,.233,4.689Zm3.812-2.595a5.834,5.834,0,0,1,.826,4.115A5.5,5.5,0,0,1,150.183,1043.405Zm4.235-.918c1.312-.328,1.906,0,2.118,1l-1.313.508c.232.2.338.361.466.361a1.8,1.8,0,0,1,1,.263,1.147,1.147,0,0,1,.529.7c.55,1.9,1.165,3.8,1.8,5.9l-2.308.328c-.72-3.033-1.482-5.984-2.245-9.017Zm-11.476-5.639c.571.983,1.079,1.9,1.609,2.819l-.36.18-2.52-2.606Zm-8.942.262a6.586,6.586,0,0,1,2.291-.578,6.912,6.912,0,0,1,2.389.25,5.235,5.235,0,0,1-2.268.715,5.592,5.592,0,0,1-2.412-.322Zm20,3.8c-.3-.672-.763-1.393.36-2.229l1.63,2.41c-1.44.753-1.61.671-1.99-.115Zm7,.738c1.1-.312,1.4.327,1.863,1.2-1,0-1.8.574-2.118-.36-.126-.164.043-.722.255-.722Zm-2.071,1.754c-.912-.115-.954-.655-1.038-1.2C159.224,1042.29,159.224,1042.29,158.929,1043.405Zm8.469,1.82c-1.312,0-1.292-.738-1.715-1.1a3.535,3.535,0,0,0,.191,1.3l-3.748.312-.529-1.639c1.079,0,1.927-.591,2.816.163.169.148.825,0,1.27-.114l.783-.312Zm1.059-1.164a2.61,2.61,0,0,1,1.418,1.246c-.973-.263-.973-.263-1.312-1.181Zm-5.315,4.1-.678-1.311c3.262-.967,4.426-.688,5.04,1.131-1.207.508-1.08-.574-1.8-.918a1.756,1.756,0,0,1-.934.955,2.64,2.64,0,0,1-1.522.209Zm-2.2-.159h-.826a6.182,6.182,0,0,1-.593-1.18c.551-.394.953-.344,1.144.082A5.241,5.241,0,0,1,160.94,1048Zm-1.94-2.136a6.613,6.613,0,0,1-.488-1.409c1.1.147,1.885,1.081,1.4,1.475a1.245,1.245,0,0,1-.464.063,1.164,1.164,0,0,1-.446-.112Zm11,.64c1.292.131,1.313.147,1.376,1.524-1.482.065-1.482.065-1.376-1.508Zm-9.569,2.721a1.751,1.751,0,0,1,.674.374,1.24,1.24,0,0,1,.37.573,1.037,1.037,0,0,1-.022.642,1.287,1.287,0,0,1-.408.558,2.553,2.553,0,0,1-.586-1.025A2.212,2.212,0,0,1,160.431,1049.225Zm7.5,3.775c1.756-.754,2.731-.426,3.239,2.361-2.393.426-2.774.164-3.3-2.361Zm5.1,2a17.275,17.275,0,0,0-.72-1.738l1.5-.311a4.418,4.418,0,0,1,1.081,2.737c-1.038.262-1.757.213-1.927-.688Zm-9.635-3.4c0-.885-.148-1.492-.212-2.279l2.33-.164c.169.771.317,1.394.487,2.247Zm3.6-1.9a1.93,1.93,0,0,1,1.058-.082,1.591,1.591,0,0,1,.869.475c.784.754.847.82.572,1.9h-1.673c-.276-.82-.551-1.574-.826-2.378Zm4.421,1.9c-.3-.721-.593-1.475-.889-2.246,2.117-.278,2.943.345,2.9,2.476Zm6.579-2.771c1.4,1.459,1.376,1.722-.3,2.05-.953-1.574-.953-1.574.3-2.016Zm-4.652-2.54c-1.249-1.132-.677-1.9,1.715-2.328.72,1.311.72,1.311-1.651,2.36Zm-1.715-2.115a2.843,2.843,0,0,1,.169-1.411,1.717,1.717,0,0,1,2.351.148Zm-4.743-1.82c-1.821.541-2.117.475-2.922-.853l1.758-.606c.486.574.867,1.016,1.227,1.492Zm3.726-1.262a17.947,17.947,0,0,1,1.758-.7c0,.442.254.95.127,1a4.446,4.446,0,0,1-1.906.508c-.423,0-.4-.542.086-.771Zm-11.18-1.886c-.19-.967-1.926-1.476-.783-2.639,1.525,1.131,1.778,1.737.847,2.672Zm2.118-2.345,3.112,2.984a1.3,1.3,0,0,1,0,.279c-.444,0-1.079.1-1.291-.1a18.874,18.874,0,0,1-2.287-2.918Zm-5,2.87c-.232-.476-.423-.918-.761-1.64,1.736.688,1.821.951.719,1.673Zm-8.829-.853c-.466.46-.974.688-1.482.18s-1.356-1.557-2.118-2.41c.317-.147.636-.361.72-.327A8.3,8.3,0,0,1,147.727,1038.88Zm-7.412-2.88,2.753-.508a1.534,1.534,0,0,1-.511.516,2.073,2.073,0,0,1-.755.286,2.352,2.352,0,0,1-.841,0,2.1,2.1,0,0,1-.752-.292Zm-11.858-5c-.36-1.541,0-2.312,1.526-2.787s2.9-.869,4.235-1.361a21.877,21.877,0,0,0,2.117-1c.911-.393,1.8-.819,2.732-1.147a2.85,2.85,0,0,1,1.5.1,53.857,53.857,0,0,1-12.218,6.2ZM41.134,1132.869a12.552,12.552,0,0,1,4.955-.935l-4.87,1.263Zm17.659,9.017-.825-1.639L61.5,1139.2l4.849,2.409A16.39,16.39,0,0,1,58.793,1141.886Zm-11.667-3.114,1.44,1.049a.911.911,0,0,0-.148.229l-3.367-.394Zm-3.919.228L42,1138.82v-.279l1.228.148a1.814,1.814,0,0,0-.127.311Zm42.986-11c.466.247.932.476,1.44.7-2.117,1.394-2.287,1.64-4.764-.589l1.8-.886a11.143,11.143,0,0,0,1.419.77Zm0-1.623,2.118-1.017,2.71,1.377C88.883,1128.212,88.141,1128.148,86.193,1126.377Zm-4.849,2.18c.911.345,1.758.8,2.647,1.229-1.08.87-1.08.87-3.727-.786C80.751,1128.8,81.175,1128.491,81.344,1128.557Zm-17.6,6.935c3.515-1.918,3.515-1.246,5.633.049l-3.452,1.312C65.146,1136.378,64.447,1135.95,63.748,1135.492Zm.252,1.64c-1.863,1.148-2.52,1.131-4.637-.2,2.2-1.278,2.2-1.278,4.637.229Zm9.933-3.41-3.091,1.262-1.969-1.213,2.625-1.246Zm-.614-1.64c2.118-1.082,2.118-1.082,4.235.41l-2.223.82Zm-.6,3.673a5.23,5.23,0,0,1,3.663-1.132l2.88-1.377,1.736.705V1132.8l2.583-.869,1.44.869a71.43,71.43,0,0,1-11.138,4.477Zm4.261-5.018c2.118-1.328,2.33-1.311,4.235.181C79.968,1132.393,78.443,1132.263,76.982,1130.737Zm.625-1.754c-1.5,1.034-1.5,1.034-3.113.312L71,1127.754v-.41l2.118-.918ZM74,1130.623l-1.821.754-4.637-2.229,2.392-.87c.7,1.2,2.711,1.279,4.066,2.3Zm-3.6,1.212-3.134,1.182-3.769-1.64,2.118-1.476Zm-5.4,1.64c-3.2,1.345-2.266,1.64-5.611-.295,2.308-1.147,3.959-1.081,5.611.394Zm-5,1.9-2.117.854-2.563-1.295c1.271-1.476,2.393-1.361,4.68.475Zm-7.305-.556,3.981,2.033c-.974.491-1.652.868-2.35,1.18a1.019,1.019,0,0,1-.763,0c-1.736-.852-3.43-1.738-5.145-2.623,0,0-.106-.179-.233-.41l3.07-1.278ZM60,1138.59c-1.567,0-2.964,1.312-4.764.165,2.795-1.394,3.472-1.525,4.764-.131Zm-13-2.016c-.932.77-1.016.755-2.6-.689a2.355,2.355,0,0,1,.742-.149,2.38,2.38,0,0,1,.758.084,2.116,2.116,0,0,1,.656.306,1.6,1.6,0,0,1,.449.481Zm-3.029.574c-1.228.2-1.228.2-1.588-.787ZM52.123,1139l-1.8.886c-.826-.625-1.567-1.214-2.393-1.822,1.779-.621,2.541-.426,4.256.936Zm4.786,3-2.88-.212c1.779-1.23,2.012-1.23,2.943.212Zm24.689-.426a51.841,51.841,0,0,1-11.984.8c2.414-.492,4.87-.9,7.22-1.508a5.351,5.351,0,0,1,2.546-.276,4.767,4.767,0,0,1,2.282.914Zm6.353-.376-.868.1a1.464,1.464,0,0,0,0-.3h.868a.633.633,0,0,1,.042.132Zm-6.713-1.2a3.2,3.2,0,0,1,1.02-.6,3.974,3.974,0,0,1,2.508-.062,3.3,3.3,0,0,1,1.067.548c-1.482.8-2.9,1.327-4.552.049Zm9.762.541c-.4.1-.974-.343-1.63-.623,1.588-.885,2.964-1.491,4.827-.41a6.573,6.573,0,0,1-3.155.968Zm24.012-11.476c-1.207,1.443-1.5,1.526-3.176.869l-1.652-.737,1-.755c.275-.213.571-.409.973-.673Zm-1.694-2.049,1.567-1.164,1.694.574,1.5.59C116.346,1128.656,116.346,1128.656,113.318,1127.016ZM119,1130.8c-1.229,1.131-1.822,1.131-3.875,0,1.545-1.147,1.9-1.147,3.875-.017Zm-11-1.542c-1.927,1.428-2.117,1.428-4.044.476,1.545-1.475,2.011-1.54,4.044-.491Zm.913.411,3.008,1.163c-1.462,1.28-1.991,1.64-4.659-.1Zm4.554,1.639,1.354.378,1.292.393c-2.117,1.23-2.117,1.41-4.235.311Zm-4.489,1.246c-2.351,1.394-2.351,1.394-4.363.165l1.546-1.3Zm3.022,1.165c-1.017.361-1.779.655-2.562.869a4.777,4.777,0,0,1-.889-.2c1.5-1.262,1.5-1.262,3.451-.639Zm-7,.492c-1.355,1.212-1.355,1.212-3.24.278,1.313-1.18,1.652-1.214,3.24-.246Zm-6.674.179c-1.927,1.64-2.223,1.64-5.314.427l3.112-1.41Zm2.118.574,1.969.8c-1.525,1.377-1.884,1.41-4.362.41Zm-6.352,1.508c-1.546,1.443-3.3.9-5.273.41,2.245-1.556,3.007-1.541,5.4-.376Zm4.531,1.033c-2.795,1.885-2.711,1.64-5.018.574,1.715-.77,3.176-1.852,5.145-.541Zm-9.592.673c-.741.967-.741.967-3.981.148,1.567-.9,2.816-.476,4.108-.115Zm8.131,1.754c1.779-.951,3.345-1.885,5.018-2.64a21.794,21.794,0,0,1,3.452-.868,2.727,2.727,0,0,0-.127-.869c.656-.327,1.185-.967,2.35-.509l-1.355.935a12.531,12.531,0,0,0,4.234-.77,36.88,36.88,0,0,1,3.643-1.181c-2.541,2.491-13.234,6.837-17.088,5.934Zm26.489-4.278a43.5,43.5,0,0,1-7.093,1.736c1.651-.835,3.3-1.638,5-2.475,1-.394,1.377.3,2.223.771Zm1.589-.788a15.037,15.037,0,0,1-4.532-2.246c-1.335.409-.338,1.034-.275,1.475-6.628,3.952-13.891,6.558-17.152,5.935a4.646,4.646,0,0,1,.72-.344,50.212,50.212,0,0,0,12.7-5.886c1.144-.72,2.711-1.016,3.494-2.13a.769.769,0,0,1,.334-.229,1.022,1.022,0,0,1,.44-.057.965.965,0,0,1,.411.134.645.645,0,0,1,.256.282c.317,1.083,1.418,1.492,2.393,2.049a4.592,4.592,0,0,1,1.333,1.049Zm6.945-5.787c.614-.459.867-.787,1.1-.787,1.292,0,2.118.7,3.176,1.41-1.863,1.049-2.478-.589-4.151-.589Zm8.067-.23c-.423.69-.889,1.066-2.117.722.847-.541,1.27-.918,2.245-.689Zm2.435-1.147-1.566.59c.614-.869.614-.869,1.693-.558Zm3.155-1.9c-1.418,1.181-1.418,1.181-2.414.377.869-.3,1.335-1.131,2.542-.344Zm3.431-1.64c-1.842,1.181-1.842,1.181-2.943.263,1.4-1.181,1.4-1.181,3.069-.181Zm2.753-1.639c-1.208,1-1.208,1-3.028.164,1.461-1.2,1.461-1.2,3.154-.131Zm3.324-1.984c-1,1.3-1.334,1.345-3.452.46,1.144-1.443,2.414-.378,3.579-.427Zm1.694-1.082-.593.624-2.351-.869a8.858,8.858,0,0,1,3.071.278Zm2.117-1.639c-1.1.9-1.609.885-5.462-.18.253-.393.486-.754.719-1.083Zm2.956-2.278c-1.674,1.544-1.908,1.642-4.241.788l-1.567-.558c1.717-.2,3.052.87,4.494-.114-.785-.854-2.12-.543-3.116-.969a27.353,27.353,0,0,0-3.118-.87c-.317.493-.551.837-.74,1.182h-2.853l1.658,1.363c-.778,1.031-2.417,1-3.666,1.745l2.048,1.585a1.552,1.552,0,0,1-2.17.3,16.72,16.72,0,0,0-2.048-.65c-1.024,1.586,1.7.983,1.7,2.078-.349.459-.819.839-1.781.284a17.709,17.709,0,0,0-2.049-.824c-.553.824-.553.824,1.372,1.966-.594,1.158-1.331,1.015-2.315.476s-2.047-1-2.968-1.49a.951.951,0,0,0-.226.429.856.856,0,0,0,.029.462,1.039,1.039,0,0,0,.275.411,1.419,1.419,0,0,0,.474.283c.717.381,1.475.713,2.232,1.062-.942,1.3-1.207,1.364-2.642.508a5.3,5.3,0,0,0-1-.65,4.5,4.5,0,0,0-1.147,0c0,.317,0,.713.247.9a19.554,19.554,0,0,0,2.046,1.237c-.326.206-.572.4-.838.586l-3.666-2.171a1.024,1.024,0,0,0-.328.436.806.806,0,0,0-.027.5.961.961,0,0,0,.281.456,1.387,1.387,0,0,0,.524.3c.656.349,1.373.65,2.293,1.063l-1.534,1.046c-1.413-.539-2.622-1.093-2.581-2.632a6.082,6.082,0,0,0-1.638.714,2.106,2.106,0,0,1-.674.621,2.8,2.8,0,0,1-.949.345,3.124,3.124,0,0,1-1.048,0,2.787,2.787,0,0,1-.954-.337c.225.73.39,1.206.512,1.586a8.844,8.844,0,0,1,4.526,2.125,1.066,1.066,0,0,1-1.495.111c-1-.761-2.049-1.49-3.031-2.236h-.708s-1.059.164-1.334.737.36.607.784.854c1.08.638,2.117,1.36,3.07,2.015-.4.8-.931.787-1.609.426-1.292-.7-2.584-1.376-3.9-2.032a13.3,13.3,0,0,0-1.545-.541c-.593,1.033.275,1.344.974,1.64,1.143.541,2.35,1.032,3.981,1.639l-2.669.836a12.25,12.25,0,0,1-4.764-3.689c1.5-.9,3.092-1.786,4.616-2.737a23.051,23.051,0,0,0,2.287-1.64c.53-.443.488-.475,0-1.361a9.487,9.487,0,0,0-.826.558,28.207,28.207,0,0,1-7.029,4.377,1.961,1.961,0,0,1-1.8,0c-.719-.328-1.482-.59-2.286-.934a2.559,2.559,0,0,1,1.068-.951,3.558,3.558,0,0,1,1.557-.361,10.6,10.6,0,0,1,2.563.771l.211-.279-1.8-1.312c.317-.475,1.355-.885.444-1.787l-2.371,1.3-3.367-1.344c1.482-1.066,2.838-2.066,4.234-3.066a1.559,1.559,0,0,1,.842-.377,1.778,1.778,0,0,1,.959.132l3.091,1.376c-1.186.968-2.244,1.427-3.769.755a1.961,1.961,0,0,0-1.969,0,21.6,21.6,0,0,0,3.854,1.442c1.227.213,2.117,1.329,3.769.8-.487-.935-1.864-.623-2.457-1.312.89-.606,1.694-1.295,3.028-.541a1.122,1.122,0,0,0,1.547-.377l-1.42-.771a32.587,32.587,0,0,1,4.236-4.131c.55-.311,1.291-.787.762-1.64a3.586,3.586,0,0,0-1.165.46,19.545,19.545,0,0,0-4.045,3.459c-.741,1.148-1.4,1.262-2.816.639-.784-.327-1.524-.7-2.329-1.1,1.482-1.2,2.817-2.213,4.066-3.279.4-.361,1.079-.9-.128-1.426-1.227,1.017-2.434,2.082-3.7,3.066-2.286,1.737-4.6,3.459-6.946,5.131a5.918,5.918,0,0,1-1.5.558,6.782,6.782,0,0,1-.954,1.2c-.847.64-1.757,1.23-2.668,1.8-1.291.837-1.291.837-3.006-.163a12.538,12.538,0,0,0,2.117-1.361c.466-.46,1.631-.869.657-1.853-.869.64-1.631,1.246-2.457,1.787s-1.037.967-1.99.82a.729.729,0,0,0-.247.054.585.585,0,0,0-.2.126c-.148,1.214-1.778,1.164-2.413,1.9l-2.266-.705c.677,1.869,3.049,1.526,4.235,2.492-.36.753-1.4.836-2.118,1.245a31.024,31.024,0,0,0-4.912-1.344c.72,1.165,2.392,1.246,3.557,2.017a1.218,1.218,0,0,1-.373.438,1.689,1.689,0,0,1-.579.272,1.931,1.931,0,0,1-.674.054,1.867,1.867,0,0,1-.64-.173,13.744,13.744,0,0,1-1.863-.8,2.609,2.609,0,0,0-1.469-.3,2.373,2.373,0,0,0-1.347.541,4,4,0,0,1-1.038.657c-3.282,1.377-6.522,2.77-9.846,4.082A65.737,65.737,0,0,1,72.557,1141h-.572c-1.27.033-2.625.673-3.748.493a13.526,13.526,0,0,1-3.6-1.771l-1.715-.967c1.969-.967,2.71-.967,4.234,0,.53.311.953.7,1.483.983s.889.361.868-.279a3.1,3.1,0,0,0-.53-.672c-.529-.426-1.122-.786-1.863-1.279l3.451-1.213,1.97,1.147c-.932.838-2.711.821-3.028,2.017a85.984,85.984,0,0,0,11.476-3.869c2.245-.933,4.447-1.918,6.628-2.917a11.716,11.716,0,0,0,1.546-1.05,3.048,3.048,0,0,0-2.541.377,1.789,1.789,0,0,1-2.118-.574l4.786-2.131c.8,0,1.588,1.312,2.647.082l-1.377-.918,1.61-1,2.265.869-1.185,1.016a7.374,7.374,0,0,0,1.418-.1,45.158,45.158,0,0,0,9.232-4.541c.72-.508,1.567-.886,2.351-1.344.211-.132.381-.329.741-.624a3.609,3.609,0,0,0-1.138.124,3.073,3.073,0,0,0-.98.466c-2.308,1.165-4.637,2.279-6.881,3.509a4.064,4.064,0,0,1-4.045,0c1.44-.837,2.816-1.639,4.235-2.443s2.774-1.639,4.235-2.557c.678-.46.678-.591.593-1.476a3.963,3.963,0,0,0-2.287.984c-2.308,1.393-4.6,2.819-6.924,4.213a12.942,12.942,0,0,1-1.482.64l-2.562-1.443a25.46,25.46,0,0,1,6.331-4.3,30.4,30.4,0,0,0,7.009-4.082c.19-.18.487-.36.55-.59a.6.6,0,0,0,0-.348.732.732,0,0,0-.206-.308,1.1,1.1,0,0,0-.847,0,28.3,28.3,0,0,1-2.33,1.836c-2.985,1.8-6.034,3.542-9.1,5.263-2.117,1.213-4.383,2.344-6.585,3.525l-3.854-2.3c-.339,1.835,1.864,1.852,2.478,2.787-1.44.869-1.864.852-3.156,0a23.169,23.169,0,0,0-2.307-1.148c-.149.9-.149.9,2.117,2.361a1.082,1.082,0,0,1-1.5.541c-1.4-.623-2.711-1.328-4.235-2.082,1.884-1.164,3.578-2.23,5.314-3.279,2.118-1.3,4.235-2.492,6.353-3.836a14.693,14.693,0,0,0,2.308-2.247.742.742,0,0,0,0-.737,112.89,112.89,0,0,1-16.305,9.836q-8.562,4.488-17.744,8.2l-1.4-.737c1.164-.492,2.117-.918,3.2-1.361a20.706,20.706,0,0,0,2.477-1.229c.805-.443,2.012-1.1,2.986-1.64a11.107,11.107,0,0,0,1.249-1.033l-.254-.262a4.324,4.324,0,0,0-.953.23c-2.6,1.262-5.082,2.722-7.813,3.771-3.43,1.344-7.051,2.376-10.587,3.507a11.547,11.547,0,0,1-1.546.148c-1.313.229-2.6.492-4.235.787,1.207,1.345,2.6.59,3.847.689v1.016l-4.757.8a21.834,21.834,0,0,1-2.436,2c-1.4.837-2.922,1.524-4.4,2.28-.212.114-.529.179-.635.327-1.525,1.9-4.235,1.739-6.479,1.918a52.692,52.692,0,0,1-6.628-.3l11.053-.8c-.233-.968-.91-.869-1.673-.8-3.049.245-6.119.442-9.168.688a14.716,14.716,0,0,0-1.715.328c.338.278.444.426.614.475a8.244,8.244,0,0,0,.931.1,13.285,13.285,0,0,0-2.435.1,17.8,17.8,0,0,0-2.752.984,8.969,8.969,0,0,1-3.643,1.229,12.9,12.9,0,0,1,1.1-.787c1.969-1.082,3.959-2.163,5.971-3.279a3.564,3.564,0,0,1,1.418-.409,15.164,15.164,0,0,1,5.442.262c1.229.411,2.266-.229,3.409-.279a.445.445,0,0,0,.16-.049.351.351,0,0,0,.116-.1c.55-1.541,2.329-2.3,3.642-3.279a45.256,45.256,0,0,1,4.235-3.082,22.892,22.892,0,0,1,2.837-1.246l1.609.689a17.732,17.732,0,0,0,3.049-.985,25.522,25.522,0,0,1,5.866-1.507q2.964-.774,5.8-1.8a27.032,27.032,0,0,0,3.366-1.755,30.738,30.738,0,0,0,3.473-1.951c2.117-1.64,4.235-3.427,6.352-5.115a.865.865,0,0,0-1.376-.164c-1.44.951-2.88,1.9-4.235,2.9s-2.414,1.836-3.6,2.771l-.36-.214a8.524,8.524,0,0,1,.763-.885c1.122-.918,2.287-1.819,3.409-2.722a32.606,32.606,0,0,0,5.823-6.721,53.667,53.667,0,0,0,3.663-5.558c1.821-3.18,3.43-6.443,5.272-9.623,1.631-2.8,3.452-5.542,5.188-8.313,1.038-1.638,1.991-3.278,3.092-4.917a78.678,78.678,0,0,1,5.039-7.2c3.219-3.8,6.84-7.41,10.058-11.213,2.965-3.525,6.353-6.755,9.529-10.23s5.865-6.558,8.66-9.837c1.483-1.787,2.731-3.689,4.023-5.558,1.1-1.639,2.118-3.148,3.156-4.738.359-.573.656-1.18,1-1.8.783.1.973.426.678.869l-4,5.8-.466.673-3.006,4.623c-1.059,1.639-2.118,3.279-3.2,4.918a32.745,32.745,0,0,1-2.9,3.738c-1.715,1.886-3.176,3.918-4.764,5.935a1.4,1.4,0,0,0,.521.191,1.549,1.549,0,0,0,.576-.018,1.324,1.324,0,0,0,.5-.223.953.953,0,0,0,.309-.376c1.481-2.066,3.811-3.771,4.6-6.148a1.135,1.135,0,0,1,.36-.541,18.781,18.781,0,0,0,4.234-4.705,42.612,42.612,0,0,0,2.943-4.493c1.737-2.787,3.388-5.574,5.1-8.36,0-.165.338-.263.868-.64-.974,3.7-3.77,6.394-5.337,9.492s-3.345,6.1-5.1,9.263a2.017,2.017,0,0,0,.889-.115,5.354,5.354,0,0,0,1.889-1.727,3.932,3.932,0,0,0,.653-2.207,1.417,1.417,0,0,1,.106-.8,1.8,1.8,0,0,1,.55-.687,14.309,14.309,0,0,0,4.023-5.853c.4-.935,1.27-1.787.995-2.869a.231.231,0,0,1,0-.147l2.668-2.869c.148.2.508.442.445.606a6.226,6.226,0,0,1-1.165,2.557,4.123,4.123,0,0,0-.805,1.427,40.547,40.547,0,0,1-2.477,4.77q-3.514,6.068-7.327,12.051c-1.207,1.852-2.625,3.606-3.959,5.41l-4.531,6.213a5.544,5.544,0,0,0,2.943-2.016,73.422,73.422,0,0,0,6.352-8.706c1.673-2.967,3.769-5.8,5.654-8.706.381-.589.614-1.229.974-1.819s.656-.951.995-1.443c1.991.7,2.52,2.213,3.9,3.279-.19.541-.4,1.1-.678,1.82l-3.683-2.557-.318.147a2.226,2.226,0,0,0,.381.82c.55.491,1.249.9,1.8,1.393,1.42,1.263,1.441,1.639.276,3.2-1.419-.787-1.419-.787-1.292-2.164l-2.668.066c1.376.934.678,1.77,0,2.672-.486.656-.826,1.36-1.355,2.246,1.864-.525,2.605.541,3.494,1.279,1.439,1.18,2.774,2.442,4.087,3.7a11.6,11.6,0,0,1,1.143,1.557c.36.476,0,.722-.466,1.132l-7.114-5.64-.3.115c0,.147,0,.376.106.458,1.567,1.017,1.377,2.165.3,3.476l-1.5-.984c-.36.87.72,1.083,1,1.788l-.7,1.245c-.255.411-.488.82-.741,1.247l-1.377-.262c1.461,1.8,0,3.016-.953,4.442l-1.779-1.213a4.527,4.527,0,0,0,1.588,2.426,54.241,54.241,0,0,0,4.574,4.558,1.536,1.536,0,0,1,.693,1.1,1.413,1.413,0,0,1-.481,1.164l-.614.738a55.515,55.515,0,0,1-6.691-5.673l-1.376,2.41,1.567-.852a1.532,1.532,0,0,1,.38.131l4.68,5.033c.572.607.233,1.033-.636,1.525l-5.674-5.05-.339.2a70.9,70.9,0,0,0,5.272,6.41l-.952.8-5.993-4.918c.148,1.377,1.567,2.1,2.393,3.1s1.97,2.016,2.943,2.984c-9.253,11.951-19.65,23.116-33.5,32.2a8.077,8.077,0,0,0,1.461-.508q2.2-1.217,4.235-2.606a83.412,83.412,0,0,0,7.03-5.313c2.541-2.163,4.891-4.459,7.263-6.754s4.447-4.246,6.48-6.557,4.234-5.083,6.351-7.624c1.186-1.41,2.458-2.771,3.537-4.214s1.715-2.606,2.562-3.9c1.207-1.919,2.541-3.771,3.6-5.738s1.652-3.739,2.478-5.607c1.249-2.787,2.625-5.525,3.726-8.345,1.335-3.393,2.541-6.837,3.6-10.3a44.355,44.355,0,0,0,1.313-6.557c.254-1.754.211-3.542.339-5.624l1.207.869c-.106-.656-.191-1.114-.3-1.639l1.842-.443c.212,1.639.445,3.033.551,4.492a35.266,35.266,0,0,1-1.08,7.394c-.424,2.673-1.165,5.3-1.736,7.968,0,.459-.446.967.254,1.443a6.021,6.021,0,0,0,1.461-3.132c.572-2.967.889-5.951,1.608-8.885a32.621,32.621,0,0,0,.509-7.854,6.982,6.982,0,0,1,.275-1.458,1.743,1.743,0,0,1,1.44.8v3.866a7.338,7.338,0,0,0,.208,1.6,5.246,5.246,0,0,1-.166,3.563,7.534,7.534,0,0,0-.371,2.652c-.124,1.869-.186,3.754-.31,5.639,0,.575,0,1.278-1.3,1.134a4.43,4.43,0,0,1,.743,1.23,2.755,2.755,0,0,1-.351,1.135c-1.321,3.354-2.5,6.757-4.126,10.064-.929,2.013-1.548,4.074-2.352,6.086a78.391,78.391,0,0,1-3.673,7.014c-.248.479-.537.958-.908,1.6a2.9,2.9,0,0,0,1.067-.51,2.056,2.056,0,0,0,.646-.831,41.182,41.182,0,0,0,4.745-9.218,37.136,37.136,0,0,1,2.187-4.889c.392-.831.825-1.6,1.258-2.54a8.525,8.525,0,0,1,1.073.4c2.064,1.023,4.313,2.094,6.48,3.2,1.073.511,1.093.495.557,1.757a68.635,68.635,0,0,1-7.635-3.2c.372.911.351.911,3.261,2.492,1.2.639,2.455,1.246,3.754,1.9l-.268,1.438c-2.971-.607-4.931-2.6-8.046-2.78,2.289,1.214,4.518,2.46,6.85,3.626a1.53,1.53,0,0,1,.557.311,1.083,1.083,0,0,1,.313.474.878.878,0,0,1,0,.532,1.071,1.071,0,0,1-.313.472l-4.85-1.9a5.523,5.523,0,0,0,2.559,2.173c.31.175.7.255,1.032.415,1.031.527,1.031.559.372,1.789-1.609-.75-3.219-1.47-4.87-2.22,0,.846.722,1.357,4.4,3.466a1.725,1.725,0,0,1,0,.527,4.064,4.064,0,0,1-.412.463c-1.59-.367-2.415-1.6-4.374-1.869a13.147,13.147,0,0,0,2.97,2.444c.991.592.969.607.309,1.838l-4.766-2.4c.207.479.228.783.433.927,1.054.7,2.064,1.374,3.24,2.045.639.4.97.8.124,1.39l-2.291-1.263-.371.3,2.187,2.093a6.619,6.619,0,0,1-.226,1.23l2.352-.495a3.5,3.5,0,0,1-.078-2.372,4.341,4.341,0,0,1,1.5-2.07c0-.127.31-.255.289-.366-.433-1.9,1.114-3.483,1.445-5.256s.783-3.1,1.217-4.649a3.442,3.442,0,0,1,.453-1.135,18.473,18.473,0,0,0,2.064-5.623,37.874,37.874,0,0,0,1.156-4.921,43.66,43.66,0,0,0,.371-6.389c0-3.195-.248-6.5-.433-9.762a21.339,21.339,0,0,0-.433-3.194c1.03,0,1.134.527,1.217.926q.784,4.7,1.5,9.394a3.7,3.7,0,0,0,0,.447,32.4,32.4,0,0,1,.454,6.758,1.52,1.52,0,0,0,.192.882,2.028,2.028,0,0,0,.7.715,4.93,4.93,0,0,0,.393-3.387c-.208-2.875-.454-5.735-.7-8.594V1052h2.254a18.541,18.541,0,0,0,1.746,6h.386c0-.941.1-1.9.162-3.085a14.009,14.009,0,0,1,1.929,6.525c-1.177,1-2.4-.525-3.776,0,1.136.987,2.74.617,4.061,1.11.548,2.823,1.116,5.692,1.685,8.654l-2.03.139-.123.262,1.706.509V1076h-2.353c.17,1.247,1.611.657,2.121,1.231-.17.476-.319,1-.531,1.56,1.59.18,1.1-1.018,1.844-1.379l4.919.229c-.169.871-.318,1.642-.509,2.66l-5.173-.591c.637.919,1.568.837,2.311.951s1.675.2,2.735.329c-.234.788-.424,1.46-.678,2.265l-2.947-.345c.53,1.034,1.738.657,2.332,1.133.4,1.116-.488,1.9-1.315,2.823l-1.44-.164a1.049,1.049,0,0,0-.129.214l1.59.919L166.1,1092.2l-3.35-.59c.764.755,2.121,1.247,5.386,2a16.7,16.7,0,0,1-2.862,7.074,38.593,38.593,0,0,1-6.36,7.846,21.436,21.436,0,0,0-2.565,3.644c2.12.936,5.109.689,7.123,2.232-.466.427-.912.788-1.314,1.182Zm-31.944-48.61-7.2-5.378c.382-.639.763-1.295,1.186-1.967,1.842.64,1.631,1.64,1.123,3.017l1.545-.705,4.426,4.032a4.364,4.364,0,0,1-.487,1.1A2.061,2.061,0,0,1,130.173,1066.931Zm-2.88-6.1c.4-.737.72-1.344,1.059-1.95a4.591,4.591,0,0,1,2.118,2.344,1.484,1.484,0,0,0,.445.475c.381.312,1.058.574,1.121.9a5.225,5.225,0,0,1-.4,1.9Zm4.658-2.787c1.652.934,1.673.984,1.017,2.508C131.19,1059.931,131.126,1059.8,131.951,1058.045Zm-1.587.459c-1.461-.869-1.461-.869-.657-2.541C131.486,1056.668,130.427,1057.6,130.364,1058.5Zm2.541-4.3a2.928,2.928,0,0,1,.891.627,2.2,2.2,0,0,1,.51.845,1.856,1.856,0,0,1,.051.932,2.074,2.074,0,0,1-.414.875,2.775,2.775,0,0,1-1.024-.568,1.961,1.961,0,0,1-.578-.866,1.622,1.622,0,0,1-.005-.975A1.941,1.941,0,0,1,132.9,1054.209Zm-1.461.791c-1.567-.1-1.186-1.246-2.118-1.64q-1.1-.588-2.118-1.262l1.44-1.639c1.25.623.551,1.639,1,2.361l1.016-.509c1.757.739.572,1.754.847,2.689ZM127,1050a8.355,8.355,0,0,1-.677,1.017c-.381-.492-.91-.886-.8-1.116a10.554,10.554,0,0,1,2.413-4c.128.491.36.8.234.983a13.976,13.976,0,0,0-1.1,3.115Zm2.627-2c.783.721.317,1.082-.276,1.443a10.678,10.678,0,0,0,.339-1.443Zm3.726,3.6c1.906,1.017,1.906,1.017,1.483,2.23C133.667,1053.242,132.757,1052.7,133.349,1051.6Zm-1.5,0c-.72-.754-.212-1.213,0-1.983C132.566,1050.488,132.1,1050.9,131.846,1051.6Zm3.154-3.935c1.948.755,1.08,1.9.974,2.952-1.948-.656-1.991-.836-.974-2.935Zm-2.477,1.148c-1.079-1.049,0-1.836,0-2.836.869,1.033.869,1.1-.041,2.852Zm-2.117-1.64c-.677-1.213.36-1.77.4-2.54l.656.147c-.381.771-.678,1.492-1.122,2.459Zm-1.8-1.475c-.212-.327-.318-.426-.3-.492.275-.573.571-1.147.995-1.983.424,1.213-.382,1.721-.762,2.541Zm7.394-1.328v1.82c-.889-.672-.889-.672-.063-1.754Zm-2.9.443c.148-.771.276-1.426.4-2.213.868,1.311.826,1.524-.466,2.279ZM131.888,1043h-.507a8.291,8.291,0,0,1,.317-1.639c.847.639.021,1.164.127,1.705Zm-10.037,30.62a1.145,1.145,0,0,1-.486-.65.929.929,0,0,1,.126-.744c.318-.557.551-1.131,1.016-2.114,1.144,1.131,2.118,1.983,2.881,2.836a17.839,17.839,0,0,1,1.27,1.442c.72.9,0,1.639-.635,2.525Zm3.537,5.2c-.319.754-.636,1.492-1.06,2.525l-6.161-4.919c.636-.508,1.1-.852,1.525-1.229s.741-.7,1.164-1.115A19.978,19.978,0,0,1,125.388,1078.817Zm1.291-6.443c-.508-.328-.932-.705-1.439-1.017-1.737-1.065-2.711-2.23-.806-3.967l3.622,3.279c.762.705.317,1.41-.106,2.3A11.054,11.054,0,0,1,126.679,1072.374Zm42.985-16.116c2.5,0,2.753.214,3.494,2.787l-8.492-.393c-.169-.918-.359-1.754-.507-2.558a3.942,3.942,0,0,1,1.3-.318,4.11,4.11,0,0,1,1.357.123,3.534,3.534,0,0,1,1.173.542,2.622,2.622,0,0,1,.783.867Zm3.832.135,1.314-.2,1.778,2.8H174.47C174.089,1057.934,173.813,1057.245,173.5,1056.393Zm4.235,1.607c-.89-.688-.762-1.18,0-1.64.276.64.276.64-.084,1.64Zm3.515-1c.466,1.64.466,1.64-.974,1.64-.275-.656-.783-1.394.889-1.64Zm-8.109,6.176-7.835-.409c-.127-1.165-.276-2.2-.423-3.459l8.956.426a2.7,2.7,0,0,1,.266,1.8A3.114,3.114,0,0,1,173.137,1063.176ZM178,1062v1.426q-.593.025-1.186,0c-1.714-.114-1.757-.2-1.609-1.639a9.979,9.979,0,0,0,0-1.64c2.457.082,2.6.2,2.71,1.853Zm-4.863,5.312c-.466,0-.932-.541-1.5-.918-.4.672-1.292.7-2.287.557s-2.308-.278-3.557-.426c-.191-.819-.381-1.64-.593-2.41a10.862,10.862,0,0,1,4.384,0,38.962,38.962,0,0,1,4.086.443l.741,1.442h.4c.125-.4.25-.8.363-1.165l.49-.326c2.767.2,2.872.347,2.11,3-1.587,0-1.587,0-2.434-.737A9,9,0,0,1,173.137,1067.312Zm1.863,3.013-2.837.1c.17-.885.318-1.738.508-2.738l2.329.262Zm1.454-2.325,1.546.393v2.116l-1.884-.1a10.163,10.163,0,0,1,.254-2.41Zm-8.632,2c-.932-.131-1.567-.426-1.483-1.3a8.223,8.223,0,0,0-.359-1.64l4.785.542a2.157,2.157,0,0,1,.148.507c-.212,2.132-.466,2.3-3.176,1.886Zm5.212,1.226c1.589.262,3.219.378,4.935.574,0,.984-.149,1.64-.212,2.492l-5.04-.935a12.8,12.8,0,0,1-5.717-.442v-2.3c2.583-.114,3.282.132,3.832,1.394a2.06,2.06,0,0,1,.917-.613,2.671,2.671,0,0,1,1.2-.125Zm1.139,5.774a1.156,1.156,0,0,1-.7,0,.777.777,0,0,1-.253-.19.57.57,0,0,1-.128-.253,7.107,7.107,0,0,1,.149-1.77l.466-.247c.359.23,1.015.46,1.015.689a4.873,4.873,0,0,1-.635,1.771Zm2.373-2c.826.968.826,1.066-.318,1.738a14.373,14.373,0,0,1,.233-1.738Zm-5.04,1.964-5.019-.361c0-.934.106-1.737.17-2.688l5.314.607a17.916,17.916,0,0,0-.55,2.425Zm2.307,2.951c0,.492-.4.869-1.376.476.234-.787.487-1.64.763-2.525,1.313.623.593,1.394.529,2.033Zm2.118-1.147c1.313.443.424,1.278.763,2.049-1.567-.361-1.567-.361-.911-2.066Zm.446,3.279c-.3.688-.637,1.458-1.017,2.294l-3.981-.671a13.241,13.241,0,0,1,.55-1.558c.128-.262.488-.639.678-.607a2.192,2.192,0,0,1,.974.542c.169.131.191.344.317.589.741-.114.953-1.376,2.33-.606Zm-3.431,3c-.466.868-.911,1.737-1.4,2.672l-1.693-.2c-.382-2.8.189-3.279,2.942-2.492Zm-1.419,6.557,1.61.525c-.4.771-.594,1.541-2.224,1.18a11.31,11.31,0,0,1,.466-1.721Zm-3.2,1.2a.771.771,0,0,1-.246-.267.578.578,0,0,1-.071-.323c0-.869.55-1.05,2.117-.705a9.7,9.7,0,0,1-.911,1.229,1.043,1.043,0,0,1-.508.155,1.091,1.091,0,0,1-.529-.1Zm-2.562,19.674c-.572.852-.932,1.131-1.864.737a44.371,44.371,0,0,0-4.235-1.524c-.656-.213-.551-.443-.317-.738Zm1.779-1.853c-1.038,1.148-1.716,1.18-3.706.2C164.879,1109.589,165.471,1109.556,167.547,1110.622Zm.453-2.886,1.313.328.339.2-1.06,1.2-3.069-.623c1.037-1.492,1.037-1.492,2.477-1.115Zm4.818-2.032-1.8,1.639-2.986-.934C169.092,1104.621,169.643,1104.539,172.818,1105.7Zm2.182-2.328-1.376,1.344-3.219-.886,1.1-1.491a7.178,7.178,0,0,1,3.494,1.016Zm1.906-3.049-1.313,1.918-1.864-.411c-.486-.131-.974-.311-1.44-.458,1.249-2.132,1.673-2.23,4.723-1.066Zm1.927-2.591-.911,1.508-1.779-.377-1.439-.361c.676-1.508,1.714-1.7,4.235-.787Zm1.926-3.279c-.466.738-.8,1.295-1.25,1.967l-3.112-.557,1.292-2.016Zm1.186-2.2-1,1.426c-.36-.966.36-1.213.592-1.639Zm1.958-4.965-3.2-.377q-1.051-.153-2.118-.214a5.869,5.869,0,0,0-1.588.312v.524c.593.279,1.439.787,1.821.64,1.545-.606,2.88,0,4.235.164-.233,1.376-.233,1.377-1.229,2.163-.889-.54,0-1.36-.55-1.967-1.355-.131-1.017,1-1.778,1.46h-2.118c-.55,0-1.207,0-1.059.623a1.336,1.336,0,0,0,.416.443,1.8,1.8,0,0,0,.622.262,10.7,10.7,0,0,0,1.927,0c-.128,1.278-.17,1.3-1.334,1.164l-3.473-.279c0,.951,0,.951,1.016,1.639-.169.328-.254.82-.592,1.033a2.708,2.708,0,0,0-1.066.938,1.945,1.945,0,0,0-.311,1.226c0,.3-.784.705-1.291.934a5.11,5.11,0,0,1-1.4.148c-.7.935.466.951.869,1.361l-.869,1.1-2.372-.3a4.074,4.074,0,0,0-.741.132,4.687,4.687,0,0,0,.128,1.3l1.884-.164a1.961,1.961,0,0,1-.366.918,2.617,2.617,0,0,1-.82.721c-.741-.147-1.694-.82-2.329,0s.571.967,1.249,1.41a2.172,2.172,0,0,1-2.329.983,2.041,2.041,0,0,0-.763,0,1.04,1.04,0,0,0-.441.153.708.708,0,0,0-.274.309.543.543,0,0,0-.025.374.986.986,0,0,0,.592.542c.3.1.614.164.954.262-.276.852-.848,1.114-1.97.8s-1.313-.279-1.546.852l1.673.393c-1.037,1.755-2.5.295-4.087.508a9.7,9.7,0,0,1,.8-1.327,58.329,58.329,0,0,0,3.939-4.328c1.567-2.115,2.879-4.313,4.234-6.558a8.037,8.037,0,0,0,.381-1.475,10.338,10.338,0,0,1,.932-1.821c.318-.492.847-.376,1.419,0,0,1.148-1.122,1.968-1.673,3.066l1.292.148a10.019,10.019,0,0,0,2.329-3.05,14.827,14.827,0,0,0,.53-3.278l-3.028-1.3-2.118.394c.233-.9.4-1.508.635-2.344l6.353,1.639c0-1.065,0-1.065-2.8-2.017l.848-2.639c.973-.148,1.291.2,1.143.9s-.677,1.328,0,2.049c1.482-.328,1-1.443,1.4-2.049a40.4,40.4,0,0,1,8.83-.279C184.411,1086.065,184.178,1086.655,183.9,1087.3Zm1.938-4.3c-.148.705-.254,1.312-.4,2.033l-1.716-.393c.128-.59.212-1.132.361-1.82Zm.318-1.049-1.715-.114c.317-1.378.317-1.378,2.117-1.41Zm-3.981.052c-.276,0-.762-.361-.72-.524,0-.7.8-.607,1.694-.492,0,.64-.043,1.131-1.016,1.016Zm-2.118-1-2.118.7,1.843,1.869c1.291.2.932-1.639,2.668-1.114-.106.508-.211,1.065-.317,1.639l-5.23.245c0-.2-.17-.376,0-.475a15.513,15.513,0,0,0,1.63-8.312,9.646,9.646,0,0,1,0-1.36c.381-2.263.783-4.525,1.207-6.772a2.15,2.15,0,0,1,.508-1.081c0,1.771,1.08,3.426.19,5.278a4.644,4.644,0,0,0,.149,2.919,1.811,1.811,0,0,1,.173.944,1.919,1.919,0,0,1-.342.917,2.568,2.568,0,0,1-.8.727,3.383,3.383,0,0,1-1.111.412c.594.279,1.038.377,1.229.606s.36.787.191.9c-.975.639-.784,1.295,0,1.95Zm4.044-9c.466,2.131.382,2.23-1.714,2.148-.339-1.64-.339-1.64,1.588-2.148Zm2.838,7-5.335.2a15.956,15.956,0,0,1,.189-1.639l5.23-.721c-.084.82-.147,1.426-.211,2.164Zm-4.826-2.232c-.741-1.64-.572-1.771,1.884-1.9v1.492Zm5.376-.768h-2.117a9.8,9.8,0,0,0,.381-4.558c0-.82,0-.82,1.652-.951-.085,1.836-.064,3.623-.042,5.509Zm-5.187-5.069c-.148-.721-.275-1.344-.423-2.033l2.116-.738a6.6,6.6,0,0,0,.255,1.18,7.2,7.2,0,0,1,0,.952Zm5.061-1.931c0,.886-.763.918-1.716,1a2.568,2.568,0,0,1-.08-1.413,2.916,2.916,0,0,1,.695-1.308l-1.8-.771-2.562,1.23a19.477,19.477,0,0,0-.19-2.033l5.082-1.443c.148,1.754.318,3.246.444,4.738Zm-.615-6-5.272,1.279a4.574,4.574,0,0,0-.19-1.64l1.673-.459.676,1.131c.276-.688.446-1.081.636-1.524l1.863-.3a8.777,8.777,0,0,0,.488,1.508Zm-5.907-2c-.424-.672.191-.984,1.08-1.2l.784,1.148c-.932.312-1.547.738-1.991.049Zm5.156-2.283v2.066l-2.118.262a1.018,1.018,0,0,1-.223-.507.929.929,0,0,1,.089-.531,1.211,1.211,0,0,1,.383-.447,1.669,1.669,0,0,1,.6-.269,10.954,10.954,0,0,0,1.122-.574l-2.605-.114c-.126-.574-.275-1.1-.4-1.64l1.545-.442,1.483,2.229Zm-2.277-5.18c-.254,2.262-.635,2.524-4.234,2.918-.233-.492-.466-1-.762-1.639q1.335-.282,2.625-.673A4.233,4.233,0,0,1,183.723,1053.537Zm-7.305.545a3.855,3.855,0,0,1,.212-1.082h1.017c.254-.7,0-1.722,1.609-1.836.212.376.466.8.784,1.393Zm6.755-2.082-1.821.606a4.387,4.387,0,0,1-.487-1.458c0-.361.571-.656,1.122-1.23.424.8.762,1.3,1.165,2.082Zm-1.566-2.349-1.526.558c-.423-.624-.847-1.213-1.227-1.787C180.653,1047.257,180.865,1047.356,181.607,1049.651ZM180.272,1047l-1.864.787-1.036-1.755,1.968-.95c.382.7.635,1.246.975,1.918Zm-1.313-4a1.588,1.588,0,0,1-1.524,1.426,4.069,4.069,0,0,1-1.483-.656c.763-1.147,1.8-.983,3.05-.77Zm-2.118-2-1.63,1.082-.4-.164a1.292,1.292,0,0,1,.169-.82,1.522,1.522,0,0,1,1.9-.1Zm-1.206-.874-1.334.656c-.763-.476-.763-.9,0-1.262S175.254,1039.585,175.635,1040.126Zm-12.947-10.919a61.362,61.362,0,0,1,10.079,7.641s.233.163.233.245v.918a2.217,2.217,0,0,1-1.165-.18c-.826-.787-1.5-1.639-2.265-2.492a1.717,1.717,0,0,0-1.99-.656,41.352,41.352,0,0,0,4.4,5.132l-2.436.918c-1.143-1.541-2.117-3.033-3.366-4.493a14.227,14.227,0,0,0-1.715-1.458c-1.122-.9-2.118-1.853-3.346-2.722a1.235,1.235,0,0,1-.548-.774,1.046,1.046,0,0,1,.231-.865l6.119,3.7a1.3,1.3,0,0,0-.074-1.077,1.864,1.864,0,0,0-.921-.809c-1.61-1.082-3.2-2.18-4.786-3.278l.317-.312A9.85,9.85,0,0,1,162.688,1029.207Zm-6.492-1.339a.9.9,0,0,1,.21.421.809.809,0,0,1-.043.45,1.007,1.007,0,0,1-.284.393,1.392,1.392,0,0,1-.475.261c-.169.983,1.5,1.639.889,2.656l-1.567.557c.614.656-.529.623-.55.8a2.818,2.818,0,0,0,.444,1.312c-1.1.951-1.524-1.033-2.731-.295l.72,1.36-.974.853L148.616,1035h-.106c-.487.541,0,.853.466,1.212s.233.722-.593.935c-.445-.508-.931-1.066-1.587-1.853l1.714-.294a.946.946,0,0,1,.409-.586,1.492,1.492,0,0,1,.8-.251c1.631-.147,2.52-1.213,3.748-1.836a1.362,1.362,0,0,0,.614-.934,13.2,13.2,0,0,0,.255-2.558,1.816,1.816,0,0,0-.635-1.032c-.912-.951-1.864-1.886-2.881-2.919a6.86,6.86,0,0,1,3.309.823A4.676,4.676,0,0,1,156.2,1027.868Zm-10.354-3.48c1.461.131,2.118,1.114,3.028,1.8a30.708,30.708,0,0,1,2.308,2.115,2.071,2.071,0,0,1-.3.279,7.792,7.792,0,0,1-3.663-1.951,7.964,7.964,0,0,0-3.156-2.427,16.238,16.238,0,0,1-1.609-1.033C144.4,1022.748,144.635,1024.273,145.842,1024.388ZM139.49,1021a.958.958,0,0,1,.338.44.76.76,0,0,1,0,.511,1.738,1.738,0,0,1-1.271.328c-.445-.033-.592-.344-.868-.558l-2.414-1.8c1.864.41,3.071.689,4.3,1.082Zm-65.43,87.327a16.854,16.854,0,0,1-2.668,3.279l-.36-.131a1.973,1.973,0,0,1,.17-.787c1.8-3.1,3.642-6.165,5.4-9.263.847-1.476,1.5-3,2.245-4.509a8.363,8.363,0,0,1,1-1.8c1.863-2.148,2.668-4.738,4.912-6.722a11.386,11.386,0,0,1,3.24-4.443c2.118-2.262,3.325-4.918,5.548-7.082,3.028-2.968,5.865-6.05,8.766-9.1a2.451,2.451,0,0,1,1.779-.951c.677.443.254.771,0,1.082-2.583,2.541-5.209,5.05-7.708,7.64a38.812,38.812,0,0,0-3.07,3.82c-.466.557-.995,1.049-1.482,1.639-2.414,2.738-4.235,5.705-6.543,8.541a62.464,62.464,0,0,0-5.739,8.952C77.681,1101.7,75.86,1105.015,74.06,1108.327Zm80.675-5.508a31.913,31.913,0,0,1-8.152,9.18c-.423.311-.868.573-1.313.869l-.444-.246c.36-.443.7-.9,1.079-1.328,1.7-1.984,3.537-3.9,5.083-5.935,2.011-2.656,3.769-5.426,5.7-8.2a20.561,20.561,0,0,0,2.731-5.016,18.567,18.567,0,0,1,2.117-3.722,4.5,4.5,0,0,0,1.355-3.558c1.208.131,1.123.771.912,1.262a19,19,0,0,1-1.673,2.9,8.4,8.4,0,0,0-1.7,4.378,4.055,4.055,0,0,1-.783,1.836C158.06,1097.769,156.3,1100.26,154.735,1102.819Zm-50.924-31.673c.487,1.246-.53,1.869-1.059,2.607-1.144,1.541-2.393,3.017-3.642,4.492s-2.774,2.918-4,4.459c-2.118,2.623-4.913,4.918-6.183,7.886a.582.582,0,0,1-.169.278c-2.647,1.8-2.986,4.542-4.574,6.771a1.183,1.183,0,0,1-.339.361h-.635a6.188,6.188,0,0,1,1.419-3.64c1.524-2.36,3.027-4.721,4.785-6.951s3.578-3.918,5.378-5.951c1.4-1.639,2.689-3.279,4.087-4.918s2.816-3.164,4.235-4.754C103.26,1071.621,103.451,1071.261,103.811,1071.146Zm.106,39.476a3.532,3.532,0,0,1,.508-.984c2.117-2.213,4.4-4.394,6.479-6.557s3.77-4.378,5.7-6.558c1.5-1.64,3.07-3.377,4.6-5.082.317-.361.614-.771.911-1.148l1.461-1.918.614.2a10.685,10.685,0,0,1-.889,2.083c-.657.934-1.526,1.77-2.267,2.672s-1.206,1.639-1.884,2.459-1.715,2.033-2.625,3.016-2.118,2.312-3.3,3.378a1.168,1.168,0,0,0-.348.328.9.9,0,0,0-.155.406.839.839,0,0,0,.064.421,1.009,1.009,0,0,0,.268.369c-1.99.3-2.668,1.558-3.62,2.591s-1.588,1.853-2.435,2.771a4.224,4.224,0,0,1-1.326,1.025A5.458,5.458,0,0,1,103.917,1110.622ZM101,1106.261c4.553-5.082,8.046-10.7,12.917-15.607l.338.114a.243.243,0,0,1,0,.131.479.479,0,0,1,0,.295,31.164,31.164,0,0,1-2.287,3.509c-3.409,4.065-6.352,8.394-10.587,11.984a2.351,2.351,0,0,1-.635.213,1.576,1.576,0,0,1,.254-.688Zm27.331-12.46c-.975,1.066-2.118,2.1-2.943,3.181-.488.574-.72,1.295-1.229,1.853a34.479,34.479,0,0,1-4.849,5.1c-1.884,1.426-3.324,3.115-5.1,4.574q-.606.444-1.271.836l-.424-.328c2.012-1.951,4.066-3.885,5.993-5.9s3.9-4.263,5.781-6.426c1.016-1.181,1.9-2.41,2.858-3.607a2.349,2.349,0,0,1,.635-.574.979.979,0,0,1,.7-.082c.127.082.466.427.424.606a1.918,1.918,0,0,1-.466.722Zm-4.489,21.477c-3.3,2.705-6.84,5.262-10.291,7.869a6.181,6.181,0,0,1-1.08.476c-.762-.542-1.037-.968-.233-1.46,1.186-.7,2.308-1.492,3.537-2.131a37.047,37.047,0,0,0,10.057-7.77c1.864-1.984,3.409-4.149,5.378-6.558-.317.753-.465,1.2-.677,1.639A24.877,24.877,0,0,1,123.842,1115.278Zm27.252-15.46a45.5,45.5,0,0,0,3.091-5.591,1.341,1.341,0,0,1,.59-.791,2.083,2.083,0,0,1,1.1-.323,11.029,11.029,0,0,1-.784,2.492c-.826,1.377-1.9,2.656-2.773,4-.656.984-1.059,2.066-1.757,3.016-1.229,1.64-2.6,3.279-3.96,4.919a6.862,6.862,0,0,1-1.038,1.082c-.508.409-1.08.787-1.609,1.18l-.339-.2a3,3,0,0,1,.36-.721C146.351,1105.851,148.87,1102.9,151.094,1099.818Zm-34.515,12.952c1.609-1.46,2.965-2.853,4.552-4.083a54,54,0,0,0,7.538-7.656c.339-.394.72-.771,1.1-1.147l.4.163a10.891,10.891,0,0,1-1.313,2.3,41.526,41.526,0,0,1-7.369,7.393,4.365,4.365,0,0,1-1.037.673,3.334,3.334,0,0,0-1.125.575,2.45,2.45,0,0,0-.717.884,1.436,1.436,0,0,1-.783.767A2.144,2.144,0,0,1,116.579,1112.77Zm24.8,8.508a3.549,3.549,0,0,0-.657.656,15.962,15.962,0,0,0-6.077,3.869c-1.017-.262-1.058-.819-.551-1.279a9.458,9.458,0,0,1,2.562-1.8,40.008,40.008,0,0,0,11.286-6.935c.234,1.017.234,1.1-.867,1.819C145.27,1118.819,143.343,1120.048,141.375,1121.278Zm-48.046-28.87c3.367-4,6.713-8.017,10.27-12.279a3.01,3.01,0,0,1-.127,1.262q-1.779,2.7-3.685,5.361c-.508.705-1.206,1.311-1.736,2-1.143,1.624-3.155,2.46-4.637,3.739Zm38.093,30.444,9.338-6.82c.361.427.149.836-.254,1.262-.677.738-1.333,1.509-1.99,2.246a1.907,1.907,0,0,1-.656.542A16.011,16.011,0,0,0,132.9,1123C132.46,1123.41,131.888,1123.639,131.422,1122.852ZM160.537,1078h-.444a8.46,8.46,0,0,1-.149-1.64,34.341,34.341,0,0,0,0-8.476s.149-.147.34-.311a1.656,1.656,0,0,1,1.355,1.9A29.2,29.2,0,0,1,160.537,1078Zm-9.211,15.424,1.207-2.689,3.24-7.213a1.8,1.8,0,0,1,.71.971,1.465,1.465,0,0,1-.138,1.111,41.616,41.616,0,0,1-3.875,7.263,1.417,1.417,0,0,1-.489.38A1.839,1.839,0,0,1,151.326,1093.424ZM114.5,1111.278c1.229-1.05,2.521-2.066,3.769-3.1a2.245,2.245,0,0,1,.7-.541c.338-.131.952-.344,1.122-.229.529.36.148.721-.255,1.016l-1.418,1.049-7.157,5.377c-.4.3-.719.656-1.1.984l-.444-.295C111.306,1114.13,112.895,1112.688,114.5,1111.278Zm17.322,1.18c-1.1.77-1.652,2.049-3.6,2.41L140,1103.818a6.7,6.7,0,0,1-2.011,2.951c-.995.935-1.927,1.918-2.923,2.853A33.494,33.494,0,0,1,131.825,1112.458Zm-24.1,9.918c0-.245,0-.475.148-.557a64.855,64.855,0,0,0,9.105-5.984,1.68,1.68,0,0,0,.55-.115C116.77,1117.672,112.344,1120.655,107.728,1122.376Zm35-15.934a12.456,12.456,0,0,1-5.993,6.328A26.841,26.841,0,0,1,142.73,1106.442Zm13.615-14.969a39.726,39.726,0,0,1,2.562-6.984c1.037.181,1.207.541,1.017.984a23.054,23.054,0,0,1-1.038,2.263c-.381.737-.911,1.884-1.419,2.8A2.388,2.388,0,0,1,156.345,1091.473ZM145.758,1103a24.569,24.569,0,0,1,3.706-6.41c1.016,1.115.19,1.918-.191,2.59a9.17,9.17,0,0,1-3.494,3.82Zm16.29-2,3-4h.488a2.91,2.91,0,0,1,0,1.28c-.792,1.3-1.327,2.449-3.467,2.72Zm-56.67,20.54a10.155,10.155,0,0,1,5-3.18A15.5,15.5,0,0,1,105.378,1121.54Zm.211-6a6.314,6.314,0,0,1,3.452-2.672A8.435,8.435,0,0,1,105.589,1115.54Zm35.341-3.278.339.2-2.541,2.476C138.9,1113.786,138.9,1113.786,140.93,1112.262Zm-15.267-78.382-.318.082a1.71,1.71,0,0,0-.233-.59l.317-.082C125.515,1033.569,125.6,1033.683,125.663,1033.88ZM52.7,1134.787a.886.886,0,0,1,.3.082v.263l-1.038.672c-.127-.164-.36-.345-.317-.475a.567.567,0,0,1,.123-.26.794.794,0,0,1,.249-.2,1.038,1.038,0,0,1,.331-.1A1.091,1.091,0,0,1,52.7,1134.787Z" transform="translate(-1.622 -1017.217)" fill="#101a24" opacity="0.1"/>
</svg>
