<svg xmlns="http://www.w3.org/2000/svg" width="90.333" height="56.965" viewBox="0 0 90.333 56.965">
  <path id="ajo2" d="M191.473,1190.973a15.13,15.13,0,0,0-3.916,1.612,8.967,8.967,0,0,1-1.259.77,3.272,3.272,0,0,0-1.892,1.843,5.021,5.021,0,0,1-.443,1.254,1,1,0,0,0-.211.717,1.117,1.117,0,0,0,.372.685,14.38,14.38,0,0,1,1.007,1.17c.231.28.221.546-.262.7s-.353.287-.2.526a.509.509,0,0,1,0,.532c-.534.827-1.158,1.626-1.642,2.46a20.188,20.188,0,0,1-2.738,3.23c-.513.56-1.278,1-1.842,1.534-1.007.96-2.205,1.815-3.181,2.8-1.611,1.618-3.453,3.1-5.245,4.645a19.851,19.851,0,0,0-3.705,4.414c-.392.638-.856,1.255-1.288,1.871-.776,1.114-1.571,2.214-2.306,3.328-.5.75-.9,1.527-1.379,2.277-.574.89-1.178,1.766-1.792,2.642-.916,1.324-1.762,2.669-2.789,3.952a27.8,27.8,0,0,1-5.969,5.044,2.032,2.032,0,0,1-.7.308q-2.678.568-5.376,1.1a5.116,5.116,0,0,0-2.013.7c-1.007.7-2.074,1.4-3.091,2.144a3.962,3.962,0,0,1-1.832.7q-.778.115-1.571.168c-.453,0-.906-.063-1.359-.042a3.225,3.225,0,0,0-1.651.568,4.737,4.737,0,0,1-1.3.7,6.836,6.836,0,0,0-2.527,1.367,6.551,6.551,0,0,0-.856.987,3.355,3.355,0,0,0,2.014.119c.664-.217,1.58-.49,2.375-.749a10.959,10.959,0,0,1,3.081-.7,36.733,36.733,0,0,1,3.725.049,4.769,4.769,0,0,0,1.52-.119,13.407,13.407,0,0,0,2.265-.9,7.055,7.055,0,0,1,2.567-.868,17.284,17.284,0,0,1,2.879-.1c2.235.14,4.46.344,6.685.561a40.35,40.35,0,0,0,6.946.287c1.46-.1,2.92-.133,4.369-.238a24.2,24.2,0,0,0,4.229-.5,4.4,4.4,0,0,1,.926-.048c1.278,0,2.557,0,3.825-.071,1.45-.084,2.889-.28,4.339-.406a29.12,29.12,0,0,0,5.5-1.177c2.215-.631,4.389-1.324,6.574-2a21.184,21.184,0,0,0,2.416-.82c1.671-.749,3.342-1.5,4.933-2.312s3.473-1.436,4.64-2.614a.469.469,0,0,1,.192-.132,3.667,3.667,0,0,0,1.52-1.073,3.061,3.061,0,0,1,.352-.3,26.892,26.892,0,0,0,3.262-2.7,48.082,48.082,0,0,0,4.148-4.078,13.993,13.993,0,0,0,2.486-3.63c.272-.749.675-1.485,1.007-2.235a25.936,25.936,0,0,0,1.168-3.076,8.719,8.719,0,0,0,.181-4.5c-.2-.826-.242-1.675-.4-2.515-.1-.512-.353-1.009-.434-1.528a10.643,10.643,0,0,0-1.439-3.419c-.624-1.177-1.349-2.333-1.9-3.5a4.533,4.533,0,0,0-1.581-1.948,6.426,6.426,0,0,1-.775-.651,17.633,17.633,0,0,0-4.318-3.378,10.233,10.233,0,0,0-3.162-1.464.363.363,0,0,1-.119-.044.25.25,0,0,1-.082-.075c-.422-.645-1.379-.925-2.013-1.4a.969.969,0,0,0-.483-.175,13.906,13.906,0,0,0-2.759-.266,3.129,3.129,0,0,1-1.731-.371,17.56,17.56,0,0,0-4.359-1.479A3.865,3.865,0,0,0,191.473,1190.973Zm.08,1.135,1.007,1.191c-.846,0-1.007-.56-1.661-.7-.443.623.826.7.674,1.191-.452.2-.694-.1-1.006-.259a9.713,9.713,0,0,1-.826-.638Zm-2.22,7.89a1.441,1.441,0,0,0-.766-.659c-.493-.245-1.107-.427-1.228-.925a.188.188,0,0,0-.057-.083.3.3,0,0,0-.1-.057c-.715-.119-.9-.589-1.228-.932a1.493,1.493,0,0,1-.4-1.061,1.567,1.567,0,0,1,.5-1.041,5.426,5.426,0,0,0,.211.561.991.991,0,0,0,.312.385c.07.056.272,0,.423,0a.5.5,0,0,0-.051-.266l-.483-1.093a5.02,5.02,0,0,1,1.782-.848c-.231,0-.372-.126-.141-.245.484-.259,1.007-.491,1.48-.7.332.336.624.61.886.911a.662.662,0,0,1,.09.371,2.646,2.646,0,0,1-.533-.126q-.427-.255-.816-.539l-1.006.364c.936-.035,1.49.406,1.288,1.156l-1.006-.827c-.685-.042-.081.463-.463.589a7.433,7.433,0,0,0-.9.434c-.071.182-.141.379-.212.575a.953.953,0,0,1,.486.167.5.5,0,0,1,.219.344c.081.932,1.117,1.479,1.731,2.193a1.78,1.78,0,0,1,.323.442.887.887,0,0,0,.252.337,1.359,1.359,0,0,0,.424.238,1.778,1.778,0,0,0,.525.1,1.867,1.867,0,0,0,.54-.053,2.371,2.371,0,0,1-1.028-.316,1.364,1.364,0,0,1-.593-.664c.625.273,1.108.469,1.561.7.08.042,0,.182.06.287q.777.07,1.561.078c.544-.028,1.085-.077,1.62-.148l1.007,1.114-.876.147a1.058,1.058,0,0,0-1.147-.966c0,.364,0,.364.332.868-.221.134-.4.26-.634,0a5.018,5.018,0,0,0-1.279-.861v.756l-.554-.343a1.262,1.262,0,0,0-.321.21.428.428,0,0,1-.142.13.642.642,0,0,1-.208.074.767.767,0,0,1-.234,0,.7.7,0,0,1-.212-.068A2.182,2.182,0,0,1,189.333,1200Zm9.123-3.216a15.8,15.8,0,0,1-3.2,1.478,4.068,4.068,0,0,1-1.178.175,15.582,15.582,0,0,0,3.846-2.347,2.16,2.16,0,0,0-.665-.056,4.048,4.048,0,0,0-1.2.6,9.05,9.05,0,0,1-3.161,1.555,9.143,9.143,0,0,1-1.288.378c-.222.056-.5.106-.6-.2l3.08-1.247a.941.941,0,0,0,.242-.1c.463-.442.916-.89,1.48-1.443a3.045,3.045,0,0,0-.625.133c-.422.217-.825.448-1.227.7a12.015,12.015,0,0,1-2.6,1.086c-.322.1-.715.063-1.007.372s-.584-.147-.846-.33c1.923-1.093,4.279-1.7,5.819-3.181.715.246,1.551.421,1.944,1.051a1.385,1.385,0,0,0,.523.365l1.913,1-.705.462v-.581A2.057,2.057,0,0,0,198.456,1196.782Zm12.406,6.56a2.11,2.11,0,0,1-.07.658h-.121l-.322-.5c.181-.063.342-.133.513-.189l.644-.435c.524.568.524.568,0,.855l-.684-.42Zm-5.4,2.646,1.38.056c.12.393.221.7.332,1.121l-1.52-.161C205.607,1206.71,205.546,1206.4,205.466,1205.988Zm-.795.918c-.473-.2-.493-.266-.292-.995C204.731,1206.346,204.731,1206.346,204.671,1206.906Zm-6.544,4.842-1.218-.084,1.007.6a4.15,4.15,0,0,1-.151.7l-1.913-.547c.343.568,1.188.7,1.7,1.093a4.171,4.171,0,0,1-.181.876l-2.607-.96,1.409-3.125c.655.231,1.248.414,1.8.638S198.3,1211.433,198.127,1211.748Zm1.51.623-.906-.329a3.177,3.177,0,0,1,.131-.638C200,1211.481,200.121,1211.643,199.637,1212.371Zm-1.067.28c1.087.211,1.1.211.846.968l-1.007-.365A5.333,5.333,0,0,1,198.57,1212.651Zm-.57,1.15,1.007.3c-.1.259-.212.519-.332.827-.363-.12-.665-.217-1.007-.344a5.368,5.368,0,0,1,.332-.806Zm1-4.043c.99.084,1.09.14,1,.595v.911c-1.118-.574-1.118-.574-1-1.527Zm-.712.7c-.8-.176-.835-.288-.443-1.269l.806.2Zm-1.288-.421c-.372.035-.584-.035-.553-.259.13-1.268.271-2.537.422-3.9.6.224.474.491.494.7a6.77,6.77,0,0,0,0,1.289c.09.392-.323.7-.2,1.114A2.274,2.274,0,0,1,197,1210Zm2-1.044c.335-.371.758-.357,1-.483v.855a2.6,2.6,0,0,1-1-.414Zm0-.133c-.795-.14-1.007-.378-.725-1.037,1.037.266,1.047.287.725.995Zm0-1.864c1.007.287,1.007.3.654,1.142-.976-.224-.251-.847-.654-1.184Zm0,.582c-.795,0-.9-.1-.836-.547a3.825,3.825,0,0,1,.152-.742c.936.343,1.006.329.684,1.247Zm0-1.682c.554,0,.634.238.624.617-.523-.168-.835-.274-.624-.659Zm0,.19-.815-.26c.05-.21.09-.392.131-.582.825.134.825.134.684.8Zm1-1.4.1.771c-.655-.414-.655-.414-.1-.82Zm-1,.273a5.6,5.6,0,0,1-.584-.1,2.9,2.9,0,0,1-.322-.119,1.733,1.733,0,0,1,0-.322,2.819,2.819,0,0,1,.151-.393c.724.063.614.463.755.918ZM197,1206h-.2c0-.638.1-1.268.171-2.039a2.546,2.546,0,0,1,.03,1.99Zm.986-4h.232a4.749,4.749,0,0,1,.372,2.1c-.231-.105-.453-.154-.463-.217A17.08,17.08,0,0,1,197.986,1202Zm-.644,1c-.231-.112-.413-.147-.413-.2a3.227,3.227,0,0,1,.292-1.8,2.279,2.279,0,0,1,.111,2Zm1.812-.858a2.291,2.291,0,0,1,.393,1.758A2.155,2.155,0,0,1,199.154,1202.142Zm2.014-.393c.623-.14.906,0,1.006.428l-.624.217c.111.084.161.154.222.154a.932.932,0,0,1,.473.112.5.5,0,0,1,.251.3c.262.813.554,1.626.856,2.523l-1.1.14c-.342-1.3-.705-2.557-1.068-3.854Zm-5.457-2.41c.272.421.514.813.765,1.2l-.171.077-1.2-1.114Zm-3.711.112a3.43,3.43,0,0,1,1.089-.247,3.655,3.655,0,0,1,1.136.107,2.692,2.692,0,0,1-1.078.306,2.947,2.947,0,0,1-1.147-.138Zm9,1.625c-.141-.287-.363-.6.171-.952l.775,1.03c-.684.322-.765.287-.946-.049Zm3,.316c.523-.133.664.14.885.511-.473,0-.855.246-1.006-.154-.06-.07.02-.308.121-.308Zm-.688.75c-.433-.049-.453-.28-.493-.512C203.453,1201.665,203.453,1201.665,203.312,1202.142Zm4.026.777c-.623,0-.614-.315-.815-.469a1.366,1.366,0,0,0,.091.553l-1.782.134-.252-.7c.514,0,.917-.252,1.339.07.081.063.393,0,.6-.049l.372-.133Zm.5-.5a1.207,1.207,0,0,1,.674.533c-.463-.113-.463-.113-.623-.505Zm-2.527,1.751-.322-.56c1.551-.413,2.1-.294,2.4.483-.574.218-.513-.245-.856-.392a.792.792,0,0,1-.444.408,1.387,1.387,0,0,1-.723.09Zm-1.047-.173h-.392a2.5,2.5,0,0,1-.282-.5c.261-.169.453-.147.543.035A2.023,2.023,0,0,1,204.268,1204Zm-1.268-.807a2.7,2.7,0,0,1-.232-.6c.524.063.9.462.665.631a.676.676,0,0,1-.221.027.636.636,0,0,1-.212-.048Zm6,.273c.614.056.624.063.654.651-.7.028-.7.028-.654-.644Zm-4.974,1.163a.857.857,0,0,1,.321.16.524.524,0,0,1,.175.245.4.4,0,0,1-.01.274.553.553,0,0,1-.194.239,1.075,1.075,0,0,1-.278-.439A.849.849,0,0,1,204.026,1204.629Zm3.565,1.371c.835-.322,1.3-.182,1.539,1.009-1.137.182-1.318.07-1.57-1.009Zm2.425,1a6.856,6.856,0,0,0-.342-.743l.715-.133a1.793,1.793,0,0,1,.514,1.17c-.494.112-.836.091-.917-.294Zm-4.58-1.355a9.087,9.087,0,0,0-.1-.974l1.108-.07c.08.329.15.6.231.96Zm1.564-.626a1.016,1.016,0,0,1,.5-.035.783.783,0,0,1,.413.2c.373.322.4.351.272.813h-.795c-.131-.351-.262-.673-.393-1.016Zm2.251.626c-.14-.308-.281-.631-.423-.96,1.007-.119,1.4.147,1.38,1.058Zm2.749-1.184c.665.623.654.736-.141.876-.453-.673-.453-.673.141-.862Zm-1.833-1.086c-.594-.484-.322-.813.816-.995.342.56.342.56-.785,1.009Zm-.815-.9c0-.294,0-.518.08-.6a.884.884,0,0,1,1.118.063Zm-2.255-.778c-.866.232-1.007.2-1.389-.364l.836-.259c.231.245.412.434.583.637Zm1.772-.539c.269-.113.548-.213.835-.3,0,.19.121.407.061.428a2.294,2.294,0,0,1-.906.217c-.2,0-.191-.231.04-.329Zm-5.316-.806c-.09-.413-.916-.631-.372-1.128.725.484.845.743.4,1.142Zm1.007-1,1.48,1.275a.474.474,0,0,1,0,.119c-.211,0-.513.042-.614-.042a8.188,8.188,0,0,1-1.087-1.247Zm-2.376,1.226c-.11-.2-.2-.392-.362-.7.825.294.866.406.342.714Zm-4.2-.364c-.221.2-.463.294-.7.077s-.645-.666-1.007-1.03a1.452,1.452,0,0,1,.342-.14A3.834,3.834,0,0,1,197.986,1200.208ZM194.463,1199l1.308-.217a.689.689,0,0,1-.243.221,1.074,1.074,0,0,1-.359.122,1.243,1.243,0,0,1-.4,0,1.068,1.068,0,0,1-.358-.125Zm-5.638-2c-.171-.659,0-.988.725-1.191s1.379-.371,2.014-.582q.521-.192,1.006-.427c.433-.168.856-.35,1.3-.491a1.514,1.514,0,0,1,.715.043,26.852,26.852,0,0,1-5.809,2.648Zm-41.517,43.377a6.565,6.565,0,0,1,2.356-.4l-2.315.54Zm8.4,3.853-.392-.7,1.681-.449,2.305,1.03A8.648,8.648,0,0,1,155.7,1244.23Zm-5.547-1.331.685.448a.406.406,0,0,0-.07.1l-1.6-.169Zm-1.583.1-.574-.077v-.119l.584.063a.718.718,0,0,0-.06.133Zm20.157-5c.222.1.443.2.685.3-1.007.6-1.087.7-2.265-.252l.855-.378a5.553,5.553,0,0,0,.675.329Zm0-.4,1.007-.435,1.289.589C170.01,1238.387,169.657,1238.359,168.731,1237.6Zm-2.305.932c.433.147.835.343,1.258.525-.513.372-.513.372-1.772-.336C166.144,1238.639,166.345,1238.506,166.426,1238.534Zm-8.366,2.964c1.671-.82,1.671-.533,2.678.021l-1.641.56C158.725,1241.876,158.392,1241.694,158.06,1241.5Zm-.06.7c-.886.491-1.2.484-2.205-.084,1.047-.546,1.047-.546,2.205.1Zm4.9-1.457-1.469.539-.937-.518,1.249-.532Zm-.292-.7c1.007-.462,1.007-.462,2.014.175l-1.057.351Zm-.546,1.57a2.685,2.685,0,0,1,1.741-.484l1.369-.588.826.3v-.49l1.228-.372.685.372a36.2,36.2,0,0,1-5.3,1.912Zm2.288-2.144c1.007-.568,1.107-.561,2.013.077A1.3,1.3,0,0,1,164.352,1239.466Zm-.211-.75c-.715.441-.715.441-1.48.133l-1.661-.658v-.176l1.007-.392Zm-1.141.7-.866.322-2.2-.953,1.137-.371c.332.511,1.289.546,1.933.981Zm-1.779.518-1.49.5-1.792-.7,1.007-.631Zm-2.221.7c-1.52.574-1.077.7-2.668-.126a2.3,2.3,0,0,1,2.668.168Zm-3,.812-1.007.365-1.218-.553c.6-.631,1.138-.582,2.225.2Zm-3.2-.238,1.893.869c-.463.21-.786.371-1.118.505a.528.528,0,0,1-.362,0c-.826-.365-1.631-.743-2.446-1.121,0,0-.051-.077-.111-.175l1.46-.547Zm3.2,1.612c-.745,0-1.409.56-2.265.07,1.329-.595,1.651-.652,2.265-.056Zm-6-.862c-.443.329-.483.322-1.238-.294a1.2,1.2,0,0,1,.352-.064,1.283,1.283,0,0,1,.361.036,1.025,1.025,0,0,1,.311.131.7.7,0,0,1,.214.2Zm-1.343.245c-.583.084-.583.084-.755-.336Zm3.876.8-.855.378c-.393-.266-.745-.518-1.138-.777a1.843,1.843,0,0,1,2.023.4Zm2.275,1-1.369-.091c.846-.525.957-.525,1.4.091Zm11.739.1a27.341,27.341,0,0,1-5.7.343c1.147-.21,2.315-.385,3.433-.644a2.809,2.809,0,0,1,1.21-.118,2.416,2.416,0,0,1,1.085.391Zm3.02-.013-.413.042a.532.532,0,0,0,0-.126h.413a.234.234,0,0,1,.02.056Zm-3.191-.66a1.562,1.562,0,0,1,.484-.256,2.1,2.1,0,0,1,1.192-.027,1.659,1.659,0,0,1,.508.234,1.917,1.917,0,0,1-2.164.021Zm4.641.232c-.192.042-.464-.147-.776-.266a2.241,2.241,0,0,1,2.3-.176,3.382,3.382,0,0,1-1.5.414Zm11.416-4.905c-.574.617-.715.652-1.51.371l-.786-.315.474-.322c.13-.091.271-.175.462-.288Zm-.806-.876.745-.5.806.245.714.252C183.067,1238.576,183.067,1238.576,181.627,1237.875Zm2.373,1.619c-.584.483-.866.483-1.842,0,.735-.491.906-.491,1.842-.007Zm-5-.659c-.916.61-1.007.61-1.923.2.735-.63.957-.658,1.923-.21Zm.533.175,1.43.5c-.695.546-.947.7-2.215-.042Zm2.165.7.644.161.614.168c-1.007.526-1.007.6-2.013.133Zm-2.134.532c-1.118.6-1.118.6-2.074.071l.735-.554Zm1.436.5c-.483.154-.846.28-1.218.371a2.5,2.5,0,0,1-.423-.084c.715-.539.715-.539,1.641-.273Zm-3,.21c-.644.519-.644.519-1.54.119.624-.5.785-.518,1.54-.1Zm-3.5.077c-.916.7-1.057.7-2.527.182l1.48-.6Zm1.006.245.937.344c-.725.588-.9.6-2.074.175Zm-3.02.645c-.735.617-1.57.385-2.506.175a2.112,2.112,0,0,1,2.567-.161Zm2.155.441c-1.329.806-1.289.7-2.386.246.815-.33,1.51-.792,2.446-.232Zm-4.561.288c-.352.413-.352.413-1.892.063a2.469,2.469,0,0,1,1.953-.049Zm3.866.749c.846-.406,1.591-.805,2.386-1.128a11.359,11.359,0,0,1,1.641-.371,1.045,1.045,0,0,0-.061-.371c.313-.14.564-.414,1.118-.218l-.644.4a6.572,6.572,0,0,0,2.013-.329c.561-.194,1.14-.362,1.732-.505-1.208,1.065-6.292,2.922-8.125,2.536Zm12.594-1.828a22.593,22.593,0,0,1-3.373.742c.786-.357,1.571-.7,2.377-1.058.473-.168.654.127,1.056.33Zm.755-.336a7.5,7.5,0,0,1-2.154-.961c-.635.175-.161.442-.131.631-3.151,1.689-6.6,2.8-8.155,2.536a2.3,2.3,0,0,1,.343-.147,25.167,25.167,0,0,0,6.04-2.515c.544-.308,1.289-.434,1.661-.911a.384.384,0,0,1,.159-.1.556.556,0,0,1,.208-.024.492.492,0,0,1,.2.057.3.3,0,0,1,.122.121c.15.463.674.638,1.137.876a2.16,2.16,0,0,1,.634.448Zm3.3-2.474c.292-.2.413-.336.524-.336a2.8,2.8,0,0,1,1.509.6c-.885.449-1.177-.252-1.973-.252Zm3.836-.1c-.2.294-.423.455-1.007.308.4-.231.6-.392,1.067-.294Zm1.157-.491-.744.253c.291-.372.291-.372.805-.238Zm1.5-.812c-.674.5-.674.5-1.148.161.413-.126.635-.483,1.209-.147Zm1.631-.7c-.876.505-.876.505-1.4.112.664-.5.664-.5,1.459-.077Zm1.309-.7c-.574.428-.574.428-1.44.071.7-.512.7-.512,1.5-.056Zm1.581-.847c-.474.553-.635.574-1.642.2.544-.617,1.148-.161,1.7-.182Zm.805-.463-.282.267-1.118-.372a4.679,4.679,0,0,1,1.46.119Zm1.007-.7c-.524.386-.765.379-2.6-.077.121-.168.232-.322.343-.462Zm1.179-.708c-.812.673-.925.716-2.056.343l-.761-.243c.833-.086,1.48.38,2.18-.05-.381-.372-1.028-.236-1.511-.422a14.551,14.551,0,0,0-1.512-.379c-.154.215-.267.365-.359.515h-1.039l.79.584c-.37.442-1.152.429-1.747.748l.976.679a.8.8,0,0,1-1.035.129,8.709,8.709,0,0,0-.976-.278c-.488.679.81.421.81.89a.593.593,0,0,1-.849.122,9.151,9.151,0,0,0-.976-.353c-.264.353-.264.353.654.843-.283.5-.635.435-1.1.2s-.976-.428-1.415-.638a.394.394,0,0,0-.108.184.328.328,0,0,0,.014.2.451.451,0,0,0,.131.176.691.691,0,0,0,.226.121c.342.163.7.306,1.064.455-.449.558-.575.585-1.259.218a2.665,2.665,0,0,0-.479-.279,2.374,2.374,0,0,0-.546,0c0,.136,0,.306.117.388a9.854,9.854,0,0,0,.976.53c-.156.088-.273.169-.4.251l-1.748-.931a.45.45,0,0,0-.156.187.315.315,0,0,0-.013.216.413.413,0,0,0,.134.2.688.688,0,0,0,.25.128c.313.15.655.279,1.094.456l-.732.448c-.674-.231-1.25-.469-1.231-1.128a3.119,3.119,0,0,0-.781.306.957.957,0,0,1-.321.266,1.43,1.43,0,0,1-.452.148,1.643,1.643,0,0,1-.5,0,1.445,1.445,0,0,1-.455-.145c.107.313.186.517.244.68a4.438,4.438,0,0,1,2.158.91.548.548,0,0,1-.713.048c-.478-.326-.976-.638-1.445-.958h-.314c-.233-.044-.507-.175-.638.081s.172.27.375.38c.516.285,1.012.606,1.468.9-.192.358-.445.35-.77.19-.617-.315-1.235-.614-1.863-.907a6.763,6.763,0,0,0-.74-.241c-.283.461.132.6.467.731.546.241,1.124.461,1.9.731l-1.276.373a5.831,5.831,0,0,1-2.279-1.645c.72-.4,1.479-.8,2.208-1.221a10.781,10.781,0,0,0,1.094-.731c.253-.2.233-.211,0-.606a4.238,4.238,0,0,0-.4.249,13.708,13.708,0,0,1-3.362,1.951.994.994,0,0,1-.861,0c-.345-.146-.709-.263-1.094-.417a1.191,1.191,0,0,1,.511-.423,1.784,1.784,0,0,1,.745-.161,5.386,5.386,0,0,1,1.226.343l.1-.124-.86-.585c.151-.212.648-.394.212-.8l-1.134.578-1.61-.6c.709-.476,1.357-.922,2.025-1.367a.768.768,0,0,1,.4-.169.906.906,0,0,1,.458.059l1.479.614a1.638,1.638,0,0,1-1.8.336,1,1,0,0,0-.942,0,10.821,10.821,0,0,0,1.844.643c.587.095,1.013.593,1.8.359-.234-.417-.892-.278-1.176-.585.426-.271.811-.577,1.449-.241a.559.559,0,0,0,.739-.169l-.678-.343a15.142,15.142,0,0,1,2.025-1.842c.264-.139.618-.351.365-.731a1.778,1.778,0,0,0-.557.2,9.19,9.19,0,0,0-1.935,1.542c-.354.512-.668.563-1.347.285-.375-.146-.729-.314-1.114-.49.709-.533,1.347-.986,1.945-1.462.192-.16.516-.4-.061-.635-.587.453-1.165.928-1.772,1.366-1.094.775-2.2,1.543-3.323,2.288a2.927,2.927,0,0,1-.719.249,3.051,3.051,0,0,1-.455.533c-.406.286-.841.549-1.277.8-.617.373-.617.373-1.438-.073a6.054,6.054,0,0,0,1.013-.606c.223-.205.78-.388.314-.826-.415.285-.78.555-1.175.8s-.5.432-.952.366a.388.388,0,0,0-.118.024.286.286,0,0,0-.095.056c-.07.541-.85.519-1.154.848l-1.084-.314c.324.833,1.459.68,2.026,1.111-.172.336-.669.373-1.013.555a15.761,15.761,0,0,0-2.35-.6c.345.519,1.145.556,1.7.9a.55.55,0,0,1-.179.195.83.83,0,0,1-.277.122,1.024,1.024,0,0,1-.322.024.932.932,0,0,1-.306-.078,6.667,6.667,0,0,1-.891-.358,1.324,1.324,0,0,0-.7-.132,1.177,1.177,0,0,0-.644.242,1.974,1.974,0,0,1-.5.292c-1.569.614-3.119,1.235-4.709,1.82a24.9,24.9,0,0,1-5.287,1.338h-.273a6.091,6.091,0,0,1-1.793.321,6.634,6.634,0,0,1-1.722-.789l-.82-.431a1.74,1.74,0,0,1,2.025,0c.253.139.456.314.709.438s.426.161.415-.124a1.387,1.387,0,0,0-.253-.3c-.253-.19-.536-.35-.891-.57l1.651-.54.942.511c-.446.373-1.3.365-1.449.9a43.266,43.266,0,0,0,5.49-1.725c1.074-.416,2.127-.855,3.17-1.3a5.49,5.49,0,0,0,.739-.468,1.545,1.545,0,0,0-1.215.168.9.9,0,0,1-1.013-.256l2.289-.95c.385,0,.76.585,1.266.037l-.658-.41.77-.445,1.083.387-.567.453a3.749,3.749,0,0,0,.679-.044,22.34,22.34,0,0,0,4.416-2.024c.344-.227.749-.4,1.124-.6.1-.059.182-.146.354-.278a1.866,1.866,0,0,0-.544.056,1.487,1.487,0,0,0-.468.208c-1.1.519-2.219,1.016-3.292,1.564a2.07,2.07,0,0,1-1.935,0c.689-.373,1.347-.731,2.026-1.089s1.327-.731,2.026-1.141c.324-.2.324-.263.283-.657a1.968,1.968,0,0,0-1.094.438c-1.1.621-2.2,1.257-3.311,1.879a6.737,6.737,0,0,1-.709.285l-1.226-.644a12.279,12.279,0,0,1,3.028-1.915,14.814,14.814,0,0,0,3.353-1.82c.091-.08.233-.16.263-.263a.242.242,0,0,0,0-.155.319.319,0,0,0-.1-.137.559.559,0,0,0-.4,0,13.529,13.529,0,0,1-1.114.818c-1.428.8-2.887,1.579-4.356,2.347-1.012.541-2.1,1.045-3.149,1.571l-1.844-1.023c-.162.819.892.826,1.185,1.243-.688.387-.891.38-1.509,0a11.271,11.271,0,0,0-1.1-.512c-.071.4-.071.4,1.013,1.053a.534.534,0,0,1-.719.241c-.668-.278-1.3-.592-2.026-.928.9-.52,1.712-.995,2.542-1.462,1.013-.578,2.026-1.111,3.039-1.711a6.827,6.827,0,0,0,1.1-1,.32.32,0,0,0,.047-.165.317.317,0,0,0-.047-.164,54.87,54.87,0,0,1-7.8,4.385q-4.1,2-8.487,3.655l-.669-.329c.557-.219,1.013-.409,1.53-.607a10.132,10.132,0,0,0,1.185-.548c.385-.2.962-.489,1.428-.731a5.2,5.2,0,0,0,.6-.46l-.121-.117a2.2,2.2,0,0,0-.456.1c-1.246.563-2.431,1.214-3.737,1.682-1.641.6-3.373,1.059-5.064,1.564a5.855,5.855,0,0,1-.74.065c-.628.1-1.246.22-2.025.351.577.6,1.245.264,1.843.307v.453l-2.279.359a10.43,10.43,0,0,1-1.165.892c-.668.372-1.4.679-2.106,1.016-.1.051-.253.08-.3.146-.729.847-2.026.775-3.1.855a27.011,27.011,0,0,1-3.17-.132l5.286-.358c-.111-.431-.435-.387-.8-.358-1.458.109-2.927.2-4.385.307a7.642,7.642,0,0,0-.821.146c.163.125.213.19.294.212a4.4,4.4,0,0,0,.446.044,6.763,6.763,0,0,0-1.165.044,8.883,8.883,0,0,0-1.317.438,4.5,4.5,0,0,1-1.742.549q.25-.186.527-.351c.942-.483,1.894-.965,2.856-1.462a1.8,1.8,0,0,1,.679-.183,7.809,7.809,0,0,1,2.6.117c.587.183,1.083-.1,1.63-.124a.236.236,0,0,0,.077-.022.16.16,0,0,0,.055-.044c.263-.687,1.114-1.023,1.742-1.462a21.7,21.7,0,0,1,2.026-1.374,11.454,11.454,0,0,1,1.357-.556l.77.308a9.023,9.023,0,0,0,1.458-.439,12.894,12.894,0,0,1,2.806-.672q1.417-.345,2.775-.8a13.037,13.037,0,0,0,1.61-.782,14.821,14.821,0,0,0,1.661-.87c1.013-.731,2.026-1.527,3.039-2.28a.432.432,0,0,0-.659-.073c-.689.424-1.377.848-2.025,1.294s-1.155.818-1.722,1.235l-.172-.095a3.835,3.835,0,0,1,.364-.4c.537-.409,1.094-.811,1.631-1.213a14.858,14.858,0,0,0,2.785-3,24,24,0,0,0,1.752-2.478c.871-1.418,1.641-2.873,2.522-4.291.78-1.25,1.651-2.471,2.482-3.706.5-.73.952-1.461,1.478-2.192a35.085,35.085,0,0,1,2.411-3.209c1.539-1.7,3.271-3.3,4.811-5,1.418-1.572,3.038-3.011,4.557-4.561s2.806-2.924,4.143-4.386c.709-.8,1.306-1.644,1.924-2.478.527-.731,1.013-1.4,1.509-2.112.172-.256.314-.527.476-.8.375.044.466.19.325.387l-1.915,2.588-.223.3-1.438,2.062c-.506.731-1.013,1.462-1.529,2.193a14.941,14.941,0,0,1-1.388,1.666c-.82.841-1.519,1.747-2.279,2.646a.7.7,0,0,0,.25.085.768.768,0,0,0,.275-.008.63.63,0,0,0,.239-.1.427.427,0,0,0,.148-.168c.709-.921,1.823-1.681,2.2-2.741a.5.5,0,0,1,.172-.241,8.592,8.592,0,0,0,2.025-2.1,18.8,18.8,0,0,0,1.408-2c.831-1.243,1.621-2.485,2.441-3.728,0-.073.162-.117.415-.285-.465,1.652-1.8,2.851-2.552,4.232s-1.6,2.719-2.441,4.13a1.034,1.034,0,0,0,.425-.051,2.5,2.5,0,0,0,.9-.77,1.667,1.667,0,0,0,.312-.984.6.6,0,0,1,.051-.359.808.808,0,0,1,.263-.306,6.386,6.386,0,0,0,1.925-2.61c.192-.416.607-.8.475-1.279a.106.106,0,0,1,0-.066l1.277-1.279c.07.088.242.2.212.27a2.69,2.69,0,0,1-.557,1.141,1.8,1.8,0,0,0-.385.636,17.586,17.586,0,0,1-1.185,2.127q-1.68,2.7-3.5,5.372c-.578.826-1.256,1.608-1.894,2.413l-2.167,2.77a2.67,2.67,0,0,0,1.408-.9,32.9,32.9,0,0,0,3.038-3.882c.8-1.323,1.8-2.587,2.7-3.881.182-.263.294-.548.466-.811s.314-.424.476-.644c.952.314,1.205.987,1.864,1.462-.092.242-.193.49-.325.812l-1.762-1.14-.152.065a.949.949,0,0,0,.183.366c.263.219.6.4.86.621.679.563.689.731.132,1.425-.678-.351-.678-.351-.618-.965l-1.276.03c.658.416.324.789,0,1.191-.233.292-.4.607-.648,1,.891-.234,1.246.241,1.671.57.689.526,1.327,1.089,1.955,1.652a5.212,5.212,0,0,1,.547.694c.172.212,0,.322-.223.5l-3.4-2.514-.142.051c0,.066,0,.168.051.205.749.453.658.965.141,1.549l-.718-.438c-.173.387.344.482.475.8l-.334.555c-.122.183-.233.366-.354.556l-.658-.117c.7.8,0,1.345-.456,1.981l-.851-.542a2.006,2.006,0,0,0,.759,1.082,25.01,25.01,0,0,0,2.188,2.032.682.682,0,0,1,.331.49.607.607,0,0,1-.23.519l-.293.329a26.221,26.221,0,0,1-3.2-2.529l-.658,1.074.75-.38a.752.752,0,0,1,.181.059l2.239,2.244c.273.27.112.46-.3.68l-2.714-2.252-.162.088a32.119,32.119,0,0,0,2.521,2.858l-.455.358L181.031,1219c.07.614.749.936,1.144,1.382s.942.9,1.408,1.33a64.155,64.155,0,0,1-16.023,14.356,4.058,4.058,0,0,0,.7-.227q1.055-.542,2.026-1.162a39.867,39.867,0,0,0,3.362-2.368c1.216-.965,2.34-1.988,3.474-3.012s2.127-1.893,3.1-2.923,2.025-2.266,3.038-3.4c.567-.629,1.175-1.236,1.691-1.879s.821-1.162,1.226-1.739c.577-.856,1.215-1.682,1.722-2.559s.79-1.666,1.185-2.5c.6-1.242,1.255-2.463,1.782-3.72.638-1.513,1.215-3.048,1.722-4.591a18.627,18.627,0,0,0,.628-2.923c.121-.782.1-1.579.162-2.508l.577.388c-.05-.293-.091-.5-.142-.731l.882-.2c.1.731.212,1.353.263,2a14.653,14.653,0,0,1-.517,3.3c-.2,1.192-.557,2.361-.83,3.552,0,.2-.213.431.121.644a2.6,2.6,0,0,0,.7-1.4c.274-1.323.425-2.654.77-3.962a13.608,13.608,0,0,0,.243-3.5,2.943,2.943,0,0,1,.132-.65c.465,0,.425.19.425.358v3.562a2.558,2.558,0,0,0,.129.7,1.97,1.97,0,0,1-.11,1.372,2.836,2.836,0,0,0-.171,1.1c-.058.776-.086,1.558-.143,2.34,0,.239,0,.53-.6.471a1.811,1.811,0,0,1,.343.51,1.079,1.079,0,0,1-.162.471c-.61,1.391-1.153,2.8-1.9,4.175-.428.836-.714,1.691-1.086,2.526a31.238,31.238,0,0,1-1.695,2.91c-.114.2-.247.4-.419.662a1.4,1.4,0,0,0,.492-.211.869.869,0,0,0,.3-.345,16.487,16.487,0,0,0,2.19-3.825,14.717,14.717,0,0,1,1.009-2.028c.181-.345.381-.663.581-1.054a4.136,4.136,0,0,1,.5.166c.952.424,1.99.868,2.99,1.325.495.213.5.206.257.73a34.03,34.03,0,0,1-3.524-1.326c.172.378.162.378,1.505,1.034.553.265,1.133.517,1.734.789l-.124.6c-1.372-.252-2.276-1.08-3.714-1.153,1.057.5,2.085,1.021,3.161,1.5a.743.743,0,0,1,.258.129.449.449,0,0,1,.144.2.332.332,0,0,1,0,.22.449.449,0,0,1-.144.2l-2.239-.789a2.5,2.5,0,0,0,1.181.9c.143.072.324.106.477.172.476.219.476.232.171.742-.743-.311-1.486-.61-2.248-.921,0,.351.334.563,2.029,1.438a.671.671,0,0,1,0,.219,1.913,1.913,0,0,1-.19.192c-.734-.152-1.115-.663-2.019-.775a6.017,6.017,0,0,0,1.371,1.014c.457.245.447.251.143.762l-2.2-.994c.1.2.1.325.2.384.486.292.952.57,1.5.849.295.166.447.331.057.576l-1.057-.523-.172.126,1.01.868a2.52,2.52,0,0,1-.1.51l1.085-.2a1.32,1.32,0,0,1-.036-.984,1.823,1.823,0,0,1,.693-.859c0-.053.143-.106.133-.152-.2-.789.515-1.445.667-2.181a18.662,18.662,0,0,1,.562-1.929,1.341,1.341,0,0,1,.209-.47,7.181,7.181,0,0,0,.953-2.334,14.426,14.426,0,0,0,.533-2.041,16.255,16.255,0,0,0,.172-2.651c0-1.326-.115-2.7-.2-4.051a7.993,7.993,0,0,0-.2-1.325c.476,0,.523.219.561.384q.363,1.95.7,3.9a1.142,1.142,0,0,0,0,.185,12.185,12.185,0,0,1,.209,2.8.572.572,0,0,0,.089.366.881.881,0,0,0,.321.3,1.859,1.859,0,0,0,.181-1.4c-.1-1.193-.21-2.38-.324-3.566V1206h1.412a14.937,14.937,0,0,0,.866,3h.191c0-.805.051-1.239.081-1.779a5.974,5.974,0,0,1,.956,2.964c-.583.456-1.188-.238-1.872,0,.564.449,1.359.28,2.013.5.272,1.282.554,2.585.836,3.931l-1.007.063-.06.119.584.231V1216h-1.141c.082.544.781.286,1.028.537-.083.207-.154.436-.257.679.771.079.534-.443.894-.6l2.385.1c-.082.379-.154.715-.247,1.159l-2.508-.258c.309.4.761.365,1.121.415s.812.086,1.326.143c-.113.344-.206.637-.329.987l-1.429-.15c.257.451.843.287,1.131.494.2.486-.237.83-.638,1.23l-.7-.071a.452.452,0,0,0-.062.093l.771.4-.812,1.9-1.625-.258a6.01,6.01,0,0,0,2.612.873,6.889,6.889,0,0,1-1.388,3.084,17.319,17.319,0,0,1-3.085,3.42,9.454,9.454,0,0,0-1.243,1.588c1.028.408,2.477.3,3.454.973-.226.186-.443.344-.638.516Zm-14.961-21.04-3.423-2.3c.181-.273.362-.554.563-.841.876.273.776.7.534,1.289l.735-.3,2.1,1.724a1.772,1.772,0,0,1-.232.469A1.094,1.094,0,0,1,189.641,1212.2Zm-1.37-2.606c.192-.316.343-.575.5-.834a2.052,2.052,0,0,1,1.007,1,.675.675,0,0,0,.211.2c.181.133.5.245.533.385a2.028,2.028,0,0,1-.191.813Zm2.215-1.192c.785.4.8.421.483,1.072C190.124,1209.2,190.093,1209.148,190.486,1208.4Zm-.755.2c-.694-.372-.694-.372-.312-1.086C190.265,1207.81,189.761,1208.209,189.731,1208.595Zm1.208-1.836a1.414,1.414,0,0,1,.424.268.918.918,0,0,1,.242.361.712.712,0,0,1,.025.4.854.854,0,0,1-.2.374,1.372,1.372,0,0,1-.487-.242.847.847,0,0,1-.275-.371.625.625,0,0,1,0-.416A.829.829,0,0,1,190.939,1206.759Zm-.694.241c-.745-.042-.564-.532-1.007-.7q-.523-.25-1.007-.539l.685-.7c.594.266.261.7.473,1.009l.483-.217c.836.315.272.75.4,1.149Zm-2.115-2a3.527,3.527,0,0,1-.321.435c-.182-.211-.433-.379-.383-.477a4.463,4.463,0,0,1,1.147-1.71c.061.211.172.344.111.421a5.613,5.613,0,0,0-.523,1.331Zm1.249-1c.372.308.151.463-.131.617a4.271,4.271,0,0,0,.161-.617Zm1.772,1.645c.906.434.906.434.7.953C191.3,1206.346,190.869,1206.115,191.151,1205.645Zm-.715,0c-.343-.322-.1-.519,0-.848C190.778,1205.169,190.557,1205.344,190.436,1205.645Zm1.564-1.682c.926.323.513.813.463,1.262-.926-.281-.946-.358-.463-1.255Zm-1.242.491c-.513-.449,0-.785,0-1.212.413.441.413.469-.02,1.219Zm-1.007-.7c-.322-.518.171-.757.192-1.086l.312.063c-.181.329-.322.638-.534,1.051Zm-.855-.63c-.1-.14-.151-.183-.141-.211.131-.245.272-.49.473-.847.2.518-.182.735-.362,1.086Zm3.1-.568v.778c-.423-.287-.423-.287-.03-.75Zm-.97.189c.07-.329.131-.609.191-.946.413.561.393.652-.221.974Zm-.574-.744h-.241a3.261,3.261,0,0,1,.15-.7c.4.274.011.5.061.729Zm-4.772,13.055a.5.5,0,0,1-.231-.278.365.365,0,0,1,.06-.318c.151-.238.262-.483.483-.9.544.484,1.007.848,1.37,1.213a8.114,8.114,0,0,1,.6.616c.343.386,0,.7-.3,1.079Zm1.682,2.221c-.152.322-.3.637-.5,1.079l-2.929-2.1c.3-.217.523-.364.724-.526s.353-.3.554-.476A9.032,9.032,0,0,1,187.366,1217.276Zm.614-2.754c-.242-.14-.443-.3-.685-.434-.826-.456-1.289-.953-.383-1.7l1.722,1.4c.363.3.151.6-.05.981A5.658,5.658,0,0,1,187.98,1214.522Zm20.436-6.887c1.188,0,1.309.091,1.661,1.191l-4.037-.168c-.081-.393-.171-.75-.241-1.093a2.027,2.027,0,0,1,.619-.136,2.171,2.171,0,0,1,.645.052,1.792,1.792,0,0,1,.558.232,1.173,1.173,0,0,1,.372.37Zm1.822.251.624-.084.846,1.2H210.7C210.52,1208.545,210.389,1208.25,210.238,1207.886Zm2.013.114c-.423-.294-.362-.5,0-.7.131.274.131.274-.04.7Zm1.671,0c.222.7.222.7-.463.7-.13-.28-.372-.6.423-.7Zm-3.855,2.592-3.725-.176c-.06-.5-.131-.938-.2-1.478l4.258.182a1.052,1.052,0,0,1,.126.768A1.307,1.307,0,0,1,210.067,1210.592ZM212,1210v.61q-.282.01-.564,0c-.815-.049-.835-.084-.765-.7a3.909,3.909,0,0,0,0-.7c1.168.035,1.238.084,1.289.792Zm-1.933,2.561c-.222,0-.443-.231-.715-.393-.191.287-.614.3-1.087.238s-1.1-.119-1.691-.182c-.091-.35-.182-.7-.283-1.03a5.755,5.755,0,0,1,2.085,0c.644,0,1.288.127,1.942.19l.353.616h.191c.071-.2.141-.4.2-.581a.886.886,0,0,1,.2-.057c1.319.085,1.369.148,1.006,1.283-.754,0-.754,0-1.157-.315A4.774,4.774,0,0,1,210.067,1212.561Zm.933,1.086-1.349.041c.081-.378.151-.742.242-1.17l1.107.112Zm.265-.647.735.168v.9l-.9-.042a3.955,3.955,0,0,1,.121-1.03Zm-3.725,0c-.443-.056-.745-.182-.7-.554a3.165,3.165,0,0,0-.171-.7l2.275.231a.834.834,0,0,1,.071.217c-.1.911-.222.981-1.51.806Zm2.329,1.032c.755.112,1.53.161,2.346.245,0,.42-.071.7-.1,1.065l-2.4-.4a6.745,6.745,0,0,1-2.718-.19v-.981c1.228-.049,1.56.057,1.822.6a.987.987,0,0,1,.436-.262,1.4,1.4,0,0,1,.571-.053Zm.691,1.968a.612.612,0,0,1-.332,0,.361.361,0,0,1-.12-.081.241.241,0,0,1-.061-.108,2.774,2.774,0,0,1,.07-.757l.222-.1c.171.1.483.2.483.294a1.962,1.962,0,0,1-.3.757Zm1.128,0c.392.414.392.455-.151.743a5.447,5.447,0,0,1,.111-.743Zm-2.4.484-2.386-.154c0-.4.05-.743.08-1.149l2.527.259a6.969,6.969,0,0,0-.262,1.037Zm1.1,1.261c0,.211-.191.371-.655.2.111-.336.232-.7.363-1.078.624.266.282.595.252.868Zm1.006-.49c.625.189.2.546.363.876-.745-.155-.745-.155-.433-.883Zm.212,1.4c-.141.294-.3.624-.483.981l-1.893-.287a5.347,5.347,0,0,1,.262-.666c.061-.112.232-.273.322-.259a1.075,1.075,0,0,1,.463.231c.081.056.091.147.151.252.352-.049.453-.588,1.108-.259Zm-1.631,1.283c-.221.371-.433.742-.664,1.141l-.8-.084c-.182-1.2.09-1.4,1.4-1.065Zm-.674,2.8.765.224c-.192.33-.282.659-1.057.505a4.4,4.4,0,0,1,.221-.736Zm-1.521.511a.342.342,0,0,1-.116-.114.222.222,0,0,1-.034-.138c0-.371.262-.448,1.007-.3a4.151,4.151,0,0,1-.434.525.515.515,0,0,1-.241.066.569.569,0,0,1-.252-.044Zm-1.218,8.409c-.272.364-.443.483-.886.315-.651-.246-1.324-.463-2.013-.652-.312-.091-.262-.189-.151-.315Zm.846-.792c-.493.49-.816.5-1.762.084C206.141,1230.427,206.422,1230.413,207.409,1230.869Zm.591-1.234.624.141.161.084-.5.511-1.46-.266c.494-.638.494-.638,1.178-.476Zm1.916-.868-.856.7-1.42-.4C208.144,1228.3,208.406,1228.269,209.916,1228.767Zm1.084-.995-.654.574-1.531-.378.524-.638a3.71,3.71,0,0,1,1.661.435Zm.859-1.3-.624.819-.886-.175c-.232-.056-.463-.133-.685-.2.594-.911.8-.953,2.245-.455Zm.916-1.108-.433.645-.846-.161-.684-.154c.322-.645.815-.729,2.013-.337Zm.916-1.4c-.221.316-.382.554-.594.841l-1.48-.238.614-.862Zm.564-.939-.473.61c-.171-.413.171-.519.281-.7Zm1.027-2.177-1.52-.161q-.5-.066-1.007-.091a3.031,3.031,0,0,0-.755.133v.224c.282.119.684.336.866.273a4.133,4.133,0,0,1,2.013.07c-.11.589-.11.589-.584.925-.423-.231,0-.581-.262-.841-.644-.056-.483.428-.845.624h-1.007c-.261,0-.574,0-.5.266a.581.581,0,0,0,.2.189.868.868,0,0,0,.295.112,5.6,5.6,0,0,0,.916,0c-.06.547-.08.554-.634.5l-1.651-.119c0,.406,0,.406.483.7-.08.141-.121.351-.282.442a1.244,1.244,0,0,0-.506.4.767.767,0,0,0-.148.524c0,.126-.373.3-.614.4a2.722,2.722,0,0,1-.665.063c-.332.4.222.407.413.582l-.413.469-1.127-.126a2.148,2.148,0,0,0-.352.056,1.837,1.837,0,0,0,.06.554l.9-.07a.793.793,0,0,1-.174.392,1.2,1.2,0,0,1-.39.308c-.352-.063-.805-.35-1.107,0s.272.413.594.6a1.085,1.085,0,0,1-1.108.42,1.048,1.048,0,0,0-.362,0,.524.524,0,0,0-.21.065.321.321,0,0,0-.13.132.212.212,0,0,0-.012.16.283.283,0,0,0,.11.141.328.328,0,0,0,.171.091c.142.042.292.07.454.112-.131.364-.4.476-.937.343s-.624-.119-.735.365l.8.168c-.494.749-1.188.126-1.943.217a4.087,4.087,0,0,1,.382-.568,26.227,26.227,0,0,0,1.873-1.849c.745-.9,1.369-1.843,2.013-2.8a3.142,3.142,0,0,0,.181-.631,4.274,4.274,0,0,1,.443-.778c.151-.21.4-.16.675,0,0,.491-.534.842-.795,1.311l.614.063a4.38,4.38,0,0,0,1.107-1.3,5.752,5.752,0,0,0,.252-1.4l-1.44-.553-1.006.168c.11-.385.19-.645.3-1l3.021.7c0-.456,0-.456-1.329-.862l.4-1.128c.463-.063.615.084.544.385s-.322.568,0,.876c.705-.14.473-.617.664-.876a21.4,21.4,0,0,1,4.2-.119C215.523,1220.318,215.413,1220.571,215.282,1220.844Zm.825-1.782c-.07.3-.121.561-.191.869l-.816-.168c.061-.252.1-.483.172-.777Zm.151-.448-.815-.049c.151-.589.151-.589,1.007-.6Zm-1.893-.614c-.131,0-.362-.154-.342-.224,0-.3.383-.259.806-.21,0,.273-.021.483-.484.434Zm-1.006,0-1.007.3.876.8c.614.084.443-.7,1.268-.476-.05.217-.1.455-.151.7l-2.486.1c0-.084-.081-.161,0-.2a6.051,6.051,0,0,0,.764-3.659l.011-.474q.271-1.451.574-2.9a.887.887,0,0,1,.241-.462c0,.757.514,1.464.091,2.256a1.79,1.79,0,0,0,.071,1.247.723.723,0,0,1,.082.4.778.778,0,0,1-.163.392,1.175,1.175,0,0,1-.378.311,1.717,1.717,0,0,1-.528.176,2.239,2.239,0,0,1,.584.259c.09.1.171.336.09.385-.463.274-.372.554,0,.834Zm1.922-4c.222.911.182.953-.815.918-.161-.7-.161-.7.755-.918Zm1.349,3-2.536.084a6.173,6.173,0,0,1,.09-.7l2.487-.308c-.041.351-.071.61-.1.925Zm-2.526-.6c-.352-.7-.272-.757.9-.813v.638Zm2.788-.4h-1.007a3.784,3.784,0,0,0,.182-1.948c0-.35,0-.35.785-.406-.04.784-.03,1.548-.02,2.354Zm-2.466-2.094c-.07-.309-.131-.575-.2-.869l1.006-.315a2.61,2.61,0,0,0,.121.5,2.752,2.752,0,0,1,0,.406Zm2.406-.906c0,.378-.363.392-.816.427a1,1,0,0,1-.038-.6,1.2,1.2,0,0,1,.331-.558l-.857-.33-1.218.526a7.581,7.581,0,0,0-.09-.869l2.416-.617c.07.75.151,1.387.211,2.025Zm-.292-2-2.507.546a1.771,1.771,0,0,0-.09-.7l.8-.2.322.484c.131-.294.212-.462.3-.652l.886-.126a3.408,3.408,0,0,0,.232.645Zm-2.809-1c-.2-.287.091-.42.514-.511l.372.49c-.443.133-.735.316-.946.021Zm2.269-1.314v.883l-1.007.112a.422.422,0,0,1-.106-.217.364.364,0,0,1,.042-.227.531.531,0,0,1,.182-.191.853.853,0,0,1,.285-.115,5.785,5.785,0,0,0,.534-.245l-1.239-.049c-.06-.245-.131-.47-.191-.7l.735-.189.705.953Zm-.9-2.214c-.121.967-.3,1.079-2.013,1.247-.111-.21-.221-.427-.362-.7q.634-.12,1.248-.287A2.183,2.183,0,0,1,215.1,1206.472Zm-3.473-.01a1.484,1.484,0,0,1,.1-.462h.483c.121-.3,0-.736.765-.785.1.161.222.343.373.6Zm3.211-.462-.865.259a1.749,1.749,0,0,1-.231-.623c0-.154.271-.281.533-.526.2.343.362.554.554.89Zm-.744-1.189-.725.238c-.2-.266-.4-.518-.584-.763C213.641,1203.788,213.741,1203.83,214.094,1204.811Zm-.635-.811-.886.336-.493-.75.936-.406c.182.3.3.533.464.82Zm-.624-2a.727.727,0,0,1-.725.61,2.055,2.055,0,0,1-.7-.281c.362-.49.856-.42,1.449-.329Zm-1.007-1-.775.462-.191-.07a.5.5,0,0,1,.081-.35.786.786,0,0,1,.906-.042Zm-.573-.26-.635.28c-.362-.2-.362-.385,0-.539S211.074,1200.509,211.255,1200.74Zm-6.158-4.666a29.156,29.156,0,0,1,4.792,3.265s.111.07.111.1v.392a1.172,1.172,0,0,1-.554-.076c-.393-.337-.715-.7-1.077-1.066a.864.864,0,0,0-.946-.28,18.322,18.322,0,0,0,2.094,2.193l-1.158.393c-.544-.659-1.007-1.3-1.6-1.92a6.535,6.535,0,0,0-.815-.624c-.534-.385-1.007-.791-1.591-1.163a.536.536,0,0,1-.261-.331.421.421,0,0,1,.11-.37l2.91,1.584a.5.5,0,0,0-.035-.46.87.87,0,0,0-.438-.346c-.766-.462-1.52-.932-2.276-1.4l.151-.133A4.822,4.822,0,0,1,205.1,1196.074Zm-3.084-.122a.373.373,0,0,1,.1.18.311.311,0,0,1-.021.192.426.426,0,0,1-.135.168.712.712,0,0,1-.226.112c-.08.42.715.7.423,1.135l-.745.238c.292.28-.252.266-.262.343a1.128,1.128,0,0,0,.212.561c-.524.406-.725-.442-1.3-.126l.342.581-.463.364-1.53-.7h-.05c-.232.231,0,.364.221.518s.111.308-.282.4c-.211-.218-.442-.456-.755-.792l.816-.126a.407.407,0,0,1,.194-.251.77.77,0,0,1,.38-.107,4.847,4.847,0,0,0,1.781-.784.584.584,0,0,0,.292-.4,5.05,5.05,0,0,0,.121-1.093.767.767,0,0,0-.3-.441c-.433-.406-.886-.806-1.369-1.247a3.558,3.558,0,0,1,1.573.351A2.11,2.11,0,0,1,202.013,1195.952Zm-4.923-1.938c.7.056,1.007.476,1.44.771a14.211,14.211,0,0,1,1.1.9.983.983,0,0,1-.141.119,3.839,3.839,0,0,1-1.741-.834,3.76,3.76,0,0,0-1.5-1.037,8.078,8.078,0,0,1-.764-.441C196.406,1193.313,196.516,1193.965,197.09,1194.014ZM194.07,1193a.419.419,0,0,1,.161.187.3.3,0,0,1,0,.219.9.9,0,0,1-.6.14c-.211-.014-.282-.147-.412-.238l-1.148-.771c.886.175,1.46.294,2.043.463Zm-31.107,36.887a7.409,7.409,0,0,1-1.269,1.4l-.171-.056a.776.776,0,0,1,.081-.336c.855-1.325,1.731-2.635,2.567-3.959.4-.631.715-1.282,1.067-1.927a3.488,3.488,0,0,1,.473-.771c.886-.917,1.269-2.024,2.336-2.872a4.908,4.908,0,0,1,1.54-1.9c1.007-.967,1.58-2.1,2.638-3.027,1.439-1.268,2.788-2.585,4.167-3.888a1.2,1.2,0,0,1,.846-.407c.322.189.121.329,0,.463-1.228,1.085-2.477,2.158-3.664,3.264a17.042,17.042,0,0,0-1.46,1.633c-.222.238-.473.449-.705.7-1.148,1.17-2.013,2.438-3.111,3.65a26.5,26.5,0,0,0-2.728,3.826C164.684,1227.057,163.819,1228.473,162.963,1229.888Zm38.355-2.354a14.225,14.225,0,0,1-3.875,3.923c-.2.133-.413.245-.625.372l-.211-.1c.171-.19.333-.386.513-.568.806-.848,1.682-1.668,2.417-2.536.956-1.136,1.792-2.32,2.708-3.5a8.555,8.555,0,0,0,1.3-2.144,7.717,7.717,0,0,1,1.007-1.59,1.82,1.82,0,0,0,.644-1.521c.574.056.534.33.433.54a7.9,7.9,0,0,1-.795,1.24,3.38,3.38,0,0,0-.806,1.871,1.647,1.647,0,0,1-.372.784C202.9,1225.376,202.063,1226.44,201.318,1227.534Zm-24.211-14.011c.232.533-.252.8-.5,1.114-.544.659-1.138,1.29-1.732,1.92s-1.319,1.247-1.9,1.906c-1.006,1.121-2.335,2.1-2.939,3.37a.239.239,0,0,1-.081.119c-1.258.771-1.419,1.941-2.174,2.894a.539.539,0,0,1-.161.154h-.3a2.5,2.5,0,0,1,.674-1.556c.725-1.008,1.44-2.017,2.275-2.97s1.7-1.675,2.558-2.543c.664-.7,1.278-1.4,1.942-2.1s1.339-1.352,2.014-2.031A.767.767,0,0,1,177.107,1213.523Zm.05,17.346a1.481,1.481,0,0,1,.242-.421c1.007-.946,2.094-1.878,3.081-2.8s1.792-1.871,2.708-2.8c.714-.7,1.459-1.443,2.184-2.172.151-.154.292-.33.433-.49l.7-.82.292.084a4.326,4.326,0,0,1-.423.89c-.312.4-.725.756-1.078,1.142s-.573.7-.9,1.051-.816.869-1.248,1.289-1.007.988-1.571,1.443a.559.559,0,0,0-.165.14.365.365,0,0,0-.074.174.333.333,0,0,0,.03.18.452.452,0,0,0,.128.158,2.7,2.7,0,0,0-1.721,1.107c-.453.441-.755.792-1.158,1.184a2,2,0,0,1-.63.439A2.849,2.849,0,0,1,177.157,1230.869ZM176,1229.005c2.164-2.172,3.826-4.575,6.141-6.67l.161.049a.106.106,0,0,1,0,.056.182.182,0,0,1,0,.126,13.36,13.36,0,0,1-1.087,1.5,40.689,40.689,0,0,1-5.034,5.122,1.215,1.215,0,0,1-.3.091.637.637,0,0,1,.121-.294Zm12.765-5.325c-.464.455-1.007.9-1.4,1.359-.232.246-.343.554-.585.792a15.482,15.482,0,0,1-2.305,2.179c-.9.61-1.58,1.331-2.426,1.955a6.976,6.976,0,0,1-.6.357l-.2-.14c.956-.834,1.933-1.661,2.849-2.523s1.852-1.821,2.748-2.746c.483-.505.906-1.03,1.359-1.541a1.088,1.088,0,0,1,.3-.245.507.507,0,0,1,.332-.036c.061.036.222.183.2.26a.825.825,0,0,1-.222.308Zm-2.134,9.178c-1.571,1.157-3.252,2.25-4.893,3.364a3.2,3.2,0,0,1-.513.2c-.363-.232-.494-.414-.111-.624.563-.3,1.1-.637,1.681-.911a17.472,17.472,0,0,0,4.782-3.321c.886-.847,1.621-1.772,2.557-2.8-.151.322-.221.511-.322.7A10.991,10.991,0,0,1,186.631,1232.858Zm12.956-6.607a19.014,19.014,0,0,0,1.47-2.389.581.581,0,0,1,.28-.338,1.065,1.065,0,0,1,.525-.138,4.359,4.359,0,0,1-.373,1.065c-.392.588-.9,1.135-1.318,1.709-.312.421-.5.883-.836,1.289-.584.7-1.238,1.4-1.882,2.1a3.089,3.089,0,0,1-.494.463c-.241.175-.513.336-.764.5l-.162-.084a1.252,1.252,0,0,1,.171-.308C197.332,1228.83,198.53,1227.568,199.587,1226.251Zm-16.409,5.536c.764-.624,1.409-1.22,2.164-1.745a24.549,24.549,0,0,0,3.584-3.272c.161-.168.342-.33.523-.491l.192.07a4.556,4.556,0,0,1-.625.981,18.816,18.816,0,0,1-3.5,3.16,2.121,2.121,0,0,1-.493.288,1.677,1.677,0,0,0-.535.245,1.093,1.093,0,0,0-.341.378.651.651,0,0,1-.372.328A1.133,1.133,0,0,1,183.178,1231.787Zm11.788,3.636a1.656,1.656,0,0,0-.312.28,7.727,7.727,0,0,0-2.889,1.654c-.484-.112-.5-.35-.262-.547a4.517,4.517,0,0,1,1.218-.77,19.524,19.524,0,0,0,5.366-2.964c.111.434.111.469-.413.777C196.818,1234.372,195.9,1234.9,194.966,1235.423Zm-22.842-12.339c1.6-1.709,3.191-3.426,4.882-5.248a1.16,1.16,0,0,1-.06.54q-.846,1.156-1.752,2.291c-.241.3-.573.561-.825.855a11.571,11.571,0,0,1-2.205,1.6Zm18.111,13.012,4.439-2.915c.172.182.071.357-.121.539-.322.315-.634.645-.946.96a.9.9,0,0,1-.312.232,7.828,7.828,0,0,0-2.356,1.247C190.728,1236.334,190.456,1236.432,190.235,1236.1Zm13.842-19.1h-.211a3.252,3.252,0,0,1-.071-.7,13.233,13.233,0,0,0,0-3.622s.071-.063.161-.133a.713.713,0,0,1,.644.813A11.285,11.285,0,0,1,204.077,1217Zm-4.38,6.519.574-1.15,1.541-3.082a.779.779,0,0,1,.337.415.574.574,0,0,1-.065.475,17.275,17.275,0,0,1-1.843,3.1.679.679,0,0,1-.232.162A.979.979,0,0,1,199.7,1223.519Zm-17.506,7.63c.584-.449,1.2-.883,1.792-1.324a1.044,1.044,0,0,1,.332-.231c.161-.056.453-.148.534-.1.251.155.07.309-.121.435l-.674.448-3.4,2.3c-.192.126-.342.281-.524.421l-.211-.126C180.671,1232.368,181.426,1231.752,182.191,1231.149Zm8.235.5c-.524.33-.785.876-1.712,1.03l5.6-4.722a2.874,2.874,0,0,1-.956,1.261c-.474.4-.917.82-1.39,1.219A15.379,15.379,0,0,1,190.426,1231.653Zm-11.456,4.239c0-.1,0-.2.07-.238a31.406,31.406,0,0,0,4.329-2.557.877.877,0,0,0,.261-.049C183.268,1233.882,181.164,1235.157,178.97,1235.892Zm16.64-6.81a5.6,5.6,0,0,1-2.849,2.7A12.1,12.1,0,0,1,195.61,1229.082Zm6.474-6.4a15.861,15.861,0,0,1,1.218-2.985c.493.077.574.231.483.421a9.469,9.469,0,0,1-.493.967c-.182.315-.433.8-.675,1.2A1.118,1.118,0,0,1,202.084,1222.685ZM197.05,1228a10.312,10.312,0,0,1,1.762-2.74c.483.477.091.82-.091,1.108A4.106,4.106,0,0,1,197.06,1228Zm7.822-1,1.3-2h.211a.872.872,0,0,1,0,.46,4.24,4.24,0,0,1-1.5,1.54Zm-27.02,8.535a4.91,4.91,0,0,1,2.376-1.359A7.528,7.528,0,0,1,177.852,1235.535Zm.1-2.564a2.967,2.967,0,0,1,1.641-1.142A3.994,3.994,0,0,1,177.953,1232.971Zm16.8-1.4.161.084-1.208,1.058C193.788,1232.221,193.788,1232.221,194.755,1231.569Zm-7.259-33.5-.151.035a.693.693,0,0,0-.11-.252l.15-.035C187.426,1197.938,187.466,1197.987,187.5,1198.071ZM152.859,1241.2a.463.463,0,0,1,.141.036v.112l-.493.287c-.061-.07-.171-.147-.151-.2a.238.238,0,0,1,.058-.111.38.38,0,0,1,.119-.084.531.531,0,0,1,.157-.043A.6.6,0,0,1,152.859,1241.2Z" transform="translate(-128.523 -1190.95)" fill="#101a24" opacity="0.1"/>
</svg>
