<svg xmlns="http://www.w3.org/2000/svg" width="76.756" height="64.75" viewBox="0 0 76.756 64.75">
  <path id="ajo3" d="M304.38,1320.16a9.888,9.888,0,0,0-2.3-2.794,9.218,9.218,0,0,1-1.07-.873,3.528,3.528,0,0,0-1.08-.844,4.221,4.221,0,0,0-1.39-.429,10.106,10.106,0,0,1-1.63-.241,1.986,1.986,0,0,0-.935-.107,1.836,1.836,0,0,0-.855.332c-.46.291-1,.557-1.44.831s-.69.2-.92-.141-.376-.249-.651-.126a.92.92,0,0,1-.641.042c-1.118-.337-2.2-.757-3.328-1.064a27.366,27.366,0,0,1-4.3-1.8,22.777,22.777,0,0,1-2.08-1.256c-1.29-.682-2.46-1.505-3.78-2.162-2.16-1.073-4.18-2.354-6.25-3.543a27.1,27.1,0,0,0-5.88-2.437c-.84-.249-1.65-.549-2.48-.832-1.47-.49-2.92-1.006-4.4-1.472-1-.316-2-.557-3-.831-1.17-.358-2.33-.749-3.49-1.131-1.76-.6-3.53-1.131-5.23-1.8a30.464,30.464,0,0,1-6.83-4.058,1.457,1.457,0,0,1-.43-.5q-.881-1.947-1.73-3.909a3.107,3.107,0,0,0-1-1.422c-1-.707-1.95-1.439-2.94-2.137a2.566,2.566,0,0,1-1.01-1.281,6.859,6.859,0,0,1-.31-1.156V1282a2.019,2.019,0,0,0-.83-1.181,3.772,3.772,0,0,1-1-.906,5.35,5.35,0,0,0-1.92-1.83,8.594,8.594,0,0,0-1.31-.565c-.22.607-.35,1.023-.03,1.472s.72,1.139,1.1,1.705a5.4,5.4,0,0,1,1,2.237,15.2,15.2,0,0,1,.17,2.769,2.043,2.043,0,0,0,.22,1.148,8.486,8.486,0,0,0,1.32,1.613,4.2,4.2,0,0,1,1.27,1.846,7.052,7.052,0,0,1,.3,2.129c0,1.664-.17,3.327-.32,4.99a18.026,18.026,0,0,0,.05,5.181c.22,1.073.35,2.154.57,3.219a10.775,10.775,0,0,0,.89,3.1,1.908,1.908,0,0,1,.12.682c.12.956.12,1.9.33,2.836.2,1.064.54,2.12.78,3.185a14.745,14.745,0,0,0,1.84,4c.94,1.6,2,3.152,3,4.724a12.266,12.266,0,0,0,1.17,1.746c1.06,1.19,2.12,2.379,3.26,3.493s2.08,2.5,3.7,3.252a.41.41,0,0,1,.19.133,3.359,3.359,0,0,0,1.41,1.089,2.982,2.982,0,0,1,.4.242,29.817,29.817,0,0,0,3.7,2.228,58.3,58.3,0,0,0,5.48,2.786,21.841,21.841,0,0,0,4.78,1.589c1,.15,1.94.391,2.92.565,1.33.233,2.67.508,4,.649a19.176,19.176,0,0,0,5.73-.166c1-.208,2.13-.3,3.19-.483.66-.108,1.28-.332,1.94-.424a20.238,20.238,0,0,0,4.3-1.355c1.46-.557,2.9-1.165,4.39-1.664a6.068,6.068,0,0,0,2.41-1.314,5.836,5.836,0,0,1,.79-.623,17.128,17.128,0,0,0,4.07-3.443c.59-.832,1.48-1.464,1.69-2.445a.215.215,0,0,1,.043-.095.292.292,0,0,1,.087-.072c.81-.357,1.11-1.089,1.71-1.588a.574.574,0,0,0,.2-.374,6.271,6.271,0,0,0,.17-2.063,1.6,1.6,0,0,1,.44-1.322,11.1,11.1,0,0,0,1-1.6,10.026,10.026,0,0,0,.63-1.722A1.727,1.727,0,0,0,304.38,1320.16Zm-1.752.133-1.47.832c0-.624.66-.773.77-1.281-.82-.282-.81.666-1.49.591-.29-.325.09-.524.28-.74a8.59,8.59,0,0,1,.77-.657Zm-10.21-1.3a1.462,1.462,0,0,0,.79-.607c.29-.391.48-.832,1.11-.982a.227.227,0,0,0,.18-.124c.1-.541.69-.716,1.12-.982a2.809,2.809,0,0,1,1.317-.362,2.85,2.85,0,0,1,1.343.287c-.237.057-.471.123-.7.2a1.259,1.259,0,0,0-.48.258c-.07.05,0,.208,0,.308l.34-.05,1.33-.441a3.571,3.571,0,0,1,1.19,1.256c0-.175.14-.283.31-.117.36.341.69.707,1,1.04-.41.274-.74.515-1.11.723a1.547,1.547,0,0,1-.47.1,1.074,1.074,0,0,1,.13-.407,6.574,6.574,0,0,1,.64-.641l-.53-.723c.1.69-.43,1.131-1.4,1.039.37-.291.67-.532,1-.782,0-.515-.6,0-.78-.3a4.973,4.973,0,0,0-.61-.64l-.72-.117a.536.536,0,0,1-.182.372.758.758,0,0,1-.428.186c-1.2.133-1.83.931-2.71,1.438a3.064,3.064,0,0,1-.55.283,1.263,1.263,0,0,0-.417.208,1.017,1.017,0,0,0-.283.33.843.843,0,0,0,0,.793,1.293,1.293,0,0,1,.347-.784,1.748,1.748,0,0,1,.813-.489c-.31.491-.53.832-.8,1.214,0,.059-.22.05-.36.059a9.045,9.045,0,0,0,0,1.164,9.323,9.323,0,0,0,.29,1.189l-1.37.832c-.09-.233-.16-.408-.24-.632.67-.117,1.16-.325,1.17-.923a1.689,1.689,0,0,0-1.09.307c-.19-.158-.36-.274,0-.474a4.223,4.223,0,0,0,1-1.006h-1c.16-.175.26-.291.41-.441-.11-.083-.18-.183-.29-.224a.487.487,0,0,1-.18-.093.387.387,0,0,1-.11-.15.313.313,0,0,1-.018-.176.343.343,0,0,1,.078-.163A2.133,2.133,0,0,1,292.418,1319Zm4.66,6.545a11.08,11.08,0,0,1-2.09-2.237,1.884,1.884,0,0,1-.29-.832,13.246,13.246,0,0,0,3.24,2.678c0-.249.1-.416,0-.49a2.935,2.935,0,0,0-.85-.832,6.77,6.77,0,0,1-2.19-2.237,5.118,5.118,0,0,1-.56-.932c-.08-.158-.16-.366.22-.465l1.79,2.2a.494.494,0,0,0,.14.167l1.93.956a2.072,2.072,0,0,0-.21-.457,8.082,8.082,0,0,0-1-.832,7.921,7.921,0,0,1-1.55-1.846c-.14-.225-.11-.524-.53-.715s.15-.441.37-.657c1.5,1.322,2.46,3.027,4.41,4.058-.28.549-.45,1.181-1.23,1.522a1.36,1.36,0,0,0-.44.408c-.38.474-.75.956-1.17,1.5l-.63-.491.74-.058a1.133,1.133,0,0,0-.14-.416ZM288.86,1335H288v-.091l.61-.275.28.366.59.449c-.7.424-.7.424-1.09.092.16-.183.33-.366.5-.541Zm-2.86-3.388v1.023l-1.42.333a10.781,10.781,0,0,1,.11-1.14Zm-1.582-.524c.22-.366.31-.391,1.26-.291C285.218,1331.088,285.218,1331.088,284.418,1331.088ZM278,1326.581v-.907l-.71.774-.9-.059.62-1.472c-.71.291-.81.924-1.3,1.339l-1.15-.058c.37-.674.7-1.3,1.08-2l4.08.832c-.25.507-.45.956-.71,1.38S278.41,1326.689,278,1326.581Zm-.852,1.164.37-.7.82.05C278.308,1327.936,278.108,1328.044,277.148,1327.745Zm-.4-.773c-.21.831-.21.831-1.18.7l.4-.832Zm-1.49-.117c-.12.275-.21.482-.33.74l-1.08-.183c.13-.282.25-.507.38-.781Zm5.24.446c-.06.574-.13.649-.71.7h-1.17C279.258,1327.11,279.258,1327.11,280.5,1327.3Zm-.93-.72c.17-.616.31-.649,1.6-.424-.06.191-.13.374-.21.615Zm.432-1.157c-.06-.266,0-.424.3-.424h5c-.26.457-.6.383-.88.407a15.386,15.386,0,0,0-1.65.109c-.5.091-.92-.192-1.44-.067a4.931,4.931,0,0,1-1.33,0Zm2,1.83c.47-.066.48.283.67.582l-1.1.042c.05-.283.03-.549.43-.6Zm0-.623c.14-.591.43-.732,1.29-.608-.34.816-.36.824-1.29.633Zm2,.5c-.31.74-.33.74-1.42.565.17-.707,1.01-.216,1.42-.54Zm-1-.474c0-.591.06-.674.65-.657a5.565,5.565,0,0,1,.95.058c-.47.748-.41.781-1.6.623Zm2,.449c0,.415-.26.482-.75.5.11-.366.24-.608.75-.474Zm.188-.524c.11-.25.19-.433.28-.624l.76.05C286.058,1326.581,286.058,1326.581,285.188,1326.581Zm1.812.765-1,.133c.44-.524.44-.524,1-.15Zm0-.666a2.771,2.771,0,0,1,.09-.44,2,2,0,0,1,.14-.25,3.708,3.708,0,0,1,.42,0,3.289,3.289,0,0,1,.5.083c-.1.508-.62.458-1.15.591Zm-1-1.539V1325h2.62a5.353,5.353,0,0,1-2.62.125Zm5,.616v.167a9.626,9.626,0,0,1-2.63.424c.12-.175.17-.341.25-.358.81-.108,1.59-.174,2.38-.241Zm-2-.357c.13-.183.17-.316.24-.325a7.034,7.034,0,0,1,2.32.092,4.911,4.911,0,0,1-2.56.216Zm1,1.272a4.66,4.66,0,0,1-2.23.424,4.3,4.3,0,0,1,2.23-.44Zm.818,1.481c.22.457,0,.673-.48.781l-.32-.449c-.1.092-.18.133-.19.183a.449.449,0,0,1-.113.354.631.631,0,0,1-.367.2c-1,.258-2,.533-3.18.832-.1-.308-.17-.557-.24-.832Zm2.76-4.234-1.5.649-.11-.116c.43-.308.86-.624,1.36-.973Zm-.578-3.1a1.743,1.743,0,0,1,.389.8,1.589,1.589,0,0,1-.079.862,1.483,1.483,0,0,1-.45-.8,1.339,1.339,0,0,1,.14-.877Zm-1,7.011a1.146,1.146,0,0,1,1.24.067c-.47.233-.88.44-1.27.648-.42-.507-.42-.573.03-.731Zm-1,2.711c.2.383-.15.5-.61.691,0-.35-.36-.616.14-.766a.549.549,0,0,1,.47.059Zm-.532-.781c0-.333.33-.358.63-.408,0,.457,0,.457-.68.391Zm-.75,3.077c0-.458.36-.474.55-.632l-.71.116c-.09-.441-.18-.832-.28-1.314l.9-.241c0,.382.38.665,0,1.006-.07.058.06.283.1.433l.19.266Zm.66.341c-.19.282-.18.291-.64.54.15-.416.15-.416.61-.557Zm-2.4-1.755.71-.275c.62,1.115.5,1.539-.48,1.813-.31-.415.28-.4.45-.665a.972.972,0,0,1-.335-.106.811.811,0,0,1-.256-.209.646.646,0,0,1-.132-.277.6.6,0,0,1,.013-.3Zm-.12-.832c0-.1-.06-.266,0-.291a3.949,3.949,0,0,1,.63-.241c.24.175.22.316,0,.4a3.761,3.761,0,0,1-.66.142Zm1.3-.7a6.3,6.3,0,0,1,.76-.217c0,.4-.55.707-.78.549-.09-.041-.08-.316-.01-.316Zm-.05,3.834c0,.457,0,.465-.8.532-.09-.516-.09-.516.77-.524Zm-1.75-3.327a.589.589,0,0,1-.186.249.773.773,0,0,1-.3.148.87.87,0,0,1-.352.012.8.8,0,0,1-.318-.126,1.819,1.819,0,0,1,1.13-.258Zm-1.75,2.753c.46.6.32.948-1.2,1.214-.33-.782-.2-.923,1.17-1.189Zm-.89,1.854c.29-.066.56-.183.94-.307.08.207.14.349.21.523a3.085,3.085,0,0,1-1.45.508c-.22-.35-.21-.582.27-.7Zm1.44-3.434,1.26-.158c.05.274.1.532.16.831l-1.22.241C286.278,1332.169,286.218,1331.9,286.158,1331.571Zm1.34,1.172a.466.466,0,0,1,.073.376.54.54,0,0,1-.243.323.968.968,0,0,1-1,.258,1.833,1.833,0,0,0-.07-.591Zm-1.5,1.663,1.21-.382c.21.782-.1,1.056-1.28,1.106.03-.283.05-.491.07-.74Zm2,2.1c-.77.541-.9.532-1.14,0,.86-.449.86-.449,1.14-.016Zm1-1.547c.58-.474,1-.3,1.32.533-.68.241-.68.241-1.32-.549Zm1.418-.69a2.815,2.815,0,0,1,.77,0,.47.47,0,0,1,0,.832Zm.86-1.73c-.35-.623-.32-.7.38-1.056.13.191.24.383.39.607Zm.8,1.465a6.311,6.311,0,0,1,.43.6c-.23,0-.51.125-.54.075a1.174,1.174,0,0,1-.33-.649c-.01-.175.27-.183.42-.025Zm.72-4c.51-.091.74-.715,1.42-.349-.59.549-.91.64-1.44.349Zm1.33,1-1.52,1h-.18c0-.471-.08-.7,0-.779a10.7,10.7,0,0,1,1.54-.9c.05.017.09.075.14.677ZM292,1328.785l.87-.316c-.32.607-.46.673-.87.307Zm.648-3.161c-.26-.158-.4-.332-.14-.515s.82-.533,1.26-.832c.09.108.22.216.2.25a3.757,3.757,0,0,1-1.34,1.089Zm1.24-2.694c.11.316.23.632.35.948a.794.794,0,0,1-.287-.158.62.62,0,0,1-.176-.245.54.54,0,0,1-.03-.286.58.58,0,0,1,.123-.268Zm2.4-4.341c.84-.175,1.27-.042,1.58.449s.55,1.006.86,1.488a8.7,8.7,0,0,0,.61.74,9.872,9.872,0,0,1,.71.924.62.62,0,0,1,0,.532,18.672,18.672,0,0,1-3.78-4.142Zm-58.15-27.7a3.119,3.119,0,0,1,.68,1.73c-.28-.557-.56-1.122-.83-1.663Zm-4.45,6.529.85-.341.67,1.231-1.17,1.771A3.745,3.745,0,0,1,233.688,1297.415Zm1.37-4.208-.53.532-.11-.042c0-.341.06-.681.11-1.2Zm-.45-2.207h0Zm7.61,15.621-.35.532c-.82-.7-1-.756.2-1.663l.52.6Zm.74,0,.61.682-.67.982C242.028,1307.628,242.038,1307.361,242.958,1306.621Zm-1.33-1.663c-.17.324-.39.632-.6.965-.51-.35-.51-.35.32-1.339A4.5,4.5,0,0,1,241.628,1304.958Zm-4.3-6.005c1.14,1.173.78,1.223.13,2l-.83-1.181Zm-1.328.25c-.68-.632-.69-.832,0-1.663.76.765.76.765,0,1.688Zm3,3.327-.78-1.048.61-.732.77.881c-.16.25-.33.5-.6.89Zm.468-.267c.65.674.65.674-.11,1.472-.16-.249-.32-.482-.51-.765Zm-2-.249c.6.549.73.832.72,1.256l.84.981c-.12.216-.21.374-.34.624l.63-.058.58.914-.43.533a22.843,22.843,0,0,1-2.81-3.8Zm2.88,1.5c.78.7.78.831,0,1.48-.86-.357-.84-.923-.04-1.488Zm1-.149c-.6-.5-.6-.5-.26-1.081l.75-1.281h.23l.56.74Zm-1-1-.46-.615c.3-.483.65-1.04,1.06-1.713.21.3.36.54.55.831-.69.258-.68.973-1.2,1.481Zm-.76-1.131-.75-1.064.79-1.373.87.707c-.35.566-.62,1.081-.96,1.714Zm-1.17-1.987c-.83-1.082-.92-.749,0-1.98C239.158,1298.047,239.158,1298.6,238.418,1299.245Zm-1.15-1.514c-.19-.266-.35-.482-.52-.732.2-.316.42-.632.63-.94C238.238,1296.467,238.218,1296.866,237.268,1297.731Zm.09-2.67-.94,1.481a10.841,10.841,0,0,1-.72-.832.284.284,0,0,1,0-.266c.43-.632.86-1.264,1.3-1.9,0,0,.09-.042.21-.092l.8,1.04Zm-1.86,2.637c0-.558-.8-1.007-.22-1.664C236.138,1296.958,236.228,1297.2,235.5,1297.7Zm.75-4.383c-.45-.308-.44-.333.31-.94A.641.641,0,0,1,236.248,1293.315Zm-.39-1.2c-.14-.432-.14-.432.38-.59Zm-.72,2.861c-.17-.183-.33-.366-.53-.607l.93-.89C235.918,1294.088,235.838,1294.363,235.138,1294.978Zm-1.138,1.8v-1.023C234.74,1296.325,234.74,1296.409,234,1296.783Zm.538,8.7a11.92,11.92,0,0,1-.78-4.2c.34.832.63,1.663,1,2.495a1.317,1.317,0,0,1,.2.881A1.417,1.417,0,0,1,234.538,1305.482Zm.59,2.518c-.036-.4-.063-.5-.08,0h.08Zm.29-2.7a1.194,1.194,0,0,1,.355.341.986.986,0,0,1,.164.43.941.941,0,0,1-.055.448,1.07,1.07,0,0,1-.264.394C235.068,1306.413,234.738,1305.923,235.418,1305.3Zm0,3.46c-.06-.134.17-.35.3-.591.53.532.9,1,.36,1.663A1.891,1.891,0,0,1,235.418,1308.759Zm7,8.125c-.83-.391-.88-.491-.56-1.1.09-.191.21-.366.35-.607l.44.324c.13.092.24.191.4.325Zm1-.674.68.507c-.1.242-.18.433-.27.616s-.15.332-.26.557C242.558,1317.324,242.558,1317.325,243.418,1316.21Zm-1.9,1.79c-.66-.4-.68-.607-.15-1.372.66.515.68.64.12,1.372Zm.52-4c-.83-.64-.84-.674-.38-1.414.82.5.87.666.35,1.414Zm-.2.738c-.19.374-.37.724-.55,1.09-.75-.475-.94-.649-.08-1.664Zm-.79,1.663c-.07.183-.11.333-.17.491l-.19.466c-.73-.715-.82-.749-.29-1.464Zm-.81-1.546c-.84-.832-.84-.832-.22-1.531l.75.5Zm-.55,1.255c-.22-.349-.4-.607-.55-.881a1.311,1.311,0,0,1,.09-.316c.72.482.72.482.43,1.189Zm-.47-2.545c-.7-.44-.7-.44-.24-1.131.67.441.69.541.21,1.123Zm-.3-2.411c-.93-.632-1-.732-.38-1.863l.88,1.048Zm-.25.831-.38.716c-.8-.5-.83-.624-.35-1.522Zm-1-2.187c-.84-.5-.59-1.139-.38-1.846.91.657.92.931.35,1.8Zm-.44,1.663c-1.11-.931-1-.906-.45-1.754.44.465,1.08.948.42,1.688Zm-.64-3.368c-.55-.233-.55-.233-.19-1.4.52.416.32.865.16,1.331Zm-.76,2.853c.57.607,1.13,1.122,1.59,1.663a5.869,5.869,0,0,1,.57,1.189l.47-.075c.2.225.57.391.36.832l-.56-.449a3.379,3.379,0,0,0,.59,1.422,9.171,9.171,0,0,1,.75,1.248C238.128,1315.977,235.418,1312.326,235.828,1310.946Zm3.1,9.214a11.006,11.006,0,0,1-1.15-2.495c.5.566,1,1.115,1.5,1.664C239.528,1319.695,239.188,1319.844,238.928,1320.16Zm.48.84a4.872,4.872,0,0,1,1.09-1.663c-.26-.458-.57-.092-.81-.05-2.35-2.221-3.95-4.707-3.74-5.872a2.078,2.078,0,0,1,.21.242,16.615,16.615,0,0,0,3.59,4.324c.42.383.63.915,1.26,1.164a.323.323,0,0,1,.138.1.242.242,0,0,1,0,.3.323.323,0,0,1-.138.1c-.59.149-.78.549-1.06.906a1.71,1.71,0,0,1-.53.441Zm3.36,1.971c.27.2.46.275.47.366,0,.449-.33.74-.69,1.165C241.938,1323.828,242.808,1323.562,242.768,1322.971Zm.36,2.836c-.4-.124-.61-.283-.46-.732C243.008,1325.317,243.258,1325.45,243.128,1325.807Zm.872.832c-.11-.15-.21-.291-.37-.532.51.141.51.141.37.524Zm1,1.056c-.68-.466-.68-.466-.27-.832.2.233.67.375.27.824Zm.948,1.164c-.71-.615-.71-.615-.23-1.031.7.416.7.416.21,1.023Zm1,.915c-.59-.391-.59-.391-.18-1.064.65.432.65.432.16,1.056Zm1.17,1.115c-.73-.316-.77-.433-.34-1.206.81.307.26.781.32,1.2Zm.65.565-.35-.2.41-.832a2.037,2.037,0,0,1-.08,1.023Zm1,.665c-.53-.357-.53-.54-.06-1.937l.62.224a16.5,16.5,0,0,0-.63,1.7Zm1.576,1.307c-.887-.54-.917-.624-.548-1.5.059-.149.129-.291.259-.574.149.6-.4,1.106.179,1.58.449-.3.24-.773.449-1.122a7.2,7.2,0,0,0,.459-1.123l-.668-.225a6.988,6.988,0,0,0-.05-.939l-.718.657c-.608-.266-.638-.832-1.1-1.289l-.818.781c-.4-.174-.478-.424-.239-.781a4.332,4.332,0,0,0,.309-.741c-.927-.324-.5.641-1.117.682-.269-.116-.5-.274-.209-.648a6.352,6.352,0,0,0,.409-.749c-.489-.166-.489-.166-1.077.566-.669-.175-.609-.449-.339-.832s.508-.757.757-1.131a.717.717,0,0,0-.249-.062.769.769,0,0,0-.258.029.656.656,0,0,0-.222.113.546.546,0,0,0-.148.178c-.19.274-.349.557-.529.832-.767-.3-.807-.391-.359-.94a2.5,2.5,0,0,0,.339-.391,1.01,1.01,0,0,0,0-.424c-.169,0-.4,0-.5.124a7.474,7.474,0,0,0-.638.774l-.439-.241,1.127-1.406a.723.723,0,0,0-1,.217,5.777,5.777,0,0,0-.539.831l-.628-.515a1.465,1.465,0,0,1,1.406-1.032c-.16-.216-.249-.465-.449-.565a1.1,1.1,0,0,1-.368-.229.872.872,0,0,1-.22-.337.76.76,0,0,1-.032-.381.821.821,0,0,1,.161-.359l-.937.241a2.883,2.883,0,0,1-1.067,1.722c-.259-.183-.319-.341-.11-.549.4-.383.788-.782,1.177-1.173a.514.514,0,0,1,0-.124c0-.175.18-.391-.14-.466s-.319.15-.448.3c-.319.408-.678.782-1,1.148-.448-.125-.448-.3-.269-.557.339-.474.678-.948,1-1.439a4.533,4.533,0,0,0,.26-.557c-.589-.175-.738.133-.9.391-.259.424-.488.831-.827,1.463l-.529-.914a5.17,5.17,0,0,1,1.875-1.8c.538.507,1.067,1.031,1.625,1.539a9.976,9.976,0,0,0,1,.765c.25.175.27.158.738-.067a3.34,3.34,0,0,0-.329-.282,10.754,10.754,0,0,1-2.582-2.346.511.511,0,0,1-.17-.307.474.474,0,0,1,.08-.333c.169-.258.289-.532.449-.832.478.225.807.508.8.89a3.233,3.233,0,0,1-.349.932l.16.066c.189-.216.389-.424.618-.673.269.108.519.449,1,.108l-.768-.832c.2-.4.419-.832.649-1.256.628.482,1.216.94,1.805,1.381a.506.506,0,0,1,.251.312.434.434,0,0,1-.082.37c-.209.374-.429.74-.658,1.139-.559-.4-.848-.757-.529-1.306a.5.5,0,0,0,0-.707,5.831,5.831,0,0,0-.678,1.414c-.089.441-.658.832-.339,1.348.5-.192.289-.666.658-.9.349.291.758.549.379,1.048-.159.2-.079.391.24.532l.389-.523a15.4,15.4,0,0,1,2.373,1.372.737.737,0,0,0,.907.216c-.089-.141-.139-.316-.279-.4a9.652,9.652,0,0,0-1.994-1.323c-.638-.216-.718-.449-.419-.973.159-.282.349-.557.528-.831.7.49,1.3.931,1.925,1.33.2.133.509.358.768-.083-.589-.4-1.207-.831-1.775-1.214q-1.5-1.122-2.992-2.3a1.791,1.791,0,0,1-.339-.508,3.618,3.618,0,0,1-.678-.307c-.379-.275-.718-.574-1.067-.882s-.489-.424,0-1.056a5.11,5.11,0,0,0,.8.665c.269.15.518.549,1,.183-.369-.291-.718-.54-1.047-.831s-.548-.341-.5-.674c0-.05-.069-.15-.109-.15-.668,0-.688-.6-1.107-.831l.319-.832c-1,.291-.748,1.123-1.237,1.588-.418-.1-.5-.457-.738-.665a8,8,0,0,0,.589-1.78c-.608.3-.608.89-1,1.314a.7.7,0,0,1-.247-.118.575.575,0,0,1-.163-.193.465.465,0,0,1,.021-.462,4.728,4.728,0,0,1,.389-.682.622.622,0,0,0,.133-.526.711.711,0,0,0-.343-.455,1.846,1.846,0,0,1-.4-.35c-.837-1.114-1.695-2.22-2.5-3.326a13.31,13.31,0,0,1-1.994-3.8v-.38c-.182-.436-.575-.9-.5-1.308a4.122,4.122,0,0,1,.877-1.335c.152-.209.313-.419.485-.637.585.671.6.931.141,1.5a6.484,6.484,0,0,0-.5.562c-.07.109-.181.327.182.293a1.91,1.91,0,0,0,.363-.2c.212-.2.4-.428.646-.7.292.437.524.8.777,1.192l-.575.73c-.495-.3-.535-.932-1.211-1.016a23.743,23.743,0,0,0,2.462,3.969c.575.764,1.19,1.519,1.806,2.266a4.144,4.144,0,0,0,.615.52c.212-.428-.111-.655-.272-.9s-.142-.52.252-.73c.444.537.877,1.074,1.321,1.636,0,.285-.686.6,0,.94l.475-.5.595.537c-.152.3-.273.546-.424.839l-.585-.386a1.352,1.352,0,0,0,.091.5,15.513,15.513,0,0,0,2.825,3.112,7.4,7.4,0,0,1,.807.839,3.151,3.151,0,0,0,.373.244.845.845,0,0,0-.1-.409,1.022,1.022,0,0,0-.293-.338c-.707-.789-1.393-1.586-2.139-2.341a1.1,1.1,0,0,1-.378-.7,1.031,1.031,0,0,1,.216-.744l1.433,1.376c.5.47,1.009.931,1.533,1.384.273.227.343.227.828.168,0-.369-.353-.554-.606-.789-.837-.78-1.685-1.543-2.532-2.324a5.246,5.246,0,0,1-.393-.52c.232-.294.464-.6.726-.948a10.4,10.4,0,0,1,2.542,2.19,11.381,11.381,0,0,0,2.452,2.366.931.931,0,0,0,.343.176.5.5,0,0,0,.189-.013.465.465,0,0,0,.164-.079.276.276,0,0,0,0-.3,13.628,13.628,0,0,1-1.13-.789c-1.009-1.007-2.1-2.039-3.138-3.037-.726-.73-1.422-1.485-2.138-2.232l1.16-1.443c-1.009-.059-1.009.721-1.463.965-.525-.487-.525-.63-.121-1.116.212-.26.363-.554.565-.839-.505,0-.505,0-1.251.789-.323-.076-.474-.269-.333-.512.293-.521.646-1.007,1.009-1.578.686.63,1.332,1.2,1.967,1.787s1.493,1.46,2.29,2.14a7.749,7.749,0,0,0,1.312.755.552.552,0,0,0,.4,0,44.173,44.173,0,0,1-5.891-5.5,65.851,65.851,0,0,1-5.045-6.066l.373-.52c.3.4.565.755.848,1.1s.474.571.736.839.676.688,1.009,1.015a4.742,4.742,0,0,0,.646.344l.141-.1a1.523,1.523,0,0,0-.161-.336,24.366,24.366,0,0,1-2.311-2.66c-.837-1.174-1.513-2.433-2.239-3.666a2.891,2.891,0,0,1-.131-.546c-.162-.461-.343-.914-.555-1.468-.707.478-.242.94-.273,1.393h-.555c-.211-.621-.413-1.191-.575-1.678a9.24,9.24,0,0,1-1.18-.839c-.494-.47-.928-1-1.382-1.494-.071-.075-.111-.184-.2-.226-1.1-.478-1.08-1.427-1.241-2.24a13.167,13.167,0,0,1,0-2.366c.262,1.292.515,2.584.767,3.9.524-.109.454-.344.393-.612-.222-1.083-.413-2.165-.635-3.247a4.961,4.961,0,0,0-.232-.6c-.142.134-.222.176-.242.226a1.8,1.8,0,0,0,0,.344,3.054,3.054,0,0,0-.132-.839,5.449,5.449,0,0,0-.655-.914,2.647,2.647,0,0,1-.787-1.25,4.757,4.757,0,0,1,.5.394c.656.671,1.3,1.342,1.937,2.022a1,1,0,0,1,.273.495,3.526,3.526,0,0,1,0,1.938c-.192.453.191.839.252,1.208a.09.09,0,0,0,.091.093,4.757,4.757,0,0,1,1.937,1.191,21.875,21.875,0,0,1,1.846,1.443,6.723,6.723,0,0,1,.757.974c-.132.243-.263.469-.333.595a5.305,5.305,0,0,0,.645,1.057,6.943,6.943,0,0,1,1.009,2.039,20.9,20.9,0,0,0,1.17,2.014,9.38,9.38,0,0,0,1.09,1.133,10.286,10.286,0,0,0,1.18,1.183c1.009.738,2.018,1.426,3.027,2.131.353-.193.2-.361.051-.495-.565-.487-1.14-.965-1.726-1.427s-1.089-.8-1.634-1.2l.1-.126a3.507,3.507,0,0,1,.514.243c.545.369,1.07.755,1.605,1.124a19.22,19.22,0,0,0,3.874,1.8c1.008.418,2.043.793,3.1,1.124,1.816.554,3.662,1.024,5.478,1.578,1.594.495,3.158,1.065,4.742,1.594.928.319,1.876.612,2.794.948q2.115.7,4.137,1.577c2.2,1.024,4.3,2.2,6.5,3.222,2.018.957,3.915,2.1,5.912,3.079s3.8,1.88,5.741,2.778c1.009.478,2.118.839,3.188,1.267.888.335,1.8.654,2.7.973.322.109.665.193,1.008.293,0,.286-.2.361-.454.269-1.13-.4-2.249-.839-3.379-1.233l-.374-.143-2.633-.923-2.764-.99a18.649,18.649,0,0,1-2.139-.923c-1.1-.545-2.26-1-3.42-1.51a.378.378,0,0,0-.09.193.37.37,0,0,0,.026.205.452.452,0,0,0,.139.173.554.554,0,0,0,.217.1,16.138,16.138,0,0,0,3.532,1.443.619.619,0,0,1,.3.118,10.543,10.543,0,0,0,2.724,1.35,25.14,25.14,0,0,0,2.533.932c1.583.537,3.177,1.04,4.761,1.56.091,0,.152.109.384.286-2.078-.235-3.642-1.141-5.4-1.6s-3.47-1.007-5.266-1.535c0,.125,0,.26.091.318a2.643,2.643,0,0,0,1.009.621,3.109,3.109,0,0,0,1.241.16,1.207,1.207,0,0,1,.444.017,1.073,1.073,0,0,1,.393.176,9.211,9.211,0,0,0,3.349,1.241,3.481,3.481,0,0,0,1.615.269h-1.122l1.621.817c-.1.057-.226.187-.315.171a4.432,4.432,0,0,1-1.4-.327,2.879,2.879,0,0,0-.785-.236q-1.342-.3-2.642-.719c-2.239-.719-4.468-1.454-6.687-2.221-1.031-.351-2.023-.817-3.024-1.2l-3.467-1.388a2.249,2.249,0,0,0,1.208,1.013,45.154,45.154,0,0,0,4.861,1.943c1.64.49,3.221,1.127,4.831,1.7.334.106.687.171.982.277a8,8,0,0,1,.8.311c-.324.71-1.119.939-1.62,1.445l-.982-.179,1.277-1.356-.089-.106a1.375,1.375,0,0,0-.432.155c-.245.2-.442.457-.7.661-.638.539-.815.548-1.709.2.383-.522.383-.522,1.12-.514a7.568,7.568,0,0,0-.138-.915c-.461.507-.982.294-1.433.09a9.777,9.777,0,0,0-1.247-.4c.333.629-.226.915-.59,1.249-.6.531-1.237,1.029-1.885,1.528a5.849,5.849,0,0,1-.8.432c-.246.147-.393,0-.619-.122.982-.9,1.9-1.772,2.838-2.654l-.078-.1c-.079,0-.2,0-.236.049a1.452,1.452,0,0,1-1.876.2l.5-.547c-.481-.1-.569.278-.982.4l-.677-.2-.7-.221.108-.482c-.932.556-1.63.074-2.425-.2l.6-.653a2.721,2.721,0,0,0-1.257.621,26.1,26.1,0,0,0-2.317,1.7.934.934,0,0,1-.576.275,1.019,1.019,0,0,1-.642-.136l-.422-.2a25.726,25.726,0,0,1,2.867-2.45l-1.267-.375.5.514a.352.352,0,0,1-.059.131l-2.572,1.772c-.315.212-.55.106-.845-.172l2.553-2.123-.108-.106q-1.713.936-3.3,2.017l-.462-.3,2.524-2.229c-.737.089-1.08.6-1.6.922s-.982.744-1.522,1.111c-6.726-2.875-13.011-6.141-18.293-10.665a2.051,2.051,0,0,0,.314.49,19.136,19.136,0,0,0,1.522,1.429,32.3,32.3,0,0,0,3.054,2.27c1.227.817,2.533,1.568,3.829,2.319s2.406,1.413,3.663,2.042,2.857,1.331,4.291,1.992c.786.368,1.552.768,2.357,1.1s1.443.523,2.17.768c1.06.367,2.1.767,3.181,1.078s2.063.457,3.094.686c1.522.351,3.044.743,4.585,1.045,1.866.359,3.751.678,5.637.931a35.3,35.3,0,0,0,3.594.261c.982,0,1.964,0,3.034-.057l-.432.449.9-.155c.1.2.187.392.3.629-.845.114-1.62.245-2.406.318a28.39,28.39,0,0,1-4-.147c-1.453-.073-2.886-.245-4.34-.367-.255,0-.53-.123-.766.139a4.365,4.365,0,0,0,1.719.408c1.61.106,3.23.131,4.831.294a28.212,28.212,0,0,0,4.232-.057,6.17,6.17,0,0,1,.795,0c.059.343-.206.326-.412.335l-1.8.073a6.516,6.516,0,0,0-.893.122,4.284,4.284,0,0,1-1.964,0,6.312,6.312,0,0,0-1.473-.048l-3.123.065c-.324,0-.707,0-.668-.433a2.477,2.477,0,0,1-.648.3,1.925,1.925,0,0,1-.638-.081c-1.895-.368-3.81-.686-5.676-1.127-1.129-.262-2.288-.425-3.427-.646-1.355-.269-2.651-.718-3.927-1.086l-.982-.277a.976.976,0,0,0,.314.366,1.249,1.249,0,0,0,.481.2,29.478,29.478,0,0,0,5.244,1.34q1.4.247,2.769.628c.471.115.982.237,1.433.376a3.221,3.221,0,0,1-.186.384l-1.532,2.4c-.255.4-.246.4-.982.253a21.127,21.127,0,0,1,1.522-2.809c-.491.155-.491.155-1.277,1.233-.324.449-.618.906-.981,1.4l-.806-.049c.246-1.078,1.3-1.837,1.306-2.948-.609.817-1.227,1.683-1.806,2.54a.524.524,0,0,1-.157.211.658.658,0,0,1-.256.128.781.781,0,0,1-.3.015.674.674,0,0,1-.272-.1l.883-1.772a2.465,2.465,0,0,0-1.129.972c-.088.114-.118.261-.2.375-.265.384-.285.392-.982.2l1.09-1.8c-.472.049-.737.3-1.8,1.633a1.324,1.324,0,0,1-.295,0c-.088,0-.177-.09-.265-.131.157-.58.844-.914.9-1.633a5.426,5.426,0,0,0-1.256,1.127c-.3.367-.315.359-.982.172l1.2-1.65c-.256.09-.423.106-.491.18-.364.4-.707.816-1.041,1.216-.207.237-.413.368-.766.082l.628-.817-.177-.122-1.089.816-.688-.04.344.816a2.962,2.962,0,0,1,1.308-.1,2.685,2.685,0,0,1,1.265.527l.13.03c1.04-.2,1.962.3,2.943.36s1.728.18,2.592.286a3.2,3.2,0,0,1,.639.122,13.327,13.327,0,0,0,3.171.556q1.365.2,2.75.261c1.172.035,2.346.014,3.515-.065,1.817-.131,3.624-.294,5.391-.458.589-.057,1.169-.163,1.777-.253,0,.359-.255.417-.471.457-1.718.286-3.427.556-5.145.817h.029s-2.514.327-3.79.383a1.28,1.28,0,0,0-.5.091,1.055,1.055,0,0,0-.4.275,4.152,4.152,0,0,0,1.92,0,10.456,10.456,0,0,1,4.81.251H285v.065s-1.757.431-3,.832v.1h1.908a10.858,10.858,0,0,1-3.75.97c-.62-.408.24-.9-.12-1.389-.54.449-.27,1.031-.52,1.53l-5,.9c-.05-.282-.14-1.009-.14-1.009h-.15s-.15.677-.25,1H273v-.9c-1.1.091-.732.582-1.032.831l-.88-.141c-.05.557.912.607.912.607v1.712l-1.43-.089c.058-.6.107-1.149.165-1.8-.467.251-.4.558-.437.809s-.059.574-.1.947l-1.225-.17c0-.332.058-.631.1-1.02-.525.211-.292.615-.525.809a2.059,2.059,0,0,1-1.547-.364V1334h-.13l-.448.59-2.434-.457c.08-.407.16-.832.24-1.2-.4.292-.628.782-.948,1.963a12.983,12.983,0,0,1-3.919-.831,22.247,22.247,0,0,1-4.457-1.98,14.556,14.556,0,0,0-1.994-.831c-.449.831-.23,1.821-1,2.578Zm25.424-13.108c.89-.889,1.79-1.763,2.75-2.711l1.1.358c-.29.673-.87.632-1.62.491l.44.523-2.09,1.664-.62-.142C276.748,1320.435,276.728,1320.36,276.768,1320.318Zm3.26-1.222,1.1.308a2.352,2.352,0,0,1-1.22.831.675.675,0,0,0-.25.167c-.16.149-.28.4-.46.424a4.279,4.279,0,0,1-1.06-.083C278.828,1320.177,279.418,1319.653,280.028,1319.1Zm1.972,1.555c-.46.615-.49.624-1.35.441.3-.632.38-.657,1.35-.424Zm-.612-.541c.44-.548.44-.548,1.37-.307-.34.665-.87.316-1.34.324Zm2.612.782a1.139,1.139,0,0,1-.32.341,1.4,1.4,0,0,1-.455.211,1.542,1.542,0,0,1-.517.046,1.491,1.491,0,0,1-.5-.124.949.949,0,0,1,.287-.381,1.214,1.214,0,0,1,.466-.231,1.366,1.366,0,0,1,.541-.027,1.286,1.286,0,0,1,.5.182Zm-1-.49c0-.549.65-.458.84-.749a8.272,8.272,0,0,1,.63-.782l.95.458c-.3.457-.85.233-1.26.424l.3.341c-.34.59-.95.208-1.46.324Zm3-1.7a3.335,3.335,0,0,1-.58-.208c.26-.15.45-.349.58-.316a6.9,6.9,0,0,1,2.27.723c-.27.067-.43.15-.53.117a10.226,10.226,0,0,0-1.74-.3Zm1.088.831a.5.5,0,0,1-.79-.05ZM285,1320.934c-.51.707-.51.707-1.18.59.32-.391.54-.765,1.18-.557Zm0-.532c.4-.275.67-.109,1.09-.092-.44.349-.69.191-1.09.125Zm2.438.831c-.36.707-1,.441-1.59.441.35-.649.41-.665,1.57-.374Zm-.438-.723c.54-.408,1-.1,1.55-.067-.53.4-.56.4-1.55.133Zm.558-.832c.64-.283,1,.067,1.4.058l-.06.233Zm.76-.582c.17-.083.23-.133.26-.125l1.11.291C289.068,1319.47,288.778,1319.2,288.318,1319.1ZM289,1322h-1c.39-.2.39-.2,1,.042Zm0-1.391,1.22.075c-.66.408-.73.4-1.22-.033Zm1-.474a1.105,1.105,0,0,0,0-.182l.93.066c-.33.383-.64.108-.93.158Zm-17.132-2.553a.651.651,0,0,1,.341-.19.749.749,0,0,1,.409.024c.32.091.64.158,1.19.291-.59.441-1,.773-1.47,1.1a6.29,6.29,0,0,1-.76.5c-.47.283-.88.05-1.4-.15Zm-2.75,1.406-1.41-.291,2.49-2.321c.3.208.5.358.72.5l.64.375A9.9,9.9,0,0,1,270.118,1318.988Zm3.57.266c.16-.191.36-.358.51-.541a1.447,1.447,0,0,1,2.15-.407l-1.7,1.372c-.37.291-.77.158-1.26,0A4.656,4.656,0,0,1,273.688,1319.254Zm9.742,14.662c.06.89,0,.981-1.43,1.322V1332.2l1.38-.267a1.043,1.043,0,0,1,.213.45.952.952,0,0,1-.027.482,1.1,1.1,0,0,1-.263.43,1.379,1.379,0,0,1-.453.3Zm-.09,1.364.14.457c-.48.241-.92.449-1.48.715v-.765Zm-.4,1.72c.36-.341.62-.308.91-.075-.3.166-.3.166-.86.075Zm.48,1.007c-.84.217-.84.217-1-.291C282.828,1337.625,283.218,1337.442,283.418,1338.007ZM280,1335v-2.778l1.39-.179,1.547,2.42a2.249,2.249,0,0,1-1.972.819,2.41,2.41,0,0,1-.986-.282Zm.77,2-.77.083v-.424c0-.6.06-.624.82-.607.27,0,.54-.042.87-.067.03.865-.03.924-.94,1.015Zm-2.51-1.562c0-.167.28-.341.46-.558-.37-.124-.42-.432-.36-.831s.08-.832.12-1.264l1.31-.283a2.569,2.569,0,0,1,.11,1.563c0,.483-.09.965-.13,1.464l-.77.3v.141l.75.108c0,.067.09.108.09.141,0,.99-.11,1.032-1.58.882-.06-.557-.06-.557.33-.882A2.223,2.223,0,0,1,278.26,1335.438Zm-2.092.665a6.98,6.98,0,0,0-.13-1l1.52.092a2.931,2.931,0,0,1-.08.831Zm1.172.34-.18.557H276v-.632Zm-1.162-2.785c.05-.333.19-.566.68-.566a5.669,5.669,0,0,0,.91-.183c-.06.624-.11,1.173-.16,1.714a1.632,1.632,0,0,1-.27.058C276.128,1334.714,276.038,1334.623,276.178,1333.658Zm-.55,1.587c-.1.566-.12,1.14-.18,1.755h-1.37c.11-.566.23-1.114.37-1.805a2.981,2.981,0,0,1,.08-2.029l1.26-.108c.13.907,0,1.164-.66,1.4a.811.811,0,0,1,.419.321A.6.6,0,0,1,275.628,1335.245Zm-3,.755c-.05.1-.08-.063-.05-.138a.31.31,0,0,1,.1-.1c.04-.026.086-.044.135-.766h1l.14.862c-.12.133-.23.374-.35.382a1.846,1.846,0,0,1-.98-.244Zm.87.935c-.51.316-.56.316-1-.067Zm-1-2.155c0-.6,0-1.165.05-1.78h1.48c-.06.649-.12,1.256-.18,1.888Zm-1.56,1.323c-.27,0-.48-.116-.3-.466l1.41.183c-.35.491-.79.258-1.15.25Zm.69.69c-.21.474-.68.192-1.1.333.11-.566.11-.566,1.06-.366Zm-1.78.258-1.28-.283c.09-.507.16-.948.25-1.43.34.058.61.083.87.15s.36.149.35.216a.745.745,0,0,1-.27.366,1.146,1.146,0,0,1-.32.124c.05.275.75.317.36.824Zm-1.78-1.156-1.5-.4a2.555,2.555,0,0,1,.05-.607C268.148,1334.714,268.418,1334.9,268.068,1335.9Zm-3.65-.291c-.1.25-.16.4-.24.582-.44-.116-.87-.166-.71-.748Zm-.75-.6a.385.385,0,0,1,.141-.1.473.473,0,0,1,.179-.035c.47,0,.58.158.44.707a4.614,4.614,0,0,1-.7-.283.289.289,0,0,1-.062-.141.276.276,0,0,1,.022-.15Zm-10.88-1c-.49-.183-.65-.3-.46-.64a11.063,11.063,0,0,0,.71-1.539c.1-.241.23-.208.4-.133-.2.757-.4,1.5-.63,2.312Zm1.1,1c-.65-.333-.69-.565-.21-1.3.74.324.74.532.23,1.3Zm1.6,0a1.925,1.925,0,0,1-.13.466,1.024,1.024,0,0,1-.1.133l-.69-.341c.09-.366.16-.7.25-1.1.84.316.84.316.69.84Zm1.26,1.56-1-.548c.17-.433.3-.757.42-1.082C257.228,1335.2,257.3,1335.379,256.748,1336.56Zm1.252.624-.78-.441c.13-.391.26-.748.4-1.156l.84.333a1.905,1.905,0,0,1-.46,1.239Zm2,.7c-.36-.142-.71-.275-1.09-.408.07-.274.11-.474.18-.673a3.8,3.8,0,0,1,.21-.524c1.18.282,1.3.465.7,1.58Zm1,.59-.87-.249.16-.641a1.763,1.763,0,0,1,.16-.524c.85.125.99.483.55,1.389Zm2.118.582-1.12-.382c.08-.391.16-.74.25-1.156.45.158.75.266,1.14.391C263.3,1338.224,263.218,1338.59,263.118,1339.055Zm1.23.35-.81-.35c.52-.149.68.092.92.167Zm2.173.358a9.163,9.163,0,0,1,.1-1.05,3.624,3.624,0,0,0,.046-.7,1.27,1.27,0,0,0-.193-.514s-.24,0-.268.039c-.119.2-.359.49-.276.613.35.483.11.927,0,1.4-.7,0-.7,0-1.125-.345.249-.3.692,0,.977-.23,0-.445-.525-.307-.783-.537v-.72c0-.253-.074-.391-.341-.322a.669.669,0,0,0-.212.146.519.519,0,0,0-.12.207,2.068,2.068,0,0,0,0,.628c-.654,0-.663,0-.627-.4s.065-.767.1-1.135a.869.869,0,0,0-.811.383c-.175-.053-.424-.061-.535-.176a1.188,1.188,0,0,0-.5-.316,1.415,1.415,0,0,0-.624-.059c-.157,0-.387-.238-.507-.4a1.043,1.043,0,0,1-.12-.452c-.488-.2-.47.176-.664.329-.193-.092-.4-.176-.58-.253,0-.283.055-.529.074-.766a.892.892,0,0,0-.093-.238l-.654.077a2.814,2.814,0,0,0,.129.613,1.378,1.378,0,0,1-.457-.1,1.158,1.158,0,0,1-.372-.244c.055-.245.368-.575-.074-.766s-.47.207-.673.437c-.4-.169-.636-.361-.553-.721a.472.472,0,0,0,0-.253.276.276,0,0,0-.087-.144.379.379,0,0,0-.166-.084.42.42,0,0,0-.193,0,.363.363,0,0,0-.162.087.323.323,0,0,0-.083.107,1.2,1.2,0,0,1-.1.315c-.442-.069-.589-.238-.46-.621s.11-.429-.47-.475c-.047.168-.1.345-.157.559-.922-.291-.212-.766-.36-1.318a4.587,4.587,0,0,1,.682.23c.775.383,1.494.828,2.295,1.157,1.106.445,2.249.813,3.392,1.2q.375.06.756.084a5.687,5.687,0,0,1,.921.253c.249.092.2.261,0,.46a6.066,6.066,0,0,1-1.594-.46v.429a5.456,5.456,0,0,0,1.6.667,13.109,13.109,0,0,0,1.7.085l.571-1.028a4.012,4.012,0,0,0-.249-.659l1.2.138c-.239.767-.46,1.411-.682,2.1.544,0,.544,0,.922-.958l1.355.2c.092.306-.065.421-.424.39s-.7-.176-1.041.046c.212.468.755.276,1.078.391a8.739,8.739,0,0,1,.369,2.867Zm3.479.673-1.13-.092c.06-.216.11-.382.17-.565l1,.058a5.086,5.086,0,0,1-.04.582Zm0,.091v-.615c.77.075.77.075.83.665Zm0-1.422c0-.1.18-.283.27-.274.39,0,.36.274.32.59-.35.009-.63.017-.59-.366Zm0-.781c-.16-.258-.27-.433-.45-.707l-1,.707c-.08.465,1,.274.68.906l-.9-.058c-.1-.624-.2-1.231-.29-1.846.11,0,.2-.067.26-.042a12.6,12.6,0,0,0,4.33.352l1.02-.028,3.74.217a1.454,1.454,0,0,1,.6.149c-1,.058-1.85.483-2.88.233a3.677,3.677,0,0,0-1.6.133,1.423,1.423,0,0,1-.5.1,1.449,1.449,0,0,1-.508-.081,1.28,1.28,0,0,1-.423-.246,1,1,0,0,1-.266-.369c-.14.217-.18.375-.3.449s-.41.109-.41.034a.785.785,0,0,0-1.1.083Zm6,1.122c-1.15.233-1.21.208-1.23-.54.9-.133.9-.133,1.23.524Zm-4.429,1.572c-.087-.675-.164-1.3-.252-2.018h.955l.593,2Zm1.287-1.625c.84-.308,1-.258,1.1.607h-.82Zm.42,1.376a2.206,2.206,0,0,0-.09-.732,8.447,8.447,0,0,0,2.51,0c.45,0,.45,0,.57.557Zm2.78-1.988,1.1-.216.47.7c-.27.05-.46.1-.65.125a3.606,3.606,0,0,1-.52,0Zm1.28,1.721c-.48.05-.52-.241-.6-.573a2.155,2.155,0,0,1,.772-.071,2.064,2.064,0,0,1,.738.2l.34-.616-.74-.831,1.1-.133.94,1.746Zm3-.39c-.29-.616-.56-1.181-.85-1.813l.93-.125.3.574-.6.274.85.175c.06.191.13.391.21.657Zm.93-2.112c.36-.175.55,0,.69.349l-.6.308c-.16-.275-.41-.482-.05-.657Zm1.712,2-1.13.1c-.06-.233-.13-.466-.2-.715a.7.7,0,0,1,.274-.1.744.744,0,0,1,.3.012.677.677,0,0,1,.261.123.543.543,0,0,1,.164.211,2.616,2.616,0,0,0,.35.374v-.915c.31-.075.6-.133.93-.2l.26.524-1.17.59Zm2.608-1.2c-1.25,0-1.4-.142-1.72-1.431l.85-.316a7.018,7.018,0,0,0,.44.907c.26.266.54.465.47.823ZM284.4,1336h.6v.366c.4.058.94-.083,1.05.516l-.74.315Zm1.8,2.573-.38-.624a2.735,2.735,0,0,1,.79-.216c.19,0,.37.183.7.358Zm1.46-.615-.31-.566.94-.5c.7.624.65.707-.59,1.048Zm1.68-.566-.48-.632.93-.424.58.665Zm1.662-.574c-.45,0-.76-.191-.82-.5,0-.158.2-.357.31-.54.65.208.59.573.51,1.023Zm1-1.153-.63-.515.08-.15h.46a.48.48,0,0,1,.2.126.361.361,0,0,1,.1.2.341.341,0,0,1-.042.208.424.424,0,0,1-.166.159Zm1-.161-.4-.449c.24-.283.48-.3.7-.066s.02.4-.3.54Zm5-5.4a26.121,26.121,0,0,1-3.94,3.809s-.08.083-.12.083h-.51c0-.141,0-.349.07-.416a11.971,11.971,0,0,1,1.3-.832.592.592,0,0,0,.327-.315.469.469,0,0,0-.027-.416,23.609,23.609,0,0,0-2.68,1.713c-.2-.283-.37-.524-.57-.832.8-.449,1.6-.873,2.36-1.33a5.721,5.721,0,0,0,.75-.649c.46-.416,1-.832,1.39-1.264a.744.744,0,0,1,.423-.225.842.842,0,0,1,.5.059l-1.89,2.32a1.183,1.183,0,0,0,.576-.081.945.945,0,0,0,.424-.335c.54-.6,1.1-1.189,1.65-1.788l.18.091a4.018,4.018,0,0,1-.21.433Zm.738-1.864a.617.617,0,0,1-.225.088.667.667,0,0,1-.248,0,.6.6,0,0,1-.223-.09.494.494,0,0,1-.154-.162c-.54,0-.83.582-1.43.4l-.35-.532c-.34.232-.35-.167-.45-.175a2.336,2.336,0,0,0-.71.2c-.55-.358.53-.566.09-.973l-.73.3-.5-.324.82-1.181c-.31-.158-.46.05-.65.2s-.39.1-.53-.183l1-.623.21.607a.586.586,0,0,1,.337.124.423.423,0,0,1,.163.275c.12.574.73.831,1.11,1.264a.848.848,0,0,0,.52.158,13.315,13.315,0,0,0,1.41,0,1.275,1.275,0,0,0,.54-.258c.5-.349,1-.715,1.51-1.106a1.734,1.734,0,0,1-.361,1.2A2.339,2.339,0,0,1,298.738,1328.244Zm2.262-3.726c0,.516-.55.774-.9,1.115a13.1,13.1,0,0,1-1.1.948l-.16-.1a2.623,2.623,0,0,1,1-1.347,3.4,3.4,0,0,0,1.24-1.19c.12-.191.3-.349.51-.607.31.649-.56.749-.59,1.206Zm1-2.32a.54.54,0,0,1-.23.135.645.645,0,0,1-.28.015.547.547,0,0,1-.174-.2.453.453,0,0,1-.046-.243c0-.108.18-.216.29-.325.25-.257.52-.515.92-.906a13.15,13.15,0,0,1-.48,1.547Zm-49.5-20.409a9.936,9.936,0,0,1-1.85-.831l.06-.133a1.908,1.908,0,0,1,.44,0c1.74.54,3.47,1.1,5.22,1.663.83.249,1.69.432,2.53.649a6.027,6.027,0,0,1,1,.291c1.23.6,2.67.831,3.82,1.53a6.936,6.936,0,0,1,2.53,1.006c1.3.674,2.77,1.023,4,1.747,1.72.973,3.49,1.879,5.24,2.811.28.149.54.307.57.6-.23.25-.42.109-.6,0-1.46-.831-2.91-1.663-4.39-2.495-.7-.365-1.46-.64-2.19-.964-.31-.142-.6-.325-.91-.474-1.57-.765-3.25-1.348-4.86-2.046a43.327,43.327,0,0,0-5.07-1.755Zm5.5,28.276a18.128,18.128,0,0,1-5.27-2.594c-.18-.134-.34-.292-.51-.433l.12-.166c.25.116.51.216.76.341,1.13.532,2.23,1.122,3.4,1.6,1.51.632,3.08,1.172,4.61,1.763a13.883,13.883,0,0,0,2.83.832,12.49,12.49,0,0,1,2.09.673,3.416,3.416,0,0,0,2,.358c0,.432-.38.424-.66.366a12.2,12.2,0,0,1-1.64-.5,6.381,6.381,0,0,0-2.41-.491,3.466,3.466,0,0,1-1-.216c-1.47-.516-2.88-1.048-4.32-1.53Zm15.9-18.928c-.66.208-1-.125-1.46-.3-.87-.35-1.72-.741-2.56-1.148s-1.68-.882-2.56-1.264a23.172,23.172,0,0,0-4.5-1.946s-.12,0-.15-.05c-1.06-.882-2.57-.915-3.84-1.406a.54.54,0,0,1-.2-.108.566.566,0,0,0-.07-.224,4.761,4.761,0,0,1,2,.391c1.33.465,2.66.923,3.94,1.472s2.29,1.139,3.44,1.663c.93.441,1.89.832,2.82,1.289s1.82.89,2.73,1.339C273.668,1310.954,273.828,1311.012,273.9,1311.137Zm-21.78,1.248a2.668,2.668,0,0,1,.55.149c1.28.69,2.53,1.422,3.83,2.088s2.5,1.2,3.74,1.8c1,.474,2,.982,2.92,1.464.21.108.44.2.66.291l1.09.457-.09.225a7.5,7.5,0,0,1-1.17-.258c-.53-.2-1-.482-1.53-.707s-.94-.382-1.4-.59-1.16-.549-1.72-.832-1.33-.673-1.95-1.064a.593.593,0,0,0-.192-.108.687.687,0,0,0-.456,0,.594.594,0,0,0-.192.108c-.21-.691-.93-.89-1.52-1.2s-1.06-.507-1.58-.773a1.955,1.955,0,0,1-.628-.442A1.566,1.566,0,0,1,252.118,1312.385Zm2.3-1.223c2.92,1.447,6.09,2.495,8.92,4.075,0,.075,0,.1-.06.116a.165.165,0,0,1-.07,0,.541.541,0,0,1-.16,0q-1.021-.3-2-.7a50.327,50.327,0,0,1-6.87-3.377c-.06-.041-.08-.116-.14-.224A1.213,1.213,0,0,1,254.418,1311.162Zm7.61,9.364c-.61-.316-1.2-.648-1.83-.948-.33-.158-.72-.208-1.05-.374a18.519,18.519,0,0,1-2.93-1.555c-.83-.624-1.8-1.073-2.64-1.663a5.549,5.549,0,0,1-.5-.425l.16-.149c1.14.648,2.25,1.314,3.41,1.929s2.45,1.248,3.69,1.846c.67.316,1.37.591,2,.89a1.094,1.094,0,0,1,.33.208c.06.058.11.2.07.25a.562.562,0,0,1-.32.166A1.449,1.449,0,0,1,262.028,1320.526Zm-11.92-.973c-1.58-1.081-3.07-2.245-4.6-3.385a2.342,2.342,0,0,1-.3-.365c.28-.283.51-.4.8-.125s.88.765,1.26,1.181a16.448,16.448,0,0,0,4.55,3.326c1.14.6,2.36,1.081,3.74,1.664-.42-.084-.67-.125-.9-.183A14.412,14.412,0,0,1,250.108,1319.553Zm9.24,9.148a31.813,31.813,0,0,0,3.14.915.828.828,0,0,1,.443.189.59.59,0,0,1,.207.377,9.481,9.481,0,0,1-1.39-.2c-.77-.249-1.5-.59-2.26-.832-.56-.2-1.16-.307-1.7-.532-.95-.382-1.86-.831-2.78-1.239a3.936,3.936,0,0,1-.63-.341c-.24-.158-.46-.349-.69-.532l.1-.117a2.447,2.447,0,0,1,.41.1C255.908,1327.213,257.6,1328,259.348,1328.7Zm-8.07-11.784c.84.532,1.64.965,2.36,1.48a29.109,29.109,0,0,0,4.41,2.445l.66.358a1.029,1.029,0,0,1-.08.15,8.747,8.747,0,0,1-1.29-.391,21.934,21.934,0,0,1-4.26-2.37,2.075,2.075,0,0,1-.4-.35,1.21,1.21,0,0,0-.348-.378,1.466,1.466,0,0,0-.5-.229.752.752,0,0,1-.258-.094.656.656,0,0,1-.2-.169.532.532,0,0,1-.1-.218A.488.488,0,0,1,251.278,1316.917Zm-4,9.083a2.49,2.49,0,0,0-.37-.216,6.369,6.369,0,0,0-2.29-2.021.414.414,0,0,1,.68-.233,3.907,3.907,0,0,1,1.06.832,15.492,15.492,0,0,0,4.12,3.767c-.55.116-.6.117-1-.249-.71-.608-1.43-1.256-2.16-1.88ZM262,1308.118l7,3.244a3.2,3.2,0,0,1-.69,0c-1-.366-2-.749-3-1.14-.4-.158-.76-.391-1.15-.557a11.332,11.332,0,0,1-2.16-1.53Zm-15.822,14.346,4,3.085a.67.67,0,0,1-.71-.049l-1.28-.641a.883.883,0,0,1-.32-.208,5.76,5.76,0,0,0-1.73-1.663C245.9,1322.847,245.758,1322.647,246.178,1322.464Zm25.822,8.9v-.158a6.158,6.158,0,0,1,.88-.1,28.63,28.63,0,0,0,4.64-.275s.09.05.19.108c-.11.458-.67.524-1,.533A24.067,24.067,0,0,1,272,1331.363Zm-9.142-2.778,1.51.341,4,.923a1.035,1.035,0,0,1-.509.283,1.206,1.206,0,0,1-.611-.017,29.2,29.2,0,0,1-4.09-1.139.619.619,0,0,1-.2-.167A.486.486,0,0,1,262.858,1328.585Zm-10.83-12.433c.62.391,1.21.831,1.81,1.222a1.152,1.152,0,0,1,.31.233c.09.117.22.325.16.391a.569.569,0,0,1-.56-.066c-.17-.142-.41-.308-.62-.458l-3.14-2.362c-.18-.133-.38-.241-.57-.357l.13-.167C250.418,1315.1,251.208,1315.62,252.028,1316.152Zm-.15,6.137c-.46-.366-1.17-.524-1.46-1.2l6.42,3.825a4.3,4.3,0,0,1-1.67-.623c-.54-.325-1.11-.616-1.64-.94A17.215,17.215,0,0,1,251.878,1322.289Zm-6.12-8.183c.13,0,.27,0,.31.042a27.067,27.067,0,0,0,3.54,3.027.355.355,0,0,0,.08.191C248.6,1317.142,246.828,1315.67,245.758,1314.106ZM255,1325.965a6.7,6.7,0,0,1-3.64-1.921,14.738,14.738,0,0,1,3.64,1.905Zm9,4.35a30.651,30.651,0,0,1,3.9.682c-.07.374-.26.449-.51.4-.43-.092-.85-.191-1.27-.3s-1.06-.267-1.58-.416a1.152,1.152,0,0,1-.54-.383Zm-6.582-3.393a16.632,16.632,0,0,1,3.61,1.114c-.58.391-1,.125-1.43,0A5.113,5.113,0,0,1,257.418,1326.922ZM258.93,1333l2.07.832v.158a2.738,2.738,0,0,1-.64,0c-.61-.158-1.23-.308-1.42-.99Zm-12.772-19.726a4.094,4.094,0,0,1,1.88,1.664A7.023,7.023,0,0,1,246.158,1313.274Zm2.842-.116a2.781,2.781,0,0,1,1.55,1.131,3.715,3.715,0,0,1-1.55-1.156Zm3.228,12.342-.1.116-1.42-.832C251.348,1324.826,251.348,1324.826,252.228,1325.5ZM294,1317.715v-.108l1-.1v.109C294.954,1317.654,294.847,1317.687,294,1317.715Zm-56.582-22.823a.219.219,0,0,1,0,.108h-.14c-.03,0-.26-.233-.4-.349.09-.042.18-.133.25-.125a.405.405,0,0,1,.134.047.331.331,0,0,1,.1.085.28.28,0,0,1,.055.112A.264.264,0,0,1,237.418,1294.892Z" transform="translate(-227.718 -1277.514)" fill="#101a24" opacity="0.1"/>
</svg>
