<svg xmlns="http://www.w3.org/2000/svg" width="76.756" height="64.75" viewBox="0 0 76.756 64.75">
  <path id="ajo4" d="M1058.38,1227.331a9.875,9.875,0,0,0-2.3-2.8,9.124,9.124,0,0,1-1.07-.873,3.545,3.545,0,0,0-1.08-.844,4.218,4.218,0,0,0-1.39-.428,10.23,10.23,0,0,1-1.63-.242,2,2,0,0,0-.935-.107,1.846,1.846,0,0,0-.855.332c-.46.291-1,.557-1.44.832s-.69.2-.92-.142c-.22-.325-.376-.249-.651-.125a.925.925,0,0,1-.641.041c-1.118-.337-2.2-.757-3.328-1.063a27.462,27.462,0,0,1-4.3-1.8,22.746,22.746,0,0,1-2.08-1.256c-1.29-.682-2.46-1.505-3.78-2.162-2.16-1.073-4.18-2.354-6.25-3.543a27.144,27.144,0,0,0-5.88-2.437c-.84-.249-1.65-.549-2.48-.831-1.47-.491-2.92-1.007-4.4-1.472-1-.316-2-.558-3-.832-1.17-.358-2.33-.748-3.49-1.131-1.76-.6-3.53-1.131-5.23-1.805a30.423,30.423,0,0,1-6.83-4.058,1.456,1.456,0,0,1-.43-.5q-.88-1.946-1.73-3.909a3.111,3.111,0,0,0-1-1.422c-1-.707-1.95-1.439-2.94-2.137a2.562,2.562,0,0,1-1.01-1.281,6.832,6.832,0,0,1-.31-1.156v-1.015a2.013,2.013,0,0,0-.83-1.18,3.8,3.8,0,0,1-1-.907,5.358,5.358,0,0,0-1.92-1.83,8.6,8.6,0,0,0-1.31-.565c-.22.607-.35,1.023-.03,1.472s.72,1.139,1.1,1.7a5.4,5.4,0,0,1,1,2.237,15.2,15.2,0,0,1,.17,2.769,2.044,2.044,0,0,0,.22,1.148,8.485,8.485,0,0,0,1.32,1.613,4.2,4.2,0,0,1,1.27,1.847,7.048,7.048,0,0,1,.3,2.129c0,1.663-.17,3.326-.32,4.989a18.034,18.034,0,0,0,.05,5.182c.22,1.072.35,2.154.57,3.218a10.775,10.775,0,0,0,.89,3.1,1.908,1.908,0,0,1,.12.682c.12.956.12,1.9.33,2.836.2,1.064.54,2.121.78,3.185a14.744,14.744,0,0,0,1.84,4c.94,1.6,2,3.152,3,4.724a12.326,12.326,0,0,0,1.17,1.747c1.06,1.189,2.12,2.378,3.26,3.492s2.08,2.495,3.7,3.252a.419.419,0,0,1,.19.133,3.369,3.369,0,0,0,1.41,1.09,2.867,2.867,0,0,1,.4.241,29.851,29.851,0,0,0,3.7,2.229,58.793,58.793,0,0,0,5.48,2.786,21.885,21.885,0,0,0,4.78,1.588c1,.15,1.94.391,2.92.566,1.33.232,2.67.507,4,.648a19.176,19.176,0,0,0,5.73-.166c1-.208,2.13-.3,3.19-.482.66-.108,1.28-.333,1.94-.424a20.3,20.3,0,0,0,4.3-1.356c1.46-.557,2.9-1.164,4.39-1.663a6.081,6.081,0,0,0,2.41-1.314,5.917,5.917,0,0,1,.79-.624,17.114,17.114,0,0,0,4.07-3.443c.59-.832,1.48-1.464,1.69-2.445a.217.217,0,0,1,.043-.095.277.277,0,0,1,.087-.071c.81-.358,1.11-1.09,1.71-1.589a.571.571,0,0,0,.2-.374,6.272,6.272,0,0,0,.17-2.063,1.6,1.6,0,0,1,.44-1.322,11.043,11.043,0,0,0,1-1.6,10,10,0,0,0,.63-1.722A1.724,1.724,0,0,0,1058.38,1227.331Zm-1.178.133-1.47.831c0-.623.66-.773.77-1.28-.82-.283-.81.665-1.49.59-.29-.324.09-.524.28-.74a8.728,8.728,0,0,1,.77-.657Zm-10.21-1.468a1.462,1.462,0,0,0,.79-.607c.29-.391.48-.832,1.11-.982a.227.227,0,0,0,.18-.124c.1-.541.69-.716,1.12-.982a2.809,2.809,0,0,1,1.317-.362,2.85,2.85,0,0,1,1.343.287c-.237.057-.471.123-.7.2a1.259,1.259,0,0,0-.48.258c-.07.05,0,.208,0,.308l.34-.05,1.33-.441a3.571,3.571,0,0,1,1.19,1.256c0-.175.14-.283.31-.117.36.341.69.707,1,1.04-.41.274-.74.515-1.11.723a1.548,1.548,0,0,1-.47.1,1.075,1.075,0,0,1,.13-.407,6.581,6.581,0,0,1,.64-.641l-.53-.723c.1.69-.43,1.131-1.4,1.039.37-.291.67-.532,1-.782,0-.515-.6,0-.78-.3a4.977,4.977,0,0,0-.61-.64l-.72-.117a.536.536,0,0,1-.182.372.758.758,0,0,1-.428.186c-1.2.133-1.83.931-2.71,1.438a3.064,3.064,0,0,1-.55.283,1.264,1.264,0,0,0-.417.208,1.017,1.017,0,0,0-.283.33.858.858,0,0,0-.1.4.849.849,0,0,0,.1.4,1.293,1.293,0,0,1,.347-.784,1.747,1.747,0,0,1,.813-.489c-.31.491-.53.832-.8,1.214,0,.059-.22.05-.36.059a9.034,9.034,0,0,0,0,1.164,9.3,9.3,0,0,0,.29,1.189l-1.37.832c-.09-.233-.16-.408-.24-.632.67-.117,1.16-.325,1.17-.923a1.689,1.689,0,0,0-1.09.307c-.19-.158-.36-.274,0-.474a4.224,4.224,0,0,0,1-1.006h-1c.16-.175.26-.291.41-.441a1.35,1.35,0,0,0-.29-.224.487.487,0,0,1-.18-.093.388.388,0,0,1-.11-.15.314.314,0,0,1-.018-.176.343.343,0,0,1,.078-.163A2.134,2.134,0,0,1,1046.992,1226Zm4.66,6.715a11.081,11.081,0,0,1-2.09-2.237,1.88,1.88,0,0,1-.29-.831,13.263,13.263,0,0,0,3.24,2.677c0-.249.1-.415,0-.49a2.934,2.934,0,0,0-.85-.832,6.772,6.772,0,0,1-2.19-2.237,5.107,5.107,0,0,1-.56-.931c-.08-.158-.16-.366.22-.466l1.79,2.2a.5.5,0,0,0,.14.166l1.93.956a2.089,2.089,0,0,0-.21-.457,8.077,8.077,0,0,0-1-.832,7.9,7.9,0,0,1-1.55-1.846c-.14-.224-.11-.524-.53-.715s.15-.441.37-.657c1.5,1.322,2.46,3.027,4.41,4.058-.28.549-.45,1.181-1.23,1.522a1.373,1.373,0,0,0-.44.408c-.38.474-.75.956-1.17,1.5l-.63-.491.74-.058a1.132,1.132,0,0,0-.14-.416ZM1043.86,1243H1043v-.091l.61-.275.28.366.59.449c-.7.424-.7.424-1.09.092.16-.183.33-.366.5-.541Zm-3.86-4.218v1.023l-1.42.333a10.756,10.756,0,0,1,.11-1.139Zm-1.008-.524c.22-.366.31-.39,1.26-.291C1039.792,1238.258,1039.792,1238.258,1038.992,1238.258Zm-6.992-4.507v-.907l-.71.774-.9-.058.62-1.472c-.71.291-.81.923-1.3,1.339l-1.15-.059c.37-.673.7-1.3,1.08-2l4.08.832c-.25.507-.45.956-.71,1.38S1032.41,1233.859,1032,1233.751Zm-.278,1.164.37-.7.82.049C1032.882,1235.106,1032.682,1235.215,1031.722,1234.915Zm-.4-.773c-.21.831-.21.831-1.18.7l.4-.831Zm-1.49-.117c-.12.275-.21.483-.33.74l-1.08-.182c.13-.283.25-.508.38-.782Zm5.24.276c-.06.574-.13.649-.71.7h-1.17C1033.832,1234.11,1033.832,1234.11,1035.072,1234.3Zm-.93-.55c.17-.616.31-.649,1.6-.424-.06.191-.13.374-.21.615Zm.858-1.327c-.06-.266,0-.424.3-.424h5c-.26.457-.6.383-.88.407a15.386,15.386,0,0,0-1.65.109c-.5.091-.92-.192-1.44-.067a4.931,4.931,0,0,1-1.33,0Zm1,2c.47-.067.48.282.67.582l-1.1.041c.05-.283.03-.549.43-.6Zm0-.624c.14-.591.43-.732,1.29-.607-.34.815-.36.823-1.29.632Zm3,.5c-.31.74-.33.74-1.42.565.17-.707,1.01-.216,1.42-.54Zm-1-.474c0-.591.06-.674.65-.657a5.554,5.554,0,0,1,.95.058c-.47.748-.41.782-1.6.624Zm2,.449c0,.416-.26.482-.75.5.11-.366.24-.607.75-.474Zm-.238-.524c.11-.25.19-.433.28-.624l.76.05C1040.632,1233.751,1040.632,1233.751,1039.762,1233.751Zm2.238.765-1,.133c.44-.524.44-.524,1-.15Zm-1-.665a2.8,2.8,0,0,1,.09-.441,1.986,1.986,0,0,1,.14-.25,3.653,3.653,0,0,1,.42,0,3.17,3.17,0,0,1,.5.084c-.1.507-.62.457-1.15.59Zm-1-1.71V1232h2.62a5.353,5.353,0,0,1-2.62.125Zm5,.787v.166a9.626,9.626,0,0,1-2.63.424c.12-.175.17-.341.25-.358.81-.108,1.59-.174,2.38-.241Zm-2-.358c.13-.183.17-.316.24-.324a7,7,0,0,1,2.32.091,4.9,4.9,0,0,1-2.56.216Zm2,1.272a4.661,4.661,0,0,1-2.23.424,4.312,4.312,0,0,1,2.23-.44Zm.392,1.481c.22.457,0,.673-.48.781l-.32-.449c-.1.092-.18.133-.19.183a.452.452,0,0,1-.113.355.636.636,0,0,1-.367.2c-1,.257-2,.532-3.18.831-.1-.308-.17-.557-.24-.831Zm2.76-4.233-1.5.648-.11-.116c.43-.308.86-.624,1.36-.973Zm-.152-3.1a1.734,1.734,0,0,1,.389.8,1.59,1.59,0,0,1-.079.862,1.479,1.479,0,0,1-.45-.8,1.34,1.34,0,0,1,.14-.877Zm-2,7.01a1.148,1.148,0,0,1,1.24.067c-.47.233-.88.441-1.27.649-.42-.508-.42-.574.03-.732Zm0,2.712c.2.382-.15.5-.61.69,0-.349-.36-.616.14-.765a.546.546,0,0,1,.47.058Zm-.958-.782c0-.333.33-.358.63-.408,0,.458,0,.458-.68.391Zm-.75,3.077c0-.458.36-.474.55-.632l-.71.116c-.09-.441-.18-.831-.28-1.314l.9-.241c0,.383.38.665,0,1.006-.07.059.06.283.1.433l.19.266Zm.66.341c-.19.283-.18.291-.64.54.15-.415.15-.415.61-.557Zm-2.4-1.755.71-.274c.62,1.114.5,1.538-.48,1.813-.31-.416.28-.4.45-.666a1,1,0,0,1-.335-.1.814.814,0,0,1-.256-.21.646.646,0,0,1-.132-.277.6.6,0,0,1,.013-.3Zm-.12-.832c0-.1-.06-.266,0-.291a3.935,3.935,0,0,1,.63-.241c.24.175.22.316,0,.4a3.74,3.74,0,0,1-.66.142Zm1.3-.7a6.119,6.119,0,0,1,.76-.216c0,.4-.55.707-.78.548-.09-.041-.08-.316-.01-.316Zm-.05,3.834c0,.457,0,.465-.8.532-.09-.516-.09-.516.77-.524Zm-1.75-3.327a.592.592,0,0,1-.186.25.784.784,0,0,1-.3.148.887.887,0,0,1-.352.011.8.8,0,0,1-.318-.126,1.825,1.825,0,0,1,1.13-.258Zm-1.75,2.753c.46.6.32.948-1.2,1.214-.33-.782-.2-.923,1.17-1.189Zm-.89,1.854c.29-.066.56-.183.94-.307.08.208.14.349.21.524a3.087,3.087,0,0,1-1.45.507c-.22-.349-.21-.582.27-.7Zm1.44-3.434,1.26-.158c.05.274.1.532.16.831l-1.22.242C1040.852,1239.34,1040.792,1239.065,1040.732,1238.741Zm1.34,1.172a.466.466,0,0,1,.073.376.54.54,0,0,1-.243.323.968.968,0,0,1-1,.258,1.834,1.834,0,0,0-.07-.591Zm-1.072,1.664,1.21-.383c.21.782-.1,1.056-1.28,1.106.03-.283.05-.49.07-.74Zm2,2.095c-.77.541-.9.533-1.14,0,.86-.449.86-.449,1.14-.016Zm1-1.546c.58-.474,1-.3,1.32.532-.68.241-.68.241-1.32-.549Zm.992-.691a2.815,2.815,0,0,1,.77,0,.47.47,0,0,1,0,.832Zm.86-1.73c-.35-.623-.32-.7.38-1.056.13.192.24.383.39.607Zm.8,1.3a6.312,6.312,0,0,1,.43.6c-.23,0-.51.125-.54.075a1.174,1.174,0,0,1-.33-.649c-.01-.175.27-.183.42-.025Zm.72-4c.51-.091.74-.715,1.42-.349-.59.549-.91.64-1.44.349Zm1.33,1-1.52,1H1047c0-.3-.08-.525,0-.609a10.783,10.783,0,0,1,1.54-.9c.05.017.09.075.14.507Zm-1.7-2.045.87-.316c-.32.607-.46.673-.87.307Zm.222-3.161c-.26-.158-.4-.332-.14-.515s.82-.532,1.26-.832c.09.108.22.216.2.25a3.76,3.76,0,0,1-1.34,1.089Zm1.24-2.694c.11.316.23.632.35.948a.793.793,0,0,1-.287-.158.621.621,0,0,1-.176-.245.54.54,0,0,1-.03-.286.571.571,0,0,1,.123-.267Zm2.4-4.341c.84-.175,1.27-.042,1.58.449s.55,1.006.86,1.488a8.883,8.883,0,0,0,.61.741,9.728,9.728,0,0,1,.71.923.619.619,0,0,1,0,.532,18.647,18.647,0,0,1-3.78-4.142Zm-58.15-27.7a3.113,3.113,0,0,1,.68,1.73c-.28-.558-.56-1.123-.83-1.664Zm-4.45,6.528.85-.341.67,1.231-1.17,1.771A3.744,3.744,0,0,1,988.262,1204.585Zm1.37-4.208-.53.532-.11-.041c0-.341.06-.682.11-1.2Zm-.45-1.377h0Zm7.61,14.791-.35.533c-.82-.7-1-.757.2-1.664l.52.6Zm.74,0,.61.682-.67.982C996.6,1214.8,996.612,1214.532,997.532,1213.791Zm-1.33-1.663c-.17.324-.39.632-.6.965-.51-.349-.51-.349.32-1.339A4.49,4.49,0,0,1,996.2,1212.128Zm-4.3-6c1.14,1.172.78,1.222.13,2l-.83-1.181Zm-.9.249c-.68-.632-.69-.831,0-1.663.76.765.76.765,0,1.688Zm2,3.327-.78-1.048.61-.732.77.882c-.16.249-.33.5-.6.889Zm1.042-.266c.65.673.65.673-.11,1.472-.16-.25-.32-.483-.51-.766Zm-2-.25c.6.549.73.832.72,1.256l.84.981c-.12.216-.21.374-.34.624l.63-.058.58.915-.43.532a22.838,22.838,0,0,1-2.81-3.8Zm2.88,1.5c.78.7.78.832,0,1.48-.86-.357-.84-.923-.04-1.488Zm1-.319c-.6-.5-.6-.5-.26-1.081l.75-1.281h.23l.56.74Zm-1-.829-.46-.615c.3-.482.65-1.04,1.06-1.713.21.3.36.54.55.831-.69.258-.68.973-1.2,1.481Zm-.76-1.131-.75-1.064.79-1.372.87.707c-.35.565-.62,1.081-.96,1.713Zm-1.17-1.987c-.83-1.081-.92-.749,0-1.98C993.732,1205.217,993.732,1205.766,992.992,1206.415Zm-1.15-1.514c-.19-.266-.35-.482-.52-.732.2-.316.42-.632.63-.939C992.812,1203.637,992.792,1204.036,991.842,1204.9Zm.09-2.669-.94,1.48a10.665,10.665,0,0,1-.72-.832.285.285,0,0,1,0-.266c.43-.632.86-1.264,1.3-1.9,0,0,.09-.042.21-.092l.8,1.04Zm-1.86,2.636c0-.557-.8-1.006-.22-1.663C990.712,1204.128,990.8,1204.369,990.072,1204.868Zm.75-4.383c-.45-.308-.44-.333.31-.94A.641.641,0,0,1,990.822,1200.485Zm-.39-1.2c-.14-.433-.14-.433.38-.591Zm-.72,2.86c-.17-.183-.33-.366-.53-.607l.93-.89C990.492,1201.259,990.412,1201.533,989.712,1202.148ZM988,1203.953v-1.023C988.74,1203.5,988.74,1203.579,988,1203.953Zm1.112,8.7a11.922,11.922,0,0,1-.78-4.2c.34.832.63,1.664,1,2.495a1.318,1.318,0,0,1,.2.881A1.417,1.417,0,0,1,989.112,1212.652Zm.59,2.348a5.644,5.644,0,0,1-.08-1h.16l.06,1Zm.29-2.531a1.193,1.193,0,0,1,.355.341.991.991,0,0,1,.164.43.94.94,0,0,1-.055.448,1.07,1.07,0,0,1-.264.394C989.642,1213.583,989.312,1213.093,989.992,1212.469Zm0,3.46c-.06-.133.17-.35.3-.591.53.533.9,1,.36,1.664A1.889,1.889,0,0,1,989.992,1215.929Zm7,8.125c-.83-.391-.88-.491-.56-1.1.09-.191.21-.366.35-.607l.44.324c.13.092.24.192.4.325Zm1-.674.68.508c-.1.241-.18.432-.27.615s-.15.333-.26.557C997.132,1224.495,997.132,1224.495,997.992,1223.38Zm-1.9,2.62c-.66-.4-.68-.607-.15-1.372.66.515.68.64.12,1.372Zm.52-4c-.83-.64-.84-.674-.38-1.414.82.5.87.666.35,1.414Zm-.2-.092c-.19.375-.37.724-.55,1.09-.75-.474-.94-.649-.08-1.664Zm-.79,1.664c-.07.183-.11.332-.17.49l-.19.466c-.73-.715-.82-.749-.29-1.464Zm-.81-1.547c-.84-.832-.84-.832-.22-1.531l.75.5Zm-.55,1.255c-.22-.349-.4-.607-.55-.881a1.309,1.309,0,0,1,.09-.316c.72.482.72.482.43,1.189Zm-.47-2.544c-.7-.441-.7-.441-.24-1.131.67.44.69.54.21,1.122Zm-.3-2.412c-.93-.632-1-.732-.38-1.863l.88,1.048Zm-.25.832-.38.715c-.8-.5-.83-.624-.35-1.522Zm-1-2.188c-.84-.5-.59-1.139-.38-1.846.91.657.92.932.35,1.805Zm-.44,1.664c-1.11-.932-1-.907-.45-1.755.44.466,1.08.948.42,1.688Zm-.64-3.369c-.55-.232-.55-.232-.19-1.4.52.416.32.865.16,1.331Zm-.76,2.853c.57.607,1.13,1.123,1.59,1.663a5.877,5.877,0,0,1,.57,1.19l.47-.075c.2.224.57.391.36.831l-.56-.449a3.375,3.375,0,0,0,.59,1.422,9.168,9.168,0,0,1,.75,1.248C992.7,1223.147,989.992,1219.5,990.4,1218.116Zm3.1,9.215a11.048,11.048,0,0,1-1.15-2.495c.5.565,1,1.114,1.5,1.663C994.1,1226.865,993.762,1227.015,993.5,1227.331Zm.48.669a4.873,4.873,0,0,1,1.09-1.663c-.26-.458-.57-.092-.81-.05-2.35-2.221-3.95-4.707-3.74-5.872a2.074,2.074,0,0,1,.21.242,16.615,16.615,0,0,0,3.59,4.324c.42.383.63.915,1.26,1.164a.323.323,0,0,1,.138.1.242.242,0,0,1,0,.3.323.323,0,0,1-.138.1c-.59.149-.78.549-1.06.906a1.71,1.71,0,0,1-.53.441Zm3.36,2.142c.27.2.46.274.47.365,0,.45-.33.741-.69,1.165C996.512,1231,997.382,1230.732,997.342,1230.142Zm.36,2.835c-.4-.124-.61-.282-.46-.731C997.582,1232.487,997.832,1232.62,997.7,1232.977Zm.3.832c-.11-.15-.21-.291-.37-.532.51.141.51.141.37.524Zm2,1.056c-.68-.465-.68-.465-.27-.831.2.233.67.374.27.823Zm.522,1.165c-.71-.616-.71-.616-.23-1.032.7.416.7.416.21,1.023Zm1,.914c-.59-.39-.59-.39-.18-1.064.65.432.65.432.16,1.056Zm1.17,1.115c-.73-.316-.77-.433-.34-1.206.81.308.26.782.32,1.2Zm.65.565-.35-.2.41-.832a2.036,2.036,0,0,1-.08,1.023Zm1,.666c-.53-.358-.53-.541-.06-1.938l.62.224a16.509,16.509,0,0,0-.63,1.7Zm1,1.136c-.887-.54-.917-.624-.548-1.5.059-.149.129-.291.259-.574.149.6-.4,1.106.179,1.58.449-.3.24-.773.449-1.122a7.2,7.2,0,0,0,.459-1.123l-.668-.225a6.99,6.99,0,0,0-.05-.939l-.718.657c-.608-.266-.638-.832-1.1-1.289l-.818.781c-.4-.174-.478-.424-.239-.781a4.335,4.335,0,0,0,.309-.741c-.927-.324-.5.641-1.117.682-.269-.116-.5-.274-.209-.648a6.341,6.341,0,0,0,.409-.749c-.489-.166-.489-.166-1.077.566-.669-.175-.609-.449-.339-.832s.508-.757.757-1.131a.717.717,0,0,0-.249-.062.769.769,0,0,0-.258.029.656.656,0,0,0-.222.113.545.545,0,0,0-.148.178c-.19.274-.349.557-.529.832-.767-.3-.807-.391-.359-.94a2.5,2.5,0,0,0,.339-.391,1.011,1.011,0,0,0,0-.424c-.169,0-.4,0-.5.124a7.47,7.47,0,0,0-.638.774l-.439-.241,1.127-1.406a.723.723,0,0,0-1,.217,5.775,5.775,0,0,0-.539.831l-.628-.515a1.465,1.465,0,0,1,1.406-1.032c-.16-.216-.249-.465-.449-.565a1.1,1.1,0,0,1-.368-.229.871.871,0,0,1-.22-.337.76.76,0,0,1-.032-.381.821.821,0,0,1,.161-.359l-.937.241a2.883,2.883,0,0,1-1.067,1.722c-.259-.183-.319-.341-.11-.549.4-.383.788-.782,1.177-1.173a.514.514,0,0,1,0-.124c0-.175.18-.391-.14-.466s-.319.15-.448.3c-.319.408-.678.782-1,1.148-.448-.125-.448-.3-.269-.557.339-.474.678-.948,1-1.439a4.536,4.536,0,0,0,.26-.557c-.589-.175-.738.133-.9.391-.259.424-.488.831-.827,1.463l-.529-.914a5.17,5.17,0,0,1,1.875-1.8c.538.507,1.067,1.031,1.625,1.539a9.978,9.978,0,0,0,1,.765c.25.175.27.158.738-.067a3.334,3.334,0,0,0-.329-.282,10.753,10.753,0,0,1-2.582-2.346.511.511,0,0,1-.17-.307.474.474,0,0,1,.08-.333c.169-.258.289-.532.449-.832.478.225.807.508.8.89a3.232,3.232,0,0,1-.349.932l.16.066c.189-.216.389-.424.618-.673.269.108.519.449,1,.108l-.768-.832c.2-.4.419-.832.649-1.256.628.482,1.216.94,1.8,1.381a.506.506,0,0,1,.251.312.434.434,0,0,1-.082.37c-.209.374-.429.74-.658,1.139-.559-.4-.848-.757-.529-1.306a.5.5,0,0,0,0-.707,5.831,5.831,0,0,0-.678,1.414c-.089.441-.658.832-.339,1.348.5-.192.289-.666.658-.9.349.291.758.549.379,1.048-.159.2-.079.391.24.532l.389-.523a15.4,15.4,0,0,1,2.373,1.372.737.737,0,0,0,.907.216c-.089-.141-.139-.316-.279-.4a9.651,9.651,0,0,0-1.994-1.323c-.638-.216-.718-.449-.419-.973.159-.282.349-.557.528-.831.7.49,1.3.931,1.925,1.33.2.133.509.358.768-.083-.589-.4-1.207-.831-1.775-1.214q-1.5-1.122-2.992-2.3a1.79,1.79,0,0,1-.339-.508,3.619,3.619,0,0,1-.678-.307c-.379-.275-.718-.574-1.067-.882s-.489-.424,0-1.056a5.11,5.11,0,0,0,.8.665c.269.15.518.549,1,.183-.369-.291-.718-.54-1.047-.831s-.548-.341-.5-.674c0-.05-.069-.15-.109-.15-.668,0-.688-.6-1.107-.831l.319-.832c-1,.291-.748,1.123-1.237,1.588-.418-.1-.5-.457-.738-.665a8,8,0,0,0,.589-1.78c-.608.3-.608.89-1,1.314a.7.7,0,0,1-.247-.118.575.575,0,0,1-.163-.193.466.466,0,0,1,.021-.462,4.727,4.727,0,0,1,.389-.682.622.622,0,0,0,.133-.526.711.711,0,0,0-.343-.455,1.846,1.846,0,0,1-.4-.35c-.837-1.114-1.7-2.22-2.5-3.326a13.309,13.309,0,0,1-1.994-3.8v-.38c-.182-.436-.575-.9-.5-1.308a4.122,4.122,0,0,1,.877-1.335c.152-.209.313-.419.485-.637.585.671.605.931.141,1.5a6.482,6.482,0,0,0-.505.562c-.07.109-.181.327.182.293a1.91,1.91,0,0,0,.363-.2c.212-.2.4-.428.646-.7.292.437.524.8.777,1.192l-.575.73c-.495-.3-.535-.932-1.211-1.016a23.744,23.744,0,0,0,2.462,3.969c.575.764,1.19,1.519,1.806,2.266a4.145,4.145,0,0,0,.615.52c.212-.428-.111-.655-.272-.9s-.142-.52.252-.73c.444.537.877,1.074,1.321,1.636,0,.285-.686.6,0,.94l.475-.5.595.537c-.152.3-.273.546-.424.839l-.585-.386a1.351,1.351,0,0,0,.091.5,15.513,15.513,0,0,0,2.825,3.112,7.4,7.4,0,0,1,.807.839,3.148,3.148,0,0,0,.373.244.846.846,0,0,0-.1-.409,1.022,1.022,0,0,0-.293-.338c-.707-.789-1.393-1.586-2.139-2.341a1.1,1.1,0,0,1-.378-.7,1.031,1.031,0,0,1,.216-.744l1.433,1.376c.5.47,1.009.931,1.533,1.384.273.227.343.227.828.168,0-.369-.353-.554-.606-.789-.837-.78-1.685-1.543-2.532-2.324a5.248,5.248,0,0,1-.393-.52c.232-.294.464-.6.726-.948a10.406,10.406,0,0,1,2.542,2.19,11.381,11.381,0,0,0,2.452,2.366.93.93,0,0,0,.343.176.5.5,0,0,0,.189-.013.465.465,0,0,0,.164-.079.276.276,0,0,0,0-.3,13.628,13.628,0,0,1-1.13-.789c-1.009-1.007-2.1-2.039-3.138-3.037-.726-.73-1.422-1.485-2.138-2.232l1.16-1.443c-1.009-.059-1.009.721-1.463.965-.525-.487-.525-.63-.121-1.116.212-.26.363-.554.565-.839-.505,0-.505,0-1.251.789-.323-.076-.474-.269-.333-.512.293-.521.646-1.007,1.009-1.578.686.63,1.332,1.2,1.967,1.787s1.493,1.46,2.29,2.14a7.749,7.749,0,0,0,1.312.755.552.552,0,0,0,.4,0,44.177,44.177,0,0,1-5.891-5.5,65.853,65.853,0,0,1-5.045-6.066l.373-.52c.3.4.565.755.848,1.1s.474.571.736.839.676.688,1.009,1.015a4.741,4.741,0,0,0,.646.344l.141-.1a1.524,1.524,0,0,0-.161-.336,24.37,24.37,0,0,1-2.311-2.66c-.837-1.174-1.513-2.433-2.239-3.666a2.891,2.891,0,0,1-.131-.546c-.162-.461-.343-.914-.555-1.468-.707.478-.242.94-.273,1.393h-.555c-.211-.621-.413-1.191-.575-1.678a9.24,9.24,0,0,1-1.18-.839c-.494-.47-.928-1-1.382-1.494-.071-.075-.111-.184-.2-.226-1.1-.478-1.08-1.427-1.241-2.24a13.17,13.17,0,0,1,0-2.366c.262,1.292.515,2.584.767,3.9.524-.109.454-.344.393-.612-.222-1.083-.413-2.165-.635-3.247a4.971,4.971,0,0,0-.232-.6c-.142.134-.222.176-.242.226a1.789,1.789,0,0,0,0,.344,3.054,3.054,0,0,0-.132-.839,5.446,5.446,0,0,0-.655-.914,2.647,2.647,0,0,1-.787-1.25,4.758,4.758,0,0,1,.5.394c.656.671,1.3,1.342,1.937,2.022a1,1,0,0,1,.273.495,3.526,3.526,0,0,1,0,1.938c-.192.453.191.839.252,1.208a.09.09,0,0,0,.091.093,4.758,4.758,0,0,1,1.937,1.191,21.878,21.878,0,0,1,1.846,1.443,6.722,6.722,0,0,1,.757.974c-.132.243-.263.469-.333.595a5.306,5.306,0,0,0,.645,1.057,6.943,6.943,0,0,1,1.009,2.039,20.9,20.9,0,0,0,1.17,2.014,9.379,9.379,0,0,0,1.09,1.133,10.287,10.287,0,0,0,1.18,1.183c1.009.738,2.018,1.426,3.027,2.131.353-.193.2-.361.051-.495-.565-.487-1.14-.965-1.726-1.427s-1.089-.8-1.634-1.2l.1-.126a3.509,3.509,0,0,1,.514.243c.545.369,1.07.755,1.6,1.124a19.221,19.221,0,0,0,3.874,1.8c1.008.418,2.043.793,3.1,1.124,1.816.554,3.662,1.024,5.478,1.578,1.594.495,3.158,1.065,4.742,1.594.928.319,1.876.612,2.794.948q2.115.7,4.137,1.577c2.2,1.024,4.3,2.2,6.5,3.222,2.018.957,3.915,2.1,5.912,3.079s3.8,1.88,5.741,2.778c1.009.478,2.118.839,3.188,1.267.888.335,1.8.654,2.7.973.322.109.665.193,1.008.293,0,.286-.2.361-.454.269-1.13-.4-2.249-.839-3.379-1.233l-.374-.143-2.633-.923-2.764-.99a18.651,18.651,0,0,1-2.139-.923c-1.1-.545-2.26-1-3.42-1.51a.378.378,0,0,0-.09.193.371.371,0,0,0,.026.205.452.452,0,0,0,.139.173.553.553,0,0,0,.217.1,16.141,16.141,0,0,0,3.532,1.443.619.619,0,0,1,.3.118,10.545,10.545,0,0,0,2.724,1.35,25.141,25.141,0,0,0,2.533.932c1.583.537,3.177,1.04,4.761,1.56.091,0,.152.109.384.286-2.078-.235-3.642-1.141-5.4-1.6s-3.47-1.007-5.266-1.535c0,.125,0,.26.091.318a2.643,2.643,0,0,0,1.009.621,3.11,3.11,0,0,0,1.241.16,1.207,1.207,0,0,1,.444.017,1.072,1.072,0,0,1,.393.176,9.211,9.211,0,0,0,3.349,1.241,3.481,3.481,0,0,0,1.615.269h-.547l1.62.817c-.1.057-.226.187-.314.171a4.433,4.433,0,0,1-1.4-.327,2.9,2.9,0,0,0-.786-.236q-1.341-.3-2.641-.719c-2.239-.719-4.468-1.454-6.687-2.221-1.031-.351-2.023-.817-3.025-1.2l-3.466-1.388a2.246,2.246,0,0,0,1.208,1.013,45.144,45.144,0,0,0,4.86,1.943c1.64.49,3.221,1.127,4.832,1.7.333.106.687.171.981.277a8.113,8.113,0,0,1,.806.311c-.324.71-1.12.939-1.621,1.445l-.982-.179,1.277-1.356-.088-.106a1.366,1.366,0,0,0-.432.155c-.246.2-.442.457-.7.661-.638.539-.815.548-1.708.2.383-.522.383-.522,1.119-.514a7.538,7.538,0,0,0-.137-.915c-.462.507-.982.294-1.434.09a9.78,9.78,0,0,0-1.247-.4c.334.629-.226.915-.589,1.249-.6.531-1.237,1.029-1.885,1.528a5.924,5.924,0,0,1-.806.432c-.245.147-.392,0-.618-.122.982-.9,1.905-1.772,2.838-2.654l-.079-.1c-.079,0-.2,0-.236.049a1.451,1.451,0,0,1-1.875.2l.5-.547c-.482-.1-.57.278-.982.4l-.678-.2-.7-.221.108-.482c-.933.556-1.63.074-2.425-.2l.6-.653a2.713,2.713,0,0,0-1.256.621,26.258,26.258,0,0,0-2.318,1.7.928.928,0,0,1-.575.275,1.017,1.017,0,0,1-.642-.136l-.423-.2a25.743,25.743,0,0,1,2.868-2.45l-1.267-.375.5.514a.368.368,0,0,1-.059.131l-2.573,1.772c-.314.212-.55.106-.844-.172l2.553-2.123-.108-.106q-1.713.936-3.3,2.017l-.461-.3,2.523-2.229c-.736.089-1.08.6-1.6.922s-.982.744-1.522,1.111c-6.727-2.875-13.011-6.141-18.294-10.665a2.114,2.114,0,0,0,.314.49,19.31,19.31,0,0,0,1.522,1.429,32.311,32.311,0,0,0,3.054,2.27c1.228.817,2.534,1.568,3.83,2.319s2.406,1.413,3.662,2.042,2.858,1.331,4.292,1.992c.785.368,1.551.768,2.356,1.1s1.444.523,2.17.768c1.061.367,2.1.767,3.182,1.078s2.062.457,3.093.686c1.522.351,3.044.743,4.586,1.045,1.865.359,3.751.678,5.636.931a35.3,35.3,0,0,0,3.594.261c.982,0,1.964,0,3.034-.057l-.432.449.9-.155c.1.2.186.392.294.629-.844.114-1.62.245-2.406.318a28.374,28.374,0,0,1-4-.147c-1.453-.073-2.887-.245-4.34-.367-.256,0-.531-.123-.766.139a4.356,4.356,0,0,0,1.718.408c1.611.106,3.231.131,4.831.294a28.226,28.226,0,0,0,4.233-.057,6.171,6.171,0,0,1,.8,0c.059.343-.206.326-.412.335l-1.8.073a6.533,6.533,0,0,0-.894.122,4.284,4.284,0,0,1-1.964,0,6.312,6.312,0,0,0-1.473-.048l-3.122.065c-.324,0-.707,0-.668-.433a2.508,2.508,0,0,1-.648.3,1.935,1.935,0,0,1-.639-.081c-1.895-.368-3.809-.686-5.675-1.127-1.129-.262-2.288-.425-3.427-.646-1.355-.269-2.651-.718-3.928-1.086l-.982-.277a1,1,0,0,0,.314.366,1.262,1.262,0,0,0,.481.2,29.477,29.477,0,0,0,5.244,1.34q1.406.247,2.769.628c.471.115.982.237,1.434.376a3.093,3.093,0,0,1-.187.384l-1.532,2.4c-.255.4-.245.4-.982.253a21.243,21.243,0,0,1,1.522-2.809c-.491.155-.491.155-1.276,1.233-.324.449-.619.906-.982,1.4l-.805-.049c.245-1.078,1.3-1.837,1.306-2.948-.609.817-1.228,1.683-1.807,2.54a.513.513,0,0,1-.156.211.666.666,0,0,1-.256.128.788.788,0,0,1-.3.015.686.686,0,0,1-.272-.1l.884-1.772a2.46,2.46,0,0,0-1.129.972c-.089.114-.118.261-.2.375-.265.384-.285.392-.982.2l1.09-1.8c-.471.049-.736.3-1.8,1.633a1.315,1.315,0,0,1-.294,0c-.089,0-.177-.09-.266-.131.158-.58.845-.914.9-1.633a5.452,5.452,0,0,0-1.257,1.127c-.3.367-.314.359-.982.172l1.2-1.65c-.255.09-.422.106-.491.18-.363.4-.707.816-1.041,1.216-.206.237-.412.368-.766.082l.629-.817-.177-.122-1.09.816-.687-.04.343.816a2.964,2.964,0,0,1,1.308-.1,2.688,2.688,0,0,1,1.266.527l.129.03c1.04-.2,1.962.3,2.944.36s1.728.18,2.592.286a3.172,3.172,0,0,1,.638.122,13.335,13.335,0,0,0,3.172.556q1.364.2,2.749.261,1.759.053,3.516-.065c1.816-.131,3.623-.294,5.391-.458.589-.057,1.168-.163,1.777-.253,0,.359-.255.417-.471.457-1.719.286-3.427.556-5.146.817h.029a35.827,35.827,0,0,1-3.79.554,1.263,1.263,0,0,0-.5.09,1.056,1.056,0,0,0-.4.275,4.152,4.152,0,0,0,1.92,0,13.408,13.408,0,0,1,4.81.081H1040v.235a18.366,18.366,0,0,0-3,.832V1238h1.482a8.279,8.279,0,0,1-3.75,1.14c-.62-.408.24-.9-.12-1.389-.54.449-.27,1.031-.52,1.53l-5,.9c-.05-.282-.14-1.179-.14-1.179h-.15a5.832,5.832,0,0,1-.25,1H1027v-.727c-.528.091-.158.582-.458.832l-.88-.142c-.05.557.338.607.338.607v1.712l-1.43-.089c.058-.6.107-1.149.165-1.8-.467.251-.4.558-.437.809s-.059.575-.1.947l-1.225-.17c0-.332.058-.631.1-1.019-.525.21-.292.614-.525.808a2.058,2.058,0,0,1-1.547-.364V1241h-.13l-.448.59-2.434-.457c.08-.407.16-.832.24-1.2-.4.292-.628.782-.948,1.963a12.983,12.983,0,0,1-3.919-.831,22.247,22.247,0,0,1-4.457-1.98,14.553,14.553,0,0,0-1.994-.831c-.449.831-.23,1.821-1,2.578Zm26-12.937c.89-.89,1.79-1.763,2.75-2.712l1.1.358c-.29.674-.87.632-1.62.491l.44.524-2.09,1.663-.62-.141C1031.322,1227.6,1031.3,1227.53,1031.342,1227.489Zm3.26-1.223,1.1.308a2.353,2.353,0,0,1-1.22.831.685.685,0,0,0-.25.167c-.16.149-.28.4-.46.424a4.227,4.227,0,0,1-1.06-.083C1033.4,1227.347,1033.992,1226.823,1034.6,1226.266Zm1.4,1.555c-.46.616-.49.624-1.35.441.3-.632.38-.657,1.35-.424Zm-.038-.54c.44-.549.44-.549,1.37-.308-.34.665-.87.316-1.34.324Zm2.038.781a1.127,1.127,0,0,1-.32.341,1.4,1.4,0,0,1-.455.211,1.548,1.548,0,0,1-.517.046,1.5,1.5,0,0,1-.5-.124.949.949,0,0,1,.287-.381,1.215,1.215,0,0,1,.466-.231,1.371,1.371,0,0,1,.541-.027,1.287,1.287,0,0,1,.5.182Zm0-.49c0-.549.65-.458.84-.749a8.123,8.123,0,0,1,.63-.781l.95.457c-.3.457-.85.233-1.26.424l.3.341c-.34.591-.95.208-1.46.324Zm2-1.705a3.333,3.333,0,0,1-.58-.208c.26-.15.45-.349.58-.316a6.9,6.9,0,0,1,2.27.723c-.27.067-.43.15-.53.117a10.131,10.131,0,0,0-1.74-.3Zm1.662.832a.5.5,0,0,1-.79-.05ZM1040,1228.1c-.51.707-.51.707-1.18.59.32-.39.54-.765,1.18-.557Zm0-.532c.4-.275.67-.108,1.09-.092-.44.35-.69.192-1.09.125Zm2.012.831c-.36.707-1,.441-1.59.441.35-.649.41-.665,1.57-.374Zm-1.012-.723c.54-.408,1-.1,1.55-.067-.53.4-.56.4-1.55.133Zm1.132-.832c.64-.283,1,.067,1.4.058l-.06.233Zm.76-.582c.17-.083.23-.133.26-.125l1.11.291C1043.642,1226.64,1043.352,1226.374,1042.892,1226.266ZM1044,1229h-1c.39-.2.39-.2,1,.042Zm0-1.22,1.22.075c-.66.407-.73.4-1.22-.034Zm0-.474a1.117,1.117,0,0,0,0-.183l.93.066c-.33.383-.64.108-.93.158Zm-16.558-2.554a.651.651,0,0,1,.341-.19.748.748,0,0,1,.409.024c.32.092.64.158,1.19.291-.59.441-1,.774-1.47,1.1a6.3,6.3,0,0,1-.76.5c-.47.283-.88.05-1.4-.15Zm-2.75,1.406-1.41-.291,2.49-2.32c.3.208.5.357.72.5l.64.374A9.9,9.9,0,0,1,1024.692,1226.158Zm3.57.266c.16-.191.36-.358.51-.54a1.447,1.447,0,0,1,2.15-.408l-1.7,1.372c-.37.291-.77.158-1.26,0A4.655,4.655,0,0,1,1028.262,1226.424Zm10.168,14.662c.06.89,0,.981-1.43,1.322v-3.035l1.38-.266a1.034,1.034,0,0,1,.213.449.953.953,0,0,1-.027.482,1.094,1.094,0,0,1-.263.43,1.363,1.363,0,0,1-.453.3Zm-.09,1.364.14.457c-.48.241-.92.449-1.48.716v-.766Zm-.828,1.55c.36-.341.62-.308.91-.075-.3.166-.3.166-.86.075Zm.48,1.178c-.84.216-.84.216-1-.291C1037.4,1244.8,1037.792,1244.612,1037.992,1245.178ZM1035,1243v-2.778l1.39-.179,1.547,2.42a2.249,2.249,0,0,1-1.972.819,2.425,2.425,0,0,1-.986-.282Zm.77,1-.77.083v-.424c0-.6.06-.624.82-.607.27,0,.54-.042.87-.067.03.865-.03.924-.94,1.015Zm-3.51-1.392c0-.166.28-.341.46-.557-.37-.125-.42-.433-.36-.832s.08-.832.12-1.264l1.31-.283a2.573,2.573,0,0,1,.11,1.564c0,.482-.09.964-.13,1.463l-.77.3v.141l.75.108c0,.067.09.108.09.142,0,.989-.11,1.031-1.58.881-.06-.557-.06-.557.33-.881A2.236,2.236,0,0,1,1032.26,1242.608Zm-1.518.665a6.991,6.991,0,0,0-.13-1l1.52.092a2.934,2.934,0,0,1-.08.831Zm1.6.17-.18.557H1031v-.632Zm-1.588-2.615c.05-.332.19-.565.68-.565a5.766,5.766,0,0,0,.91-.183c-.06.623-.11,1.172-.16,1.713a1.619,1.619,0,0,1-.27.058C1030.7,1241.884,1030.612,1241.793,1030.752,1240.828Zm-.55,1.417c-.1.566-.12,1.14-.18,1.755h-1.37c.11-.566.23-1.114.37-1.805a2.982,2.982,0,0,1,.08-2.029l1.26-.108c.13.907,0,1.164-.66,1.4a.811.811,0,0,1,.419.321A.6.6,0,0,1,1030.2,1242.245Zm-3,1.755a5.039,5.039,0,0,1-.05-.968.323.323,0,0,1,.095-.1c.04-.025.086-.044.135.064h1l.14.032c-.12.133-.23.374-.35.383a.855.855,0,0,0-.98.585Zm.87.1c-.51.316-.56.316-1-.067Zm-1-1.325c0-.6,0-1.165.05-1.78h1.48c-.06.649-.12,1.256-.18,1.888Zm-1.56.493c-.27,0-.48-.116-.3-.465l1.41.182c-.35.491-.79.258-1.15.25Zm.69.691c-.21.474-.68.191-1.1.332.11-.565.11-.565,1.06-.366Zm-1.78.257-1.28-.282c.09-.508.16-.949.25-1.431.34.058.61.083.87.15s.36.149.35.216a.741.741,0,0,1-.27.366,1.183,1.183,0,0,1-.32.125c.05.274.75.316.36.823Zm-1.78-1.156-1.5-.4a2.562,2.562,0,0,1,.05-.607C1022.722,1241.884,1022.992,1242.067,1022.642,1243.065Zm-3.65-.291c-.1.25-.16.4-.24.582-.44-.116-.87-.166-.71-.748Zm-.75-.774a.385.385,0,0,1,.141-.1.473.473,0,0,1,.179-.035c.47,0,.58.158.44.707a4.611,4.611,0,0,1-.7-.283.289.289,0,0,1-.062-.141.276.276,0,0,1,.022-.15Zm-10.88-1c-.49-.183-.65-.3-.46-.64a11.063,11.063,0,0,0,.71-1.539c.1-.241.23-.208.4-.133-.2.757-.4,1.5-.63,2.312Zm1.1,1c-.65-.333-.69-.566-.21-1.3.74.325.74.533.23,1.3Zm1.6,0a1.925,1.925,0,0,1-.13.466,1.022,1.022,0,0,1-.1.133l-.69-.341c.09-.366.16-.7.25-1.1.84.316.84.316.69.84Zm1.26,1.731-1-.549c.17-.433.3-.757.42-1.081C1011.8,1242.367,1011.872,1242.55,1011.322,1243.731Zm1.678.623-.78-.44c.13-.391.26-.749.4-1.156l.84.332a1.9,1.9,0,0,1-.46,1.239Zm1,.7c-.36-.141-.71-.275-1.09-.408.07-.274.11-.474.18-.673a3.787,3.787,0,0,1,.21-.524c1.18.283,1.3.466.7,1.58Zm2,.59-.87-.249.16-.64a1.745,1.745,0,0,1,.16-.524c.85.124.99.482.55,1.388Zm1.692.583-1.12-.383c.08-.391.16-.74.25-1.156.45.158.75.266,1.14.391C1017.872,1245.394,1017.792,1245.76,1017.692,1246.226Zm1.23.349-.81-.349c.52-.15.68.091.92.166Zm2.6.358a9.188,9.188,0,0,1,.1-1.05,3.627,3.627,0,0,0,.046-.705,1.26,1.26,0,0,0-.193-.513s-.24,0-.268.038c-.119.2-.359.49-.276.613.35.483.11.927,0,1.4-.7,0-.7,0-1.125-.345.249-.3.692,0,.977-.23,0-.444-.525-.306-.783-.536v-.721c0-.253-.074-.391-.341-.322a.654.654,0,0,0-.212.147.514.514,0,0,0-.12.206,2.063,2.063,0,0,0,0,.628c-.654,0-.663,0-.627-.4s.065-.767.1-1.135a.871.871,0,0,0-.811.384c-.175-.054-.424-.062-.535-.177a1.188,1.188,0,0,0-.5-.316,1.429,1.429,0,0,0-.624-.059c-.157,0-.387-.238-.507-.4a1.036,1.036,0,0,1-.12-.452c-.488-.2-.47.176-.664.329-.193-.091-.4-.176-.58-.252,0-.284.055-.529.074-.767a.892.892,0,0,0-.093-.238l-.654.077a2.812,2.812,0,0,0,.129.613,1.351,1.351,0,0,1-.457-.1,1.138,1.138,0,0,1-.372-.244c.055-.245.368-.574-.074-.766s-.47.207-.673.437c-.4-.169-.636-.36-.553-.721a.474.474,0,0,0,0-.253.28.28,0,0,0-.087-.144.366.366,0,0,0-.166-.083.407.407,0,0,0-.193,0,.364.364,0,0,0-.162.087.317.317,0,0,0-.083.108,1.2,1.2,0,0,1-.1.314c-.442-.069-.589-.238-.46-.621s.11-.429-.47-.475c-.047.168-.1.345-.157.559-.922-.291-.212-.766-.36-1.318a4.583,4.583,0,0,1,.682.23c.775.383,1.494.828,2.3,1.157,1.106.445,2.249.813,3.392,1.2q.375.06.756.084a5.788,5.788,0,0,1,.921.253c.249.092.2.261,0,.46a6.024,6.024,0,0,1-1.594-.46v.43a5.483,5.483,0,0,0,1.6.666,12.939,12.939,0,0,0,1.705.085l.571-1.027a3.971,3.971,0,0,0-.249-.66l1.2.138c-.239.767-.46,1.411-.682,2.1.544,0,.544,0,.922-.958l1.355.2c.092.306-.065.421-.424.391s-.7-.177-1.041.046c.212.467.755.276,1.078.391a8.729,8.729,0,0,1,.369,2.866Zm2.479.673-1.13-.091c.06-.217.11-.383.17-.566l1,.058a5.081,5.081,0,0,1-.04.582Zm1,.092v-.616c.77.075.77.075.83.665Zm0-1.423c0-.1.18-.282.27-.274.39,0,.36.274.32.59-.35.009-.63.017-.59-.365Zm0-.781c-.16-.258-.27-.433-.45-.707l-1,.707c-.08.465,1,.274.68.906l-.9-.058c-.1-.624-.2-1.231-.29-1.846.11,0,.2-.067.26-.042a12.578,12.578,0,0,0,4.33.352l1.02-.027,3.74.216a1.45,1.45,0,0,1,.6.149c-1,.059-1.85.483-2.88.233a3.677,3.677,0,0,0-1.6.133,1.464,1.464,0,0,1-1.011.016,1.262,1.262,0,0,1-.423-.246,1,1,0,0,1-.266-.368c-.14.216-.18.374-.3.449s-.41.108-.41.033a.787.787,0,0,0-1.1.083Zm5,1.122c-1.15.233-1.21.208-1.23-.54.9-.133.9-.133,1.23.524Zm-3.854,1.4c-.088-.675-.165-1.3-.253-2.018h.956l.593,2Zm1.286-1.625c.84-.308,1-.258,1.1.607h-.82Zm.42,1.546a2.207,2.207,0,0,0-.09-.732,8.447,8.447,0,0,0,2.51,0c.45,0,.45,0,.57.557Zm2.78-1.988,1.1-.216.47.7c-.27.05-.46.1-.65.125a3.606,3.606,0,0,1-.52,0Zm1.28,1.722c-.48.05-.52-.242-.6-.574a2.158,2.158,0,0,1,.772-.071,2.067,2.067,0,0,1,.738.2l.34-.616-.74-.831,1.1-.133.94,1.746Zm3-.391c-.29-.616-.56-1.181-.85-1.813l.93-.125.3.574-.6.274.85.175c.06.191.13.391.21.657Zm.93-2.282c.36-.175.55,0,.69.349l-.6.308c-.16-.275-.41-.482-.05-.657Zm1.138,2-1.13.1c-.06-.233-.13-.466-.2-.715a.7.7,0,0,1,.274-.1.744.744,0,0,1,.3.012.676.676,0,0,1,.261.123.543.543,0,0,1,.164.211,2.612,2.612,0,0,0,.35.374v-.915c.31-.075.6-.133.93-.2l.26.524-1.17.59Zm3.182-1.032c-1.25,0-1.4-.142-1.72-1.431l.85-.316a6.947,6.947,0,0,0,.44.907c.26.266.54.465.47.823ZM1039.4,1243h.6v.366c.4.058.94-.083,1.05.516l-.74.315Zm1.372,2.743-.38-.624a2.77,2.77,0,0,1,.79-.216c.19,0,.37.183.7.358Zm1.46-.615-.31-.566.94-.5c.7.624.65.707-.59,1.048Zm1.68-.566-.48-.632.93-.424.58.665Zm2.088-.574c-.45,0-.76-.191-.82-.5,0-.158.2-.357.31-.54.65.208.59.574.51,1.023Zm1-1.323-.63-.515.08-.15h.46a.48.48,0,0,1,.2.126.361.361,0,0,1,.095.2.341.341,0,0,1-.042.208.424.424,0,0,1-.166.159Zm0,.009-.4-.449c.24-.282.48-.3.7-.066s.02.4-.3.54Zm6-4.566a26.121,26.121,0,0,1-3.94,3.809s-.08.083-.12.083h-.51c0-.141,0-.349.07-.416a11.969,11.969,0,0,1,1.3-.832.592.592,0,0,0,.327-.315.469.469,0,0,0-.027-.416,23.608,23.608,0,0,0-2.68,1.713c-.2-.283-.37-.524-.57-.832.8-.449,1.6-.873,2.36-1.33a5.711,5.711,0,0,0,.75-.649c.46-.416,1-.832,1.39-1.264a.744.744,0,0,1,.423-.225.843.843,0,0,1,.5.059l-1.89,2.32a1.183,1.183,0,0,0,.576-.081.946.946,0,0,0,.424-.335c.54-.6,1.1-1.189,1.65-1.788l.18.091a4.006,4.006,0,0,1-.21.433Zm.312-2.694a.613.613,0,0,1-.225.088.689.689,0,0,1-.248,0,.622.622,0,0,1-.223-.091.5.5,0,0,1-.154-.162c-.54,0-.83.582-1.43.4l-.35-.532c-.34.233-.35-.167-.45-.175a2.336,2.336,0,0,0-.71.2c-.55-.358.53-.566.09-.973l-.73.3-.5-.324.82-1.181c-.31-.158-.46.05-.65.2s-.39.1-.53-.183l1-.623.21.607a.594.594,0,0,1,.337.124.424.424,0,0,1,.163.275c.12.574.73.832,1.11,1.264a.848.848,0,0,0,.52.158,13.249,13.249,0,0,0,1.41,0,1.275,1.275,0,0,0,.54-.258c.5-.349,1-.715,1.51-1.106a1.732,1.732,0,0,1-.361,1.2A2.332,2.332,0,0,1,1053.312,1235.414Zm1.688-3.726c0,.516-.55.774-.9,1.115a13.062,13.062,0,0,1-1.1.948l-.16-.1a2.623,2.623,0,0,1,1-1.347,3.409,3.409,0,0,0,1.24-1.189,7.848,7.848,0,0,1,.51-.608c.31.649-.56.749-.59,1.206Zm2-2.32a.532.532,0,0,1-.23.135.629.629,0,0,1-.28.015.544.544,0,0,1-.174-.2.449.449,0,0,1-.046-.243c0-.108.18-.216.29-.324.25-.258.52-.516.92-.907a13.13,13.13,0,0,1-.48,1.547Zm-49.928-20.408a9.946,9.946,0,0,1-1.85-.832l.06-.133a1.908,1.908,0,0,1,.44,0c1.74.54,3.47,1.1,5.22,1.663.83.25,1.69.433,2.53.649a6.014,6.014,0,0,1,1,.291c1.23.6,2.67.832,3.82,1.53a6.937,6.937,0,0,1,2.53,1.006c1.3.674,2.77,1.023,4,1.747,1.72.973,3.49,1.879,5.24,2.811.28.15.54.308.57.6-.23.249-.42.108-.6,0-1.46-.832-2.91-1.664-4.39-2.495-.7-.366-1.46-.641-2.19-.965-.31-.141-.6-.324-.91-.474-1.57-.765-3.25-1.347-4.86-2.046a43.307,43.307,0,0,0-5.07-1.755Zm4.928,28.275a18.131,18.131,0,0,1-5.27-2.594c-.18-.133-.34-.291-.51-.433l.12-.166c.25.116.51.216.76.341,1.13.532,2.23,1.123,3.4,1.6,1.51.632,3.08,1.173,4.61,1.763a13.814,13.814,0,0,0,2.83.832,12.593,12.593,0,0,1,2.09.673,3.408,3.408,0,0,0,2,.358c0,.432-.38.424-.66.366a12.2,12.2,0,0,1-1.64-.5,6.383,6.383,0,0,0-2.41-.491,3.466,3.466,0,0,1-1-.216c-1.47-.516-2.88-1.048-4.32-1.53Zm16.472-18.928c-.66.208-1-.124-1.46-.3-.87-.349-1.72-.74-2.56-1.148s-1.68-.881-2.56-1.264a23.231,23.231,0,0,0-4.5-1.946s-.12,0-.15-.05c-1.06-.881-2.57-.915-3.84-1.405a.567.567,0,0,1-.2-.108.568.568,0,0,0-.07-.225,4.777,4.777,0,0,1,2,.391c1.33.466,2.66.923,3.94,1.472s2.29,1.139,3.44,1.663c.93.441,1.89.832,2.82,1.289s1.82.89,2.73,1.339C1028.242,1218.124,1028.4,1218.182,1028.472,1218.307Zm-21.78,1.248a2.667,2.667,0,0,1,.55.149c1.28.691,2.53,1.423,3.83,2.088s2.5,1.2,3.74,1.8c1,.475,2,.982,2.92,1.464.21.108.44.2.66.291l1.09.458-.09.224a7.5,7.5,0,0,1-1.17-.258c-.53-.2-1-.482-1.53-.706s-.94-.383-1.4-.591-1.16-.549-1.72-.832-1.33-.673-1.95-1.064a.593.593,0,0,0-.192-.108.7.7,0,0,0-.456,0,.593.593,0,0,0-.192.108c-.21-.69-.93-.89-1.52-1.2s-1.06-.507-1.58-.773a1.955,1.955,0,0,1-.628-.442A1.565,1.565,0,0,1,1006.692,1219.555Zm2.3-1.223c2.92,1.447,6.09,2.495,8.92,4.075,0,.075,0,.1-.06.117a.211.211,0,0,1-.07,0,.616.616,0,0,1-.16,0q-1.022-.306-2-.7a50.3,50.3,0,0,1-6.87-3.376c-.06-.042-.08-.117-.14-.225A1.214,1.214,0,0,1,1008.992,1218.332Zm7.61,9.364c-.61-.316-1.2-.648-1.83-.948-.33-.158-.72-.207-1.05-.374a18.511,18.511,0,0,1-2.93-1.555c-.83-.624-1.8-1.073-2.64-1.663a5.582,5.582,0,0,1-.5-.424l.16-.15c1.14.649,2.25,1.314,3.41,1.929s2.45,1.248,3.69,1.847c.67.316,1.37.59,2,.889a1.1,1.1,0,0,1,.33.208c.06.059.11.2.07.25a.56.56,0,0,1-.32.166A1.448,1.448,0,0,1,1016.6,1227.7Zm-11.92-.973c-1.58-1.081-3.07-2.245-4.6-3.384a2.4,2.4,0,0,1-.3-.366c.28-.283.51-.4.8-.125s.88.765,1.26,1.181a16.47,16.47,0,0,0,4.55,3.327c1.14.6,2.36,1.081,3.74,1.663-.42-.083-.67-.125-.9-.183A14.411,14.411,0,0,1,1004.682,1226.723Zm9.24,9.149a31.774,31.774,0,0,0,3.14.914.828.828,0,0,1,.443.189.593.593,0,0,1,.207.377,9.479,9.479,0,0,1-1.39-.2c-.77-.249-1.5-.59-2.26-.831-.56-.2-1.16-.308-1.7-.533-.95-.382-1.86-.831-2.78-1.239a3.85,3.85,0,0,1-.63-.341c-.24-.158-.46-.349-.69-.532l.1-.116a2.443,2.443,0,0,1,.41.1C1010.482,1234.383,1012.172,1235.173,1013.922,1235.872Zm-8.07-11.785c.84.532,1.64.965,2.36,1.48a29.114,29.114,0,0,0,4.41,2.446l.66.357a.984.984,0,0,1-.08.15,8.632,8.632,0,0,1-1.29-.391,21.942,21.942,0,0,1-4.26-2.37,2.078,2.078,0,0,1-.4-.35,1.21,1.21,0,0,0-.348-.378,1.466,1.466,0,0,0-.5-.229.753.753,0,0,1-.258-.094.657.657,0,0,1-.2-.168.543.543,0,0,1-.1-.218A.492.492,0,0,1,1005.852,1224.087Zm-4,8.913a2.49,2.49,0,0,0-.37-.216,6.369,6.369,0,0,0-2.29-2.021.414.414,0,0,1,.68-.233,3.908,3.908,0,0,1,1.06.832,15.492,15.492,0,0,0,4.12,3.767c-.55.116-.6.117-1-.249-.71-.608-1.43-1.256-2.16-1.88ZM1016,1215.288l7,3.244a3.062,3.062,0,0,1-.69,0c-1-.366-2-.749-3-1.14-.4-.158-.76-.39-1.15-.557a11.332,11.332,0,0,1-2.16-1.53Zm-15.248,14.346,4,3.086a.673.673,0,0,1-.71-.05l-1.28-.641a.884.884,0,0,1-.32-.208,5.759,5.759,0,0,0-1.73-1.663C1000.472,1230.017,1000.332,1229.817,1000.752,1229.634Zm25.248,8.9v-.158a6.45,6.45,0,0,1,.88-.1,28.755,28.755,0,0,0,4.64-.274s.09.049.19.108c-.11.457-.67.524-1,.532A24.057,24.057,0,0,1,1026,1238.533Zm-8.568-2.778,1.51.341,4,.923a1.02,1.02,0,0,1-.509.283,1.2,1.2,0,0,1-.611-.017,29.087,29.087,0,0,1-4.09-1.139.607.607,0,0,1-.2-.167A.482.482,0,0,1,1017.432,1235.755Zm-10.83-12.433c.62.391,1.21.832,1.81,1.223a1.128,1.128,0,0,1,.31.232c.09.117.22.325.16.391a.568.568,0,0,1-.56-.066c-.17-.142-.41-.308-.62-.458l-3.14-2.361c-.18-.134-.38-.242-.57-.358l.13-.166C1004.992,1222.274,1005.782,1222.79,1006.6,1223.322Zm-.15,6.138c-.46-.366-1.17-.524-1.46-1.2l6.42,3.826a4.321,4.321,0,0,1-1.67-.624c-.54-.324-1.11-.616-1.64-.94A17.4,17.4,0,0,1,1006.452,1229.46Zm-6.12-8.184c.13,0,.27,0,.31.042a26.915,26.915,0,0,0,3.54,3.027.356.356,0,0,0,.08.191C1003.172,1224.312,1001.4,1222.84,1000.332,1221.276Zm9.668,11.859a6.7,6.7,0,0,1-3.64-1.921,14.733,14.733,0,0,1,3.64,1.905Zm9,4.35a30.653,30.653,0,0,1,3.9.682c-.07.374-.26.449-.51.4-.43-.091-.85-.191-1.27-.3s-1.06-.266-1.58-.416a1.152,1.152,0,0,1-.54-.383Zm-7.008-3.393a16.671,16.671,0,0,1,3.61,1.114c-.58.391-1,.125-1.43,0A5.112,5.112,0,0,1,1011.992,1234.092Zm1.938,5.908,2.07.832v.158a2.738,2.738,0,0,1-.64,0c-.61-.158-1.23-.308-1.42-.99Zm-13.2-19.555a4.092,4.092,0,0,1,1.88,1.663A7.037,7.037,0,0,1,1000.732,1220.445Zm3.268-.117a2.78,2.78,0,0,1,1.55,1.131,3.708,3.708,0,0,1-1.55-1.156Zm2.8,12.342-.1.116-1.42-.831C1005.922,1232,1005.922,1232,1006.8,1232.67Zm42.2-7.784v-.1C1049.528,1224.824,1049.421,1224.857,1049,1224.886Zm-57.008-22.994a.22.22,0,0,1,0,.108h-.14c-.03,0-.26-.233-.4-.349.09-.042.18-.133.25-.125a.405.405,0,0,1,.134.047.331.331,0,0,1,.1.085.281.281,0,0,1,.055.112A.265.265,0,0,1,991.992,1201.892Z" transform="translate(-981.718 -1184.684)" fill="#101a24" opacity="0.1"/>
</svg>
