<svg xmlns="http://www.w3.org/2000/svg" width="190" height="172.15" viewBox="0 0 190 172.15">
  <path id="ajo5" d="M1351.027,1474.382a27.532,27.532,0,0,0-8.237,4.87,19.4,19.4,0,0,1-2.647,2.329,8.951,8.951,0,0,0-3.98,5.569,19.978,19.978,0,0,1-.932,3.79,3.979,3.979,0,0,0,.338,4.236c.784,1.142,1.461,2.349,2.118,3.535.487.847.466,1.652-.551,2.118s-.741.867-.423,1.588a2.125,2.125,0,0,1,0,1.609c-1.122,2.5-2.436,4.913-3.452,7.432a60.839,60.839,0,0,1-5.759,9.761c-1.08,1.694-2.689,3.028-3.875,4.637-2.118,2.9-4.637,5.485-6.691,8.47-3.388,4.891-7.263,9.38-11.032,14.038a60.132,60.132,0,0,0-7.793,13.34c-.825,1.927-1.8,3.791-2.71,5.653-1.63,3.368-3.3,6.691-4.849,10.058-1.059,2.266-1.884,4.616-2.9,6.882-1.207,2.688-2.477,5.336-3.769,7.982-1.927,4-3.7,8.068-5.865,11.943a70.608,70.608,0,0,1-12.557,15.246,3.832,3.832,0,0,1-1.461.929q-5.633,1.718-11.307,3.325a8.887,8.887,0,0,0-4.235,2.118c-2.117,2.118-4.362,4.235-6.5,6.48a7.1,7.1,0,0,1-3.854,2.117,29.5,29.5,0,0,1-3.3.508c-.953,0-1.906-.19-2.859-.127a5.607,5.607,0,0,0-3.473,1.716,9.544,9.544,0,0,1-2.731,2.116,13.921,13.921,0,0,0-5.315,4.129,19.6,19.6,0,0,0-1.8,2.986c1.673.613,2.838,1.016,4.235.359s3.325-1.481,5-2.264a17.337,17.337,0,0,1,6.48-2.118,53.64,53.64,0,0,1,7.834.148,7.1,7.1,0,0,0,3.2-.361,24.087,24.087,0,0,0,4.764-2.731,12.143,12.143,0,0,1,5.4-2.625,25.235,25.235,0,0,1,6.056-.3c4.7.422,9.381,1.037,14.06,1.693a59.327,59.327,0,0,0,14.611.869c3.07-.319,6.14-.4,9.189-.72a36.372,36.372,0,0,0,8.894-1.5,6.508,6.508,0,0,1,1.948-.148c2.689,0,5.378,0,8.046-.212,3.049-.254,6.077-.847,9.127-1.227a45.78,45.78,0,0,0,11.561-3.558c4.658-1.906,9.232-4,13.827-6.056a36.477,36.477,0,0,0,5.082-2.477c3.514-2.266,7.03-4.531,10.376-6.988s7.3-4.34,9.761-7.9a1.054,1.054,0,0,1,.4-.4,8.467,8.467,0,0,0,3.2-3.24,7.724,7.724,0,0,1,.742-.911,67.512,67.512,0,0,0,6.86-8.152,132.14,132.14,0,0,0,8.724-12.323,46.268,46.268,0,0,0,5.23-10.969c.572-2.265,1.419-4.489,2.117-6.754.891-3.07,1.864-6.162,2.456-9.3a37.479,37.479,0,0,0,.382-13.594c-.423-2.5-.508-5.061-.846-7.6-.212-1.545-.742-3.049-.912-4.616a40.755,40.755,0,0,0-3.028-10.332c-1.312-3.557-2.837-7.051-4-10.588a13.951,13.951,0,0,0-3.325-5.886,16.093,16.093,0,0,1-1.63-1.969,43,43,0,0,0-9.084-10.206c-2.118-1.545-3.875-3.769-6.649-4.425a.665.665,0,0,1-.252-.133.645.645,0,0,1-.171-.227c-.889-1.948-2.9-2.795-4.235-4.235a1.7,1.7,0,0,0-1.017-.529,20.626,20.626,0,0,0-5.8-.805,5,5,0,0,1-3.642-1.122,30.161,30.161,0,0,0-9.168-4.468A5.805,5.805,0,0,0,1351.027,1474.382Zm.169,3.43,2.118,3.6c-1.779,0-2.118-1.694-3.494-2.117-.932,1.884,1.736,2.117,1.418,3.6-.952.614-1.461-.3-2.116-.783a22.973,22.973,0,0,1-1.738-1.927Zm-4.807,23.842a3.705,3.705,0,0,0-1.609-1.99c-1.038-.741-2.329-1.291-2.584-2.795a.6.6,0,0,0-.12-.251.616.616,0,0,0-.218-.172c-1.5-.36-1.885-1.779-2.584-2.817a5.762,5.762,0,0,1,.212-6.352c.148.572.254,1.144.445,1.694a3.029,3.029,0,0,0,.656,1.165c.148.169.572,0,.889,0a2.108,2.108,0,0,0-.106-.8l-1.016-3.3a9.651,9.651,0,0,1,3.749-2.562c-.488,0-.784-.381-.3-.741,1.016-.784,2.117-1.482,3.112-2.118.7,1.017,1.314,1.842,1.864,2.753a2.708,2.708,0,0,1,.19,1.122,4.25,4.25,0,0,1-1.122-.381,22.946,22.946,0,0,1-1.716-1.63l-2.117,1.1c1.97-.106,3.134,1.228,2.711,3.493l-2.118-2.5c-1.439-.127-.169,1.4-.973,1.779a14.286,14.286,0,0,0-1.885,1.312c-.148.551-.3,1.144-.445,1.737a1.671,1.671,0,0,1,1.482,1.545c.17,2.817,2.35,4.468,3.642,6.627a5.69,5.69,0,0,1,.678,1.335,2.817,2.817,0,0,0,3.663,1.884,4,4,0,0,1-3.409-2.964c1.313.826,2.33,1.418,3.282,2.118.169.126,0,.55.127.867a28.583,28.583,0,0,0,3.282.234,30.268,30.268,0,0,0,3.409-.446l2.118,3.367-1.842.445c-.213-1.61-.742-2.795-2.415-2.922a4.333,4.333,0,0,0,.7,2.625c-.466.4-.847.784-1.335,0a11.305,11.305,0,0,0-2.689-2.6v2.286l-1.165-1.038c-.253.233-.55.382-.676.636a1.143,1.143,0,0,1-.3.392,1.111,1.111,0,0,1-.93.235,1.123,1.123,0,0,1-.447-.2A5.119,5.119,0,0,1,1346.389,1501.654Zm18.467-9.719a29.941,29.941,0,0,1-6.733,4.468,6.15,6.15,0,0,1-2.478.529,33.436,33.436,0,0,0,8.089-7.093c-.721-.106-1.165-.317-1.4-.169a7.94,7.94,0,0,0-2.52,1.821,17.658,17.658,0,0,1-6.648,4.7,15.294,15.294,0,0,1-2.711,1.144c-.466.169-1.058.318-1.27-.614l6.48-3.769c.169-.106.4-.149.507-.3.974-1.334,1.927-2.689,3.113-4.362a4.883,4.883,0,0,0-1.313.4c-.889.656-1.736,1.355-2.582,2.117a22.053,22.053,0,0,1-5.464,3.282c-.678.318-1.5.191-2.118,1.122s-1.228-.444-1.779-.995c4.045-3.3,9-5.145,12.24-9.613,1.5.741,3.261,1.271,4.087,3.176a3.2,3.2,0,0,0,1.1,1.1l4.023,3.028-1.482,1.4v-1.758A3.3,3.3,0,0,0,1364.856,1491.935Zm26.954,21.075a8.954,8.954,0,0,1-.149,1.99h-.254l-.678-1.5c.381-.19.72-.4,1.081-.572l1.354-1.313c1.1,1.716,1.1,1.716,0,2.584l-1.44-1.271Zm-11.351,6.748,2.9.17c.254,1.185.466,2.117.7,3.387l-3.2-.487C1380.756,1521.939,1380.629,1520.986,1380.459,1519.758Zm-1.673,2.774c-.995-.593-1.036-.8-.613-3.007C1378.914,1520.838,1378.914,1520.838,1378.786,1522.532Zm-13.763,14.631-2.562-.254,2.117,1.8a17.2,17.2,0,0,1-.317,2.117l-4.024-1.652c.721,1.716,2.5,2.118,3.579,3.3a17.7,17.7,0,0,1-.38,2.646l-5.485-2.9,2.964-9.444c1.377.7,2.626,1.249,3.791,1.927S1365.383,1536.211,1365.023,1537.163Zm3.177,1.885-1.907-1a13.05,13.05,0,0,1,.277-1.927C1368.961,1536.359,1369.216,1536.846,1368.2,1539.048Zm-2.245.846c2.287.635,2.308.635,1.779,2.923l-2.118-1.1C1365.722,1540.932,1365.849,1540.382,1365.955,1539.894Zm-.955,3.474,2.118.91c-.212.783-.445,1.567-.7,2.5-.762-.36-1.4-.656-2.117-1.037a20.621,20.621,0,0,1,.7-2.436Zm2-12.41c1.724.275,1.953.459,2,1.953v2.989c-2.806-1.885-2.806-1.885-2-5.012Zm-1.638,2.31c-1.694-.531-1.757-.869-.931-3.834l1.693.615ZM1362,1532c-.783.106-1.228-.1-1.164-.783.275-3.832.572-7.665.889-11.773,1.271.678,1,1.483,1.038,2.118a29.808,29.808,0,0,0,0,3.9c.19,1.186-.678,2.118-.424,3.367a9.6,9.6,0,0,1-.339,3.049Zm5-3.154c.565-1.122,1.454-1.08,2-1.461v2.583c-.589-.3-1.351-.318-2-1.249Zm-1-.4c-1.672-.423-2.118-1.142-1.524-3.134,2.18.806,2.2.869,1.524,3.008Zm2-5.631c2.117.867,2.117.91,1.376,3.451-2.054-.678-.529-2.562-1.376-3.579Zm-2,1.756c-1.673,0-1.885-.295-1.758-1.651a16.274,16.274,0,0,1,.318-2.244c1.969,1.038,2.118.995,1.44,3.769Zm2-5.081c1.165,0,1.334.72,1.313,1.863-1.1-.508-1.758-.826-1.313-1.99Zm-2,.572-1.715-.784c.106-.635.191-1.186.276-1.757,1.736.4,1.736.4,1.439,2.414Zm3-4.235.213,2.329c-1.377-1.249-1.377-1.249-.213-2.478Zm-2,.826a8.74,8.74,0,0,1-1.228-.3,5.364,5.364,0,0,1-.678-.36,7.538,7.538,0,0,1,0-.974,11.106,11.106,0,0,1,.318-1.186c1.524.191,1.292,1.4,1.588,2.774Zm-4,1.354h-.423c0-1.927.211-3.832.36-6.162a10.826,10.826,0,0,1,.063,6.014Zm1.727-12h.487a20,20,0,0,1,.784,6.352c-.488-.318-.954-.466-.975-.656C1364.875,1509.832,1364.727,1507.864,1364.727,1506Zm-1.356,6c-.486-.338-.867-.444-.867-.614a13.583,13.583,0,0,1,.614-5.442,9.62,9.62,0,0,1,.233,6.056Zm3.812-3.867a9.388,9.388,0,0,1,.826,5.315A8.833,8.833,0,0,1,1367.183,1508.133Zm4.235-1.185c1.312-.423,1.906,0,2.118,1.291l-1.313.657c.232.254.338.466.466.466a1.5,1.5,0,0,1,1.524,1.249c.55,2.457,1.165,4.912,1.8,7.622l-2.308.424c-.72-3.918-1.482-7.728-2.245-11.645Zm-11.476-7.284c.571,1.271,1.079,2.456,1.609,3.642l-.36.232-2.52-3.366ZM1351,1500a5.411,5.411,0,0,1,4.68-.423,4.45,4.45,0,0,1-4.68.507Zm20,4.912c-.3-.868-.763-1.8.36-2.879l1.63,3.112c-1.44.974-1.61.868-1.99-.148Zm7,.953c1.1-.4,1.4.423,1.863,1.545-.995,0-1.8.742-2.118-.465-.126-.211.043-.932.255-.932Zm-2.071,2.265c-.912-.148-.954-.846-1.038-1.545C1376.224,1506.694,1376.224,1506.694,1375.929,1508.133Zm8.469,2.351c-1.312,0-1.292-.953-1.715-1.419a5.815,5.815,0,0,0,.191,1.673l-3.748.4-.529-2.118c1.079,0,1.927-.762,2.816.211.169.191.825,0,1.27-.148l.783-.4Zm1.059-1.5c.783.509.8.488,1.418,1.61-.973-.339-.973-.339-1.312-1.525Zm-5.315,5.293-.678-1.693c3.262-1.249,4.426-.889,5.04,1.461-1.207.657-1.08-.741-1.8-1.185a2.119,2.119,0,0,1-2.456,1.5Zm-2.2-.273h-.826a9.071,9.071,0,0,1-.593-1.524c.551-.509.953-.445,1.144.106A8.433,8.433,0,0,1,1377.94,1514Zm-1.94-2.69a10.354,10.354,0,0,1-.488-1.821c1.1.191,1.885,1.4,1.4,1.906a.983.983,0,0,1-.464.081.968.968,0,0,1-.446-.145Zm11,.826c1.292.169,1.313.19,1.376,1.968-1.482.085-1.482.085-1.376-1.947Zm-9.569,3.514a1.714,1.714,0,0,1,.614,2.774,3.672,3.672,0,0,1-.614-2.774Zm7.5,4.35c1.756-.974,2.731-.551,3.239,3.049-2.393.551-2.774.212-3.3-3.049Zm5.1,3c-.148-.678-.424-1.335-.72-2.245l1.5-.4a6.724,6.724,0,0,1,1.081,3.536c-1.038.338-1.757.275-1.927-.889Zm-9.635-4.279c0-1.143-.148-1.927-.212-2.944l2.33-.212c.169,1,.317,1.8.487,2.9Zm3.6-2.686a1.523,1.523,0,0,1,1.927.508c.784.975.847,1.059.572,2.457h-1.673c-.276-1.059-.551-2.033-.826-3.071Zm4.421,2.686c-.3-.932-.593-1.906-.889-2.9,2.117-.36,2.943.445,2.9,3.2Zm6.579-3.579c1.4,1.884,1.376,2.224-.3,2.647-.953-2.033-.953-2.033.3-2.6Zm-4.652-3.282c-1.249-1.46-.677-2.455,1.715-3.006.72,1.693.72,1.693-1.651,3.048Zm-1.715-2.731a4.654,4.654,0,0,1,.169-1.822,1.453,1.453,0,0,1,2.351.191Zm-4.743-2.351c-1.821.7-2.117.614-2.922-1.1l1.758-.783c.486.741.867,1.312,1.227,1.927Zm3.726-1.63a15.978,15.978,0,0,1,1.758-.91c0,.572.254,1.227.127,1.291a3.688,3.688,0,0,1-1.906.657c-.423,0-.4-.7.086-1Zm-11.18-2.435c-.19-1.249-1.926-1.906-.783-3.409,1.525,1.461,1.778,2.244.847,3.451Zm2.118-3.028,3.112,3.853a2.161,2.161,0,0,1,0,.36c-.444,0-1.079.128-1.291-.126a24.553,24.553,0,0,1-2.287-3.769Zm-5,3.706c-.232-.614-.423-1.186-.761-2.118,1.736.889,1.821,1.229.719,2.16Zm-8.829-1.1c-.466.594-.974.89-1.482.233s-1.356-2.012-2.118-3.113c.317-.19.636-.465.72-.423A9.5,9.5,0,0,1,1364.727,1502.289Zm-7.412-3.289,2.753-.656a1.843,1.843,0,0,1-2.859.656Zm-11.858-7c-.36-1.99,0-2.985,1.526-3.6s2.9-1.122,4.235-1.757a20.242,20.242,0,0,0,2.117-1.292c.911-.508,1.8-1.058,2.732-1.482a2.25,2.25,0,0,1,1.5.127,50.6,50.6,0,0,1-12.218,8Zm-87.323,131.68a10.116,10.116,0,0,1,4.955-1.207l-4.87,1.631Zm17.659,11.647-.825-2.118,3.536-1.355,4.849,3.112A12.833,12.833,0,0,1,1275.793,1635.327Zm-11.667-4.023,1.44,1.355a1.26,1.26,0,0,0-.148.3l-3.367-.509Zm-3.919.7-1.207-.233v-.36l1.228.191a2.777,2.777,0,0,0-.127.4Zm42.986-15c.466.319.932.615,1.44.911-2.117,1.8-2.287,2.118-4.764-.762l1.8-1.143a10.7,10.7,0,0,0,1.419.994Zm0-1.7,2.118-1.313,2.71,1.779C1305.883,1617.666,1305.141,1617.583,1303.193,1615.3Zm-4.849,2.816c.911.446,1.758,1.038,2.647,1.588-1.08,1.124-1.08,1.124-3.727-1.016C1297.751,1618.429,1298.175,1618.027,1298.344,1618.111Zm-17.6,8.957c3.515-2.477,3.515-1.609,5.633.063l-3.452,1.694C1282.146,1628.212,1281.447,1627.66,1280.748,1627.068Zm.252,2.118c-1.863,1.483-2.52,1.461-4.637-.254,2.2-1.651,2.2-1.651,4.637.3Zm9.933-4.4-3.091,1.63-1.969-1.567,2.625-1.609Zm-.614-2.118c2.118-1.4,2.118-1.4,4.235.529l-2.223,1.059Zm-.6,4.743c1.63-1.313,2.35-1.567,3.663-1.461l2.88-1.779,1.736.911V1623.6l2.583-1.123,1.44,1.123a63.283,63.283,0,0,1-11.138,5.781Zm4.261-6.48c2.118-1.715,2.33-1.694,4.235.233C1296.968,1623.065,1295.443,1622.9,1293.982,1620.927Zm.625-2.265c-1.5,1.334-1.5,1.334-3.113.4l-3.494-1.99v-.53l2.118-1.186Zm-3.607,2.117-1.821.975-4.637-2.88,2.392-1.123c.7,1.546,2.711,1.652,4.066,2.965Zm-3.6,1.567-3.134,1.525-3.769-2.117,2.118-1.907Zm-5.4,2.117c-3.2,1.737-2.266,2.118-5.611-.38,2.308-1.482,3.959-1.4,5.611.508Zm-5,2.456-2.117,1.1-2.563-1.673c1.271-1.906,2.393-1.757,4.68.614Zm-7.305-.719,3.981,2.625c-.974.635-1.652,1.122-2.35,1.525a.806.806,0,0,1-.763,0c-1.736-1.1-3.43-2.244-5.145-3.388,0,0-.106-.231-.233-.529l3.07-1.651Zm7.305,4.87c-1.567,0-2.964,1.694-4.764.212,2.8-1.8,3.472-1.97,4.764-.169Zm-13-2.6c-.932.994-1.016.974-2.6-.891a1.914,1.914,0,0,1,.742-.192,1.883,1.883,0,0,1,.758.109,1.925,1.925,0,0,1,.656.4,1.959,1.959,0,0,1,.449.621Zm-3.029.742c-1.228.252-1.228.252-1.588-1.018Zm8.152,1.792-1.8,1.144c-.826-.806-1.567-1.568-2.393-2.352,1.779-.8,2.541-.551,4.256,1.208Zm4.786,4-2.88-.274c1.779-1.588,2.012-1.588,2.943.274Zm24.689-.077a40.407,40.407,0,0,1-11.984,1.039c2.414-.635,4.87-1.165,7.22-1.948a4.233,4.233,0,0,1,4.828.824Zm6.353-.667-.868.126a2.433,2.433,0,0,0,0-.382h.868a1,1,0,0,1,.042.171Zm-6.713-1.366a3.133,3.133,0,0,1,4.595-.147c-1.482,1.038-2.9,1.715-4.552.064Zm9.762.7c-.4.126-.974-.444-1.63-.8,1.588-1.144,2.964-1.927,4.827-.53a5.579,5.579,0,0,1-3.155,1.25Zm24.012-14.822c-1.207,1.863-1.5,1.97-3.176,1.122l-1.652-.953,1-.974c.275-.276.571-.528.973-.869Zm-1.694-2.647,1.567-1.5,1.694.741,1.5.763C1333.346,1618.239,1333.346,1618.239,1330.318,1616.121Zm5.682,4.891c-1.229,1.461-1.822,1.461-3.875,0,1.545-1.481,1.905-1.481,3.875-.021Zm-11-1.991c-1.927,1.843-2.117,1.843-4.044.615,1.545-1.905,2.011-1.99,4.044-.635Zm.913.53,3.008,1.5c-1.462,1.652-1.991,2.118-4.659-.127Zm4.554,2.118,1.354.487,1.292.508c-2.117,1.588-2.117,1.821-4.235.4Zm-4.489,1.609c-2.351,1.8-2.351,1.8-4.363.213l1.546-1.674Zm3.022,1.5c-1.017.466-1.779.847-2.562,1.122a3.868,3.868,0,0,1-.889-.255c1.5-1.63,1.5-1.63,3.451-.825Zm-7,.635c-1.355,1.566-1.355,1.566-3.24.36,1.313-1.525,1.652-1.568,3.24-.318Zm-6.674.232c-1.927,2.117-2.223,2.117-5.314.551l3.112-1.821Zm2.118.741,1.969,1.039c-1.525,1.779-1.884,1.82-4.362.529Zm-6.352,1.948c-1.546,1.864-3.3,1.166-5.273.529,2.245-2.01,3.007-1.99,5.4-.486Zm4.531,1.334c-2.8,2.435-2.711,2.117-5.018.741,1.715-.994,3.176-2.392,5.145-.7Zm-9.592.869c-.741,1.248-.741,1.248-3.981.191,1.567-1.165,2.816-.615,4.108-.148Zm8.131,2.266c1.779-1.229,3.345-2.436,5.018-3.41a17.9,17.9,0,0,1,3.452-1.122,4.494,4.494,0,0,0-.127-1.122c.656-.422,1.185-1.249,2.35-.657l-1.355,1.207a10.051,10.051,0,0,0,4.234-.994,31.639,31.639,0,0,1,3.643-1.526c-2.541,3.219-13.234,8.831-17.088,7.665Zm26.489-5.526a35.578,35.578,0,0,1-7.093,2.243c1.651-1.079,3.3-2.117,5-3.2.995-.509,1.377.382,2.223.995Zm1.589-1.017a14.064,14.064,0,0,1-4.532-2.9c-1.335.528-.338,1.335-.275,1.9-6.628,5.1-13.891,8.47-17.152,7.665a4.263,4.263,0,0,1,.72-.444,46.057,46.057,0,0,0,12.7-7.6c1.144-.931,2.711-1.313,3.494-2.751a.79.79,0,0,1,.334-.3.809.809,0,0,1,.44-.074.834.834,0,0,1,.411.173.8.8,0,0,1,.256.365c.317,1.4,1.418,1.927,2.393,2.646a4.981,4.981,0,0,1,1.333,1.355Zm6.945-7.475c.614-.593.867-1.017,1.1-1.017,1.292,0,2.118.911,3.176,1.822-1.863,1.355-2.478-.761-4.151-.761Zm8.067-.3c-.423.891-.889,1.377-2.117.933.847-.7,1.27-1.186,2.245-.89Zm2.435-1.481-1.566.761c.614-1.122.614-1.122,1.693-.72Zm3.155-2.457c-1.418,1.525-1.418,1.525-2.414.488.869-.382,1.335-1.461,2.542-.445Zm3.431-2.117c-1.842,1.525-1.842,1.525-2.943.339,1.4-1.525,1.4-1.525,3.069-.233Zm2.753-2.118c-1.208,1.292-1.208,1.292-3.028.212,1.461-1.545,1.461-1.545,3.154-.169Zm3.324-2.562c-1,1.673-1.334,1.736-3.452.594,1.144-1.864,2.414-.488,3.579-.551Zm1.694-1.4-.593.805-2.351-1.123a6.953,6.953,0,0,1,3.071.36Zm2.117-2.118c-1.1,1.165-1.609,1.144-5.462-.232.253-.508.486-.974.719-1.4Zm2.977-2.548c-1.662,1.979-1.894,2.1-4.209,1.01l-1.557-.715c1.705-.252,3.031,1.115,4.462-.147-.779-1.094-2.1-.7-3.093-1.242a22.62,22.62,0,0,0-3.095-1.115c-.315.631-.547,1.073-.735,1.515h-2.442l1.743,1.85c-.819,1.4-2.54,1.357-3.853,2.368l2.152,2.152c-.581.925-1.291,1.053-2.28.408a14.668,14.668,0,0,0-2.152-.882c-1.077,2.152,1.786,1.333,1.786,2.819-.367.624-.861,1.14-1.872.387a16.322,16.322,0,0,0-2.152-1.119c-.581,1.119-.581,1.119,1.441,2.668-.624,1.571-1.4,1.377-2.432.646s-2.151-1.356-3.119-2.022a1.451,1.451,0,0,0-.238.582,1.461,1.461,0,0,0,.818,1.569c.753.516,1.55.968,2.346,1.442-.99,1.764-1.269,1.85-2.776.688-.365-.279-.646-.71-1.054-.882a3.649,3.649,0,0,0-1.206,0,1.85,1.85,0,0,0,.26,1.226,20.284,20.284,0,0,0,2.15,1.679c-.344.28-.6.538-.881.8l-3.853-2.947a1.437,1.437,0,0,0-.344.592,1.417,1.417,0,0,0,.818,1.71c.689.473,1.442.882,2.409,1.443l-1.612,1.419c-1.485-.731-2.755-1.483-2.712-3.572-.645.366-1.378.516-1.721.969a2.578,2.578,0,0,1-.709.844,2.562,2.562,0,0,1-3.1.016c.236.99.409,1.637.538,2.152a8.607,8.607,0,0,1,4.756,2.884c-.56.581-1.034.687-1.572.15-1.054-1.032-2.152-2.022-3.184-3.034h-.157s-1.059-1.1-1.334-.364.36.783.784,1.1c1.08.824,2.117,1.757,3.07,2.6-.4,1.038-.931,1.016-1.609.55-1.292-.91-2.584-1.777-3.9-2.625a11.337,11.337,0,0,0-1.545-.7c-.593,1.334.275,1.736.974,2.118a43.744,43.744,0,0,0,3.981,2.116l-2.669,1.081a13.3,13.3,0,0,1-4.764-4.764c1.5-1.166,3.092-2.308,4.616-3.536a24.242,24.242,0,0,0,2.287-2.118c.53-.572.488-.614,0-1.758a9.756,9.756,0,0,0-.826.721,28.287,28.287,0,0,1-7.029,5.653,1.574,1.574,0,0,1-1.8,0c-.719-.424-1.482-.763-2.286-1.207a2.921,2.921,0,0,1,2.625-1.694,8.887,8.887,0,0,1,2.563,1l.211-.361-1.8-1.694c.317-.614,1.355-1.143.444-2.308l-2.371,1.673-3.367-1.736c1.482-1.377,2.838-2.668,4.234-3.96a1.419,1.419,0,0,1,1.8-.317l3.091,1.778c-1.186,1.25-2.244,1.842-3.769.975a1.585,1.585,0,0,0-1.969,0,18.843,18.843,0,0,0,3.854,1.862c1.227.276,2.117,1.716,3.769,1.038-.487-1.207-1.864-.8-2.457-1.694.89-.783,1.694-1.672,3.028-.7.55.4,1.081.254,1.547-.487l-1.42-.995a38.538,38.538,0,0,1,4.236-5.336c.55-.4,1.291-1.016.762-2.118-.4.191-.911.276-1.165.594a22,22,0,0,0-4.045,4.467c-.741,1.483-1.4,1.63-2.816.826-.784-.423-1.524-.91-2.329-1.418,1.482-1.547,2.817-2.859,4.066-4.235.4-.466,1.079-1.165-.128-1.842-1.227,1.313-2.434,2.689-3.7,3.959-2.286,2.244-4.6,4.468-6.946,6.628a5.129,5.129,0,0,1-1.5.72,8.806,8.806,0,0,1-.954,1.546c-.847.825-1.757,1.588-2.668,2.328-1.291,1.08-1.291,1.08-3.006-.211a12.73,12.73,0,0,0,2.117-1.758c.466-.593,1.631-1.122.657-2.392-.869.825-1.631,1.608-2.457,2.308s-1.037,1.249-1.99,1.058a.626.626,0,0,0-.445.233c-.148,1.568-1.778,1.5-2.413,2.456l-2.266-.91c.677,2.414,3.049,1.97,4.235,3.219-.36.973-1.4,1.079-2.118,1.608a25.748,25.748,0,0,0-4.912-1.736c.72,1.5,2.392,1.609,3.557,2.6a1.536,1.536,0,0,1-.952.916,1.529,1.529,0,0,1-.674.071,1.557,1.557,0,0,1-.64-.224,12.379,12.379,0,0,1-1.863-1.039,2.118,2.118,0,0,0-2.816.317,4.02,4.02,0,0,1-1.038.848c-3.282,1.779-6.522,3.578-9.846,5.273a45.4,45.4,0,0,1-11.053,3.988h-.572c-1.27.225-2.625,1.051-3.748.818a12.585,12.585,0,0,1-3.6-2.287l-1.715-1.249c1.969-1.248,2.71-1.248,4.234,0,.53.4.953.91,1.483,1.27s.889.466.868-.36a4,4,0,0,0-.53-.868c-.529-.55-1.122-1.016-1.863-1.652l3.451-1.566,1.97,1.481c-.932,1.082-2.711,1.06-3.028,2.6a73.57,73.57,0,0,0,11.476-5c2.245-1.206,4.447-2.477,6.628-3.768a12.073,12.073,0,0,0,1.546-1.356c-1.165-.55-1.842.148-2.541.487a1.554,1.554,0,0,1-2.118-.741l4.786-2.753c.8,0,1.588,1.7,2.647.106l-1.377-1.185,1.61-1.292,2.265,1.122-1.185,1.312a5.771,5.771,0,0,0,1.418-.126,42.068,42.068,0,0,0,9.232-5.865c.72-.657,1.567-1.144,2.351-1.736.211-.17.381-.424.741-.806a2.822,2.822,0,0,0-2.118.763c-2.308,1.5-4.637,2.943-6.881,4.532a3.287,3.287,0,0,1-4.045,0c1.44-1.081,2.816-2.118,4.235-3.156s2.774-2.117,4.235-3.3c.678-.593.678-.762.593-1.905-1.038,0-1.609.72-2.287,1.27-2.308,1.8-4.595,3.642-6.924,5.442a11.675,11.675,0,0,1-1.482.826l-2.562-1.864a26.3,26.3,0,0,1,6.331-5.548,29.851,29.851,0,0,0,7.009-5.271c.19-.234.487-.466.55-.763a.97.97,0,0,0-.211-.847.864.864,0,0,0-.847,0,30.855,30.855,0,0,1-2.33,2.371c-2.985,2.33-6.034,4.574-9.105,6.8-2.117,1.567-4.383,3.028-6.585,4.553l-3.854-2.965c-.339,2.372,1.864,2.393,2.478,3.6-1.44,1.123-1.864,1.1-3.156,0a21.641,21.641,0,0,0-2.307-1.482c-.149,1.164-.149,1.164,2.117,3.049-.275.742-.826,1.058-1.5.7-1.4-.8-2.711-1.715-4.235-2.689,1.884-1.5,3.578-2.88,5.314-4.235,2.118-1.673,4.235-3.218,6.353-4.955a17.4,17.4,0,0,0,2.308-2.9,1.2,1.2,0,0,0,0-.952,111.855,111.855,0,0,1-16.305,12.7,180.847,180.847,0,0,1-17.744,10.586l-1.4-.952c1.164-.635,2.117-1.186,3.2-1.757a19.334,19.334,0,0,0,2.477-1.588c.8-.572,2.012-1.42,2.986-2.118a12.328,12.328,0,0,0,1.249-1.335l-.254-.338a3.55,3.55,0,0,0-.953.3c-2.6,1.63-5.082,3.516-7.813,4.87-3.43,1.736-7.051,3.069-10.587,4.531a9.248,9.248,0,0,1-1.546.191c-1.313.3-2.6.635-4.235,1.015,1.207,1.738,2.605.763,3.847.891v1.312l-4.757,1.037a24.289,24.289,0,0,1-2.436,2.584c-1.4,1.08-2.922,1.968-4.4,2.944-.212.148-.529.231-.635.422-1.525,2.457-4.235,2.246-6.479,2.477a40.92,40.92,0,0,1-6.628-.381l11.053-1.037c-.233-1.25-.91-1.122-1.673-1.037-3.049.317-6.119.571-9.168.889a11.747,11.747,0,0,0-1.715.424c.338.359.444.55.614.613a6.5,6.5,0,0,0,.931.128,10.344,10.344,0,0,0-2.435.127,15.385,15.385,0,0,0-2.752,1.27,7.7,7.7,0,0,1-3.643,1.587,13.573,13.573,0,0,1,1.1-1.015c1.969-1.4,3.959-2.795,5.971-4.236a2.99,2.99,0,0,1,1.418-.529,11.85,11.85,0,0,1,5.442.339c1.229.53,2.266-.3,3.409-.36a.371.371,0,0,0,.16-.064.388.388,0,0,0,.116-.126c.55-1.99,2.329-2.964,3.642-4.236a47.946,47.946,0,0,1,4.235-3.979,20.764,20.764,0,0,1,2.837-1.61l1.609.89a15.016,15.016,0,0,0,3.049-1.272,21.057,21.057,0,0,1,5.866-1.947,55.344,55.344,0,0,0,5.8-2.329,25.593,25.593,0,0,0,3.366-2.265,29.718,29.718,0,0,0,3.473-2.521c2.117-2.117,4.235-4.425,6.352-6.606-.487-.868-.995-.551-1.376-.212-1.44,1.228-2.88,2.457-4.235,3.749s-2.414,2.371-3.6,3.578l-.36-.276a10.679,10.679,0,0,1,.763-1.143c1.122-1.186,2.287-2.35,3.409-3.515a41.028,41.028,0,0,0,5.823-8.681,73.619,73.619,0,0,0,3.663-7.178c1.821-4.108,3.43-8.322,5.272-12.429,1.631-3.621,3.452-7.158,5.188-10.736,1.038-2.117,1.991-4.234,3.092-6.352,1.609-3.133,3.134-6.352,5.039-9.295,3.219-4.913,6.84-9.571,10.058-14.483,2.965-4.553,6.353-8.724,9.529-13.213s5.865-8.469,8.66-12.7c1.483-2.309,2.731-4.764,4.023-7.179,1.1-2.117,2.118-4.065,3.156-6.119.359-.741.656-1.525.995-2.329.783.127.973.55.678,1.122l-4,7.5-.466.868-3.006,5.971c-1.059,2.118-2.118,4.235-3.2,6.353a42.763,42.763,0,0,1-2.9,4.827c-1.715,2.436-3.176,5.061-4.764,7.666a1.231,1.231,0,0,0,.521.246,1.214,1.214,0,0,0,1.076-.311,1.23,1.23,0,0,0,.309-.486c1.481-2.668,3.811-4.87,4.595-7.941a1.553,1.553,0,0,1,.36-.7,23.3,23.3,0,0,0,4.234-6.077,58.647,58.647,0,0,0,2.943-5.8c1.737-3.6,3.388-7.2,5.1-10.8,0-.213.338-.34.868-.826-.974,4.785-3.77,8.258-5.337,12.259s-3.345,7.877-5.1,11.964a1.6,1.6,0,0,0,.889-.149,6.183,6.183,0,0,0,2.542-5.081,2.327,2.327,0,0,1,.656-1.927,19.366,19.366,0,0,0,4.023-7.56c.4-1.207,1.27-2.308.995-3.705a.382.382,0,0,1,0-.19l2.668-3.706c.148.254.508.572.445.783a9.3,9.3,0,0,1-1.165,3.3,5.9,5.9,0,0,0-.805,1.843,59.306,59.306,0,0,1-2.477,6.161q-3.515,7.836-7.327,15.564c-1.207,2.392-2.625,4.658-3.959,6.987l-4.531,8.025a5.765,5.765,0,0,0,2.943-2.6,97.71,97.71,0,0,0,6.352-11.244c1.673-3.832,3.769-7.495,5.654-11.244.381-.762.614-1.587.974-2.35s.656-1.228.995-1.863c1.991.91,2.52,2.858,3.9,4.234-.19.7-.4,1.42-.678,2.351l-3.683-3.3-.318.191a3.3,3.3,0,0,0,.381,1.058c.55.635,1.249,1.164,1.8,1.8,1.42,1.631,1.441,2.117.276,4.128-1.419-1.016-1.419-1.016-1.292-2.794l-2.668.085c1.376,1.207.678,2.286,0,3.451-.486.847-.826,1.757-1.355,2.9,1.864-.678,2.6.7,3.494,1.652,1.439,1.524,2.774,3.154,4.087,4.785a15.347,15.347,0,0,1,1.143,2.012c.36.613,0,.931-.466,1.46l-7.114-7.284-.3.149c0,.19,0,.486.106.592,1.567,1.313,1.377,2.8.3,4.489l-1.5-1.27c-.36,1.122.72,1.4.995,2.308l-.7,1.609c-.255.53-.488,1.059-.741,1.61l-1.377-.339c1.461,2.328,0,3.9-.953,5.738l-1.779-1.567a6.2,6.2,0,0,0,1.588,3.134,64.568,64.568,0,0,0,4.574,5.886,2.117,2.117,0,0,1,.212,2.922l-.614.953a62.25,62.25,0,0,1-6.691-7.327l-1.376,3.113,1.567-1.1a1.3,1.3,0,0,1,.38.17l4.68,6.5c.572.783.233,1.334-.636,1.969l-5.674-6.522-.339.255a90.749,90.749,0,0,0,5.272,8.278l-.952,1.038-5.993-6.352c.148,1.779,1.567,2.71,2.393,4s1.97,2.6,2.943,3.854c-9.253,15.436-19.65,29.855-33.5,41.586a6.973,6.973,0,0,0,1.461-.657,51.6,51.6,0,0,0,4.235-3.366,89.468,89.468,0,0,0,7.03-6.861c2.541-2.8,4.891-5.759,7.263-8.724s4.447-5.484,6.48-8.469,4.234-6.564,6.351-9.846c1.186-1.821,2.458-3.579,3.537-5.442s1.715-3.367,2.562-5.04c1.207-2.477,2.541-4.87,3.6-7.41s1.652-4.828,2.478-7.242c1.249-3.6,2.625-7.136,3.726-10.778,1.335-4.382,2.541-8.829,3.6-13.3a72.248,72.248,0,0,0,1.313-8.47c.254-2.265.211-4.573.339-7.262l1.207,1.122c-.106-.847-.191-1.439-.3-2.117l1.842-.572c.212,2.117.445,3.918.551,5.8a58.046,58.046,0,0,1-1.08,9.549c-.424,3.452-1.165,6.84-1.736,10.291,0,.593-.446,1.249.254,1.863a8.928,8.928,0,0,0,1.461-4.044c.572-3.832.889-7.686,1.608-11.476a54.2,54.2,0,0,0,.509-10.143,11.4,11.4,0,0,1,.275-1.884,1.77,1.77,0,0,1,1.44,1.038v4.992a12.113,12.113,0,0,0,.208,2.064,8.634,8.634,0,0,1-.166,4.6,12.389,12.389,0,0,0-.371,3.425c-.124,2.414-.186,4.848-.31,7.283,0,.743,0,1.651-1.3,1.465a6.212,6.212,0,0,1,.743,1.589,4.335,4.335,0,0,1-.351,1.465c-1.321,4.333-2.5,8.728-4.126,13-.929,2.6-1.548,5.262-2.352,7.861-.97,3.1-2.436,6.046-3.673,9.058-.248.619-.537,1.238-.908,2.064a2.659,2.659,0,0,0,1.713-1.733,60.147,60.147,0,0,0,4.745-11.905,55.816,55.816,0,0,1,2.187-6.314c.392-1.073.825-2.064,1.258-3.281a7.418,7.418,0,0,1,1.073.516c2.064,1.32,4.313,2.7,6.48,4.127,1.073.66,1.093.639.557,2.27a61.331,61.331,0,0,1-7.635-4.127c.372,1.176.351,1.176,3.261,3.219,1.2.825,2.455,1.609,3.754,2.454l-.268,1.858c-2.971-.785-4.931-3.364-8.046-3.59,2.289,1.567,4.518,3.177,6.85,4.683a1.46,1.46,0,0,1,.557.4,1.479,1.479,0,0,1,.313.611,1.45,1.45,0,0,1,0,.687,1.479,1.479,0,0,1-.313.611l-4.85-2.455a6.2,6.2,0,0,0,2.559,2.806c.31.227.7.33,1.032.537,1.031.68,1.031.722.372,2.31-1.609-.969-3.219-1.9-4.87-2.868,0,1.094.722,1.754,4.395,4.478a2.853,2.853,0,0,1,0,.68,5.105,5.105,0,0,1-.412.6c-1.59-.474-2.415-2.062-4.374-2.414a14.57,14.57,0,0,0,2.97,3.157c.991.764.969.784.309,2.374l-4.766-3.1c.207.619.228,1.011.433,1.2,1.054.908,2.064,1.774,3.24,2.641.639.516.97,1.032.124,1.8l-2.291-1.63-.371.392,2.187,2.7a10.843,10.843,0,0,1-.226,1.589l2.352-.64a5.775,5.775,0,0,1,1.423-5.736c0-.165.31-.33.289-.474-.433-2.456,1.114-4.5,1.445-6.788s.783-4,1.217-6a5.261,5.261,0,0,1,.453-1.466,28.593,28.593,0,0,0,2.064-7.263,61.07,61.07,0,0,0,1.156-6.354,72.656,72.656,0,0,0,.371-8.253c0-4.127-.248-8.4-.433-12.607a35.193,35.193,0,0,0-.433-4.126c1.03,0,1.134.68,1.217,1.2q.784,6.066,1.505,12.133c-.009.192-.009.385,0,.577a53.855,53.855,0,0,1,.454,8.728,2.436,2.436,0,0,0,.888,2.063,8.06,8.06,0,0,0,.393-4.375c-.208-3.713-.454-7.407-.7-11.1V1520h2.254a31.2,31.2,0,0,0,1.746,8h.386c0-1.255.1-2.53.162-4.113a23.466,23.466,0,0,1,1.929,8.7c-1.177,1.337-2.4-.7-3.776,0,1.136,1.316,2.74.822,4.061,1.48.548,3.764,1.116,7.589,1.685,11.538l-2.03.186-.123.349,1.706.678V1551h-2.336c.169,1.6,1.6.842,2.105,1.579-.169.61-.316,1.283-.526,2,1.578.231,1.094-1.305,1.83-1.768l4.883.294c-.168,1.116-.316,2.1-.506,3.41l-5.134-.758c.632,1.178,1.556,1.073,2.294,1.22s1.663.253,2.715.421c-.233,1.011-.421,1.873-.674,2.9l-2.925-.441c.526,1.325,1.726.842,2.315,1.452.4,1.43-.484,2.44-1.305,3.619l-1.43-.21a1.45,1.45,0,0,0-.127.273l1.578,1.179-1.663,5.6-3.325-.757c.758.968,2.1,1.6,5.346,2.567a25.242,25.242,0,0,1-2.841,9.07,49.239,49.239,0,0,1-6.314,10.059,28.868,28.868,0,0,0-2.546,4.672c2.105,1.2,5.072.883,7.071,2.861-.463.547-.905,1.01-1.3,1.516Zm-31.965-63.176-7.2-6.945c.382-.826.763-1.673,1.186-2.54,1.842.825,1.631,2.117,1.123,3.9l1.545-.91,4.426,5.208a6.583,6.583,0,0,1-.487,1.419A1.632,1.632,0,0,1,1347.173,1538.518Zm-2.88-7.877c.4-.952.72-1.736,1.059-2.519a5.682,5.682,0,0,1,2.118,3.028,1.814,1.814,0,0,0,.445.614c.381.4,1.058.741,1.121,1.164a8.477,8.477,0,0,1-.4,2.457Zm4.658-3.6c1.652,1.207,1.673,1.271,1.017,3.24C1348.19,1529.477,1348.126,1529.308,1348.951,1527.042Zm-1.587.593c-1.461-1.123-1.461-1.123-.657-3.282C1348.486,1525.264,1347.427,1526.471,1347.364,1527.635Zm2.541-5.548a3.073,3.073,0,0,1,1.038,4.235,2.689,2.689,0,0,1-1.038-4.235Zm-1.461.913c-1.567-.126-1.186-1.609-2.118-2.118a25.486,25.486,0,0,1-2.118-1.63l1.44-2.117c1.25.8.551,2.117,1,3.049l1.016-.656c1.757.953.572,2.265.847,3.472Zm-4.448-6a11.381,11.381,0,0,1-.677,1.313c-.381-.635-.91-1.144-.8-1.44a14.819,14.819,0,0,1,2.413-5.166c.128.635.36,1.037.234,1.27a21.715,21.715,0,0,0-1.1,4.023Zm2.627-3c.783.932.317,1.4-.276,1.864a17.31,17.31,0,0,0,.339-1.864Zm3.726,4.721c1.906,1.313,1.906,1.313,1.483,2.88C1350.667,1520.838,1349.757,1520.14,1350.349,1518.721Zm-1.5,0c-.72-.974-.212-1.567,0-2.562C1349.566,1517.281,1349.1,1517.81,1348.846,1518.721Zm3.154-5.083c1.948.975,1.08,2.457.974,3.812-1.948-.847-1.991-1.079-.974-3.79Zm-2.477,1.483c-1.079-1.355,0-2.372,0-3.663.869,1.334.869,1.419-.041,3.684Zm-2.117-2.118c-.677-1.567.36-2.286.4-3.281l.656.19c-.381.995-.678,1.927-1.122,3.176Zm-1.8-1.905c-.212-.423-.318-.551-.3-.635.275-.741.571-1.483.995-2.562.424,1.567-.382,2.223-.762,3.282Zm7.394-1.715v2.35c-.889-.868-.889-.868-.063-2.265Zm-2.905.572c.148-1,.276-1.842.4-2.859.868,1.694.826,1.969-.466,2.944Zm-1.207-1.955h-.507a13.523,13.523,0,0,1,.317-2.117c.847.825.021,1.5.127,2.2Zm-10.037,39.157a1.5,1.5,0,0,1-.36-1.8c.318-.72.551-1.461,1.016-2.732,1.144,1.461,2.118,2.562,2.881,3.664a22.247,22.247,0,0,1,1.27,1.862c.72,1.165,0,2.118-.635,3.261Zm3.537,6.712c-.319.975-.636,1.927-1.06,3.262l-6.161-6.353c.636-.656,1.1-1.1,1.525-1.588s.741-.911,1.164-1.44A24.238,24.238,0,0,1,1342.388,1553.869Zm1.291-8.321c-.508-.424-.932-.91-1.439-1.313-1.737-1.376-2.711-2.88-.806-5.124l3.622,4.235c.762.911.317,1.821-.106,2.965A10.1,10.1,0,0,1,1343.679,1545.548Zm42.985-20.814c2.5,0,2.753.276,3.494,3.6l-8.492-.507c-.169-1.186-.359-2.266-.507-3.3a3.261,3.261,0,0,1,4.615,1.567Zm3.832.9,1.314-.254,1.778,3.621h-2.118C1391.089,1527.624,1390.813,1526.734,1390.5,1525.633Zm4.235,1.367c-.89-.889-.762-1.524,0-2.118.276.826.276.826-.084,2.118Zm3.515-1c.466,2.118.466,2.118-.974,2.118-.275-.847-.783-1.8.889-2.118Zm-8.109,7.669-7.835-.529c-.127-1.5-.276-2.837-.423-4.467l8.956.55a4.378,4.378,0,0,1-.7,4.446ZM1395,1532v1.842a10.678,10.678,0,0,1-1.186,0c-1.714-.148-1.757-.254-1.609-2.117a16.614,16.614,0,0,0,0-2.118c2.457.106,2.6.255,2.71,2.393Zm-4.863,6.695c-.466,0-.932-.7-1.5-1.186-.4.867-1.292.91-2.287.72s-2.308-.36-3.557-.551c-.191-1.058-.381-2.118-.593-3.112a8.464,8.464,0,0,1,4.384,0,30.56,30.56,0,0,1,4.086.572l.741,1.862h.4c.147-.614.295-1.206.423-1.756a1.413,1.413,0,0,1,.423-.171c2.774.255,2.88.446,2.117,3.875-1.587,0-1.587,0-2.434-.952A7.4,7.4,0,0,1,1390.137,1538.695ZM1392,1542.9l-2.837.126c.17-1.143.318-2.244.508-3.535l2.329.338Zm1.454-2.9,1.546.508v2.732l-1.884-.128a16.819,16.819,0,0,1,.254-3.112Zm-8.632,2c-.932-.169-1.567-.551-1.483-1.673a13.32,13.32,0,0,0-.359-2.117l4.785.7a3.422,3.422,0,0,1,.148.655c-.212,2.753-.466,2.965-3.176,2.436Zm5.212,2.066c1.589.338,3.219.487,4.935.741,0,1.27-.149,2.118-.212,3.219l-5.04-1.207a10.065,10.065,0,0,1-5.717-.572v-2.965c2.583-.148,3.282.17,3.832,1.8a2.122,2.122,0,0,1,2.118-.953Zm1.139,6.934a.906.906,0,0,1-.7,0,.832.832,0,0,1-.253-.245.841.841,0,0,1-.128-.327,11.8,11.8,0,0,1,.149-2.287l.466-.318c.359.3,1.015.594,1.015.889a7.557,7.557,0,0,1-.635,2.288Zm2.373-2c.826,1.25.826,1.376-.318,2.245.021-.7.127-1.419.233-2.245Zm-5.04,2.477-5.019-.466c0-1.207.106-2.244.17-3.473l5.314.784a29.026,29.026,0,0,0-.55,3.133Zm2.307,3.811c0,.636-.4,1.122-1.376.614.234-1.016.487-2.117.763-3.26,1.313.8.593,1.8.529,2.625Zm2.118-1.482c1.313.572.424,1.652.763,2.647-1.567-.466-1.567-.466-.911-2.668Zm.446,4.235c-.3.889-.637,1.884-1.017,2.964l-3.981-.868a20.617,20.617,0,0,1,.55-2.011c.128-.339.488-.826.678-.784a2.127,2.127,0,0,1,.974.7c.169.169.191.445.317.762.741-.148.953-1.778,2.33-.783Zm-3.431,3.875c-.466,1.122-.911,2.244-1.4,3.451l-1.693-.254c-.382-3.621.189-4.235,2.942-3.218Zm-1.419,8.469,1.61.678c-.4.995-.594,1.99-2.224,1.524a18.041,18.041,0,0,1,.466-2.222Zm-3.2,1.545a.951.951,0,0,1-.246-.344.936.936,0,0,1-.071-.417c0-1.122.55-1.356,2.117-.91a12.919,12.919,0,0,1-.911,1.587.89.89,0,0,1-1.037.064Zm-2.562,25.41c-.572,1.1-.932,1.461-1.864.952a38.555,38.555,0,0,0-4.235-1.968c-.656-.275-.551-.572-.317-.953Zm1.779-2.393c-1.038,1.483-1.716,1.525-3.706.254C1381.879,1593.613,1382.471,1593.571,1384.547,1594.947Zm.453-3.727,1.313.424.339.254-1.06,1.546-3.069-.8c1.037-1.926,1.037-1.926,2.477-1.439Zm4.818-2.625-1.8,2.118-2.986-1.208C1386.092,1587.2,1386.643,1587.091,1389.818,1588.595Zm2.182-3.006-1.376,1.736-3.219-1.144,1.1-1.927a6.052,6.052,0,0,1,3.494,1.313Zm1.906-3.939-1.313,2.478-1.864-.531c-.486-.169-.974-.4-1.44-.592,1.249-2.752,1.673-2.88,4.723-1.376Zm1.927-3.346-.911,1.949-1.779-.488-1.439-.466c.676-1.948,1.714-2.2,4.235-1.016Zm1.926-4.235c-.466.954-.8,1.673-1.25,2.541l-3.112-.72,1.292-2.6Zm1.186-2.837-.995,1.842c-.36-1.248.36-1.567.592-2.117Zm1.958-5.726-3.2-.487a18.666,18.666,0,0,0-2.118-.275,4.7,4.7,0,0,0-1.588.4v.677c.593.36,1.439,1.017,1.821.826,1.545-.783,2.88,0,4.235.212-.233,1.778-.233,1.778-1.229,2.794-.889-.7,0-1.756-.55-2.54-1.355-.169-1.017,1.292-1.778,1.885h-2.118c-.55,0-1.207,0-1.059.8a1.611,1.611,0,0,0,1.038.911,8.272,8.272,0,0,0,1.927,0c-.128,1.651-.17,1.673-1.334,1.5l-3.473-.361c0,1.228,0,1.228,1.016,2.117-.169.424-.254,1.059-.592,1.335a3.092,3.092,0,0,0-1.377,2.794c0,.381-.784.91-1.291,1.207a4.016,4.016,0,0,1-1.4.191c-.7,1.207.466,1.228.869,1.757l-.869,1.419-2.372-.381a3.317,3.317,0,0,0-.741.169,7.758,7.758,0,0,0,.128,1.673l1.884-.212a2.962,2.962,0,0,1-1.186,2.118c-.741-.191-1.694-1.06-2.329,0s.571,1.249,1.249,1.821c-.614.973-1.228,1.545-2.329,1.27a1.564,1.564,0,0,0-.763,0,.893.893,0,0,0-.715.595.889.889,0,0,0,.208.909.658.658,0,0,0,.359.275c.3.126.614.212.954.338-.276,1.1-.848,1.44-1.97,1.038s-1.313-.36-1.546,1.1l1.673.508c-1.037,2.266-2.5.381-4.087.656a13.568,13.568,0,0,1,.805-1.714c1.313-1.864,2.817-3.622,3.939-5.59,1.567-2.731,2.879-5.57,4.234-8.47a12.93,12.93,0,0,0,.381-1.905,15.115,15.115,0,0,1,.932-2.351c.318-.636.847-.487,1.419,0,0,1.482-1.122,2.541-1.673,3.959l1.292.191a13.155,13.155,0,0,0,2.329-3.938,24.35,24.35,0,0,0,.53-4.235l-3.028-1.673-2.118.508c.233-1.164.4-1.948.635-3.027l6.353,2.117c0-1.376,0-1.376-2.8-2.6l.848-3.409c.973-.191,1.291.255,1.143,1.165s-.677,1.715,0,2.647c1.482-.424,1-1.864,1.4-2.647a31.422,31.422,0,0,1,8.83-.36C1401.411,1563.918,1401.178,1564.68,1400.9,1565.506Zm1.938-6.238c-.148.911-.254,1.7-.4,2.627l-1.716-.509c.128-.762.212-1.461.361-2.35Zm.318-1.354-1.715-.148c.317-1.779.317-1.779,2.117-1.821Zm-3.981-.914c-.276,0-.762-.466-.72-.677,0-.91.8-.784,1.694-.635,0,.826-.043,1.461-1.016,1.312Zm-2.118,0-2.118.91,1.843,2.415c1.291.253.932-2.118,2.668-1.44-.106.657-.211,1.376-.317,2.117l-5.23.318c0-.254-.17-.487,0-.614a25.126,25.126,0,0,0,1.63-10.735,16.116,16.116,0,0,1,0-1.758c.381-2.922.783-5.844,1.207-8.745a3.19,3.19,0,0,1,.508-1.4c0,2.287,1.08,4.425.19,6.817a7.656,7.656,0,0,0,.149,3.77,2.945,2.945,0,0,1-2.076,3.875c.594.359,1.038.487,1.229.783s.36,1.016.191,1.165c-.975.826-.784,1.673,0,2.519Zm4.044-12c.466,2.753.382,2.88-1.714,2.774-.339-2.118-.339-2.118,1.588-2.774Zm2.838,9-5.335.254c0-.784.126-1.271.189-2.118l5.23-.932c-.084,1.06-.147,1.843-.211,2.8Zm-4.826-2.777c-.741-2.118-.572-2.287,1.884-2.456v1.927Zm5.376-.223h-2.117a16.189,16.189,0,0,0,.381-5.886c0-1.06,0-1.06,1.652-1.229-.085,2.371-.064,4.679-.042,7.115Zm-5.187-7.315c-.148-.932-.275-1.737-.423-2.625l2.116-.954a10.683,10.683,0,0,0,.255,1.524,12,12,0,0,1,0,1.229Zm5.061-2.685c0,1.144-.763,1.186-1.716,1.292a4.24,4.24,0,0,1,.615-3.514l-1.8-1-2.562,1.589c0-1.038-.126-1.694-.19-2.625l5.082-1.864c.148,2.265.318,4.192.444,6.119Zm-.615-7-5.272,1.651a7.535,7.535,0,0,0-.19-2.117l1.673-.593.676,1.461c.276-.889.446-1.4.636-1.969l1.863-.381a13.786,13.786,0,0,0,.488,1.948Zm-5.907-3c-.424-.868.191-1.27,1.08-1.546l.784,1.483c-.932.4-1.547.953-1.991.063Zm5.156-3.09v2.668l-2.118.339a1.531,1.531,0,0,1-.223-.655,1.509,1.509,0,0,1,.089-.686,1.518,1.518,0,0,1,.982-.925,10.318,10.318,0,0,0,1.122-.741l-2.605-.148c-.126-.741-.275-1.419-.4-2.117l1.545-.572,1.483,2.879Zm-2.277-6.691c-.254,2.922-.635,3.261-4.234,3.769-.233-.635-.466-1.291-.762-2.117a25.276,25.276,0,0,0,2.625-.869C1399.03,1521.685,1399.708,1521.007,1400.723,1521.219Zm-7.305,1.179a6.265,6.265,0,0,1,.212-1.4h1.017c.254-.91,0-2.224,1.609-2.371.212.486.466,1.036.784,1.8Zm6.755-2.4-1.821.783a6.861,6.861,0,0,1-.487-1.884c0-.466.571-.847,1.122-1.588.424,1.037.762,1.673,1.165,2.689Zm-1.566-3.8-1.526.721c-.423-.805-.847-1.567-1.227-2.308C1397.653,1513.109,1397.865,1513.237,1398.607,1516.2Zm-1.335-4.2-1.864,1.017-1.036-2.267,1.968-1.227c.382.91.635,1.608.975,2.477Zm-1.313-5c-.148,1.058-.656,1.758-1.524,1.842-.466,0-1-.529-1.483-.847.763-1.482,1.8-1.27,3.05-.995Zm-2.118-1-1.63,1.4-.4-.212a2.083,2.083,0,0,1,.169-1.06,1.277,1.277,0,0,1,1.905-.126Zm-1.206-2.1-1.334.848c-.763-.614-.763-1.165,0-1.631S1392.254,1503.2,1392.635,1503.9Zm-12.947-14.1a65.905,65.905,0,0,1,10.079,9.867s.233.211.233.317v1.186c-.4,0-.974,0-1.165-.232-.826-1.017-1.5-2.118-2.265-3.219-.4-.572-.826-1.207-1.99-.847a52.132,52.132,0,0,0,4.4,6.628l-2.436,1.185c-1.143-1.99-2.117-3.917-3.366-5.8a16.034,16.034,0,0,0-1.715-1.884c-1.122-1.165-2.118-2.392-3.346-3.515a1.651,1.651,0,0,1-.317-2.117l6.119,4.785a2.119,2.119,0,0,0-.995-2.435c-1.61-1.4-3.2-2.816-4.786-4.235l.317-.4A8.946,8.946,0,0,1,1379.688,1489.8Zm-6.492-1.008a1.326,1.326,0,0,1,.167,1.124,1.323,1.323,0,0,1-.759.845c-.169,1.27,1.5,2.117.889,3.43l-1.567.72c.614.847-.529.8-.55,1.038a4.392,4.392,0,0,0,.444,1.693c-1.1,1.229-1.524-1.333-2.731-.38l.72,1.756-.974,1.1-3.219-2.117h-.106c-.487.7,0,1.1.466,1.566s.233.932-.593,1.207c-.445-.656-.931-1.376-1.587-2.393l1.714-.38a1.273,1.273,0,0,1,1.207-1.081c1.631-.19,2.52-1.567,3.748-2.371a1.86,1.86,0,0,0,.614-1.207,21.87,21.87,0,0,0,.255-3.3,2.531,2.531,0,0,0-.635-1.334c-.912-1.228-1.864-2.435-2.881-3.769a5.674,5.674,0,0,1,5.378,3.854Zm-10.354-5.217c1.461.169,2.118,1.44,3.028,2.329a35.531,35.531,0,0,1,2.308,2.731,2.367,2.367,0,0,1-.3.36,7.445,7.445,0,0,1-3.663-2.519,8.616,8.616,0,0,0-3.156-3.134,16.676,16.676,0,0,1-1.609-1.334C1361.4,1481.454,1361.635,1483.423,1362.842,1483.572ZM1356.49,1479a1.249,1.249,0,0,1,.339,1.228c-.17.318-.826.466-1.271.424s-.592-.445-.868-.72l-2.414-2.329a38.083,38.083,0,0,1,4.3,1.4Zm-65.43,112.983a21.636,21.636,0,0,1-2.668,4.235l-.36-.169a3.193,3.193,0,0,1,.17-1.017c1.8-4,3.642-7.961,5.4-11.964.847-1.905,1.5-3.875,2.245-5.822a12,12,0,0,1,.995-2.329c1.863-2.774,2.668-6.119,4.912-8.682a15.139,15.139,0,0,1,3.24-5.738c2.118-2.922,3.325-6.352,5.548-9.147,3.028-3.833,5.865-7.813,8.766-11.751.487-.636.953-1.207,1.779-1.229.677.572.254.995,0,1.4-2.583,3.282-5.209,6.522-7.708,9.866a50.172,50.172,0,0,0-3.07,4.935c-.466.719-.995,1.355-1.482,2.116-2.414,3.537-4.235,7.369-6.543,11.032a86.418,86.418,0,0,0-5.739,11.561C1294.681,1583.428,1292.86,1587.706,1291.06,1591.983Zm80.675-7.114a39.735,39.735,0,0,1-8.152,11.856c-.423.4-.868.741-1.313,1.123l-.444-.317c.36-.572.7-1.166,1.079-1.716,1.695-2.562,3.537-5.039,5.083-7.664,2.011-3.431,3.769-7.009,5.7-10.588a29.638,29.638,0,0,0,2.731-6.479,26.558,26.558,0,0,1,2.117-4.807,6.831,6.831,0,0,0,1.355-4.594c1.208.169,1.123.995.912,1.63a27.117,27.117,0,0,1-1.673,3.747,12.842,12.842,0,0,0-1.695,5.654,6.12,6.12,0,0,1-.783,2.372C1375.06,1578.347,1373.3,1581.565,1371.735,1584.869Zm-50.924-41.552c.487,1.609-.53,2.414-1.059,3.366-1.144,1.991-2.393,3.9-3.642,5.8s-2.774,3.769-4,5.759c-2.118,3.388-4.913,6.353-6.183,10.185a.814.814,0,0,1-.169.36c-2.647,2.329-2.986,5.866-4.574,8.745a1.45,1.45,0,0,1-.339.466h-.635a9.436,9.436,0,0,1,1.419-4.7c1.524-3.048,3.027-6.1,4.785-8.978s3.578-5.06,5.378-7.685c1.4-2.118,2.689-4.235,4.087-6.353s2.816-4.086,4.235-6.14C1320.26,1543.931,1320.451,1543.465,1320.811,1543.317Zm.106,51.63a5.15,5.15,0,0,1,.508-1.27c2.117-2.858,4.4-5.675,6.479-8.47s3.77-5.654,5.7-8.47c1.5-2.117,3.07-4.361,4.595-6.563.317-.466.614-1,.911-1.482l1.461-2.478.614.254a16.169,16.169,0,0,1-.889,2.689c-.657,1.208-1.526,2.287-2.267,3.451s-1.206,2.118-1.884,3.176-1.715,2.626-2.625,3.9-2.118,2.985-3.3,4.362a1.355,1.355,0,0,0-.348.423,1.364,1.364,0,0,0-.091,1.069,1.355,1.355,0,0,0,.268.477c-1.99.381-2.668,2.011-3.62,3.346s-1.588,2.392-2.435,3.578a4.6,4.6,0,0,1-3.07,2.011Zm-2.917-5.632c4.553-6.564,8.046-13.826,12.917-20.158l.338.148a.407.407,0,0,1,0,.17.792.792,0,0,1,0,.381,43.083,43.083,0,0,1-2.287,4.531c-3.409,5.251-6.352,10.842-10.587,15.478-.106.128-.339.148-.635.276a2.424,2.424,0,0,1,.254-.889Zm27.331-16.093c-.975,1.377-2.118,2.711-2.943,4.109-.488.741-.72,1.672-1.229,2.393a41.921,41.921,0,0,1-4.849,6.584c-1.884,1.843-3.324,4.023-5.1,5.907a15.406,15.406,0,0,1-1.271,1.081l-.424-.424c2.012-2.519,4.066-5.018,5.993-7.623s3.9-5.505,5.781-8.3c1.016-1.526,1.905-3.113,2.858-4.658a2.692,2.692,0,0,1,.635-.742c.17-.127.572-.212.7-.106s.466.551.424.783a2.644,2.644,0,0,1-.466.932Zm-4.489,27.738c-3.3,3.494-6.84,6.8-10.291,10.165a5.642,5.642,0,0,1-1.08.613c-.762-.7-1.037-1.25-.233-1.885,1.186-.91,2.308-1.927,3.537-2.752a40.1,40.1,0,0,0,10.057-10.036c1.864-2.562,3.409-5.358,5.378-8.47-.317.974-.465,1.546-.677,2.118A31.537,31.537,0,0,1,1340.842,1600.96Zm27.252-19.966a65.626,65.626,0,0,0,3.091-7.221,1.756,1.756,0,0,1,1.694-1.44,17.384,17.384,0,0,1-.784,3.219c-.826,1.779-1.905,3.43-2.773,5.166-.656,1.271-1.059,2.669-1.757,3.9-1.229,2.117-2.6,4.235-3.96,6.352a8.248,8.248,0,0,1-1.038,1.4c-.508.529-1.08,1.016-1.609,1.524l-.339-.254a4.385,4.385,0,0,1,.36-.931C1363.351,1588.786,1365.87,1584.974,1368.094,1580.994Zm-34.515,16.728c1.609-1.886,2.965-3.685,4.552-5.273a64.9,64.9,0,0,0,7.538-9.888c.339-.509.72-1,1.1-1.483l.4.211a15.487,15.487,0,0,1-1.313,2.965,49.616,49.616,0,0,1-7.369,9.55,4.426,4.426,0,0,1-1.037.868,3.18,3.18,0,0,0-1.842,1.884,1.7,1.7,0,0,1-2.033,1.166Zm24.8,10.989a4.16,4.16,0,0,0-.657.847,16.137,16.137,0,0,0-6.077,5c-1.017-.338-1.058-1.058-.551-1.651a9.86,9.86,0,0,1,2.562-2.329,39.931,39.931,0,0,0,11.286-8.957c.234,1.313.234,1.419-.867,2.35C1362.27,1605.534,1360.343,1607.122,1358.375,1608.711Zm-48.046-37.288c3.367-5.167,6.713-10.354,10.27-15.859a4.971,4.971,0,0,1-.127,1.63q-1.779,3.493-3.685,6.924c-.508.911-1.206,1.694-1.736,2.583-1.143,2.1-3.155,3.176-4.637,4.828Zm38.093,39.32,9.338-8.808c.361.551.149,1.08-.254,1.63-.677.952-1.333,1.948-1.99,2.9-.191.253-.4.593-.656.7a15.775,15.775,0,0,0-4.955,3.769C1349.46,1611.463,1348.888,1611.76,1348.422,1610.743ZM1377.537,1553h-.444a14.037,14.037,0,0,1-.149-2.118,57.2,57.2,0,0,0,0-10.947s.149-.19.34-.4c1.27.339,1.376,1.651,1.355,2.457A48.111,48.111,0,0,1,1377.537,1553Zm-9.211,19.736,1.207-3.473,3.24-9.317a2.4,2.4,0,0,1,.572,2.69,60.388,60.388,0,0,1-3.875,9.38,1.56,1.56,0,0,1-.489.491A1.538,1.538,0,0,1,1368.326,1572.736ZM1331.5,1595.8c1.229-1.356,2.521-2.668,3.769-4a2.438,2.438,0,0,1,.7-.7c.338-.169.952-.445,1.122-.3.529.466.148.932-.255,1.313l-1.418,1.355-7.157,6.945c-.4.381-.719.847-1.1,1.27l-.444-.38C1328.306,1599.478,1329.9,1597.615,1331.5,1595.8Zm17.322,1.524c-1.1.995-1.652,2.646-3.6,3.112L1357,1586.159a9.084,9.084,0,0,1-2.011,3.812c-1,1.207-1.927,2.478-2.923,3.685A38.026,38.026,0,0,1,1348.825,1597.319Zm-24.1,12.81c0-.317,0-.614.148-.72a66.161,66.161,0,0,0,9.1-7.729,1.354,1.354,0,0,0,.55-.148C1333.77,1604.053,1329.344,1607.906,1324.728,1610.129Zm35-20.581a15.154,15.154,0,0,1-5.993,8.174A32.676,32.676,0,0,1,1359.73,1589.548Zm13.615-19.332a61.544,61.544,0,0,1,2.562-9.021c1.037.234,1.207.7,1.017,1.272-.3.995-.657,1.968-1.038,2.922s-.911,2.434-1.419,3.62A2.665,2.665,0,0,1,1373.345,1570.216ZM1362.758,1585a34.938,34.938,0,0,1,3.706-8.279c1.016,1.44.19,2.477-.191,3.346a11.3,11.3,0,0,1-3.494,4.933Zm16.348-3,2.906-5h.472a4.616,4.616,0,0,1,0,1.6c-.766,1.622-1.284,3.063-3.355,3.4Zm-56.728,27.049a10.29,10.29,0,0,1,5-4.108A15.676,15.676,0,0,1,1322.378,1609.049Zm.211-7.749a6.864,6.864,0,0,1,3.452-3.452A9.161,9.161,0,0,1,1322.589,1601.3Zm35.341-4.235.339.254-2.541,3.2C1355.9,1599.033,1355.9,1599.033,1357.93,1597.065Zm-15.267-101.234-.318.106a2.6,2.6,0,0,0-.233-.761l.317-.106C1342.515,1495.429,1342.6,1495.577,1342.663,1495.831ZM1269.7,1626.157a.734.734,0,0,1,.3.107v.339l-1.038.867c-.127-.211-.36-.445-.317-.613a.844.844,0,0,1,.123-.335.839.839,0,0,1,.58-.382A.854.854,0,0,1,1269.7,1626.157Z" transform="translate(-1218.622 -1474.311)" fill="#101a24" opacity="0.1"/>
</svg>
