<svg xmlns="http://www.w3.org/2000/svg" width="189.999" height="119.817" viewBox="0 0 189.999 119.817">
  <path id="ajo6" d="M115.709,2012.665a31.81,31.81,0,0,0-8.236,3.39,19.183,19.183,0,0,1-2.648,1.621,6.872,6.872,0,0,0-3.98,3.876,10.573,10.573,0,0,1-.932,2.638,2.087,2.087,0,0,0-.443,1.507,2.349,2.349,0,0,0,.781,1.441,30.34,30.34,0,0,1,2.118,2.46c.487.59.466,1.15-.551,1.474s-.741.6-.423,1.106a1.068,1.068,0,0,1,0,1.119c-1.122,1.74-2.435,3.42-3.452,5.173a42.433,42.433,0,0,1-5.759,6.794c-1.08,1.179-2.689,2.108-3.875,3.227-2.117,2.02-4.637,3.818-6.691,5.9-3.388,3.405-7.263,6.529-11.032,9.771a41.771,41.771,0,0,0-7.792,9.285c-.826,1.341-1.8,2.638-2.71,3.934-1.631,2.344-3.3,4.657-4.849,7-1.059,1.577-1.885,3.212-2.9,4.789-1.207,1.872-2.478,3.714-3.769,5.556-1.927,2.785-3.706,5.615-5.866,8.312a58.453,58.453,0,0,1-12.556,10.611,4.313,4.313,0,0,1-1.461.647q-5.632,1.2-11.308,2.314a10.76,10.76,0,0,0-4.235,1.474c-2.117,1.474-4.361,2.948-6.5,4.51a8.333,8.333,0,0,1-3.854,1.474q-1.637.242-3.3.353c-.953,0-1.906-.132-2.859-.088a6.763,6.763,0,0,0-3.472,1.194A9.912,9.912,0,0,1-9.581,2127a14.392,14.392,0,0,0-5.315,2.874,13.779,13.779,0,0,0-1.8,2.078c1.672.427,2.837.707,4.235.25s3.324-1.031,5-1.576a22.953,22.953,0,0,1,6.479-1.474,77.007,77.007,0,0,1,7.835.1,10.02,10.02,0,0,0,3.2-.251,28.16,28.16,0,0,0,4.764-1.9,14.832,14.832,0,0,1,5.4-1.827,36.116,36.116,0,0,1,6.056-.206c4.7.294,9.38.722,14.06,1.178a84.77,84.77,0,0,0,14.61.605c3.07-.222,6.141-.28,9.19-.5a50.982,50.982,0,0,0,8.893-1.047,9.312,9.312,0,0,1,1.948-.1c2.689,0,5.379,0,8.047-.147,3.049-.177,6.077-.59,9.126-.854a61.324,61.324,0,0,0,11.562-2.477c4.658-1.326,9.231-2.785,13.826-4.215a44.594,44.594,0,0,0,5.082-1.724c3.514-1.577,7.03-3.153,10.376-4.863s7.3-3.02,9.761-5.5a.96.96,0,0,1,.4-.279,7.7,7.7,0,0,0,3.2-2.255,6.416,6.416,0,0,1,.742-.634,56.484,56.484,0,0,0,6.86-5.674,101.036,101.036,0,0,0,8.724-8.577,29.409,29.409,0,0,0,5.23-7.634c.572-1.577,1.419-3.124,2.117-4.7a54.145,54.145,0,0,0,2.456-6.47,18.336,18.336,0,0,0,.382-9.461c-.423-1.739-.508-3.523-.846-5.291-.212-1.075-.742-2.122-.912-3.213a22.362,22.362,0,0,0-3.028-7.191c-1.312-2.476-2.837-4.907-4-7.369a9.554,9.554,0,0,0-3.325-4.1,13.394,13.394,0,0,1-1.63-1.37,37.1,37.1,0,0,0-9.084-7.1c-2.118-1.075-3.875-2.623-6.649-3.08a.786.786,0,0,1-.252-.092.513.513,0,0,1-.171-.158c-.889-1.356-2.9-1.946-4.235-2.948a2.022,2.022,0,0,0-1.017-.368,29.154,29.154,0,0,0-5.8-.56,6.58,6.58,0,0,1-3.642-.781A36.965,36.965,0,0,0,119.1,2013,8.131,8.131,0,0,0,115.709,2012.665Zm.169,2.388,2.118,2.505c-1.779,0-2.118-1.179-3.494-1.474-.932,1.312,1.736,1.474,1.418,2.506-.952.427-1.461-.207-2.116-.546a19.65,19.65,0,0,1-1.738-1.341Zm-5.489,16.594a3.029,3.029,0,0,0-1.609-1.385c-1.038-.516-2.329-.9-2.584-1.946a.379.379,0,0,0-.12-.174.613.613,0,0,0-.218-.12c-1.5-.251-1.885-1.238-2.584-1.961a3.136,3.136,0,0,1-.849-2.232,3.3,3.3,0,0,1,1.061-2.189,11.634,11.634,0,0,0,.445,1.179,2.067,2.067,0,0,0,.656.811c.148.118.572,0,.889,0a1.057,1.057,0,0,0-.106-.56l-1.016-2.3a10.535,10.535,0,0,1,3.749-1.783c-.488,0-.784-.266-.3-.516,1.016-.545,2.117-1.032,3.112-1.474.7.707,1.314,1.282,1.864,1.916a1.384,1.384,0,0,1,.19.781,5.616,5.616,0,0,1-1.122-.265c-.6-.358-1.173-.736-1.716-1.135l-2.117.766c1.97-.073,3.134.855,2.711,2.432l-2.118-1.739c-1.439-.088-.169.973-.973,1.238a15.448,15.448,0,0,0-1.885.914c-.148.383-.3.8-.445,1.208a2.024,2.024,0,0,1,1.021.351,1.043,1.043,0,0,1,.461.725c.17,1.96,2.35,3.109,3.642,4.612a3.71,3.71,0,0,1,.678.929,1.852,1.852,0,0,0,.53.708,2.875,2.875,0,0,0,.891.5,3.8,3.8,0,0,0,1.106.213,3.984,3.984,0,0,0,1.136-.112,4.98,4.98,0,0,1-2.162-.664,2.869,2.869,0,0,1-1.247-1.4c1.313.574,2.33.987,3.282,1.473.169.088,0,.384.127.6,1.088.1,2.184.152,3.282.163,1.144-.058,2.283-.162,3.409-.31l2.118,2.343-1.842.31a2.229,2.229,0,0,0-2.415-2.034c0,.766,0,.766.7,1.827-.466.281-.847.546-1.335,0a10.576,10.576,0,0,0-2.689-1.812v1.592l-1.165-.723a2.669,2.669,0,0,0-.676.442.9.9,0,0,1-.3.273,1.322,1.322,0,0,1-.438.156,1.594,1.594,0,0,1-.492.008,1.4,1.4,0,0,1-.447-.142A4.609,4.609,0,0,1,110.389,2031.647Zm19.467-6.765a33.189,33.189,0,0,1-6.733,3.11,8.473,8.473,0,0,1-2.478.368,32.723,32.723,0,0,0,8.089-4.937c-.721-.073-1.165-.221-1.4-.117a8.467,8.467,0,0,0-2.52,1.267,19.021,19.021,0,0,1-6.648,3.271,19.311,19.311,0,0,1-2.711.8c-.466.118-1.058.222-1.27-.427l6.48-2.623a2.013,2.013,0,0,0,.507-.206c.974-.929,1.927-1.872,3.113-3.036a6.48,6.48,0,0,0-1.313.28c-.889.457-1.736.943-2.582,1.473a25.321,25.321,0,0,1-5.464,2.284c-.678.222-1.5.133-2.118.782s-1.228-.31-1.779-.693c4.045-2.3,9-3.581,12.24-6.691,1.5.516,3.261.885,4.087,2.211a2.945,2.945,0,0,0,1.1.766l4.023,2.108-1.482.973v-1.224A4.386,4.386,0,0,0,129.856,2024.882Zm26.636,14.733a4.394,4.394,0,0,1-.149,1.385h-.254l-.678-1.046c.381-.133.72-.28,1.081-.4l1.354-.914c1.1,1.194,1.1,1.194,0,1.8l-1.44-.884Zm-11.351,4.632,2.9.118c.254.825.466,1.474.7,2.358l-3.2-.339C145.438,2045.765,145.311,2045.1,145.141,2044.247Zm-1.673,1.931c-.995-.413-1.036-.56-.613-2.093C143.6,2045,143.6,2045,143.468,2046.178Zm-13.763,10.183-2.562-.177,2.117,1.253a8.624,8.624,0,0,1-.317,1.474l-4.024-1.15c.721,1.194,2.5,1.474,3.579,2.3a8.854,8.854,0,0,1-.38,1.842l-5.485-2.019,2.964-6.572c1.377.486,2.626.869,3.791,1.341S130.065,2055.7,129.705,2056.361Zm3.177,1.312-1.907-.693a6.528,6.528,0,0,1,.277-1.341C133.643,2055.8,133.9,2056.14,132.882,2057.673Zm-2.245.589c2.287.442,2.308.442,1.779,2.034l-2.118-.766A10.614,10.614,0,0,1,130.637,2058.262ZM130,2060.68l2.118.633c-.212.545-.445,1.091-.7,1.739-.762-.251-1.4-.457-2.117-.722a11.2,11.2,0,0,1,.7-1.7Zm2-8.638c1.724.192,1.953.32,2,1.36v2.08c-2.806-1.312-2.806-1.312-2-3.488Zm-1.956,1.608c-1.694-.369-1.757-.6-.931-2.668l1.693.428Zm-3.044-.885c-.783.074-1.228-.073-1.164-.545.275-2.667.572-5.335.889-8.194,1.271.472,1,1.032,1.038,1.474a14.453,14.453,0,0,0,0,2.712c.19.825-.678,1.474-.424,2.343a4.77,4.77,0,0,1-.339,2.122Zm5-2.195c.247-.782,1.136-.752,2-1.017v1.8c-.907-.207-1.669-.222-2-.87Zm-1-.281c-1.672-.294-2.118-.8-1.524-2.181,2.18.561,2.2.6,1.524,2.093Zm1-3.919c2.117.6,2.117.633,1.376,2.4-2.054-.472-.529-1.784-1.376-2.491Zm-1,1.222c-1.673,0-1.885-.205-1.758-1.149a8.158,8.158,0,0,1,.318-1.562c1.969.722,2.118.693,1.44,2.623Zm1-3.536c1.165,0,1.334.5,1.313,1.3-1.1-.353-1.758-.575-1.313-1.385Zm-1,.4-1.715-.546c.106-.442.191-.825.276-1.223,1.736.28,1.736.28,1.439,1.68Zm2-2.948.213,1.621c-1.377-.869-1.377-.869-.213-1.724Zm-2,.575a12.079,12.079,0,0,1-1.228-.206,6.493,6.493,0,0,1-.678-.251,3.657,3.657,0,0,1,0-.678,5.937,5.937,0,0,1,.318-.825c1.524.132,1.292.972,1.588,1.93Zm-3,.919h-.423c0-1.341.211-2.667.36-4.289A5.356,5.356,0,0,1,128,2042.9Zm1.409-8h.487a9.983,9.983,0,0,1,.784,4.421c-.488-.221-.954-.324-.975-.457A35.715,35.715,0,0,1,129.409,2035Zm-1.356,4c-.486-.236-.867-.309-.867-.427a6.78,6.78,0,0,1,.614-3.788,4.8,4.8,0,0,1,.233,4.215Zm3.812-2.844a4.813,4.813,0,0,1,.826,3.7A4.54,4.54,0,0,1,131.865,2036.156Zm4.235-.825c1.312-.294,1.906,0,2.118.9l-1.313.457c.232.177.338.324.466.324a1.954,1.954,0,0,1,.995.237,1.047,1.047,0,0,1,.529.632c.55,1.711,1.165,3.42,1.8,5.306l-2.308.295c-.72-2.727-1.482-5.379-2.245-8.1Zm-11.476-5.069c.571.884,1.079,1.709,1.609,2.534l-.36.162-2.52-2.343ZM116,2030.5a7.194,7.194,0,0,1,2.291-.518,7.624,7.624,0,0,1,2.389.224,5.658,5.658,0,0,1-2.268.643,6.187,6.187,0,0,1-2.412-.29Zm19,3.419c-.3-.6-.763-1.252.36-2l1.63,2.167c-1.44.677-1.61.6-1.99-.1Zm8,.664c1.1-.281,1.4.294,1.863,1.075-1,0-1.8.516-2.118-.324-.126-.147.043-.649.255-.649Zm-2.389,1.576c-.912-.1-.954-.589-1.038-1.076C140.906,2035.154,140.906,2035.154,140.611,2036.156Zm8.469,1.636c-1.312,0-1.292-.663-1.715-.987a2.883,2.883,0,0,0,.191,1.164l-3.748.28-.529-1.473c1.079,0,1.927-.531,2.816.147.169.132.825,0,1.27-.1l.783-.281Zm1.059-1.046a2.55,2.55,0,0,1,1.418,1.12c-.973-.236-.973-.236-1.312-1.061Zm-5.315,3.684-.678-1.179c3.262-.869,4.426-.618,5.04,1.017-1.207.457-1.08-.516-1.8-.825a1.672,1.672,0,0,1-.934.859,2.919,2.919,0,0,1-1.522.188Zm-2.2.57H141.8a5.366,5.366,0,0,1-.593-1.061c.551-.354.953-.309,1.144.074A4.338,4.338,0,0,1,142.622,2041ZM141,2038.367a5.548,5.548,0,0,1-.488-1.267c1.1.133,1.885.972,1.4,1.326a1.379,1.379,0,0,1-.464.057,1.3,1.3,0,0,1-.446-.1Zm11,.575c1.292.118,1.313.133,1.376,1.37-1.482.059-1.482.059-1.376-1.355Zm-9.887,2.446a1.817,1.817,0,0,1,.674.336,1.108,1.108,0,0,1,.37.516.843.843,0,0,1-.022.577,1.177,1.177,0,0,1-.408.5,2.258,2.258,0,0,1-.586-.923A1.792,1.792,0,0,1,142.113,2041.388Zm7.5,3.612c1.756-.678,2.731-.383,3.239,2.122-2.393.384-2.774.148-3.3-2.122Zm5.1,1a14.606,14.606,0,0,0-.72-1.562l1.5-.28a3.758,3.758,0,0,1,1.081,2.461c-1.038.235-1.757.191-1.927-.619Zm-9.635-2.475a19.425,19.425,0,0,0-.212-2.048l2.33-.148c.169.693.317,1.253.487,2.019Zm3.922-1.588a2.135,2.135,0,0,1,1.058-.073,1.637,1.637,0,0,1,.869.426c.784.678.847.737.572,1.71h-1.673c-.276-.737-.551-1.415-.826-2.137Zm4.1,1.588c-.3-.649-.593-1.326-.889-2.019,2.117-.25,2.943.31,2.9,2.226Zm5.9-2.491c1.4,1.312,1.376,1.548-.3,1.842-.953-1.414-.953-1.414.3-1.812Zm-3.97-2.284c-1.249-1.016-.677-1.709,1.715-2.092.72,1.178.72,1.178-1.651,2.121Zm-1.715-1.9c0-.619,0-1.09.169-1.268a1.86,1.86,0,0,1,2.351.133Zm-4.743-1.636c-1.821.487-2.117.427-2.922-.766l1.758-.545c.486.516.867.913,1.227,1.341Zm3.726-1.134q.851-.355,1.758-.634c0,.4.254.854.127.9a4.832,4.832,0,0,1-1.906.457c-.423,0-.4-.487.086-.693Zm-11.18-1.7c-.19-.869-1.926-1.326-.783-2.372,1.525,1.017,1.778,1.562.847,2.4Zm2.118-2.107,3.112,2.682a1.054,1.054,0,0,1,0,.251c-.444,0-1.079.088-1.291-.088a17.382,17.382,0,0,1-2.287-2.624Zm-5,2.579c-.232-.427-.423-.825-.761-1.473,1.736.618,1.821.855.719,1.5Zm-8.829-.766c-.466.413-.974.619-1.482.162s-1.356-1.4-2.118-2.167c.317-.132.636-.324.72-.294A8.082,8.082,0,0,1,129.409,2032.089ZM122,2030l2.753-.457a1.462,1.462,0,0,1-.511.464,2.233,2.233,0,0,1-.755.258,2.61,2.61,0,0,1-.841,0,2.237,2.237,0,0,1-.752-.262Zm-11.857-5c-.36-1.385,0-2.078,1.525-2.505s2.9-.781,4.235-1.223q1.1-.405,2.117-.9c.911-.354,1.8-.737,2.732-1.032a3.167,3.167,0,0,1,1.5.088A56.368,56.368,0,0,1,110.035,2025Zm-87.324,91.577a13.805,13.805,0,0,1,4.955-.84l-4.87,1.135Zm17.66,8.106-.826-1.474,3.536-.943,4.849,2.166A18.191,18.191,0,0,1,40.476,2124.683Zm-11.667-2.8,1.44.943a.848.848,0,0,0-.149.206l-3.366-.354Zm-4.6.117L23,2121.838v-.251l1.228.133a1.561,1.561,0,0,0-.127.28Zm43.669-10c.466.222.931.428,1.44.634-2.118,1.253-2.287,1.474-4.765-.53l1.8-.8a11.666,11.666,0,0,0,1.419.692Zm0-1.259,2.117-.913,2.71,1.238C70.565,2112.391,69.824,2112.333,67.876,2110.741Zm-4.849,1.96c.91.31,1.757.722,2.647,1.1-1.08.782-1.08.782-3.727-.707C62.434,2112.922,62.857,2112.642,63.027,2112.7Zm-17.6,6.234c3.515-1.724,3.515-1.12,5.632.044l-3.451,1.179C46.828,2119.731,46.129,2119.347,45.431,2118.935Zm.569,1.474c-1.863,1.032-2.52,1.017-4.637-.177,2.2-1.149,2.2-1.149,4.637.206Zm9.616-3.065-3.092,1.134-1.969-1.09,2.626-1.12ZM55,2115.87c2.117-.973,2.117-.973,4.234.368l-2.223.737Zm-1.281,3.3a5.653,5.653,0,0,1,3.663-1.017l2.88-1.238,1.736.634v-1.032l2.583-.781,1.44.781a76.308,76.308,0,0,1-11.138,4.024Zm4.944-4.51c2.117-1.194,2.329-1.179,4.235.162C61.65,2116.149,60.126,2116.032,58.665,2114.661Zm-.058-1.577c-1.5.929-1.5.929-3.113.28L52,2111.979v-.368l2.118-.826ZM55,2114.558l-1.821.678-4.637-2,2.392-.782c.7,1.076,2.711,1.15,4.066,2.064Zm-2.92,1.09-3.134,1.062-3.769-1.474,2.117-1.327ZM46,2117.122c-3.2,1.209-2.266,1.474-5.611-.265,2.308-1.031,3.959-.972,5.611.354Zm-4,1.709-2.117.767-2.563-1.164c1.271-1.327,2.393-1.223,4.68.427Zm-7.622-.5,3.98,1.827c-.974.442-1.651.781-2.35,1.061a1.118,1.118,0,0,1-.762,0c-1.737-.766-3.431-1.562-5.146-2.358,0,0-.106-.161-.233-.368l3.071-1.149ZM42,2121.72c-1.567,0-2.964,1.179-4.764.148,2.795-1.253,3.472-1.371,4.764-.118Zm-13-1.812c-.932.692-1.016.678-2.6-.62a2.589,2.589,0,0,1,.742-.134,2.661,2.661,0,0,1,.758.076,2.216,2.216,0,0,1,.656.275,1.512,1.512,0,0,1,.449.432Zm-3.346.516c-1.228.176-1.228.176-1.588-.708ZM33.806,2122l-1.8.8c-.826-.561-1.567-1.091-2.393-1.637,1.779-.559,2.541-.383,4.256.841Zm4.785,2-2.879-.191c1.778-1.1,2.011-1.1,2.943.191Zm24.69.4a57.588,57.588,0,0,1-11.985.723c2.414-.442,4.87-.811,7.221-1.356a5.918,5.918,0,0,1,2.545-.248,5.076,5.076,0,0,1,2.282.822Zm6.352-.224-.868.088a1.077,1.077,0,0,0,0-.266h.868a.586.586,0,0,1,.043.119Zm-6.712-1.191a3.287,3.287,0,0,1,1.02-.539,4.306,4.306,0,0,1,1.245-.21,4.408,4.408,0,0,1,1.262.154,3.454,3.454,0,0,1,1.068.493c-1.482.722-2.9,1.193-4.553.044Zm9.761.487c-.4.088-.974-.309-1.63-.56,1.588-.8,2.964-1.341,4.828-.369a7.115,7.115,0,0,1-3.155.87Zm24.012-10.316c-1.207,1.3-1.5,1.371-3.175.781l-1.653-.663,1-.678c.275-.192.571-.368.974-.6ZM95,2111.316l1.567-1.046,1.694.515,1.5.531C98.028,2112.79,98.028,2112.79,95,2111.316Zm6,3.4c-1.229,1.017-1.822,1.017-3.875,0,1.545-1.031,1.9-1.031,3.875-.015Zm-11-1.386c-1.927,1.283-2.117,1.283-4.044.428,1.545-1.326,2.011-1.385,4.044-.442Zm.6.369,3.007,1.046c-1.462,1.15-1.991,1.474-4.659-.088Zm4.553,1.474,1.355.339,1.291.354c-2.117,1.1-2.117,1.267-4.235.279Zm-4.489,1.12c-2.351,1.253-2.351,1.253-4.362.148l1.545-1.165Zm3.34,1.047c-1.017.324-1.779.589-2.562.781a5.218,5.218,0,0,1-.889-.178c1.5-1.134,1.5-1.134,3.451-.574Zm-7,.442c-1.355,1.09-1.355,1.09-3.24.25,1.313-1.061,1.652-1.091,3.24-.221Zm-6.991.161c-1.927,1.474-2.224,1.474-5.315.384l3.113-1.268Zm2.117.516,1.969.723c-1.524,1.238-1.884,1.267-4.361.368Zm-6.352,1.356c-1.546,1.3-3.3.811-5.273.368,2.245-1.4,3.007-1.385,5.4-.338Zm4.531.928c-2.795,1.695-2.71,1.474-5.018.516,1.715-.692,3.176-1.665,5.145-.486Zm-9.592.6c-.741.869-.741.869-3.981.133a5.183,5.183,0,0,1,4.108-.1Zm8.131,1.577c1.779-.855,3.346-1.7,5.019-2.373a23.766,23.766,0,0,1,3.451-.781,2.222,2.222,0,0,0-.127-.781c.656-.294,1.186-.869,2.35-.457l-1.355.84a13.776,13.776,0,0,0,4.234-.692c1.182-.407,2.4-.761,3.643-1.062-2.54,2.24-13.234,6.146-17.088,5.335Zm26.49-3.846a47.543,47.543,0,0,1-7.094,1.561c1.652-.751,3.3-1.473,5-2.225,1-.354,1.376.266,2.222.693Zm1.588-.708a15.774,15.774,0,0,1-4.532-2.019c-1.334.368-.338.929-.275,1.326-6.628,3.552-13.891,5.9-17.151,5.335a4.728,4.728,0,0,1,.719-.309,53.022,53.022,0,0,0,12.705-5.291c1.144-.648,2.711-.914,3.494-1.915a.772.772,0,0,1,.334-.206,1.11,1.11,0,0,1,.439-.051,1.043,1.043,0,0,1,.411.12.608.608,0,0,1,.256.254c.317.973,1.418,1.341,2.393,1.842a4.526,4.526,0,0,1,1.333.943Zm6.945-5.2c.614-.413.867-.708,1.1-.708a5.9,5.9,0,0,1,3.176,1.268c-1.863.943-2.478-.53-4.151-.53Zm8.067-.207c-.423.62-.889.958-2.117.649.847-.486,1.27-.825,2.245-.619Zm2.435-1.031-1.566.53c.614-.781.614-.781,1.693-.5Zm3.155-1.709c-1.418,1.061-1.418,1.061-2.414.339.869-.266,1.335-1.017,2.542-.31Zm3.431-1.474c-1.842,1.061-1.842,1.061-2.943.236,1.4-1.061,1.4-1.061,3.069-.162Zm2.753-1.474c-1.208.9-1.208.9-3.028.148,1.461-1.076,1.461-1.076,3.154-.118Zm3.324-1.783c-1,1.164-1.334,1.208-3.452.413,1.144-1.3,2.414-.339,3.579-.383Zm1.694-.973-.593.561-2.351-.782a9.814,9.814,0,0,1,3.071.251Zm2.117-1.474c-1.1.811-1.609.8-5.462-.161.253-.354.486-.678.719-.973Zm3.278-1.562c-1.671,1.385-1.9,1.473-4.233.707l-1.565-.5c1.714-.176,3.048.781,4.487-.1-.784-.766-2.116-.486-3.111-.869a29.8,29.8,0,0,0-3.112-.78c-.317.441-.551.751-.74,1.06h-2.869l1.713,1.266c-.8.957-2.5.928-3.787,1.62l2.116,1.472a1.724,1.724,0,0,1-2.242.279,18.715,18.715,0,0,0-2.116-.6c-1.058,1.472,1.757.912,1.757,1.929a1.286,1.286,0,0,1-1.84.264,19.486,19.486,0,0,0-2.116-.765c-.572.765-.572.765,1.416,1.826-.613,1.074-1.374.942-2.39.441s-2.115-.928-3.066-1.383a.856.856,0,0,0-.234.4.718.718,0,0,0,.03.429.975.975,0,0,0,.284.382,1.5,1.5,0,0,0,.49.263c.74.353,1.524.662,2.306.986-.973,1.207-1.248,1.266-2.73.471a5.58,5.58,0,0,0-1.036-.6,5.081,5.081,0,0,0-1.184,0c0,.294,0,.662.254.839a20.761,20.761,0,0,0,2.114,1.148c-.337.192-.591.368-.866.545l-3.787-2.017a.974.974,0,0,0-.339.405.681.681,0,0,0-.028.468.881.881,0,0,0,.291.423,1.462,1.462,0,0,0,.541.279c.678.324,1.418.6,2.369.987l-1.585.971c-1.46-.5-2.709-1.015-2.666-2.444a6.719,6.719,0,0,0-1.692.663,2.107,2.107,0,0,1-.7.577,3.1,3.1,0,0,1-.98.32,3.571,3.571,0,0,1-1.083,0,3.087,3.087,0,0,1-.985-.313c.231.678.4,1.12.528,1.473a9.606,9.606,0,0,1,4.675,1.973,1.188,1.188,0,0,1-1.544.1c-1.037-.706-2.116-1.384-3.131-2.076h-.421c-.485-.087-1.055-.35-1.329.161s.358.54.781.761c1.075.569,2.108,1.213,3.056,1.8-.4.716-.927.7-1.6.38-1.286-.629-2.572-1.227-3.879-1.812a14.009,14.009,0,0,0-1.539-.483c-.59.921.274,1.2.97,1.463,1.138.482,2.34.92,3.963,1.461l-2.657.746a12.112,12.112,0,0,1-4.743-3.29c1.5-.8,3.079-1.593,4.6-2.441a23.115,23.115,0,0,0,2.277-1.462c.527-.4.486-.424,0-1.214a9.49,9.49,0,0,0-.822.5,28.8,28.8,0,0,1-7,3.9,2.148,2.148,0,0,1-1.793,0c-.717-.292-1.476-.527-2.277-.833a2.485,2.485,0,0,1,1.063-.848,3.884,3.884,0,0,1,1.551-.322,11.42,11.42,0,0,1,2.552.688l.21-.249-1.792-1.17c.316-.424,1.35-.789.443-1.593l-2.361,1.155-3.352-1.2c1.475-.95,2.825-1.842,4.216-2.734a1.633,1.633,0,0,1,.838-.336,1.96,1.96,0,0,1,.955.117l3.077,1.228a3.513,3.513,0,0,1-3.753.673,2.146,2.146,0,0,0-1.96,0,23.147,23.147,0,0,0,3.837,1.286c1.223.19,2.109,1.184,3.753.716-.485-.833-1.855-.555-2.446-1.17.886-.54,1.687-1.154,3.015-.482a1.2,1.2,0,0,0,1.54-.336l-1.413-.687a31.014,31.014,0,0,1,4.217-3.684c.547-.278,1.285-.7.758-1.462a3.812,3.812,0,0,0-1.159.409,19.032,19.032,0,0,0-4.028,3.085c-.737,1.023-1.39,1.125-2.8.57-.781-.292-1.518-.629-2.32-.979,1.476-1.068,2.805-1.974,4.048-2.924.4-.322,1.075-.8-.126-1.272-1.223.907-2.424,1.857-3.689,2.734-2.277,1.549-4.575,3.084-6.916,4.576a6.323,6.323,0,0,1-1.5.5,6.208,6.208,0,0,1-.949,1.067c-.843.57-1.75,1.1-2.656,1.607-1.286.746-1.286.746-2.994-.145a12.838,12.838,0,0,0,2.109-1.214c.464-.409,1.623-.775.653-1.652-.865.57-1.623,1.111-2.446,1.594s-1.033.862-1.981.73a.842.842,0,0,0-.247.048.6.6,0,0,0-.2.114c-.148,1.082-1.771,1.037-2.4,1.7l-2.255-.628c.674,1.666,3.035,1.36,4.216,2.222-.358.672-1.391.745-2.108,1.11a33.723,33.723,0,0,0-4.891-1.2c.716,1.038,2.382,1.111,3.541,1.8a1.125,1.125,0,0,1-.371.391,1.778,1.778,0,0,1-.577.242,2.18,2.18,0,0,1-.671.049,2.027,2.027,0,0,1-.636-.155,14.687,14.687,0,0,1-1.856-.717,2.85,2.85,0,0,0-1.462-.264,2.516,2.516,0,0,0-1.342.483,4.076,4.076,0,0,1-1.033.585c-3.268,1.228-6.494,2.47-9.8,3.641a53.662,53.662,0,0,1-11,2.675h-.569c-1.265.233-2.615.8-3.732.643a14.15,14.15,0,0,1-3.584-1.579l-1.708-.862c1.961-.862,2.7-.862,4.217,0,.527.277.949.627,1.476.876s.885.322.864-.249a2.827,2.827,0,0,0-.527-.6c-.527-.38-1.117-.7-1.855-1.14l3.436-1.082,1.961,1.023c-.928.747-2.7.732-3.015,1.8a92.582,92.582,0,0,0,11.427-3.45c2.235-.832,4.428-1.71,6.6-2.6a11.685,11.685,0,0,0,1.539-.936,3.331,3.331,0,0,0-2.53.336,1.915,1.915,0,0,1-2.108-.511l4.765-1.9c.8,0,1.581,1.17,2.635.073l-1.37-.818,1.6-.892,2.256.775-1.181.906a8.2,8.2,0,0,0,1.413-.088,47.308,47.308,0,0,0,9.192-4.049c.717-.453,1.56-.789,2.34-1.2.211-.118.38-.293.738-.557a3.994,3.994,0,0,0-1.133.111,3.215,3.215,0,0,0-.975.416c-2.3,1.038-4.617,2.032-6.852,3.129a4.463,4.463,0,0,1-4.027,0c1.434-.746,2.8-1.462,4.217-2.179s2.762-1.462,4.216-2.28c.675-.41.675-.527.591-1.316a4.179,4.179,0,0,0-2.277.877c-2.3,1.242-4.575,2.514-6.9,3.757a13.654,13.654,0,0,1-1.475.571l-2.551-1.287a25.682,25.682,0,0,1,6.3-3.831,31.287,31.287,0,0,0,6.979-3.639c.19-.161.485-.322.548-.527a.478.478,0,0,0,0-.31.644.644,0,0,0-.206-.275,1.208,1.208,0,0,0-.843,0,27.858,27.858,0,0,1-2.319,1.638c-2.973,1.608-6.009,3.158-9.066,4.692-2.108,1.082-4.364,2.091-6.557,3.144l-3.837-2.047c-.337,1.637,1.855,1.652,2.467,2.485-1.434.775-1.855.76-3.142,0a24.332,24.332,0,0,0-2.3-1.023c-.147.8-.147.8,2.109,2.1a1.13,1.13,0,0,1-1.5.482c-1.392-.555-2.7-1.184-4.217-1.856,1.877-1.038,3.563-1.988,5.292-2.924,2.108-1.155,4.217-2.222,6.325-3.421a14.033,14.033,0,0,0,2.3-2,.6.6,0,0,0,0-.657,115.722,115.722,0,0,1-16.234,8.771q-8.526,4-17.668,7.309l-1.391-.658c1.159-.438,2.108-.818,3.183-1.213a21.672,21.672,0,0,0,2.467-1.1c.8-.4,2-.98,2.973-1.462a10.985,10.985,0,0,0,1.244-.922l-.253-.233a4.668,4.668,0,0,0-.949.2c-2.593,1.125-5.06,2.427-7.78,3.362-3.415,1.2-7.021,2.119-10.541,3.128a13.115,13.115,0,0,1-1.539.132c-1.308.2-2.594.438-4.217.7,1.2,1.2,2.593.527,3.837.615v.906l-4.744.716a21.475,21.475,0,0,1-2.424,1.784c-1.392.746-2.91,1.359-4.386,2.032-.21.1-.527.16-.632.292-1.518,1.7-4.217,1.55-6.452,1.71a58.518,58.518,0,0,1-6.6-.263l11.006-.716c-.232-.863-.907-.775-1.666-.716-3.036.219-6.093.4-9.129.614a15.964,15.964,0,0,0-1.708.292c.338.248.443.38.612.424a9.22,9.22,0,0,0,.928.088,14.742,14.742,0,0,0-2.425.088,19.149,19.149,0,0,0-2.741.876,9.618,9.618,0,0,1-3.626,1.1,12.8,12.8,0,0,1,1.1-.7c1.961-.965,3.943-1.929,5.946-2.924a3.871,3.871,0,0,1,1.412-.365,16.854,16.854,0,0,1,5.419.234c1.222.366,2.256-.2,3.394-.249a.484.484,0,0,0,.159-.044.322.322,0,0,0,.115-.087c.548-1.374,2.319-2.046,3.626-2.924A45.48,45.48,0,0,1,14.4,2119.8a24.106,24.106,0,0,1,2.825-1.111l1.6.614a19.086,19.086,0,0,0,3.036-.878,27.8,27.8,0,0,1,5.84-1.344q2.951-.69,5.776-1.608a28.151,28.151,0,0,0,3.353-1.564,31.8,31.8,0,0,0,3.457-1.74c2.109-1.462,4.217-3.056,6.325-4.561a.923.923,0,0,0-1.37-.147c-1.434.848-2.868,1.7-4.217,2.588s-2.4,1.638-3.584,2.471l-.358-.191a8.021,8.021,0,0,1,.759-.789c1.117-.818,2.277-1.622,3.394-2.427a30.244,30.244,0,0,0,5.8-5.993,47.713,47.713,0,0,0,3.647-4.956c1.813-2.836,3.416-5.745,5.25-8.581,1.623-2.5,3.436-4.942,5.165-7.412,1.033-1.462,1.982-2.923,3.079-4.385a70.555,70.555,0,0,1,5.017-6.418c3.205-3.392,6.81-6.608,10.015-10,2.951-3.144,6.325-6.023,9.487-9.122s5.84-5.848,8.623-8.772c1.476-1.594,2.72-3.289,4.006-4.956,1.1-1.462,2.108-2.807,3.142-4.225.358-.511.654-1.053.991-1.608.779.088.969.38.675.775l-3.986,5.175-.464.6-2.993,4.122c-1.054,1.462-2.109,2.924-3.184,4.386a29.926,29.926,0,0,1-2.889,3.333c-1.707,1.681-3.162,3.494-4.743,5.292a1.508,1.508,0,0,0,.519.17,1.7,1.7,0,0,0,.573-.016,1.393,1.393,0,0,0,.5-.2.873.873,0,0,0,.308-.336c1.475-1.842,3.794-3.362,4.575-5.482a1.015,1.015,0,0,1,.359-.483,17.547,17.547,0,0,0,4.215-4.2,37.749,37.749,0,0,0,2.931-4.006c1.729-2.485,3.373-4.971,5.081-7.455,0-.147.338-.235.864-.57-.969,3.3-3.753,5.7-5.313,8.464s-3.33,5.438-5.08,8.259a2.237,2.237,0,0,0,.885-.1,5.173,5.173,0,0,0,1.881-1.541,3.251,3.251,0,0,0,.65-1.967,1.147,1.147,0,0,1,.105-.718,1.657,1.657,0,0,1,.548-.613,12.812,12.812,0,0,0,4.006-5.219c.407-.849,1.3-1.622.974-2.614l.017-.076,2.656-2.558c.147.175.506.4.443.541a5.3,5.3,0,0,1-1.16,2.28,3.565,3.565,0,0,0-.8,1.272,34.865,34.865,0,0,1-2.467,4.254q-3.5,5.411-7.295,10.745c-1.2,1.652-2.614,3.216-3.943,4.825l-4.511,5.54a5.568,5.568,0,0,0,2.931-1.8,66.164,66.164,0,0,0,6.324-7.763c1.666-2.646,3.753-5.175,5.63-7.763.38-.526.611-1.1.969-1.622s.654-.848.991-1.287c1.983.629,2.51,1.974,3.88,2.924-.19.483-.4.98-.675,1.623l-3.668-2.28-.316.131a1.9,1.9,0,0,0,.379.731c.548.438,1.244.8,1.792,1.242,1.413,1.126,1.434,1.462.274,2.851-1.412-.7-1.412-.7-1.286-1.929l-2.657.058c1.371.833.675,1.579,0,2.383-.484.585-.822,1.213-1.349,2,1.856-.468,2.594.482,3.479,1.14,1.433,1.052,2.762,2.178,4.07,3.3a10.486,10.486,0,0,1,1.137,1.389c.359.423,0,.643-.463,1.008l-7.084-5.029-.295.1c0,.131,0,.336.1.409,1.561.906,1.371,1.93.295,3.1l-1.5-.877c-.358.775.717.965.991,1.594l-.695,1.11c-.254.366-.485.732-.738,1.112l-1.371-.234c1.455,1.608,0,2.689-.949,3.961l-1.771-1.082a4.028,4.028,0,0,0,1.581,2.164,51.578,51.578,0,0,0,4.554,4.064,1.359,1.359,0,0,1,.69.979,1.2,1.2,0,0,1-.479,1.039l-.611.658a54.234,54.234,0,0,1-6.662-5.059l-1.37,2.149,1.47-.716.469.074,4.659,4.487c.569.541.232.921-.632,1.359l-5.651-4.5-.337.176a65.234,65.234,0,0,0,5.25,5.715l-.949.717L93.84,2074c.147,1.228,1.56,1.871,2.382,2.763s1.961,1.8,2.931,2.661c-9.214,10.657-19.566,20.612-33.354,28.711a8.812,8.812,0,0,0,1.455-.453q2.195-1.085,4.216-2.324a83,83,0,0,0,7-4.737c2.53-1.93,4.87-3.976,7.232-6.023s4.427-3.786,6.451-5.847,4.216-4.533,6.325-6.8c1.18-1.257,2.446-2.471,3.521-3.758s1.707-2.324,2.551-3.479c1.2-1.71,2.53-3.362,3.584-5.116s1.645-3.334,2.467-5c1.244-2.485,2.614-4.927,3.71-7.441,1.33-3.026,2.53-6.1,3.585-9.18a36.049,36.049,0,0,0,1.307-5.848c.253-1.564.21-3.158.338-5.015l1.2.776c-.1-.585-.19-.994-.295-1.462l1.834-.4c.211,1.462.443,2.705.548,4.005a28.381,28.381,0,0,1-1.075,6.593c-.422,2.384-1.16,4.723-1.728,7.1,0,.41-.445.863.252,1.287a5.135,5.135,0,0,0,1.455-2.792c.57-2.646.885-5.307,1.6-7.924a26.115,26.115,0,0,0,.507-7,5.629,5.629,0,0,1,.274-1.3c.97,0,.885.38.885.716v.9a6.381,6.381,0,0,0,.224,1.547,4.6,4.6,0,0,1-.179,3.449,6.627,6.627,0,0,0-.4,2.568c-.133,1.809-.2,3.633-.333,5.458,0,.557,0,1.238-1.4,1.1a4.207,4.207,0,0,1,.8,1.19,2.471,2.471,0,0,1-.378,1.1c-1.422,3.247-2.689,6.541-4.444,9.742-1,1.949-1.666,3.944-2.533,5.892a73.182,73.182,0,0,1-3.955,6.79c-.267.464-.578.927-.978,1.546a3.275,3.275,0,0,0,1.149-.493,2.045,2.045,0,0,0,.7-.8,38.56,38.56,0,0,0,5.11-8.924,34.466,34.466,0,0,1,2.355-4.733c.422-.8.889-1.546,1.355-2.458a9.721,9.721,0,0,1,1.155.386c2.223.99,4.645,2.026,6.979,3.093,1.155.495,1.177.48.6,1.7a78.934,78.934,0,0,1-8.222-3.093c.4.881.378.881,3.511,2.412,1.288.619,2.644,1.206,4.044,1.84l-.289,1.393c-3.2-.589-5.311-2.522-8.666-2.692,2.466,1.175,4.866,2.382,7.377,3.511a1.688,1.688,0,0,1,.6.3,1.045,1.045,0,0,1,.337.458.784.784,0,0,1,0,.515,1.045,1.045,0,0,1-.337.458l-5.223-1.84a5.815,5.815,0,0,0,2.756,2.1c.333.17.755.247,1.111.4,1.11.51,1.11.542.4,1.732-1.733-.726-3.466-1.423-5.244-2.149,0,.819.777,1.314,4.733,3.356a1.506,1.506,0,0,1,0,.51,4.343,4.343,0,0,1-.444.448c-1.712-.355-2.6-1.546-4.711-1.81a13.981,13.981,0,0,0,3.2,2.367c1.067.572,1.044.587.333,1.779l-5.132-2.321c.222.464.244.758.466.9,1.134.68,2.222,1.33,3.489,1.979.688.387,1.044.774.133,1.345l-2.467-1.221-.4.294,2.356,2.026a5.881,5.881,0,0,1-.243,1.19l2.532-.479a3.074,3.074,0,0,1-.084-2.3,4.261,4.261,0,0,1,1.617-2c0-.123.334-.247.311-.355-.466-1.84,1.2-3.371,1.556-5.088a43.453,43.453,0,0,1,1.311-4.5,3.124,3.124,0,0,1,.488-1.1,16.778,16.778,0,0,0,2.222-5.444,33.61,33.61,0,0,0,1.245-4.764,38.068,38.068,0,0,0,.4-6.185c0-3.093-.267-6.295-.466-9.45a18.641,18.641,0,0,0-.467-3.092c1.11,0,1.221.51,1.31.9q.846,4.547,1.622,9.094a3.132,3.132,0,0,0,0,.433,28.33,28.33,0,0,1,.489,6.542,1.349,1.349,0,0,0,.206.854,2.075,2.075,0,0,0,.75.692,4.338,4.338,0,0,0,.423-3.279c-.224-2.783-.489-5.552-.756-8.319V2044h2.254a18.54,18.54,0,0,0,1.746,6h.386c0-.941.1-1.9.162-3.085a14.009,14.009,0,0,1,1.929,6.525c-1.177,1-2.4-.525-3.776,0,1.136.987,2.74.617,4.061,1.11.548,2.823,1.116,5.692,1.685,8.654l-2.03.139-.123.262,1.706.509V2066h-2.349c.17,1.119,1.608.589,2.117,1.1-.17.427-.318.9-.53,1.4,1.588.162,1.1-.913,1.842-1.237l4.91.206c-.169.781-.318,1.473-.508,2.387l-5.164-.531c.636.825,1.565.751,2.307.854s1.672.177,2.731.295c-.234.707-.424,1.311-.678,2.033l-2.942-.309c.529.927,1.735.589,2.328,1.016.4,1-.487,1.709-1.312,2.533l-1.439-.146a.9.9,0,0,0-.128.191l1.588.825-1.672,3.918-3.345-.53c.763.677,2.117,1.119,5.377,1.8a14.18,14.18,0,0,1-2.857,6.349,35.6,35.6,0,0,1-6.35,7.041,19.471,19.471,0,0,0-2.561,3.271c2.117.839,5.1.618,7.112,2-.466.383-.911.708-1.313,1.061ZM111.855,2057.3l-7.2-4.833c.381-.575.762-1.165,1.185-1.769,1.843.575,1.632,1.474,1.123,2.712l1.545-.634,4.426,3.625a3.721,3.721,0,0,1-.487.988A2.289,2.289,0,0,1,111.855,2057.3Zm-2.88-5.482c.4-.663.72-1.208,1.06-1.753a4.309,4.309,0,0,1,2.117,2.107,1.394,1.394,0,0,0,.445.427c.381.281,1.058.516,1.121.811a4.3,4.3,0,0,1-.4,1.71Zm4.658-2.505c1.652.84,1.673.884,1.017,2.255C112.872,2051.012,112.808,2050.894,113.633,2049.317Zm-1.587.412c-1.461-.781-1.461-.781-.656-2.284C113.168,2048.079,112.109,2048.919,112.046,2049.729Zm2.541-3.861a2.96,2.96,0,0,1,.891.564,1.959,1.959,0,0,1,.51.76,1.5,1.5,0,0,1,.051.837,1.788,1.788,0,0,1-.414.787,2.89,2.89,0,0,1-1.024-.51,1.773,1.773,0,0,1-.578-.779,1.319,1.319,0,0,1-.005-.877A1.744,1.744,0,0,1,114.587,2045.868ZM113.126,2047c-1.567-.088-1.186-1.12-2.118-1.474q-1.1-.528-2.117-1.134l1.439-1.474c1.25.56.551,1.474,1,2.122l1.016-.457c1.757.664.572,1.577.847,2.417Zm-4.447-5a7.481,7.481,0,0,1-.677.914c-.382-.442-.911-.8-.805-1a9.354,9.354,0,0,1,2.414-3.595c.127.442.359.722.233.884a11.766,11.766,0,0,0-1.1,2.8Zm2.626-2c.783.649.317.973-.275,1.3a8.79,8.79,0,0,0,.338-1.3Zm3.726,3.525c1.906.914,1.906.914,1.483,2.005C115.349,2045,114.439,2044.513,115.031,2043.525Zm-1.5,0c-.72-.678-.212-1.091,0-1.783C114.248,2042.523,113.782,2042.891,113.528,2043.525Zm2.472-3.537c1.948.678,1.08,1.71.974,2.653-1.948-.59-1.991-.751-.974-2.638Zm-1.795,1.032c-1.079-.943,0-1.651,0-2.55.869.929.869.988-.041,2.564Zm-2.117-1.474c-.677-1.091.36-1.592.4-2.284l.656.132c-.381.693-.678,1.341-1.122,2.211Zm-1.8-1.326c-.213-.295-.319-.384-.3-.442.275-.516.572-1.032,1-1.784.424,1.091-.381,1.548-.762,2.285Zm7.711-1.194v1.636c-.889-.6-.889-.6-.063-1.577Zm-3.223.4c.148-.693.276-1.282.4-1.989.868,1.178.826,1.37-.466,2.048ZM113.57,2036h-.507a6.8,6.8,0,0,1,.317-1.474c.847.575.021,1.047.127,1.533Zm-10.037,27.317a1.044,1.044,0,0,1-.486-.584.77.77,0,0,1,.126-.668c.318-.5.551-1.017,1.017-1.9,1.144,1.016,2.117,1.783,2.88,2.549a17,17,0,0,1,1.27,1.3c.72.812,0,1.474-.635,2.27Zm3.537,4.672c-.318.678-.635,1.341-1.059,2.27l-6.161-4.422c.635-.457,1.1-.766,1.524-1.1s.741-.634,1.164-1A18.937,18.937,0,0,1,107.07,2067.989Zm1.292-5.792c-.509-.295-.932-.633-1.44-.914-1.737-.958-2.711-2-.805-3.566l3.621,2.948c.763.633.317,1.267-.106,2.063A11.543,11.543,0,0,1,108.362,2062.2Zm42.984-14.486c2.5,0,2.753.191,3.494,2.505l-8.492-.354c-.169-.825-.359-1.576-.507-2.3a4.3,4.3,0,0,1,1.3-.286,4.591,4.591,0,0,1,1.357.11,3.733,3.733,0,0,1,1.173.488,2.466,2.466,0,0,1,.783.779Zm3.832-.055,1.314-.176,1.778,2.52h-2.118C155.771,2049.042,155.495,2048.423,155.178,2047.656Zm4.235,1.344c-.89-.619-.762-1.061,0-1.474.276.575.276.575-.084,1.474Zm3.515,0c.466,1.474.466,1.474-.974,1.474-.275-.589-.783-1.253.889-1.474Zm-8.109,4.929-7.835-.368c-.127-1.046-.276-1.975-.423-3.109l8.956.383a2.21,2.21,0,0,1,.266,1.615A2.748,2.748,0,0,1,154.819,2053.929ZM159,2053v1.282q-.593.023-1.186,0c-1.714-.1-1.757-.177-1.609-1.474a8.055,8.055,0,0,0,0-1.473c2.457.073,2.6.177,2.71,1.665Zm-4.181,4.179c-.466,0-.932-.486-1.5-.825-.4.6-1.292.634-2.287.5s-2.308-.25-3.557-.383c-.191-.737-.381-1.474-.593-2.166a12.061,12.061,0,0,1,4.384,0c1.354,0,2.709.265,4.086.4l.741,1.3h.4c.121-.351.242-.691.353-1.014l.5-.327c2.767.178,2.872.312,2.11,2.7-1.587,0-1.587,0-2.434-.663A9.783,9.783,0,0,1,154.819,2057.179Zm1.181,3.176-2.837.088c.17-.8.318-1.562.508-2.461l2.329.236Zm2.454-2.355,1.546.353v1.9l-1.884-.089a8.247,8.247,0,0,1,.254-2.166Zm-8.95,2c-.932-.118-1.567-.383-1.483-1.164a6.743,6.743,0,0,0-.359-1.474l4.785.487a1.785,1.785,0,0,1,.148.456c-.212,1.916-.466,2.063-3.176,1.7Zm4.53,1.166c1.589.235,3.219.339,4.935.515,0,.885-.149,1.474-.212,2.241l-5.04-.841a14.169,14.169,0,0,1-5.717-.4v-2.063c2.583-.1,3.282.118,3.832,1.253a2.087,2.087,0,0,1,.917-.552,2.987,2.987,0,0,1,1.2-.111Zm1.821,4.834a1.29,1.29,0,0,1-.7,0,.764.764,0,0,1-.253-.171.5.5,0,0,1-.128-.227,5.769,5.769,0,0,1,.149-1.592l.466-.221c.359.206,1.015.413,1.015.619a4.108,4.108,0,0,1-.635,1.592Zm2.373-1c.826.87.826.958-.318,1.562a11.7,11.7,0,0,1,.233-1.562Zm-5.04,1.323-5.019-.324c0-.84.106-1.562.17-2.417l5.314.546a14.75,14.75,0,0,0-.55,2.18Zm2.307,2.653c0,.443-.4.781-1.376.428.234-.708.487-1.474.763-2.27,1.313.56.593,1.253.529,1.828Zm2.118-1.031c1.313.4.424,1.149.763,1.842-1.567-.324-1.567-.324-.911-1.857Zm.446,2.947c-.3.619-.637,1.312-1.017,2.063l-3.981-.6a11.146,11.146,0,0,1,.55-1.4c.128-.235.488-.575.678-.545a2.259,2.259,0,0,1,.974.486c.169.118.191.31.317.53.741-.1.953-1.237,2.33-.545Zm-3.431,2.7c-.466.781-.911,1.562-1.4,2.4l-1.693-.176c-.382-2.521.189-2.948,2.942-2.241Zm-1.419,5.895,1.61.472c-.4.692-.594,1.385-2.224,1.06a9.31,9.31,0,0,1,.466-1.546Zm-3.2,1.075a.718.718,0,0,1-.246-.24.474.474,0,0,1-.071-.29c0-.781.55-.943,2.117-.633a8.815,8.815,0,0,1-.911,1.1,1.108,1.108,0,0,1-.508.139,1.186,1.186,0,0,1-.529-.094Zm-2.562,17.686c-.572.766-.932,1.016-1.864.662-1.37-.516-2.785-.973-4.235-1.37-.656-.191-.551-.4-.317-.663Zm1.779-1.666c-1.038,1.032-1.716,1.061-3.706.177C146.561,2095.65,147.153,2095.621,149.229,2096.579Zm.771-2.594,1.313.295.339.177-1.06,1.076-3.069-.56c1.037-1.341,1.037-1.341,2.477-1Zm4.5-1.827-1.8,1.474-2.986-.84C150.774,2091.185,151.325,2091.111,154.5,2092.158Zm1.5-2.093-1.376,1.209-3.219-.8,1.1-1.341a7.777,7.777,0,0,1,3.494.914Zm2.588-2.741-1.313,1.725-1.864-.369c-.486-.118-.974-.28-1.44-.413,1.249-1.915,1.673-2,4.723-.957Zm1.927-2.328-.911,1.356-1.779-.34-1.439-.324c.676-1.356,1.714-1.533,4.235-.707Zm1.926-2.948c-.466.664-.8,1.164-1.25,1.768l-3.112-.5,1.292-1.812Zm1.186-1.975-.995,1.283c-.36-.87.36-1.091.592-1.474Zm2.276-4.5-3.2-.339q-1.051-.138-2.118-.191a6.417,6.417,0,0,0-1.588.28v.471c.593.25,1.439.707,1.821.575,1.545-.545,2.88,0,4.235.147-.233,1.238-.233,1.238-1.229,1.945-.889-.486,0-1.222-.55-1.768-1.355-.118-1.017.9-1.778,1.312h-2.118c-.55,0-1.207,0-1.059.56a1.267,1.267,0,0,0,.416.4,1.884,1.884,0,0,0,.622.235,11.7,11.7,0,0,0,1.927,0c-.128,1.15-.17,1.165-1.334,1.047l-3.473-.251c0,.855,0,.855,1.016,1.474-.169.3-.254.737-.592.929a2.622,2.622,0,0,0-1.066.843,1.61,1.61,0,0,0-.311,1.1c0,.266-.784.634-1.291.84a5.615,5.615,0,0,1-1.4.133c-.7.84.466.855.869,1.224l-.869.987-2.372-.265a4.435,4.435,0,0,0-.741.118,3.8,3.8,0,0,0,.128,1.164l1.884-.148a1.67,1.67,0,0,1-.366.826,2.554,2.554,0,0,1-.82.648c-.741-.133-1.694-.737-2.329,0s.571.869,1.249,1.268a2.282,2.282,0,0,1-2.329.884,2.224,2.224,0,0,0-.763,0,1.1,1.1,0,0,0-.441.137.668.668,0,0,0-.274.277.442.442,0,0,0-.025.336.6.6,0,0,0,.233.3.675.675,0,0,0,.359.192c.3.088.614.147.954.235-.276.767-.848,1-1.97.723s-1.313-.251-1.546.766l1.673.353c-1.037,1.578-2.5.266-4.087.457a8.6,8.6,0,0,1,.8-1.193A54.664,54.664,0,0,0,146,2090.7c1.567-1.9,2.879-3.876,4.234-5.895a6.639,6.639,0,0,0,.381-1.326,8.97,8.97,0,0,1,.932-1.636c.318-.442.847-.339,1.419,0,0,1.032-1.122,1.769-1.673,2.756l1.292.132a9.168,9.168,0,0,0,2.329-2.741,12.1,12.1,0,0,0,.53-2.947l-3.028-1.164-2.118.354c.233-.811.4-1.356.635-2.108l6.353,1.474c0-.958,0-.958-2.8-1.813l.848-2.373c.973-.132,1.291.178,1.143.811s-.677,1.194,0,1.842c1.482-.3,1-1.3,1.4-1.842a44.9,44.9,0,0,1,8.83-.25C166.411,2074.463,166.178,2074.993,165.9,2075.568Zm1.62-3.821c-.148.633-.254,1.179-.4,1.827l-1.716-.354c.128-.53.212-1.016.361-1.635Zm.318-.943-1.715-.1c.317-1.238.317-1.238,2.117-1.268Zm-3.981-.8c-.276,0-.762-.324-.72-.471,0-.634.8-.546,1.694-.442,0,.575-.043,1.017-1.016.913Zm-2.118,0-2.118.634,1.843,1.68c1.291.177.932-1.474,2.668-1-.106.457-.211.958-.317,1.474l-5.23.22c0-.176-.17-.338,0-.427a12.753,12.753,0,0,0,1.63-7.472,7.8,7.8,0,0,1,0-1.223c.381-2.033.783-4.067,1.207-6.086a1.85,1.85,0,0,1,.508-.972c0,1.591,1.08,3.079.19,4.744a3.779,3.779,0,0,0,.149,2.624,1.485,1.485,0,0,1,.173.849,1.619,1.619,0,0,1-.342.823,2.467,2.467,0,0,1-.8.654,3.622,3.622,0,0,1-1.111.371,4.69,4.69,0,0,1,1.229.545c.191.206.36.707.191.811-.975.574-.784,1.164,0,1.753Zm4.044-9c.466,1.916.382,2-1.714,1.931-.339-1.474-.339-1.474,1.588-1.931Zm2.838,7-5.335.177a12.92,12.92,0,0,1,.189-1.474l5.23-.649c-.084.738-.147,1.283-.211,1.946Zm-4.508-1.853c-.741-1.474-.572-1.592,1.884-1.71v1.341Zm5.058-.147h-2.117a7.963,7.963,0,0,0,.381-4.1c0-.737,0-.737,1.652-.855-.085,1.65-.064,3.257-.042,4.952Zm-5.187-5.1c-.148-.648-.275-1.208-.423-1.827l2.116-.663a5.411,5.411,0,0,0,.255,1.06,5.808,5.808,0,0,1,0,.855Zm5.061-1.9c0,.8-.763.825-1.716.9a2.087,2.087,0,0,1-.08-1.27,2.545,2.545,0,0,1,.7-1.176l-1.8-.693-2.562,1.1a15.8,15.8,0,0,0-.19-1.827l5.082-1.3c.148,1.577.318,2.918.444,4.259Zm-.615-5-5.272,1.149a3.715,3.715,0,0,0-.19-1.473l1.673-.413.676,1.016c.276-.618.446-.972.636-1.37l1.863-.265a7.329,7.329,0,0,0,.488,1.356Zm-5.907-2c-.424-.6.191-.884,1.08-1.076l.784,1.032c-.932.28-1.547.663-1.991.044Zm4.474-2.079v1.857l-2.118.236a.873.873,0,0,1-.223-.456.763.763,0,0,1,.089-.478,1.133,1.133,0,0,1,.383-.4,1.781,1.781,0,0,1,.6-.241,11.452,11.452,0,0,0,1.122-.516l-2.605-.1c-.126-.516-.275-.988-.4-1.474l1.545-.4,1.483,2Zm-1.6-4.657c-.254,2.034-.635,2.269-4.234,2.623-.233-.442-.466-.9-.762-1.473q1.335-.253,2.625-.6A4.6,4.6,0,0,1,165.4,2045.264Zm-7.3.709a3.162,3.162,0,0,1,.212-.973h1.017c.254-.634,0-1.548,1.609-1.65.212.338.466.721.784,1.252Zm6.755-1.973-1.821.545a3.677,3.677,0,0,1-.487-1.311c0-.325.571-.59,1.122-1.106.424.723.762,1.165,1.165,1.872Zm-1.566-2.229-1.526.5c-.423-.561-.847-1.091-1.227-1.607C162.335,2039.62,162.547,2039.708,163.289,2041.771ZM161.954,2039l-1.864.708-1.036-1.578,1.968-.854c.382.633.635,1.12.975,1.724Zm-1.313-3a1.528,1.528,0,0,1-1.524,1.282,4.331,4.331,0,0,1-1.483-.589c.763-1.032,1.8-.885,3.05-.693Zm-2.118-2-1.63.973-.4-.148a1.066,1.066,0,0,1,.169-.737,1.651,1.651,0,0,1,1.9-.088Zm-1.206-.791-1.334.589c-.763-.427-.763-.81,0-1.134S156.936,2032.723,157.317,2033.209Zm-12.629-9.815a61.169,61.169,0,0,1,10.079,6.868s.233.147.233.221v.825a2.436,2.436,0,0,1-1.165-.162c-.826-.707-1.5-1.474-2.265-2.24a1.816,1.816,0,0,0-1.99-.59,38.554,38.554,0,0,0,4.4,4.613l-2.436.825c-1.143-1.385-2.117-2.726-3.366-4.038a13.943,13.943,0,0,0-1.715-1.311c-1.122-.811-2.118-1.665-3.346-2.447a1.117,1.117,0,0,1-.548-.7.872.872,0,0,1,.231-.777l6.119,3.33a1.059,1.059,0,0,0-.074-.968,1.812,1.812,0,0,0-.921-.727c-1.61-.972-3.2-1.96-4.786-2.947l.317-.28A10.414,10.414,0,0,1,144.688,2023.394Zm-6.81-.805a.784.784,0,0,1,.21.378.658.658,0,0,1-.043.4.913.913,0,0,1-.284.353,1.455,1.455,0,0,1-.475.235c-.169.884,1.5,1.473.889,2.387l-1.567.5c.614.59-.529.56-.55.722a2.37,2.37,0,0,0,.444,1.179c-1.1.855-1.524-.928-2.731-.265l.72,1.223-.974.766L130.3,2029h-.106c-.487.486,0,.766.466,1.09s.233.648-.593.84c-.445-.457-.931-.958-1.587-1.665l1.714-.265a.857.857,0,0,1,.409-.527,1.614,1.614,0,0,1,.8-.225c1.631-.133,2.52-1.091,3.748-1.651a1.222,1.222,0,0,0,.614-.84,10.7,10.7,0,0,0,.255-2.3,1.616,1.616,0,0,0-.635-.929c-.912-.855-1.864-1.7-2.881-2.623a7.48,7.48,0,0,1,3.309.739A4.434,4.434,0,0,1,137.878,2022.589Zm-10.354-3.528c1.461.118,2.118,1,3.028,1.621q1.223.91,2.308,1.9a1.981,1.981,0,0,1-.3.251,8.086,8.086,0,0,1-3.663-1.754,7.93,7.93,0,0,0-3.156-2.181,16.669,16.669,0,0,1-1.609-.928C126.085,2017.588,126.317,2018.958,127.524,2019.061ZM121.172,2016a.884.884,0,0,1,.338.4.62.62,0,0,1,0,.46,1.883,1.883,0,0,1-1.271.294c-.445-.029-.592-.309-.868-.5l-2.414-1.621c1.864.369,3.071.619,4.3.973Zm-65.429,78.516a15.6,15.6,0,0,1-2.668,2.947l-.36-.117a1.626,1.626,0,0,1,.169-.708c1.8-2.786,3.642-5.541,5.4-8.327.847-1.326,1.5-2.7,2.244-4.052a7.362,7.362,0,0,1,.995-1.621c1.864-1.931,2.668-4.259,4.913-6.043a10.347,10.347,0,0,1,3.24-3.993c2.117-2.034,3.324-4.422,5.547-6.367,3.028-2.668,5.866-5.438,8.767-8.179a2.536,2.536,0,0,1,1.778-.855c.678.4.254.693,0,.973-2.583,2.284-5.209,4.539-7.707,6.867a35.758,35.758,0,0,0-3.071,3.435c-.465.5-.995.943-1.482,1.473-2.414,2.461-4.235,5.128-6.543,7.678a55.852,55.852,0,0,0-5.738,8.046C59.364,2088.562,57.543,2091.539,55.743,2094.516Zm80.674-4.951a29.934,29.934,0,0,1-8.152,8.252c-.423.28-.868.516-1.313.781l-.444-.221c.36-.4.7-.811,1.079-1.194,1.695-1.783,3.537-3.507,5.083-5.334,2.011-2.388,3.769-4.879,5.7-7.369a18,18,0,0,0,2.731-4.51,16.351,16.351,0,0,1,2.117-3.345,3.824,3.824,0,0,0,1.355-3.2c1.208.118,1.123.692.912,1.134a16.751,16.751,0,0,1-1.673,2.609,7.119,7.119,0,0,0-1.695,3.935,3.466,3.466,0,0,1-.783,1.651C139.742,2085.025,137.984,2087.265,136.417,2089.565Zm-50.924-28.7c.487,1.119-.529,1.68-1.059,2.343-1.143,1.385-2.393,2.712-3.642,4.038s-2.774,2.623-4,4.008c-2.117,2.358-4.912,4.421-6.183,7.089a.5.5,0,0,1-.169.25c-2.647,1.621-2.986,4.083-4.574,6.087a1.122,1.122,0,0,1-.339.324H64.89a5.259,5.259,0,0,1,1.419-3.272c1.524-2.121,3.028-4.244,4.785-6.248s3.579-3.523,5.379-5.35c1.4-1.473,2.689-2.947,4.086-4.421s2.817-2.844,4.235-4.274A1.622,1.622,0,0,1,85.493,2060.861Zm.106,35.718a3.059,3.059,0,0,1,.508-.884c2.117-1.989,4.4-3.95,6.48-5.9s3.769-3.935,5.7-5.9c1.5-1.474,3.069-3.035,4.6-4.568.317-.324.613-.693.91-1.032l1.461-1.724.614.177a9.049,9.049,0,0,1-.889,1.871c-.657.841-1.525,1.592-2.267,2.4s-1.206,1.474-1.884,2.211-1.714,1.827-2.625,2.712-2.117,2.077-3.3,3.036a1.127,1.127,0,0,0-.348.294.764.764,0,0,0-.154.366.685.685,0,0,0,.063.378.944.944,0,0,0,.269.332c-1.99.265-2.668,1.4-3.621,2.329s-1.588,1.665-2.435,2.49a4.187,4.187,0,0,1-1.325.922A5.918,5.918,0,0,1,85.6,2096.579Zm-3.6-3.92c4.553-4.568,8.046-9.623,12.917-14.03l.338.1a.2.2,0,0,1,0,.118.389.389,0,0,1,0,.265,27.971,27.971,0,0,1-2.287,3.154c-3.409,3.655-6.352,7.546-10.587,10.773a2.556,2.556,0,0,1-.635.192,1.328,1.328,0,0,1,.254-.619Zm28.013-11.2c-.974.958-2.117,1.887-2.943,2.86-.487.516-.72,1.164-1.229,1.665a32.65,32.65,0,0,1-4.848,4.583c-1.884,1.283-3.325,2.8-5.1,4.112q-.606.4-1.27.752l-.424-.295c2.011-1.754,4.065-3.493,5.992-5.306s3.9-3.831,5.781-5.776c1.016-1.062,1.9-2.167,2.859-3.242a2.248,2.248,0,0,1,.635-.516,1.069,1.069,0,0,1,.7-.074c.128.074.466.383.424.545a1.712,1.712,0,0,1-.466.648Zm-4.489,19.306c-3.3,2.432-6.84,4.731-10.291,7.075a6.648,6.648,0,0,1-1.079.427c-.763-.487-1.038-.87-.234-1.312,1.186-.634,2.308-1.341,3.537-1.916a36.812,36.812,0,0,0,10.057-6.985c1.864-1.783,3.41-3.729,5.378-5.9-.317.678-.465,1.076-.677,1.474A23.123,23.123,0,0,1,105.524,2100.764Zm27.252-13.9a39.947,39.947,0,0,0,3.091-5.025,1.225,1.225,0,0,1,.59-.712,2.269,2.269,0,0,1,1.1-.29,9.209,9.209,0,0,1-.784,2.24c-.826,1.238-1.9,2.387-2.773,3.6-.656.884-1.059,1.857-1.757,2.711-1.229,1.474-2.6,2.948-3.96,4.421a6.5,6.5,0,0,1-1.038.973c-.508.368-1.08.708-1.609,1.061l-.339-.177a2.576,2.576,0,0,1,.36-.648C128.033,2092.291,130.552,2089.638,132.776,2086.867ZM98.261,2098.51c1.609-1.312,2.965-2.564,4.552-3.67a51.631,51.631,0,0,0,7.539-6.882c.338-.354.719-.693,1.1-1.032l.4.147a9.581,9.581,0,0,1-1.313,2.064,39.582,39.582,0,0,1-7.369,6.646,4.475,4.475,0,0,1-1.036.6,3.506,3.506,0,0,0-1.126.516,2.284,2.284,0,0,0-.717.795,1.375,1.375,0,0,1-.783.69A2.365,2.365,0,0,1,98.261,2098.51Zm24.8,7.648a3.381,3.381,0,0,0-.657.59,16.252,16.252,0,0,0-6.077,3.478c-1.017-.236-1.058-.737-.551-1.15a9.484,9.484,0,0,1,2.562-1.62,41,41,0,0,0,11.286-6.235c.234.914.234.988-.867,1.636C126.952,2103.947,125.025,2105.053,123.057,2106.158Zm-48.045-25.952c3.366-3.6,6.712-7.206,10.269-11.038a2.451,2.451,0,0,1-.127,1.135q-1.779,2.432-3.684,4.819c-.508.634-1.207,1.179-1.736,1.8-1.144,1.46-3.156,2.211-4.638,3.361Zm38.092,27.367,9.338-6.13c.361.383.149.751-.254,1.134-.677.663-1.333,1.356-1.99,2.019a1.881,1.881,0,0,1-.656.487,16.475,16.475,0,0,0-4.955,2.623C114.142,2108.074,113.57,2108.281,113.1,2107.573ZM142.219,2067h-.444a6.86,6.86,0,0,1-.149-1.474,27.774,27.774,0,0,0,0-7.619s.149-.133.34-.28a1.5,1.5,0,0,1,1.355,1.71A23.76,23.76,0,0,1,142.219,2067Zm-9.211,14.12,1.207-2.418,3.24-6.484a1.643,1.643,0,0,1,.71.873,1.2,1.2,0,0,1-.138,1,36.33,36.33,0,0,1-3.875,6.529,1.4,1.4,0,0,1-.489.341A1.985,1.985,0,0,1,133.008,2081.12Zm-36.822,16.049c1.228-.944,2.52-1.857,3.769-2.786a2.227,2.227,0,0,1,.7-.486c.339-.118.952-.309,1.123-.206.529.324.147.648-.255.914l-1.418.943-7.157,4.833c-.4.265-.72.59-1.1.884L91.4,2101C92.988,2099.733,94.577,2098.436,96.186,2097.169Zm17.321,1.061c-1.1.692-1.652,1.842-3.6,2.166l11.773-9.933a6.037,6.037,0,0,1-2.011,2.653c-.995.84-1.927,1.724-2.923,2.564A32.748,32.748,0,0,1,113.507,2098.23Zm-24.1,8.915c0-.22,0-.427.148-.5a65.859,65.859,0,0,0,9.105-5.379,1.867,1.867,0,0,0,.551-.1C98.452,2102.916,94.026,2105.6,89.41,2107.145Zm35-14.324a11.784,11.784,0,0,1-5.993,5.689A25.456,25.456,0,0,1,124.412,2092.821Zm13.615-13.455a33.452,33.452,0,0,1,2.562-6.278c1.037.162,1.207.486,1.017.885a19.748,19.748,0,0,1-1.038,2.033c-.381.663-.911,1.695-1.419,2.52A2.349,2.349,0,0,1,138.027,2079.366ZM127.44,2090a21.656,21.656,0,0,1,3.706-5.762c1.016,1,.19,1.724-.191,2.328a8.644,8.644,0,0,1-3.494,3.434Zm16.588-3,2.505-3h.407a1.95,1.95,0,0,1,0,.96c-.66.972-1.107,1.837-2.892,2.04ZM87.06,2106.394a10.344,10.344,0,0,1,5-2.859A15.832,15.832,0,0,1,87.06,2106.394Zm.212-5.393a6.246,6.246,0,0,1,3.451-2.4A8.386,8.386,0,0,1,87.272,2101Zm35.34-2.948.339.177-2.541,2.225C120.579,2099.423,120.579,2099.423,122.612,2098.053Zm-15.267-70.459-.318.074c0-.177-.148-.354-.232-.53l.317-.074C107.2,2027.314,107.282,2027.417,107.345,2027.594ZM33.7,2118.3a.953.953,0,0,1,.3.074v.236l-1.038.6c-.127-.147-.359-.31-.317-.427a.5.5,0,0,1,.123-.233.781.781,0,0,1,.249-.177,1.107,1.107,0,0,1,.331-.089A1.207,1.207,0,0,1,33.7,2118.3Z" transform="translate(16.695 -2012.616)" fill="#101a24" opacity="0.1"/>
</svg>
