<svg xmlns="http://www.w3.org/2000/svg" width="90.332" height="56.966" viewBox="0 0 90.332 56.966">
  <path id="ajo7" d="M143.155,2290.1a15.127,15.127,0,0,0-3.916,1.612,9.016,9.016,0,0,1-1.259.771,3.267,3.267,0,0,0-1.892,1.842,5.029,5.029,0,0,1-.443,1.255.993.993,0,0,0-.211.716,1.121,1.121,0,0,0,.372.685,14.369,14.369,0,0,1,1.007,1.17c.232.28.221.546-.262.7s-.352.287-.2.525a.511.511,0,0,1,0,.533c-.534.826-1.158,1.625-1.641,2.459a20.2,20.2,0,0,1-2.738,3.23c-.514.56-1.279,1-1.843,1.534-1.006.96-2.2,1.815-3.181,2.8-1.611,1.619-3.453,3.1-5.245,4.645A19.863,19.863,0,0,0,118,2319c-.392.637-.855,1.254-1.288,1.87-.775,1.114-1.571,2.214-2.306,3.328-.5.75-.9,1.528-1.379,2.278-.574.889-1.178,1.765-1.792,2.641-.916,1.324-1.761,2.67-2.788,3.952a27.814,27.814,0,0,1-5.97,5.045,2.058,2.058,0,0,1-.695.308q-2.677.567-5.376,1.1a5.111,5.111,0,0,0-2.013.7c-1.007.7-2.074,1.4-3.091,2.145a3.968,3.968,0,0,1-1.832.7c-.518.077-1.043.133-1.57.168-.453,0-.906-.063-1.359-.042a3.219,3.219,0,0,0-1.651.568,4.734,4.734,0,0,1-1.3.7,6.826,6.826,0,0,0-2.527,1.366,6.5,6.5,0,0,0-.855.988,3.361,3.361,0,0,0,2.013.119c.664-.218,1.58-.491,2.376-.75a10.944,10.944,0,0,1,3.08-.7,37.019,37.019,0,0,1,3.725.049,4.772,4.772,0,0,0,1.52-.119,13.316,13.316,0,0,0,2.265-.9,7.05,7.05,0,0,1,2.567-.868,17.2,17.2,0,0,1,2.88-.1c2.235.14,4.459.343,6.684.56a40.24,40.24,0,0,0,6.947.287c1.459-.1,2.919-.133,4.369-.238a24.319,24.319,0,0,0,4.228-.5,4.342,4.342,0,0,1,.926-.049c1.279,0,2.557,0,3.826-.07,1.449-.084,2.889-.281,4.339-.407a29.074,29.074,0,0,0,5.5-1.177c2.215-.631,4.389-1.324,6.574-2a21.071,21.071,0,0,0,2.416-.82c1.671-.749,3.342-1.5,4.933-2.312s3.473-1.436,4.641-2.613a.453.453,0,0,1,.191-.133,3.654,3.654,0,0,0,1.52-1.072,2.984,2.984,0,0,1,.353-.3,26.788,26.788,0,0,0,3.261-2.7,48.063,48.063,0,0,0,4.148-4.078,13.95,13.95,0,0,0,2.486-3.63c.272-.749.675-1.485,1.007-2.235a25.907,25.907,0,0,0,1.168-3.075,8.724,8.724,0,0,0,.181-4.5c-.2-.826-.241-1.674-.4-2.515-.1-.511-.353-1.009-.434-1.528a10.631,10.631,0,0,0-1.439-3.419c-.624-1.177-1.349-2.333-1.9-3.5a4.536,4.536,0,0,0-1.58-1.948,6.309,6.309,0,0,1-.775-.651,17.655,17.655,0,0,0-4.319-3.378,10.23,10.23,0,0,0-3.161-1.464.355.355,0,0,1-.12-.044.235.235,0,0,1-.081-.075c-.423-.645-1.379-.925-2.014-1.4a.963.963,0,0,0-.483-.176,13.915,13.915,0,0,0-2.759-.266,3.128,3.128,0,0,1-1.731-.371,17.6,17.6,0,0,0-4.359-1.479A3.869,3.869,0,0,0,143.155,2290.1Zm.081,1.135,1.006,1.192c-.845,0-1.006-.561-1.661-.7-.443.623.826.7.675,1.191-.453.2-.695-.1-1.007-.259a9.665,9.665,0,0,1-.826-.638Zm-1.9,7.89a1.445,1.445,0,0,0-.766-.659c-.493-.245-1.107-.427-1.228-.925a.189.189,0,0,0-.057-.083.307.307,0,0,0-.1-.057c-.715-.119-.9-.588-1.228-.932a1.49,1.49,0,0,1-.4-1.061,1.567,1.567,0,0,1,.5-1.041,5.329,5.329,0,0,0,.211.561.982.982,0,0,0,.312.385c.07.056.272,0,.423,0a.5.5,0,0,0-.051-.266l-.483-1.093a5.025,5.025,0,0,1,1.782-.848c-.231,0-.372-.126-.141-.245.484-.259,1.007-.491,1.48-.7.332.337.624.61.886.911a.664.664,0,0,1,.09.371,2.613,2.613,0,0,1-.533-.126q-.427-.255-.816-.539l-1.006.364c.936-.035,1.49.407,1.288,1.156l-1.006-.826c-.685-.043-.081.462-.463.588a7.4,7.4,0,0,0-.9.434c-.071.183-.141.379-.212.575a.962.962,0,0,1,.486.167.5.5,0,0,1,.219.345c.081.931,1.117,1.478,1.731,2.192a1.785,1.785,0,0,1,.323.442.885.885,0,0,0,.252.337,1.339,1.339,0,0,0,.424.238,1.81,1.81,0,0,0,.525.1,1.871,1.871,0,0,0,.54-.054,2.369,2.369,0,0,1-1.028-.315,1.366,1.366,0,0,1-.593-.665c.625.273,1.108.469,1.561.7.08.042,0,.183.06.287q.777.071,1.561.078c.544-.028,1.085-.077,1.62-.148l1.007,1.115-.876.147a1.058,1.058,0,0,0-1.147-.967c0,.364,0,.364.332.869-.221.133-.4.259-.634,0a5.02,5.02,0,0,0-1.279-.862v.757l-.554-.344a1.269,1.269,0,0,0-.321.21.416.416,0,0,1-.142.13.6.6,0,0,1-.208.074.737.737,0,0,1-.234,0,.644.644,0,0,1-.212-.068A2.182,2.182,0,0,1,141.333,2299.128Zm8.123-3.216a15.8,15.8,0,0,1-3.2,1.478,4,4,0,0,1-1.178.175,15.549,15.549,0,0,0,3.846-2.347c-.343-.035-.554-.1-.665-.056a4.044,4.044,0,0,0-1.2.6,14.187,14.187,0,0,1-4.449,1.933c-.222.056-.5.106-.6-.2l3.08-1.247a.941.941,0,0,0,.242-.1c.463-.441.916-.89,1.48-1.443a3.029,3.029,0,0,0-.625.133c-.422.217-.825.448-1.227.7a12.015,12.015,0,0,1-2.6,1.086c-.322.106-.715.063-1.007.372s-.584-.147-.846-.329c1.923-1.094,4.279-1.7,5.819-3.181.715.245,1.551.42,1.944,1.05a1.388,1.388,0,0,0,.523.365l1.913,1-.705.462v-.581A2.053,2.053,0,0,0,149.456,2295.912Zm13.089,7.43a2.081,2.081,0,0,1-.071.658h-.121l-.322-.5c.181-.063.342-.133.514-.189l.644-.435c.523.568.523.568,0,.855l-.685-.42Zm-5.4,1.777,1.38.056c.121.392.221.7.332,1.121l-1.52-.162C157.289,2305.84,157.229,2305.525,157.148,2305.119Zm-.795.917c-.473-.2-.493-.266-.292-.995C156.414,2305.476,156.414,2305.476,156.353,2306.036Zm-6.544,4.842-1.218-.084,1.007.595a4.132,4.132,0,0,1-.151.7l-1.913-.547c.343.568,1.188.7,1.7,1.093a4.214,4.214,0,0,1-.18.876l-2.608-.96,1.409-3.124c.655.231,1.249.413,1.8.637S149.98,2310.563,149.809,2310.878Zm1.511.624-.907-.33a3.109,3.109,0,0,1,.132-.638C151.682,2310.612,151.8,2310.773,151.32,2311.5Zm-1.068.28c1.088.21,1.1.21.846.967l-1.007-.365A5.256,5.256,0,0,1,150.252,2311.782Zm-.252,1.149,1.007.3c-.1.259-.212.519-.332.827-.363-.119-.665-.217-1.007-.343a5.292,5.292,0,0,1,.332-.806Zm1-4.043c.672.084.772.14,1,.6v.91c-1.435-.574-1.435-.574-1-1.527Zm-1.029.7c-.806-.176-.836-.288-.443-1.269l.8.2Zm-.971-.421c-.372.035-.584-.035-.553-.259.13-1.268.271-2.537.422-3.9.6.225.474.491.494.7a6.768,6.768,0,0,0,0,1.289c.09.393-.323.7-.2,1.114a2.272,2.272,0,0,1-.161,1.009Zm2-1.044c.018-.371.44-.357,1-.483v.855c-.58-.1-.942-.1-1-.414Zm-1-.133c-.795-.14-1.007-.378-.725-1.037,1.037.267,1.047.288.725.995Zm1-1.863c1.007.287,1.007.3.654,1.142-.976-.225-.251-.848-.654-1.185Zm-1,.581c-.795,0-.9-.1-.836-.547a3.826,3.826,0,0,1,.152-.742c.936.343,1.006.329.684,1.247Zm1-1.682c.554,0,.634.239.624.617-.523-.168-.835-.273-.624-.659Zm-1,.19-.815-.26c.05-.21.09-.392.131-.581.825.133.825.133.684.8Zm2-1.4.1.771c-.655-.413-.655-.413-.1-.82Zm-1,.274a5.663,5.663,0,0,1-.584-.1,2.929,2.929,0,0,1-.322-.119,1.733,1.733,0,0,1,0-.322,2.856,2.856,0,0,1,.151-.393c.724.064.614.463.755.918Zm-2,.911h-.2c0-.638.1-1.268.171-2.039a2.546,2.546,0,0,1,.03,1.99Zm.669-4h.231a4.75,4.75,0,0,1,.373,2.1c-.232-.1-.453-.154-.464-.217A17.072,17.072,0,0,1,149.669,2301Zm-.645,1c-.231-.112-.412-.147-.412-.2a3.217,3.217,0,0,1,.291-1.8,2.275,2.275,0,0,1,.111,2Zm1.812-.728a2.287,2.287,0,0,1,.393,1.758A2.158,2.158,0,0,1,150.836,2301.272Zm2.014-.393c.624-.14.906,0,1.007.428l-.625.217c.111.084.161.154.222.154a.934.934,0,0,1,.473.113.5.5,0,0,1,.252.3c.261.814.554,1.626.856,2.523l-1.1.14c-.342-1.3-.705-2.557-1.067-3.853Zm-5.456-2.41c.271.421.513.813.764,1.205l-.171.077-1.2-1.114Zm-4.394.112a3.4,3.4,0,0,1,1.089-.246,3.655,3.655,0,0,1,1.136.106,2.69,2.69,0,0,1-1.078.306,2.927,2.927,0,0,1-1.147-.138Zm10,1.626c-.141-.287-.363-.6.171-.953l.775,1.03c-.684.322-.765.287-.946-.049Zm3,.315c.523-.133.664.14.885.512-.473,0-.855.245-1.006-.155-.06-.069.02-.308.121-.308Zm-1.006.75c-.433-.049-.453-.28-.493-.512C155.135,2300.795,155.135,2300.795,154.994,2301.272Zm4.027.778c-.624,0-.614-.316-.816-.47a1.373,1.373,0,0,0,.091.554l-1.782.133-.251-.7c.513,0,.916-.252,1.339.07.08.063.392,0,.6-.049l.373-.133Zm.5-.5a1.208,1.208,0,0,1,.675.533c-.463-.113-.463-.113-.624-.5ZM157,2303.3l-.323-.561c1.551-.413,2.1-.294,2.4.484-.574.217-.513-.246-.855-.393a.8.8,0,0,1-.444.409,1.389,1.389,0,0,1-.724.089Zm-1.047-.3h-.393a2.555,2.555,0,0,1-.282-.5c.262-.169.453-.147.544.035A2.132,2.132,0,0,1,155.951,2303Zm-.951-.677a2.679,2.679,0,0,1-.232-.6c.524.063.9.463.665.631a.67.67,0,0,1-.221.027.616.616,0,0,1-.212-.048Zm5,.273c.614.056.624.063.654.652-.7.028-.7.028-.654-.645Zm-4.291,1.163a.859.859,0,0,1,.32.16.526.526,0,0,1,.176.245.4.4,0,0,1-.01.274.561.561,0,0,1-.194.239,1.082,1.082,0,0,1-.279-.438A.853.853,0,0,1,155.709,2303.759Zm3.564,1.241c.835-.322,1.3-.182,1.54,1.009-1.138.182-1.319.07-1.571-1.009Zm2.426,1a6.844,6.844,0,0,0-.342-.743l.714-.133a1.787,1.787,0,0,1,.514,1.17c-.494.112-.836.091-.916-.294Zm-4.581-1.225a9.11,9.11,0,0,0-.1-.974l1.108-.07c.08.33.151.6.232.96Zm1.882-.756a1.017,1.017,0,0,1,.5-.035.784.784,0,0,1,.413.2c.373.322.4.351.272.813h-.795c-.131-.351-.262-.673-.393-1.016Zm1.933.756c-.14-.308-.281-.63-.422-.96,1.007-.119,1.4.147,1.379,1.058Zm3.067-1.184c.665.623.654.736-.141.876-.453-.673-.453-.673.141-.862Zm-2.15-1.086q-.891-.724.815-.995c.343.561.343.561-.785,1.009Zm-.816-.9c0-.294,0-.518.081-.6a.882.882,0,0,1,1.117.064Zm-2.255-.778c-.865.232-1.006.2-1.389-.364l.836-.259c.231.245.412.434.583.638Zm1.772-.539c.269-.112.548-.213.836-.3,0,.189.12.406.06.427a2.292,2.292,0,0,1-.906.217c-.2,0-.191-.231.041-.329Zm-5.315-.806c-.091-.413-.916-.631-.373-1.128.725.484.846.743.4,1.142Zm1.006-1,1.48,1.275a.475.475,0,0,1,0,.119c-.211,0-.513.043-.614-.041a8.3,8.3,0,0,1-1.087-1.248Zm-2.376,1.226c-.11-.2-.2-.392-.362-.7.826.294.866.406.342.715Zm-4.2-.364c-.222.2-.464.294-.705.077s-.645-.666-1.007-1.03c.151-.063.3-.154.342-.14A3.847,3.847,0,0,1,149.669,2299.338ZM146.145,2298l1.309-.217a.705.705,0,0,1-.243.221,1.086,1.086,0,0,1-.359.122,1.249,1.249,0,0,1-.4,0,1.063,1.063,0,0,1-.357-.125Zm-5.638-2c-.171-.659,0-.988.725-1.191s1.379-.371,2.014-.582a10.932,10.932,0,0,0,1.007-.427c.432-.168.855-.35,1.3-.491a1.513,1.513,0,0,1,.715.043,26.858,26.858,0,0,1-5.809,2.648Zm-41.516,43.507a6.583,6.583,0,0,1,2.355-.4l-2.315.54Zm8.4,3.853-.393-.7,1.681-.449,2.306,1.03A8.634,8.634,0,0,1,107.387,2343.36Zm-5.547-1.331.684.449a.385.385,0,0,0-.07.1l-1.6-.169ZM99.574,2342l-.574-.077v-.119l.584.063a.718.718,0,0,0-.06.133Zm20.84-5c.221.1.443.2.684.3-1.007.6-1.087.7-2.265-.252l.856-.378a5.486,5.486,0,0,0,.674.329Zm0-.268,1.006-.434,1.289.588C121.692,2337.517,121.34,2337.489,120.414,2336.732Zm-2.306.932c.433.147.836.343,1.259.526-.514.371-.514.371-1.772-.337C117.826,2337.769,118.028,2337.636,118.108,2337.664Zm-8.366,2.964c1.672-.82,1.672-.533,2.678.021l-1.641.56C110.407,2341.006,110.075,2340.824,109.742,2340.628Zm.258.7c-.886.49-1.2.483-2.205-.084,1.047-.547,1.047-.547,2.205.1Zm4.585-1.458-1.47.54-.936-.519,1.248-.532Zm-.292-.7c1.006-.463,1.006-.463,2.013.175l-1.057.35Zm-.229,1.569a2.684,2.684,0,0,1,1.741-.484l1.369-.588.826.3v-.49l1.228-.372.685.372a36.342,36.342,0,0,1-5.3,1.913Zm1.97-2.144c1.007-.568,1.108-.561,2.014.077A1.3,1.3,0,0,1,116.034,2338.6Zm.107-.75c-.715.442-.715.442-1.48.133l-1.661-.658v-.176l1.007-.392Zm-2.141.7-.866.322-2.2-.953,1.137-.371c.332.511,1.289.546,1.933.981Zm-1.1.518-1.489.505-1.792-.7,1.006-.631Zm-2.9.7c-1.52.574-1.077.7-2.668-.126a2.3,2.3,0,0,1,2.668.168Zm-2,.813-1.007.364-1.218-.553c.6-.631,1.138-.582,2.225.2Zm-3.513-.239,1.893.869c-.463.211-.785.372-1.117.505a.531.531,0,0,1-.363,0c-.825-.365-1.631-.743-2.446-1.121,0,0-.051-.077-.111-.175l1.46-.547Zm3.513,1.612c-.745,0-1.409.561-2.265.07,1.329-.595,1.651-.652,2.265-.056Zm-6-.862c-.443.33-.483.323-1.238-.294a1.215,1.215,0,0,1,.352-.064,1.283,1.283,0,0,1,.361.036,1.053,1.053,0,0,1,.311.131.717.717,0,0,1,.214.205Zm-1.66.246c-.584.084-.584.084-.755-.337Zm3.876.664-.856.378c-.393-.266-.745-.518-1.138-.777a1.845,1.845,0,0,1,2.024.4Zm2.275,1-1.369-.091c.845-.525.956-.525,1.4.091Zm11.738.227a27.416,27.416,0,0,1-5.7.344c1.148-.211,2.315-.386,3.433-.645a2.807,2.807,0,0,1,1.21-.118,2.411,2.411,0,0,1,1.085.391Zm3.02-.143-.413.042a.53.53,0,0,0,0-.126h.413a.238.238,0,0,1,.02.056Zm-3.191-.529a1.558,1.558,0,0,1,.485-.257,2.058,2.058,0,0,1,.592-.1,2.14,2.14,0,0,1,.6.073,1.641,1.641,0,0,1,.507.235,1.921,1.921,0,0,1-2.164.021Zm4.641.231c-.192.042-.463-.147-.775-.266a2.24,2.24,0,0,1,2.295-.176,3.382,3.382,0,0,1-1.5.414Zm11.416-4.9c-.574.617-.715.652-1.51.372l-.786-.316.474-.322c.131-.091.271-.175.463-.287Zm-.806-.876.745-.5.806.245.714.252C134.749,2337.706,134.749,2337.706,133.309,2337Zm2.691,1.619c-.584.483-.866.483-1.842,0,.735-.49.906-.49,1.842-.007Zm-5-.659c-.916.61-1.007.61-1.923.2.735-.631.957-.659,1.923-.211Zm.215.176,1.43.5c-.7.546-.946.7-2.215-.042Zm2.165.7.644.161.614.169c-1.006.525-1.006.6-2.013.132Zm-2.134.533c-1.118.595-1.118.595-2.074.07l.735-.554Zm1.754.5c-.483.154-.846.281-1.218.372a2.5,2.5,0,0,1-.423-.085c.715-.539.715-.539,1.641-.273Zm-4,.21c-.644.519-.644.519-1.54.119.624-.5.785-.518,1.54-.1Zm-2.818.077c-.916.7-1.057.7-2.527.182l1.48-.6Zm1.007.246.936.343c-.725.589-.9.6-2.074.175Zm-3.02.644c-.735.617-1.571.385-2.507.175a2.113,2.113,0,0,1,2.567-.161Zm2.154.441c-1.329.806-1.289.7-2.386.246.815-.33,1.51-.792,2.446-.231Zm-4.56.288c-.353.413-.353.413-1.893.063a2.469,2.469,0,0,1,1.953-.049Zm3.865.75c.846-.407,1.591-.806,2.386-1.129a11.389,11.389,0,0,1,1.641-.371,1.061,1.061,0,0,0-.06-.371c.312-.14.563-.413,1.117-.217l-.644.4a6.529,6.529,0,0,0,2.013-.329q.843-.291,1.732-.505c-1.208,1.065-6.292,2.922-8.124,2.537Zm12.594-1.829a22.594,22.594,0,0,1-3.372.743c.785-.358,1.57-.7,2.376-1.058.473-.169.654.126,1.056.329Zm.756-.336a7.53,7.53,0,0,1-2.155-.96c-.634.175-.161.441-.131.63-3.151,1.689-6.6,2.8-8.154,2.537a2.118,2.118,0,0,1,.342-.147,25.219,25.219,0,0,0,6.04-2.516c.544-.308,1.289-.434,1.661-.911a.371.371,0,0,1,.159-.1.519.519,0,0,1,.209-.024.47.47,0,0,1,.195.057.288.288,0,0,1,.122.12c.151.463.674.638,1.138.876a2.16,2.16,0,0,1,.634.449Zm3.3-2.474c.292-.2.413-.336.524-.336a2.807,2.807,0,0,1,1.51.6c-.886.449-1.178-.252-1.974-.252Zm3.836-.1c-.2.295-.423.456-1.007.308.4-.231.6-.392,1.067-.294Zm1.157-.49-.744.252c.292-.372.292-.372.8-.238Zm1.5-.813c-.675.5-.675.5-1.148.161.413-.126.634-.483,1.208-.147Zm1.631-.7c-.876.505-.876.505-1.4.113.665-.5.665-.5,1.46-.078Zm1.308-.7c-.574.427-.574.427-1.439.07.694-.512.694-.512,1.5-.056Zm1.581-.848c-.474.553-.635.574-1.641.2.544-.617,1.148-.161,1.7-.182Zm.805-.463-.282.267-1.117-.372a4.692,4.692,0,0,1,1.46.119Zm1.007-.7c-.524.385-.765.378-2.6-.077.12-.168.231-.323.342-.463Zm1.5-.839c-.812.673-.925.716-2.056.343l-.761-.243c.833-.086,1.48.38,2.18-.05-.381-.372-1.028-.236-1.511-.422a14.459,14.459,0,0,0-1.512-.379c-.154.215-.267.365-.359.515h-1.357l.791.584c-.371.442-1.152.429-1.748.748l.976.679a.794.794,0,0,1-1.034.129,8.752,8.752,0,0,0-.977-.278c-.488.679.811.421.811.89a.6.6,0,0,1-.85.122,9.1,9.1,0,0,0-.976-.353c-.264.353-.264.353.654.843-.283.5-.635.435-1.1.2s-.977-.428-1.416-.638a.392.392,0,0,0-.107.184.328.328,0,0,0,.013.2.455.455,0,0,0,.132.176.67.67,0,0,0,.225.121c.342.163.7.306,1.065.455-.449.558-.576.585-1.26.218a2.692,2.692,0,0,0-.478-.279,2.383,2.383,0,0,0-.547,0c0,.136,0,.306.118.388a9.694,9.694,0,0,0,.976.53c-.157.088-.274.169-.4.251l-1.747-.931a.46.46,0,0,0-.157.187.321.321,0,0,0-.013.216.416.416,0,0,0,.135.2.682.682,0,0,0,.25.128c.312.15.654.279,1.093.456l-.732.448c-.674-.231-1.25-.469-1.23-1.128a3.122,3.122,0,0,0-.782.306.948.948,0,0,1-.321.266,1.419,1.419,0,0,1-.452.148,1.643,1.643,0,0,1-.5,0,1.448,1.448,0,0,1-.455-.145c.108.313.186.517.244.68a4.434,4.434,0,0,1,2.158.91.547.547,0,0,1-.712.048c-.479-.326-.977-.638-1.446-.958h0c-.233-.044-.507-.175-.638.081s.172.27.375.38c.516.285,1.012.606,1.468.9-.192.358-.445.35-.77.19-.617-.315-1.235-.614-1.863-.907a6.711,6.711,0,0,0-.74-.241c-.283.461.132.6.467.731.546.241,1.124.461,1.9.731l-1.276.373a5.83,5.83,0,0,1-2.279-1.645c.72-.4,1.479-.8,2.208-1.221a10.8,10.8,0,0,0,1.094-.731c.253-.2.233-.211,0-.606a4.317,4.317,0,0,0-.4.249,13.7,13.7,0,0,1-3.362,1.951.993.993,0,0,1-.861,0c-.345-.146-.709-.263-1.094-.417a1.192,1.192,0,0,1,.511-.423,1.784,1.784,0,0,1,.745-.161,5.4,5.4,0,0,1,1.226.343l.1-.124-.86-.585c.151-.212.648-.394.212-.8l-1.134.578-1.61-.6c.709-.476,1.357-.922,2.025-1.367a.769.769,0,0,1,.4-.169.9.9,0,0,1,.458.059l1.479.614a1.638,1.638,0,0,1-1.8.336,1,1,0,0,0-.942,0,10.831,10.831,0,0,0,1.844.643c.587.095,1.013.593,1.8.359-.234-.417-.892-.278-1.176-.585.426-.271.811-.577,1.449-.241a.559.559,0,0,0,.739-.169l-.678-.343a15.15,15.15,0,0,1,2.025-1.842c.264-.139.618-.351.365-.731a1.775,1.775,0,0,0-.557.205,9.175,9.175,0,0,0-1.935,1.542c-.354.512-.668.563-1.347.285-.375-.146-.729-.314-1.114-.49.709-.533,1.347-.986,1.945-1.462.192-.16.516-.4-.061-.635-.587.453-1.165.928-1.772,1.366-1.094.775-2.2,1.543-3.323,2.288a2.917,2.917,0,0,1-.719.249,3.051,3.051,0,0,1-.455.533c-.406.286-.841.549-1.277.8-.617.373-.617.373-1.438-.073a6.063,6.063,0,0,0,1.013-.606c.223-.2.78-.388.314-.826-.415.285-.78.555-1.175.8s-.5.432-.952.366a.388.388,0,0,0-.118.024.287.287,0,0,0-.095.056c-.07.541-.85.519-1.154.848l-1.084-.314c.324.833,1.459.68,2.026,1.111-.172.336-.669.373-1.013.555a15.761,15.761,0,0,0-2.35-.6c.345.519,1.145.556,1.7.9a.551.551,0,0,1-.179.2.835.835,0,0,1-.277.122,1.024,1.024,0,0,1-.322.024.933.933,0,0,1-.306-.078,6.7,6.7,0,0,1-.891-.358,1.324,1.324,0,0,0-.7-.132,1.175,1.175,0,0,0-.644.242,1.978,1.978,0,0,1-.5.292c-1.569.614-3.119,1.235-4.709,1.82a24.894,24.894,0,0,1-5.287,1.338h-.273a6.087,6.087,0,0,1-1.793.321,6.629,6.629,0,0,1-1.722-.789l-.82-.431a1.739,1.739,0,0,1,2.025,0c.253.139.456.314.709.438s.426.161.415-.124a1.389,1.389,0,0,0-.253-.3c-.253-.19-.536-.35-.891-.57l1.651-.54.942.511c-.446.373-1.3.365-1.449.9a43.247,43.247,0,0,0,5.49-1.725c1.074-.416,2.127-.855,3.17-1.3a5.465,5.465,0,0,0,.739-.468,1.544,1.544,0,0,0-1.215.168.9.9,0,0,1-1.013-.256l2.289-.95c.385,0,.76.585,1.266.037l-.658-.41.77-.445,1.083.387-.567.453a3.771,3.771,0,0,0,.679-.044,22.348,22.348,0,0,0,4.416-2.024c.344-.227.749-.4,1.124-.6.1-.059.182-.146.354-.278a1.866,1.866,0,0,0-.544.056,1.5,1.5,0,0,0-.468.208c-1.1.519-2.219,1.016-3.292,1.564a2.07,2.07,0,0,1-1.935,0c.689-.373,1.347-.731,2.026-1.089s1.327-.731,2.026-1.141c.324-.2.324-.263.283-.657a1.969,1.969,0,0,0-1.094.438c-1.1.621-2.2,1.257-3.311,1.879a6.736,6.736,0,0,1-.709.285l-1.226-.644a12.275,12.275,0,0,1,3.028-1.915,14.819,14.819,0,0,0,3.353-1.82c.091-.08.233-.16.263-.263a.242.242,0,0,0,0-.155.317.317,0,0,0-.1-.137.557.557,0,0,0-.4,0,13.583,13.583,0,0,1-1.114.818c-1.428.8-2.887,1.579-4.356,2.347-1.012.541-2.1,1.045-3.149,1.571l-1.844-1.023c-.162.819.892.826,1.185,1.243-.688.387-.891.38-1.509,0a11.27,11.27,0,0,0-1.1-.512c-.071.4-.071.4,1.013,1.053a.533.533,0,0,1-.719.241c-.668-.278-1.3-.592-2.026-.928.9-.52,1.712-.995,2.542-1.462,1.013-.578,2.026-1.111,3.039-1.711a6.843,6.843,0,0,0,1.1-1,.321.321,0,0,0,.047-.165.317.317,0,0,0-.047-.164,54.847,54.847,0,0,1-7.8,4.385q-4.1,2-8.487,3.655l-.669-.329c.557-.219,1.013-.409,1.53-.607a10.132,10.132,0,0,0,1.185-.548c.385-.2.962-.489,1.428-.731a5.191,5.191,0,0,0,.6-.46l-.121-.117a2.205,2.205,0,0,0-.456.1c-1.246.563-2.431,1.214-3.737,1.682-1.641.6-3.373,1.059-5.064,1.564a5.833,5.833,0,0,1-.74.065c-.628.1-1.246.22-2.025.351.577.6,1.245.264,1.843.307v.453l-2.279.359a10.43,10.43,0,0,1-1.165.892c-.668.372-1.4.679-2.106,1.016-.1.051-.253.08-.3.146-.729.847-2.026.775-3.1.855a27.011,27.011,0,0,1-3.17-.132l5.286-.358c-.111-.431-.435-.387-.8-.358-1.458.109-2.927.2-4.385.307a7.642,7.642,0,0,0-.821.146c.163.125.213.19.294.212a4.362,4.362,0,0,0,.446.044,6.775,6.775,0,0,0-1.165.044,8.883,8.883,0,0,0-1.317.438,4.492,4.492,0,0,1-1.742.549q.25-.186.527-.351c.942-.483,1.894-.965,2.856-1.462a1.807,1.807,0,0,1,.679-.183,7.809,7.809,0,0,1,2.6.117c.587.183,1.083-.1,1.63-.124a.236.236,0,0,0,.077-.022.159.159,0,0,0,.055-.044c.263-.687,1.114-1.023,1.742-1.462a21.745,21.745,0,0,1,2.026-1.374,11.434,11.434,0,0,1,1.357-.556l.77.308a9.06,9.06,0,0,0,1.458-.439,12.894,12.894,0,0,1,2.806-.672q1.417-.345,2.775-.8a13.037,13.037,0,0,0,1.61-.782,14.8,14.8,0,0,0,1.661-.87c1.013-.731,2.026-1.527,3.039-2.28a.432.432,0,0,0-.659-.073c-.689.424-1.377.848-2.025,1.294s-1.155.818-1.722,1.235l-.172-.095a3.838,3.838,0,0,1,.364-.4c.537-.409,1.094-.811,1.631-1.213a14.862,14.862,0,0,0,2.785-3,24.006,24.006,0,0,0,1.752-2.478c.871-1.418,1.641-2.873,2.522-4.291.78-1.25,1.651-2.471,2.482-3.706.5-.73.952-1.461,1.478-2.192a35.065,35.065,0,0,1,2.411-3.209c1.539-1.7,3.271-3.3,4.811-5,1.418-1.572,3.038-3.011,4.557-4.561s2.806-2.924,4.143-4.386c.709-.8,1.306-1.644,1.924-2.478.527-.731,1.013-1.4,1.509-2.112.172-.256.314-.527.476-.8.375.044.466.19.325.387l-1.915,2.588-.223.3-1.438,2.062c-.506.731-1.013,1.462-1.529,2.193a14.929,14.929,0,0,1-1.388,1.666c-.82.841-1.519,1.747-2.279,2.646a.7.7,0,0,0,.25.085.771.771,0,0,0,.275-.008.632.632,0,0,0,.239-.1.429.429,0,0,0,.148-.168c.709-.921,1.823-1.681,2.2-2.741a.505.505,0,0,1,.172-.241,8.589,8.589,0,0,0,2.025-2.1,18.791,18.791,0,0,0,1.408-2c.831-1.243,1.621-2.485,2.441-3.728,0-.073.162-.117.415-.285-.465,1.652-1.8,2.851-2.552,4.232s-1.6,2.719-2.441,4.13a1.031,1.031,0,0,0,.425-.051,2.494,2.494,0,0,0,.9-.77,1.666,1.666,0,0,0,.312-.984.6.6,0,0,1,.051-.359.807.807,0,0,1,.263-.306,6.386,6.386,0,0,0,1.925-2.61c.192-.416.607-.8.475-1.279a.107.107,0,0,1,0-.066l1.277-1.279c.07.088.242.2.212.27a2.69,2.69,0,0,1-.557,1.141,1.8,1.8,0,0,0-.385.636,17.594,17.594,0,0,1-1.185,2.127q-1.68,2.7-3.5,5.372c-.578.826-1.256,1.608-1.894,2.413l-2.167,2.77a2.67,2.67,0,0,0,1.408-.9,32.915,32.915,0,0,0,3.038-3.882c.8-1.323,1.8-2.587,2.7-3.881.182-.263.294-.548.466-.811s.314-.424.476-.644c.952.314,1.205.987,1.864,1.462-.092.242-.193.49-.325.812l-1.762-1.14-.152.065a.949.949,0,0,0,.183.366c.263.219.6.4.86.621.679.563.689.731.132,1.425-.678-.351-.678-.351-.618-.965l-1.276.03c.658.416.324.789,0,1.191-.233.292-.4.607-.648,1,.891-.234,1.246.241,1.671.57.689.526,1.327,1.089,1.955,1.652a5.205,5.205,0,0,1,.547.694c.172.212,0,.322-.223.5l-3.4-2.514-.142.051c0,.066,0,.168.051.2.749.453.658.965.141,1.549l-.718-.438c-.173.387.344.482.475.8l-.334.555c-.122.183-.233.366-.354.556l-.658-.117c.7.8,0,1.345-.456,1.981l-.851-.542a2.006,2.006,0,0,0,.759,1.082,25.01,25.01,0,0,0,2.188,2.032.682.682,0,0,1,.331.49.607.607,0,0,1-.23.519l-.293.329a26.22,26.22,0,0,1-3.2-2.529l-.658,1.074.75-.38a.757.757,0,0,1,.181.059l2.239,2.244c.273.27.112.46-.3.68l-2.714-2.252-.162.088a32.118,32.118,0,0,0,2.521,2.858l-.455.358L133.031,2318c.07.614.749.936,1.144,1.382s.942.9,1.408,1.33a64.156,64.156,0,0,1-16.023,14.356,4.069,4.069,0,0,0,.7-.227q1.054-.542,2.026-1.162a39.835,39.835,0,0,0,3.362-2.368c1.216-.965,2.34-1.988,3.474-3.012s2.127-1.893,3.1-2.923,2.025-2.266,3.038-3.4c.567-.629,1.175-1.236,1.691-1.879s.821-1.162,1.226-1.739c.577-.856,1.215-1.682,1.722-2.559s.79-1.666,1.185-2.5c.6-1.242,1.255-2.463,1.782-3.72.638-1.513,1.215-3.048,1.722-4.591a18.626,18.626,0,0,0,.628-2.923c.121-.782.1-1.579.162-2.508l.577.388c-.05-.293-.091-.5-.142-.731l.882-.2c.1.731.212,1.353.263,2a14.656,14.656,0,0,1-.517,3.3c-.2,1.192-.557,2.361-.83,3.552,0,.2-.213.431.121.644a2.6,2.6,0,0,0,.7-1.4c.274-1.323.425-2.654.77-3.962a13.608,13.608,0,0,0,.243-3.5,2.946,2.946,0,0,1,.132-.65c.465,0,.425.19.425.358v3.693a2.55,2.55,0,0,0,.129.7,1.97,1.97,0,0,1-.11,1.372,2.839,2.839,0,0,0-.171,1.1c-.058.776-.086,1.558-.143,2.34,0,.239,0,.531-.6.471a1.806,1.806,0,0,1,.343.51,1.075,1.075,0,0,1-.162.471c-.61,1.392-1.153,2.8-1.9,4.175-.428.836-.714,1.691-1.086,2.526a31.189,31.189,0,0,1-1.695,2.91c-.114.2-.247.4-.419.663a1.4,1.4,0,0,0,.492-.212.87.87,0,0,0,.3-.345,16.489,16.489,0,0,0,2.19-3.825,14.715,14.715,0,0,1,1.009-2.028c.181-.345.381-.663.581-1.054a4.072,4.072,0,0,1,.5.166c.952.424,1.99.868,2.99,1.326.495.212.5.2.257.729a34.086,34.086,0,0,1-3.524-1.326c.172.378.162.378,1.505,1.034.553.265,1.133.517,1.734.789l-.124.6c-1.372-.252-2.276-1.08-3.714-1.153,1.057.5,2.085,1.021,3.161,1.5a.728.728,0,0,1,.258.13.446.446,0,0,1,.144.2.335.335,0,0,1,0,.221.453.453,0,0,1-.144.2l-2.239-.789a2.5,2.5,0,0,0,1.181.9c.143.073.324.106.477.172.476.219.476.232.171.742-.743-.311-1.486-.609-2.248-.921,0,.352.334.563,2.029,1.438a.671.671,0,0,1,0,.219,1.8,1.8,0,0,1-.19.192c-.734-.152-1.115-.662-2.019-.775a6.009,6.009,0,0,0,1.371,1.014c.457.245.447.252.143.762l-2.2-.994c.1.2.1.325.2.384.486.292.952.57,1.5.849.295.166.447.331.057.576l-1.057-.523-.172.126,1.01.868a2.52,2.52,0,0,1-.1.51l1.085-.205a1.32,1.32,0,0,1-.036-.984,1.825,1.825,0,0,1,.693-.859c0-.053.143-.106.133-.152-.2-.789.515-1.445.667-2.181a18.677,18.677,0,0,1,.562-1.929,1.349,1.349,0,0,1,.209-.47,7.18,7.18,0,0,0,.953-2.334,14.4,14.4,0,0,0,.533-2.041,16.255,16.255,0,0,0,.172-2.651c0-1.326-.115-2.7-.2-4.05a7.992,7.992,0,0,0-.2-1.326c.476,0,.523.219.561.384q.363,1.95.7,3.9a1.151,1.151,0,0,0,0,.186,12.184,12.184,0,0,1,.209,2.8.574.574,0,0,0,.089.366.878.878,0,0,0,.321.3,1.859,1.859,0,0,0,.181-1.405c-.1-1.193-.21-2.38-.324-3.566V2305h1.1a11.279,11.279,0,0,0,.865,3h.192c0-.675.05-1.109.08-1.648a5.979,5.979,0,0,1,.957,2.964c-.584.455-1.188-.239-1.873,0,.564.448,1.359.28,2.014.5.272,1.282.553,2.585.835,3.931l-1.006.063-.061.119.9.231V2315h-1.141c.082.544.781.286,1.028.537-.083.207-.154.436-.257.679.771.079.534-.443.894-.6l2.385.1c-.082.379-.154.715-.247,1.159l-2.508-.258c.309.4.761.365,1.121.415s.812.086,1.326.143c-.113.344-.206.637-.329.987l-1.429-.15c.257.451.843.287,1.131.494.2.486-.237.83-.638,1.23l-.7-.071a.458.458,0,0,0-.062.093l.771.4-.812,1.9-1.625-.258a6.011,6.011,0,0,0,2.612.873,6.889,6.889,0,0,1-1.388,3.084,17.315,17.315,0,0,1-3.085,3.42,9.47,9.47,0,0,0-1.243,1.588c1.028.408,2.477.3,3.454.973-.226.186-.443.344-.638.516Zm-15.279-20.91-3.423-2.3c.181-.273.363-.553.564-.841.876.274.775.7.533,1.289l.735-.3,2.1,1.724a1.788,1.788,0,0,1-.231.469A1.045,1.045,0,0,1,141.323,2311.326Zm-1.369-2.606c.191-.315.342-.575.5-.834a2.053,2.053,0,0,1,1.007,1,.674.674,0,0,0,.211.2c.182.133.5.245.534.385a2.054,2.054,0,0,1-.191.813Zm2.214-1.191c.786.4.8.42.484,1.072C141.806,2308.335,141.776,2308.279,142.168,2307.529Zm-.754.2c-.7-.372-.7-.372-.312-1.086C141.947,2306.94,141.444,2307.34,141.414,2307.725Zm1.208-1.836a1.4,1.4,0,0,1,.423.268.929.929,0,0,1,.243.361.724.724,0,0,1,.024.4.846.846,0,0,1-.2.373,1.366,1.366,0,0,1-.487-.242.849.849,0,0,1-.274-.37.622.622,0,0,1,0-.417A.834.834,0,0,1,142.622,2305.889Zm-.695.111c-.745-.042-.564-.532-1.007-.7q-.523-.25-1.006-.539l.684-.7c.594.266.262.7.473,1.009l.483-.217c.836.315.272.75.4,1.149Zm-2.114-2a3.555,3.555,0,0,1-.322.435c-.181-.211-.433-.379-.383-.477a4.454,4.454,0,0,1,1.148-1.71c.06.211.171.344.111.421a5.573,5.573,0,0,0-.524,1.331Zm1.248-1c.373.308.151.463-.131.617a4.023,4.023,0,0,0,.161-.617Zm1.772,1.775c.906.435.906.435.705.953C142.984,2305.476,142.551,2305.245,142.833,2304.775Zm-.715,0c-.342-.322-.1-.518,0-.848C142.461,2304.3,142.239,2304.474,142.118,2304.775Zm.882-1.682c.926.323.513.813.463,1.262-.926-.281-.946-.357-.463-1.255Zm-.56.491c-.513-.448,0-.785,0-1.212.413.441.413.469-.02,1.219Zm-1.006-.7c-.322-.518.171-.756.191-1.086l.312.063c-.181.33-.322.638-.533,1.051Zm-.856-.63c-.1-.14-.151-.182-.141-.21.131-.246.272-.491.473-.848.2.518-.181.736-.362,1.086Zm3.422-.568v.778c-.423-.287-.423-.287-.03-.75Zm-1.288.19c.071-.33.131-.61.192-.946.412.56.392.651-.222.974Zm-.574-.875H141.9a3.263,3.263,0,0,1,.151-.7c.4.274.01.5.06.729Zm-4.772,13.185a.5.5,0,0,1-.231-.278.365.365,0,0,1,.06-.318c.151-.238.262-.483.484-.9.543.483,1.006.847,1.369,1.212a8.151,8.151,0,0,1,.6.616c.342.386,0,.7-.3,1.079Zm1.682,2.221c-.151.323-.3.638-.5,1.079l-2.929-2.1c.3-.217.524-.364.725-.525s.352-.3.553-.477A9.008,9.008,0,0,1,139.048,2316.406Zm.614-2.753c-.242-.141-.443-.3-.684-.435-.826-.455-1.289-.953-.383-1.7l1.721,1.4c.363.3.151.6-.05.981A5.493,5.493,0,0,1,139.662,2313.653Zm20.436-6.888c1.188,0,1.309.091,1.661,1.191l-4.037-.168c-.08-.392-.171-.75-.241-1.093a2.052,2.052,0,0,1,.619-.136,2.163,2.163,0,0,1,.645.052,1.776,1.776,0,0,1,.558.232,1.175,1.175,0,0,1,.372.371Zm1.822.121.625-.084.845,1.2h-1.007C162.2,2307.545,162.071,2307.25,161.92,2306.886Zm2.014,1.114c-.423-.294-.363-.5,0-.7.131.274.131.274-.04.7Zm1.671-1c.221.7.221.7-.463.7-.131-.28-.373-.6.422-.7Zm-3.856,2.722-3.725-.175c-.06-.5-.131-.939-.2-1.479l4.258.183a1.05,1.05,0,0,1,.127.767A1.308,1.308,0,0,1,161.749,2309.722ZM164,2309v.61q-.282.01-.564,0c-.815-.049-.835-.084-.765-.7a3.908,3.908,0,0,0,0-.7c1.168.035,1.238.084,1.289.792Zm-2.251,2.561c-.221,0-.443-.231-.715-.393-.191.287-.614.3-1.087.238s-1.1-.119-1.691-.182c-.091-.35-.181-.7-.282-1.03a5.738,5.738,0,0,1,2.084,0c.644,0,1.288.127,1.943.19l.352.616h.192c.07-.2.14-.4.2-.581a.87.87,0,0,1,.2-.057c1.319.085,1.369.148,1.007,1.283-.755,0-.755,0-1.158-.315A4.761,4.761,0,0,1,161.749,2311.561Zm1.251,1.216-1.349.042c.081-.379.151-.743.242-1.17l1.107.112Zm.265-.777.735.168v.9l-.9-.042a3.956,3.956,0,0,1,.121-1.03Zm-4.043,1c-.443-.056-.745-.182-.7-.554a3.22,3.22,0,0,0-.171-.7l2.275.231a.873.873,0,0,1,.07.217c-.1.911-.221.981-1.51.806Zm2.647.162c.755.112,1.53.161,2.346.245,0,.421-.071.7-.1,1.065l-2.4-.4a6.763,6.763,0,0,1-2.718-.189v-.981c1.228-.049,1.56.056,1.822.595a.986.986,0,0,1,.436-.262,1.416,1.416,0,0,1,.571-.053Zm.373,2.838a.612.612,0,0,1-.332,0,.363.363,0,0,1-.12-.081.24.24,0,0,1-.061-.108,2.736,2.736,0,0,1,.071-.757l.221-.1c.171.1.483.2.483.294a1.963,1.963,0,0,1-.3.757Zm1.128-1c.393.414.393.455-.151.743a5.451,5.451,0,0,1,.111-.743Zm-2.4.614-2.386-.154c0-.4.05-.742.08-1.149l2.527.259a7.094,7.094,0,0,0-.262,1.037Zm1.1,1.262c0,.21-.191.371-.654.2.111-.337.231-.7.362-1.079.625.266.282.595.252.869Zm1.007-.491c.624.189.2.547.362.876-.745-.154-.745-.154-.432-.883Zm.212,1.4c-.141.3-.3.624-.484.981l-1.892-.287a5.181,5.181,0,0,1,.261-.666c.061-.112.232-.273.323-.259a1.1,1.1,0,0,1,.463.231c.08.056.09.148.15.252.353-.048.453-.588,1.108-.259Zm-1.631,1.283c-.222.371-.433.742-.665,1.142l-.805-.084c-.181-1.2.09-1.4,1.4-1.065Zm-.675,2.8.765.224c-.191.33-.282.659-1.057.505a4.438,4.438,0,0,1,.222-.736Zm-1.52.512a.348.348,0,0,1-.117-.115.226.226,0,0,1-.034-.137c0-.372.262-.449,1.007-.3a4.151,4.151,0,0,1-.434.526.522.522,0,0,1-.241.065.56.56,0,0,1-.251-.044Zm-1.218,8.408c-.272.364-.443.483-.886.315q-.978-.367-2.014-.652c-.311-.091-.262-.189-.151-.315Zm.846-.792c-.494.49-.816.5-1.762.084C157.823,2329.557,158.1,2329.544,159.092,2330Zm-.092-1.233.624.14.161.084-.5.511-1.46-.266c.494-.637.494-.637,1.178-.476Zm2.6-.869-.856.7-1.419-.4C159.826,2327.434,160.088,2327.4,161.6,2327.9Zm1.4-.995-.654.575-1.531-.379.524-.638a3.712,3.712,0,0,1,1.661.435Zm.541-1.3-.624.82-.886-.176c-.231-.056-.463-.133-.685-.2.594-.911.8-.953,2.246-.455Zm.916-1.107-.433.644-.845-.161-.685-.154c.322-.645.815-.729,2.014-.336Zm.916-1.4c-.221.316-.382.554-.594.841l-1.48-.238.614-.862Zm.564-.939-.473.61c-.171-.413.171-.518.282-.7Zm1.345-2.307-1.52-.161q-.5-.066-1.007-.091a3.02,3.02,0,0,0-.755.133v.224c.282.119.684.336.866.273a4.131,4.131,0,0,1,2.013.07c-.11.589-.11.589-.584.925-.423-.231,0-.581-.262-.841-.644-.056-.483.428-.845.624h-1.007c-.261,0-.574,0-.5.266a.581.581,0,0,0,.2.189.87.87,0,0,0,.295.112,5.571,5.571,0,0,0,.916,0c-.06.547-.08.554-.634.5l-1.651-.119c0,.406,0,.406.483.7-.08.141-.121.351-.282.442a1.245,1.245,0,0,0-.506.4.766.766,0,0,0-.148.524c0,.126-.373.3-.614.4a2.734,2.734,0,0,1-.665.063c-.332.4.222.407.413.582l-.413.469-1.127-.126a2.148,2.148,0,0,0-.352.056,1.837,1.837,0,0,0,.06.554l.9-.07a.794.794,0,0,1-.174.392,1.2,1.2,0,0,1-.39.308c-.352-.063-.805-.35-1.107,0s.272.413.594.6a1.086,1.086,0,0,1-1.108.42,1.048,1.048,0,0,0-.362,0,.522.522,0,0,0-.21.065.322.322,0,0,0-.13.132.212.212,0,0,0-.012.16.282.282,0,0,0,.11.141.327.327,0,0,0,.171.091c.142.042.292.07.454.112-.131.364-.4.476-.937.343s-.624-.119-.735.365l.8.168c-.494.749-1.188.126-1.943.217a4.1,4.1,0,0,1,.382-.568,26.226,26.226,0,0,0,1.873-1.849c.745-.9,1.369-1.843,2.013-2.8a3.139,3.139,0,0,0,.181-.631,4.287,4.287,0,0,1,.443-.778c.151-.21.4-.16.675,0,0,.491-.534.842-.795,1.311l.614.063a4.379,4.379,0,0,0,1.107-1.3,5.75,5.75,0,0,0,.252-1.4l-1.44-.553-1.006.168c.11-.385.19-.645.3-1l3.021.7c0-.456,0-.456-1.329-.862l.4-1.128c.463-.063.615.084.544.385s-.322.568,0,.876c.705-.14.473-.617.664-.876a21.413,21.413,0,0,1,4.2-.119C167.523,2319.318,167.413,2319.571,167.282,2319.844Zm.507-1.651c-.07.3-.121.56-.191.869l-.816-.169c.061-.252.1-.483.172-.777Zm.151-.449-.815-.049c.151-.588.151-.588,1.007-.6Zm-1.892.256c-.131,0-.362-.154-.343-.224,0-.3.383-.259.806-.21,0,.273-.02.483-.483.434Zm-1.007-1-1.007.3.876.8c.614.084.443-.7,1.268-.476-.05.217-.1.455-.15.7l-2.487.1c0-.084-.08-.161,0-.2a6.045,6.045,0,0,0,.764-3.659l.011-.474c.182-.967.372-1.934.574-2.9a.881.881,0,0,1,.242-.462c0,.757.513,1.464.09,2.256a1.8,1.8,0,0,0,.071,1.247.706.706,0,0,1,.082.4.768.768,0,0,1-.163.392,1.174,1.174,0,0,1-.378.311,1.711,1.711,0,0,1-.528.176,2.248,2.248,0,0,1,.584.259c.091.1.171.336.091.385-.464.274-.373.554,0,.834Zm1.923-4c.221.911.181.953-.816.918-.16-.7-.16-.7.756-.918Zm1.349,4-2.537.084a6.176,6.176,0,0,1,.09-.7l2.487-.308c-.04.351-.07.61-.1.925Zm-2.209-1.47c-.352-.7-.272-.756.9-.812v.637Zm2.47-.53h-1.006a3.794,3.794,0,0,0,.181-1.948c0-.35,0-.35.785-.406-.04.784-.03,1.548-.02,2.354Zm-2.466-1.964c-.07-.308-.131-.575-.2-.869l1.006-.315a2.611,2.611,0,0,0,.121.5,2.763,2.763,0,0,1,0,.407Zm2.406-1.036c0,.378-.362.392-.815.427a.992.992,0,0,1-.039-.6,1.211,1.211,0,0,1,.331-.558l-.856-.33-1.218.526a7.357,7.357,0,0,0-.091-.869l2.416-.617c.071.75.152,1.387.212,2.025Zm-.292-2-2.506.546a1.753,1.753,0,0,0-.091-.7l.795-.2.322.484c.131-.294.212-.462.3-.652l.886-.126a3.409,3.409,0,0,0,.232.645Zm-2.808-1c-.2-.287.09-.42.513-.511l.373.49c-.443.133-.736.316-.947.021Zm2.586-1.184v.883l-1.007.112a.422.422,0,0,1-.106-.217.364.364,0,0,1,.042-.227.532.532,0,0,1,.182-.191.853.853,0,0,1,.285-.115,5.285,5.285,0,0,0,.534-.245l-1.239-.049c-.06-.245-.131-.47-.191-.7l.735-.189.705.953Zm-1.218-2.214c-.12.967-.3,1.079-2.013,1.247-.111-.21-.221-.427-.362-.7.423-.08.84-.175,1.248-.287A2.186,2.186,0,0,1,166.782,2305.6Zm-3.473.86a1.513,1.513,0,0,1,.1-.462h.484c.12-.3,0-.736.764-.785.1.161.222.343.373.6Zm3.212-1.462-.866.259a1.748,1.748,0,0,1-.231-.623c0-.154.271-.281.533-.526.2.343.363.554.554.89Zm-.745-1.059-.725.239c-.2-.267-.4-.519-.584-.764C165.323,2302.918,165.424,2302.961,165.776,2303.941Zm-.634-.941-.886.336-.493-.75.936-.406c.181.3.3.533.463.82Zm-.625-2a.726.726,0,0,1-.724.61,2.06,2.06,0,0,1-.705-.281c.363-.49.856-.42,1.45-.329Zm-1.006-1-.775.462-.191-.07a.507.507,0,0,1,.08-.35.786.786,0,0,1,.906-.042Zm-.574-.13-.634.281c-.363-.2-.363-.386,0-.54S162.756,2299.639,162.937,2299.87Zm-5.84-4.666a29.132,29.132,0,0,1,4.792,3.265s.111.07.111.1v.393a1.157,1.157,0,0,1-.554-.077c-.393-.337-.715-.7-1.077-1.065a.862.862,0,0,0-.946-.281,18.249,18.249,0,0,0,2.094,2.193l-1.158.393c-.544-.659-1.007-1.3-1.6-1.92a6.655,6.655,0,0,0-.815-.624c-.534-.385-1.007-.791-1.591-1.163a.535.535,0,0,1-.261-.331.419.419,0,0,1,.11-.369l2.91,1.583a.5.5,0,0,0-.035-.46.869.869,0,0,0-.438-.346c-.766-.462-1.52-.932-2.276-1.4l.151-.133A4.783,4.783,0,0,1,157.1,2295.2Zm-3.4-.252a.374.374,0,0,1,.1.18.31.31,0,0,1-.02.192.437.437,0,0,1-.136.168.7.7,0,0,1-.225.112c-.081.42.714.7.422,1.135l-.745.238c.292.28-.251.266-.261.343a1.119,1.119,0,0,0,.211.561c-.524.406-.725-.442-1.3-.126l.343.581-.463.364-1.531-.7h-.05c-.232.231,0,.364.222.518s.11.308-.283.4c-.211-.218-.442-.456-.754-.792l.815-.126a.409.409,0,0,1,.195-.251.763.763,0,0,1,.379-.107,4.85,4.85,0,0,0,1.782-.784.583.583,0,0,0,.292-.4,5.177,5.177,0,0,0,.121-1.093.771.771,0,0,0-.3-.441c-.434-.406-.886-.806-1.37-1.247a3.552,3.552,0,0,1,1.573.351A2.111,2.111,0,0,1,153.7,2294.952Zm-4.922-1.808c.694.056,1.006.477,1.439.771a13.961,13.961,0,0,1,1.1.9.991.991,0,0,1-.142.119,3.839,3.839,0,0,1-1.741-.834,3.775,3.775,0,0,0-1.5-1.037,8,8,0,0,1-.765-.441C148.088,2292.444,148.2,2293.095,148.773,2293.144ZM145.752,2292a.41.41,0,0,1,.161.188.293.293,0,0,1,0,.218.894.894,0,0,1-.6.141c-.211-.014-.281-.148-.412-.239l-1.148-.77c.886.175,1.46.294,2.044.462Zm-31.107,37.018a7.372,7.372,0,0,1-1.268,1.4l-.171-.056a.76.76,0,0,1,.08-.336c.856-1.325,1.732-2.634,2.567-3.959.4-.63.715-1.282,1.067-1.927a3.515,3.515,0,0,1,.473-.77c.886-.918,1.269-2.025,2.336-2.873a4.924,4.924,0,0,1,1.54-1.9c1.007-.967,1.581-2.1,2.638-3.027,1.439-1.268,2.788-2.585,4.168-3.888a1.2,1.2,0,0,1,.845-.407c.322.19.121.329,0,.463-1.228,1.086-2.476,2.158-3.664,3.265a17.05,17.05,0,0,0-1.46,1.632c-.221.239-.473.449-.7.7-1.147,1.17-2.013,2.438-3.11,3.65a26.562,26.562,0,0,0-2.729,3.826C116.367,2326.187,115.5,2327.6,114.645,2329.018ZM153,2326.664a14.213,14.213,0,0,1-3.876,3.923c-.2.134-.413.246-.624.372l-.212-.1c.171-.189.333-.386.514-.568.805-.848,1.681-1.668,2.416-2.536.956-1.135,1.792-2.319,2.708-3.5a8.566,8.566,0,0,0,1.3-2.143,7.811,7.811,0,0,1,1.007-1.591,1.819,1.819,0,0,0,.644-1.521c.574.056.534.33.434.54a7.977,7.977,0,0,1-.8,1.24,3.388,3.388,0,0,0-.805,1.871,1.652,1.652,0,0,1-.373.785C154.581,2324.506,153.746,2325.571,153,2326.664Zm-24.212-14.141c.232.533-.251.8-.5,1.114-.544.659-1.138,1.29-1.732,1.92s-1.318,1.247-1.9,1.906c-1.007,1.121-2.336,2.1-2.94,3.37a.243.243,0,0,1-.08.119c-1.259.771-1.42,1.941-2.175,2.894a.528.528,0,0,1-.161.154h-.3a2.5,2.5,0,0,1,.675-1.556c.724-1.008,1.439-2.017,2.275-2.97s1.7-1.675,2.557-2.543c.664-.7,1.278-1.4,1.943-2.1s1.339-1.352,2.013-2.031A.773.773,0,0,1,128.789,2312.523ZM128.84,2330a1.434,1.434,0,0,1,.241-.42c1.007-.946,2.094-1.878,3.081-2.8s1.792-1.871,2.708-2.8c.715-.7,1.46-1.443,2.185-2.172.15-.154.291-.329.433-.49l.694-.82.292.084a4.307,4.307,0,0,1-.423.89c-.312.4-.725.757-1.077,1.142s-.574.7-.9,1.051-.815.869-1.248,1.289-1.007.988-1.571,1.444a.529.529,0,0,0-.165.14.351.351,0,0,0-.073.173.315.315,0,0,0,.03.18.449.449,0,0,0,.127.158,2.706,2.706,0,0,0-1.721,1.107c-.453.441-.755.792-1.158,1.184a2,2,0,0,1-.63.439A2.846,2.846,0,0,1,128.84,2330Zm-1.84-1.864c2.164-2.172,3.826-4.575,6.141-6.67l.161.049a.107.107,0,0,1,0,.056.182.182,0,0,1,0,.126,13.484,13.484,0,0,1-1.087,1.5,40.738,40.738,0,0,1-5.034,5.121,1.214,1.214,0,0,1-.3.091.636.636,0,0,1,.121-.294Zm13.447-5.325c-.463.455-1.007.9-1.4,1.359-.232.246-.342.554-.584.792a15.528,15.528,0,0,1-2.306,2.179c-.9.61-1.58,1.331-2.426,1.955a6.954,6.954,0,0,1-.6.357l-.2-.14c.956-.834,1.933-1.66,2.849-2.522s1.852-1.822,2.748-2.747c.484-.5.906-1.03,1.359-1.541a1.086,1.086,0,0,1,.3-.245.512.512,0,0,1,.332-.035c.061.035.222.182.2.259a.817.817,0,0,1-.221.308Zm-2.134,9.179c-1.57,1.156-3.252,2.249-4.893,3.363a3.2,3.2,0,0,1-.513.2c-.363-.231-.493-.413-.111-.624.564-.3,1.1-.637,1.682-.91a17.5,17.5,0,0,0,4.781-3.321c.886-.848,1.621-1.773,2.557-2.8-.151.322-.221.511-.322.7A11,11,0,0,1,138.313,2331.989Zm12.956-6.607a19.089,19.089,0,0,0,1.47-2.39.58.58,0,0,1,.281-.338,1.071,1.071,0,0,1,.525-.138,4.446,4.446,0,0,1-.373,1.065c-.393.588-.906,1.135-1.319,1.71-.312.42-.5.882-.835,1.289-.584.7-1.239,1.4-1.883,2.1a3.122,3.122,0,0,1-.493.462c-.242.175-.514.336-.765.5l-.162-.084a1.283,1.283,0,0,1,.171-.308C149.014,2327.96,150.212,2326.7,151.269,2325.382Zm-16.409,5.535c.765-.624,1.409-1.219,2.164-1.745a24.493,24.493,0,0,0,3.584-3.272c.161-.168.342-.329.524-.49l.191.069a4.53,4.53,0,0,1-.624.981,18.836,18.836,0,0,1-3.5,3.16,2.1,2.1,0,0,1-.493.288,1.679,1.679,0,0,0-.535.245,1.1,1.1,0,0,0-.341.378.65.65,0,0,1-.372.328A1.115,1.115,0,0,1,134.86,2330.917Zm11.789,3.636a1.605,1.605,0,0,0-.313.281,7.714,7.714,0,0,0-2.889,1.653c-.483-.112-.5-.35-.262-.547a4.547,4.547,0,0,1,1.218-.77,19.5,19.5,0,0,0,5.366-2.964c.111.434.111.469-.412.777C148.5,2333.5,147.585,2334.028,146.649,2334.553Zm-22.843-12.338c1.6-1.71,3.191-3.427,4.883-5.248a1.171,1.171,0,0,1-.061.539q-.845,1.156-1.751,2.291c-.242.3-.574.561-.826.855a11.627,11.627,0,0,1-2.205,1.6Zm18.111,13.011,4.439-2.915c.172.182.071.357-.12.54-.322.315-.634.644-.947.959a.881.881,0,0,1-.312.232,7.813,7.813,0,0,0-2.355,1.247C142.41,2335.464,142.138,2335.562,141.917,2335.226ZM155.759,2316h-.211a3.251,3.251,0,0,1-.071-.7,13.156,13.156,0,0,0,0-3.622s.071-.063.161-.133a.715.715,0,0,1,.645.813A11.314,11.314,0,0,1,155.759,2316Zm-4.379,6.649.574-1.149,1.54-3.083a.786.786,0,0,1,.338.415.57.57,0,0,1-.066.475,17.319,17.319,0,0,1-1.842,3.1.681.681,0,0,1-.233.162A.924.924,0,0,1,151.38,2322.649Zm-17.507,7.63c.584-.448,1.2-.883,1.792-1.324a1.048,1.048,0,0,1,.333-.231c.16-.056.452-.147.533-.1.252.154.07.308-.121.434l-.674.448-3.4,2.3c-.191.127-.342.281-.523.421l-.212-.126C132.353,2331.5,133.108,2330.882,133.873,2330.279Zm8.235.5c-.523.329-.785.875-1.711,1.03l5.6-4.723a2.868,2.868,0,0,1-.956,1.261c-.473.4-.916.82-1.39,1.22A15.647,15.647,0,0,1,142.108,2330.784Zm-11.456,4.238c0-.1,0-.2.07-.238a31.406,31.406,0,0,0,4.329-2.557.886.886,0,0,0,.262-.049C134.951,2333.012,132.846,2334.287,130.652,2335.022Zm16.641-6.81a5.6,5.6,0,0,1-2.849,2.705A12.082,12.082,0,0,1,147.293,2328.212Zm6.473-6.4a15.857,15.857,0,0,1,1.218-2.985c.493.077.574.232.483.421a9.441,9.441,0,0,1-.493.967c-.181.315-.433.8-.675,1.2A1.111,1.111,0,0,1,153.766,2321.815ZM148.732,2327a10.339,10.339,0,0,1,1.762-2.74c.484.477.091.82-.09,1.108a4.111,4.111,0,0,1-1.661,1.632Zm7.823-1,1.3-2h.211a1.379,1.379,0,0,1,0,.59,3.269,3.269,0,0,1-1.5,1.41Zm-27.021,8.665a4.923,4.923,0,0,1,2.376-1.359A7.517,7.517,0,0,1,129.534,2334.665Zm.1-2.564a2.971,2.971,0,0,1,1.641-1.142A3.972,3.972,0,0,1,129.635,2332.1Zm16.8-1.4.161.084-1.208,1.058C145.471,2331.351,145.471,2331.351,146.437,2330.7Zm-7.258-33.5-.152.035a.7.7,0,0,0-.11-.252l.151-.035C139.108,2297.068,139.149,2297.117,139.179,2297.2Zm-34.32,43.126a.439.439,0,0,1,.141.035v.112l-.493.287c-.061-.07-.171-.147-.151-.2a.238.238,0,0,1,.058-.111.38.38,0,0,1,.119-.084.522.522,0,0,1,.157-.042A.529.529,0,0,1,104.859,2340.327Z" transform="translate(-80.206 -2290.08)" fill="#101a24" opacity="0.1"/>
</svg>
