<svg xmlns="http://www.w3.org/2000/svg" width="453.996" height="316.753" viewBox="0 0 453.996 316.753">
  <path id="hierba1" d="M881.995,2446.576c-3.031,2.271-6.64,1.545-9.439,3.544C872.7,2446.576,875.4,2445.6,881.995,2446.576Zm136.485,41.749s.069.091.069.046Zm-120.94-70.982c1.735.5,3.077,1.363,4.118,1.114,5.089-1.273,9.253.658,13.3,3.2a5.263,5.263,0,0,0,5.02.818C913.27,2415.14,904.5,2414.05,897.54,2417.343Zm-65.721,71.891c-2.082.659-2.082.659-2.5,2.771l11.566-2.453C839.083,2487.849,836.214,2487.849,831.819,2489.234Zm-23.78-72.186c-2.522,1.84-4.789,3.407-6.94,5.156a3.952,3.952,0,0,0-1.72,1.959,3.861,3.861,0,0,0-.108,2.584C802.556,2423.476,807.3,2422.318,808.039,2417.048Zm103.3-44.073c2.582-.115,3.768,1.461,5.187,2.466s2.327,2.125,3.723,3.039a19.757,19.757,0,0,1,6.285,6.481,19.363,19.363,0,0,1,2.7,8.549,22.117,22.117,0,0,1-2,11.124,15.891,15.891,0,0,0-.86,7.881,44.325,44.325,0,0,0,1.395,8.315c.745,3.38.837,3.38,4.955,3.838.7-4.865,3.7-8.7,6.165-12.815.629-1.028,1.652-2.284,1.419-3.29-.6-2.672,1.094-4.089,2.513-5.755.884-1.028,1.652-2.171,2.582-3.176a20.465,20.465,0,0,1,2.327-1.851,61.057,61.057,0,0,1,6.723,16.4,10.516,10.516,0,0,1,.08,5.664,10.661,10.661,0,0,1-2.872,4.912,27.98,27.98,0,0,0-2.326,2.422,32.968,32.968,0,0,0-2.932,3.837,6.405,6.405,0,0,0,.838,8.749c3.444,3.86,6.98,7.584,10.492,11.421,2.675,3.039,5.189,6.237,7.77,9.343.954,1.142,1.908,2.284,3.048,3.564l1.908-1.44a29.517,29.517,0,0,1-4.653-12.243,5.714,5.714,0,0,1-.28-1.805c.884-4.134,1.094-8.52,4.514-11.741,1.256-1.188,2.327-2.7,3.466-3.884a47.286,47.286,0,0,1,13.167-8.382c1.024,2.946,2.676,5.208.721,8.222-.65,1.006,0,3.061.489,4.569a17.76,17.76,0,0,1-1.582,15.237c-.255.41-.441,1-.814,1.233-4.513,2.6-3.4,7.035-3.769,11.01a99.83,99.83,0,0,1-1.256,10.235,5.634,5.634,0,0,0,.06,2.851,5.708,5.708,0,0,0,1.452,2.47,86.628,86.628,0,0,1,9.12,11.171,85.91,85.91,0,0,0,4.652,7.469c3.164,4.089,6.4,8.132,9.539,12.266,1.442,1.9,2.7,3.929,4.374,6.373a8.982,8.982,0,0,0,.174-4.785,9.1,9.1,0,0,0-2.315-4.215c-6.094-6.852-10.352-14.459-10.19-23.8a34.461,34.461,0,0,1,5.049-18.275c.186-.274.6-.434,1.163-.823,2.931,1.6,2.745,5.3,5.025,7.379s4.235,4.409,6.607,6.853c.558-.868,1.14-1.736,1.675-2.627a35.751,35.751,0,0,1,1.861-3.175c1.978-2.536,3.164-3.953,6.979-1.439a108.872,108.872,0,0,1-.489,13.7c-.558,5.848-3.14,10.325-5.769,15.237a9.7,9.7,0,0,0,.512,10.919,5.537,5.537,0,0,1,.628,2.1c.652,2.879,1.233,5.758,1.978,8.612.348,1.4.582,3.176,1.558,3.975a10.146,10.146,0,0,0,5.63,2.627,38.8,38.8,0,0,1,13.959,3.518,16.063,16.063,0,0,0,3.838.548l-6.444-11.078a17.982,17.982,0,0,1-1.536-14.209,16.408,16.408,0,0,0,.4-9.137,32.379,32.379,0,0,0-2.048-4.408c1.513-.206,2.792-.777,3.49-.389,1.721,1.028,3.792,1.485,5.071,3.449a15.307,15.307,0,0,0,4.443,3.838c2.862,1.942,5.863,3.7,8.818,5.528,3.28-4.044,6.188-7.767,11.632-8.681.209,4.569,2.513,8.018,4.071,11.833a15.284,15.284,0,0,1,.348,9.137c-.535,2.513-1.605,4.889-2.326,7.356l-3.861,12.243a78.731,78.731,0,0,0,17.726,4.319,145.45,145.45,0,0,1,30.244,7.629c.954.341,1.931.548,2.885.822a6.036,6.036,0,0,1,2.318,1.138,5.911,5.911,0,0,1,1.613,1.991,34.463,34.463,0,0,0,2.838,3.792c.443.57,1.118,1.165,1.187,1.781.349,3.016,2.443,5.027,4.025,7.356.977,1.462,2.628,2.811,1.117,4.912a6.234,6.234,0,0,1-2.76,1.719,6.3,6.3,0,0,1-3.266.107,177.91,177.91,0,0,1-23.822-9.753c-1.908-.936-3.885-1.736-5.816-2.581-7.957-3.541-15.913-7.1-23.893-10.6-1.465-.639-3.163-.777-4.652-1.416-2.722-1.187-5.351-2.6-8.026-3.906a9.782,9.782,0,0,0-1.605-.822c-2.025-.617-4.049-1.211-6.095-1.691a7.6,7.6,0,0,0-2.141,0c-.511,2.1-1.071,3.976-1.42,5.871a3.931,3.931,0,0,0,.267,2.665,4.025,4.025,0,0,0,1.921,1.9,69.313,69.313,0,0,0,22.24,9.412c1.21.3,2.489.365,3.676.685a66.675,66.675,0,0,1,6.979,2.124,2.51,2.51,0,0,1,.722.966,2.469,2.469,0,0,1,.185,1.182,13.6,13.6,0,0,1-3.7,7.881,4.682,4.682,0,0,1-2.395,1.42,4.75,4.75,0,0,1-2.793-.186c-4.652-1.371-9.3-2.537-13.957-4.158a23.826,23.826,0,0,1-5.98-3.655c-2.489-1.874-4.792-3.953-7.189-5.917-1.511-1.233-3.047-2.42-4.978-.456l-4.373-6.556c-.372,3.837-.792,6.692-.884,9.548a3.085,3.085,0,0,0,.3,1.985,3.161,3.161,0,0,0,1.467,1.4,1.679,1.679,0,0,1,.577.449,1.657,1.657,0,0,1,.33.648c.465,3.128,3.024,4.362,5.3,5.848,3.326,2.284,6.607,4.431,10,6.509a69.348,69.348,0,0,0,32.732,10.646c5.327.318,10.679.478,16.006.891a50.782,50.782,0,0,1,17.96,4.932c2.792,1.326,2.744,2.285.464,4.569s-4.094,4.569-6.187,6.854a7.481,7.481,0,0,1-3.8,2.545,7.6,7.6,0,0,1-4.6-.124q-5.722-1.782-11.516-3.267c-3.279-.753-6.676-1.051-9.98-1.621a55.059,55.059,0,0,1-19.286-6.854c-5-3.06-10.166-5.847-14.958-9.136s-8.98-7.013-13.61-10.645c-1.7,1.234-1.443,3.334-1.93,5.185-.861,3.313-1.745,6.624-2.792,9.891-.443,1.393-1.141,2.923-3.025,2.787s-1.931-1.6-2.559-2.833c-1.233-2.283-2.722-4.569-4.118-6.853a94.48,94.48,0,0,1-5.281-8.772c-1.674-3.54-1.977-3.883-6.048-2.284.372-4.568.745-8.771,1.117-13.065-3.421-.32-6.584-.458-9.678-.983a69.836,69.836,0,0,1-9.306-2.284c-3.024-.96-5.932-2.284-9.469-3.679l13.633-13.408c-2.652-3.037-4.978-5.756-7.351-8.382a2.3,2.3,0,0,0-.742-.514,2.391,2.391,0,0,0-.886-.2,90.623,90.623,0,0,0-11.935.524c-2.862.343-4.373,2.651-5.351,5.187-.627,1.6-1.187,3.22-1.768,4.842a11.848,11.848,0,0,1-3.84,5.99,12.2,12.2,0,0,1-6.629,2.782,15.4,15.4,0,0,0,2.327,9.137c2.815,4.569,3.187,9.526,3.862,14.482a8.712,8.712,0,0,1-.667,4.341,8.881,8.881,0,0,1-2.707,3.494,6.447,6.447,0,0,0-2.188,2.382,6.3,6.3,0,0,0-.742,3.123l-4.235.481c-3.466-3.61-6.537-6.854-9.747-10.12a11.1,11.1,0,0,1-3.211-6.122c-.6-3.518-1.024-7.059-1.559-10.575a7.262,7.262,0,0,1,1.373-5.21c1.535-2.284,2.791-4.865,4.3-7.514a10.957,10.957,0,0,0-7.794-2.285c-3.419.48-3.931,0-5.095-2.489-.721-1.509-.255-2.627,1.164-2.81,2.512-.32,3.442-2.147,4.652-3.816,3.49-4.567,7.328-8.748,13.214-10.37a34.077,34.077,0,0,1,4-.708c1.163-.16,2.326-.252,4.234-.457a30.517,30.517,0,0,0-9-4.272c-6.118-2.284-10.4.892-14.936,3.975s-6.165,7.927-6.467,13.363c0,1.828-1.861,3.609-2.908,5.368s-2.141,2.993-2.908,4.569a11.812,11.812,0,0,1-4.909,5.848c-1.745.936-3.187,2.284-4.932,3.289-2.489,1.347-4.35.594-4.513-2.124s-2.326-5.094-1.722-8.178a58.916,58.916,0,0,0,.7-8.543c-3.117-1.142-6.188-2.422-9.3-3.336a7.712,7.712,0,0,0-4.374,0,5.532,5.532,0,0,1-3.505,0,5.429,5.429,0,0,1-2.776-2.1c-1.7-1.965-3.258-4.044-4.769-6.146s-1.21-3.266,1.256-4.249c3-1.211,6.118-2.124,9.119-3.312a60.09,60.09,0,0,0,9.306-4,21.49,21.49,0,0,1,8.421-2.741,6.774,6.774,0,0,1,4.653,1.05c2.536,1.554,5.3,2.81,8.166,0a7.261,7.261,0,0,1,3.513-1,9.45,9.45,0,0,0,3.513-.846c-1.862-.663-3.746-1.233-5.583-1.964s-4.048-1.828-6.1-2.65a20.96,20.96,0,0,0-5.164-1.759,87.606,87.606,0,0,1-18.867-4.568,24.215,24.215,0,0,0-3.7-.594c-1.955-.389-3.932-.663-5.886-1.073s-4.514-1.1-6.77-1.669a9.988,9.988,0,0,0-1.024,8.087c.3,2.285.768,4.34,1.117,6.533a8.046,8.046,0,0,1-.054,3.816,8.14,8.14,0,0,1-1.807,3.379,21.205,21.205,0,0,0-1.838,3.152,61.082,61.082,0,0,1-4.327,6.419c-1.885,2.285-4.071,1.851-5.188-.89a79.736,79.736,0,0,1-2.326-8.018c-.163-.571-.349-1.12-.489-1.576-4.071,1.438-7.979,2.627-11.632,4.2a49.47,49.47,0,0,0-6.212,3.769c-4.4-2.285-5.141-5.8-4.257-10.028a38.321,38.321,0,0,0,1-5.8c.186-4.568,3.141-7.356,6.56-9.708a22.4,22.4,0,0,0,5.677-4.729,4.963,4.963,0,0,1,3.116-1.8c2.56-.229,4.933-1.737,7.7-.8,1.047.366,2.582,0,2.676-2.284-1.885-.96-3.886-2.147-6-3.038a92.227,92.227,0,0,0-10.445-4.089c-2.792-.8-5.84-2.742-8.91.183.209,1.257.326,2.6.651,3.883a9.129,9.129,0,0,1-.806,7.468,9.361,9.361,0,0,1-2.61,2.857,9.543,9.543,0,0,1-3.563,1.576l-22.171,6.122a10.321,10.321,0,0,1-1.442.2c-2.164-4.043-2.164-4.043-1.838-11.627l-9.911-2.626c-1.442-.388-2.93-.686-4.374-1.1a1.88,1.88,0,0,1-.887-.326,1.84,1.84,0,0,1-.6-.717,1.778,1.778,0,0,1,.166-1.79,10.489,10.489,0,0,1,3.118-3.473c2.07-1.3,4.466-2.125,6.676-3.243,3.373-1.736,6.98-2.81,10.306-4.912a15.112,15.112,0,0,1,13.819-2.284,7.871,7.871,0,0,0,1.814.252,4.067,4.067,0,0,1,.14-1.28c-2.885-1.782-5.746-3.586-8.631-5.323-2.327-1.484-4.862-2.991-7.375-4.339a17.888,17.888,0,0,0-4.792-2.01,14.987,14.987,0,0,1-5.83-2.346,14.67,14.67,0,0,1-4.313-4.507,6.935,6.935,0,0,0-3.258-2.878,17.835,17.835,0,0,1-10.538-8.27h-2.884c-3.35,0-4.444.549-4.863,3.792a30.683,30.683,0,0,1-5.932,13.318,7.7,7.7,0,0,1-2.493,2.462,7.842,7.842,0,0,1-3.347,1.124c-1.465.183-2.815.3-3.42,2.285-.325,1.119-1.814,1.917-2.814,2.833-2.327,2.1-4.351,1.461-5.025-1.646-.4-1.918-.536-3.907-.791-5.848a22.534,22.534,0,0,0-.3-2.513,146.029,146.029,0,0,1-26.056-6.556,3.5,3.5,0,0,1,.865-2.549,3.626,3.626,0,0,1,2.439-1.219,11.883,11.883,0,0,0,4.34-1.625,11.657,11.657,0,0,0,3.36-3.149,24.528,24.528,0,0,1,9.1-6.853c5.629-2.763,11.166-4.112,17.168-1.347a5.633,5.633,0,0,0,2.536.387c2.327,0,4.816-.387,7.934-.685a82.267,82.267,0,0,0-9.306-6.853,32.638,32.638,0,0,1-11.121-10.12c-3.14-4.431-7.491-4.91-12.167-4.933-.767,0-1.884,1.142-2.326,2.01-1.117,2.285-1.931,4.774-2.862,7.2a10.41,10.41,0,0,1-3.694,5.165,10.73,10.73,0,0,1-6.053,2.122,24.241,24.241,0,0,1-17.425-5.413c-2.815-2.284-2.582-4.021.768-5.278a11.1,11.1,0,0,0,4.033-2.289,10.855,10.855,0,0,0,2.713-3.718,27.711,27.711,0,0,1-3.466-3.792,18.2,18.2,0,0,1-1.6-4.158c.488-.57.651-.958.954-1.073,4.373-1.6,7.746-5.231,12.585-5.893a6.23,6.23,0,0,1,5.025.731c2.21,1.759,4.374,3.586,6.561,5.391l3.28,2.673,4.141-1.9-8.491-8.111c-1.07-1-2.094-2.054-3.187-3.059a7.39,7.39,0,0,0-1.722-1.349c-2.326-1.073-4.513-2.032-7.1-3.175a56.461,56.461,0,0,0-4.3,3.883,11.206,11.206,0,0,1-5.421,3.464,11.387,11.387,0,0,1-6.467-.059c-2.071-.5-4.118-1.051-6.165-1.6-.489,0-1.117,0-1.419-.434s-1.326-1.325-1.3-1.987,1-1.119,1.675-1.484c1.117-.549,2.326-.96,3.606-1.486l-1.117-1.667,4.653-4.318a19.394,19.394,0,0,0-3.234-.479c-5.606.32-10.189-2.1-14.586-5.048a6.183,6.183,0,0,1-2.094-2.033c-2.815-5.848-8.189-9.412-12.47-13.935a4.868,4.868,0,0,1-.791-5.8,3.535,3.535,0,0,1,.948-1.024,3.64,3.64,0,0,1,4.008-.164,22.431,22.431,0,0,0,9.794,1.6,21.312,21.312,0,0,1,6.584,1.027,99.561,99.561,0,0,1,11.352,4.569c3.7,1.782,6.98,4.157,6.77,8.977,1.559.526,2.955,1.074,4.374,1.508,1.047.3,2.117.48,3.769.845,0-2.969-.163-5.551-.256-8.749-2.838,1.531-4.537.16-6.724-.868a29.063,29.063,0,0,1-12.074-11.741,20.67,20.67,0,0,1-3.4-14.414,84.552,84.552,0,0,0,1.838-15.716,3.947,3.947,0,0,1,.53-1.649,4.04,4.04,0,0,1,1.191-1.275,2.721,2.721,0,0,1,2.034-.182,2.662,2.662,0,0,1,1.572,1.279c1.838,2.627,3.513,5.368,5.258,8.063l4.3,6.853,3.28-3.814c2.536,4.134,4.955,7.766,6.979,11.581a40.109,40.109,0,0,1,2.21,6.6,12.474,12.474,0,0,0,5.77-6.967c.279-.936,1.465-1.621,2.605-2.284,0,4.363,2,7.927,3.048,11.741a17.993,17.993,0,0,1-2.327,15.465c-1.884,2.718-3.954,5.345-6,7.995a3.175,3.175,0,0,0-.209,3.746c1.7,3.4,3.187,6.853,4.862,10.325a4.008,4.008,0,0,0,1.768,1.735c1.861.937,3.792,1.669,6,2.606-5.513-11.194-1.442-20.559,5.747-29.194,3.21,1.668,1.791,5.437,3.675,7.4s1.908,5.163,2.676,7.721h.884a8.863,8.863,0,0,1,11.143-1.485l4.467,2.285a27.755,27.755,0,0,1-4.494,12.444,28.382,28.382,0,0,1-9.79,9.05c-.349,2.285,1,4.8-1.117,6.853a15.391,15.391,0,0,0,2.14,3.656c2.141,2.078,4.653,3.791,6.817,5.778s4.862,4.569,7.281,6.853c.443.412.861.891,1.35,1.28,3.4,2.672,6.793,5.367,10.213,8.017a26.668,26.668,0,0,0,2.326,1.439,10.123,10.123,0,0,0,.117-2.786,22.539,22.539,0,0,0-6.235-9.846c-3.118-3.128-4.886-6.6-3.373-11.238a23.5,23.5,0,0,0,.581-6.555,11.753,11.753,0,0,1,1.1-4.823,11.963,11.963,0,0,1,2.994-3.973,36.581,36.581,0,0,0,6.491-8.018c.163-.274.536-.433,1.071-.845.4.709.744,1.3,1,1.9a23.856,23.856,0,0,0,1.07,2.74c2.164,3.7,4.421,7.333,6.839,11.308l7.468-.206a3.931,3.931,0,0,1,0,4.294,14.777,14.777,0,0,0-1.325,4.409,21.494,21.494,0,0,1-1.606,7.127,7.051,7.051,0,0,1-2.544,3.612,7.273,7.273,0,0,1-4.225,1.437,26.433,26.433,0,0,0-4,.639c.186,3.632.186,3.655,3.49,7.561a26.706,26.706,0,0,0,.861-3.7,2.47,2.47,0,0,1,1.907-2.695l5.048,3.7c2.327-2.719,4.164-5.072,6.142-7.424a3.536,3.536,0,0,0,.85-1.092,3.459,3.459,0,0,0,.359-1.33,7.094,7.094,0,0,1,2.017-3.63,7.294,7.294,0,0,1,3.73-1.921,3.013,3.013,0,0,1,1.262-.034,2.977,2.977,0,0,1,1.163.48,2.945,2.945,0,0,1,.856.912,2.882,2.882,0,0,1,.394,1.178c1,3.632,2.211,7.218,3.444,10.782.814,2.421,1.838,4.8,2.652,7.218a3.83,3.83,0,0,1,0,2.536c-2.14,4.568-3.979,9.274-8.911,12.221-.186,1.371-.418,3.061-.65,4.568a52.936,52.936,0,0,0,13.957,9.982c1.536.8,2.862,2.011,4.374,2.833a49.452,49.452,0,0,0,4.653,2.1,13,13,0,0,1,1.442.412c3.63,1.872,7.212,3.815,10.841,5.641,1.954.983,3.956,1.8,6.654,3.039a11.04,11.04,0,0,0-4.652-6.465c-3.025-1.9-5.608-4.568-9.307-5.3-1.256-.251-2.163-1.919-3.326-2.787a27.252,27.252,0,0,1-9.306-13.089c-1.885-5.436-3.187-11.033-4.652-16.47,1.814-1.324,3.21-2.1,4.652-.5,3.467,3.746,8.143,5.436,12.68,7.424a37.629,37.629,0,0,0,5.792,2.284c-1.349-1.187-2.745-2.284-4.048-3.586s-1.071-2.124.256-3.381a17.388,17.388,0,0,1,9.863-4.066,8.852,8.852,0,0,0-1.628-1.417,15.262,15.262,0,0,1-6.839-6.6c-1.559-2.489-1.605-2.535.139-4.8a5.749,5.749,0,0,0,1.187-2.764c-.582.275-1.187.5-1.745.8a7.229,7.229,0,0,0-1.512,1.1c-4.165,4.112-8.98,3.289-13.75,1.576a22.331,22.331,0,0,1-8.281-4.865c-2.117-2.056-4.654-3.814-6.84-5.733a11.585,11.585,0,0,1-2.489-2.285c-1.187-1.9-2.327-3.518-4.839-2.512-1.187-1.9-.489-3.107.861-3.7a29.574,29.574,0,0,1,5.653-1.644c2-.389,4.071-.527,6.165-.778-3.675-4.157-7.142-7.926-10.446-11.855a54.021,54.021,0,0,1-3.071-4.957c-1.07-1.645-1.674-3.7-4.35-3.837-.86,0-1.791-1.12-2.536-1.874-3.652-3.746-6.537-8.383-12.353-9.5a15.676,15.676,0,0,1-3.7-1.873c-1.14.868-2.14,1.781-3.281,2.49a14.172,14.172,0,0,1-15.54.456,33.153,33.153,0,0,1-9.887-7.149,8.577,8.577,0,0,0-4.234-2.011c-4.374-1.165-5.49-3.769-3.42-7.766a4.976,4.976,0,0,1,2.176-2.625,5.129,5.129,0,0,1,3.384-.642,20.177,20.177,0,0,0,9.911-1.165,20.808,20.808,0,0,1,4.815-.228c5.747-.617,9.748,2.855,13.959,5.619a12.576,12.576,0,0,0,3.676,1.919c-.7-1.233-1.326-2.513-2.094-3.7a98.847,98.847,0,0,0-6.165-9.137,7.228,7.228,0,0,0-3.266-2.7,7.388,7.388,0,0,0-4.249-.429,5.872,5.872,0,0,1-3.815-.3c-4.653-3.107-9.771-5.825-11.632-11.878a131.469,131.469,0,0,0-5.56-13.135c2.14-1.964,4.792-.137,7.142,0a26.594,26.594,0,0,1,7.444,2.284c2.327.891,4.816,1.942,7.352,2.947.931-1.3.255-2.627,0-4.043-1.093-5.231-1.559-10.416,2.583-14.757,1.6-1.667,2.326-4.111,4.792-5.071.4-.137.325-1.3.6-1.941.675-1.622,2.326-1.919,3.141-.434a92.03,92.03,0,0,1,7.4,12.746,14.5,14.5,0,0,1,0,7.9,31.9,31.9,0,0,1-5.885,13.819,6.26,6.26,0,0,0-.6,7.539c1.349,2.444,3.117,4.682,5.094,7.606a42.078,42.078,0,0,1,2.327-4.568c1.558-3.016,3.862-5.78,2.815-9.594-.373-1.371,1.023-1.8,2.141-2.1a2.505,2.505,0,0,1,1.833,0,2.444,2.444,0,0,1,1.33,1.239c1.536,2.809,3.164,5.573,4.653,8.36.373.64.6,1.371,1.023,1.965,4.142,6.259,3.839,12.792,1.047,19.348a23.956,23.956,0,0,0-2.326,8.451,5.233,5.233,0,0,0,.429,2.871,5.348,5.348,0,0,0,1.9,2.223c.629.389,1.118,1.005,1.768,1.348a11.344,11.344,0,0,1,3.831,3.491,11.091,11.091,0,0,1,1.846,4.8,8.52,8.52,0,0,0,1.763,3.706,8.729,8.729,0,0,0,3.309,2.484c.209-3.015.326-5.6.535-8.177s.535-5.049.814-7.676c4.653-.959,7.979,1.691,11.632,4.158-.652-1.69-1.141-2.97-1.745-4.569l11.957-3.906a28.657,28.657,0,0,0-3.512-1.507,30.163,30.163,0,0,1-12.353-6.853c-4.421-3.929-9.073-7.813-10.981-13.706a27.67,27.67,0,0,1-1.419-6.373c-.163-2.079.93-2.97,3.1-2.627a29.8,29.8,0,0,1,6.048,1.85,56.778,56.778,0,0,0,12.679,4.34,10.221,10.221,0,0,1,6.142,3.724c1.977,2.284,4.42,4.294,6.443,6.624a31.522,31.522,0,0,1,5.817,9.8c1.325,3.563,4.466,5.322,8.235,7.378a22.346,22.346,0,0,1-.4-2.9v-6.853c0-2.284.372-3.906.535-5.848a10.625,10.625,0,0,1,2.025-5.832,10.938,10.938,0,0,1,4.953-3.785l2.327,4.181c1.3,2.284,2.536,4.728,3.955,7.012,1.815,2.924,3.7,5.8,5.723,8.589a14.363,14.363,0,0,1,2.536,9.137,10.906,10.906,0,0,1-1.978,5.414,4.738,4.738,0,0,0,.4,6.625c1.442,1.553,2.722,3.2,4.118,4.8s2.722,3.175,4.141,4.682c.7.755,1.536,1.394,2.955,2.651-.56-3.633-1.047-6.328-1.373-9.138a49.75,49.75,0,0,1-.535-6.853,9.626,9.626,0,0,1,1.048-3.929,9.843,9.843,0,0,1,2.58-3.175,10.253,10.253,0,0,0,2.027,4.2,10.473,10.473,0,0,0,3.7,2.9,12.354,12.354,0,0,0,3.421.686,11.518,11.518,0,0,1,.861-7.79c.349-.5,0-1.6-.374-2.284A23.489,23.489,0,0,0,911.34,2372.975Zm-151.65,87.411a7.729,7.729,0,0,0,3.007-2.089,13.693,13.693,0,0,0,3.678-9.085c-3.146.908-6.407.976-8.4,3.746s-5.552,3.113-8.952,4.066c.462-2.112,2.128-1.953,3.261-2.52s3.332-1.091,4.118-2.272a8.979,8.979,0,0,1,2.617-2.522,9.148,9.148,0,0,1,3.421-1.294,8.539,8.539,0,0,0,3.672-1.531,8.358,8.358,0,0,0,2.551-3.012,61.122,61.122,0,0,0-9.948,1.454,28.785,28.785,0,0,0-15.36,11.97C746.574,2460.023,755.919,2461.953,759.69,2460.386Zm6.292,4.066a35.95,35.95,0,0,0,4.326-6.814,35.8,35.8,0,0,1,5.3-10.244,7.386,7.386,0,0,1-1.734,1.249,6.733,6.733,0,0,0-3.714,2.54,6.527,6.527,0,0,0-1.237,4.274,8.2,8.2,0,0,1-.863,3.527,8.359,8.359,0,0,1-2.306,2.833c-3.424,2.862-2.8,6.247-1.388,10.335C766.1,2469.29,768.481,2467.405,765.982,2464.452Zm17.767-17.876c-3.309-1.5-5.853-1.794-8.144.682l3.887,1.158c-1.18,1.2-1.966,1.931-2.66,2.7a16.725,16.725,0,0,0-2.314,2.794c-1.9,3.589-3.655,7.245-5.482,10.88.624.454,1.226-.182,1.9-.25a4.466,4.466,0,0,0,2.806-1.129,4.317,4.317,0,0,0,1.4-2.642,36.222,36.222,0,0,1,3.655-7.109c.278-.522.948-1,.948-1.5a5.794,5.794,0,0,1,1.087-3.426A5.96,5.96,0,0,1,783.749,2446.576Zm234.731,41.8c.347,2.68.694,5.36,1.11,8.518,3.609-3.566,2.476-7.746,3.332-11.358a21.366,21.366,0,0,0-.88-11.357,11.349,11.349,0,0,0-4.417,6.461A11.175,11.175,0,0,0,1018.48,2488.371Zm-3.054,28.211c.3-6.315.556-11.9.833-17.467a25.345,25.345,0,0,0,.347-4.339,24.262,24.262,0,0,0-5.991-13.787l-7.634-8.337c-6.524,7.519-1.943,29.529,6.94,35.367a13.273,13.273,0,0,0,.277-10.54,17.653,17.653,0,0,0-1.92-3.975,34.3,34.3,0,0,1-4.626-10.766,3.106,3.106,0,0,1-.288-2.184,3.164,3.164,0,0,1,1.236-1.838,27.755,27.755,0,0,1,1.6,2.772c1.62,3.817,3.054,7.724,4.835,11.358a21,21,0,0,1,2.314,12.31,42.908,42.908,0,0,0,.439,9.086A23.924,23.924,0,0,0,1015.426,2516.582ZM843.432,2366.145a32.31,32.31,0,0,1,3.4,1.5,19.455,19.455,0,0,0,8.05,2.272c-2.314-4.543-2.591-4.906-6.547-6.315a49.282,49.282,0,0,0-6.8-1.612c-1.735-.364-3.7-.318-4.372-2.272.625-1.794,3.678.477,3.053-2.612,1.782.977,3.262,1.863,4.812,2.589a38.648,38.648,0,0,0,5.182,2.022,10.4,10.4,0,0,1,4.892,3.269,10.1,10.1,0,0,1,2.279,5.362l1.5-.249a18.023,18.023,0,0,0-4-8.518,84.439,84.439,0,0,0-7.171-7.428,11.021,11.021,0,0,0-5.2-2.635,24.769,24.769,0,0,1-6.431-2.407c-3.239-1.477-6.478-2.953-10.179-4.68a16.218,16.218,0,0,0-.254,2.272,6.679,6.679,0,0,0,.37,1.794,26.265,26.265,0,0,0,6.488,10.939A26.922,26.922,0,0,0,843.432,2366.145ZM856.3,2391.7c3.169,3.589,7.264,4.043,11.566,3.793a9.526,9.526,0,0,0,5.506-2.68,4.619,4.619,0,0,1,2.058-1.522,4.726,4.726,0,0,1,2.569-.205v-.772a14.379,14.379,0,0,0-4-1.794,66.435,66.435,0,0,0-11.821-.5,12.22,12.22,0,0,1-4.712-.777,12.059,12.059,0,0,1-4.033-2.516c-1.041-.818-.555-1.681.44-2.272,7.241,3.385,9.392,3.748,15.383,2.612-7.564-8.722-18.506-11.357-26.325-5.883,1.712,1.636,3.354,3.271,5.066,4.838C850.726,2386.611,853.8,2388.905,856.3,2391.7Zm-8.1-1.045a5.018,5.018,0,0,1,1.874,2.612c.625,4.543,2.082,9.086.81,13.629a4.2,4.2,0,0,0,.532,2.7c.648,1.294,1.735,2.271,2.313,3.657a7.509,7.509,0,0,0,4.048,3.793,9.912,9.912,0,0,1,4.858,3.816,2.661,2.661,0,0,0,1.3,1.273,2.733,2.733,0,0,0,1.826.158c6.709-1.59,11.983,1.794,17.211,5.019a12.513,12.513,0,0,1,3.488,3.742,12.237,12.237,0,0,1,1.671,4.8c.254,1.159.555,2.772,1.365,3.225a39.252,39.252,0,0,0,10.71,3.793,18.72,18.72,0,0,1-2.313-2.793c-2.313-4.542-4.442-9.222-6.639-13.855a3.139,3.139,0,0,1-.44-1.386,18.028,18.028,0,0,1,.486-2.521l5.3.659a28.3,28.3,0,0,0-12.121-4.544,7.026,7.026,0,0,1-2.753-1c-1.365-.8-2.938-1.477-2.568-3.566s.995-3.817,3.378-4.248c1.341-.228,2.706-.273,4.025-.522,2.8-.569,6.014.363,8.7-2.273-4.465-3.86-8.7-7.768-13.232-11.357a9.382,9.382,0,0,0-5.251-1.453c-.972,0-2.013,1.158-3.031,1.794l-.925.636a12.833,12.833,0,0,1-4.729,2.226,12.94,12.94,0,0,1-10.109-1.749,12.628,12.628,0,0,1-3.669-3.68,17.909,17.909,0,0,0-5.366-4.951,73.721,73.721,0,0,1-6.686-5.316A20.312,20.312,0,0,0,848.2,2390.654ZM921.806,2437c1.99,2.612,3.7,5.428,5.46,8.2a11.318,11.318,0,0,1,1.5,7.427c-.37,3.362-.832,6.814-1.272,10.154a16.122,16.122,0,0,0,7.45,6.109c-.394-3.271-.857-6.36-1.111-9.471a13.676,13.676,0,0,1,.394-4.339c.739-2.68,2.544-3.112,4.626-1.272.556.5,1.065,1.045,1.573,1.567a52.93,52.93,0,0,0,10.873,9.291,11.968,11.968,0,0,1,4.378,3.9,11.69,11.69,0,0,1,1.96,5.477,97.694,97.694,0,0,0,2.314,10.722,3.431,3.431,0,0,0,1.076,2.088,3.552,3.552,0,0,0,2.185.933c4.974.5,9.971.909,14.944,1.363a2.446,2.446,0,0,1,.3-.84c-.6-.637-1.133-1.318-1.758-1.886-4.974-4.543-10.271-8.881-13.024-15.288a4.69,4.69,0,0,0-.833-1.2q-8.05-9.585-16.193-19.1c-1.688-1.954-3.516-3.77-5.343-5.588a21.888,21.888,0,0,0-3.817-3.317,14.969,14.969,0,0,1-6.733-6.586,3.239,3.239,0,0,0-1.087-1.386c-2.129-1.408-4.3-2.794-6.524-4.111a4.7,4.7,0,0,0-2.1-.545c-3.909-.273-7.819-.5-12.145-.75,3.077,2.454,5.575,4.907,9.253,5.884A7.067,7.067,0,0,1,921.83,2437Zm41.641,58a11.537,11.537,0,0,1-3.077-3.589c-3.239-4.36-3.308-9.63-4.233-14.628-.717-3.77-1.273-7.7-5.136-9.63a66.333,66.333,0,0,1-12.862-9.926l-1.365-1.136a33.347,33.347,0,0,0,1.065,12.221,26.99,26.99,0,0,1,.809,5.269,10.15,10.15,0,0,0,.776,4.073,10.321,10.321,0,0,0,2.347,3.446c3.054,2.679,6.107,5.315,9.785,8.494-1.943-5.474-3.678-10.085-5.205-14.786a55.011,55.011,0,0,1-1.5-6.815c-.185-1.022,0-1.976,1.827-2.271a22.017,22.017,0,0,1,.856,2.816,29.242,29.242,0,0,0,.324,3.521c.81,2.794,1.851,5.542,2.73,8.313.509,1.568.416,3.589,1.411,4.7,3.377,3.885,5.783,8.541,10.04,11.744a6.135,6.135,0,0,1,1.75,1.775,6.039,6.039,0,0,1,.887,2.313,5.077,5.077,0,0,0,.383,2.514,5.169,5.169,0,0,0,1.56,2.028c2.036,1.773,3.886,3.771,5.853,5.611,4.626,4.27,9.253,8.563,13.879,12.743.741.659,1.944.749,2.869,1.2s1.827,1.475,2.776-.387c-4.372-3.725-8.513-7.813-13.232-11.084a32.165,32.165,0,0,1-7.1-6.542,15.954,15.954,0,0,1-3.539-5.883,9.4,9.4,0,0,0-1.723-3.551,9.578,9.578,0,0,0-3.043-2.559Zm21.051,17.493c-.764-.182-1.573-.2-3.054-.408,5.344,4.542,10.387,8.585,14.805,13.1,3.331,3.407,7.148,3.77,11.891,3.748-.856-1.545-1.481-2.816-2.314-4.02-1.966-3.067-4.233-6-5.945-9.085a6.632,6.632,0,0,0-1.546-2.236,6.762,6.762,0,0,0-2.326-1.445,6.869,6.869,0,0,0-5.381.273,9.626,9.626,0,0,1-6.223.023Zm-23.966-12.311a2.89,2.89,0,0,0-.486-.954c-7.379-6.292-15.5-10.879-25.678-10.789a8.232,8.232,0,0,0-4.858,1.385,9.317,9.317,0,0,1-3.965,1.949,9.424,9.424,0,0,1-4.433-.086,5.24,5.24,0,0,0,.569,2.561,5.351,5.351,0,0,0,1.745,1.982,91.945,91.945,0,0,0,18.715,10.471,14.108,14.108,0,0,0,10.563.459A13.785,13.785,0,0,0,960.532,2500.182ZM928.145,2469l7.519,5.679c.069-2.135-4.535-5.452-7.4-5.679Zm-9.531-11a3.678,3.678,0,0,0,.763,1.567,28.824,28.824,0,0,0,2.846,3.838,39.115,39.115,0,0,0,3.632,3.067l.347-.454-2.961-6.428c2.752-.864,2.961-2.771,2.683-4.93a17.214,17.214,0,0,1,0-2.271c0-6.541-3.886-11.107-8.351-15.309a9.851,9.851,0,0,0-1.943-1.045A54.031,54.031,0,0,1,911,2433.2c-3.747-2.59-7.194-5.656-11.566-7.132a6.737,6.737,0,0,0-4.974-.069c1.712,3.407,3.424,6.588,4.928,9.858a20.865,20.865,0,0,0,6.939,8,30.246,30.246,0,0,0,4.326,2.589,14.263,14.263,0,0,1,5.606,4.725A13.918,13.918,0,0,1,918.73,2458ZM783.772,2322.943l4.627-7.2c-1.5-.319-1.712-1.272-1.064-2.658,1.064-2.272,2.082-4.543,3.354-7.223a17.56,17.56,0,0,0-4.187,2.271,9.913,9.913,0,0,0-2.961,4.429,45.119,45.119,0,0,0-.255,8.314A10.978,10.978,0,0,0,783.772,2322.943ZM788,2336.571a25.36,25.36,0,0,0,1.5-2.271,85.219,85.219,0,0,1,4.626-9.517,10.9,10.9,0,0,0,1.643-7.678,14.65,14.65,0,0,0-3.493-8.2c-.347,1.567-.671,2.725-.856,3.884a2.237,2.237,0,0,0,.254,1.544c1.527,1.59.879,2.635-.763,3.407a6.221,6.221,0,0,0-2.421,1.965,6.067,6.067,0,0,0-1.142,2.873,37.338,37.338,0,0,0,.648,13.947Zm10.23,22.328c0-.227.347-.477.278-.613a72.362,72.362,0,0,0-4.766-10.312c-1.619-2.5-3.146-5.542-6.94-6.042-.832-.114-1.411-1.567-2.2-2.271a25.877,25.877,0,0,0-3.818-3.294c-3.03-1.885-6.2-3.521-9.253-5.361a1.524,1.524,0,0,1-.616-.465,1.494,1.494,0,0,1-.3-.7,1.475,1.475,0,0,1,.09-.758,1.509,1.509,0,0,1,.458-.617c5.274.864,8.259,5.974,13.88,6.406-.231-.75-.393-1.931-.624-1.954-2.314-.159-3.054-2.271-4.489-3.407a29.778,29.778,0,0,0-11.566-4.951,6.869,6.869,0,0,0-4.951-.227,50.256,50.256,0,0,1,3.332,6.814,18.249,18.249,0,0,0,8.512,10.153,10.682,10.682,0,0,0,6.941,2.135,8.521,8.521,0,0,1,3.563.636,11.092,11.092,0,0,1,4.078,2.8,10.817,10.817,0,0,1,2.422,4.267A21.947,21.947,0,0,0,798.23,2358.9Zm-5.32,10.608c-6.94-4.906-15.084-3.612-22.787-4.974.555-2.272,2.313-2.59,4.025-2.431,2.313.2,4.442.659,6.663.7a26.827,26.827,0,0,1,14.574,4.838c.671.455,1.6,1.136,1.642,1.772a2.86,2.86,0,0,0,.733,1.644,2.95,2.95,0,0,0,1.581.9c2.845.977,5.737,1.863,8.7,2.817a29.515,29.515,0,0,1-.694-5.929,10.124,10.124,0,0,0-1.365-5.951c-1.851-3.225-1.3-6.632-.81-10.017.185-1.317.972-2.271,3.077-1.794-.44,4.543-1.481,9.562,2.521,13.765a31.978,31.978,0,0,0,1.573-3.044,14.131,14.131,0,0,0,.417-9.313,33.025,33.025,0,0,0-6.2-12.879,27.978,27.978,0,0,0-5.3,10.971c-.417,1.84-.949,4.384,0,5.633,2.313,3.089,2.174,6.656,3.1,9.994a2.526,2.526,0,0,1,.053,1.96,2.588,2.588,0,0,1-1.371,1.425l-3.007-2.885-1.874,1.7c-1.434-1.159-2.938-2.272-4.234-3.5a25.3,25.3,0,0,0-8.366-5.595,25.71,25.71,0,0,0-9.932-1.924c-.879,0-1.92-.249-2.568.137-3.031,1.794-6.246,1.34-9.462,1.113-1.688-.137-2.937.3-3.238,2.157s.6,2.635,2.313,3.249a15.364,15.364,0,0,1,5.205,2.771,39.216,39.216,0,0,0,10.965,6.814,11.553,11.553,0,0,0,7.8.464A11.343,11.343,0,0,0,792.91,2369.507Zm25.446,18.012c.74-3.316.324-4.02-2.753-5.247Zm10.644,9.9-7.31-5.905c3.169,5.292,3.724,5.724,7.31,5.883Zm5.318,8,.509-.59-3.4-2.794-.555.659ZM854.6,2422c-.694-.5-1.249-.954-1.874-1.341A21.926,21.926,0,0,0,842,2418.274a42.789,42.789,0,0,1-4.858-.181c-2.036-.318-4.048-.954-4.442-3.861a35.225,35.225,0,0,0,4.164,1.045c4.257.477,8.513.863,12.585,1.249-.463-.568-1.157-1.431-2.106-2.657l3.47-.614-5.852-7.564a20.306,20.306,0,0,0-3.7-4.543c-3.863-2.771-5.112-7.132-7.333-10.88-.647-1.068,0-1.8,1.666-1.8,1.087,1.954,2.082,4.044,3.331,5.974a11.235,11.235,0,0,0,3.1,3.453,10.734,10.734,0,0,1,4.372,4.839,10.309,10.309,0,0,0,1.5,2.043,34.642,34.642,0,0,0,0-9.267,5.921,5.921,0,0,0-1.5-2.885c-2.66-3.066-5.459-6-8.143-9.086a9.381,9.381,0,0,0-3.131-2.291,9.536,9.536,0,0,0-3.809-.843c-.809,5.792-2.891,11.357,1.319,16.331a1.257,1.257,0,0,1,0,1.046c-.6,1.657.393,2.521,1.6,3.293l11.567,7.632-2.059,4.134-3.979-2.476-1.735,1.726c-1.111-.7-2.128-1.363-3.192-1.953a4.16,4.16,0,0,0-2.013-.84c-3.493.273-6.94.681-10.734,1.09,4.326,5.837,10.017,9.335,15.615,12.947a10.45,10.45,0,0,0,10.9,1.249,2.343,2.343,0,0,1,1.411,0c2.544.613,3.608-.727,4.534-2.589Zm24.244,16c-2.545-4.134-7.172-4.36-10.9-6.405.671-.477.995-.908,1.226-.863,4.187.818,8.652.931,11.566,4.861a17.615,17.615,0,0,0,3.239,3.021,5.48,5.48,0,0,0,1.966.522c-.763-4.543-1.966-7.473-4.441-8.767-4.326-2.272-8.1-6.269-14.065-4.929,1.2,2.952-1.9,3.5-2.892,5.633-1.318-.7-2.174-1.2-3.053-1.636-1.249-.659-2.8-1.363-3.563.182-.347.7.694,2.067,1.111,3.135a.724.724,0,0,0,.231.3,22.41,22.41,0,0,0,9.147,4.767,22.65,22.65,0,0,0,10.354.184Zm-11.127,16a35.612,35.612,0,0,0,27.759-3.5c.139,0,.116-.41.278-1l-10.248-2.7a7.356,7.356,0,0,1,3.121-1.5,7.44,7.44,0,0,1,3.472.087c3.632,1.227,7.194,2.612,10.733,4.089a55.472,55.472,0,0,1,5.506,2.816,40.931,40.931,0,0,0,7.912,4.27,46.206,46.206,0,0,0-3.817-5.065c-.81-.817-2.314-1.817-3.17-1.521-2.521,1.044-3.955-.614-5.644-1.636a27.59,27.59,0,0,0-9.577-3.975,59.45,59.45,0,0,0-6.524-1.3c-3.053-.2-6.06-.953-9.114-1.431a4.762,4.762,0,0,1-.393.318l1.827,2c0,.227-.208.454-.3.705-3.632-.546-6.709-3.794-10.827-2.272-3.608,1.34-8.073,0-11.265,3.657a27.023,27.023,0,0,0,3.793,4.27,18.96,18.96,0,0,0,6.408,3.679Zm-1.018,6.5c-1.388,4.361,1.018,8.086,2.313,11.9,2.082,6.815,7.31,11.358,12.4,15.9a34.66,34.66,0,0,0,5.575,4.271,50.867,50.867,0,0,0,8.583,4.247c2.614.909,4.788,3.112,8.3,2.84-1.064-3.385-1.6-6.451-4.117-8.7a5.865,5.865,0,0,1-1.3-2.589c-1.087-3.225-2.313-6.473-3.123-9.768a12.982,12.982,0,0,1,.671-9.972,16.71,16.71,0,0,0,2.175-10.9,3.645,3.645,0,0,1,.3-2.625,3.749,3.749,0,0,1,2.01-1.758c.81,1.159,1.527,2.271,2.313,3.316a87.981,87.981,0,0,0,6.084,7.814,19.058,19.058,0,0,1,3.031,4.02,19.531,19.531,0,0,1,1.966,8.768,39.783,39.783,0,0,1-.625,11.949c-.485,2.021-.948,4.042-1.48,6.041-.717,2.681.324,6.655,2.174,7.2q6.756,1.91,13.649,3.43a18.3,18.3,0,0,1,6.64,2.272,40.657,40.657,0,0,0,6.477,3.271q8.907,3.724,17.928,7.155a39.776,39.776,0,0,0,5.737,1.339c1.2.25,2.475.364,3.655.682,3.817,1.068,7.611,2.272,11.428,3.271a10.7,10.7,0,0,0,2.73-.341c-8.074-5.951-13.672-13.515-21.977-17.921-1.226.749-2.313,1.363-3.354,2.022-5.205,3.27-10.618,4.542-16.517,1.771-1.666-.818-3.447-1.408-5.043-2.271-3.841-2.272-7.473-4.839-11.382-6.951a9.462,9.462,0,0,1-4.038-3.639,9.22,9.22,0,0,1-1.329-5.219c0-2.794.879-3.679,3.493-2.681a5.094,5.094,0,0,0,5.32-.318c2.8-2.5,6.039-2.5,9.417-2.5a40.752,40.752,0,0,0,4.626-.477,16.5,16.5,0,0,0-1.295-1.181c-2.637-1.84-5.39-3.544-6.039-7.088-.116-.7-1.017-1.34-1.712-1.84a184.139,184.139,0,0,1-19.547-16.285,38.909,38.909,0,0,0-13.255-7.905,38.132,38.132,0,0,1-5.321,2.817c-3.84,1.317-7.773,2.452-11.728,3.52a24.776,24.776,0,0,1-4.627.636,27.757,27.757,0,0,1-14.18-2.748,32.957,32.957,0,0,1,2.313,3.315C866.588,2459.637,866.866,2459.954,866.7,2460.5Zm43.79,16.5c-.647-6.45-4.626-10.72-8.929-15.059-.925,2.271-1.758,3.93-2.313,5.747a14.109,14.109,0,0,0-1.365,5.247,31.7,31.7,0,0,0,6.685,19.261l2.314,2.5c4.487-5.565,4.187-11.562,3.585-17.7Zm-85.036-29.333c0,.545-.37,1.158-.394,1.771,0,1.227,0,2.476.139,4.248,3.054-1.863,3.933-4.543,5.39-6.633a5.9,5.9,0,0,0,.486-6.246c-1.11-2.272-2.1-4.657-3.03-7.019-1.088-2.816-2.059-5.678-3.1-8.518-2.822.205-2.822.205-2.637,4.18a80.435,80.435,0,0,0-6.177,5.905,3.99,3.99,0,0,0,.324,5.565l6.176,6.974a2.086,2.086,0,0,0,.278-.659c.162-.886.37-1.908,1.5-1.522.509.25.856,1.318,1.018,2.022Zm-23.318-.523c-2.2-5.838-4.257-11.357-6.385-16.922a12.03,12.03,0,0,1,2.313-.863c.417,0,.949.409,1.411.34a22.473,22.473,0,0,0,6.94-1.112,7.078,7.078,0,0,0,2.717-2.671,6.916,6.916,0,0,0,.915-3.666c0-2.544.3-5.088.486-7.7a3.781,3.781,0,0,0-1.249-.25,4.705,4.705,0,0,0-2.343.291,4.629,4.629,0,0,0-1.891,1.39c-.9,1.181-3.03,1.454-4.071,2.611-1.8,2.045-4.164,3.952-3.863,7.2,0,.364-.717,1.068-1.157,1.113a1.787,1.787,0,0,1-.8-.262,1.754,1.754,0,0,1-.585-.6,6.959,6.959,0,0,1-.37-2.5c-.139-2.408-.208-4.815-.278-7.2a29.077,29.077,0,0,1,0-5.111,6.433,6.433,0,0,1,.871-3.183,6.58,6.58,0,0,1,2.345-2.359c1.388,4.543-2.475,8.768,0,13.492l5.529-6.337c-1.712-4.292-2.314-8.768-6.339-11.539a21.186,21.186,0,0,0-5.873,6.709,20.779,20.779,0,0,0-2.547,8.487c-.324,4.543-.532,9.085,3.192,12.7a21.176,21.176,0,0,1,6.038,12.311,9.442,9.442,0,0,0,.509,1.749,5.8,5.8,0,0,0,1.683,2.574,5.971,5.971,0,0,0,2.782,1.378Zm-38.7-40.2-3.817,2.544c.37,2.272,1.758,3.248,3.955,3.907C763.53,2411.3,763.484,2409.53,763.438,2406.94Zm6.5-2.975c-3.192-.568-3.192-.568-4,2.771Zm5.9-11.9-6.94,4.543-1.3,3.953C773.94,2400.536,776.993,2397.128,775.837,2392.062Zm-20.172,9.359c.324-.477.74-1.432.925-1.386,3.239.727,3.424-1.885,3.887-3.657a41.46,41.46,0,0,0,.879-7.2c.347-4.27-1.967-7.541-4.234-10.88C750.853,2385.112,750.159,2395.9,755.665,2401.421Zm3.516,6.579a10.194,10.194,0,0,1,1.8-1.544,4.047,4.047,0,0,0,2.3-1.943,3.93,3.93,0,0,0,.293-2.964c-.138-.659,0-1.794.394-2.067,2.475-1.635,2.452-4.293,2.914-6.814a5.574,5.574,0,0,1,1.157-.159c.231,0,.463.205.694.25,1.6.273,4.349-.75,4.627-1.885a1.948,1.948,0,0,0-.3-1.636,4.859,4.859,0,0,0-5.182-.658,2.3,2.3,0,0,0-.879.658,27.15,27.15,0,0,0-3.84,6.5,18.043,18.043,0,0,1-4.095,8.427,2.569,2.569,0,0,0-.638.874,2.526,2.526,0,0,0,.025,2.1,2.569,2.569,0,0,0,.66.86Zm-33.265-63c-1.458,3.657-3.077,7.2-4.211,10.9a13.545,13.545,0,0,0,.255,5.338,12.979,12.979,0,0,0,1.087,3.271c.995,2.271,1.064,5.088,4.835,6.246-.787-2.953-1.3-5.474-2.151-7.881-1.134-3.158-.9-5.634,1.272-7.564a69.319,69.319,0,0,0,4.511,15.559C734.082,2362.284,732.786,2349.428,725.916,2345Zm-4.627,21c-.324-.613-.416-1.158-.763-1.386a5.8,5.8,0,0,1-1.968-3.038,5.721,5.721,0,0,1,.233-3.594,35.635,35.635,0,0,1,1.5-4.134l2.314-6.814c-3.725-6-6.94-11.357-10.549-17.081-.648,5.315-1.249,9.858-1.943,14.4a15.4,15.4,0,0,0,1.735,10.54c1.966,3.362,4.233,6.542,6.477,9.744a2.469,2.469,0,0,0,1.027,1.115,2.109,2.109,0,0,0,1.041.248Zm-5.876,21.111a47.45,47.45,0,0,1,10.919,0,11.461,11.461,0,0,1,6.778,3.566l-1.087,2.589a8.4,8.4,0,0,0,1.249,0,5.76,5.76,0,0,1,4.18.39,5.6,5.6,0,0,1,2.76,3.108c.231.523.925.864,1.388,1.3a17.357,17.357,0,0,0-3.748-8.268l-1.156,1.817-7.935-5.451c2.013-2.045,4.025,0,6.269,0a48.065,48.065,0,0,1-.185-6.406,77.891,77.891,0,0,1,1.342-8.268c.277-1.363,1.18-2.271,3.262-2.476-.741,3.453-2.614,6.542-1.689,10.244,2.984-3.452,6.732-5.814,7.31-10.766a22.373,22.373,0,0,0-2.73-13.311c-5.529,3.794-6.755,6.088-6.94,12.266a9.653,9.653,0,0,1-1.156,4.179,12.756,12.756,0,0,0-1.018,5.293,20.168,20.168,0,0,1-1.689,5.769c-.625,1.454-1.989,1.477-3.516,1.045-3.1-.886-6.292-1.5-9.392-2.271a21.167,21.167,0,0,1-4.627-1.5,18.623,18.623,0,0,0-10.363-2.272c-1.065,0-1.851-.136-2.314-1.817a66,66,0,0,1,9.253.3,62.154,62.154,0,0,1,8.513,2.726c-1.087-3.066-1.711-4.066-4.4-5.27-4.812-2.271-9.739-4.156-14.666-6.11a4.708,4.708,0,0,0-2.591-.113,17.288,17.288,0,0,1-10.873-1.522,12.07,12.07,0,0,0-2.313-.409,19.935,19.935,0,0,0,5.251,6.61c2.984,2.748,5.945,5.542,8.907,8.29a22.883,22.883,0,0,0,7.782,5.119A23.27,23.27,0,0,0,715.413,2387.111ZM729.571,2393h-4.049l2.383-3.021a14.405,14.405,0,0,0-3.03.273c-1.18.272-2.314.658-3.493,1.044a32.32,32.32,0,0,0-3.355,1.136c-2.914,1.3-3.77,3.907-4.418,7.064a15.736,15.736,0,0,0,10.364-1.159c.855-.5,2.035-1.157,2.2-1.884C726.633,2394.386,728.368,2394.227,729.571,2393Zm25.446,18a38.092,38.092,0,0,1-4.858-6.815c-1.342-2.725-4.465-3.362-7.217-4.315A48.208,48.208,0,0,0,754.994,2411Zm-10.919,6.8c-1.226.113-2.313-.136-2.822.318-2.313,2.43-5.806,3.634-6.593,7.564-.6,2.93-2.313,3.407-5.459,2.725.3-2.067,2.313-1.613,3.03-2.658.995-1.522,1.55-3.338,2.637-4.792a39.279,39.279,0,0,1,4.164-4.157c-5.158-1.567-8.443-.863-10.294,2.272-2.313,3.657-4.164,7.495-8.351,9.676a9.9,9.9,0,0,0,6.524,3.475,36.717,36.717,0,0,0,8.513,0,6.6,6.6,0,0,0,3.373-1.017,6.451,6.451,0,0,0,2.34-2.594C742.317,2425.157,743.057,2421.591,744.1,2417.8Zm-5.505-7.8a12.593,12.593,0,0,0-4.627-.953,14.588,14.588,0,0,0-5.436.953,59.989,59.989,0,0,0-6.732,3.907,6.535,6.535,0,0,0,1.742,2.568,6.7,6.7,0,0,0,2.746,1.5l3.447-5.5c3.308,1.953,6.616-.7,10.965.181-1.041-1.34-1.434-2.453-2.128-2.658Zm49.829,34.532a7.009,7.009,0,0,0,1.9.659l.462-.568a16.3,16.3,0,0,0-2.313-2.544,118.1,118.1,0,0,1-14.875-13.2c-1.365-1.409-3.262-2.273-4.627-3.544a40.072,40.072,0,0,1-9.854-11.221c-.509-.931-.972-1.84-2.314-.749.694,1.09,1.92,2.271,1.944,3.316a6.055,6.055,0,0,0,.846,2.715,6.214,6.214,0,0,0,2,2.055,17.318,17.318,0,0,1,2.2,2.407,23.792,23.792,0,0,0,2.868,3.658c3.285,2.725,6.755,5.268,10.155,7.881C780.672,2438.468,784.512,2441.534,788.422,2444.532ZM802.3,2455c0-3.588-1.365-5.155-6.8-7.245.718,2.93.718,2.93,6.825,7.245Zm21.791,52.36c-.3-1.477-.555-2.726-.833-4.134L819,2502.135c-.232,2.136-.44,3.952-.671,6.27Zm19.871-13.629a4.759,4.759,0,0,0-2.174,1.726,13.853,13.853,0,0,1-6.94,5.339c-2.013.953-4.072,1.839-6.038,2.907a39.785,39.785,0,0,0-3.47,2.453l.393.7c2.661-.863,5.3-1.771,7.981-2.589a24.608,24.608,0,0,0,7.588-4.543,7.091,7.091,0,0,0,2.076-2.644,6.958,6.958,0,0,0,.607-3.284Zm2.522-8.812a37.158,37.158,0,0,0-5.552-1.363,92.527,92.527,0,0,0-11.752-.636,14.1,14.1,0,0,0-7.148,1.612,71.808,71.808,0,0,1-8.513,4.543c-3.146,1.59-6.315,3.112-10.364,5.088,1.9.613,2.892,1,3.91,1.227s2.707.454,4.025.726a104.2,104.2,0,0,0,13.024,2.7c6.94.59,12.978-1.385,16.748-7.791a12.21,12.21,0,0,1,5.645-6.041Zm-28.361-19.444a23.253,23.253,0,0,0-3.031-4.044c-1.92-2.271-4-4.293-5.714-6.655-.671-.908-.509-2.43-.74-3.657l.9-.387c1.643,1.818,2.684,4.135,4.3,5.974s3.609,3.566,5.691,5.588c1.85-9.721-4.026-18.034-13.371-21.806a2.317,2.317,0,0,0-.532.5,5.119,5.119,0,0,0-.555,1.341,24.733,24.733,0,0,0,2.313,16.695C809.5,2463.316,813.5,2464.747,818.125,2465.475Zm7.4,1.816-.347.546,1.735,1.226.44-.75Zm38.586,54.514a3.429,3.429,0,0,0,1.186-1.557,3.364,3.364,0,0,0,.132-1.94,36.759,36.759,0,0,1,.255-5.725c0-1.021.208-2.043.3-3.065l-.694-.3a29.364,29.364,0,0,1-9.763,13.152c-1.249-1.318-.809-2.022,0-2.817a60.939,60.939,0,0,0,5.761-6.2c2.591-3.589,4.834-7.4,7.24-11.129-3.817.477-7.449.59-9.716,4-.763,1.158-2.313,1.75-3.423,2.772-1.828,1.771-3.54,3.679-5.3,5.519.232,3.907-2.313,7.541-1.272,11.515a16.839,16.839,0,0,0,1.087,2.612,48.67,48.67,0,0,1,7.542-3.43,18.455,18.455,0,0,0,6.592-3.293Zm37.29,14.81a10.392,10.392,0,0,1,6.13,1.136c3.632,1.476,7.4,3.361,10.8-.545a.984.984,0,0,1,.347-.159c4.835-2.272,6.038-6.587,6.94-11.357a23.3,23.3,0,0,1-3.724.7,13.119,13.119,0,0,0-5.019,1.2,12.912,12.912,0,0,0-4.142,3.029c-2.66,2.817-5.9,2.7-9.068,3.429-.347,0-.809-.408-1.226-.636,1.018-1.885,1.041-2,2.568-1.885a8.686,8.686,0,0,0,5.829-1.93c3.193-2.272,6.64-4.112,9.832-6.065a11.269,11.269,0,0,0-12.862.636,48.071,48.071,0,0,1-8.166,3.384c-2.707,1.114-5.413,2.271-8.582,3.612C893.954,2535.162,896.777,2537.547,901.4,2536.615ZM938.972,2526a4.933,4.933,0,0,0-2.614.765,4.8,4.8,0,0,0-1.781,2.029,29.888,29.888,0,0,1-7.288,7.9l-1.157-2.271c-.786,1.2-2.151,2.271-2.105,3.452.208,3.93-2.313,7.019-3.053,10.585a12.078,12.078,0,0,1-1.435,2.657c-.6-.476-1.318-.863-1.272-1.045.833-3.179,1.758-6.337,2.66-9.426-3.47.818-4.626,1.818-4.973,4.838-.255,1.795-.278,3.635-.694,5.406a6.693,6.693,0,0,0,.168,3.731,6.82,6.82,0,0,0,2.145,3.084c8.582-5.407,10.433-8.677,11.705-16.286a23.2,23.2,0,0,1,6.247-11.811c1.111-1.3,2.314-2.431,3.493-3.612Zm16.844-4.511c-1.653-.6-2.739-1.114-3.921-1.438-3.354-.927-6.731-1.809-10.109-2.713-2.362-1.414-5.6-1.067-6.756-4.453-.33-.928-2.361-1.461-3.59-1.855-4.109-1.277-8.314-2.32-12.353-3.665-2.079-.742-3.921-1.531-5.952,0a10.709,10.709,0,0,0-3.52-2.574,10.881,10.881,0,0,0-4.275-.975,14.429,14.429,0,0,1-4.724-.811c-3.472-1.508-6.709-3.595-10.251-4.941a41.574,41.574,0,0,1-13.724-9.485c-1.275-1.183-3.425-2.088-3.8-3.478-.945-3.572-5.15-4.222-6.213-7.47-2.669,0-1.795-2.087-1.984-2.806-2.834-2.318-5.314-4.359-7.582-6.539s-5.007-5.242-7.558-7.816c-.85-.858-2.6-1.508-1.181-2.877s2.362,0,3.189.975l.519.556c3.094,3.317,6.141,6.633,9.283,9.88a17.655,17.655,0,0,0,2.645,1.856c-.661-3.27-1.346-6.007-1.771-8.767a7.538,7.538,0,0,0-1.248-3.3,7.713,7.713,0,0,0-2.626-2.4,100.088,100.088,0,0,0-9.259-5.194c-3.662-1.717-7.488-3.062-10.252-6.193h.044a43.758,43.758,0,0,0,3.1,12.462,21.667,21.667,0,0,0,5.078,8.366,22.179,22.179,0,0,0,8.288,5.351,15.267,15.267,0,0,1,4.4,2.79c5.355,4.939,10.641,9.992,15.88,15.067.42.412.466,1.212.7,1.852-.745,0-1.7.618-2.329.32-5.4-2.881-12.016-2.766-17.021-6.608a2.372,2.372,0,0,0-1.048-.365,30.934,30.934,0,0,1-10.619-4.39c-4.424-2.493-8.592-5.442-12.876-8.186a16.412,16.412,0,0,0-1.934-1.119,1.671,1.671,0,0,0-1.968.337,1.6,1.6,0,0,0-.36.6,40.011,40.011,0,0,0,4.1,3.291,57.7,57.7,0,0,0,9.314,5.145,72.931,72.931,0,0,1,9.78,4.573c4.1,2.286,8.359,4.39,12.644,6.425,3.795,1.783,7.754,3.292,11.642,5.077,2.05.959,2.539,2.286,1.188,4.183a21.579,21.579,0,0,1-4.332,3.658c-.651.5-1.629.824-1.909,1.441a40.294,40.294,0,0,0-2.328,6.517c-.419,1.507-1,3.931-.256,4.572,1.816,1.6,1.467,3.109,1.14,4.939a2.259,2.259,0,0,0,.583,1.692,12.992,12.992,0,0,1,2.584,6.4,13.716,13.716,0,0,0,1.4,2.859c1.98-2.79,3.727-5.122,5.333-7.546a3.667,3.667,0,0,0,.373-2.08,77.048,77.048,0,0,0-.443-7.705,19.167,19.167,0,0,0-1.56-7.569,5.8,5.8,0,0,0-1.539,2.391,5.709,5.709,0,0,0-.208,2.823c0,2.286.163,4.573.187,7,0,1.1-.187,2.286-1.886,2.56-.257-.572-.769-1.189-.769-1.784,0-3.933,0-7.866.234-11.775a6.32,6.32,0,0,1,1.42-2.949c.838-1.189,1.956-2.287,2.887-3.384a4.648,4.648,0,0,1,1.889-1.449,4.729,4.729,0,0,1,2.373-.334,26.551,26.551,0,0,1,8.289,1.646c3.353,1.189,7.242,1.051,10.479,2.446a84.06,84.06,0,0,0,17.371,4.39c4.238.823,8.289,1.372,11.991,4.206,2.725,2.1,6.614,2.768,10.014,3.978.256,0,.768-.57,1.187-.868,1.98,1.578.932,3.155,0,4.756h-6.4a2.855,2.855,0,0,0-1.689.624c-1.712,2.272-4.812,3.612-4.418,7.132a8.308,8.308,0,0,1-.44,2.408,9.71,9.71,0,0,0,3.817-3.475,11.509,11.509,0,0,1,5.946-5.2,7.812,7.812,0,0,1,2.66-.487h1.1c.543.463,1.275.834,1.534,1.438s-.259,1.229-.637,2.689l6.141-3.827a6.591,6.591,0,0,0,6.9-.811ZM957.5,2555.6l-5.552-.908a52.462,52.462,0,0,1-3.748,7.133,7.59,7.59,0,0,0-1.18,6.223c.463,2.885,1,5.747,1.643,8.609a11.455,11.455,0,0,0,1.68,4.421,11.659,11.659,0,0,0,3.34,3.392,29.17,29.17,0,0,1,3.655,3.089,2.626,2.626,0,0,0,1.017.782,2.677,2.677,0,0,0,2.5-.194,2.6,2.6,0,0,0,.88-.928,9.813,9.813,0,0,0,2.313-6.814,75.5,75.5,0,0,0-.532-7.995,13.955,13.955,0,0,0-2.521-6.361,13.269,13.269,0,0,1-2.9-4.853A13.119,13.119,0,0,1,957.5,2555.6Zm29.193-23.941a31.254,31.254,0,0,0,9.392,1.931,102.9,102.9,0,0,1,16.911,2.272,15.021,15.021,0,0,0,9.577,0l-1.712-2.067c-2.5-2.976-2.545-2.953-6.292-1.908a13.225,13.225,0,0,1-3.147.136c-4.163,0-8.281-1.772-12.191-.364a20.65,20.65,0,0,0-4.094-1.93c-6.269-1.34-12.608-2.408-18.9-3.77-5.413-1.182-10.757-2.612-16.586-4.044.786,3.862,5.251,5.406,18.252,6.814,0,.455,0,1.159-.162,1.3-2.475,1.316-5.02,2.52-7.495,3.838-1.411.749-1.966-.59-2.915-.954a1.592,1.592,0,0,0-.74,0c-2.776.431-5.575.795-8.351,1.272a23.439,23.439,0,0,0-9.808,4.957,22.878,22.878,0,0,0-6.385,8.831c3.238.908,6.523,1.885,9.831,2.748a23.555,23.555,0,0,0,4.627.908,39.826,39.826,0,0,0,4.279-.454c2.152-.16,4.4-.3,5.6-2.272,1.989-3.293,3.724-6.7,5.829-10.539-2.313.25-4.626-.136-5.182.705-1.989,2.589-5.135,3.361-7.4,5.405a11.333,11.333,0,0,1-3.979,1.931c-.44.159-1.157-.364-2.175-.727.926-.659,1.388-1.022,1.9-1.317a60.309,60.309,0,0,0,8.768-5.52c3.377-2.975,7.472-3.271,11.427-4.293a40.913,40.913,0,0,0,5.83-2,6.387,6.387,0,0,1,5.3-.886Zm34.283,9.337h-.347l-11.265-1.157a10.424,10.424,0,0,0,11.265,1.157h.347c3.031,1.591,6.246.16,9.254.478A18.13,18.13,0,0,0,1020.978,2541Zm-22.439-2.341c2.2,1.567,4.164,3.135,6.293,4.385.532.318,1.688-.386,2.776-.7-3.216-3.453-4.673-4.043-9.045-3.7ZM1014,2561.374a5.908,5.908,0,0,0,3.285-2.021c3.7-3.817,6.246-8.655,11.4-11.79a10.116,10.116,0,0,0-6.616.728c-3.933,1.953-7.7,4.269-11.567,6.313a5.967,5.967,0,0,1-2.333,1.006,6.035,6.035,0,0,1-2.548-.051,14.741,14.741,0,0,1,2.638-2.271c6.083-3,12.237-5.907,18.737-9.086a29.67,29.67,0,0,0-4.117-.228c-4.627.386-9.254,1.2-14.065,1.227a10.138,10.138,0,0,0-6.94,2.907,8.534,8.534,0,0,0-1.619,1.522c-1.99,2.7-5.09,4.543-6.5,7.747a22.417,22.417,0,0,0,10.988,3.657,52.022,52.022,0,0,0,9.253.318Zm100,46.746a7.158,7.158,0,0,0,3.035-2.419,6.961,6.961,0,0,0,1.291-3.624,7.081,7.081,0,0,0-3.038,2.4A6.887,6.887,0,0,0,1114,2608.1Zm-52-18.172c-5.968-3.179-11.358-7.4-17.026-11.152-.879-.59-1.85-1-2.776-1.5-.948,1.385-.139,2.021.6,2.68a110.733,110.733,0,0,0,20.681,15.537,68.958,68.958,0,0,0,10.039,5.519c5.853,1.931,11.983,3.044,17.975,4.543,3.724.908,7.448,1.794,11.15,2.748,2.313.613,4.626,1.294,7.148,1.953l3.863-9.085c-.254,0-.44-.318-.671-.341l-27.343-2.771a19.864,19.864,0,0,1-5.136-.636,158.589,158.589,0,0,1-18.506-7.518Zm-17.4-33.481c.231-1.386.486-2.771.717-4.156l-.879-.431-2.683,1.975,2.059,2.772Zm33.4,11.971a2.954,2.954,0,0,0-.972.65,2.892,2.892,0,0,0-.635.973,2.833,2.833,0,0,0,.081,2.261c1.318-1.453,2.382-2.226,1.526-3.907Zm-29.146-12.834c-.81,2.613.856,3.522,2.313,4.408,5.6,3.588,11.243,7.155,16.933,10.584,3.354,2.022,5.228.977,5.969-3.248C1065.139,2564.69,1056.4,2561.874,1048.854,2555.6Zm-6.854-7.972c-2.66.522-2.5,2.5-2.66,4.542,3.262-.749,3.262-.749,2.66-4.633Zm0-2.885a5.843,5.843,0,0,0-6.2.613c-3.1,2.817-7.75,4.043-9.253,8.518-.255.7-1.3,1.113-1.8,1.772a44.307,44.307,0,0,0-5.3,7.428,21.968,21.968,0,0,0-.926,6.814c2.846,3.634,3.517,8.223,5.483,12.22a20.736,20.736,0,0,0,1.851,3.18c1.873,2.7,3.817,5.384,5.76,8.041.37.5.856.885,1.758,1.84.763-12.9,1.5-24.985,2.313-37.3l-1-.364a36.676,36.676,0,0,1-3.585,5.406,7.1,7.1,0,0,0-1.938,3.474,7.014,7.014,0,0,0,.249,3.954,30.89,30.89,0,0,1,1.2,4.951,30.23,30.23,0,0,1,.185,5.792c0,.432-.971.818-1.642,1.363-.44-3.2-.764-5.86-1.18-8.495a55.112,55.112,0,0,1-1.087-6.087,7.834,7.834,0,0,1,1.087-4.112c2.822-4.792,5.945-9.449,8.79-14.219,1.134-2.318,1.967-4.77,5.228-4.884Zm5.142-.5c-1.758-.8-2.475-.454-2.522,1.5Zm15.221-31.413c.764,1.908,1.62,3.77,2.452,5.723,1.758-1.408.648-4.542,3.91-5.519-.417,2.862,0,5.678-1.249,7.632-1.782,2.953-1.643,6.292-3.1,9.2a3.306,3.306,0,0,0-.194,2.59,3.352,3.352,0,0,0,.672,1.148,3.419,3.419,0,0,0,1.072.8c1.226-3.157,2.313-6.269,3.608-9.086a19.63,19.63,0,0,0,.232-15.218,32.121,32.121,0,0,0-2.128-4.315,27.3,27.3,0,0,0-3.378,1.475c-2.938,1.795-3.123,2.34-1.8,5.588Zm-9.322,20.556c-.185.522-.394,1.045-.694,1.817l3.932,1.272c.139-4.928-3.308-8.041-4.9-11.9s-4.141-7.4-5-11.811a3.8,3.8,0,0,1,2.319.6,3.7,3.7,0,0,1,1.475,1.856c2.776,5.656,5.321,11.357,8,17.149a7.614,7.614,0,0,0,1.388,1.568,17.653,17.653,0,0,0-.3-16.423,5.923,5.923,0,0,1-.694-1.68,7.8,7.8,0,0,0-1.213-2.849,7.967,7.967,0,0,0-2.233-2.172L1043.695,2502h-.879c-.625,4.042-1.134,8.131-1.92,12.174a10.711,10.711,0,0,0,1.365,7.382,77.173,77.173,0,0,0,5.228,8.382,6.472,6.472,0,0,0,2.144,2.012,6.6,6.6,0,0,0,2.829.872A1.952,1.952,0,0,1,1053.041,2533.39Zm-28.041-1.2c.161,1.7.254,2.824.345,4.068a72,72,0,0,1,17.287,3.322c5.778,1.56,11.832,2.26,17.724,3.3,3.245.633,6.445,1.492,9.644,2.26.6.181,1.565.972,1.5,1.311-.346,2.011,1.288,2.26,2.416,2.6,1.7.7,3.545,1.085,5.248,1.741,5.732,2.259,11.51,4.52,17.148,6.78a79.523,79.523,0,0,1,15.261,7.39,20.894,20.894,0,0,0,3.43,1.514v-1.061c-2.715-2.78-5.432-5.538-8.217-8.341.276-.451.668-1.061,1.082-1.6l8.516,7.029c.345-1.084.668-2.035.944-2.893a2.337,2.337,0,0,1,1.9.146,2.3,2.3,0,0,1,.734.631,2.225,2.225,0,0,1,.4.873,21.574,21.574,0,0,0,2.187,4.2,9.417,9.417,0,0,0,5.363,4.52,12.83,12.83,0,0,0-1.772-3.8,29.146,29.146,0,0,1-2.716-3.91,7.578,7.578,0,0,0-2.516-3.1,7.773,7.773,0,0,0-3.768-1.42c-3.13-.588-6.192-1.582-9.208-2.419-2.876-1.107-5.708-2.26-8.631-3.254-2.44-.814-5.017-1.221-7.481-2.035-5.363-1.785-10.726-3.683-16.113-5.559l-9.736-3.391c-2.669-.9-5.317-1.831-8.01-2.711-.69-.226-1.588-.159-2.117-.566-2.74-2.078-5.893-2.056-9.208-2.259a11.349,11.349,0,0,1-7.918-2.464,1.811,1.811,0,0,0-1.013-.407c-4.1-.068-8.217-.293-12.706-.565Zm-79.99-89.634a7.788,7.788,0,0,0,.578,2.453c2.128,2.816,4.28,5.633,6.57,8.336,2.614,3.067,5.459,5.951,8.05,9.086a63.739,63.739,0,0,1,6.57,8.79,32.154,32.154,0,0,0,7.148,8.769,77.847,77.847,0,0,1,7.287,7.268c3.285,3.635,6.361,7.428,9.693,11.357-.556,1.408-1.3,1.908-2.591,1a9.068,9.068,0,0,0-2.8-1.7,12.048,12.048,0,0,1-5.3-3.725,13.607,13.607,0,0,0-3.493-2.5c-3.909-1.612-7.981,0-11.913-.659,4.164,5.157,8.1,10.131,12.144,15.014a8.759,8.759,0,0,0,3.493,2.567c4,1.317,8.074,2.43,12.377.773a28.559,28.559,0,0,1,5.112-1c1.041,1.431,2.313,2.862,3.215,4.384,3.1,4.679,6.246,9.357,9.254,14.1a3.381,3.381,0,0,0,1.578,1.713,3.49,3.49,0,0,0,2.331.309c1.041-.227,2.128-.341,3.239-.523-.162-2.271.277-4.543-1.5-6.359-.995,2.044,0,4.77-3.169,5.2a17.879,17.879,0,0,0-1.319-2.976c-1.48-2.272-3.1-4.384-4.626-6.542a63.748,63.748,0,0,0-7.241-9.244,37.108,37.108,0,0,1-6.2-7.654c-2.521-3.884-5-7.814-7.7-11.584s-5.367-7.019-8.212-10.4a3.622,3.622,0,0,1-.968-1.9,3.582,3.582,0,0,1,.274-2.1,16.588,16.588,0,0,0,.6-10.744,9.53,9.53,0,0,1,1.342-8.4c1.712-2.545,3.308-5.156,4.881-7.791a8.943,8.943,0,0,0,.6-8.427c-.833-2.021-1.5-4.134-2.314-6.815-1.619.3-4.071,0-4.95,1.023-3.077,3.521-6.94,6.383-8.235,11.357-1.134,4.543.439,7.973,1.665,12.062,2.1-1.954,2.036-1.954,2.036-3.794a7.911,7.911,0,0,1,.532-2.272c.486-1.385,1.064-2.725,1.619-4.066,1.249-2.907,2.475-5.814,3.794-8.7a2.532,2.532,0,0,1,1.365-1.09,1.152,1.152,0,0,1,.644-.069,1.141,1.141,0,0,1,.577.29,1.1,1.1,0,0,1,.283,1.187,28.778,28.778,0,0,1-2.707,6.269,19.1,19.1,0,0,0-3.609,11.971c.232,5.973.787,11.947,1.2,17.852a18.949,18.949,0,0,0-2.776,0c-1.642.273-2.961-.363-3.1-1.861a12.472,12.472,0,0,0-4.164-7.043c-3.817-4.315-7.356-8.858-11.08-13.264-2.614-3.066-5.3-6.088-8-9.085A8.871,8.871,0,0,0,945.01,2442.556Zm-6.223-7.495c.254.249.74.272,1.735.635-1.157-2.657-1.573-4.793.393-6.541a70.371,70.371,0,0,1,6.13-5.293c3.586-2.544,4.789-4.906,3.563-9.085s-2.568-7.519-3.886-11.357l-1.018-.25c-.648,1.385-1.3,2.748-1.92,4.134-1.111,2.43-2.1,4.906-3.308,7.269s-2.823,4.86-4.049,7.381a13.438,13.438,0,0,0,2.36,13.107Zm-29.657-23.933a9.039,9.039,0,0,0-2.869-.568c-5.3-.75-10.525-1.34-15.638,1.067a15.366,15.366,0,0,1-4.048.432c-1.272.158-2.568.431-3.956.682.579,2.748,2.707,2.271,4.21,2.838,5.3,1.659,10.757,2.93,14.8,7.11a6.97,6.97,0,0,0,2.314,1.386,24.333,24.333,0,0,0,13.024,2.271,3.788,3.788,0,0,0,2.116-.826,3.684,3.684,0,0,0,1.238-1.877c1.8,1.113,3.817,1.749,4.788,3.089,2.314,3.384,6.154,5.316,8.931,8.268h.809c-1.156-2.521-1.736-5.156-4.049-6.814-2.822-2.112-5.575-4.338-8.328-6.5l-2.313.908a6.719,6.719,0,0,0-.671-2.271A29.509,29.509,0,0,0,909.13,2411.128Zm-17.4-13.728a43.794,43.794,0,0,1-4.905-5.474c-2.313-3.816-4.973-7.564-4.973-12.425a20.045,20.045,0,0,0-1.62-5.565c-.624-2.089-1.411-4.134-1.9-6.246-.255-1.159.347-2.135,2.174-2.067,1.735,6.2,3.47,12.447,5.274,18.921,2.869-3,3.239-3.634,3.17-5.52a18.587,18.587,0,0,0-5.367-11.743c-2.753-3.044-5.436-6.019-5.853-10.312,0-.5-.6-.954-1.018-1.545a7.158,7.158,0,0,0-1.821,2.616,7.044,7.044,0,0,0-.492,3.131,23.25,23.25,0,0,1-.463,5.088,12.96,12.96,0,0,0,.717,9.267c.833,1.749,1.944,3.362,2.961,5.043.556.931,1.342,1.862-.347,3.089l-6.939-5.111a13.661,13.661,0,0,0-3.864-2.385,10.1,10.1,0,0,1-6.107-4.338l-.694.795a22.924,22.924,0,0,0,3.725,3.839,28.3,28.3,0,0,1,8.351,9.085c4.788,1.363,10.086,1.727,11.936,7.451.162.5.833.84,1.3,1.249q5.621,5.066,11.265,10.131c.833.726,1.6,1.84,3.17,1.181a36.333,36.333,0,0,1-2.869-2.589C894.88,2401.148,893.353,2399.217,891.734,2397.4Zm24.937-.477a9.54,9.54,0,0,0-2.357-3.236,9.752,9.752,0,0,0-3.5-2.011c-2.706-.659-5.3-1.681-7.934-2.544-1.435,9.359,4.858,19.989,14.712,24.3-3.007-5.724-4.233-12.2-10.086-15.9,1.9-2.271,2.314-2.271,3.887-1.022a6.855,6.855,0,0,1,1.665,1.954c2.152,4.225,4.257,8.518,6.362,12.788l2.8,5.406,1.272-.386c-.347-1.613-.624-3.225-1.064-4.839a25.271,25.271,0,0,1-1.249-3.815A26.116,26.116,0,0,0,916.671,2396.923Zm-.287-15.668a9.539,9.539,0,0,0,1.365,10.948,27.181,27.181,0,0,1,5.251,6.678l0,.15c-.724,1.618.179,2.71,1.2,4.007,1.457-2.271-.37-2.908-1.2-4v-.25c.856-2.09-.787-3.544-1.481-5.247s-1.6-2.953-.416-4.543h.625l3.493,5a14.165,14.165,0,0,0-2.56-7.638,14.556,14.556,0,0,0-6.346-5.082ZM1020.77,2487.78c.625-1.885,1.018-3.861,1.527-5.792l-.972-.386a8.218,8.218,0,0,0-1.087,1.749c-.578,1.658-1.041,3.384-1.527,5.088a1.22,1.22,0,0,0,1.9-.727Zm-114.347,3.7c.532-3.612.972-7.223,1.2-10.834,0-1.3.139-2.955-1.943-3.363a20.414,20.414,0,0,1-.555,5.838,17.144,17.144,0,0,0-.648,9.267C905.174,2492.119,906.377,2491.869,906.423,2491.483Zm45.874,70.936a13.4,13.4,0,0,1,.185,2.522,16.285,16.285,0,0,0,2.313,10.152c1.342,2.477,2.5,5.043,3.84,7.519a5.987,5.987,0,0,0,1.411,1.317l.694-.249a7.782,7.782,0,0,0-.185-2.567c-.856-2.021-1.9-3.952-2.892-5.928a16.089,16.089,0,0,1-2.59-9.7,24.8,24.8,0,0,0,.162-5.065c0-.591-.6-1.136-.972-1.772C952.459,2560.352,952.3,2560.67,952.3,2562.419Zm36.735-60.692a5.137,5.137,0,0,0-5.2-.863,5.161,5.161,0,0,1-5.506-1c-1.295-1.022-2.66-1.953-4.326-3.18-.578,2.862,1.55,3.612,2.684,4.77a5.485,5.485,0,0,0,3.044,1.99,5.571,5.571,0,0,0,3.641-.332,3.53,3.53,0,0,1,2.169-.187,3.473,3.473,0,0,1,1.856,1.119c1.2,1.045,2.568,1.908,3.84,2.861a1.919,1.919,0,0,0,3.054-.818c.6-1.157-.139-1.93-1.411-2.271a16.882,16.882,0,0,1-3.771-2.181ZM723.88,2396.083c.416-.477.416-1.295.763-2.544L719,2398.081a5.53,5.53,0,0,0,2.7-.377A5.426,5.426,0,0,0,723.88,2396.083Zm-7.426-52.924c-2.059-.2-2.521,1-2.313,2.271a67.76,67.76,0,0,0,2.313,6.814c.139.318.787.432,1.874,1C717.727,2349.519,717.1,2346.339,716.454,2343.159Zm40.368,54.082c.231-5.02-.209-10.017-.324-15.514-2.453,2.68-2.892,10.949-1.2,17.58C756.058,2398.285,756.8,2397.763,756.822,2397.241Zm165.146,56.149a36.942,36.942,0,0,0-11.312-13.628c-.856-.635-1.827-.749-2.752.773,4.927,4.27,10.34,8.381,12.052,15.377l2.313-1.045A6.548,6.548,0,0,0,921.968,2453.39ZM941,2423.317a20.536,20.536,0,0,1,4.626-8.585,6.072,6.072,0,0,0,.9-3.34,19.358,19.358,0,0,0-.232-3.384c-2.614-.272-2.452,1.044-2.082,2.044a4.466,4.466,0,0,1,.178,2.87,4.536,4.536,0,0,1-1.612,2.4,4.152,4.152,0,0,0-1.087,1.454c-.995,2.453-2.984,4.656-2.152,8.267.833-.818,1.342-1.181,1.458-1.658Zm8,73.276c1.944,3.181,5.784,4.543,8.189,2.885-2.776-2.68-5.2-3.543-8.189-2.817ZM825.064,2439.6c.3-1.7,1.3-3.407,0-5.611a4.737,4.737,0,0,0-2,2.286,4.619,4.619,0,0,0-.176,3.007,1.553,1.553,0,0,0,.416.561,1.6,1.6,0,0,0,.625.325C824.278,2440.216,825.064,2439.762,825.064,2439.6Zm110.322,54.287c-.486,0-1.018.977-1.527,1.477,0,.249.231.477.325.7,4.325-.341,8.582,1.294,12.977,0C943.622,2493.323,939.365,2494.276,935.386,2493.89Z" transform="translate(-680.15 -2297.863)" fill="#101a24" opacity="0.1" style="isolation: isolate"/>
</svg>
