<svg xmlns="http://www.w3.org/2000/svg" width="448.918" height="281.558" viewBox="0 0 448.918 281.558">
  <path id="hierba3" d="M137.383,3636.461c-3.031,2.042-6.64,1.389-9.439,3.187C128.083,3636.461,130.79,3635.583,137.383,3636.461Zm136.485,37.53s.069.082.069.042Zm-120.94-63.808c1.735.449,3.077,1.225,4.118,1,5.089-1.144,9.253.591,13.3,2.878a5.529,5.529,0,0,0,2.4.949,5.819,5.819,0,0,0,2.619-.214A20.305,20.305,0,0,0,152.928,3610.183Zm-65.721,64.626c-2.082.592-2.082.592-2.5,2.49l11.566-2.2C94.471,3673.563,91.6,3673.563,87.207,3674.809Zm-23.78-64.892c-2.522,1.654-4.789,3.063-6.94,4.635a3.7,3.7,0,0,0-1.72,1.761,3.144,3.144,0,0,0-.108,2.323C57.944,3615.7,62.686,3614.654,63.427,3609.917Zm103.451-38.384c2.553-.1,3.726,1.3,5.129,2.193s2.3,1.888,3.681,2.7a18.584,18.584,0,0,1,6.214,5.762,15.981,15.981,0,0,1,2.665,7.6,17.929,17.929,0,0,1-1.978,9.888,12.807,12.807,0,0,0-.851,7,35.839,35.839,0,0,0,1.38,7.391c.736,3,.828,3,4.9,3.411.69-4.325,3.657-7.735,6.1-11.391.621-.914,1.634-2.03,1.4-2.924-.6-2.375,1.082-3.634,2.485-5.116.874-.914,1.633-1.929,2.553-2.823a20.143,20.143,0,0,1,2.3-1.645,51.351,51.351,0,0,1,6.647,14.579,8.445,8.445,0,0,1,.08,5.035,9.327,9.327,0,0,1-2.84,4.367,26.245,26.245,0,0,0-2.3,2.153,29.749,29.749,0,0,0-2.9,3.411,5.3,5.3,0,0,0-1.305,4.03,5.561,5.561,0,0,0,2.133,3.746c3.4,3.431,6.9,6.741,10.375,10.152,2.645,2.7,5.13,5.544,7.683,8.306.944,1.014,1.887,2.029,3.014,3.166l1.887-1.279a24.715,24.715,0,0,1-4.6-10.883,4.6,4.6,0,0,1-.276-1.6c.874-3.675,1.082-7.574,4.463-10.437,1.242-1.056,2.3-2.4,3.428-3.452a47.712,47.712,0,0,1,13.02-7.451c1.012,2.619,2.646,4.63.713,7.309-.644.894,0,2.721.483,4.061a14.287,14.287,0,0,1,.927,6.926,14.807,14.807,0,0,1-2.491,6.618c-.253.365-.437.893-.806,1.1-4.462,2.315-3.358,6.254-3.726,9.787a80.421,80.421,0,0,1-1.242,9.1,4.519,4.519,0,0,0,.059,2.535,4.992,4.992,0,0,0,1.436,2.194,79.51,79.51,0,0,1,9.018,9.931,75.513,75.513,0,0,0,4.6,6.639c3.129,3.635,6.327,7.228,9.432,10.9,1.426,1.685,2.668,3.492,4.325,5.664a7.213,7.213,0,0,0,.172-4.253,7.875,7.875,0,0,0-2.289-3.746c-6.026-6.092-10.237-12.853-10.075-21.158a28.33,28.33,0,0,1,4.992-16.244,5.308,5.308,0,0,1,1.15-.731c2.9,1.422,2.714,4.711,4.968,6.559s4.188,3.919,6.534,6.091c.551-.771,1.127-1.543,1.656-2.335a31.215,31.215,0,0,1,1.84-2.823c1.956-2.253,3.128-3.512,6.9-1.279a87.3,87.3,0,0,1-.483,12.183c-.552,5.2-3.106,9.178-5.705,13.544a7.965,7.965,0,0,0-1.413,4.92,8.135,8.135,0,0,0,1.919,4.785,4.589,4.589,0,0,1,.622,1.868c.644,2.559,1.219,5.118,1.955,7.655.345,1.24.575,2.823,1.541,3.534a10.566,10.566,0,0,0,5.567,2.335,41.808,41.808,0,0,1,13.8,3.126,17.53,17.53,0,0,0,3.8.488l-6.372-9.848a14.939,14.939,0,0,1-2.216-6.179,14.443,14.443,0,0,1,.7-6.451,13.18,13.18,0,0,0,.392-8.122,27.528,27.528,0,0,0-2.025-3.918c1.5-.183,2.761-.691,3.451-.346,1.7.914,3.75,1.32,5.015,3.066a14.778,14.778,0,0,0,4.393,3.411c2.83,1.727,5.8,3.29,8.719,4.914,3.244-3.594,6.119-6.9,11.5-7.716.207,4.061,2.485,7.127,4.026,10.518a12.286,12.286,0,0,1,.344,8.122c-.529,2.234-1.587,4.345-2.3,6.538l-3.818,10.883a85.084,85.084,0,0,0,17.528,3.839,157.2,157.2,0,0,1,29.9,6.781c.944.3,1.91.487,2.853.731a6.272,6.272,0,0,1,2.293,1.012,5.408,5.408,0,0,1,1.6,1.77,31.15,31.15,0,0,0,2.806,3.37c.437.507,1.105,1.036,1.173,1.584.345,2.68,2.416,4.467,3.98,6.539.966,1.3,2.6,2.5,1.105,4.365a6.283,6.283,0,0,1-2.729,1.528,6.916,6.916,0,0,1-3.23.1,187.824,187.824,0,0,1-23.556-8.669c-1.886-.834-3.841-1.544-5.75-2.295-7.868-3.148-15.735-6.315-23.626-9.422-1.449-.569-3.128-.691-4.6-1.259-2.692-1.056-5.291-2.314-7.936-3.471a10.071,10.071,0,0,0-1.588-.732c-2-.548-4-1.076-6.027-1.5a8.34,8.34,0,0,0-2.116,0c-.506,1.869-1.059,3.534-1.4,5.219a3.173,3.173,0,0,0,.264,2.37,3.813,3.813,0,0,0,1.9,1.691,72.89,72.89,0,0,0,21.991,8.365c1.2.265,2.462.326,3.635.61q3.508.772,6.9,1.887a2.269,2.269,0,0,1,.714.859,1.993,1.993,0,0,1,.183,1.051,11.611,11.611,0,0,1-3.657,7.005,4.759,4.759,0,0,1-2.369,1.262,5.17,5.17,0,0,1-2.761-.166c-4.6-1.218-9.2-2.254-13.8-3.7a24.125,24.125,0,0,1-5.913-3.249c-2.461-1.666-4.738-3.513-7.108-5.258-1.494-1.1-3.013-2.153-4.922-.407l-4.325-5.827c-.368,3.41-.783,5.949-.874,8.487a2.5,2.5,0,0,0,.3,1.763,3,3,0,0,0,1.45,1.242,1.665,1.665,0,0,1,.571.4,1.432,1.432,0,0,1,.326.576c.46,2.781,2.99,3.878,5.245,5.2,3.289,2.03,6.533,3.94,9.892,5.787a74.012,74.012,0,0,0,32.367,9.462c5.267.284,10.558.426,15.826.792a54.647,54.647,0,0,1,17.759,4.385c2.761,1.178,2.714,2.031.459,4.061s-4.048,4.062-6.118,6.091a7.489,7.489,0,0,1-3.758,2.264,8.334,8.334,0,0,1-4.547-.111q-5.658-1.584-11.387-2.9c-3.243-.67-6.6-.933-9.868-1.441a58.549,58.549,0,0,1-19.07-6.091c-4.947-2.721-10.053-5.2-14.791-8.122s-8.88-6.234-13.458-9.462c-1.679,1.1-1.427,2.964-1.909,4.608-.851,2.945-1.725,5.888-2.761,8.792-.437,1.239-1.127,2.6-2.991,2.478s-1.909-1.422-2.53-2.519c-1.219-2.029-2.691-4.061-4.072-6.091a82.754,82.754,0,0,1-5.221-7.8c-1.656-3.146-1.955-3.451-5.981-2.029.368-4.063.736-7.8,1.1-11.615-3.382-.285-6.511-.406-9.569-.874a75.535,75.535,0,0,1-9.2-2.03c-2.99-.853-5.865-2.03-9.362-3.27l13.48-11.918c-2.622-2.7-4.922-5.116-7.269-7.451a2.328,2.328,0,0,0-.734-.457,2.571,2.571,0,0,0-.876-.174,99.114,99.114,0,0,0-11.8.468c-2.83.3-4.325,2.355-5.291,4.61-.621,1.421-1.174,2.862-1.748,4.3a10.489,10.489,0,0,1-3.8,5.324,12.813,12.813,0,0,1-6.554,2.473,12.629,12.629,0,0,0,2.3,8.121c2.783,4.062,3.151,8.468,3.818,12.873a7.04,7.04,0,0,1-.659,3.859,8.066,8.066,0,0,1-2.677,3.106,6.019,6.019,0,0,0-2.164,2.116,5.178,5.178,0,0,0-.734,2.778l-4.187.427c-3.427-3.209-6.464-6.092-9.638-9a9.587,9.587,0,0,1-3.175-5.442c-.6-3.126-1.012-6.273-1.542-9.4a5.984,5.984,0,0,1,1.358-4.63c1.518-2.03,2.76-4.324,4.256-6.68a11.71,11.71,0,0,0-7.707-2.03c-3.381.426-3.887,0-5.038-2.213-.712-1.34-.252-2.335,1.151-2.5,2.484-.284,3.4-1.909,4.6-3.392,3.451-4.06,7.247-7.776,13.067-9.218a37.421,37.421,0,0,1,3.957-.63c1.149-.142,2.3-.223,4.186-.405a31.745,31.745,0,0,0-8.9-3.8c-6.05-2.03-10.283.793-14.769,3.533s-6.1,7.047-6.4,11.879c0,1.625-1.84,3.208-2.875,4.771s-2.117,2.661-2.876,4.061a10.861,10.861,0,0,1-4.854,5.2c-1.725.833-3.151,2.031-4.876,2.925-2.461,1.2-4.3.528-4.463-1.889s-2.3-4.528-1.7-7.269a47.243,47.243,0,0,0,.691-7.594c-3.083-1.015-6.119-2.152-9.2-2.965a8.454,8.454,0,0,0-4.325,0,6.074,6.074,0,0,1-3.465,0,5.357,5.357,0,0,1-2.746-1.866c-1.679-1.748-3.221-3.594-4.715-5.463s-1.2-2.9,1.242-3.777c2.967-1.076,6.05-1.887,9.017-2.943a63.271,63.271,0,0,0,9.2-3.553,22.942,22.942,0,0,1,8.327-2.438,7.313,7.313,0,0,1,4.6.935c2.507,1.38,5.245,2.5,8.075,0a7.772,7.772,0,0,1,3.473-.894,10.19,10.19,0,0,0,3.474-.752c-1.841-.588-3.705-1.095-5.521-1.745s-4-1.625-6.028-2.356a22.291,22.291,0,0,0-5.106-1.563,94.84,94.84,0,0,1-18.656-4.06,26.435,26.435,0,0,0-3.658-.529c-1.933-.345-3.888-.589-5.82-.954s-4.463-.975-6.694-1.483a8.343,8.343,0,0,0-1.36,3.5,8.023,8.023,0,0,0,.347,3.687c.3,2.032.76,3.859,1.105,5.808a6.453,6.453,0,0,1-.054,3.392,7.032,7.032,0,0,1-1.787,3,18.48,18.48,0,0,0-1.816,2.8,54.515,54.515,0,0,1-4.279,5.706c-1.864,2.031-4.026,1.645-5.131-.791a65.621,65.621,0,0,1-2.3-7.127c-.161-.508-.345-1-.483-1.4-4.025,1.279-7.89,2.335-11.5,3.736a50.6,50.6,0,0,0-6.143,3.351c-4.348-2.031-5.083-5.158-4.209-8.913a31.033,31.033,0,0,0,.989-5.158c.184-4.061,3.106-6.539,6.487-8.629a21.785,21.785,0,0,0,5.613-4.2,5.055,5.055,0,0,1,3.082-1.6c2.531-.2,4.878-1.544,7.614-.711a1.956,1.956,0,0,0,2.646-2.03c-1.863-.853-3.842-1.909-5.935-2.7A98.1,98.1,0,0,0,112.175,3676c-2.761-.711-5.775-2.436-8.811.163.207,1.117.322,2.314.643,3.452a7.331,7.331,0,0,1,.4,3.393,7.6,7.6,0,0,1-1.193,3.245,8.718,8.718,0,0,1-2.58,2.54,9.981,9.981,0,0,1-3.523,1.4l-21.923,5.441a11.383,11.383,0,0,1-1.426.183c-2.14-3.594-2.14-3.594-1.818-10.335l-9.8-2.335c-1.426-.345-2.9-.609-4.325-.974a1.977,1.977,0,0,1-.877-.29,1.688,1.688,0,0,1-.6-.637,1.442,1.442,0,0,1-.158-.815,1.488,1.488,0,0,1,.322-.776,9.769,9.769,0,0,1,3.083-3.087c2.048-1.157,4.416-1.888,6.6-2.883,3.335-1.543,6.9-2.5,10.191-4.366a15.757,15.757,0,0,1,6.544-2.522,16.586,16.586,0,0,1,7.12.492,8.636,8.636,0,0,0,1.794.224,3.278,3.278,0,0,1,.138-1.138c-2.853-1.583-5.682-3.188-8.534-4.731-2.3-1.32-4.808-2.659-7.293-3.858A18.837,18.837,0,0,0,71.412,3656a15.808,15.808,0,0,1-5.765-2.084,13.781,13.781,0,0,1-4.265-4.008,6.68,6.68,0,0,0-3.221-2.557A17.457,17.457,0,0,1,47.741,3640H44.889c-3.313,0-4.4.488-4.808,3.37a26.029,26.029,0,0,1-5.867,11.839,7.279,7.279,0,0,1-2.465,2.189,8.4,8.4,0,0,1-3.308,1c-1.45.162-2.784.263-3.382,2.03-.322,1-1.794,1.705-2.784,2.518-2.3,1.868-4.3,1.3-4.968-1.462-.391-1.706-.529-3.473-.782-5.2a18.228,18.228,0,0,0-.3-2.234,157.856,157.856,0,0,1-25.765-5.827,2.921,2.921,0,0,1,.855-2.266,3.738,3.738,0,0,1,2.412-1.084,12.6,12.6,0,0,0,4.292-1.444,11.153,11.153,0,0,0,3.322-2.8,24.189,24.189,0,0,1,8.994-6.091c5.567-2.457,11.042-3.655,16.977-1.2a6.119,6.119,0,0,0,2.508.345c2.3,0,4.762-.345,7.844-.608a81.242,81.242,0,0,0-9.2-6.092,31.313,31.313,0,0,1-11-9c-3.106-3.94-7.408-4.365-12.031-4.385-.76,0-1.864,1.014-2.3,1.786-1.1,2.031-1.909,4.244-2.829,6.4a9.353,9.353,0,0,1-3.653,4.59,11.39,11.39,0,0,1-5.986,1.888,25.833,25.833,0,0,1-17.23-4.813c-2.783-2.03-2.553-3.573.759-4.691a11.334,11.334,0,0,0,3.988-2.035,9.769,9.769,0,0,0,2.684-3.305,25.832,25.832,0,0,1-3.428-3.37,15.281,15.281,0,0,1-1.587-3.7c.483-.508.644-.853.943-.955,4.325-1.421,7.66-4.65,12.445-5.238a6.825,6.825,0,0,1,2.564-.15,6.584,6.584,0,0,1,2.405.8C-3.6,3602.376-1.465,3604,.7,3605.6l3.243,2.376,4.1-1.685-8.4-7.209c-1.059-.893-2.071-1.827-3.152-2.72a7.267,7.267,0,0,0-1.7-1.2c-2.3-.954-4.463-1.808-7.016-2.823a54.043,54.043,0,0,0-4.256,3.452,11.3,11.3,0,0,1-5.36,3.078,12.467,12.467,0,0,1-6.395-.052c-2.047-.447-4.072-.934-6.1-1.422-.483,0-1.1,0-1.4-.386s-1.312-1.178-1.288-1.767.989-.994,1.656-1.319c1.1-.487,2.3-.853,3.565-1.32l-1.1-1.482,4.6-3.838a21.137,21.137,0,0,0-3.2-.426c-5.544.284-10.075-1.868-14.423-4.487a5.859,5.859,0,0,1-2.07-1.808c-2.784-5.2-8.1-8.365-12.33-12.385a4.209,4.209,0,0,1-1.352-2.466,3.958,3.958,0,0,1,.569-2.692,3.315,3.315,0,0,1,.938-.911,3.749,3.749,0,0,1,1.262-.521,4,4,0,0,1,1.393-.051,3.855,3.855,0,0,1,1.307.427,24.45,24.45,0,0,0,9.685,1.422,23.225,23.225,0,0,1,6.51.913,105.28,105.28,0,0,1,11.226,4.061c3.657,1.584,6.9,3.7,6.694,7.98,1.541.467,2.921.954,4.325,1.34,1.035.264,2.093.427,3.726.751,0-2.639-.161-4.934-.253-7.776-2.806,1.36-4.485.142-6.648-.772a27.58,27.58,0,0,1-11.939-10.436,16.939,16.939,0,0,1-3.358-12.813,67.977,67.977,0,0,0,1.817-13.969,3.27,3.27,0,0,1,.525-1.466,3.76,3.76,0,0,1,1.177-1.133,2.967,2.967,0,0,1,2.011-.163,2.6,2.6,0,0,1,1.555,1.137c1.817,2.335,3.473,4.772,5.2,7.168l4.255,6.091,3.244-3.391c2.507,3.675,4.9,6.9,6.9,10.295a33.177,33.177,0,0,1,2.185,5.868,11.452,11.452,0,0,0,5.7-6.193c.276-.833,1.45-1.442,2.577-2.03,0,3.878,1.978,7.045,3.013,10.436a14.408,14.408,0,0,1,.6,7.1,15.158,15.158,0,0,1-2.9,6.645c-1.863,2.417-3.911,4.752-5.935,7.107a2.685,2.685,0,0,0-.71,1.636,2.611,2.611,0,0,0,.5,1.694c1.679,3.026,3.151,6.091,4.808,9.178a3.8,3.8,0,0,0,1.748,1.543c1.84.833,3.75,1.482,5.935,2.315-5.452-9.95-1.426-18.275,5.682-25.95,3.175,1.483,1.771,4.833,3.635,6.579s1.886,4.589,2.645,6.863H20.8a9.063,9.063,0,0,1,5.238-2.43,9.6,9.6,0,0,1,5.781,1.11l4.417,2.031a23.149,23.149,0,0,1-4.444,11.062,27.153,27.153,0,0,1-9.681,8.044c-.345,2.031.99,4.264-1.1,6.092a13.4,13.4,0,0,0,2.117,3.248c2.116,1.848,4.6,3.372,6.74,5.138s4.808,4.061,7.2,6.091c.437.366.851.792,1.334,1.137,3.359,2.376,6.717,4.772,10.1,7.127q1.112.693,2.3,1.28a8.152,8.152,0,0,0,.116-2.478,19.911,19.911,0,0,0-6.166-8.751c-3.082-2.781-4.831-5.868-3.335-9.99a18.886,18.886,0,0,0,.575-5.827,9.589,9.589,0,0,1,1.088-4.287,10.813,10.813,0,0,1,2.96-3.531,33.491,33.491,0,0,0,6.418-7.127c.161-.244.53-.386,1.059-.751a18.666,18.666,0,0,1,.989,1.685,20.133,20.133,0,0,0,1.058,2.437c2.14,3.289,4.371,6.517,6.763,10.051l7.384-.184a3.2,3.2,0,0,1,0,3.818,12.164,12.164,0,0,0-1.31,3.919,17.513,17.513,0,0,1-1.588,6.335,6.318,6.318,0,0,1-2.515,3.21,7.728,7.728,0,0,1-4.179,1.277,28.944,28.944,0,0,0-3.957.569c.184,3.229.184,3.249,3.451,6.721a21.647,21.647,0,0,0,.851-3.289,2.23,2.23,0,0,1,1.887-2.4l4.991,3.29c2.3-2.417,4.117-4.508,6.073-6.6a3.2,3.2,0,0,0,.841-.971,2.839,2.839,0,0,0,.355-1.181,6.163,6.163,0,0,1,1.994-3.228,7.537,7.537,0,0,1,3.688-1.707,3.332,3.332,0,0,1,1.248-.03,3.119,3.119,0,0,1,1.15.427,2.725,2.725,0,0,1,.847.81,2.41,2.41,0,0,1,.39,1.047c.989,3.229,2.185,6.417,3.4,9.584.806,2.152,1.818,4.264,2.623,6.416a3.078,3.078,0,0,1,0,2.254c-2.116,4.061-3.934,8.244-8.811,10.864-.184,1.218-.414,2.72-.643,4.06a52.646,52.646,0,0,0,13.8,8.873c1.519.711,2.83,1.787,4.325,2.518q2.246,1.039,4.6,1.868a13.607,13.607,0,0,1,1.426.367c3.589,1.663,7.131,3.39,10.72,5.013,1.932.874,3.911,1.605,6.579,2.7a9.934,9.934,0,0,0-4.6-5.747c-2.992-1.684-5.545-4.06-9.2-4.709-1.242-.224-2.139-1.707-3.289-2.478a24.456,24.456,0,0,1-9.2-11.634c-1.864-4.832-3.152-9.807-4.6-14.64,1.794-1.177,3.175-1.869,4.6-.448,3.427,3.331,8.051,4.833,12.537,6.6a40,40,0,0,0,5.728,2.03c-1.335-1.056-2.715-2.03-4-3.188s-1.059-1.888.253-3a18.258,18.258,0,0,1,9.753-3.614,8.6,8.6,0,0,0-1.61-1.26,14.5,14.5,0,0,1-6.763-5.867c-1.541-2.214-1.587-2.254.138-4.264a4.864,4.864,0,0,0,1.174-2.457c-.576.243-1.174.446-1.726.711a7.162,7.162,0,0,0-1.5.974c-4.118,3.655-8.879,2.924-13.6,1.4a22.763,22.763,0,0,1-8.189-4.324c-2.093-1.828-4.6-3.391-6.763-5.1a11.09,11.09,0,0,1-2.461-2.031c-1.173-1.685-2.3-3.127-4.785-2.233-1.173-1.685-.483-2.761.851-3.29a31.835,31.835,0,0,1,5.59-1.461c1.979-.346,4.026-.468,6.1-.691-3.635-3.7-7.063-7.046-10.329-10.538a47.655,47.655,0,0,1-3.037-4.406c-1.058-1.462-1.656-3.29-4.3-3.411-.85,0-1.771-.995-2.507-1.665-3.612-3.33-6.464-7.452-12.216-8.447a16.259,16.259,0,0,1-3.657-1.665c-1.127.771-2.116,1.584-3.244,2.213a15.041,15.041,0,0,1-7.613,2.266,15.206,15.206,0,0,1-7.753-1.86,32.925,32.925,0,0,1-9.777-6.355,8.91,8.91,0,0,0-4.186-1.787c-4.325-1.036-5.429-3.35-3.382-6.9a4.573,4.573,0,0,1,2.152-2.333,5.552,5.552,0,0,1,3.346-.57,22.053,22.053,0,0,0,9.8-1.036,22.9,22.9,0,0,1,4.762-.2c5.681-.548,9.638,2.538,13.8,5A13.018,13.018,0,0,0,51.881,3561c-.69-1.1-1.31-2.234-2.07-3.29a88.007,88.007,0,0,0-6.1-8.122,7.029,7.029,0,0,0-3.23-2.4,8.056,8.056,0,0,0-4.2-.381,6.419,6.419,0,0,1-3.773-.264c-4.6-2.762-9.661-5.178-11.5-10.559a110.747,110.747,0,0,0-5.5-11.675c2.117-1.746,4.739-.122,7.063,0a28.531,28.531,0,0,1,7.361,2.031c2.3.791,4.762,1.725,7.269,2.619.921-1.158.253-2.335,0-3.594-1.081-4.65-1.541-9.259,2.553-13.117,1.587-1.482,2.3-3.655,4.739-4.508.392-.121.322-1.157.6-1.726.668-1.441,2.3-1.705,3.106-.385a80.179,80.179,0,0,1,7.315,11.33,11.632,11.632,0,0,1,0,7.025,26.951,26.951,0,0,1-5.819,12.284,5.327,5.327,0,0,0-1.553,3.264,5.133,5.133,0,0,0,.954,3.437c1.334,2.173,3.083,4.163,5.038,6.762a36,36,0,0,1,2.3-4.061c1.541-2.681,3.819-5.137,2.784-8.528-.369-1.219,1.011-1.6,2.116-1.868a2.737,2.737,0,0,1,1.813-.005,2.336,2.336,0,0,1,1.316,1.1c1.518,2.5,3.128,4.954,4.6,7.432.369.568.6,1.218,1.012,1.746,4.095,5.563,3.8,11.37,1.035,17.2a19.663,19.663,0,0,0-2.3,7.513,4.236,4.236,0,0,0,.424,2.551,4.933,4.933,0,0,0,1.876,1.977c.622.345,1.105.893,1.749,1.2a10.866,10.866,0,0,1,3.787,3.1,9.286,9.286,0,0,1,1.826,4.267,7.274,7.274,0,0,0,1.743,3.294,8.616,8.616,0,0,0,3.272,2.209c.207-2.68.322-4.975.529-7.269s.529-4.488.805-6.823c4.6-.852,7.89,1.5,11.5,3.7-.644-1.5-1.128-2.64-1.725-4.061l11.823-3.472a30.015,30.015,0,0,0-3.474-1.34,30.91,30.91,0,0,1-12.214-6.092c-4.371-3.492-8.971-6.944-10.858-12.183a22.513,22.513,0,0,1-1.4-5.665c-.161-1.847.92-2.639,3.06-2.335a31.967,31.967,0,0,1,5.98,1.645,60.648,60.648,0,0,0,12.538,3.858,10.346,10.346,0,0,1,6.073,3.31c1.955,2.03,4.37,3.817,6.371,5.888a27.567,27.567,0,0,1,5.752,8.711c1.31,3.167,4.416,4.731,8.143,6.558A18.051,18.051,0,0,1,126,3570.7v-6.091a47.585,47.585,0,0,1,.529-5.2,8.86,8.86,0,0,1,2-5.185,10.751,10.751,0,0,1,4.9-3.363l2.3,3.715c1.288,2.031,2.507,4.2,3.91,6.234,1.795,2.6,3.659,5.157,5.66,7.635a11.835,11.835,0,0,1,2.508,8.121,9.123,9.123,0,0,1-1.956,4.813,3.953,3.953,0,0,0-1.144,3.013,4.083,4.083,0,0,0,1.535,2.875c1.426,1.381,2.691,2.843,4.072,4.264s2.691,2.823,4.1,4.162c.69.671,1.518,1.239,2.921,2.356-.553-3.228-1.035-5.625-1.357-8.122a39.922,39.922,0,0,1-.529-6.091,7.886,7.886,0,0,1,1.036-3.493,9,9,0,0,1,2.552-2.822,8.766,8.766,0,0,0,2,3.734,10.292,10.292,0,0,0,3.656,2.581,13.424,13.424,0,0,0,3.382.609,9.308,9.308,0,0,1,.851-6.924c.345-.447,0-1.422-.369-2.031A19.7,19.7,0,0,0,166.878,3571.533Zm-151.8,77.344A7.8,7.8,0,0,0,18.085,3647a11.69,11.69,0,0,0,3.679-8.169c-3.146.818-6.408.878-8.4,3.37s-5.552,2.8-8.952,3.655c.462-1.9,2.128-1.756,3.262-2.266s3.331-.981,4.117-2.043a8.669,8.669,0,0,1,2.617-2.267,9.8,9.8,0,0,1,3.421-1.164,9.077,9.077,0,0,0,3.672-1.376,7.773,7.773,0,0,0,2.551-2.708,67.487,67.487,0,0,0-9.947,1.308A28.54,28.54,0,0,0-1.254,3646.1C1.962,3648.55,11.307,3650.286,15.078,3648.877Zm6.292,3.655a32.064,32.064,0,0,0,4.326-6.126,31.15,31.15,0,0,1,5.3-9.209,7.453,7.453,0,0,1-1.735,1.122,6.787,6.787,0,0,0-3.714,2.285,5.45,5.45,0,0,0-1.237,3.842,6.8,6.8,0,0,1-.862,3.171,7.756,7.756,0,0,1-2.307,2.546c-3.424,2.573-2.8,5.615-1.388,9.291C21.486,3656.881,23.869,3655.186,21.37,3652.532Zm17.767-16.071c-3.308-1.347-5.853-1.612-8.143.613l3.886,1.041c-1.18,1.083-1.966,1.737-2.66,2.431a15.527,15.527,0,0,0-2.314,2.512c-1.9,3.226-3.655,6.513-5.482,9.78.625.408,1.226-.163,1.9-.225a4.744,4.744,0,0,0,2.807-1.015,3.776,3.776,0,0,0,1.4-2.374,31.553,31.553,0,0,1,3.655-6.391c.278-.469.949-.9.949-1.347a4.851,4.851,0,0,1,1.086-3.081A5.955,5.955,0,0,1,39.137,3636.461Zm234.731,37.572c.347,2.409.694,4.818,1.11,7.657,3.609-3.206,2.476-6.963,3.332-10.21a17.375,17.375,0,0,0-.88-10.209,10.251,10.251,0,0,0-4.417,5.807A9.135,9.135,0,0,0,273.868,3674.033Zm-3.054,25.359c.3-5.676.556-10.7.833-15.7a20.537,20.537,0,0,0,.347-3.9A20.8,20.8,0,0,0,266,3667.4l-7.634-7.494c-6.524,6.759-1.943,26.544,6.94,31.792a10.834,10.834,0,0,0,.277-9.475,15.24,15.24,0,0,0-1.92-3.573,29.314,29.314,0,0,1-4.626-9.678,2.543,2.543,0,0,1-.288-1.963,2.847,2.847,0,0,1,1.236-1.652,24.372,24.372,0,0,1,1.6,2.491c1.62,3.431,3.054,6.943,4.835,10.21a17.261,17.261,0,0,1,2.314,11.067,34.72,34.72,0,0,0,.439,8.167A21.489,21.489,0,0,0,270.814,3699.392ZM98.82,3564.159a33.987,33.987,0,0,1,3.4,1.348,21.154,21.154,0,0,0,8.05,2.041c-2.314-4.083-2.591-4.41-6.547-5.676a54.066,54.066,0,0,0-6.8-1.45c-1.735-.326-3.7-.286-4.372-2.042.625-1.613,3.678.429,3.053-2.348,1.782.878,3.262,1.675,4.812,2.328a41.492,41.492,0,0,0,5.182,1.817,10.546,10.546,0,0,1,4.892,2.939,8.641,8.641,0,0,1,2.279,4.82l1.5-.224a15.55,15.55,0,0,0-4-7.657,80.186,80.186,0,0,0-7.171-6.677,11.524,11.524,0,0,0-5.205-2.369,26.556,26.556,0,0,1-6.431-2.164c-3.239-1.327-6.478-2.655-10.179-4.206a13.136,13.136,0,0,0-.254,2.041,5.48,5.48,0,0,0,.37,1.613,23.248,23.248,0,0,0,6.488,9.834A27.572,27.572,0,0,0,98.82,3564.159ZM111.3,3587.13c3.169,3.226,7.264,3.635,11.566,3.41a9.987,9.987,0,0,0,5.506-2.409,4.612,4.612,0,0,1,2.058-1.368,5.2,5.2,0,0,1,2.569-.184v-.694a15.19,15.19,0,0,0-4-1.613,73.837,73.837,0,0,0-11.821-.45,13.476,13.476,0,0,1-4.712-.7,12.365,12.365,0,0,1-4.033-2.262c-1.041-.736-.555-1.511.44-2.042,7.241,3.042,9.392,3.369,15.383,2.348-7.564-7.841-18.506-10.21-26.325-5.289,1.712,1.471,3.354,2.941,5.066,4.35C105.726,3582.556,108.8,3584.619,111.3,3587.13Zm-7.716-.939a4.563,4.563,0,0,1,1.874,2.348c.625,4.084,2.082,8.167.81,12.251a3.458,3.458,0,0,0,.532,2.43c.648,1.164,1.735,2.042,2.313,3.287a7.242,7.242,0,0,0,4.048,3.41,9.821,9.821,0,0,1,4.858,3.431,2.553,2.553,0,0,0,1.3,1.144,3.014,3.014,0,0,0,1.826.142c6.709-1.429,11.983,1.613,17.211,4.512a11.824,11.824,0,0,1,3.488,3.364,10.292,10.292,0,0,1,1.671,4.314c.254,1.041.555,2.491,1.365,2.9a42.281,42.281,0,0,0,10.71,3.41,17.392,17.392,0,0,1-2.313-2.511c-2.313-4.083-4.442-8.29-6.639-12.456a2.615,2.615,0,0,1-.44-1.245,14.79,14.79,0,0,1,.486-2.267l5.3.593a30.287,30.287,0,0,0-12.121-4.084,7.546,7.546,0,0,1-2.753-.9c-1.365-.715-2.938-1.328-2.568-3.206s.995-3.431,3.378-3.818c1.341-.205,2.706-.246,4.025-.47,2.8-.511,6.014.327,8.7-2.042-4.465-3.471-8.7-6.983-13.232-10.209a10.183,10.183,0,0,0-5.251-1.307c-.972,0-2.013,1.041-3.031,1.613l-.925.572a13.526,13.526,0,0,1-4.729,2,14.388,14.388,0,0,1-5.242.152,13.768,13.768,0,0,1-4.867-1.724,12.083,12.083,0,0,1-3.669-3.308,17.351,17.351,0,0,0-5.366-4.452,73,73,0,0,1-6.686-4.778A18.661,18.661,0,0,0,103.585,3586.191ZM177.194,3628c1.99,2.348,3.7,4.879,5.46,7.371a9.332,9.332,0,0,1,1.5,6.676c-.37,3.023-.832,6.126-1.272,9.128a15.879,15.879,0,0,0,7.449,5.492c-.393-2.94-.856-5.717-1.11-8.514a11.1,11.1,0,0,1,.393-3.9c.74-2.408,2.544-2.8,4.626-1.143.556.45,1.065.939,1.573,1.409a51.869,51.869,0,0,0,10.873,8.352,11.64,11.64,0,0,1,4.378,3.508,9.862,9.862,0,0,1,1.96,4.924,80.226,80.226,0,0,0,2.314,9.639,2.99,2.99,0,0,0,1.076,1.876,3.751,3.751,0,0,0,2.185.839c4.974.45,9.971.817,14.944,1.226a2.059,2.059,0,0,1,.3-.756c-.6-.572-1.133-1.184-1.758-1.7-4.974-4.084-10.271-7.983-13.024-13.743a4.234,4.234,0,0,0-.833-1.082q-8.05-8.616-16.193-17.171c-1.688-1.757-3.516-3.39-5.343-5.023a21.38,21.38,0,0,0-3.817-2.982,14.346,14.346,0,0,1-6.732-5.921,2.975,2.975,0,0,0-1.087-1.245c-2.129-1.266-4.3-2.512-6.524-3.7a5.107,5.107,0,0,0-2.1-.49c-3.909-.245-7.819-.449-12.145-.674,3.077,2.206,5.575,4.41,9.253,5.289a7.117,7.117,0,0,1,3.679,2.307Zm41.64,52a10.764,10.764,0,0,1-3.077-3.226c-3.239-3.92-3.308-8.657-4.233-13.15-.717-3.389-1.273-6.921-5.136-8.657a65.97,65.97,0,0,1-12.862-8.923l-1.365-1.022a27.075,27.075,0,0,0,1.065,10.987,21.989,21.989,0,0,1,.809,4.737,8.323,8.323,0,0,0,.776,3.661,9.3,9.3,0,0,0,2.347,3.1c3.054,2.408,6.107,4.777,9.785,7.635-1.943-4.92-3.678-9.065-5.2-13.292a45.178,45.178,0,0,1-1.5-6.125c-.185-.919,0-1.777,1.827-2.042a18.319,18.319,0,0,1,.856,2.532,23.721,23.721,0,0,0,.324,3.165c.81,2.511,1.851,4.982,2.73,7.472.509,1.41.416,3.227,1.411,4.228,3.377,3.491,5.783,7.677,10.04,10.556a5.858,5.858,0,0,1,1.75,1.6,5.117,5.117,0,0,1,.887,2.08,4.147,4.147,0,0,0,.383,2.259,4.749,4.749,0,0,0,1.56,1.824c2.036,1.593,3.886,3.389,5.853,5.043,4.626,3.839,9.253,7.7,13.88,11.455.741.593,1.944.674,2.869,1.082s1.827,1.327,2.776-.347c-4.372-3.348-8.513-7.024-13.233-9.964a31.16,31.16,0,0,1-7.1-5.881,14.141,14.141,0,0,1-3.539-5.288,8.128,8.128,0,0,0-1.723-3.192,9.414,9.414,0,0,0-3.043-2.3Zm21.052,15.717c-.764-.163-1.574-.184-3.055-.367,5.345,4.083,10.388,7.718,14.806,11.781,3.331,3.064,7.148,3.39,11.891,3.37a41.824,41.824,0,0,0-2.314-3.615c-1.966-2.756-4.233-5.39-5.945-8.167a6,6,0,0,0-1.546-2.01,6.926,6.926,0,0,0-2.326-1.3,7.589,7.589,0,0,0-2.719-.372,7.5,7.5,0,0,0-2.662.617,10.651,10.651,0,0,1-6.223.02Zm-23.967-11.067a2.509,2.509,0,0,0-.486-.858c-7.379-5.656-15.5-9.78-25.677-9.7a8.917,8.917,0,0,0-4.858,1.245,9.776,9.776,0,0,1-3.965,1.752,10.451,10.451,0,0,1-4.433-.078,4.316,4.316,0,0,0,.569,2.3,5.008,5.008,0,0,0,1.745,1.783,95.388,95.388,0,0,0,18.714,9.412,15.58,15.58,0,0,0,10.563.413A13.4,13.4,0,0,0,215.919,3684.65ZM183.533,3657l7.518,5.1c.069-1.918-4.534-4.9-7.4-5.1ZM174,3647a3.176,3.176,0,0,0,.763,1.408,26.263,26.263,0,0,0,2.846,3.451,38.274,38.274,0,0,0,3.632,2.756l.347-.408-2.961-5.778c2.752-.776,2.961-2.491,2.683-4.431a13.917,13.917,0,0,1,0-2.042c0-5.88-3.886-9.984-8.351-13.762a10.214,10.214,0,0,0-1.943-.939c-1.573-.837-3.216-1.613-4.627-2.552-3.747-2.329-7.194-5.085-11.566-6.412a7.447,7.447,0,0,0-4.974-.062c1.712,3.063,3.424,5.922,4.928,8.862a19.507,19.507,0,0,0,6.939,7.188,31.12,31.12,0,0,0,4.326,2.327,14,14,0,0,1,5.606,4.248,11.742,11.742,0,0,1,2.468,6.146ZM39.16,3525.322l4.627-6.472c-1.5-.286-1.712-1.144-1.064-2.389,1.064-2.042,2.082-4.084,3.354-6.494a18.271,18.271,0,0,0-4.187,2.042,8.912,8.912,0,0,0-2.961,3.982,36.487,36.487,0,0,0-.255,7.473A9.02,9.02,0,0,0,39.16,3525.322ZM43,3537.574a22.833,22.833,0,0,0,1.5-2.042,73.647,73.647,0,0,1,4.626-8.556,9.005,9.005,0,0,0,1.643-6.9,12.536,12.536,0,0,0-3.493-7.371c-.347,1.408-.671,2.45-.856,3.491a1.84,1.84,0,0,0,.254,1.389c1.527,1.429.879,2.368-.763,3.063a6.138,6.138,0,0,0-2.421,1.766A5.153,5.153,0,0,0,42.352,3525,30.256,30.256,0,0,0,43,3537.533Zm10.618,20.071c0-.2.347-.428.278-.551a62.177,62.177,0,0,0-4.766-9.27c-1.619-2.246-3.146-4.982-6.94-5.431-.832-.1-1.411-1.409-2.2-2.042a25.361,25.361,0,0,0-3.817-2.961c-3.031-1.695-6.2-3.165-9.254-4.819a1.516,1.516,0,0,1-.615-.419,1.277,1.277,0,0,1-.3-.632,1.207,1.207,0,0,1,.09-.682,1.378,1.378,0,0,1,.458-.554c5.274.776,8.259,5.37,13.88,5.758-.231-.673-.393-1.735-.624-1.756-2.314-.143-3.054-2.042-4.488-3.063a31.641,31.641,0,0,0-11.567-4.451,7.589,7.589,0,0,0-4.95-.2,43.576,43.576,0,0,1,3.331,6.126,16.981,16.981,0,0,0,8.513,9.127,11.531,11.531,0,0,0,6.94,1.919,9.361,9.361,0,0,1,3.563.572,11.2,11.2,0,0,1,4.078,2.514,9.521,9.521,0,0,1,2.422,3.836A20.143,20.143,0,0,0,53.618,3557.645Zm-5.32,9.536c-6.94-4.41-15.083-3.247-22.787-4.472.555-2.042,2.313-2.328,4.025-2.185,2.314.184,4.442.592,6.663.633a28.873,28.873,0,0,1,14.574,4.35c.671.408,1.6,1.02,1.642,1.592a2.456,2.456,0,0,0,.733,1.478,3.048,3.048,0,0,0,1.581.809c2.845.878,5.737,1.675,8.7,2.532a23.973,23.973,0,0,1-.694-5.329,8.368,8.368,0,0,0-1.365-5.35c-1.851-2.9-1.3-5.962-.81-9.005.185-1.184.972-2.041,3.077-1.613-.44,4.084-1.481,8.6,2.521,12.374a27.758,27.758,0,0,0,1.573-2.736,11.5,11.5,0,0,0,.417-8.372,28.536,28.536,0,0,0-6.2-11.577,24.179,24.179,0,0,0-5.3,9.862c-.417,1.654-.949,3.941,0,5.064,2.313,2.777,2.174,5.983,3.1,8.984a2.06,2.06,0,0,1,.053,1.762,2.458,2.458,0,0,1-1.371,1.281l-3.007-2.594-1.874,1.532c-1.434-1.042-2.938-2.042-4.234-3.145a25.668,25.668,0,0,0-8.366-5.029,28.227,28.227,0,0,0-9.932-1.729,6.206,6.206,0,0,0-2.568.122c-3.03,1.613-6.246,1.205-9.461,1-1.689-.123-2.938.265-3.239,1.94s.6,2.368,2.313,2.919a16.014,16.014,0,0,1,5.2,2.492,40.165,40.165,0,0,0,10.965,6.125,12.763,12.763,0,0,0,7.805.417A11.337,11.337,0,0,0,48.3,3567.181Zm25.446,16.192c.74-2.981.324-3.614-2.753-4.717Zm10.256,8.9-7.31-5.308c3.169,4.757,3.724,5.145,7.31,5.288Zm5.706,7.188.509-.531-3.4-2.512-.555.593ZM109.993,3614c-.694-.449-1.249-.857-1.874-1.2a23.975,23.975,0,0,0-10.733-2.144,47.771,47.771,0,0,1-4.858-.164c-2.036-.285-4.048-.857-4.442-3.47a38.515,38.515,0,0,0,4.164.939c4.257.429,8.513.776,12.585,1.123-.463-.511-1.157-1.286-2.106-2.389l3.47-.552-5.852-6.8a18.776,18.776,0,0,0-3.7-4.084c-3.863-2.491-5.112-6.411-7.333-9.78-.647-.96,0-1.614,1.666-1.614,1.087,1.757,2.082,3.635,3.331,5.371a10.56,10.56,0,0,0,3.1,3.1,10.1,10.1,0,0,1,4.372,4.35,9.392,9.392,0,0,0,1.5,1.837,28.03,28.03,0,0,0,0-8.331,5.163,5.163,0,0,0-1.5-2.593c-2.66-2.756-5.459-5.39-8.143-8.167a9.376,9.376,0,0,0-3.131-2.06,10.421,10.421,0,0,0-3.809-.758c-.809,5.207-2.891,10.209,1.319,14.681a1.026,1.026,0,0,1,0,.94c-.6,1.49.393,2.265,1.6,2.96l11.567,6.86-2.059,3.717-3.979-2.226-1.735,1.552c-1.111-.633-2.128-1.225-3.192-1.756a4.413,4.413,0,0,0-2.013-.755c-3.493.245-6.94.612-10.734.979,4.326,5.248,10.017,8.393,15.615,11.639a11.039,11.039,0,0,0,5.264,1.949,11.493,11.493,0,0,0,5.632-.826,2.6,2.6,0,0,1,1.411,0c2.544.552,3.608-.653,4.534-2.328Zm24.244,15c-2.545-3.716-7.172-3.92-10.9-5.757.671-.429.995-.817,1.226-.776,4.187.735,8.652.837,11.566,4.369a17.031,17.031,0,0,0,3.239,2.716,5.947,5.947,0,0,0,1.966.47c-.763-4.085-1.966-6.718-4.441-7.882-4.326-2.042-8.1-5.635-14.065-4.431,1.2,2.655-1.9,3.144-2.892,5.064-1.318-.633-2.174-1.082-3.053-1.47-1.249-.593-2.8-1.225-3.563.163-.347.633.694,1.858,1.111,2.818a.667.667,0,0,0,.231.265,23.364,23.364,0,0,0,9.147,4.285,25.122,25.122,0,0,0,10.354.166Zm-11.127,14a39.535,39.535,0,0,0,14.25.98,38.24,38.24,0,0,0,13.509-4.124c.139,0,.116-.368.278-.9l-10.248-2.43a7.732,7.732,0,0,1,3.121-1.344,8.242,8.242,0,0,1,3.472.079c3.632,1.1,7.194,2.347,10.733,3.675a58.41,58.41,0,0,1,5.506,2.531,42.575,42.575,0,0,0,7.912,3.839,42.263,42.263,0,0,0-3.817-4.553c-.81-.735-2.314-1.633-3.17-1.368-2.521.939-3.955-.551-5.644-1.47a29.371,29.371,0,0,0-9.577-3.573,65.287,65.287,0,0,0-6.524-1.164c-3.053-.184-6.06-.858-9.114-1.286,0,0-.254.2-.393.285l1.827,1.8c0,.2-.208.408-.3.633-3.632-.49-6.709-3.41-10.827-2.042-3.608,1.205-8.073,0-11.265,3.288a25.344,25.344,0,0,0,3.793,3.839A19.6,19.6,0,0,0,123.04,3643Zm-1.018,5.979c-1.388,3.92,1.018,7.269,2.313,10.7,2.082,6.126,7.31,10.21,12.4,14.293a34.544,34.544,0,0,0,5.575,3.839,53.358,53.358,0,0,0,8.583,3.818c2.614.817,4.788,2.8,8.3,2.553-1.064-3.043-1.6-5.8-4.117-7.821a5.094,5.094,0,0,1-1.3-2.327c-1.087-2.9-2.313-5.82-3.123-8.78a10.6,10.6,0,0,1,.671-8.964,13.772,13.772,0,0,0,2.175-9.8,2.986,2.986,0,0,1,.3-2.361,3.657,3.657,0,0,1,2.01-1.58c.81,1.042,1.527,2.042,2.313,2.981a80.764,80.764,0,0,0,6.084,7.024,17.457,17.457,0,0,1,3.031,3.614,16.1,16.1,0,0,1,1.966,7.882,32.214,32.214,0,0,1-.625,10.74c-.485,1.818-.948,3.634-1.48,5.431-.717,2.41.324,5.983,2.174,6.473q6.756,1.716,13.649,3.083a19.7,19.7,0,0,1,6.639,2.042,42.538,42.538,0,0,0,6.477,2.941q8.907,3.348,17.928,6.432a43.615,43.615,0,0,0,5.737,1.2c1.2.226,2.475.328,3.655.613,3.817.96,7.611,2.043,11.428,2.941a11.865,11.865,0,0,0,2.73-.306c-8.074-5.35-13.672-12.15-21.977-16.111-1.226.674-2.313,1.226-3.354,1.818-5.205,2.94-10.618,4.083-16.517,1.592-1.666-.735-3.447-1.266-5.043-2.041-3.84-2.043-7.472-4.35-11.381-6.249a9.184,9.184,0,0,1-4.038-3.271,7.646,7.646,0,0,1-1.329-4.692c0-2.511.879-3.307,3.493-2.41a5.585,5.585,0,0,0,2.707.533,5.448,5.448,0,0,0,2.613-.819c2.8-2.245,6.038-2.245,9.416-2.245a45.269,45.269,0,0,0,4.626-.429,16.176,16.176,0,0,0-1.295-1.062c-2.637-1.654-5.39-3.186-6.038-6.37-.116-.633-1.018-1.205-1.712-1.654a181.167,181.167,0,0,1-19.547-14.64,40.007,40.007,0,0,0-13.255-7.106,39.793,39.793,0,0,1-5.321,2.532c-3.84,1.185-7.773,2.2-11.728,3.164a27.265,27.265,0,0,1-4.627.572,30.452,30.452,0,0,1-14.18-2.47,29.669,29.669,0,0,1,2.313,2.98C121.976,3648.2,122.254,3648.489,122.092,3648.979ZM165.882,3664c-.647-5.8-4.626-9.637-8.929-13.537-.925,2.042-1.758,3.532-2.313,5.166a11.68,11.68,0,0,0-1.365,4.717,26.725,26.725,0,0,0,6.685,17.314l2.314,2.247c4.487-5,4.187-10.394,3.585-15.907Zm-85.036-26.558c0,.49-.37,1.041-.394,1.592,0,1.1,0,2.226.139,3.82,3.054-1.675,3.933-4.085,5.39-5.964a5.017,5.017,0,0,0,1.14-2.746,4.861,4.861,0,0,0-.654-2.869c-1.11-2.042-2.105-4.186-3.03-6.309-1.088-2.532-2.059-5.1-3.1-7.657-2.822.184-2.822.184-2.637,3.757a77.407,77.407,0,0,0-6.177,5.308,3.377,3.377,0,0,0-.971,2.559,3.477,3.477,0,0,0,1.295,2.444l6.176,6.269a1.782,1.782,0,0,0,.278-.592c.162-.8.37-1.715,1.5-1.368.509.225.856,1.184,1.018,1.817Zm-23.318-.47c-2.2-5.248-4.257-10.209-6.385-15.212a12.9,12.9,0,0,1,2.313-.776c.417,0,.949.368,1.411.306a24.826,24.826,0,0,0,6.94-1,6.78,6.78,0,0,0,2.717-2.4,5.727,5.727,0,0,0,.915-3.3c0-2.286.3-4.573.486-6.921a4.144,4.144,0,0,0-1.249-.225,5.193,5.193,0,0,0-2.343.262,4.629,4.629,0,0,0-1.891,1.249c-.9,1.062-3.03,1.307-4.071,2.348-1.8,1.837-4.164,3.552-3.863,6.472,0,.328-.717.96-1.157,1a1.916,1.916,0,0,1-.8-.236,1.664,1.664,0,0,1-.585-.54,5.677,5.677,0,0,1-.37-2.246c-.139-2.164-.208-4.329-.278-6.473a23.506,23.506,0,0,1,0-4.594,5.346,5.346,0,0,1,.871-2.862,6.283,6.283,0,0,1,2.345-2.12c1.388,4.084-2.475,7.882,0,12.129l5.529-5.7c-1.712-3.859-2.314-7.882-6.339-10.373a19.826,19.826,0,0,0-5.873,6.031,17.325,17.325,0,0,0-2.547,7.629c-.324,4.084-.532,8.168,3.192,11.414a18.369,18.369,0,0,1,6.038,11.067,7.886,7.886,0,0,0,.509,1.573,5.208,5.208,0,0,0,1.683,2.313,6.254,6.254,0,0,0,2.782,1.239Zm-38.7-36.141-3.817,2.287c.37,2.042,1.758,2.92,3.956,3.512C18.918,3604.752,18.872,3603.159,18.826,3600.831Zm6.5-2.674c-3.192-.511-3.192-.511-4,2.49Zm5.9-10.7-6.94,4.084-1.3,3.553C29.328,3595.073,32.382,3592.011,31.225,3587.457Zm-20.172,8.412c.324-.428.74-1.286.925-1.245,3.239.653,3.424-1.7,3.887-3.288a33.686,33.686,0,0,0,.879-6.472c.347-3.839-1.967-6.779-4.234-9.781C6.241,3581.209,5.547,3590.908,11.053,3595.869ZM14.569,3601a10,10,0,0,1,1.805-1.388,3.973,3.973,0,0,0,2.3-1.747,3.221,3.221,0,0,0,.293-2.664c-.139-.592,0-1.613.393-1.858,2.475-1.47,2.452-3.859,2.915-6.126a6.132,6.132,0,0,1,1.156-.143c.232,0,.463.184.694.225,1.6.245,4.349-.674,4.627-1.7a1.569,1.569,0,0,0,.033-.764,1.672,1.672,0,0,0-.334-.706,5.113,5.113,0,0,0-2.491-.975,5.359,5.359,0,0,0-2.691.383,2.313,2.313,0,0,0-.879.592,24.011,24.011,0,0,0-3.84,5.84,15.613,15.613,0,0,1-4.094,7.576,2.342,2.342,0,0,0-.639.785,2.061,2.061,0,0,0,.026,1.892,2.36,2.36,0,0,0,.659.773ZM-18.7,3545.149c-1.458,3.287-3.077,6.473-4.21,9.8a10.978,10.978,0,0,0,.254,4.8,10.871,10.871,0,0,0,1.087,2.941c1,2.042,1.064,4.574,4.835,5.615-.786-2.655-1.3-4.921-2.151-7.085-1.134-2.839-.9-5.064,1.272-6.8a57.584,57.584,0,0,0,4.511,13.987C-10.53,3560.688-11.826,3549.131-18.7,3545.149ZM-23.323,3564c-.324-.551-.416-1.041-.763-1.246a5.194,5.194,0,0,1-1.967-2.731,4.652,4.652,0,0,1,.232-3.231,30.073,30.073,0,0,1,1.5-3.716L-22,3546.95c-3.725-5.39-6.94-10.209-10.549-15.355-.648,4.778-1.249,8.862-1.943,12.946a12.647,12.647,0,0,0,1.735,9.474c1.966,3.022,4.233,5.881,6.477,8.76a2.37,2.37,0,0,0,1.2,1.084,2.806,2.806,0,0,0,1.712.141Zm-5.876,19a52.855,52.855,0,0,1,10.919,0,11.929,11.929,0,0,1,6.778,3.206l-1.087,2.328a9.352,9.352,0,0,0,1.249,0,6.354,6.354,0,0,1,4.181.351,5.255,5.255,0,0,1,2.759,2.793c.231.47.925.777,1.388,1.164a14.923,14.923,0,0,0-3.748-7.432l-1.156,1.633-7.935-4.9c2.013-1.838,4.025,0,6.269,0a39,39,0,0,1-.185-5.758,63.717,63.717,0,0,1,1.342-7.433c.277-1.225,1.18-2.042,3.262-2.225-.741,3.1-2.614,5.88-1.689,9.209,2.984-3.1,6.732-5.228,7.31-9.679a18.428,18.428,0,0,0-2.73-11.965c-5.528,3.41-6.755,5.472-6.94,11.026a8.027,8.027,0,0,1-1.156,3.757,10.459,10.459,0,0,0-1.018,4.757,16.779,16.779,0,0,1-1.689,5.187c-.624,1.307-1.989,1.327-3.516.939-3.1-.8-6.292-1.347-9.392-2.042a22.837,22.837,0,0,1-4.627-1.347,20.361,20.361,0,0,0-10.363-2.042,1.976,1.976,0,0,1-2.314-1.634,73.256,73.256,0,0,1,9.254.266,67.522,67.522,0,0,1,8.513,2.45c-1.088-2.757-1.712-3.655-4.4-4.737-4.811-2.042-9.739-3.737-14.666-5.493a5.216,5.216,0,0,0-2.591-.1,19.03,19.03,0,0,1-10.873-1.368,13.514,13.514,0,0,0-2.313-.368,18.373,18.373,0,0,0,5.251,5.942c2.984,2.471,5.945,4.982,8.907,7.453a23.286,23.286,0,0,0,7.782,4.6A25.611,25.611,0,0,0-29.2,3583Zm14.158,5h-4.048l2.382-2.716a16.077,16.077,0,0,0-3.03.245c-1.18.245-2.313.592-3.493.939a35.018,35.018,0,0,0-3.355,1.021c-2.914,1.164-3.77,3.513-4.418,6.351a17.35,17.35,0,0,0,10.364-1.042c.856-.448,2.035-1.041,2.2-1.694C-17.979,3589.246-16.244,3589.1-15.041,3588ZM10.4,3605a34.509,34.509,0,0,1-4.858-6.126c-1.341-2.45-4.464-3.022-7.217-3.879a46.665,46.665,0,0,0,12.052,10Zm-10.919,5.592c-1.226.1-2.313-.123-2.822.285-2.313,2.185-5.806,3.267-6.593,6.8-.6,2.633-2.313,3.062-5.459,2.45.3-1.858,2.313-1.45,3.03-2.389.995-1.369,1.55-3,2.637-4.309a37.684,37.684,0,0,1,4.164-3.736c-5.158-1.409-8.443-.776-10.294,2.042-2.313,3.287-4.164,6.738-8.351,8.7a10.277,10.277,0,0,0,6.524,3.124,40.9,40.9,0,0,0,8.513,0,7.154,7.154,0,0,0,3.373-.915,6.059,6.059,0,0,0,2.341-2.332C-2.3,3617.207-1.555,3614-.514,3610.592ZM-6.019,3604a13.778,13.778,0,0,0-4.627-.857,16.039,16.039,0,0,0-5.436.857,62.023,62.023,0,0,0-6.732,3.512,5.883,5.883,0,0,0,1.742,2.308,6.953,6.953,0,0,0,2.746,1.347l3.447-4.941c3.308,1.756,6.616-.633,10.965.163-1.041-1.2-1.434-2.2-2.128-2.389Zm49.829,30.624a7.54,7.54,0,0,0,1.9.592l.462-.51a15.305,15.305,0,0,0-2.313-2.287,115.118,115.118,0,0,1-14.875-11.863c-1.365-1.267-3.262-2.043-4.626-3.186a37.506,37.506,0,0,1-9.855-10.087c-.509-.836-.972-1.654-2.314-.673.694.98,1.921,2.041,1.944,2.981a5.066,5.066,0,0,0,.846,2.441,5.911,5.911,0,0,0,2,1.847,16.37,16.37,0,0,1,2.2,2.164,21.862,21.862,0,0,0,2.868,3.288c3.285,2.45,6.755,4.736,10.156,7.085C36.06,3629.172,39.9,3631.929,43.81,3634.624ZM57.69,3644c0-3.226-1.365-4.635-6.8-6.513.718,2.633.718,2.633,6.825,6.513Zm21.791,47.1c-.3-1.328-.555-2.451-.833-3.717l-4.256-.98c-.232,1.92-.44,3.553-.671,5.636Zm19.871-12.252a4.7,4.7,0,0,0-2.174,1.552,13.771,13.771,0,0,1-6.94,4.8c-2.013.857-4.072,1.653-6.038,2.613a40.223,40.223,0,0,0-3.47,2.205l.393.633c2.661-.776,5.3-1.592,7.981-2.327a25.3,25.3,0,0,0,7.588-4.084,6.53,6.53,0,0,0,2.076-2.377,5.706,5.706,0,0,0,.607-2.952Zm2.522-7.922a40.8,40.8,0,0,0-5.552-1.225,103.132,103.132,0,0,0-11.752-.572,15.411,15.411,0,0,0-7.148,1.45,75.087,75.087,0,0,1-8.513,4.084c-3.146,1.429-6.315,2.8-10.364,4.574,1.9.55,2.892.9,3.91,1.1s2.707.409,4.025.653a114.555,114.555,0,0,0,13.024,2.43c6.94.531,12.978-1.245,16.748-7a11.552,11.552,0,0,1,5.645-5.431Zm-28.361-17.478a21.263,21.263,0,0,0-3.031-3.635c-1.92-2.041-4-3.859-5.714-5.983-.671-.816-.509-2.184-.74-3.287l.9-.347c1.643,1.633,2.684,3.717,4.3,5.37s3.609,3.206,5.691,5.023c1.85-8.739-4.026-16.213-13.371-19.6a2.2,2.2,0,0,0-.532.449,4.366,4.366,0,0,0-.555,1.205,20.259,20.259,0,0,0,2.313,15.009C64.884,3651.511,68.886,3652.8,73.513,3653.451Zm7.4,1.633-.347.491,1.735,1.1.44-.674Zm38.586,49a3.149,3.149,0,0,0,1.186-1.4,2.736,2.736,0,0,0,.132-1.744,29.73,29.73,0,0,1,.255-5.146,27.7,27.7,0,0,1,.3-2.755l-.694-.266a26.814,26.814,0,0,1-9.763,11.822c-1.249-1.184-.809-1.817,0-2.532a57.512,57.512,0,0,0,5.761-5.574c2.591-3.226,4.834-6.656,7.24-10-3.817.429-7.449.53-9.716,3.593-.763,1.042-2.313,1.573-3.423,2.492-1.828,1.592-3.54,3.307-5.3,4.961.232,3.513-2.313,6.779-1.272,10.352a14.415,14.415,0,0,0,1.087,2.349,51.392,51.392,0,0,1,7.542-3.084,19.352,19.352,0,0,0,6.592-2.96Zm37.29,13.314a11.4,11.4,0,0,1,6.13,1.022c3.632,1.326,7.4,3.021,10.8-.49a1.007,1.007,0,0,1,.347-.143c4.835-2.043,6.038-5.922,6.94-10.211a25.439,25.439,0,0,1-3.724.633,14.369,14.369,0,0,0-5.019,1.075,12.965,12.965,0,0,0-4.142,2.724c-2.66,2.532-5.9,2.43-9.068,3.083-.347,0-.809-.367-1.226-.572,1.018-1.7,1.041-1.8,2.568-1.7a9.332,9.332,0,0,0,5.829-1.735c3.193-2.043,6.64-3.7,9.832-5.452a12.246,12.246,0,0,0-6.535-1.529,12.015,12.015,0,0,0-6.327,2.1,51.258,51.258,0,0,1-8.166,3.043c-2.707,1-5.413,2.042-8.582,3.247C149.342,3716.1,152.165,3718.24,156.791,3717.4Zm37.568-9.4a5.329,5.329,0,0,0-2.614.688,4.493,4.493,0,0,0-1.781,1.824,28.186,28.186,0,0,1-7.287,7.1l-1.157-2.041c-.786,1.082-2.151,2.041-2.105,3.1.208,3.533-2.313,6.309-3.053,9.515a10.566,10.566,0,0,1-1.435,2.389c-.6-.428-1.318-.776-1.272-.939.833-2.859,1.758-5.7,2.66-8.474-3.47.735-4.626,1.634-4.973,4.349-.255,1.613-.278,3.267-.694,4.86a5.439,5.439,0,0,0,.168,3.354,6.169,6.169,0,0,0,2.145,2.771c8.582-4.859,10.433-7.8,11.705-14.639a20.274,20.274,0,0,1,6.246-10.618c1.111-1.164,2.314-2.185,3.493-3.247Zm16.66-4.458c-1.648-.54-2.731-1-3.908-1.289-3.344-.831-6.711-1.621-10.078-2.431-2.354-1.267-5.581-.956-6.734-3.991-.33-.831-2.354-1.309-3.579-1.662-4.1-1.143-8.288-2.079-12.315-3.284-2.072-.666-3.908-1.371-5.933,0a10.687,10.687,0,0,0-3.508-2.306,11.867,11.867,0,0,0-4.262-.874,15.894,15.894,0,0,1-4.709-.726c-3.461-1.352-6.687-3.223-10.218-4.428a41.837,41.837,0,0,1-13.681-8.5c-1.271-1.06-3.414-1.871-3.791-3.118-.941-3.2-5.133-3.782-6.192-6.692-2.661,0-1.79-1.87-1.978-2.514-2.825-2.079-5.3-3.908-7.558-5.861s-4.992-4.7-7.534-7c-.848-.769-2.591-1.352-1.178-2.577s2.354,0,3.179.873l.518.5c3.084,2.972,6.121,5.944,9.253,8.854a17.763,17.763,0,0,0,2.637,1.662c-.659-2.929-1.342-5.382-1.766-7.855a6.35,6.35,0,0,0-1.244-2.96,7.434,7.434,0,0,0-2.617-2.153,103.336,103.336,0,0,0-9.23-4.655c-3.65-1.538-7.464-2.744-10.219-5.549h.078a35.955,35.955,0,0,0,3.083,11.149,19.153,19.153,0,0,0,5.053,7.486,22.493,22.493,0,0,0,8.25,4.788,15.511,15.511,0,0,1,4.381,2.5c5.33,4.419,10.591,8.94,15.806,13.482.418.368.464,1.084.7,1.657-.741,0-1.692.552-2.317.286-5.377-2.577-11.96-2.475-16.942-5.913a2.536,2.536,0,0,0-1.043-.326,32.809,32.809,0,0,1-10.569-3.928c-4.4-2.23-8.552-4.869-12.816-7.325a17.073,17.073,0,0,0-1.925-1,1.791,1.791,0,0,0-.682-.159,1.834,1.834,0,0,0-.695.106,1.674,1.674,0,0,0-.581.355,1.421,1.421,0,0,0-.359.537,39.465,39.465,0,0,0,4.08,2.946,59.73,59.73,0,0,0,9.27,4.6,76.007,76.007,0,0,1,9.734,4.092c4.079,2.045,8.32,3.927,12.585,5.748,3.777,1.6,7.718,2.946,11.588,4.542,2.04.858,2.527,2.045,1.182,3.744a21.14,21.14,0,0,1-4.311,3.272c-.648.451-1.622.737-1.9,1.289a33.761,33.761,0,0,0-2.317,5.831c-.417,1.35-1,3.518-.254,4.091,1.807,1.432,1.459,2.782,1.135,4.419a1.838,1.838,0,0,0,.115.809,1.976,1.976,0,0,0,.465.7,11.033,11.033,0,0,1,2.572,5.728,11.666,11.666,0,0,0,1.39,2.558c1.971-2.5,3.709-4.583,5.308-6.751a3,3,0,0,0,.371-1.861,61.989,61.989,0,0,0-.441-6.894,15.659,15.659,0,0,0-1.553-6.772,5.163,5.163,0,0,0-1.532,2.139,4.621,4.621,0,0,0-.206,2.525c0,2.046.162,4.091.186,6.261A1.964,1.964,0,0,1,129.38,3704c-.256-.512-.766-1.064-.766-1.6,0-3.519,0-7.037.233-10.535a5.439,5.439,0,0,1,1.413-2.639c.835-1.063,1.947-2.046,2.874-3.028a4.606,4.606,0,0,1,1.88-1.3,5.194,5.194,0,0,1,2.362-.3,29.042,29.042,0,0,1,8.25,1.473c3.338,1.063,7.208.941,10.43,2.188a91.43,91.43,0,0,0,17.29,3.929c4.218.736,8.25,1.227,11.935,3.764,2.712,1.882,6.583,2.474,9.967,3.558.255,0,.765-.511,1.181-.777,1.971,1.413.928,2.824,0,4.256h-6.141c-.616.392-1.219.574-1.689.925-1.712,2.042-4.812,3.247-4.418,6.413a6.79,6.79,0,0,1-.44,2.164,9.406,9.406,0,0,0,3.817-3.125,11.213,11.213,0,0,1,5.945-4.676,13.805,13.805,0,0,1,2.66-.7h.965c.541.414,1.271.747,1.53,1.288s-.259,1.1-.636,2.41l6.122-3.429a7.231,7.231,0,0,0,3.557.516A6.934,6.934,0,0,0,211.019,3703.542Zm1.87,30.93-5.552-.816a45.639,45.639,0,0,1-3.748,6.411,6.516,6.516,0,0,0-1.271,2.685,6.137,6.137,0,0,0,.091,2.91c.463,2.593,1,5.166,1.643,7.739a9.688,9.688,0,0,0,1.68,3.973,11.112,11.112,0,0,0,3.34,3.05,28.553,28.553,0,0,1,3.655,2.777,2.611,2.611,0,0,0,1.017.7,2.943,2.943,0,0,0,1.274.192,2.884,2.884,0,0,0,1.224-.365,2.479,2.479,0,0,0,.88-.835,8.274,8.274,0,0,0,2.313-6.125,61.136,61.136,0,0,0-.532-7.188,11.859,11.859,0,0,0-2.521-5.718,11.746,11.746,0,0,1-2.9-4.363A10.664,10.664,0,0,1,212.889,3734.472Zm29.194-21.521a34.341,34.341,0,0,0,9.392,1.735,113.738,113.738,0,0,1,16.911,2.043,16.632,16.632,0,0,0,9.577,0l-1.712-1.858c-2.5-2.675-2.545-2.655-6.292-1.715a14.713,14.713,0,0,1-3.147.122c-4.163,0-8.281-1.593-12.191-.327a21.75,21.75,0,0,0-4.094-1.735c-6.269-1.205-12.609-2.166-18.9-3.391-5.413-1.061-10.757-2.348-16.586-3.634.786,3.471,5.251,4.859,18.252,6.126,0,.409,0,1.042-.162,1.164-2.475,1.184-5.02,2.266-7.5,3.451-1.411.673-1.966-.531-2.915-.857a1.775,1.775,0,0,0-.74,0c-2.776.387-5.575.714-8.351,1.143a24.519,24.519,0,0,0-9.808,4.455,20.824,20.824,0,0,0-6.385,7.939c3.238.816,6.523,1.695,9.831,2.471a25.891,25.891,0,0,0,4.627.816c1.434-.066,2.863-.2,4.279-.409,2.152-.143,4.4-.264,5.6-2.041,1.989-2.961,3.724-6.023,5.829-9.475-2.313.225-4.626-.121-5.182.634-1.989,2.328-5.135,3.021-7.4,4.859a11.9,11.9,0,0,1-3.979,1.735c-.44.143-1.157-.326-2.175-.653.926-.592,1.388-.919,1.9-1.183a61.721,61.721,0,0,0,8.768-4.963c3.377-2.674,7.472-2.94,11.427-3.859a44.206,44.206,0,0,0,5.83-1.8,6.8,6.8,0,0,1,2.548-.922A7.1,7.1,0,0,1,242.083,3712.951ZM276.366,3721h-.347l-11.265-1.041a11.026,11.026,0,0,0,5.455,2.015,11.457,11.457,0,0,0,5.81-.974h.347c3.031,1.43,6.246.143,9.254.429A20.09,20.09,0,0,0,276.366,3721Zm-22.439-1.76c2.2,1.409,4.164,2.817,6.293,3.941.532.286,1.688-.347,2.776-.633-3.216-3.1-4.673-3.635-9.045-3.328ZM270,3739.659a6.052,6.052,0,0,0,3.285-1.818c3.7-3.43,6.246-7.779,11.4-10.6a11.149,11.149,0,0,0-6.616.654c-3.933,1.756-7.7,3.838-11.567,5.676a6.332,6.332,0,0,1-2.333.9,6.658,6.658,0,0,1-2.548-.046,14.509,14.509,0,0,1,2.638-2.041c6.083-2.7,12.237-5.309,18.737-8.167a32.737,32.737,0,0,0-4.117-.2c-4.627.347-9.254,1.082-14.065,1.1a10.74,10.74,0,0,0-6.94,2.614,8.239,8.239,0,0,0-1.619,1.368c-1.99,2.43-5.09,4.084-6.5,6.963a24.136,24.136,0,0,0,10.988,3.287,57.752,57.752,0,0,0,9.253.286Zm100,42.022a7.065,7.065,0,0,0,3.035-2.175,5.87,5.87,0,0,0,1.291-3.258,7.007,7.007,0,0,0-3.038,2.161,5.813,5.813,0,0,0-1.288,3.252Zm-53-16.336c-5.968-2.858-11.358-6.656-17.026-10.025-.879-.531-1.85-.9-2.776-1.348-.948,1.245-.139,1.817.6,2.409a110.576,110.576,0,0,0,20.681,13.967,71.645,71.645,0,0,0,10.039,4.961c5.853,1.736,11.983,2.736,17.975,4.085,3.724.816,7.448,1.613,11.15,2.471,2.313.551,4.626,1.163,7.148,1.755l3.863-8.168c-.254,0-.44-.286-.671-.306l-27.343-2.491a21.953,21.953,0,0,1-5.136-.572A169.126,169.126,0,0,1,317,3765.325Zm-17.015-30.1c.231-1.246.486-2.491.717-3.736l-.879-.388-2.683,1.776,2.059,2.491ZM334,3746.008a3,3,0,0,0-.972.585,2.584,2.584,0,0,0-.635.874,2.328,2.328,0,0,0-.2,1.024,2.352,2.352,0,0,0,.276,1.009c1.318-1.306,2.382-2,1.526-3.512Zm-29.758-11.536c-.81,2.349.856,3.165,2.313,3.961,5.6,3.227,11.243,6.432,16.933,9.516,3.354,1.817,5.228.878,5.969-2.92C320.527,3742.639,311.783,3740.108,304.242,3734.472ZM297,3727.306c-2.66.469-2.5,2.245-2.66,4.083,3.262-.674,3.262-.674,2.66-4.165Zm1-2.593a6.415,6.415,0,0,0-3.191-.529,6.209,6.209,0,0,0-3.008,1.079c-3.1,2.533-7.75,3.635-9.253,7.657-.255.633-1.3,1-1.8,1.594a40.113,40.113,0,0,0-5.3,6.676,17.893,17.893,0,0,0-.926,6.126c2.846,3.266,3.517,7.391,5.483,10.984a18.252,18.252,0,0,0,1.851,2.859c1.873,2.43,3.817,4.84,5.76,7.228.37.45.856.8,1.758,1.654.763-11.6,1.5-22.46,2.313-33.526l-.995-.328a32.907,32.907,0,0,1-3.585,4.86,6.243,6.243,0,0,0-1.938,3.123,5.7,5.7,0,0,0,.249,3.554,25.46,25.46,0,0,1,1.2,4.452,24.432,24.432,0,0,1,.185,5.205c0,.389-.971.736-1.642,1.226-.44-2.879-.764-5.268-1.18-7.636a45.04,45.04,0,0,1-1.087-5.473,6.5,6.5,0,0,1,1.087-3.7c2.822-4.309,5.945-8.494,8.79-12.782,1.134-2.083,1.967-4.288,5.228-4.391Zm4.53-.45c-1.758-.715-2.475-.408-2.522,1.348Zm15.221-28.24c.764,1.715,1.62,3.39,2.452,5.145,1.758-1.265.648-4.083,3.91-4.961-.417,2.573,0,5.1-1.249,6.861-1.782,2.654-1.643,5.656-3.1,8.27a2.749,2.749,0,0,0-.362,1.147,2.7,2.7,0,0,0,.168,1.182,2.964,2.964,0,0,0,.672,1.032,3.4,3.4,0,0,0,1.072.723c1.226-2.838,2.313-5.635,3.608-8.169a16.011,16.011,0,0,0,.232-13.68,27.756,27.756,0,0,0-2.128-3.879,28.9,28.9,0,0,0-3.378,1.326c-2.938,1.614-3.123,2.1-1.8,5.024Zm-9.322,18.2c-.185.469-.394.939-.694,1.633l3.932,1.143c.139-4.43-3.308-7.228-4.9-10.7s-4.141-6.657-5-10.618a4.132,4.132,0,0,1,2.319.537,3.408,3.408,0,0,1,1.475,1.668c2.776,5.084,5.321,10.209,8,15.416a7.118,7.118,0,0,0,1.388,1.409,14.461,14.461,0,0,0-.3-14.763,5.038,5.038,0,0,1-.694-1.51,6.653,6.653,0,0,0-1.213-2.561,7.629,7.629,0,0,0-2.233-1.952L299.083,3686H298.2c-.625,3.634-1.134,7.309-1.92,10.944a8.819,8.819,0,0,0,1.365,6.636,68.7,68.7,0,0,0,5.228,7.534,6.258,6.258,0,0,0,2.144,1.81,7.155,7.155,0,0,0,2.829.783A1.864,1.864,0,0,1,308.429,3714.218ZM280,3713.423c.161,1.525.254,2.54.345,3.658a79.128,79.128,0,0,1,17.287,2.986c5.778,1.4,11.832,2.031,17.724,2.966,3.245.57,6.445,1.341,9.644,2.032.6.163,1.565.874,1.5,1.179-.346,1.807,1.288,2.031,2.416,2.336,1.7.63,3.545.975,5.248,1.564,5.732,2.032,11.51,4.065,17.148,6.1a83.674,83.674,0,0,1,15.261,6.643,22.2,22.2,0,0,0,3.43,1.362v-.956c-2.715-2.5-5.432-4.977-8.217-7.5a17.29,17.29,0,0,1,1.082-1.442l8.516,6.317c.345-.974.668-1.827.944-2.6a2.6,2.6,0,0,1,.967-.117,2.544,2.544,0,0,1,.935.248,2.258,2.258,0,0,1,.734.568,1.909,1.909,0,0,1,.4.785,18.788,18.788,0,0,0,2.187,3.778,9.229,9.229,0,0,0,5.363,4.064,11.031,11.031,0,0,0-1.772-3.413,26.384,26.384,0,0,1-2.716-3.515,7.011,7.011,0,0,0-2.516-2.787,8.323,8.323,0,0,0-3.768-1.277c-3.13-.528-6.192-1.422-9.208-2.173-2.876-1-5.708-2.032-8.631-2.926-2.44-.732-5.017-1.1-7.481-1.829-5.363-1.605-10.726-3.311-16.113-5l-9.736-3.048c-2.669-.811-5.317-1.645-8.01-2.437a8.117,8.117,0,0,1-2.117-.508c-2.74-1.869-5.893-1.849-9.208-2.032a12.238,12.238,0,0,1-7.918-2.215,1.917,1.917,0,0,0-1.013-.365c-4.1-.061-8.217-.264-12.706-.508Zm-79.6-80.575a6.424,6.424,0,0,0,.578,2.205c2.128,2.531,4.28,5.064,6.57,7.494,2.614,2.757,5.459,5.35,8.05,8.168a58.254,58.254,0,0,1,6.57,7.9,29.744,29.744,0,0,0,7.148,7.882,74.632,74.632,0,0,1,7.287,6.534c3.286,3.267,6.362,6.677,9.694,10.21-.556,1.265-1.3,1.715-2.591.9a9.3,9.3,0,0,0-2.8-1.531,12.145,12.145,0,0,1-5.3-3.349,13.709,13.709,0,0,0-3.493-2.247c-3.909-1.449-7.981,0-11.913-.592,4.164,4.636,8.1,9.107,12.144,13.5a8.761,8.761,0,0,0,3.493,2.307c4,1.185,8.075,2.185,12.378.695a31.375,31.375,0,0,1,5.112-.9c1.041,1.286,2.313,2.573,3.215,3.941,3.1,4.206,6.246,8.412,9.254,12.68a3.2,3.2,0,0,0,1.578,1.541,3.831,3.831,0,0,0,2.331.277c1.041-.2,2.128-.306,3.239-.469-.162-2.043.277-4.085-1.5-5.718-.995,1.837,0,4.288-3.169,4.675a15.26,15.26,0,0,0-1.319-2.674c-1.48-2.043-3.1-3.941-4.626-5.882a58.707,58.707,0,0,0-7.241-8.31,34.3,34.3,0,0,1-6.2-6.88c-2.521-3.492-5-7.024-7.7-10.414s-5.368-6.309-8.213-9.351a3.151,3.151,0,0,1-.968-1.7,2.928,2.928,0,0,1,.274-1.891,13.5,13.5,0,0,0,.6-9.658,7.724,7.724,0,0,1-.32-3.913,8.158,8.158,0,0,1,1.662-3.641c1.712-2.287,3.309-4.635,4.882-7a7.526,7.526,0,0,0,1.359-3.723,7.328,7.328,0,0,0-.757-3.853,61.668,61.668,0,0,1-2.315-6.126c-1.619.266-4.071,0-4.95.919-3.077,3.165-6.94,5.738-8.235,10.21-1.134,4.084.439,7.168,1.665,10.843,2.1-1.756,2.036-1.756,2.036-3.41a6.513,6.513,0,0,1,.532-2.042c.486-1.246,1.064-2.451,1.619-3.656,1.249-2.614,2.475-5.227,3.794-7.82a2.5,2.5,0,0,1,1.365-.98,1.27,1.27,0,0,1,.644-.062,1.181,1.181,0,0,1,.577.26.984.984,0,0,1,.322.5.9.9,0,0,1-.039.572,24.6,24.6,0,0,1-2.707,5.635,15.977,15.977,0,0,0-3.609,10.762c.232,5.37.787,10.74,1.2,16.048a21.066,21.066,0,0,0-2.776,0c-1.642.246-2.961-.326-3.1-1.673a11.047,11.047,0,0,0-4.164-6.331c-3.817-3.879-7.356-7.963-11.08-11.923-2.614-2.758-5.3-5.474-8-8.169A9.433,9.433,0,0,0,200.4,3632.848Zm-6.223-6.738a7.587,7.587,0,0,0,1.735.571c-1.157-2.389-1.573-4.309.393-5.881a68.963,68.963,0,0,1,6.13-4.757c3.586-2.287,4.789-4.411,3.563-8.167s-2.568-6.759-3.886-10.209l-1.018-.225c-.648,1.245-1.3,2.47-1.92,3.716-1.111,2.184-2.105,4.41-3.308,6.534s-2.823,4.369-4.049,6.636a10.9,10.9,0,0,0-.56,6.162A11.658,11.658,0,0,0,194.174,3626.11Zm-29.656-21.57a9.952,9.952,0,0,0-2.869-.51c-5.3-.675-10.525-1.206-15.638.959a17.055,17.055,0,0,1-4.048.388c-1.272.142-2.568.388-3.956.613.579,2.471,2.707,2.042,4.21,2.552,5.3,1.491,10.757,2.634,14.805,6.391a7.145,7.145,0,0,0,2.314,1.245,26.738,26.738,0,0,0,13.024,2.042,4.041,4.041,0,0,0,2.116-.742,3.309,3.309,0,0,0,1.238-1.688c1.8,1,3.817,1.573,4.788,2.777,2.314,3.043,6.154,4.779,8.93,7.433h.809c-1.156-2.267-1.735-4.635-4.048-6.126-2.822-1.9-5.575-3.9-8.328-5.839l-2.313.816a5.59,5.59,0,0,0-.671-2.042A28.721,28.721,0,0,0,164.518,3604.54Zm-17.4-12.285a41.056,41.056,0,0,1-4.9-4.921c-2.313-3.43-4.973-6.8-4.973-11.169a16.648,16.648,0,0,0-1.62-5c-.624-1.879-1.411-3.717-1.9-5.616-.255-1.041.347-1.919,2.174-1.858,1.735,5.575,3.47,11.19,5.274,17.009,2.869-2.7,3.239-3.267,3.17-4.962a16.021,16.021,0,0,0-5.367-10.556c-2.753-2.736-5.436-5.411-5.853-9.27,0-.449-.6-.858-1.018-1.389a6.49,6.49,0,0,0-1.821,2.351,5.76,5.76,0,0,0-.492,2.815,18.851,18.851,0,0,1-.463,4.574,10.578,10.578,0,0,0,.717,8.331,52.172,52.172,0,0,0,2.961,4.533c.556.837,1.342,1.674-.347,2.777l-6.939-4.594a13.967,13.967,0,0,0-3.864-2.144,10.143,10.143,0,0,1-6.107-3.9l-.694.714a21.794,21.794,0,0,0,3.725,3.451,26.7,26.7,0,0,1,8.351,8.168c4.788,1.225,10.086,1.551,11.936,6.7.162.449.833.755,1.3,1.123q5.62,4.554,11.265,9.107c.833.653,1.6,1.654,3.17,1.062a35.3,35.3,0,0,1-2.869-2.328C150.268,3595.624,148.741,3593.889,147.122,3592.255Zm24.937-.429a8.684,8.684,0,0,0-2.357-2.909,10.072,10.072,0,0,0-3.5-1.807c-2.706-.592-5.3-1.511-7.934-2.287-1.435,8.413,4.858,17.968,14.712,21.848-3.007-5.145-4.233-10.965-10.086-14.293,1.9-2.042,2.314-2.042,3.887-.919a6.393,6.393,0,0,1,1.665,1.756c2.152,3.8,4.257,7.657,6.362,11.495l2.8,4.86,1.272-.347c-.347-1.45-.624-2.9-1.064-4.349a21.168,21.168,0,0,1-1.249-3.43A22.3,22.3,0,0,0,172.059,3591.826Zm.325-14.789a7.832,7.832,0,0,0-1.062,5.11,8.268,8.268,0,0,0,2.427,4.732,25.042,25.042,0,0,1,5.251,6l0,.136c-.724,1.453.179,2.434,1.2,3.6,1.457-2.042-.37-2.614-1.2-3.593v-.225c.856-1.879-.787-3.186-1.481-4.717s-1.6-2.655-.416-4.084h.625l3.493,4.492a11.9,11.9,0,0,0-2.56-6.866,14.383,14.383,0,0,0-6.346-4.568ZM276.158,3673.5c.625-1.694,1.018-3.47,1.527-5.206l-.972-.347a7.31,7.31,0,0,0-1.087,1.572c-.578,1.491-1.041,3.042-1.527,4.574a1.265,1.265,0,0,0,1.9-.654Zm-114.347,3.329c.532-3.247.972-6.493,1.2-9.739,0-1.165.139-2.655-1.943-3.023a16.569,16.569,0,0,1-.555,5.248,13.938,13.938,0,0,0-.648,8.33C160.562,3677.4,161.765,3677.177,161.811,3676.83Zm45.873,63.768a10.849,10.849,0,0,1,.185,2.266,13.465,13.465,0,0,0,2.313,9.127c1.342,2.226,2.5,4.533,3.84,6.759a5.781,5.781,0,0,0,1.411,1.184l.694-.224a6.3,6.3,0,0,0-.185-2.307c-.856-1.818-1.9-3.553-2.892-5.33a13.374,13.374,0,0,1-2.59-8.719,20.047,20.047,0,0,0,.162-4.552c0-.532-.6-1.022-.972-1.594C207.846,3738.74,207.684,3739.026,207.684,3740.6Zm36.736-54.559a5.375,5.375,0,0,0-2.479-1.034,5.687,5.687,0,0,0-2.726.258,5.729,5.729,0,0,1-2.907.279,5.366,5.366,0,0,1-2.6-1.178c-1.295-.919-2.66-1.755-4.326-2.859-.578,2.573,1.55,3.248,2.684,4.288a5.572,5.572,0,0,0,3.044,1.789,6.154,6.154,0,0,0,3.642-.3,3.9,3.9,0,0,1,2.169-.168,3.557,3.557,0,0,1,1.856,1.006c1.2.939,2.568,1.715,3.84,2.572a2.015,2.015,0,0,0,3.054-.735c.6-1.041-.139-1.736-1.411-2.042a17.5,17.5,0,0,1-3.771-1.96Zm-265.152-94.968c.416-.429.416-1.164.763-2.287l-5.644,4.084a6.118,6.118,0,0,0,2.7-.339A5.432,5.432,0,0,0-20.732,3591.071Zm-7.426-47.576c-2.059-.184-2.521.9-2.313,2.042a56.9,56.9,0,0,0,2.313,6.126c.139.285.787.388,1.874.9C-26.885,3549.212-27.51,3546.354-28.158,3543.5Zm40.368,48.617c.231-4.512-.209-9-.324-13.946-2.452,2.41-2.892,9.842-1.2,15.8C11.446,3593.051,12.186,3592.582,12.21,3592.112Zm165.146,50.476a34.285,34.285,0,0,0-11.312-12.252c-.856-.571-1.827-.674-2.752.694,4.927,3.839,10.34,7.535,12.052,13.825l2.313-.939A5.371,5.371,0,0,0,177.356,3642.588ZM197,3615.553a17.971,17.971,0,0,1,4.626-7.718,5.046,5.046,0,0,0,.9-3,15.7,15.7,0,0,0-.232-3.043c-2.614-.244-2.452.94-2.082,1.838a3.637,3.637,0,0,1,.178,2.58,4.078,4.078,0,0,1-1.612,2.157,3.809,3.809,0,0,0-1.087,1.308c-.995,2.2-2.984,4.185-2.152,7.432.833-.736,1.342-1.062,1.458-1.491Zm7,65.871c1.944,2.859,5.784,4.083,8.189,2.593-2.776-2.409-5.2-3.185-8.189-2.532ZM80.452,3630.193c.3-1.532,1.3-3.063,0-5.044a4.427,4.427,0,0,0-2,2.055,3.761,3.761,0,0,0-.176,2.7,1.428,1.428,0,0,0,.416.505,1.683,1.683,0,0,0,.625.292C79.666,3630.744,80.452,3630.336,80.452,3630.193Zm110.321,48.8c-.485,0-1.017.878-1.526,1.328,0,.224.231.429.324.633,4.325-.307,8.582,1.163,12.977,0C199.009,3678.484,194.752,3679.341,190.773,3678.994Z" transform="translate(61.727 -3504.767)" fill="#101a24" opacity="0.1"/>
</svg>
