<svg xmlns="http://www.w3.org/2000/svg" width="351.791" height="451.44" viewBox="0 0 351.791 451.44">
  <path id="hierba2" d="M1265.23,2800.863c1.8,3.731.588,7.514,2.152,10.941C1263.944,2810.971,1263.365,2807.841,1265.23,2800.863Zm59.611-140.319s.1-.057.054-.066Zm-85.98,117.8c.728-1.789,1.756-3.082,1.657-4.262-.538-5.775,1.921-9.93,4.964-13.84a5.638,5.638,0,0,0,1.361-2.407,6.444,6.444,0,0,0,.13-2.893A21.384,21.384,0,0,0,1238.861,2778.345Zm61.045,85.258c.354,2.389.354,2.389,2.357,3.247l-.793-13.042C1299.559,2855.441,1299.162,2858.56,1299.906,2863.6Zm-73.714,11.966c1.446,3.095,2.662,5.86,4.069,8.535a4.5,4.5,0,0,0,1.674,2.246,3.549,3.549,0,0,0,2.506.614C1231.7,2882.764,1231.231,2877.387,1226.192,2875.569ZM1198.15,2754.65c.244-2.813,1.936-3.793,3.106-5.134s2.382-2.109,3.46-3.443a18.586,18.586,0,0,1,7.152-5.553,16.852,16.852,0,0,1,8.664-1.278,20.924,20.924,0,0,1,10.516,4.289,14.744,14.744,0,0,0,7.527,2.437,38.8,38.8,0,0,0,8.259.081c3.381-.157,3.4-.257,4.405-4.621-4.625-1.685-7.936-5.662-11.585-9.114-.91-.875-1.988-2.222-2.995-2.162-2.675.143-3.816-1.965-5.238-3.817-.876-1.152-1.879-2.2-2.726-3.4a24.326,24.326,0,0,1-1.475-2.869,53.229,53.229,0,0,1,16.836-4.13,9.474,9.474,0,0,1,5.506,1,11.361,11.361,0,0,1,4.369,4.043,32.575,32.575,0,0,0,2.03,2.978,36.46,36.46,0,0,0,3.32,3.9,6.266,6.266,0,0,0,4.217,2.294,5.7,5.7,0,0,0,4.385-1.526c4.218-2.983,8.317-6.093,12.522-9.155,3.316-2.311,6.765-4.416,10.133-6.612,1.239-.813,2.479-1.625,3.876-2.614l-1.134-2.336a25.743,25.743,0,0,1-12.517,2.688,4.961,4.961,0,0,1-1.789-.044c-3.89-1.745-8.115-2.81-10.77-7.122-.979-1.584-2.294-3.03-3.29-4.49a57.244,57.244,0,0,1-6.32-15.833c3-.543,5.42-1.9,8.075.793.886.9,2.97.586,4.5.346a15.625,15.625,0,0,1,7.687.476,17.687,17.687,0,0,1,6.876,4.146c.363.355.914.67,1.085,1.117,1.905,5.374,6.357,5.016,10.162,6.178a92.9,92.9,0,0,1,9.756,3.313,4.995,4.995,0,0,0,5.369-.616,79.521,79.521,0,0,1,12.093-7.721,76.411,76.411,0,0,0,7.885-3.6c4.4-2.638,8.768-5.361,13.211-7.965,2.039-1.2,4.183-2.165,6.785-3.509a8.2,8.2,0,0,0-4.618-1.1,8.05,8.05,0,0,0-4.408,1.7c-7.486,5.276-15.451,8.424-24.491,6.461a33.557,33.557,0,0,1-17.034-8.95,6.47,6.47,0,0,1-.638-1.415c1.955-2.861,5.518-1.952,7.849-4.019s4.86-3.734,7.557-5.831c-.766-.77-1.527-1.564-2.318-2.312a38.3,38.3,0,0,1-2.824-2.618c-2.187-2.624-3.4-4.176-.436-7.819a98.908,98.908,0,0,1,13.228,3.148c5.6,1.722,9.585,5.369,13.988,9.149a9.408,9.408,0,0,0,5.172,2.6,8.5,8.5,0,0,0,5.49-1.069,4.855,4.855,0,0,1,2.125-.277c2.882-.154,5.755-.232,8.626-.49,1.4-.111,3.161-.023,4.071-.925a10.8,10.8,0,0,0,3.323-5.582,43.841,43.841,0,0,1,5.332-14.414,18.679,18.679,0,0,0,1.061-4.044L1361.5,2643.1a15.725,15.725,0,0,1-7.052,1.092,16.576,16.576,0,0,1-6.944-2.149,14.957,14.957,0,0,0-8.809-2.175,28.1,28.1,0,0,0-4.558,1.37c.008-1.674-.37-3.166.1-3.846,1.234-1.664,1.962-3.815,4.043-4.822a14.734,14.734,0,0,0,4.335-4.068c2.277-2.722,4.4-5.63,6.576-8.474-3.472-4.318-6.684-8.172-6.822-14.23,4.462.647,8.125-1.184,12.04-2.139a13.705,13.705,0,0,1,8.911,1.371c2.365,1.059,4.522,2.67,6.816,3.921l11.346,6.514a89.278,89.278,0,0,0,6.628-18.333,164.733,164.733,0,0,1,11.56-31.228c.465-.966.8-1.982,1.2-2.961a6.366,6.366,0,0,1,1.422-2.288,5.43,5.43,0,0,1,2.154-1.363,31.1,31.1,0,0,0,4.069-2.342c.615-.369,1.284-.985,1.892-.942,2.973.2,5.211-1.679,7.689-2.944,1.553-.776,3.087-2.3,4.918-.268a7.524,7.524,0,0,1,1.289,3.311,7.615,7.615,0,0,1-.346,3.551,192.441,192.441,0,0,1-12.739,23.882c-1.17,1.883-2.218,3.867-3.3,5.792-4.53,7.923-9.082,15.84-13.57,23.8-.822,1.461-1.188,3.27-2.013,4.757-1.527,2.715-3.263,5.285-4.894,7.928a10.192,10.192,0,0,0-1.019,1.578c-.875,2.07-1.73,4.144-2.478,6.264a9.093,9.093,0,0,0-.294,2.313c1.969.955,3.709,1.918,5.5,2.657a3.493,3.493,0,0,0,2.622.222,3.814,3.814,0,0,0,2.11-1.713,74.676,74.676,0,0,0,12.19-22.237c.454-1.251.7-2.62,1.171-3.842a73.81,73.81,0,0,1,3.02-7.137,2.285,2.285,0,0,1,1.035-.6,2.177,2.177,0,0,1,1.173.026,14.029,14.029,0,0,1,7.136,5.5,5.717,5.717,0,0,1,.483,5.843c-1.969,4.766-3.74,9.573-5.952,14.29a24.359,24.359,0,0,1-4.37,5.765c-2.159,2.331-4.492,4.422-6.727,6.638-1.405,1.4-2.768,2.83-1.128,5.292l-6.962,3.474c3.671,1.136,6.384,2.135,9.142,2.781a2.724,2.724,0,0,0,1.966.054,3.006,3.006,0,0,0,1.556-1.319,1.655,1.655,0,0,1,.516-.538,1.458,1.458,0,0,1,.674-.232c3.1.095,4.648-2.434,6.4-4.614,2.674-3.16,5.209-6.294,7.692-9.569a76.752,76.752,0,0,0,14.829-33.341c1.043-5.7,1.934-11.449,3.066-17.128a57.061,57.061,0,0,1,7.257-18.468c1.669-2.764,2.594-2.529,4.5.371s3.869,5.3,5.8,8a9.174,9.174,0,0,1,1.194,9.54q-2.517,5.845-4.754,11.822c-1.182,3.4-1.937,7.015-2.945,10.476a60.458,60.458,0,0,1-9.3,19.534c-3.657,4.821-7.071,9.87-10.921,14.42s-8.039,8.365-12.2,12.674c.963,2.071,3.037,2.2,4.765,3.078,3.095,1.564,6.186,3.152,9.211,4.908,1.291.745,2.679,1.792,2.288,3.8s-1.818,1.782-3.1,2.224c-2.385.9-4.808,2.069-7.215,3.141a83.647,83.647,0,0,1-9.236,4.03c-3.664,1.134-4.038,1.394-3.047,6.1-4.382-1.276-8.407-2.482-12.522-3.7-.781,3.635-1.35,7.028-2.284,10.272a79.561,79.561,0,0,1-3.5,9.621c-1.348,3.084-3.032,5.973-4.871,9.53l-11.133-17.3c-3.311,2.285-6.268,4.279-9.143,6.343a2.313,2.313,0,0,0-.6.7,2.729,2.729,0,0,0-.312.92,109.609,109.609,0,0,0-1.132,13c-.061,3.158,1.97,5.234,4.3,6.774,1.464.984,2.96,1.9,4.454,2.837a12.8,12.8,0,0,1,5.282,5.3,14.992,14.992,0,0,1,1.787,7.7,13.463,13.463,0,0,0,9.184-.768c4.82-2.169,9.679-1.623,14.58-1.405a8.19,8.19,0,0,1,4.119,1.55,9.869,9.869,0,0,1,3.018,3.595,7.359,7.359,0,0,0,2.009,2.82,6.087,6.087,0,0,0,2.929,1.4l-.117,4.668c-3.979,3.056-7.548,5.755-11.159,8.6a9.816,9.816,0,0,1-6.38,2.3c-3.5-.02-6.988-.243-10.474-.338a7.048,7.048,0,0,1-4.864-2.479c-2.005-2.1-4.336-3.947-6.7-6.089a12.215,12.215,0,0,0-3.289,7.987c-.005,3.787-.541,4.249-3.115,5.03-1.563.491-2.584-.226-2.565-1.794.035-2.777-1.611-4.132-3.062-5.758-3.951-4.645-7.48-9.593-8.243-16.265a42.008,42.008,0,0,1-.136-4.46c0-1.288.076-2.562.139-4.664a32.383,32.383,0,0,0-5.382,8.914c-3.058,6.176-.566,11.411,1.8,16.9s6.843,8.179,12.075,9.544c1.773.35,3.245,2.7,4.807,4.169s2.609,2.886,4.032,4.018a13.253,13.253,0,0,1,5,6.422c.669,2.066,1.778,3.881,2.512,5.96.965,2.947-.022,4.816-2.681,4.471s-5.262,1.541-8.17.3a54.226,54.226,0,0,0-8.192-2.386c-1.537,3.15-3.2,6.224-4.515,9.418a9.226,9.226,0,0,0-.6,4.728,6.642,6.642,0,0,1-.484,3.787,5.375,5.375,0,0,1-2.419,2.6c-2.14,1.459-4.37,2.747-6.617,3.979s-3.335.683-3.949-2.17c-.762-3.475-1.219-7.018-1.958-10.489a74.412,74.412,0,0,0-2.6-10.822,26.546,26.546,0,0,1-1.5-9.626,7.688,7.688,0,0,1,1.66-4.828c1.855-2.443,3.455-5.195,1.123-8.826a8.927,8.927,0,0,1-.492-3.989,11.662,11.662,0,0,0-.337-3.958c-.9,1.885-1.712,3.813-2.673,5.66s-2.331,4.024-3.41,6.08a23.1,23.1,0,0,0-2.416,5.246,99.5,99.5,0,0,1-7.027,19.517,28.321,28.321,0,0,0-1.086,3.884c-.645,2.039-1.183,4.123-1.851,6.157s-1.685,4.668-2.549,7a9.987,9.987,0,0,0,3.631,2.239,8.863,8.863,0,0,0,4.073.414c2.258.109,4.316,0,6.491.041a7.3,7.3,0,0,1,3.695.789,8.548,8.548,0,0,1,3.029,2.6,22.66,22.66,0,0,0,2.8,2.589,66.747,66.747,0,0,1,5.633,5.9c1.957,2.473,1.235,4.754-1.578,5.437a69.545,69.545,0,0,1-8.1.982c-.575.066-1.133.162-1.595.226.836,4.675,1.45,9.125,2.476,13.374a60.393,60.393,0,0,0,2.8,7.435c-2.821,4.316-6.336,4.447-10.313,2.684a36.155,36.155,0,0,0-5.491-2.191c-4.406-1.074-6.7-4.8-8.515-8.946a26.464,26.464,0,0,0-3.807-7.039,6.03,6.03,0,0,1-1.322-3.715c.13-2.809-1.006-5.662.284-8.474.5-1.062.356-2.792-1.847-3.33-1.191,1.854-2.619,3.79-3.774,5.907a100.377,100.377,0,0,0-5.4,10.507c-1.159,2.865-3.462,5.788-1.048,9.665,1.248.014,2.571.146,3.857.039a8.067,8.067,0,0,1,3.759.3,9.078,9.078,0,0,1,3.374,2,10.641,10.641,0,0,1,2.413,3.366,11.742,11.742,0,0,1,1.039,4.153l2.889,25.133a12.508,12.508,0,0,1,0,1.6c-4.22,1.566-4.22,1.566-11.532-.237l-3.912,10.209c-.574,1.485-1.067,3.037-1.665,4.518a2.024,2.024,0,0,1-.438.9,1.7,1.7,0,0,1-.778.516,1.566,1.566,0,0,1-.912,0,1.8,1.8,0,0,1-.8-.52,11.927,11.927,0,0,1-2.938-4.033c-.979-2.487-1.448-5.234-2.229-7.837-1.22-3.977-1.765-8.08-3.347-12.077a18.529,18.529,0,0,1-1.843-7.7,17.928,17.928,0,0,1,1.528-7.677,9.242,9.242,0,0,0,.5-1.912,3.745,3.745,0,0,1-1.223-.4c-2.125,2.778-4.27,5.525-6.351,8.31-1.76,2.232-3.571,4.684-5.224,7.142a19.248,19.248,0,0,0-2.61,4.795,16.221,16.221,0,0,1-3.077,5.852,13.774,13.774,0,0,1-4.966,3.8,6.681,6.681,0,0,0-3.239,2.97,17.542,17.542,0,0,1-9.473,9.809l-.4,3.118c-.461,3.62-.079,4.908,3.009,5.979a31.452,31.452,0,0,1,12.1,8.958,8.906,8.906,0,0,1,2.046,3.166,9.719,9.719,0,0,1,.63,3.831c-.025,1.62-.1,3.1,1.745,4.133,1.041.566,1.612,2.329,2.361,3.585,1.718,2.916.819,4.98-2.287,5.116-1.916.06-3.864-.169-5.782-.263a19.814,19.814,0,0,0-2.48-.154,165.279,165.279,0,0,1-9.944,26.907,3.474,3.474,0,0,1-2.354-1.422,4.419,4.419,0,0,1-.847-2.869,14.682,14.682,0,0,0-.979-5,13.591,13.591,0,0,0-2.593-4.234,29.241,29.241,0,0,1-5.4-11.141c-1.907-6.614-2.452-12.856,1.054-18.813a6.523,6.523,0,0,0,.726-2.668c.32-2.513.286-5.279.426-8.7a81.454,81.454,0,0,0-7.928,8.748,31.306,31.306,0,0,1-11.346,10.084c-4.732,2.546-5.8,7.157-6.46,12.206-.106.83.849,2.255,1.629,2.9,2.064,1.644,4.366,3,6.587,4.469a11.417,11.417,0,0,1,4.5,4.979,13.218,13.218,0,0,1,1.227,6.948,26.881,26.881,0,0,1-7.649,17.8c-2.6,2.606-4.255,2.023-5.014-1.839a13.525,13.525,0,0,0-1.665-4.8,11.982,11.982,0,0,0-3.235-3.645,25.816,25.816,0,0,1-4.155,3.022,15.874,15.874,0,0,1-4.254.939c-.487-.637-.84-.886-.91-1.235-.949-5.033-4.01-9.373-3.986-14.73a7.543,7.543,0,0,1,.194-2.835,6.77,6.77,0,0,1,1.207-2.456c2.01-2.052,4.08-4.041,6.131-6.06l3.045-3.034-1.27-4.838-9.035,7.626c-1.122.965-2.282,1.871-3.408,2.86a7.287,7.287,0,0,0-1.544,1.6c-1.361,2.31-2.594,4.49-4.056,7.061q1.467,2.785,3.174,5.4a13.774,13.774,0,0,1,1.667,13.5c-.772,2.142-1.585,4.249-2.4,6.358-.067.527-.153,1.206-.615,1.45s-1.468,1.18-2.107,1.028-.948-1.295-1.21-2.094c-.378-1.312-.611-2.7-.945-4.181l-1.771.888-3.548-5.854a22.514,22.514,0,0,0-.91,3.4c-.462,6.121-3.441,10.612-6.9,14.8a5.841,5.841,0,0,1-2.26,1.874c-6.061,1.925-10.257,7.052-15.233,10.814a4.32,4.32,0,0,1-2.879.946,4.619,4.619,0,0,1-2.859-1.2,4.034,4.034,0,0,1-.863-1.22,4.446,4.446,0,0,1-.255-3.026,3.96,3.96,0,0,1,.648-1.336,25.98,25.98,0,0,0,2.9-10.281,24.728,24.728,0,0,1,1.9-6.918,107.612,107.612,0,0,1,5.994-11.4c2.237-3.657,4.993-6.748,9.64-5.6.724-1.585,1.448-2.988,2.064-4.439.432-1.074.757-2.2,1.338-3.911-2.88-.568-5.407-.886-8.522-1.4,1.094,3.36-.469,4.933-1.767,7.1a27.6,27.6,0,0,1-13.051,10.8,18.134,18.134,0,0,1-14.45.915,78.412,78.412,0,0,0-14.993-4.991,3.889,3.889,0,0,1-1.527-.89,4.6,4.6,0,0,1-1.073-1.529,3.291,3.291,0,0,1,.1-2.233,2.6,2.6,0,0,1,1.457-1.455c2.8-1.484,5.691-2.771,8.546-4.141l7.239-3.341-3.249-4.275c4.36-1.95,8.216-3.871,12.195-5.329a34.892,34.892,0,0,1,6.708-1.126,13.968,13.968,0,0,0-5.965-7.567c-.87-.481-1.371-1.9-1.857-3.253,4.232.834,7.964-.647,11.809-1.049a15.935,15.935,0,0,1,7.833.873,18.232,18.232,0,0,1,6.849,4.6c2.378,2.557,4.641,5.3,6.931,8.016a3.208,3.208,0,0,0,1.686,1.128,2.778,2.778,0,0,0,1.919-.185c3.536-1.185,7.086-2.135,10.685-3.281a3.81,3.81,0,0,0,1.927-1.578c1.165-1.834,2.14-3.781,3.353-5.99-11.617,3.819-20.143-2.372-27.531-11.792,2.06-3.152,5.521-.9,7.686-2.558s5.27-1.074,7.858-1.416c.057-.452.1-.829.121-.955a10.738,10.738,0,0,1-1.923-6.247,10.122,10.122,0,0,1,2.016-6.08l2.831-4.391a27.731,27.731,0,0,1,11.453,7.237,33.057,33.057,0,0,1,7.433,12.31c2.169.815,4.792-.163,6.495,2.518a13.6,13.6,0,0,0,3.84-1.614c2.311-1.916,4.319-4.3,6.544-6.263s5.1-4.381,7.65-6.559c.46-.4.982-.76,1.426-1.213,3.06-3.161,6.143-6.316,9.183-9.506a27.246,27.246,0,0,0,1.717-2.239,9.236,9.236,0,0,0-2.689-.659,20.141,20.141,0,0,0-10.407,4.857c-3.465,2.771-7.077,4.017-11.367,1.5a21.685,21.685,0,0,0-6.279-1.882,11.28,11.28,0,0,1-4.528-2.11,13.268,13.268,0,0,1-3.442-4,41.061,41.061,0,0,0-6.884-8.548,5.706,5.706,0,0,1-.673-1.319,19.3,19.3,0,0,1,1.977-.718,21.193,21.193,0,0,0,2.806-.632c3.888-1.632,7.721-3.376,11.91-5.231l.827-8.11a3.438,3.438,0,0,1,2.172-.278,3.862,3.862,0,0,1,1.994,1.1,14.528,14.528,0,0,0,4.095,2.276,20.57,20.57,0,0,1,6.694,3.1,7.722,7.722,0,0,1,3.153,3.44,8.946,8.946,0,0,1,.812,4.841,32.573,32.573,0,0,0,.071,4.448c3.549.493,3.571.5,7.815-2.327a25.465,25.465,0,0,0-3.472-1.637,2.685,2.685,0,0,1-2.353-2.578l4.284-4.748c-2.317-3.034-4.346-5.47-6.356-8.058a3.957,3.957,0,0,0-.943-1.128,3.378,3.378,0,0,0-1.24-.641,7.488,7.488,0,0,1-3.244-2.874,8.938,8.938,0,0,1-1.351-4.4,3.652,3.652,0,0,1,.141-1.371,3.237,3.237,0,0,1,.626-1.166,2.73,2.73,0,0,1,1-.75,2.514,2.514,0,0,1,1.2-.2c3.66-.386,7.307-1.009,10.933-1.659,2.461-.418,4.906-1.07,7.368-1.487a3.463,3.463,0,0,1,2.46.486c4.137,3.185,8.45,6.073,10.629,11.966,1.3.463,2.913,1.038,4.342,1.577a52.791,52.791,0,0,0,11.6-13.177c.987-1.507,2.344-2.709,3.35-4.185a53.064,53.064,0,0,0,2.678-4.628,14.786,14.786,0,0,1,.6-1.48c2.316-3.564,4.692-7.065,6.964-10.638,1.222-1.923,2.295-3.93,3.863-6.61a10.032,10.032,0,0,0-6.912,3.792c-2.255,2.907-5.2,5.187-6.42,9.046-.417,1.308-2.16,1.971-3.162,3.062a24.668,24.668,0,0,1-13.977,7.555c-5.533,1-11.142,1.335-16.618,1.878-1.035-2.214-1.6-3.871.153-5.123,4.111-3.031,6.394-7.762,8.947-12.285a40.993,40.993,0,0,0,3.012-5.823c-1.338,1.231-2.593,2.53-4.036,3.688s-2.207.752-3.245-.922a21.375,21.375,0,0,1-2.586-11.438,8.517,8.517,0,0,0-1.6,1.489,14.51,14.51,0,0,1-7.345,6.129c-2.63,1.21-2.681,1.251-4.634-1.067a5.863,5.863,0,0,0-2.518-1.811c.186.681.324,1.378.536,2.038a8.619,8.619,0,0,0,.855,1.844c3.416,5.288,1.955,10.334-.363,15.162a22.981,22.981,0,0,1-5.858,8.02c-2.286,1.9-4.342,4.3-6.5,6.3a11.033,11.033,0,0,1-2.558,2.254c-2,.92-3.733,1.842-3.1,4.75-2,.92-3.081-.066-3.472-1.638a36.656,36.656,0,0,1-.817-6.424c-.1-2.238.049-4.5.094-6.812-4.539,3.177-8.672,6.2-12.938,9.022a47.942,47.942,0,0,1-5.231,2.372c-1.743.842-3.82,1.1-4.322,3.968-.117.93-1.332,1.722-2.165,2.383-4.136,3.231-9.032,5.461-10.918,11.534a16.528,16.528,0,0,1-2.326,3.64c.685,1.4,1.434,2.653,1.964,4.021a17.412,17.412,0,0,1,1.414,8.809,15.914,15.914,0,0,1-3.108,8.073,33.016,33.016,0,0,1-8.3,9.32,9.094,9.094,0,0,0-2.533,4.192c-1.732,4.5-4.411,5.213-8.005,2.211a5.576,5.576,0,0,1-2.246-2.854,6.286,6.286,0,0,1-.158-3.78,24.65,24.65,0,0,0,.234-10.934,25.109,25.109,0,0,1,.44-5.248c.193-6.329,4.111-9.989,7.372-14.013a13.161,13.161,0,0,0,2.367-3.6c-1.293.519-2.62.952-3.878,1.555a88.779,88.779,0,0,0-9.712,4.916,7.046,7.046,0,0,0-3.069,3.014,8.683,8.683,0,0,0-1,4.509,6.92,6.92,0,0,1-.812,4.067c-3.654,4.435-6.995,9.447-13.124,10.3a114.279,114.279,0,0,0-13.506,3.5c-1.612-2.69.526-5.206.982-7.72a29.647,29.647,0,0,1,3.24-7.608c1.184-2.344,2.546-4.834,3.87-7.382-1.135-1.256-2.513-.78-3.922-.774-5.225.182-10.32-.307-13.96-5.612-1.4-2.054-3.669-3.3-4.261-6.149-.078-.454-1.218-.6-1.8-1.025-1.48-1.039-1.541-2.881.011-3.478a81.361,81.361,0,0,1,13.383-5.558,13.08,13.08,0,0,1,7.667,1.512,32.507,32.507,0,0,1,12.6,9,6.412,6.412,0,0,0,3.346,2.4,5.479,5.479,0,0,0,3.884-.3c2.556-.992,4.971-2.474,8.08-4.052a43.968,43.968,0,0,1-4.112-3.387c-2.711-2.262-5.075-5.28-8.92-4.879-1.381.142-1.61-1.45-1.744-2.714a2.994,2.994,0,0,1,.247-1.982,2.345,2.345,0,0,1,1.385-1.2c2.936-1.122,5.842-2.354,8.75-3.429.672-.281,1.413-.393,2.047-.731,6.641-3.279,12.937-1.7,18.913,2.568a23.3,23.3,0,0,0,7.879,4.13,4.618,4.618,0,0,0,2.844.086,4.948,4.948,0,0,0,2.417-1.626c.464-.6,1.13-1.016,1.552-1.653a10.859,10.859,0,0,1,3.913-3.473,9.657,9.657,0,0,1,4.911-1.077,7.471,7.471,0,0,0,3.837-1.2,8.633,8.633,0,0,0,2.867-3.1c-2.9-.8-5.385-1.421-7.86-2.141s-4.824-1.544-7.334-2.347c-.291-5.212,2.738-8.3,5.633-11.778-1.73.382-3.038.665-4.672,1.013l-2.144-13.67a30.91,30.91,0,0,0-1.946,3.508,31.3,31.3,0,0,1-8.347,12.04c-4.42,4.027-8.827,8.313-14.807,9.248a24.12,24.12,0,0,1-6.378.315c-2.038-.222-2.752-1.573-2.122-3.847a33.152,33.152,0,0,1,2.627-6.182,62.645,62.645,0,0,0,5.954-12.875,10.469,10.469,0,0,1,4.457-5.926c2.488-1.7,4.774-3.956,7.313-5.7a27.973,27.973,0,0,1,10.306-4.413c3.639-.751,5.778-3.809,8.291-7.49a19.726,19.726,0,0,1-2.869-.127l-6.647-1.311a54.556,54.556,0,0,1-5.6-1.7,10.572,10.572,0,0,1-5.379-3.3,12.993,12.993,0,0,1-2.99-6.077l4.375-1.716c2.4-.97,4.936-1.836,7.348-2.932,3.085-1.4,6.137-2.89,9.119-4.544a12.558,12.558,0,0,1,9.213-.994,10.92,10.92,0,0,1,4.979,3.173,4.719,4.719,0,0,0,3.13,1.9,4.2,4.2,0,0,0,3.351-1.06c1.706-1.262,3.477-2.329,5.22-3.532s3.455-2.335,5.112-3.581c.828-.611,1.563-1.393,2.978-2.686-3.6-.091-6.283-.08-9.053-.264a44.056,44.056,0,0,1-6.722-.732,9.368,9.368,0,0,1-3.668-1.884,11.037,11.037,0,0,1-2.725-3.4,8.992,8.992,0,0,0,4.355-1.387,10.281,10.281,0,0,0,3.324-3.441,14.039,14.039,0,0,0,1.135-3.566,10.71,10.71,0,0,1-7.438-2.418c-.439-.475-1.551-.306-2.267-.034A20.5,20.5,0,0,0,1198.15,2754.65Zm63.634,181.8a9.335,9.335,0,0,0-1.623-3.67,13.951,13.951,0,0,0-8.354-5.745c.451,3.594.066,7.152,2.494,9.847s2.268,6.634,2.728,10.513c-2-.909-1.611-2.689-2.007-4.03s-.6-3.831-1.648-4.913a10.465,10.465,0,0,1-2.1-3.328,11.34,11.34,0,0,1-.79-3.968,10.609,10.609,0,0,0-.985-4.286,9.474,9.474,0,0,0-2.587-3.351,75.626,75.626,0,0,0,.043,11.092,34.291,34.291,0,0,0,9.553,19C1259.616,2950.64,1262.791,2940.852,1261.784,2936.453Zm4.837-6.057a38.932,38.932,0,0,0-6.049-6.012,37.648,37.648,0,0,1-9.261-7.728,8.921,8.921,0,0,1,.978,2.125,8.115,8.115,0,0,0,1.964,4.525,6.415,6.415,0,0,0,4,2.167,7.969,7.969,0,0,1,3.322,1.616,9.451,9.451,0,0,1,2.445,3.051c2.319,4.272,5.706,4.244,9.89,3.5C1271.357,2931.2,1269.847,2928.248,1266.621,2930.4Zm-14.982-22.748c-1.921,3.308-2.56,6.016-.461,8.982l1.667-4c1.012,1.513,1.612,2.508,2.27,3.411a19.019,19.019,0,0,0,2.405,3.052c3.239,2.751,6.563,5.366,9.857,8.051.529-.592-.008-1.368.017-2.111a5.516,5.516,0,0,0-.712-3.267,4.557,4.557,0,0,0-2.384-2.034,38.11,38.11,0,0,1-6.43-5.339c-.47-.4-.843-1.223-1.331-1.32a5.737,5.737,0,0,1-3.192-1.839A7.147,7.147,0,0,1,1251.639,2907.648Zm73.247-247.095c2.662.137,5.326.276,8.463.431-2.979-4.609-7.214-4.18-10.619-5.806a19.108,19.108,0,0,0-11.2-1.227,12.426,12.426,0,0,0,5.691,6.043A9.976,9.976,0,0,0,1324.886,2660.553Zm27.1,8.743c-6.119-1.541-11.535-2.892-16.925-4.263a23.432,23.432,0,0,0-4.186-1.212,21.4,21.4,0,0,0-14.278,3.861l-9.189,6.7c6.431,8.536,28.539,7.789,35.462-.744a12.82,12.82,0,0,0-4.944-2.344,11.683,11.683,0,0,0-5.3.016,15.588,15.588,0,0,0-4.143,1.323,30.093,30.093,0,0,1-11.143,2.958,2.77,2.77,0,0,1-2.172-.106,3.459,3.459,0,0,1-1.62-1.7,24.324,24.324,0,0,1,2.924-1.2c3.947-1.027,7.957-1.835,11.749-3.072a18.538,18.538,0,0,1,12.33-.147,38.435,38.435,0,0,0,8.925,1.269A21.294,21.294,0,0,0,1351.986,2669.3Zm-170.558,158.016a34.607,34.607,0,0,1,1.933-3.408,21.926,21.926,0,0,0,3.329-8.313c-4.751,1.642-5.144,1.873-7.066,5.9a56.509,56.509,0,0,0-2.514,7.082c-.594,1.816-.822,3.961-2.82,4.315-1.665-1.024.974-3.9-2.126-3.821,1.2-1.748,2.268-3.187,3.191-4.732a42.43,42.43,0,0,0,2.69-5.243,10.546,10.546,0,0,1,3.866-4.69,8.9,8.9,0,0,1,5.546-1.446l-.035-1.682a15.92,15.92,0,0,0-8.864,2.712,79.668,79.668,0,0,0-8.238,6.366,11.646,11.646,0,0,0-3.291,5.151,27.194,27.194,0,0,1-3.238,6.527c-1.889,3.236-3.777,6.473-5.974,10.164a15.254,15.254,0,0,0,2.181.713,5.89,5.89,0,0,0,1.8-.058,23.47,23.47,0,0,0,11.569-4.948A27.663,27.663,0,0,0,1181.428,2827.312Zm26.661-8.689c3.94-2.755,4.949-7.118,5.3-11.841a11.732,11.732,0,0,0-1.853-6.5,5.53,5.53,0,0,1-1.2-2.53,5.743,5.743,0,0,1,.156-2.831l-.753-.149a15.444,15.444,0,0,0-2.3,4.006,79.637,79.637,0,0,0-2.123,12.752,14.244,14.244,0,0,1-1.41,4.972,12.366,12.366,0,0,1-3.013,3.9c-.942.974-1.716.279-2.155-.916,4.3-7.219,4.956-9.487,4.676-16.217-9.556,6.544-13.639,17.931-9.38,27.482,1.832-1.546,3.654-3.017,5.42-4.576C1202.354,2823.7,1205.018,2820.8,1208.089,2818.623Zm-2.091,8.222a4.57,4.57,0,0,1,2.807-1.534c4.519.194,9.152-.516,13.408,1.74a3.7,3.7,0,0,0,2.711-.058c1.353-.456,2.456-1.45,3.887-1.812a7.213,7.213,0,0,0,4.261-3.67,9.8,9.8,0,0,1,4.4-4.546,2.541,2.541,0,0,0,1.42-1.165,3.232,3.232,0,0,0,.407-1.955c-.623-7.6,3.408-12.679,7.278-17.741a11.762,11.762,0,0,1,4.133-3.072,10.708,10.708,0,0,1,4.913-.893c1.165-.054,2.781-.071,3.335-.864a43.375,43.375,0,0,0,5.182-10.911,17.2,17.2,0,0,1-3.044,1.976c-4.752,1.641-9.612,3.055-14.436,4.553a2.747,2.747,0,0,1-1.413.211,17.054,17.054,0,0,1-2.392-1.013l1.375-5.63a31.056,31.056,0,0,0-6.109,12.3,7.726,7.726,0,0,1-1.356,2.8c-.964,1.332-1.846,2.91-3.834,2.106s-3.585-1.815-3.676-4.488c-.038-1.5.107-2.994.046-4.476-.167-3.152,1.187-6.466-1.013-9.891-4.384,4.111-8.781,7.961-12.909,12.2a10.564,10.564,0,0,0-2.145,5.427c-.134,1.058.852,2.411,1.331,3.641l.493,1.126a15.943,15.943,0,0,1,.956,11.3,14.051,14.051,0,0,1-2.544,4.921,12,12,0,0,1-4.1,3.281,17.236,17.236,0,0,0-5.574,4.88,72.605,72.605,0,0,1-6.11,6.245A18.629,18.629,0,0,0,1206,2826.845Zm55.323-71.11c2.823-1.66,5.807-2.98,8.755-4.358a10.005,10.005,0,0,1,7.454-.2c3.228,1.048,6.532,2.215,9.729,3.335a15.821,15.821,0,0,0,6.991-6.922c-3.245-.2-6.323-.292-9.394-.614a12.652,12.652,0,0,1-4.178-1.262c-2.513-1.319-2.684-3.363-.6-5.272.565-.509,1.167-.957,1.746-1.409A51.511,51.511,0,0,0,1292.392,2729a11.57,11.57,0,0,1,4.413-4.008,10.258,10.258,0,0,1,5.614-1.077,85.393,85.393,0,0,0,10.78-.453,3.047,3.047,0,0,0,2.185-.769,3.832,3.832,0,0,0,1.214-2.2c1.176-5.31,2.265-10.662,3.4-15.981a2.444,2.444,0,0,1-.778-.489c-.7.532-1.442.979-2.083,1.549-5.121,4.533-10.085,9.456-16.715,11.217a4.249,4.249,0,0,0-1.29.673q-10.466,6.908-20.876,13.928c-2.14,1.459-4.165,3.1-6.191,4.733a21.252,21.252,0,0,0-3.764,3.51,14.287,14.287,0,0,1-7.357,6.052,2.973,2.973,0,0,0-1.5.914c-1.668,2.044-3.322,4.14-4.913,6.3a5.3,5.3,0,0,0-.823,2.182c-.807,4.2-1.57,8.4-2.412,13.057,2.82-2.873,5.558-5.116,7.02-8.926a7.125,7.125,0,0,1,3.012-3.506Zm62.666-34.043a10.727,10.727,0,0,1-3.927,2.655c-4.7,2.682-9.853,1.743-14.857,1.788-3.778.054-7.688-.1-10.106,3.731a65.674,65.674,0,0,1-11.463,12.071l-1.3,1.265a29.705,29.705,0,0,0,12.07,1.192,23.737,23.737,0,0,1,5.253.134,8.943,8.943,0,0,0,4.081-.06,9.329,9.329,0,0,0,3.686-1.889c3.037-2.8,6.03-5.615,9.64-9-5.608,1.059-10.347,2.058-15.145,2.814a48.155,48.155,0,0,1-6.856.324c-1.022,0-1.928-.381-1.963-2.423a19.091,19.091,0,0,1,2.866-.389,25.974,25.974,0,0,0,3.48.325c2.837-.343,5.663-.947,8.487-1.369,1.6-.251,3.559.239,4.783-.63,4.257-2.922,9.132-4.642,12.846-8.654a5.825,5.825,0,0,1,1.973-1.56,5.285,5.285,0,0,1,2.38-.52,4.5,4.5,0,0,0,2.506.068,4.729,4.729,0,0,0,2.194-1.307c2.011-1.872,4.217-3.5,6.284-5.282,4.806-4.207,9.634-8.411,14.352-12.635.746-.678,1-1.969,1.572-2.887s1.692-1.7.006-3.091c-4.239,4.035-8.8,7.75-12.643,12.25a30.961,30.961,0,0,1-7.366,6.461,14.279,14.279,0,0,1-6.228,2.716,8.309,8.309,0,0,0-3.7,1.19,9.345,9.345,0,0,0-2.917,2.816Zm19.731-19.566c-.283.8-.416,1.671-.82,3.241,5.17-4.934,9.813-9.639,14.833-13.571,3.785-2.966,4.668-7.045,5.3-12.2a41.938,41.938,0,0,0-4.242,1.742c-3.264,1.547-6.436,3.448-9.686,4.714a6.02,6.02,0,0,0-2.4,1.251,6.979,6.979,0,0,0-1.731,2.25,8.041,8.041,0,0,0-.779,2.877,8.517,8.517,0,0,0,.3,3.025,11.616,11.616,0,0,1-.839,6.768Zm-15.325,23.682a2.569,2.569,0,0,0-1,.345c-7.159,6.81-12.758,14.755-14.078,25.834a10.185,10.185,0,0,0,.68,5.546,11.512,11.512,0,0,1,1.353,4.685,11.333,11.333,0,0,1-.7,4.8,4.612,4.612,0,0,0,2.577-.126,5,5,0,0,0,2.176-1.515,95.893,95.893,0,0,0,12.8-18.327,16.836,16.836,0,0,0,1.91-11.394A16.171,16.171,0,0,0,1328.393,2725.808Zm-34.839,29.218,6.579-7.08c-2.073-.485-5.945,3.879-6.563,6.954Zm-11.978,8.259a3.248,3.248,0,0,0,1.635-.529,26.179,26.179,0,0,0,4.137-2.355,38,38,0,0,0,3.494-3.358l-.394-.465-6.681,1.982c-.461-3.156-2.293-3.75-4.438-3.864a15.393,15.393,0,0,1-2.215-.436c-6.382-1.258-11.374,2.088-16.092,6.134a10.333,10.333,0,0,0-1.288,1.91,55.3,55.3,0,0,1-3.409,4.483c-3.045,3.575-6.514,6.732-8.558,11.2a8.077,8.077,0,0,0-.756,5.393c3.561-1.2,6.9-2.455,10.3-3.461a19.421,19.421,0,0,0,8.761-6,31.349,31.349,0,0,0,3.125-4.2,13.935,13.935,0,0,1,5.384-5.185,12.218,12.218,0,0,1,7.012-1.368ZM1131.027,2883.85l-6.385-6.413c-.518,1.574-1.478,1.616-2.74.645-2.069-1.593-4.144-3.137-6.582-5.034a21.628,21.628,0,0,0,1.636,4.988,10.823,10.823,0,0,0,3.912,4.069,41.063,41.063,0,0,0,8.075,1.876A9.575,9.575,0,0,0,1131.027,2883.85Zm13.827-1.552a27.9,27.9,0,0,0-2.008-2.073,88.776,88.776,0,0,1-8.645-6.858,10.491,10.491,0,0,0-7.263-3.261,12.918,12.918,0,0,0-8.483,2.219c1.481.679,2.567,1.254,3.671,1.677a1.979,1.979,0,0,0,1.542.021c1.763-1.353,2.692-.448,3.219,1.485a7.392,7.392,0,0,0,1.582,3.01,6.165,6.165,0,0,0,2.645,1.793,33.5,33.5,0,0,0,13.7,1.978Zm23.252-7.248c-.222-.044-.417-.469-.56-.42a63.659,63.659,0,0,0-10.72,3.2c-2.661,1.28-5.842,2.354-6.854,6.382-.226.883-1.725,1.233-2.52,1.951a25.269,25.269,0,0,0-3.742,3.516c-2.258,2.932-4.292,6.062-6.509,9.027a1.509,1.509,0,0,1-.54.579,1.311,1.311,0,0,1-.728.194,1.381,1.381,0,0,1-.727-.243,1.671,1.671,0,0,1-.538-.617c1.571-5.567,6.97-7.827,8.169-13.855-.764.108-1.938.057-1.992.3-.476,2.485-2.639,2.883-3.945,4.224a32.2,32.2,0,0,0-6.431,11.619,8.193,8.193,0,0,0-.907,5.337,44.28,44.28,0,0,1,7.109-2.31,16.967,16.967,0,0,0,11.083-7.3,11.93,11.93,0,0,0,3.043-7.132,9.884,9.884,0,0,1,1.114-3.75,11.2,11.2,0,0,1,3.292-3.9,9.63,9.63,0,0,1,4.5-1.811A20.143,20.143,0,0,0,1168.106,2875.05Zm9.613,7.822c-5.747,6.6-5.61,15.7-8.006,23.81-2.139-1.04-2.206-3.012-1.814-4.842.52-2.475,1.257-4.7,1.609-7.106a29.768,29.768,0,0,1,6.736-14.91c.536-.643,1.328-1.517,1.955-1.445a2.521,2.521,0,0,0,1.705-.48,3.061,3.061,0,0,0,1.1-1.546c1.347-2.9,2.611-5.877,3.952-8.912a26.1,26.1,0,0,1-5.88-.386,8.918,8.918,0,0,0-5.995.34c-3.4,1.391-6.65.133-9.884-1.046-1.26-.455-2.082-1.494-1.325-3.689,4.371,1.351,9.124,3.448,13.777-.094a33.912,33.912,0,0,0-2.752-2.295,12.99,12.99,0,0,0-9.027-2.244,29.152,29.152,0,0,0-13.423,4.263,29.144,29.144,0,0,0,9.971,7.866c1.737.808,4.145,1.875,5.495,1.084,3.334-1.92,6.794-1.084,10.179-1.447a2.289,2.289,0,0,1,1.919.319,2.976,2.976,0,0,1,1.2,1.764l-3.231,2.714,1.4,2.365c-1.328,1.336-2.622,2.757-4,3.929a25.644,25.644,0,0,0-6.616,8.018,29.688,29.688,0,0,0-3.25,10.424c-.122.955-.51,2.039-.223,2.817,1.332,3.64.444,7.047-.223,10.5-.366,1.809-.118,3.25,1.658,3.934s2.653-.146,3.488-1.889a16.146,16.146,0,0,1,3.424-5.125,40.237,40.237,0,0,0,8.165-10.608,13.748,13.748,0,0,0,1.532-8.393A13.588,13.588,0,0,0,1177.719,2882.872Zm21.092-24.2c-3.132-1.441-3.877-1.124-5.5,1.984Zm11.134-9.661-6.772,6.81c5.6-2.427,6.1-2.947,6.75-6.814Zm8.536-4.246-.505-.667-3.2,3.159.566.73Zm18.983-18.862c-.583.658-1.1,1.174-1.567,1.779a25.126,25.126,0,0,0-3.811,11.207,51.742,51.742,0,0,1-.849,5.245c-.592,2.153-1.49,4.217-4.381,4.086a39.992,39.992,0,0,0,1.6-4.325c1.054-4.535,2.02-9.086,2.959-13.439-.617.394-1.555.983-2.883,1.779l-.119-3.89-8.188,4.906a18.7,18.7,0,0,0-4.944,3.15c-3.239,3.667-7.666,4.185-11.629,5.879-1.131.5-1.751-.345-1.521-2.156,2.056-.806,4.233-1.486,6.289-2.472a10.491,10.491,0,0,0,3.8-2.706,10.077,10.077,0,0,1,5.326-3.821,9.4,9.4,0,0,0,2.2-1.242,31.394,31.394,0,0,0-9.041-1.782,5.26,5.26,0,0,0-3.022,1.08c-3.36,2.3-6.6,4.78-9.991,7.1a9.348,9.348,0,0,0-2.668,2.962,10.922,10.922,0,0,0-1.349,3.977c5.538,1.994,10.679,5.326,16.115,1.707a1.1,1.1,0,0,1,.524-.023,1.208,1.208,0,0,1,.5.224c1.533.973,2.513.057,3.433-1.1l9.045-11.105,3.75,3.033-2.967,3.848,1.444,2.219c-.84,1.071-1.624,2.05-2.347,3.093a4.5,4.5,0,0,0-1.1,2.026c-.217,3.849-.3,7.675-.422,11.877,6.294-3.58,10.494-9.093,14.791-14.483a11.283,11.283,0,0,0,2.844-5.3,12.892,12.892,0,0,0-.117-6.3,2.834,2.834,0,0,1,.195-1.534c.951-2.648-.21-4.062-1.9-5.427Zm18.711-23.325c-4.385,1.971-5.247,6.957-7.756,10.612-.373-.821-.749-1.257-.673-1.5,1.378-4.393,2.106-9.225,6.343-11.636a16.957,16.957,0,0,0,3.4-2.939,6.192,6.192,0,0,0,.781-2.037c-4.537-.044-7.562.7-9.167,3.14-2.815,4.266-7.237,7.6-6.755,14.34,3.047-.739,3.15,2.735,5.1,4.227-.87,1.3-1.475,2.132-2.018,3-.816,1.231-1.717,2.78-.316,3.907.638.513,2.113-.356,3.213-.6a.676.676,0,0,0,.319-.195,23.6,23.6,0,0,0,5.916-9.026,27.252,27.252,0,0,0,1.612-11.218Zm14.261,15.209a42.447,42.447,0,0,0,3.035-15.279,44.1,44.1,0,0,0-2.607-15.565c.019-.152-.383-.206-.937-.5l-4.055,10.619a9.063,9.063,0,0,1-1.027-3.68,8.933,8.933,0,0,1,.566-3.757c1.7-3.712,3.542-7.317,5.473-10.88a59.165,59.165,0,0,1,3.509-5.443,42.9,42.9,0,0,0,5.261-7.778,41.963,41.963,0,0,0-5.469,3.175c-.911.723-2.094,2.165-1.923,3.153.67,2.94-1.146,4.18-2.377,5.82a29.937,29.937,0,0,0-5.2,9.644,69.081,69.081,0,0,0-2.166,6.843c-.621,3.278-1.768,6.4-2.656,9.63,0,0,.186.32.255.489l2.2-1.6c.223.044.415.313.647.461-1.035,3.843-4.63,6.563-3.714,11.331.808,4.18-1.117,8.775,2.01,12.947a25.1,25.1,0,0,0,4.69-3.3,19.713,19.713,0,0,0,4.476-6.257Zm6.263,2.368c4.063,2.347,8.03.449,11.932-.226,6.935-.952,12.091-5.761,17.226-10.419a34.278,34.278,0,0,0,4.938-5.238,53.963,53.963,0,0,0,5.331-8.512c1.249-2.667,3.7-4.606,3.92-8.48-3.449.506-6.515.5-9.058,2.8a5.19,5.19,0,0,1-2.705.911c-3.3.561-6.635,1.269-9.96,1.516a12.017,12.017,0,0,1-9.636-2.647,16.013,16.013,0,0,0-10.336-4.46,3.416,3.416,0,0,1-2.52-.834,4.411,4.411,0,0,1-1.436-2.523c1.242-.657,2.426-1.223,3.555-1.877a80.523,80.523,0,0,0,8.465-5.11,17.363,17.363,0,0,1,4.341-2.521,17.171,17.171,0,0,1,8.826-.452,36.525,36.525,0,0,1,11.57,2.977c1.905.917,3.812,1.808,5.689,2.771,2.516,1.294,6.538.928,7.326-.978q2.8-6.978,5.233-14.176a20.246,20.246,0,0,1,3.136-6.779,43.051,43.051,0,0,0,4.086-6.412q4.866-8.964,9.461-18.11a45.622,45.622,0,0,0,2.1-5.978c.41-1.26.7-2.62,1.171-3.841,1.57-3.944,3.269-7.837,4.773-11.793a13.188,13.188,0,0,0,.045-3.033c-6.924,7.632-15.078,12.262-20.525,20.441.562,1.477,1.009,2.777,1.508,4.035,2.471,6.286,2.963,12.414-.556,18.293-1.028,1.654-1.851,3.476-2.914,5.044-2.748,3.737-5.754,7.192-8.355,11.035a9.157,9.157,0,0,1-4.109,3.688,8.115,8.115,0,0,1-5.276.442c-2.725-.537-3.468-1.663-2.132-4.313a5.836,5.836,0,0,0,.952-2.828,6.28,6.28,0,0,0-.526-3.016c-2.05-3.523-1.6-7.043-1.135-10.714a49.634,49.634,0,0,0,.174-5.12,15.7,15.7,0,0,0-1.331,1.181c-2.16,2.512-4.2,5.176-7.749,5.2-.7-.008-1.448.85-2.031,1.508a179.986,179.986,0,0,1-18.593,18.114,40.174,40.174,0,0,0-9.546,12.887,46.887,46.887,0,0,1,2.012,6.326c.754,4.427,1.318,8.92,1.812,13.423a30.581,30.581,0,0,1-.019,5.153,32.061,32.061,0,0,1-4.643,14.883,29.527,29.527,0,0,1,3.555-1.876C1275.841,2820.12,1276.189,2819.879,1276.7,2820.16Zm22.346-44.385c-6.383-.537-11.1,2.966-15.928,6.808,2.088,1.443,3.59,2.667,5.287,3.62a13.739,13.739,0,0,0,4.93,2.492,27.874,27.874,0,0,0,19.716-3.562l2.758-2.035c-4.809-5.947-10.7-6.774-16.767-7.3Zm-40.572,86.748c.532.1,1.079.625,1.674.77,1.2.235,2.415.475,4.164.665-1.4-3.677-3.889-5.149-5.725-7.134a6,6,0,0,0-2.824-1.827,5.21,5.21,0,0,0-3.2.1c-2.369.769-4.834,1.392-7.267,1.944-2.9.641-5.824,1.146-8.739,1.732-.19,3.106-.19,3.106,3.714,3.669,1.718,2.917,3.165,5.47,4.906,7.849a4,4,0,0,0,2.643,1.6,3.572,3.572,0,0,0,2.832-.885l7.657-5.373a2.156,2.156,0,0,0-.6-.429c-.842-.345-1.81-.768-1.277-1.927.315-.505,1.4-.676,2.113-.717Zm-3.736,25.245c-6,1.267-11.668,2.443-17.392,3.686a14.84,14.84,0,0,1-.522-2.68c.058-.454.531-.953.527-1.468a27.774,27.774,0,0,0-.125-7.757,8.228,8.228,0,0,0-2.23-3.467,6.715,6.715,0,0,0-3.45-1.7c-2.482-.489-4.923-1.305-7.445-2.008a4.369,4.369,0,0,0-.417,1.309,5.774,5.774,0,0,0-.039,2.6,5.537,5.537,0,0,0,1.093,2.322c1.028,1.208,1,3.573,1.985,4.928,1.745,2.354,3.28,5.285,6.49,5.582a1.422,1.422,0,0,1,.56,2.3,1.666,1.666,0,0,1-.668.52,6.15,6.15,0,0,1-2.489-.079c-2.367-.311-4.726-.7-7.062-1.082a26.415,26.415,0,0,1-4.987-.982,6.294,6.294,0,0,1-2.984-1.56,7.6,7.6,0,0,1-1.977-3c4.623-.635,8.211,4.377,13.162,2.595l-5.417-7.229c-4.425,1.036-8.874.83-12.135,4.672a24.153,24.153,0,0,0,5.733,7.673,20.506,20.506,0,0,0,7.927,4.4c4.388,1.226,8.791,2.325,12.829-1.029a18.78,18.78,0,0,1,12.846-4.2,8.265,8.265,0,0,0,1.778-.217,5.226,5.226,0,0,0,2.743-1.335,6.322,6.322,0,0,0,1.73-2.759Zm-44.576,34.335,1.954,4.638c2.266.034,3.412-1.286,4.359-3.549C1214.428,2922.841,1212.693,2922.55,1210.161,2922.1Zm-2-7.638c-1,3.361-1,3.361,2.149,4.883Zm-10.8-8.7,3.472,8.416,3.676,2.168C1205.365,2909.456,1202.463,2905.482,1197.362,2905.765Zm6.339,23.725c-.421-.443-1.294-1.08-1.223-1.272,1.156-3.381-1.367-4.084-3.031-4.928a38.724,38.724,0,0,0-6.9-2.34c-4.118-1.2-7.629.687-11.2,2.509C1187.124,2931.584,1197.554,2934.412,1203.7,2929.49Zm6.514-2.635a11.979,11.979,0,0,1-1.258-2.258,4.78,4.78,0,0,0-1.578-2.871,3.667,3.667,0,0,0-2.85-.888c-.662.024-1.75-.344-1.962-.825-1.252-3-3.849-3.49-6.244-4.478a6.845,6.845,0,0,1,0-1.288c.032-.252.264-.463.34-.706.487-1.683-.13-4.871-1.2-5.391a1.773,1.773,0,0,0-.824-.2,1.706,1.706,0,0,0-.812.211,5.208,5.208,0,0,0-1.4,2.5,6.006,6.006,0,0,0,.043,3.006,2.766,2.766,0,0,0,.521,1.082,29.083,29.083,0,0,0,5.807,5.423,18.82,18.82,0,0,1,7.655,6.072,2.822,2.822,0,0,0,.764.861,2.415,2.415,0,0,0,1,.439,2.222,2.222,0,0,0,1.056-.061,2.354,2.354,0,0,0,.931-.552Zm-65.675,24.12c3.366,2.287,6.6,4.729,10.055,6.673a12.148,12.148,0,0,0,5.242.75,11.281,11.281,0,0,0,3.342-.553c2.353-.644,5.111-.179,6.762-4.053-2.989.286-5.519.355-7.987.822-3.237.625-5.62-.1-7.2-2.837a60.586,60.586,0,0,0,15.8-1.912C1162.534,2945.424,1149.812,2944.359,1144.54,2950.975Zm19.858,9.069c-.643.234-1.188.23-1.457.564a5.15,5.15,0,0,1-6.711.609,35.563,35.563,0,0,1-3.825-2.428l-6.328-3.825c-6.365,2.895-12.04,5.359-18.124,8.182,5.1,1.725,9.445,3.252,13.781,4.88a13.655,13.655,0,0,0,10.522.141c3.552-1.491,6.968-3.343,10.4-5.167a2.358,2.358,0,0,0,1.343-1.075,3.009,3.009,0,0,0,.39-1.831Zm19.774,10.444a57.455,57.455,0,0,1,1.51-11.868,12.054,12.054,0,0,1,4.417-6.682l2.376,1.681a10.23,10.23,0,0,0,.172-1.358,6.8,6.8,0,0,1,.96-4.469,5.241,5.241,0,0,1,3.413-2.4c.542-.151.97-.84,1.455-1.26a15.3,15.3,0,0,0-8.584,2.483l1.613,1.607-6.417,7.576c-1.715-2.581.557-4.375.868-6.814a43.246,43.246,0,0,1-6.275-1.031,73.44,73.44,0,0,1-7.88-3.048c-1.292-.563-2.053-1.719-1.965-4.021,3.266,1.468,6.021,4.1,9.761,3.806-2.956-3.908-4.742-8.436-9.493-10.017a19.721,19.721,0,0,0-13.363.408c2.936,6.738,5,8.512,11.006,9.9a9.472,9.472,0,0,1,3.918,2.061,12.152,12.152,0,0,0,5.022,2.124,19.864,19.864,0,0,1,5.4,2.945c1.332.959,1.165,2.446.533,4.023-1.293,3.2-2.333,6.55-3.515,9.771a23.525,23.525,0,0,1-2.1,4.741,21.342,21.342,0,0,0-3.65,10.828c-.147,1.156-.389,1.985-2.092,2.164a79.1,79.1,0,0,1,1.568-10,69.344,69.344,0,0,1,3.837-8.728c-3.142.592-4.2,1.078-5.749,3.763-2.882,4.794-5.4,9.787-7.99,14.766a5.622,5.622,0,0,0-.47,2.794,20.194,20.194,0,0,1-2.988,11.525,14.134,14.134,0,0,0-.719,2.436,18.336,18.336,0,0,0,7.175-4.436c3.094-2.715,6.229-5.4,9.32-8.086a23.319,23.319,0,0,0,6.071-7.476A27.005,27.005,0,0,0,1184.172,2970.488Zm7.653-14.266-.56,4.4-2.618-3.171a17.74,17.74,0,0,0-.153,3.346c.1,1.335.323,2.641.536,4s.323,2.641.644,3.864c.861,3.417,3.29,4.85,6.281,6.16a19.258,19.258,0,0,0,.3-11.486c-.369-1.027-.848-2.436-1.535-2.751C1192.77,2959.682,1192.855,2957.766,1191.825,2956.222Zm21.492-24.115a34.59,34.59,0,0,1-7.32,3.969c-2.845.935-3.9,4.207-5.209,7.016a46.341,46.341,0,0,0,12.526-10.96Zm4.761,13.1c-.059,1.354-.453,2.487-.08,3.129,2.051,2.981,2.742,7.009,6.467,8.62,2.776,1.217,3,3.169,1.9,6.457-1.975-.724-1.254-2.823-2.174-3.8-1.347-1.374-3.042-2.326-4.311-3.788a45.721,45.721,0,0,1-3.479-5.325c-2.242,5.3-2.01,9.012.792,11.625,3.248,3.218,6.737,5.967,8.285,10.938a10.394,10.394,0,0,0,4.293-6.422,44.414,44.414,0,0,0,1.177-9.253,8.2,8.2,0,0,0-.525-3.863,7.379,7.379,0,0,0-2.208-3.043C1225.011,2948.562,1221.635,2947.071,1218.078,2945.211Zm-8.341,4.49a14.486,14.486,0,0,0-1.57,4.845,18.008,18.008,0,0,0,.178,6.093,73.88,73.88,0,0,0,2.88,8.067,5.911,5.911,0,0,0,2.746-1.4,7.015,7.015,0,0,0,1.842-2.7l-4.886-4.8c2.363-3.22.229-7.326,1.695-11.883-1.452.874-2.592,1.087-2.888,1.8Zm40.554-47.526a7.734,7.734,0,0,0,.905-1.934l-.489-.612a15.278,15.278,0,0,0-2.8,2.025,114.152,114.152,0,0,1-14.932,13.63c-1.564,1.213-2.668,3.109-4.1,4.347a37.333,37.333,0,0,1-12.311,8.554c-.979.374-1.93.7-1.052,2.37,1.16-.544,2.482-1.65,3.5-1.474a5.305,5.305,0,0,0,2.767-.4,5.869,5.869,0,0,0,2.281-1.777,16.219,16.219,0,0,1,2.653-1.926,21.818,21.818,0,0,0,3.964-2.414c3.114-3.046,6.076-6.329,9.095-9.523C1243.3,2909.433,1246.826,2905.85,1250.291,2902.175Zm11.936-13.112c-3.5-.69-5.218.493-8.009,6,2.958-.218,2.958-.218,8.013-6.025Zm54.294-13.577c-1.483.043-2.736.078-4.149.11l-1.653,4.416c2.051.662,3.8,1.238,6.024,1.935Zm-10.548-24.219a5.666,5.666,0,0,0,1.383,2.695,16.536,16.536,0,0,1,4.249,8.569c.651,2.372,1.231,4.779,2,7.122q.857,2.176,1.913,4.244l.741-.293c-.474-3.058-.995-6.1-1.422-9.172a30.062,30.062,0,0,0-3.383-9.121,7.92,7.92,0,0,0-2.291-2.764,6.629,6.629,0,0,0-3.121-1.292Zm-8.249-4.436a42.356,42.356,0,0,0-2.1,5.773,110.9,110.9,0,0,0-2.247,12.651,17.451,17.451,0,0,0,.584,8.078,88.616,88.616,0,0,1,3.255,10.127c1.115,3.725,2.162,7.462,3.53,12.243.86-1.944,1.376-2.951,1.737-4.014s.818-2.855,1.267-4.235a120.573,120.573,0,0,0,4.438-13.635c1.536-7.431.444-14.374-5.284-19.7a14.009,14.009,0,0,1-5.113-7.3Zm-22.892,27.088a21.142,21.142,0,0,0-4.364,2.516c-2.481,1.65-4.741,3.524-7.283,4.931-.979.554-2.442.086-3.67.1l-.253-1.054c2-1.437,4.406-2.123,6.424-3.529s3.978-3.237,6.239-5.111c-9.229-3.88-18.152.908-23.124,10.34a2.7,2.7,0,0,0,.414.674,5.273,5.273,0,0,0,1.231.862,21.99,21.99,0,0,0,16.608.7C1271.533,2882.882,1273.482,2878.807,1274.832,2873.919Zm2.8-7.7.484.482,1.437-1.65-.671-.622Zm58.521-31.458a3.827,3.827,0,0,0-1.355-1.588,3.106,3.106,0,0,0-1.874-.517,33.446,33.446,0,0,1-5.55-1.378c-1-.2-1.965-.618-2.949-.917l-.384.7a32.6,32.6,0,0,1,11.48,13.141c-1.458,1.1-2.084.491-2.749-.542a69.949,69.949,0,0,0-5.252-7.454c-3.143-3.506-6.555-6.678-9.856-10.009-.063,4.24-.455,8.21,2.555,11.328,1.025,1.053,1.387,2.852,2.231,4.255,1.476,2.327,3.1,4.555,4.651,6.819,3.844.5,7.038,3.964,11.06,3.6a14.8,14.8,0,0,0,2.7-.679,60.252,60.252,0,0,1-2.3-8.857,22.772,22.772,0,0,0-2.3-7.8Zm19.608-37.683a12,12,0,0,1,1.957-6.444c1.942-3.664,4.3-7.4.962-11.847a1.172,1.172,0,0,1-.107-.408c-1.548-5.692-5.592-7.829-10.121-9.727a28.527,28.527,0,0,1,.172,4.183,16.325,16.325,0,0,0,.472,5.686,15.575,15.575,0,0,0,2.383,5.084c2.38,3.432,1.82,6.932,2.091,10.516-.048.376-.51.8-.79,1.209-1.7-1.469-1.805-1.515-1.484-3.152a10.747,10.747,0,0,0-1.077-6.708c-1.774-3.908-3.092-8.008-4.556-11.853a12.743,12.743,0,0,0-2.563,6.777,13.9,13.9,0,0,0,1.4,7.326,59.662,59.662,0,0,1,2.172,9.526c.712,3.156,1.467,6.32,2.336,10.022C1353.309,2804.9,1356.026,2802.288,1355.757,2797.081Zm-4.931-42.829a6.119,6.119,0,0,0,.386,2.989,5.448,5.448,0,0,0,1.733,2.325,34.262,34.262,0,0,1,6.7,9.44l-2.376.821c1.066,1.086,1.918,2.775,3.078,2.952,3.862.53,6.527,3.864,9.9,5.354a12.724,12.724,0,0,1,2.394,2.07c-.547.562-1.024,1.267-1.195,1.182-2.987-1.516-5.94-3.13-8.829-4.7.319,3.928,1.134,5.376,4.033,6.335,1.716.622,3.507,1,5.178,1.794a6.032,6.032,0,0,0,3.663.535,6.194,6.194,0,0,0,3.305-1.739c-4.087-10.368-7.022-13.009-14.269-15.853a24.5,24.5,0,0,1-10.659-9.061c-1.11-1.457-2.052-2.983-3.041-4.492Zm-3.464-18.107c-.8,1.646-1.436,2.707-1.905,3.9-1.341,3.4-2.641,6.825-3.963,10.251-1.671,2.247-1.777,5.759-5.17,6.352-.931.178-1.715,2.239-2.258,3.473-1.777,4.134-3.344,8.413-5.175,12.461-.992,2.072-1.995,3.884-.807,6.335a10.47,10.47,0,0,0-2.937,3.262,12.217,12.217,0,0,0-1.51,4.366,16.446,16.446,0,0,1-1.415,4.878c-1.911,3.411-4.344,6.464-6.11,9.981a41.064,41.064,0,0,1-10.922,12.822c-1.3,1.135-2.459,3.252-3.839,3.393-3.54.333-4.73,4.686-7.978,5.207-.361,2.841-2.237,1.517-2.95,1.583-2.6,2.581-4.886,4.835-7.275,6.839s-5.687,4.344-8.492,6.574c-.936.743-1.793,2.482-2.909.716s.32-2.515,1.364-3.211l.6-.448c3.589-2.669,7.17-5.288,10.7-8.021a17.38,17.38,0,0,0,2.13-2.467c-3.214.088-5.921.3-8.616.235a6.475,6.475,0,0,0-3.325.706,7.275,7.275,0,0,0-2.651,2.343,102.011,102.011,0,0,0-6.218,8.879c-2.136,3.574-3.94,7.393-7.306,9.746,0,0-.058.452-.119.931a38.061,38.061,0,0,0,12.5-.964,19.28,19.28,0,0,0,8.807-3.885,22.45,22.45,0,0,0,6.324-7.928,15.5,15.5,0,0,1,3.31-4.22c5.521-4.839,11.146-9.581,16.785-14.269.457-.374,1.239-.272,1.892-.4-.1.8.364,1.954-.01,2.575-3.535,5.283-4.333,12.446-8.744,17.117a2.61,2.61,0,0,0-.5,1.062,33.371,33.371,0,0,1-5.714,10.628c-3.023,4.3-6.455,8.238-9.7,12.339a17.1,17.1,0,0,0-1.351,1.874,1.884,1.884,0,0,0-.267.707,2.074,2.074,0,0,0,.019.777,2,2,0,0,0,.3.706,1.72,1.72,0,0,0,.531.5,39.175,39.175,0,0,0,3.755-3.8,60.06,60.06,0,0,0,6.265-9.074,77.138,77.138,0,0,1,5.777-9.686c2.779-3.988,5.4-8.188,7.964-12.427,2.25-3.757,4.256-7.743,6.52-11.6,1.212-2.029,2.565-2.3,4.219-.483a25.49,25.49,0,0,1,2.95,5.376c.4.8.574,1.917,1.133,2.337a40.053,40.053,0,0,0,6,3.758c1.405.741,3.674,1.833,4.4,1.15,1.8-1.655,3.215-.99,4.944-.288a1.967,1.967,0,0,0,.892.047,2.029,2.029,0,0,0,.828-.353,11.352,11.352,0,0,1,6.559-1.567,11.956,11.956,0,0,0,2.962-.963c-2.432-2.671-4.452-5-6.579-7.2a3.475,3.475,0,0,0-1.966-.8,68.415,68.415,0,0,0-7.528-.994,16.707,16.707,0,0,0-7.55.239,6.249,6.249,0,0,0,2.106,2.118,5.235,5.235,0,0,0,2.706.764c2.216.436,4.455.7,6.807,1.133a2.338,2.338,0,0,1,2.223,2.527c-.59.167-1.258.6-1.835.49-3.812-.752-7.623-1.5-11.38-2.5a6.536,6.536,0,0,1-2.663-2.1c-1.037-1.132-1.948-2.549-2.884-3.764a5.525,5.525,0,0,1-1.144-2.316,5.78,5.78,0,0,1,0-2.626,30.467,30.467,0,0,1,2.733-8.636c1.614-3.394,2.015-7.619,3.812-10.849a95.011,95.011,0,0,0,6.642-17.917c1.38-4.419,2.469-8.689,5.725-12.145,2.414-2.54,3.59-6.613,5.232-10.053.035-.276-.449-.939-.679-1.447,1.8-1.837,3.187-.4,4.61.908l-.023.176c-.272,2.137-.544,4.274-.812,6.386a3.059,3.059,0,0,0,.319,1.944c1.98,2.3,2.859,5.925,6.348,6.174a7.9,7.9,0,0,1,2.288.941,11.406,11.406,0,0,0-2.862-4.817,13.524,13.524,0,0,1-4.253-7.462q-.487-1.62-1.116-3.184l.026-.2c.516-.491.97-1.2,1.581-1.364s1.14.508,2.484,1.186l-2.825-7.258a7.487,7.487,0,0,0,1.034-3.69A7.941,7.941,0,0,0,1347.362,2736.145Zm34.681,3.614-1.654,5.86a55.333,55.333,0,0,1,6.439,5.445,7.827,7.827,0,0,0,2.739,1.955,6.821,6.821,0,0,0,3.17.524c2.878.051,5.744.023,8.626-.131a10.018,10.018,0,0,0,4.545-.976,11.013,11.013,0,0,0,3.771-2.978,28.374,28.374,0,0,1,3.52-3.378,2.6,2.6,0,0,0,.9-.955,3.144,3.144,0,0,0,.385-1.344,3.332,3.332,0,0,0-.228-1.409,3,3,0,0,0-.784-1.135,9.81,9.81,0,0,0-6.327-3.824,67.4,67.4,0,0,0-7.874-.959,12.249,12.249,0,0,0-6.554,1.517,11.859,11.859,0,0,1-5.136,2.214A11.663,11.663,0,0,1,1382.043,2739.759Zm-19.318-36.334a36.018,36.018,0,0,0,3.183-9.837,120.779,120.779,0,0,1,4.556-17.945,18.1,18.1,0,0,0,1.325-10.409l-2.254,1.464c-3.249,2.144-3.233,2.2-2.731,6.472a16.049,16.049,0,0,1-.3,3.446c-.575,4.525-2.873,8.66-2.041,13.181a21.96,21.96,0,0,0-2.449,4.079c-2.175,6.555-4.093,13.241-6.293,19.817-1.9,5.657-4.036,11.19-6.239,17.25,3.876-.111,6-4.667,9.173-18.527.443.086,1.13.222,1.241.424.941,2.944,1.764,5.942,2.707,8.885.536,1.678-.848,2.023-1.333,2.985a1.929,1.929,0,0,0-.1.8c.037,3.1.005,6.212.086,9.321a28.866,28.866,0,0,0,3.479,11.615,25.312,25.312,0,0,0,7.732,8.637c1.334-3.344,2.741-6.727,4.041-10.157a27.124,27.124,0,0,0,1.527-4.854q.189-2.359.148-4.739c.142-2.369.32-4.834-1.441-6.522-2.938-2.8-6.022-5.337-9.476-8.362-.076,2.562-.773,5-.029,5.768,2.25,2.66,2.568,6.227,4.249,9.084a13.978,13.978,0,0,1,1.333,4.7c.094.508-.515,1.187-1.01,2.224-.515-1.133-.805-1.706-1.022-2.315a73.569,73.569,0,0,0-4.173-10.592c-2.435-4.243-2.157-8.75-2.607-13.246a50.811,50.811,0,0,0-1.144-6.72,7.9,7.9,0,0,1-.648-2.966A7.659,7.659,0,0,1,1362.725,2703.425Zm13.784-35.481-.023.176-.026.2-2.687,12.021a11.251,11.251,0,0,0,2.941-5.5,12.863,12.863,0,0,0-.254-6.524l.049-.377c1.971-2.988,1.019-6.758,1.746-9.966A21.648,21.648,0,0,0,1376.509,2667.944Zm-5.32,23.952c1.832-2.087,3.634-3.923,5.148-6,.383-.517-.144-1.909-.3-3.153-3.813,2.831-4.59,4.3-4.863,9.12Zm24.352-12.855a7.191,7.191,0,0,0-1.518-3.96c-3.211-4.757-7.578-8.453-9.924-14.662a12.379,12.379,0,0,0-.2,7.331c1.361,4.649,3.1,9.193,4.56,13.785a7.427,7.427,0,0,1,.658,2.73,7.235,7.235,0,0,1-.4,2.759,17.51,17.51,0,0,1-1.851-3.3c-2.083-7.188-4.068-14.437-6.271-22.113a35.473,35.473,0,0,0-.792,4.431c-.263,5.1-.106,10.29-.749,15.524a12.5,12.5,0,0,0,1.876,8.1,10.024,10.024,0,0,0,1.261,2.052c2.362,2.683,3.728,6.406,6.658,8.556a24.9,24.9,0,0,0,5.088-11.24,62.53,62.53,0,0,0,1.59-10Zm59.443-99.733a8.529,8.529,0,0,0-1.941-3.764,6.989,6.989,0,0,0-3.356-2.1,8.433,8.433,0,0,0,1.925,3.765,6.917,6.917,0,0,0,3.349,2.095ZM1430,2632.789c-3.927,5.876-8.8,10.921-13.236,16.362-.7.842-1.231,1.818-1.847,2.729,1.221,1.3,1.953.539,2.7-.14a110.114,110.114,0,0,0,18.018-19.49,72.156,72.156,0,0,0,6.773-9.85c2.695-5.991,4.628-12.44,6.919-18.664,1.4-3.873,2.781-7.751,4.225-11.591.917-2.4,1.9-4.779,2.893-7.394l-8.329-5.945c-.035.276-.371.417-.425.663l-6.486,29.187a23.435,23.435,0,0,1-1.331,5.46,172.781,172.781,0,0,1-9.895,18.669Zm-35.071,12.471c-1.319-.518-2.636-1.061-3.955-1.58l-.542.873,1.556,3.3,2.988-1.705Zm16.328-34.233a3.626,3.626,0,0,0,.5,1.182,3.141,3.141,0,0,0,.861.877,2.7,2.7,0,0,0,1.085.432,2.488,2.488,0,0,0,1.133-.085c-1.235-1.712-1.842-3.016-3.6-2.41Zm-16.581,29.439c2.438,1.383,3.554-.253,4.62-1.666,4.275-5.4,8.536-10.844,12.669-16.37,2.436-3.257,1.676-5.494-2.344-7.112C1405.8,2624.513,1401.84,2633.476,1394.68,2640.466Zm-8.772,6.288c.141,2.991,2.091,3.2,4.063,3.765-.279-3.69-.279-3.69-4.153-3.783Zm-2.738-1.158a6.77,6.77,0,0,0-1.015,3.356,7.2,7.2,0,0,0,.755,3.5c2.319,3.911,2.873,9.2,7.03,11.7.652.413.908,1.622,1.48,2.3a48.786,48.786,0,0,0,6.513,7.186,20.607,20.607,0,0,0,6.519,2.317c3.94-2.4,8.509-2.242,12.681-3.61a18.468,18.468,0,0,0,3.358-1.4c2.9-1.515,5.78-3.113,8.642-4.714.538-.306.982-.761,2.038-1.557-12.482-3.311-24.168-6.438-36.066-9.686l-.493,1.012a40.172,40.172,0,0,1,4.778,4.936,7.56,7.56,0,0,0,3.121,2.775,6.3,6.3,0,0,0,3.892.489,23.419,23.419,0,0,1,10.673.557c.422.083.664,1.213,1.1,2.047-3.185-.137-5.823-.3-8.451-.351a48.487,48.487,0,0,1-6.089.011,7.646,7.646,0,0,1-3.861-1.972c-4.285-3.989-8.395-8.279-12.655-12.288-2.105-1.678-4.382-3.056-4.042-6.621Zm.194-5.452c-1.019,1.757-.786,2.6,1.114,3.029Zm-28.541-22.585c1.966-.464,3.9-1.036,5.923-1.564-1.131-2.182-4.342-1.578-4.844-5.312,2.735,1,5.54,1.093,7.273,2.826,2.635,2.5,5.911,2.995,8.546,5.138a3.219,3.219,0,0,0,1.194.638,2.919,2.919,0,0,0,1.306.071,2.987,2.987,0,0,0,1.214-.51,3.4,3.4,0,0,0,.932-1.01c-2.91-1.94-5.795-3.72-8.364-5.668a17.952,17.952,0,0,0-14.815-3.179,28.286,28.286,0,0,0-4.505,1.483,33.86,33.86,0,0,0,.973,3.955c1.345,3.539,1.85,3.845,5.2,3.036Zm18.277,13.989c.484.3.965.629,1.677,1.1l1.784-4.029c-4.788-1.1-8.3,2.049-12.289,3.041s-7.8,3.077-12.215,3.161a4.321,4.321,0,0,1,.9-2.407,3.4,3.4,0,0,1,2.015-1.245c5.9-1.931,11.815-3.6,17.837-5.4a7.11,7.11,0,0,0,1.721-1.207,17.064,17.064,0,0,0-7.785-3.625,15.517,15.517,0,0,0-8.278.794,5.2,5.2,0,0,1-1.736.431,6.854,6.854,0,0,0-2.946.772,7.561,7.561,0,0,0-2.428,2.009l-10.178,10.726c-.02.152-.061.479-.122.955,3.857,1.457,7.776,2.8,11.612,4.429a9.48,9.48,0,0,0,7.39-.064,69.048,69.048,0,0,0,8.9-4.071,6.219,6.219,0,0,0,2.26-1.943,7.4,7.4,0,0,0,1.242-2.908A1.84,1.84,0,0,1,1373.1,2631.548Zm-4.753,31.1c1.684.152,2.8.269,4.037.41a83.633,83.633,0,0,1,5.66-18.242c2.332-6.009,3.86-12.488,5.7-18.723,1.071-3.423,2.358-6.751,3.557-10.1.26-.619,1.17-1.522,1.493-1.381,1.924.766,2.4-.971,2.884-2.138.924-1.726,1.556-3.662,2.436-5.4,3.012-5.824,6.032-11.7,9.032-17.422a85.221,85.221,0,0,1,9.368-15.242,22.516,22.516,0,0,0,1.961-3.454l-1.041-.2c-3.1,2.429-6.184,4.864-9.319,7.364-.406-.388-.949-.934-1.423-1.491l8.076-7.945c-1.015-.587-1.9-1.122-2.7-1.59a2.91,2.91,0,0,1,.006-1.081,2.639,2.639,0,0,1,.4-.968,2.242,2.242,0,0,1,.72-.68,1.986,1.986,0,0,1,.913-.271,19.1,19.1,0,0,0,4.425-1.577,9.246,9.246,0,0,0,5.178-4.985,11.354,11.354,0,0,0-3.969,1.2,26.61,26.61,0,0,1-4.211,2.211,7.035,7.035,0,0,0-3.39,2.149,8.585,8.585,0,0,0-1.916,3.842c-1.011,3.3-2.412,6.458-3.651,9.591-1.486,2.928-3.01,5.8-4.391,8.8-1.137,2.508-1.894,5.245-3.034,7.779-2.5,5.513-5.105,11.005-7.692,16.526l-4.678,9.98c-1.257,2.742-2.535,5.455-3.773,8.226-.317.71-.376,1.7-.848,2.2-2.419,2.59-2.836,6.039-3.5,9.621a12.721,12.721,0,0,1-3.517,8.173,1.982,1.982,0,0,0-.539,1.028c-.637,4.462-1.431,8.92-2.321,13.77Zm-98.321,68.95a6.845,6.845,0,0,0,2.473-.156c3.042-1.772,6.087-3.569,9.042-5.539,3.353-2.252,6.561-4.789,9.977-7a58.1,58.1,0,0,1,9.484-5.451,29.622,29.622,0,0,0,9.543-6.083,74.03,74.03,0,0,1,8.1-6.524c4-2.871,8.127-5.485,12.421-8.351,1.3.875,1.682,1.776.617,3.008a9.369,9.369,0,0,0-2.049,2.715,12.132,12.132,0,0,1-4.367,5.043,13.623,13.623,0,0,0-2.921,3.315c-2.114,3.939-1.1,8.675-2.291,12.822,5.607-3.534,11-6.852,16.328-10.313a8.753,8.753,0,0,0,2.987-3.3c1.839-4.1,3.488-8.309,2.466-13.3a35.326,35.326,0,0,1-.268-5.749,53.966,53.966,0,0,1,4.722-2.651c4.993-2.469,9.993-4.989,15.041-7.345a3.176,3.176,0,0,0,1.889-1.387,4.075,4.075,0,0,0,.624-2.474c-.077-1.175-.038-2.378-.062-3.62-2.237-.261-4.393-1.176-6.412.411,1.857,1.475,4.653.917,4.635,4.445a15.646,15.646,0,0,0-3.084.861c-2.421,1.172-4.707,2.526-7.024,3.77a58.478,58.478,0,0,0-10.02,6.093,34.151,34.151,0,0,1-8.325,5.267c-4.138,1.993-8.314,3.928-12.367,6.145s-7.59,4.484-11.285,6.925a3.207,3.207,0,0,1-1.983.688,3.359,3.359,0,0,1-2.014-.7,15.282,15.282,0,0,0-10.4-2.719,8.5,8.5,0,0,1-4.292-.489,9.777,9.777,0,0,1-3.722-2.586c-2.245-2.35-4.572-4.587-6.924-6.8a8.943,8.943,0,0,0-3.853-2.273,7.884,7.884,0,0,0-4.287,0,64.093,64.093,0,0,1-6.967,1.205c.064,1.817-.564,4.425.312,5.577,3.009,4.021,5.268,8.771,9.941,11.135,4.275,2.106,7.839,1.055,12,.509-1.615-2.664-1.624-2.589-3.42-2.942a7.631,7.631,0,0,1-2.141-1.015c-1.284-.794-2.512-1.681-3.743-2.542-2.663-1.917-5.331-3.808-7.962-5.8a3.016,3.016,0,0,1-.875-1.694,1.412,1.412,0,0,1,.022-.713,1.2,1.2,0,0,1,.363-.571.987.987,0,0,1,.582-.244,1.018,1.018,0,0,1,.615.165,29.6,29.6,0,0,1,5.742,4.147,18.872,18.872,0,0,0,11.179,6.225c5.859.9,11.764,1.441,17.583,2.125a22.961,22.961,0,0,0-.384,3.017c.039,1.837-.764,3.149-2.245,3.012a11.166,11.166,0,0,0-7.446,3.172c-4.738,3.319-9.661,6.291-14.474,9.492-3.353,2.252-6.672,4.588-9.971,6.953A9.617,9.617,0,0,0,1270.026,2731.6Zm-8.174,5.323c.279-.229.368-.753.86-1.764-2.752.747-4.893.788-6.328-1.685a83.566,83.566,0,0,1-4.314-7.68c-1.986-4.388-4.125-6.15-8.371-5.62s-7.69,1.346-11.618,2.04l-.384,1.059c1.262.97,2.5,1.936,3.767,2.881,2.217,1.675,4.5,3.232,6.634,4.994s4.351,4,6.641,5.82a12.391,12.391,0,0,0,6.61,1.926A11.932,11.932,0,0,0,1261.852,2736.922Zm-27.371,27.647a10.524,10.524,0,0,0-.95,3.01c-1.465,5.613-2.764,11.181-1.122,17.2a18.965,18.965,0,0,1-.138,4.482c-.023,1.413.065,2.875.117,4.432,2.761-.1,2.59-2.506,3.352-4.03,2.35-5.44,4.346-11.129,8.985-14.725a7.192,7.192,0,0,0,1.671-2.249,28.215,28.215,0,0,0,4.017-13.719,4.682,4.682,0,0,0-.512-2.459,4.013,4.013,0,0,0-1.66-1.706c1.335-1.747,2.234-3.812,3.675-4.61,3.622-1.864,6.038-5.668,9.3-8.117l.113-.88c-2.621.772-5.271.9-7.209,3.09-2.451,2.661-5,5.226-7.49,7.8l.567,2.688a5.879,5.879,0,0,0-2.309.293A28.575,28.575,0,0,0,1234.481,2764.569Zm-15.88,16.253a40.9,40.9,0,0,1-6.018,4.278c-4.043,1.781-8.067,3.951-12.81,3.017a17.456,17.456,0,0,0-5.652.691c-2.125.276-4.229.738-6.357.859-1.166.054-2.035-.788-1.716-2.76,6.29-.694,12.624-1.379,19.189-2.094-2.528-3.7-3.1-4.22-4.946-4.508a16.457,16.457,0,0,0-12.2,3.576c-3.35,2.407-6.624,4.751-10.87,4.379-.487-.1-1.013.469-1.647.81a7.884,7.884,0,0,0,2.3,2.481,6.652,6.652,0,0,0,2.987,1.137,21.519,21.519,0,0,1,4.9,1.482,11.639,11.639,0,0,0,9.141,1,52.606,52.606,0,0,0,5.329-2.25c.985-.424,2-1.1,2.965.972l-5.946,6.559a14.034,14.034,0,0,0-2.861,3.741,10.151,10.151,0,0,1-5.077,5.8l.679.907a21.7,21.7,0,0,0,4.261-3.31,26.566,26.566,0,0,1,10.019-7.33c1.992-4.943,3.079-10.631,8.919-11.541.51-.08.935-.744,1.4-1.169q5.718-5.134,11.441-10.3c.824-.765,2.016-1.382,1.591-3.218a35.165,35.165,0,0,1-2.923,2.621C1222.693,2778.123,1220.6,2779.412,1218.6,2780.822Zm2.985-27.2a8.677,8.677,0,0,0-3.482,1.939,10.112,10.112,0,0,0-2.446,3.413c-1.017,2.814-2.373,5.435-3.579,8.135,8.931,3.359,20.172-1.437,25.745-11.318-6,2.168-12.485,2.256-16.906,7.906-1.954-2.5-1.9-2.952-.46-4.422a6.331,6.331,0,0,1,2.136-1.434c4.419-1.526,8.9-2.989,13.355-4.456l5.663-2-.2-1.457c-1.622.067-3.233.059-4.868.227a22.092,22.092,0,0,1-3.9.624A22.946,22.946,0,0,0,1221.586,2753.626Zm-15.511-3.057a9.089,9.089,0,0,0,5.4,2.247,8.482,8.482,0,0,0,5.471-1.627,24.948,24.948,0,0,1,7.242-4.422,1.034,1.034,0,0,1,.156.03c1.473,1.09,2.662.318,4.066-.539-2.015-2.02-2.888-.157-4.066.539l-.112-.022-.133-.026c-1.92-1.333-3.566.174-5.324.6s-3.1,1.166-4.489-.422c.054-.427.08-.628.086-.679l5.359-2.836a12.432,12.432,0,0,0-7.806,1.314,14.34,14.34,0,0,0-5.836,5.921Zm118.551-92.619c-1.752-1.042-3.625-1.849-5.439-2.774l-.511.983a8.877,8.877,0,0,0,1.555,1.517c1.538.948,3.158,1.783,4.753,2.638a1.446,1.446,0,0,0-.446-2.2Zm-12.206,125c-3.45-1.274-6.912-2.446-10.4-3.391-1.264-.25-2.863-.72-3.549,1.465a18.95,18.95,0,0,1,5.618,1.725,15.819,15.819,0,0,0,8.951,2.487C1312.867,2784.427,1312.79,2783.071,1312.42,2782.947Zm75.551-36.221a12,12,0,0,1,2.486.284,14.349,14.349,0,0,0,10.224-.561c2.6-.983,5.266-1.746,7.866-2.729.549-.2.994-.835,1.481-1.28l-.147-.8a6.964,6.964,0,0,0-2.53-.292c-2.091.542-4.117,1.3-6.184,2a14.139,14.139,0,0,1-9.821.95,22.656,22.656,0,0,0-4.918-1.15c-.577-.113-1.191.436-1.864.717C1385.977,2746.152,1386.265,2746.39,1387.971,2746.726Zm-54.129-51.6a5.449,5.449,0,0,0-1.464,2.473,6.312,6.312,0,0,0-.1,3.019,6.338,6.338,0,0,1-.1,3.217,5.424,5.424,0,0,1-1.637,2.575c-1.177,1.211-2.273,2.516-3.7,4.091,2.712,1.179,3.739-.99,5.024-2a5.57,5.57,0,0,0,2.363-2.926,6.8,6.8,0,0,0,.181-4.021,4.3,4.3,0,0,1,.116-2.393,3.586,3.586,0,0,1,1.349-1.8c1.186-1.107,2.217-2.424,3.323-3.624a2.28,2.28,0,0,0-.375-3.477c-1.047-.875-1.9-.22-2.411,1.1a17.528,17.528,0,0,1-2.65,3.68ZM1194.1,2963.011c-.408-.544-1.206-.7-2.376-1.319l3.65,7.009a6.807,6.807,0,0,0,.007-3.013A6.51,6.51,0,0,0,1194.1,2963.011Zm-52.66-2.106c-.484,2.2.627,2.933,1.9,2.951a59.26,59.26,0,0,0,6.968-1.2c.33-.091.53-.773,1.235-1.845C1147.817,2960.745,1144.628,2960.813,1141.436,2960.905Zm58.347-33.476c-4.865-1.216-9.8-1.7-15.18-2.631,2.276,3.181,10.282,5.248,16.985,4.688C1200.7,2928.46,1200.29,2927.554,1199.783,2927.429Zm77.626-168.7a34.177,34.177,0,0,0-14.862,9.675c-.738.807-.983,1.841.374,3.139,4.847-4.534,9.607-9.627,16.669-10.143l-.7-2.715A5.744,5.744,0,0,0,1277.409,2758.726Zm-26.659-26.854a21.73,21.73,0,0,1-7.736-6.679,5.936,5.936,0,0,0-3.132-1.623,17.27,17.27,0,0,0-3.335-.4c-.627,2.789.68,2.866,1.707,2.656a4.006,4.006,0,0,1,2.824.359,4.946,4.946,0,0,1,2.118,2.213,4.623,4.623,0,0,0,1.269,1.461c2.256,1.553,4.129,4.139,7.768,3.929-.682-1.063-.967-1.686-1.416-1.9Zm72.538,5.843c3.371-1.5,5.231-5.413,3.947-8.346-3,2.5-4.177,4.976-3.881,8.359ZM1250.551,2861.4c-1.62-.655-3.144-2.063-5.473-1.079a5.379,5.379,0,0,0,1.954,2.612,4.256,4.256,0,0,0,2.908.769,1.417,1.417,0,0,0,.606-.344,1.691,1.691,0,0,0,.4-.617A1.984,1.984,0,0,0,1250.551,2861.4Zm68.225-109.471c-.068.527.811,1.293,1.229,1.942.243.049.5-.158.731-.217.266-4.766,2.451-9.078,1.8-14.1C1319.361,2742.869,1319.7,2747.68,1318.776,2751.93Z" transform="translate(-1108.566 -2551.784)" fill="#101a24" opacity="0.1"/>
</svg>
