<svg xmlns="http://www.w3.org/2000/svg" width="180.767" height="257.257" viewBox="0 0 180.767 257.257">
  <path id="pasto1" d="M1335.176,4065.372a3.525,3.525,0,0,0-2.011-.414c-1.426.2-2.853.585-4.28.914a26.189,26.189,0,0,0-6.405,2.11,34.538,34.538,0,0,1-9.044,3.138,88.835,88.835,0,0,0-10.385,3.152c-2.225.771-4.28,2.054-6.534,2.768a8.374,8.374,0,0,0-3.68,2.1,33.211,33.211,0,0,1-5.121,3.823q-5.508,3.781-11.014,7.5c-1.013.685-2.083,1.27-3.124,1.883,0-.528.413-.755.6-1.055a22.54,22.54,0,0,1,7.346-6.619,62.785,62.785,0,0,0,5.551-3.838,30.381,30.381,0,0,1,6.889-4.279,8.222,8.222,0,0,0,2.227-1.427,60.075,60.075,0,0,1,8.886-7.83,8.445,8.445,0,0,0,1.427-1.255c3.666-3.609,6.206-8.075,9.2-12.2,2.154-2.982,4.28-6.006,6.533-8.888a26.253,26.253,0,0,0,5.706-11.141,5.12,5.12,0,0,0-.456-4.422,7.5,7.5,0,0,0-2.026,1.041c-4.108,4.137-8.145,8.331-12.225,12.5-2.268,2.34-4.551,4.664-6.875,6.961-.914.927-1.955,1.726-2.853,2.625-2.639,2.468-5.251,4.965-7.9,7.433a12.569,12.569,0,0,1-1.326.955,46.693,46.693,0,0,1,2.5-6.391c.556-1.241,1.113-2.5,1.726-3.709,1.227-2.368,2.54-4.707,3.738-7.133,1.583-3.2,2.966-6.505,4.679-9.628a29.966,29.966,0,0,0,3.152-9.615c.386-2.354.985-4.65,1.541-6.961.328-1.328.827-2.611,1.184-3.938.556-2.04,0-2.6-2.125-2.653q-2.7,4.28-5.393,8.559c-1.8,2.853-3.723,5.92-5.549,8.9a35.992,35.992,0,0,1-3.766,6.019,5.362,5.362,0,0,0-.642,1.07c-1.327,2.312-2.71,4.608-3.98,6.962-1.427,2.625-2.71,5.292-4.051,7.946a16.993,16.993,0,0,1-2.184,4.037c-.086-.486-.129-.7-.171-.914-.285-1.583-.528-3.166-.856-4.721-.228-1.113-.67-2.169-.842-3.281-.342-2.111-.584-4.279-.813-6.348a22.143,22.143,0,0,1,.157-6.577,18.337,18.337,0,0,0,0-4.279c0-.828-.228-1.641-.3-2.468-.171-1.812-.243-3.652-.5-5.463s-.642-3.5-1.041-5.222a3.758,3.758,0,0,0-.8-1.44c-.513-.6-1.013-.5-1.426.186s-.585,1.155-.956,1.682c-1.712,2.412-2.554,5.407-3.952,8.118a1.644,1.644,0,0,0-.156.513,17.845,17.845,0,0,0-.086,8.459,17.421,17.421,0,0,1,.328,7.932c-.413,2.211-.528,4.465-.784,6.69a5.23,5.23,0,0,1-.172,1.056,33.29,33.29,0,0,0-.371,9.058c.143,2.525.743,5.022,1.056,7.532a22.085,22.085,0,0,1,0,7.8,57.476,57.476,0,0,1-3.124,10.6,13.006,13.006,0,0,1-1.427,2.753c-1.968,2.525-4.051,4.964-5.962,7.518-2.283,3.024-4.423,6.148-6.662,9.2-.628.87-1.427,1.655-2.084,2.468a58.412,58.412,0,0,1,1.585-6.091c2.025-6.533,4.094-13.053,6.091-19.6,1.426-4.665,2.753-9.358,4.137-14.037.5-1.668.984-3.323,1.5-4.964a1.512,1.512,0,0,0,.172-.573,1.551,1.551,0,0,0-.062-.594,1.524,1.524,0,0,0-.286-.526,1.5,1.5,0,0,0-.466-.375,4.076,4.076,0,0,0-.727.656c-1.554,2.325-3.124,4.622-4.579,7-1.883,3.024-3.752,6.062-5.478,9.171-1.427,2.711-2.767,5.535-4.18,8.289s-3,5.292-4.165,8.059c-2.368,5.592-4.551,11.255-6.719,16.918a16.459,16.459,0,0,0-1.327,6.264,15.477,15.477,0,0,1-1.569,6.718c-.528,1.2-1.156,2.339-1.67,3.537-1.283,3-2.6,5.992-3.78,9.031a42.791,42.791,0,0,0-1.74,5.62,8.713,8.713,0,0,1-1.755,3.823,20.511,20.511,0,0,0-4.379,8.288,3.613,3.613,0,0,1-1.626,2.126,4.385,4.385,0,0,1,.157-1.1,69.688,69.688,0,0,0,1.426-7.132,43.4,43.4,0,0,1,1.583-7.86,13.833,13.833,0,0,0,.472-3.153c.085-1.427-.086-2.738,0-4.094.413-5.207,1.012-10.4,1.311-15.606.229-3.894.129-7.817.144-11.726,0-1.826,0-3.666-.129-5.492a7.586,7.586,0,0,0-.542-1.641,8.951,8.951,0,0,0-1.284,1.427c-.913,2.254-1.74,4.551-2.625,6.833s-1.74,4.565-2.7,6.8c-1.256,2.953-2.767,5.806-3.852,8.816a66.231,66.231,0,0,0-3.324,20.671,88.718,88.718,0,0,0,.742,10.428c.271,2.709.7,5.406,1.127,8.1a12.182,12.182,0,0,1,0,5.42c-.756,2.626-1.2,5.321-2.853,7.632-.128.171-.128.443-.228.657a46.831,46.831,0,0,1-1.9,4.407c-2.24,4.195-4.679,8.289-6.834,12.525-1.1,2.154-.656,4.28,1.812,4.993.57.172,1.156.314,1.726.471a1.626,1.626,0,0,0,1.9-.642,24.332,24.332,0,0,0,2.069-3.1c1.426-2.853,2.653-5.706,4.137-8.559,1.626-3.038,3.466-5.962,5.207-8.944a8.458,8.458,0,0,1,4.694-4.123,23.493,23.493,0,0,0,5.391-2.681c3.025-2.012,5.878-4.279,8.817-6.377a43.614,43.614,0,0,0,6.533-6.049q2.54-2.739,5.264-5.306c2.6-2.44,5.293-4.764,7.9-7.133a32.8,32.8,0,0,0,3-3.252c1.341-1.655,2.5-3.467,3.909-5.078a41.991,41.991,0,0,0,5.249-7.4,10.506,10.506,0,0,0,.9-2.112,9.53,9.53,0,0,1,4.58-5.906,9.36,9.36,0,0,0,2.853-2.025,11.007,11.007,0,0,1,3.166-1.812c2.027-1.113,4.039-2.268,6.079-3.353,1.555-.841,3.181-1.583,4.735-2.439,2.454-1.355,4.78-2.939,7.3-4.123a51.2,51.2,0,0,0,9.985-6.718c.343-.257.485-.756.828-1.312-.728-.4-1.3-.971-1.926-1.027a13.707,13.707,0,0,0-4.28,0c-4.65.984-9.258,2.139-13.865,3.266a43.987,43.987,0,0,1-6.549,1.712,26.259,26.259,0,0,0-9.372,3.2c-1.912.926-3.8,1.939-5.706,2.853-2.411,1.155-4.879,2.182-7.275,3.38a46.945,46.945,0,0,0-9.23,6.647c-.528.443-1.07.856-1.841,1.427.086-.542,0-.742.143-.87,2.425-3.267,4.608-6.833,7.775-9.686a28.509,28.509,0,0,1,9.672-5.406c2.025-.685,4.08-1.3,6.091-2.013a74.3,74.3,0,0,1,10.571-3.209,18.669,18.669,0,0,0,7.019-2.51c3.481-2.283,6.9-4.637,10.371-6.934a33.868,33.868,0,0,1,7.56-3.965,20.818,20.818,0,0,0,4.65-2.225c5.321-3.5,10.571-7.133,15.808-10.7a40.022,40.022,0,0,0,3.751-2.98,1.425,1.425,0,0,0-.058-2.5Zm-38,13.266c.413-.614,1.511-.742,2.3-1.1a21.387,21.387,0,0,1-4.593,6.177l-.328-.2A48.183,48.183,0,0,1,1297.174,4078.638Zm-4.808,3.808c.613-1.255,1.227-2.539,2.982-2.853-1.07,1.955-2.069,3.852-3.167,5.706a2.142,2.142,0,0,1-1.526.757C1291.225,4084.872,1291.781,4083.658,1292.366,4082.446Zm-1.555.115a37.024,37.024,0,0,1-2.211,4.707c-.471.756-1.569,1.127-2.382,1.669a8.626,8.626,0,0,1,4.593-6.376Zm13.623-28.687.357.172c-.442.97-.813,1.968-1.326,2.853s-.386,2.182-2.141,2.724C1302.58,4057.6,1303.15,4055.543,1304.434,4053.874Zm-2.567,7.29a67.191,67.191,0,0,0,7.133-6.747c1.183-1.156,2.324-2.369,3.48-3.567.385-.414.742-.856,1.427-1.569a4.277,4.277,0,0,0-1.284.086,26.29,26.29,0,0,0-2.853,2.681,19.865,19.865,0,0,1-4.208,3.795c.556-1.356,1.1-2.711,1.682-4.051a2.447,2.447,0,0,1,.714-.771,49.462,49.462,0,0,0,6.2-6.376c2.2-2.4,4.493-4.722,6.762-7.133,1.226-1.284,2.468-2.539,3.723-3.795.286-.285.614-.513,1.2-1.013a12.669,12.669,0,0,1-2.225,5.208c-1.684,2.853-3.509,5.706-5.364,8.4a48.763,48.763,0,0,1-3.138,3.9,8.6,8.6,0,0,0-.613.642c-2.069,2.853-4.137,5.706-6.149,8.559a29.142,29.142,0,0,1-4.978,5.535c-3.053,2.639-5.892,5.5-8.887,8.2a10.707,10.707,0,0,1-2.225,1.354,29.556,29.556,0,0,0-3,1.527c-1.911,1.312-3.738,2.753-5.606,4.123-.7.513-1.427.984-2.141,1.427l-.356-.386c.756-1.113,1.426-2.282,2.268-3.352a30.363,30.363,0,0,1,8.033-7.7,51.161,51.161,0,0,0,8.559-7.261A15.7,15.7,0,0,1,1301.867,4061.164Zm-1.284-3.1c-1.141,2-1.1,4.779-3.852,5.706C1297.759,4061.735,1298.172,4059.224,1300.583,4058.068Zm-5.35,4.807c-.385,1.156-.7,2.112-1.027,3.053-.085.271-.128.642-.328.785a26.8,26.8,0,0,1-5.007,3.437C1290.554,4067.084,1292.238,4064.516,1295.233,4062.875ZM1281,4046h.385c.5,2.425,1.012,4.837,1.426,7.262a26.2,26.2,0,0,1,.5,3.438,6.992,6.992,0,0,1-.186,2.853,41.73,41.73,0,0,1-3,6.262,10.394,10.394,0,0,1,0-2,12.431,12.431,0,0,0,.086-4.28c-.228-2.054-.271-4.137-.414-6.206a4.912,4.912,0,0,0-.142-1.212c-.628-2.325.585-4.123,1.341-6.048Zm-.175-3.181c.342,1.427-.614,2.1-1.113,3A5.287,5.287,0,0,1,1280.825,4042.819Zm-.4-3.766c.443,1.241,0,2.111-1.269,2.853Zm-3.88,24.294c-.4-3.41-.77-6.834-.927-10.257a80.651,80.651,0,0,1,.771-13.123,47.609,47.609,0,0,0-.1-6.02c0-2.439,0-4.879.1-7.3a4.828,4.828,0,0,0,0-.883c-.443-2.155.5-3.952,1.426-5.778.485-.97.9-1.982,1.341-2.981h.37c.315,2.182.642,4.365.914,6.562a59.819,59.819,0,0,1,.713,6.719,16.465,16.465,0,0,1-.97,7.132,1.682,1.682,0,0,1-.229.485c-2.125,2.34-2.139,5.135-1.825,8.045.171,1.655.086,3.324.185,4.978s.286,3.182.428,4.765.328,3.053.385,4.594c0,1.3-.114,2.6-.085,3.908,0,1.769.185,3.538.242,5.321a3.725,3.725,0,0,1-.214,1.527c-1.1,2.367-2.268,4.707-3.424,7.046a.92.92,0,0,1-.656.485,11.242,11.242,0,0,1,.343-1.426A29.487,29.487,0,0,0,1276.545,4063.347Zm-22.91,21.639c1.113-2.5,2.183-5.007,3.339-7.489.655-1.427,1.426-2.74,2.153-4.08q2.141-3.7,4.28-7.374a9.56,9.56,0,0,1,1.426-2.1,11.7,11.7,0,0,1-.284,1.427c-2.269,7.517-4.594,15.006-6.891,22.467-.927,3.009-1.655,6.1-2.64,9.1-1.241,3.781-2.653,7.5-4.022,11.256-.741,2.011-1.54,4-2.311,5.991a3.07,3.07,0,0,1-.47.97c-1.67,1.912-2.155,4.436-3.368,6.591s-2.268,4.28-3.423,6.447a4.646,4.646,0,0,1-1.427,1.584,30.567,30.567,0,0,1,1.427-4.066,28.31,28.31,0,0,0,1.983-4.749c.556-1.812,1.426-3.538,2.111-5.307.828-2.04,1.669-4.066,2.5-6.1a58.219,58.219,0,0,1,2.853-6.82,13.358,13.358,0,0,0,.741-3.067c.556-2.126,1.071-4.279,1.7-6.362.855-2.853,1.769-5.791,2.739-8.658.442-1.328,1.07-2.6,1.612-3.9l-.6-.243-3.2,7.347a2.923,2.923,0,0,1-.228-2.867Zm-8.635,38.8,1.641-2.939c-.171,1.811-.386,2.2-1.641,2.968Zm7-35.52c.142,1.826,1.041,3.38-.243,5.078-.128-1.712-1.212-3.252.243-5.05Zm-1.731,3.851c.641,1.3,0,2.525.156,3.7a6.812,6.812,0,0,1-.285,3.851,27.119,27.119,0,0,1-.97-4.607A8.926,8.926,0,0,1,1250.269,4092.118ZM1236,4131.062c1.712-3.724,3.623-7.361,5.179-11.141a27.852,27.852,0,0,0,1.426-6.049,67.65,67.65,0,0,1,3.338-10.9c.542-1.569,1.212-3.1,1.854-4.636a7.124,7.124,0,0,1,.657-1.027c.413,1.812.8,3.4,1.141,4.978a1.958,1.958,0,0,1-.242.842c-1.584,4.094-3.11,8.217-4.751,12.3-1.027,2.581-2.211,5.107-3.3,7.674-.671,1.583-1.3,3.2-1.927,4.793a32.964,32.964,0,0,1-5.292,9.216,5.554,5.554,0,0,1,.115-1.427,44.1,44.1,0,0,1,1.8-4.68Zm-12-.927c-.713-1.427,0-2.853,1.984-4.408.527,2.054-1.184,2.938-1.984,4.351Zm2-8.359v2.011l-2.1,1.184-.243-.214,1.926-3.053Zm-18.984,71.625-1.427-1.912c.742-1.169,1.7-1.284,3.095-1.013Zm63.667-83.309a11.041,11.041,0,0,1,6.091-4.808,18.775,18.775,0,0,0,2.068-1.026,16.818,16.818,0,0,1,5.435-1.669c2.269-.4,4.523-.9,6.748-1.426,4.708-1.256,9.387-2.625,14.109-3.852a7.452,7.452,0,0,1,2.353.185l.086.514a8.512,8.512,0,0,1-.971.67c-4.978,2.568-9.985,5.107-14.92,7.7-.885.471-1.655,1.17-2.5,1.7-1.569.97-3.139,1.9-4.723,2.853-1.27.756-2.624,1.427-3.837,2.254a78.332,78.332,0,0,1-14.893,7.974,46.378,46.378,0,0,0-4.779,2.339c-3.038,1.741-5.949,3.709-9.044,5.35s-6.106,2.853-9.5,4.407c.257-.57.328-1.054.614-1.283,2.853-2.3,5.834-4.622,8.859-6.776,1.526-1.1,3.3-1.854,4.922-2.853l9.985-5.848c.77-.443,1.569-.842,2.353-1.27q4.4-2.382,8.759-4.765a12.161,12.161,0,0,0,1.113-.784l-.171-.328-10.071,4.407C1269.5,4112.3,1270.1,4111.2,1270.683,4110.092Zm-27.8,34.551c-2.111,2.153-4.536,4.008-6.79,6.033-1.627,1.427-3.239,2.954-4.793,4.494-1.171,1.155-2.269,2.4-3.4,3.609-.157.185-.285.414-.428.613-.142-.185-.27-.385-.4-.57a97.056,97.056,0,0,1,7.132-12.1,8.185,8.185,0,0,0,.543-.7,21.513,21.513,0,0,1,5.706-6.719,92.018,92.018,0,0,1,11.783-8.559,69.91,69.91,0,0,1,7.475-3.266c2.069-.914,4.109-1.869,6.148-2.853.985-.457,1.97-.957,2.954-1.427l.185.314-5.136,3.937L1251.41,4137A79.194,79.194,0,0,0,1242.879,4144.643Zm-.257,4.778c-.142-.656-.271-1.2-.428-1.94l3.8-3.709C1246.117,4146.6,1244.063,4147.752,1242.622,4149.421Zm-1.6-.442c-.842,1.612-1.227,3.538-3.068,4.507C1238.97,4152.031,1238.985,4149.806,1241.025,4148.979Zm21.255-34.879c.214-.284.585-.527.656-.827.343-1.754,1.812-2.2,3.153-2.853s2.5-1.055,3.752-1.583l.256.257c-1.911,2.339-3.323,5.064-5.706,7.046.543-1.925,2.1-3.366,2.668-5.249a2.534,2.534,0,0,0-.3-.228,2.661,2.661,0,0,0-.613.442c-1.327,1.74-2.653,3.5-3.952,5.249a4.824,4.824,0,0,0-.685,1.242c-.3.784-.9,1.012-1.811,1.226A16.544,16.544,0,0,1,1262.28,4114.1Zm-5.278,4.694a17.145,17.145,0,0,0,1.427-2.7c.513-1.74,1.911-2.382,3.494-2.952l-5.42,7.818-.385-.214C1256.375,4120.092,1256.674,4119.436,1257,4118.794Zm.442-2.425-2.554,3.809a16.586,16.586,0,0,1-.969,1.427,2.966,2.966,0,0,1-.785.926,55.442,55.442,0,0,0-11.883,9.829c-.443.471-.728,1.07-1.113,1.569-.8,1.027-1.612,2.054-2.44,3.053s-1.611,1.356-1.426,2.667c0,.457-.585.985-.9,1.427l-1.3,1.912c-1.07,1.64-2.025,3.352-3.224,4.893a31.65,31.65,0,0,0-3.124,5.591,69.419,69.419,0,0,1-5.706,9.8,4.426,4.426,0,0,0-.614,1.1,1.017,1.017,0,0,0,.1.77,1.425,1.425,0,0,0,.971.171c.256,0,.456-.356.684-.57a37.6,37.6,0,0,0,3.481-3.738,48.673,48.673,0,0,1,5.477-5.349c1.655-1.5,3.439-2.853,5.493-4.55a5.619,5.619,0,0,1-.242,1.183,20.177,20.177,0,0,0-1.641,3.11,6.3,6.3,0,0,1-2.268,3.11c-2.326,1.826-4.679,3.609-7.019,5.421a3.6,3.6,0,0,0-.428.528c1.056.142,1.626-.5,2.254-.942,2.582-1.783,5.135-3.623,7.689-5.435a.456.456,0,0,0,.3-.185c1.426-2.454,3.809-3.866,5.706-5.835,1.426-1.427,2.853-3.01,4.365-4.408s2.853-2.325,4.28-3.552c1.855-1.669,3.637-3.409,5.392-5.163a13.626,13.626,0,0,0,1.426-1.926c-1.069-.272-1.426.342-1.868.77l-7.7,7.432c-.171.171-.356.328-.67.6a25.678,25.678,0,0,0-.114-2.981,288.461,288.461,0,0,1,23.2-18.36,9.238,9.238,0,0,1-2.853,4.066,22.81,22.81,0,0,0-4.594,5.878,36.678,36.678,0,0,1-4.037,4.963c-1.341,1.427-2.853,2.611-4.28,3.966-2.254,2.112-4.436,4.28-6.718,6.391-3.4,3.053-6.734,6.191-10.315,9.015a39.151,39.151,0,0,1-9.558,6.12,11.02,11.02,0,0,0-2.168,1.255,38.465,38.465,0,0,1-7.49,3.724c-.385.5-.77,1-1.226,1.626l.642,1.184c-2.739,5.221-8.26,15.341-8.26,15.341h-2.482a4.4,4.4,0,0,0,.485-.748c1.94-3.052,3.994-6.034,5.806-9.158a53.549,53.549,0,0,0,2.283-5.421,4.279,4.279,0,0,1,2.752-2.853,2.923,2.923,0,0,1-.5,0,5.467,5.467,0,0,1-.542-.27c.213-.828.484-1.712.684-2.6a19.065,19.065,0,0,0,.414-2.4,12.584,12.584,0,0,0-.314-5.292v-3.181a2.045,2.045,0,0,0,1-.985v-.113a37.115,37.115,0,0,1-1.014-4.85,59.167,59.167,0,0,1,0-6.933c0-4.152,0-8.3.328-12.439a32.744,32.744,0,0,1,1.284-7.546c2.125-6.82,4.493-13.567,6.833-20.514a6.008,6.008,0,0,1,.5,3.437c-.128,4.28-.342,8.417-.514,12.625a1.737,1.737,0,0,1-1.027,1.869c-.413.171-.67.728-1,1.113l-.342-.129c.171-.941.385-1.882.514-2.853s.171-1.868.257-2.853c-.927-.227-1.156.3-1.242.942-.313,2.254-.684,4.479-.912,6.733-.485,4.551-.827,9.115-1.356,13.652-.342,2.952-.912,5.863-1.326,8.8a51.45,51.45,0,0,0-.983,8.872v.072l1.425-1.3a24.309,24.309,0,0,1,.9-8.1,72.342,72.342,0,0,0,1.556-12c0-1.7,1.083-2.34,2.482-3.295q-.033,1.767-.242,3.523c-.286,1.7-.785,3.352-1.056,5.05-.428,2.639-.7,5.292-1.113,7.931-.228,1.427-.641,2.853-.956,4.28-.228,1.041-.428,2.083-.642,3.124-.414,2.1-.9,4.179-1.241,6.291-.185,1.155.129,1.34,1.127,1.241,1.312-2.554,2.511-5.007,3.838-7.389,1.583-2.853,3.281-5.706,4.936-8.559a6.026,6.026,0,0,1,2.3-2.668,1.43,1.43,0,0,0,.655-.984c.257-2.853,1.77-5.221,3.41-7.8.5,1.255-.656,1.94-.357,3.11A85.585,85.585,0,0,1,1257.444,4116.369Zm1.027-11.639c0,.242.172.556,0,.7a27.7,27.7,0,0,1-2.182,2.853,55.983,55.983,0,0,0-6.848,9.687,13.919,13.919,0,0,1-1.712,2.182,68.964,68.964,0,0,1,8.36-13.979c.941.171,1.184-.586,1.554-1.171h-1.426l1.94-2.254a8.221,8.221,0,0,0,.814-.926c2.853-4.28,5.92-8.289,8.972-12.355.542-.727,1.427-1.212,2.026-1.9a23.863,23.863,0,0,0,1.64-2.283,9.46,9.46,0,0,1-1.968,3.909,27.613,27.613,0,0,0-2.582,3.652c.827.513,1.426.313,1.755-.2a8.44,8.44,0,0,1,3.209-3.209.826.826,0,0,0,.3-.428,16.15,16.15,0,0,0,1.214-3.125c.455-2.425,2.025-4.279,3.067-6.391s2.51-3.909,3.094-6.2c.144-.542.743-.97,1.085-1.426a12.2,12.2,0,0,1,.328-2.725c.742-1.983,1.654-3.923,2.525-5.863a.925.925,0,0,1,.628-.485c.926,0,1.169-.613,1.14-1.284-.171-3.509,1.528-6.448,3.012-9.387,2.5-4.992,5.206-9.885,7.845-14.806a8.721,8.721,0,0,1,.728-1.227,122.87,122.87,0,0,0,7.574-12.254,25.714,25.714,0,0,1,4.794-6.134c-.271,1.056-.5,2.112-.8,3.153s-.656,1.668-.827,2.525a47.706,47.706,0,0,1-3.281,9.229,34.739,34.739,0,0,0-2.853,7.489,11.991,11.991,0,0,1-1.213,2.953c-1.754,3.709-3.538,7.39-5.306,11.1a102.16,102.16,0,0,1-6.491,12.3c-2.225,3.437-4.552,6.8-6.919,10.143-.671.955-1.955,1.54-2.411,2.539a20.7,20.7,0,0,1-1.342,3.138c-1.7,2.51-3.252,5.136-5.149,7.489-2.539,3.167-4.879,6.577-8.416,8.788a1.316,1.316,0,0,0-.529.471A13.748,13.748,0,0,1,1258.471,4104.73Zm72.84-36.861c-3.068,2.224-6.163,4.42-9.259,6.631a74.618,74.618,0,0,1-11.084,6.078c-1.326.641-2.6,1.427-3.909,2.1a115.032,115.032,0,0,0-11.5,7.5,36.9,36.9,0,0,1-9.244,4.535c-1.969.642-4.067.885-6.092,1.327a45.087,45.087,0,0,0-9.244,3.195c-2.44,1.1-4.807,2.355-7.133,3.524-.3.142-.613.257-1.284.527a11.585,11.585,0,0,1,.7-1.169c.229-.286.6-.457.756-.756,1.6-2.967,4.636-4.137,7.247-5.849,3.082-2.011,6.134-4.08,9.187-6.148,1.94-1.327,3.852-2.682,6.078-4.28a6.562,6.562,0,0,1-.5,1.284,20.135,20.135,0,0,0-1.7,2.482,7.614,7.614,0,0,1-4.052,3.567c-2.853,1.427-5.706,2.681-8.559,4.023-.171.085-.285.327-.613.712a4.084,4.084,0,0,0,1.17,0c2.2-.883,4.393-1.8,6.59-2.709.971-.4,1.955-.8,2.953-1.171,2.682-1,4.637-3.2,7.134-4.465a66.062,66.062,0,0,0,5.891-3.651,7.906,7.906,0,0,1,1.128-.485c.313-.143.755-.186.912-.428,1.056-1.6,2.853-2.14,4.38-2.853,1.812-.885,3.58-1.854,5.392-2.739.942-.457,1.926-.785,2.924-1.2-.328-1.128-.428-1.27-1.512-.785-1.726.756-3.4,1.7-5.079,2.568l-3.623,1.712a5.205,5.205,0,0,1,.257-1.427,6.707,6.707,0,0,1,3.366-3.566c2.711-1.084,5.422-2.14,8.2-3.01,1.783-.556,3.695-.8,5.521-1.3a28.271,28.271,0,0,0,3.837-1.326c1.583-.671,3.11-1.425,4.679-2.182a14.327,14.327,0,0,1,1.883-.556q1.969-.528,3.938-1.027a7.632,7.632,0,0,1,1.127-.114l.128.271A9.349,9.349,0,0,1,1331.311,4067.869Zm-50.815-37.262c.1.357.315.671.229.856-.456,1.142-.956,2.254-1.427,3.367-.243.485-.371,1.312-1.2.9s-.528-1.041-.214-1.568C1278.6,4032.947,1278.956,4031.435,1280.5,4030.607ZM1233.347,4088a41.234,41.234,0,0,0,5.71-6.413c.717-1.069,1.406-2.18,2.18-3.179a63.856,63.856,0,0,0,5.626-8.438,62.649,62.649,0,0,0,6.68-15.469,4.737,4.737,0,0,0,.126-1.885,4,4,0,0,0-.688-1.294c-.422.253-.971.393-1.238.759-1.871,2.476-3.8,4.923-5.457,7.538a18.321,18.321,0,0,1-2.77,3.6c-1.942,1.758-3.306,3.98-5.626,5.387-.141.083-.225.267-.338.393-1.533,1.843-3.01,3.74-4.641,5.5-2.237,2.391-4.614,4.655-6.905,7.032-1.112,1.125-2.251,2.237-3.249,3.445a27.473,27.473,0,0,1-4.22,4.444,35.924,35.924,0,0,0-3.249,2.954c-1.743,1.716-3.46,3.474-5.175,5.246a43.23,43.23,0,0,0-3.052,3.375c-1.548,1.969-2.981,4.009-4.487,6h-.79a5.534,5.534,0,0,1,.143-1.026c1.041-3.351,2.109-6.7,3.165-9.98a21.235,21.235,0,0,1,6.644-10.322c2.181-1.825,4.205-3.849,6.415-5.7s4.847-3.55,7.129-5.5,4.676-4.364,6.986-6.573c1.155-1.1,2.239-2.3,3.465-3.308a65.214,65.214,0,0,0,8.012-7.912,20,20,0,0,0,1.882-2.851c.727-1.213,1.312-2.51,2.038-3.736,1.84-3.123,3.708-6.231,5.575-9.324.556-.913,1.169-1.8,1.669-2.738,1.154-2.209,2.266-4.448,3.378-6.672s2.2-4.363,3.237-6.572c.357-.77.784-1.626.172-2.467-1.726-.171-1.74-.185-2.639.927-.527.642-.984,1.34-1.426,1.982-1.425,1.767-2.751,3.564-4.191,5.289a40.218,40.218,0,0,1-3.721,4.063c-3.037,2.752-6.23,5.318-9.267,8.056-3.565,3.221-7.044,6.543-10.537,9.837-1.682,1.583-3.379,3.151-4.946,4.862q-3.68,4-7.129,8.182c-1.74,2.111-3.322,4.277-4.948,6.53-.769,1.027-1.5,2.11-2.238,3.165l-.37-.157c.185-.77.413-1.525.555-2.309a48.581,48.581,0,0,1,4.576-13.472,19.941,19.941,0,0,0,.842-1.968c1.254-3.221,2.452-6.445,3.721-9.653,1.2-2.979,2.452-5.93,3.721-8.881.457-1.055.628-2.31,1.925-2.851.214-.1.314-.485.456-.742a34.475,34.475,0,0,1,1.982-3.892,15.932,15.932,0,0,1,1.839-2.852,28.506,28.506,0,0,1,10.308-7.4c1.939-.856,3.792-1.94,5.7-2.852a8.548,8.548,0,0,1,3.123-1.212c1.938-.213,3.863-.6,5.788-.984a19.984,19.984,0,0,1,6.873-.784,1.606,1.606,0,0,0,.7,0c2.7-.741,5.418-1.426,8.056-2.281,3.864-1.311,7.7-2.766,11.534-4.191,3.051-1.142,6.087-2.353,9.125-3.522.612-.228,1.24-.414,1.839-.684,2.609-1.155,5.147-2.452,7.813-3.437,1.511-.555,2.965-1.61,4.762-1.125a2.6,2.6,0,0,0,.841-.272c1.354-.584,2.723-1.168,4.064-1.81a2.832,2.832,0,0,0,1.282-.856,2.992,2.992,0,0,1,1.639-1.254c.358-.171.585-.613.885-.927a4.794,4.794,0,0,0-1.056-.841,2.834,2.834,0,0,0-1.054,0h-6.939a33.575,33.575,0,0,0-3.717-.372,27.192,27.192,0,0,0-6.949,1.43,55.4,55.4,0,0,1-15.4,2.859,3.208,3.208,0,0,1-.9-.086c-2.6-.1-5.232-.371-7.834-.271a51.685,51.685,0,0,0-18.729,4.775l-.5.2a56.421,56.421,0,0,0-10.494,5.718c-.329.215-.658.4-1.244.744a8.3,8.3,0,0,1,.271-1.1c1.2-2.53,2.389-5.075,3.633-7.577s2.859-5.247,3.988-8.006a32.872,32.872,0,0,0,2.174-10.222,8.6,8.6,0,0,1,.343-2.1c.957-2.96,1.887-5.933,2.987-8.836a34.018,34.018,0,0,0,2.016-10.093,10.644,10.644,0,0,1,.2-2.13,65.442,65.442,0,0,1,4.047-11.437c1.115-2.417,1.9-5,2.86-7.535a1.265,1.265,0,0,0,0-1,1.267,1.267,0,0,0-.731-.685c-.686-.3-1.058.286-1.43.729-.786.9-1.559,1.8-2.4,2.631-1.988,1.973-4.162,3.774-5.977,5.875-2.13,2.474-3.974,5.19-5.919,7.835a48.267,48.267,0,0,0-4.574,7.02,39.525,39.525,0,0,0-2.774,7.906c-1.43,5.433-3,10.822-4.562,16.212-.528,1.845-1.215,3.631-1.857,5.576-.215-.944-.4-1.8-.587-2.645a37.068,37.068,0,0,1-1.43-9.864,27.448,27.448,0,0,0-.429-5.176,1.957,1.957,0,0,0-.943-1.329c-.644-.258-1.044.386-1.315.929a6.666,6.666,0,0,0-.558,1.33c-.729,3.316-1.515,6.618-2.13,10.007-.344,1.872-.286,3.817-.544,5.719-.386,2.859-.9,5.632-1.43,8.448a5.5,5.5,0,0,1-.214.9l-.6-.9a28.879,28.879,0,0,0-3.33-5.06,3.54,3.54,0,0,1-.643-1.244c-.3-.772-.458-1.616-.815-2.344a47.138,47.138,0,0,1-2.932-9.193q-.872-3.432-1.887-6.849a43.959,43.959,0,0,1-1.615-12.724c0-1.429-.172-2.987.929-4.159-.858-1.345-1.315-1.588-1.844-.873a19.138,19.138,0,0,0-3.26,6.319,26.794,26.794,0,0,0-.529,9.05,13.2,13.2,0,0,1-.815,5.618,16.638,16.638,0,0,0-.929,8.936c.714,3.431,1.43,6.862,2.416,10.237.758,2.773,1.8,5.461,2.759,8.363-2.187-1.544-4.189-2.859-6.133-4.289-3.76-2.788-8.193-3.76-12.639-4.661a55.284,55.284,0,0,1-10.88-2.86c-2.259-.928-4.6-1.658-6.92-2.415-.457-.158-1.329-.186-1.429,0a3.233,3.233,0,0,0-.186,1.8,3.17,3.17,0,0,0,.615,1.272,8.488,8.488,0,0,0,3.059,2.674c2.274,1.3,4.619,2.587,6.863,4.017a67.856,67.856,0,0,0,12.338,6.391,36.419,36.419,0,0,1,11.008,6.619,56.68,56.68,0,0,1,8.093,9.25,21.657,21.657,0,0,1,3.231,5.119c.3.829.858,1.558,1.23,2.372a3.681,3.681,0,0,1,.357,1.516c-.143,5.532-2.33,10.479-4.546,15.855-.243-.8-.387-1.23-.486-1.659-.6-2.6-1.172-5.218-1.8-7.82-.686-2.86-1.429-5.719-2.13-8.478-.157-.643-.229-1.3-.444-1.916-.385-1.143-.957-1.258-1.786-.429-.273.272-.63.444-.9.73s-.728.671-.786,1.058c-.229,1.43-.343,2.945-.443,4.432s0,2.6-.186,3.888c-.743,5.562-1.544,11.094-2.33,16.641a9.6,9.6,0,0,1-.5,1.845l-.357-1c-1.215-3.588-1.315-7.363-2.044-11.038a52.171,52.171,0,0,0-1.659-7.148,39.5,39.5,0,0,1-1.6-5.832,15.812,15.812,0,0,0-2.044-5.876c-1.1-1.629-2.173-3.274-3.289-4.876-1.83-2.659-3.66-5.3-5.533-7.92a16.114,16.114,0,0,0-6.562-5.618,3.646,3.646,0,0,1-1.43-1,3.728,3.728,0,0,0-3.546-1.243c-1.215,0-1.744,1.086-1.071,2.158a13.072,13.072,0,0,0,1.815,2.173,11.746,11.746,0,0,1,2.86,3.589,31.584,31.584,0,0,1,1.429,3.645,28.793,28.793,0,0,1,1.158,3.8c.672,3.517,1.215,7.048,1.9,10.551s1.43,6.619,2.1,10.007a46.98,46.98,0,0,0,5.719,15.141c.928,1.6,1.772,3.245,2.715,4.831.544.916,1.259,1.731,1.859,2.6a14.863,14.863,0,0,1,2.859,5.491,22.324,22.324,0,0,0,1.116,3.96,16.273,16.273,0,0,1,1.287,4.99,25.579,25.579,0,0,1,.357,4.746,83.567,83.567,0,0,0-.3,10.007,12.447,12.447,0,0,1-.528,2.759c-.129.573-.415,1.116-.586,1.688-.844,2.859-1.659,5.719-2.488,8.578a4.843,4.843,0,0,1-.329.585,7.761,7.761,0,0,1-.615-1.157c-.843-2.4-1.744-4.8-2.473-7.249-1.229-4.117-2.33-8.263-3.5-12.381a15.515,15.515,0,0,0-.944-2.5c-1.529-3.231-3.274-6.362-4.589-9.679a25.264,25.264,0,0,0-3.56-6.619c-3.159-3.947-6.462-7.778-9.707-11.652-.643-.771-1.215-1.63-1.93-2.331-2.088-2.03-4.29-4.016-6.363-5.99-1.315-1.215-2.659-2.387-4-3.545-.615-.53-1.316-.458-1.43.186-.286,1.557-1.215,3.016-.629,4.7a20.03,20.03,0,0,1,.371,2.474,58.778,58.778,0,0,0,1.731,7.763,68.136,68.136,0,0,0,3.916,8.178c1.3,2.473,2.86,4.788,4.147,7.291,2.087,4.288,4.074,8.578,5.947,12.995a81.623,81.623,0,0,0,3.66,8.393c1,1.758,1.773,3.645,2.746,5.4a29.745,29.745,0,0,0,3.373,5.461,62.191,62.191,0,0,1,6.748,9.665,18.717,18.717,0,0,1,2.474,12.866,17.76,17.76,0,0,0-.243,2.131c-.129,4.632-.215,9.278-.358,13.91-.086,3.159-.272,6.305-.386,9.465a3.159,3.159,0,0,0,2.546,3.188c3.116,0,6.2-2.259,5.718-5.576-.214-1.429-.358-2.959-.486-4.446a25.318,25.318,0,0,1-.215-4.289c.215-2.6.673-5.19,1-7.777.143-1.13.243-2.244.372-3.375.457-3.888.457-7.876,2.859-11.322a34.238,34.238,0,0,1,3.332-5.247,94.3,94.3,0,0,1,9.007-8.077q4.8-3.861,9.321-8.079a67.215,67.215,0,0,0,8.15-8.248,22.956,22.956,0,0,1,2.344-2.788Zm-8.235-4,.086-.214c1.655-1.7,3.337-3.352,4.935-5.078,3.039-3.31,6.42-6.291,9.244-9.8,1.583-1.969,3.538-3.623,5.307-5.421l.371.3c-1.213,1.7-2.4,3.41-3.609,5.093s-2.083,3.11-3.224,4.537c-1.427,1.712-2.853,3.324-4.28,5.006s-2.6,3.211-3.909,4.808c-.556.684-1.127,1.427-2.211.642-.356.941-1.612,1.427-.913,2.553-.6.571-.927,1.527-2.168,1.527.371-.742.656-1.427,1-2a1.427,1.427,0,0,0-.5-2.04l-.114.129c-.527,1.3-1.056,2.582-1.6,3.866,0,.1-.3.1-.456.157l-.072.142c-.171.685-.342,1.427-.5,2.069l-.428-.171c.314-.628.614-1.27.927-1.9v-.2c-.214-1.854,1.056-2.867,2.126-4.008Zm-5.471,6c.228-.514.827-.87,1.255-1.284l.371.257-2.34,4.879-.542-.171c.414-1.256.756-2.511,1.27-3.681Zm-2,1.12a11.724,11.724,0,0,1-2.325,5.792c.186-.557.357-1.128.571-1.684s.5-1.227-.3-1.8Zm18.3-42.6c4.165-3.338,7.974-7.132,12.083-10.514a62.171,62.171,0,0,0,6.847-6.7c.841-.956,1.569-2.026,2.468-2.953a13.067,13.067,0,0,1-3.3,5.492c-1.426,1.427-3.01,2.853-4.493,4.28-.857.827-1.684,1.668-2.5,2.524-3.452,3.652-6.89,7.333-10.328,10.984a6.324,6.324,0,0,1-.728.543v-1.855c-2.053,1.641-2.053,4.394-4.208,6.135C1232.677,4053.275,1233.39,4050.565,1235.944,4048.525Zm-9.741,9.229a15.077,15.077,0,0,1,1.8-1.426v-.157a11.5,11.5,0,0,1,3.224-3.024,13.17,13.17,0,0,1-3.994,7.688c.37-1.126.727-2.153,1.069-3.2.171-.556.414-1.14-.3-1.426l-.086.071c-.941,2.325-1.869,4.636-2.853,6.962a4.206,4.206,0,0,1-1.669,2.04,5.811,5.811,0,0,1,.8-2.853c.257-.528.757-1.171.614-1.613C1224.491,4059.31,1225.4,4058.581,1226.2,4057.754Zm-1.641,9.246c1.926-1.954,3.595-4.094,5.364-6.163.856-.984,1.355-2.411,3.11-2.211.214,0,.613-.527.727-.885a6.774,6.774,0,0,1,1.8-2.853c2.353-2.439,4.708-4.878,6.99-7.374s4.464-5.121,6.89-7.632c1.156-1.241,2.511-2.3,3.966-3.623-.085.456,0,.67-.157.77-2.767,3.267-4.366,7.233-6.505,10.856a53.5,53.5,0,0,1-7.489,10.6c-1.227,1.227-2.653,2.31-3.9,3.48-3.038,2.853-6.02,5.706-9.1,8.559-1.9,1.655-3.923,3.2-5.905,4.879-2.539,2.125-5.05,4.28-7.746,6.291,1.7-2.4,3.538-4.708,5.078-7.133,1.8-3.052,4.465-5.164,6.819-7.56Zm-16.676,15c1.1-1.954,2.5-3.737,3.766-5.6a113.457,113.457,0,0,1,7.047-9.6c1.426-1.669,2.853-3.31,4.279-4.964l.2.171c-.7,1.883-1.427,3.766-2.1,5.706a1.89,1.89,0,0,1-.543.67c-2.339,1.783-3.681,4.337-5.335,6.662a77.6,77.6,0,0,1-5.863,8.459c-1.227,1.427-2.269,2.853-3.366,4.379a13.89,13.89,0,0,0-2.754,7.59,7.733,7.733,0,0,1-.328,1.426c-.971,3.809-1.955,7.618-2.853,11.412a27.918,27.918,0,0,1-2.653,6.9,4.469,4.469,0,0,1-.186-1c.3-2.71.6-5.421.956-8.131.128-1,.442-1.968.656-2.967.5-2.325.956-4.65,1.427-6.976.228-1,.171-2.153,1.426-2.7.314-.128.5-.642.684-1.013,1.841-3.495,3.567-7.018,5.479-10.428Zm46.276-75.472c.771-1.427,1.585-2.853,2.384-4.28.428-.784,1.155-.841,2.054-.912-1.427,2.225-2.853,4.279-4.28,6.418l-.371-.171A4.326,4.326,0,0,1,1254.162,4006.528ZM1241,4010.265c1.665-.884,2.963-1.568,4.162-2.311l.385-.556,2.781-1.27.086-1.128h.085c2.134-.524,4.486-1.716,6.976-2.538-.4.743-.613,1.241-.912,1.684a35.376,35.376,0,0,0-3.695,5.235c-.072.186-.471.228-.9.413.257-1.968,2.126-2.995,2.153-4.864-2.2,1.684-3.238,4.28-5.006,6.278l-.357-.187c.385-.741.742-1.426,1.127-2.225s.757-1.326,1.084-2.026-.071-.7-.456-.77h-.114c-.642.97-1.3,2.026-1.955,3.067s-1.283,2.154-1.954,3.168c-.142.213-.414.327-.913.3.571-1.013,1.084-2.04,1.7-3.01a1.968,1.968,0,0,0,.3-2.14.6.6,0,0,1-.214.442l-.2.128c-.8,1.128-1.6,2.241-2.369,3.4-.5.727-.9,1.526-1.426,2.254a3.52,3.52,0,0,1-.871.57l-.256-.257c.328-.7.67-1.426,1-2.083a1.821,1.821,0,0,0-.229-.227,3.825,3.825,0,0,0-.9.57c-.6.713-1.141,1.427-1.711,2.254a4.282,4.282,0,0,1-3.224,1.526c.157-.371.171-.642.328-.756,1.925-1.655,3.952-3.338,5.5-4.907Zm-.118-44.82a46.823,46.823,0,0,1,7.66-11.94c1.427-1.8,2.853-3.709,4.28-5.435,1.8-2.04,3.752-3.909,5.706-5.863l.428.256a30.2,30.2,0,0,1-1.284,3.724,76.072,76.072,0,0,0-5.706,16.3c-.214.927-.186,1.911-.443,2.853-.6,2.169-1.226,4.279-2.011,6.448a59.653,59.653,0,0,0-2.967,11.569,41.3,41.3,0,0,1-1.426,5.121,10.806,10.806,0,0,1-.514,1.326c-.813,1.912-1.683,3.81-2.454,5.706s-1.641,3.88-2.268,5.864a25.921,25.921,0,0,1-3.28,6.918c-.943,1.355-1.641,2.853-2.483,4.28a8.144,8.144,0,0,1-.813,1.027,3.169,3.169,0,0,1-.223-1.295,3.2,3.2,0,0,1,.322-1.273c1.285-4.508,2.711-8.988,3.852-13.537.813-3.281,1.142-6.677,1.883-9.986.428-1.9,1.227-3.709,1.841-5.564a43.783,43.783,0,0,0,1.426-4.565,52.892,52.892,0,0,1,3.767-10.8c.926-1.94,1.84-3.866,2.853-5.706s1.84-3.352,2.7-5.021c.372-.685.7-1.427,1.042-2.083.728-1.427,1.426-2.967,2.183-4.465a11.954,11.954,0,0,0,.47-1.426,2.18,2.18,0,0,0-1.925,1.426l-4.28,8.559c-1.584,3.324-3.011,6.733-4.608,10.057-2.853,5.82-4.28,12.139-6.462,18.16a32.828,32.828,0,0,0-1.1,5.591c-.441,2.326-.827,4.665-1.341,6.99-.6,2.725-1.327,5.435-2.011,8.145a5.757,5.757,0,0,1-.314.756l-.271-.114a29.457,29.457,0,0,0,.271-4.036,25.413,25.413,0,0,0-.67-4.38,10.432,10.432,0,0,1,0-4.408,231.7,231.7,0,0,1,6.248-22.724A37.216,37.216,0,0,1,1240.882,3965.445Zm-13.182,54.207c0-.513,1.056-1.127,1.7-1.612a24.761,24.761,0,0,1,2.368-1.526,20.966,20.966,0,0,1,1.984-.928,6.748,6.748,0,0,1-3.2,4.437l-.827-.571c-1.07.357-1.326,1.342-1.855,2.112s-.627,1.683-1.925,1.954c.2-.471.356-.728.442-1.013.328-.97,1.3-1.583,1.241-2.824Zm-2.71-28.373c.371-2.924.557-5.877.827-8.816a17.054,17.054,0,0,1,1.941-7.133,5.158,5.158,0,0,1,.271.956c.142,2.2.242,4.379.385,6.576a16.255,16.255,0,0,0,.285,2.64,80.121,80.121,0,0,1,1.8,15.519,2.374,2.374,0,0,0,0,.714c1.1,3.195.586,6.42.343,9.672a8.312,8.312,0,0,1-.656,3.2,5.8,5.8,0,0,1-1.013,1.141l-.286-.2a11.523,11.523,0,0,1,.172-1.725,23.106,23.106,0,0,0-.8-8.089c-.3-1.427-.2-2.952-.413-4.422a67,67,0,0,1-.585-9.4c0-.1-.114-.185-.3-.442a7.473,7.473,0,0,0-.343.913c-.884,3.537,0,7.133,0,10.628a31.9,31.9,0,0,0,.842,6.148,6.259,6.259,0,0,1,0,3.652c-.4-1.541-.742-3.1-1.242-4.608a18.02,18.02,0,0,0-1.426-3.4,7.677,7.677,0,0,1-1.084-5.121C1224.048,3996.9,1224.633,3994.1,1224.99,3991.279Zm-7.547,5.392c1.84,3.438,3.653,6.9,5.535,10.342a17.309,17.309,0,0,1,2.6,10.442l-2.026,1.826a49.381,49.381,0,0,0-1.283-4.921c-.729-2-1.67-3.924-2.54-5.877q-1.426-3.339-2.981-6.649a3.876,3.876,0,0,1-.379-1.535,3.918,3.918,0,0,1,.264-1.559,14.169,14.169,0,0,0,.428-2.2C1217.229,3996.542,1217.4,3996.542,1217.443,3996.671Zm-1.426-3.671c.285.656.5,1.142.571,1.341l-1.427,4.28c-1.027-1.227-.129-2.083,0-2.953a4.286,4.286,0,0,1,.927-2.668Zm-1.441-3.59c.371.742.757,1.426,1.127,2.239-1.94.856-.984,3.053-2.354,4.28a33.043,33.043,0,0,1,.785-6.376Zm-4.576,9.172a28.265,28.265,0,0,1-1.926-8.288c-.085-1.525-.513-3.038-.727-4.565a38.367,38.367,0,0,1-.514-4.422,10.9,10.9,0,0,1,.385-3.309,34.063,34.063,0,0,0,.884-12.011,6.914,6.914,0,0,1,.671-3.9l.357.072a9.1,9.1,0,0,1,.1,1.754c-.4,3.638.628,7.133,1.426,10.57s1.784,7.134,2.711,10.685c.257.984.614,1.926.914,2.853-1.427,1.427-1.2,3.281-1.912,5.035-.5-.484-.77-.826-.585-1.54.385-1.426.628-2.853.927-4.279a8.714,8.714,0,0,0,0-.914c-.285,0-.542,0-.585.158-1.155,2.425-2.254,4.821-.941,7.6a36.156,36.156,0,0,0,3.124,5.577,30.838,30.838,0,0,1,2.611,4.994c1.426,3.266,2.853,6.548,4.123,9.856a34.025,34.025,0,0,1,1,3.367l-.286.243c-.313-.158-.77-.228-.926-.485a33.419,33.419,0,0,1-1.684-3.153,29.428,29.428,0,0,0-3.9-5.706,24.474,24.474,0,0,1-2.5-4.108,55.022,55.022,0,0,1-2.753-6.035Zm-11,4.28c-1.07-.742-.57-1.841-.941-3.024,1.412.7,1.469.984.941,3.052Zm20,24.933a40.677,40.677,0,0,1-.944-4.21c-.16.087-.508.232-1.059.479-1.263-1.452-2.6-3.063-3.877-4.66-1.452-1.844-2.8-3.79-4.356-5.575a26.276,26.276,0,0,0-7.9-5.706c-4.777-2.6-9.625-5.067-14.519-7.565-.813-.421-1.684-.681-2.526-1.03a55.18,55.18,0,0,1-11.165-6.693,1.26,1.26,0,0,1-.522-.973c1.249.509,2.525.973,3.774,1.452a71.7,71.7,0,0,0,14.708,4.051l1.074.2c1.873.407,1.8.421,1.975,2.309.073.783-.16,1.887,1.335,2.323v-3.325c.712-.334,1.234-.117,1.118.479-.45,2.41,1.148,3.484,2.9,4.515a50.859,50.859,0,0,1,7.7,5.676,6.341,6.341,0,0,1,.581.436c3.63,3.964,7.623,7.607,10.627,12.109a23.675,23.675,0,0,1,1.452,2.541c.291.565.61.71,1.176.144a24.071,24.071,0,0,0-5.807-8.71c-1.656-1.685-3.223-3.442-4.951-5.039-2-1.814-4.153-3.5-6.243-5.226a15,15,0,0,0-1.931-1.365,2.9,2.9,0,0,1-1.451-3.528,43.741,43.741,0,0,1,3.949,2.207c1.77,1.249,3.455,2.628,5.124,4.022a10.22,10.22,0,0,1,1.714,1.829c.58.769,1.452.958,2.163,1.452a15.754,15.754,0,0,1,3.194,3.18c1.655,2.148,3.194,4.355,4.7,6.649a7.233,7.233,0,0,1,.6,1.887c-.566.61-1.306,1.176-.639,2.148s1.089.886,1.83.277a7.558,7.558,0,0,0,.9-1.119,13.078,13.078,0,0,1,2.482-2.569,6.835,6.835,0,0,0-1.088,2.148,6.842,6.842,0,0,1-2.033,3.993c-.436.494-.682,1.045.291,1.452,1.059-1.075,2.119-2.192,3.237-3.252a51.313,51.313,0,0,1,3.862-3.456,71.723,71.723,0,0,1,6.315-4.529,50.734,50.734,0,0,1,5.808-2.9c3.3-1.452,6.635-2.9,9.917-4.427,2.221-1.046,4.355-2.281,6.576-3.4,1.031-.523,2.106-.93,3.122-1.452,2.468-1.263,4.98-.551,7.477-.2,1.074.145,2.135.537,3.034-.523l1.452,1.307c.276-.16.552-.233.668-.407a2.527,2.527,0,0,1,2.685-1.32l.245-.015c4.357-1.453,8.99-1.96,13.23-3.862,2.192-.987,4.5-1.757,6.722-2.672a17.7,17.7,0,0,0,2.1-1.175.508.508,0,0,0-.116-.379c-.3,0-.668-.246-.93-.159-3.571,1.292-7.258,2.164-10.657,4.036a9.6,9.6,0,0,1-2.6.784q-3.469.741-6.926,1.452c-.333.073-.682,0-1.248.116l1.64-2.657c-.1-.1-.188-.218-.29-.333a3.315,3.315,0,0,0-.973.45c-.784.754-1.452,1.611-2.251,2.366a11.932,11.932,0,0,1-1.567,1.074c0-1.684,1.959-2.047,1.626-3.731a3.006,3.006,0,0,0-1.045.436c-.857.842-1.656,1.756-2.5,2.627-.58.61-1.163,1.293-2.352.639l1.843-2.41c-.566-.624-.972-.349-1.336,0a14.863,14.863,0,0,0-1.83,1.989c-.376.538-.739.828-1.335.654-2.381-.711-4.355.319-6.358,1.451-.9.48-1.772.987-2.658,1.452l-.247-.3,3.136-5.677a36.608,36.608,0,0,1,4.428-1.148,41.725,41.725,0,0,1,11.615-.464,40.9,40.9,0,0,0,7.405.2,1.574,1.574,0,0,0,.349,0c3.817-.974,7.651-1.844,11.411-2.9,2.9-.842,5.6-1.786,8.711-1.307,1.83.291,3.7.291,5.663.712a7.912,7.912,0,0,1-1.321.638,76.052,76.052,0,0,0-9.9,4.007c-2.9,1.278-5.953,2.382-8.943,3.543-.335.145-.7.218-1.017.392a29.6,29.6,0,0,1-8.755,3.063,58.923,58.923,0,0,0-6.243,2.425c-3.775,1.263-7.564,2.526-11.411,3.513a39.267,39.267,0,0,1-5.416.407c-1.452.159-2.9.536-4.254.813l-4.777.929a42.1,42.1,0,0,0-11.454,4.471,35.415,35.415,0,0,0-6.825,4.733,13.736,13.736,0,0,0-3.193,3.6,4.431,4.431,0,0,0-.639,2.177,3.344,3.344,0,0,1-.465,1.873,73.011,73.011,0,0,0-6.3,13.284,45.2,45.2,0,0,1-2.9,5.807,18.547,18.547,0,0,0-.943,2.353,46.883,46.883,0,0,1-3.935,9.176,9.886,9.886,0,0,1,1.016-6.824,9.3,9.3,0,0,0,.958-1.451c.233-.568.305-1.162,1.148-1.162.609,0,.885-.422.943-1.1a15.432,15.432,0,0,1,.581-2.643c.638-2.452,1.292-4.906,1.916-7.36a4.49,4.49,0,0,1,0-1.074,4.991,4.991,0,0,1,.813-2.9,3.49,3.49,0,0,0,.436-1.887,24.481,24.481,0,0,1-.029-2.628,11.03,11.03,0,0,0-.508-5.488Zm-22.683,11.543c.755,3.723,1.426,7.461,2.111,11.184a2.68,2.68,0,0,0,.142,1.056l2.44,10.741a1.162,1.162,0,0,1,.025.521,1.14,1.14,0,0,1-.211.478c-.841-2.24-1.654-4.494-2.511-6.748-.471-1.212-.969-2.41-1.511-3.594-.771-1.669-1.584-3.324-2.383-4.979a2.279,2.279,0,0,1,0-2.04c.357-.913.585-1.869.928-2.967-1.427,0-1.213,1.612-2.425,1.911-.172-.6-.6-1.227-.486-1.74.614-2.639,1.355-5.235,2.14-8.188A11.65,11.65,0,0,1,1196.317,4039.338Zm-3.317-8.987.485.085c.442,3.367-1.426,6.22-2.239,9.572a1.783,1.783,0,0,1-.757-2.24q1.284-3.695,2.511-7.431Zm8,52.295a17.687,17.687,0,0,1,0-1.954,26.561,26.561,0,0,0-.785-6.519,33.272,33.272,0,0,0-1.883-6.433c-.942-2.068-1.969-4.151-3-6.091-2.082-3.723-4.35-7.347-6.405-11.1a39.113,39.113,0,0,1-4.479-13.438c-.329-2.412-1.027-4.751-1.427-7.133-.571-2.982-1.041-5.963-1.6-8.945a34.546,34.546,0,0,0-5.035-13.081,4.641,4.641,0,0,1-.314-.9,14.961,14.961,0,0,1,5.62,3.994c1.9,2.439,3.623,5.022,5.336,7.589s3.281,5.093,4.893,7.647a10.612,10.612,0,0,1,.927,1.725,1.425,1.425,0,0,1,0,1.013c-1.055,2.326-2.2,4.608-3.267,6.976a1.427,1.427,0,0,1-.357-1.684c.428-1.227.8-2.495,1.142-3.751a7.605,7.605,0,0,0,0-1.626c-1.426.984-1.1,2.61-2.383,3.409l-1.711-4.28a1.407,1.407,0,0,0-.314,1.9c.514,1.655,1.127,3.267,1.726,4.879.742,2,1.641,3.951,2.225,5.991a50.079,50.079,0,0,0,3.738,9.044c2.1,4.28,3.609,8.659,5.293,13.053.641,1.712.926,3.552,1.426,5.335.3,1.141.656,2.267.941,3.422a8.069,8.069,0,0,1,.257,1.741,31.641,31.641,0,0,0,0,4.037,17.8,17.8,0,0,1-.4,7.047c-.043-.628-.129-1.256-.171-1.883Zm5-11.754a38.547,38.547,0,0,0,.887-4.75c.286-2.468.514-4.935.785-7.4a11.089,11.089,0,0,1,.285-1.555,21.533,21.533,0,0,0-.071-9.2,2.482,2.482,0,0,0-.357.8c-.142,1.841-.228,3.666-.328,5.507a12.69,12.69,0,0,1-.1,1.954c-.685,4.28-1.427,8.673-2.069,13.009-.171,1.141-.242,2.3-.356,3.452a16.285,16.285,0,0,1-.1,2.3h-.485a2.483,2.483,0,0,1,.046-1.1c.1-.416.284-.809-.137-1.153v-.1c.562-.143.348-.285.363-.414.356-4.55.8-9.085,1.083-13.636.186-2.668.086-5.335.2-8,.115-2.426.356-4.851.543-7.29.1-1.427.227-2.7.3-4.052.128-2.254.185-4.522.314-6.762a2.048,2.048,0,0,1,.57-1.212c.414,1.569.857,3.124,1.242,4.707.912,3.8,1.826,7.59,2.667,11.413a13.862,13.862,0,0,1-.242,7.917c-.9,2.4-.714,4.893-1.013,7.361a9.3,9.3,0,0,1-.243,1.755c-.457,2.51-.9,5.021-1.426,7.516-.328,1.569-.8,3.11-1.227,4.779,1.241.756.813,1.826.257,2.853-1.128,2.012-2.312,4.009-3.61,6.263a10.507,10.507,0,0,1,.757-5.393,19.039,19.039,0,0,0,1.226-4.636,28.219,28.219,0,0,0,.24-4.936Zm-28.457-4.45a3.561,3.561,0,0,1,.4,1.212,14.151,14.151,0,0,1-1.812,5.706c-.356-2.425.941-4.507.984-6.846Zm-1.543-.57c-.5,1.711-1.027,3.408-1.555,5.106,0,.185-.3.313-.542.57-.157-.314-.371-.528-.342-.685.428-2.325.87-4.621,1.355-7.132.9.571,1.37,1.17,1.084,2.1Zm7,35.89c-2.14-3.481-3.809-7.262-5.706-10.914a19.767,19.767,0,0,0-1.156-2.4c-2.325-3.31-3.267-7.218-4.779-10.885a55.246,55.246,0,0,0-4.95-9c-1.569-2.538-3.224-4.977-4.793-7.531a17.19,17.19,0,0,1-1.284-2.853c-.784-2.111-1.426-4.279-2.282-6.361a19.644,19.644,0,0,1-.771-7.134c7.133,4.979,11.855,11.712,17.119,17.846l-1.968,6.761a7.515,7.515,0,0,1,.185-3.751c.142-1.155.3-2.31.47-3.551-.756-.186-.984.142-1.112.77a20.894,20.894,0,0,1-.984,3.68,5.388,5.388,0,0,1,.085-3.609c.228-.6.357-1.127-.556-1.541-.357,1.042-.671,2-1.127,3.367-1.341-1.912-2.369-3.439-3.524-5.05-.671.371-.57,1.055-.2,1.669.584.955,1.3,1.826,1.939,2.753.9,1.312,1.784,2.654,2.682,3.966s1.7,2.553,2.654,3.736,2.4,2.582,3.495,3.952a8,8,0,0,1,1.284,2.31c1.17,3.053,2.268,6.135,3.366,9.2a22.817,22.817,0,0,1,1.6,6.718,14.487,14.487,0,0,0,1.612,5.008c1.3,2.853,2.753,5.791,4.194,8.658a10.449,10.449,0,0,1,1.427,3.467,105.877,105.877,0,0,1-6.919-9.329Zm12,51.211a2.255,2.255,0,0,1-2.439,1.526,1.412,1.412,0,0,1-.542-.295,1.427,1.427,0,0,1-.488-1.1,1.41,1.41,0,0,1,.145-.6,1.925,1.925,0,0,1,2.339-1.112c.856.271,1.227.87.985,1.54Zm1-18.729c-.414,2.938-.885,5.891-1.113,8.843a60.785,60.785,0,0,0,.086,6.634l-2.853.3a7.39,7.39,0,0,1-.086-1.27c.172-1.783.428-3.551.6-5.334.4-4.08.8-8.16,1.126-12.24.086-.927-.214-1.9-.156-2.853.1-1.8.342-3.6.484-5.407a5.006,5.006,0,0,0-.1-1.725c-.315-1.128-.77-2.24-1.128-3.353a11.081,11.081,0,0,1-.855-4.151,8.007,8.007,0,0,0-.571-2.767,37.738,37.738,0,0,0-1.427-3.852c-.713-1.612-1.54-3.167-2.339-4.75l-2.382-4.636,1.6-4.779c-1.427-.085-1.185,1.341-1.884,1.84-.856-1.312-.941-1.427-.086-3.709.457-1.155.443-2.611,1.8-3.481l-.628-1.184c-1.755.685-1.07,2.725-2.326,3.781a1.844,1.844,0,0,1-.342-1.755c.47-1.341,1.013-2.639,1.427-3.98a2.1,2.1,0,0,0,.113-1.142,11.452,11.452,0,0,0-.613-1.654c-.556,1.6-1.112,3.2-1.655,4.793l-.5-.128c-1.27-2.183.513-3.937,1.042-5.92-.243-.485-.642-.485-.942-.072-.571.814-1.056,1.7-1.726,2.853-.785-2.125-1.426-4.079-2.225-6.091a7.493,7.493,0,0,0,1.526-4.964c-1.427-.485-.913,1.113-1.67,1.426a8.723,8.723,0,0,1,.657-4.222c1.169.542,1.355,1.7,1.7,2.6a56.273,56.273,0,0,0,3.722,8.246,5.123,5.123,0,0,1,.3,1.169,7.7,7.7,0,0,1,2.3,3.88,36.08,36.08,0,0,1,1.027,3.938l1.2,4.749c1.426,4.009,2.853,8,4.051,12.069a22.045,22.045,0,0,1,.442,4.779,42,42,0,0,0,1.27,9.129c.157.557.613,1.042.7,1.6.214,1.6,1.156,3.224.942,4.679-.386,2.668-.129,5.393-.5,8.075Zm9-24.865c-1.869,2.311-3.623,4.707-5.406,7.132-.414.557-.757,1.185-1.327,2.083a4.431,4.431,0,0,1,0-1.184,19.36,19.36,0,0,1,3.495-7.132,33.8,33.8,0,0,0,2.625-3.9,118.219,118.219,0,0,1,9.9-11.912,5.584,5.584,0,0,1,.513-.484l.357.114a6.907,6.907,0,0,1-.243,1.1c-.741,1.611-1.427,3.223-2.282,4.806a7.134,7.134,0,0,1-.985,1.427c-2.225,2.653-4.479,5.236-6.647,7.9Zm8-5.392a28.031,28.031,0,0,1-3.366,2.139l-.257-.328c.414-.37.784-.77,1.212-1.113s.813-.385,1.013-.7c2.853-4.708,7.133-8.188,10.914-12.054,1.826-1.855,3.893-3.467,5.706-5.278s3.537-3.666,5.292-5.507c.77-.813,1.569-1.626,2.282-2.482a8.179,8.179,0,0,0,.757-1.426,4.9,4.9,0,0,1,.8-1.427,16.78,16.78,0,0,0,3.082-4.45,31.1,31.1,0,0,1,2.853-3.381,21.552,21.552,0,0,0,2.069-2.9,3.244,3.244,0,0,0,.128-1.955q3.237-4.734,6.476-9.429l.3.185c-.885,1.727-1.77,3.452-2.668,5.165l-5.949,11.411a40.344,40.344,0,0,1-5.092,7.274c-3.5,4.123-6.962,8.246-10.542,12.3A145.7,145.7,0,0,1,1213,4103.944Zm65.429-25.963a5.057,5.057,0,0,1,.342-.827c.984-1.427,2.011-2.938,2.952-4.465.613-1,1.084-2.1,1.626-3.153l1.1-2.025a11.478,11.478,0,0,0,.656-1.112c2.768-6.262,6.164-12.239,8.346-18.759a35.708,35.708,0,0,1,1.954-3.994c1.427-2.853,2.668-5.592,4.052-8.346a12.1,12.1,0,0,1,2.012-2.853l.556.315c-.143.413-.243.827-.414,1.212q-1.7,3.552-3.4,7.133c-.713,1.427-1.512,2.967-2.183,4.494-.842,1.9-1.526,3.865-2.382,5.706-1.127,2.5-2.326,4.95-3.538,7.389-1.626,3.281-3.438,6.491-4.937,9.827a37.5,37.5,0,0,1-5.606,8.816,1.593,1.593,0,0,1-.515.421,1.571,1.571,0,0,1-.64.178Zm-89.873,15.136.671.67c-.086.214-.186.428-.443,1.027-.214-.771-.342-1.17-.456-1.584Z" transform="translate(-1155.175 -3938.19)" fill="#101a24" opacity="0.1"/>
</svg>
