<svg xmlns="http://www.w3.org/2000/svg" width="1865.578" height="980.067" viewBox="0 0 1865.578 980.067">
  <path id="verde1" d="M33.267,381.548c-3.082-38.731,2.1-77.346,3.25-116.005,1.346-45.1-4.239-89.6-11-134.244-1.72-11.36-7.393-23.537.794-35.543,2.885-4.233-5.529-8.688-3.6-15.01C31,53.511,44.609,43.791,87.482,36.19c39.256-6.96,79.487-9.224,120.284-8.45,19.545.371,39.9,1.1,59.812-2.29,9.842-1.677,20.856-1.875,30.867,2.043,8.334,3.262,14.923-3.04,23.282-2.771,21.891.706,44.006-.8,65.579,2.76,8.849,1.46,16.978-.58,25.474-.548,71.112.261,142.262-.926,213.334.371,238.966,4.361,477.952.943,716.923,1.64,49.347.144,98.745-1.963,148.154-1.867,45.184.087,90.467-1.4,135.53.36,64.973,2.535,130.706.042,194.464,12.733,30.794,6.13,58.475,16.459,63.592,43.2,3.8,19.85,3.321,40.115,1,60.187-2.34,20.24-6.641,40.408-7.549,60.672-1.308,29.233-2.537,58.64.181,87.764,4.25,45.525,2.381,91.012,1.96,136.481a624.788,624.788,0,0,1-28.819,182.545c-10.666,33.919-26.007,66.551-44.145,98.524-2.768,4.878-5.174,10.1-13.611,11.541-1.718.292-4.34,2.833-4.006,3.881,5.028,15.755-11.219,25.2-20.03,36.294-33.306,41.922-76.938,77.308-127.655,107.691-96.949,58.078-209.671,89.723-329.253,109.6q-71.78,11.93-144.954,17.566c-39.327,3.017-78.6,5.208-118.1,6.587-31.46,1.1-62.629,2.016-94.136.486-11.392-.554-23.645,1.352-35.523,1.187-69.022-.956-137.781-3.864-206.438-10.229C620.48,985.5,529.644,970.191,442.5,944.026c-69-20.716-132.72-48.249-189.424-85.1q-81.323-52.842-130.618-123.795C82.743,677.871,59.042,616.5,47.315,552.541c-5.706-31.118-9.188-62.347-12.044-93.707C32.919,433.007,34.667,407.281,33.267,381.548Z" transform="translate(-22 -24.315)" fill="#effee9"/>
</svg>
